ISO-10303-21;
HEADER;
/* Generated by software containing ST-Developer
 * from STEP Tools, Inc. (www.steptools.com) 
 */

FILE_DESCRIPTION(
/* description */ (''),
/* implementation_level */ '2;1');

FILE_NAME(
/* name */ 'Controller module bottom.step',
/* time_stamp */ '2026-04-27T15:43:46+01:00',
/* author */ (''),
/* organization */ (''),
/* preprocessor_version */ 'ST-DEVELOPER v20.1',
/* originating_system */ 'Autodesk Translation Framework v14.24.0.0',
/* authorisation */ '');

FILE_SCHEMA (('AUTOMOTIVE_DESIGN { 1 0 10303 214 3 1 1 }'));
ENDSEC;

DATA;
#10=MECHANICAL_DESIGN_GEOMETRIC_PRESENTATION_REPRESENTATION('',(#13),#1323);
#11=SHAPE_REPRESENTATION_RELATIONSHIP('SRR','None',#1330,#12);
#12=ADVANCED_BREP_SHAPE_REPRESENTATION('',(#14),#1322);
#13=STYLED_ITEM('',(#1339),#14);
#14=MANIFOLD_SOLID_BREP('Body1',#791);
#15=FACE_BOUND('',#108,.T.);
#16=FACE_BOUND('',#111,.T.);
#17=FACE_BOUND('',#114,.T.);
#18=FACE_BOUND('',#117,.T.);
#19=FACE_BOUND('',#122,.T.);
#20=FACE_BOUND('',#128,.T.);
#21=FACE_BOUND('',#133,.T.);
#22=FACE_BOUND('',#138,.T.);
#23=FACE_BOUND('',#147,.T.);
#24=FACE_BOUND('',#148,.T.);
#25=FACE_BOUND('',#149,.T.);
#26=FACE_BOUND('',#150,.T.);
#27=PLANE('',#808);
#28=PLANE('',#812);
#29=PLANE('',#813);
#30=PLANE('',#814);
#31=PLANE('',#815);
#32=PLANE('',#816);
#33=PLANE('',#817);
#34=PLANE('',#821);
#35=PLANE('',#826);
#36=PLANE('',#831);
#37=PLANE('',#836);
#38=PLANE('',#838);
#39=PLANE('',#839);
#40=PLANE('',#843);
#41=PLANE('',#845);
#42=PLANE('',#849);
#43=PLANE('',#850);
#44=PLANE('',#853);
#45=PLANE('',#855);
#46=PLANE('',#856);
#47=PLANE('',#859);
#48=PLANE('',#861);
#49=PLANE('',#862);
#50=PLANE('',#865);
#51=PLANE('',#871);
#52=PLANE('',#872);
#53=PLANE('',#873);
#54=PLANE('',#874);
#55=FACE_OUTER_BOUND('',#97,.T.);
#56=FACE_OUTER_BOUND('',#98,.T.);
#57=FACE_OUTER_BOUND('',#99,.T.);
#58=FACE_OUTER_BOUND('',#100,.T.);
#59=FACE_OUTER_BOUND('',#101,.T.);
#60=FACE_OUTER_BOUND('',#102,.T.);
#61=FACE_OUTER_BOUND('',#103,.T.);
#62=FACE_OUTER_BOUND('',#104,.T.);
#63=FACE_OUTER_BOUND('',#105,.T.);
#64=FACE_OUTER_BOUND('',#106,.T.);
#65=FACE_OUTER_BOUND('',#107,.T.);
#66=FACE_OUTER_BOUND('',#109,.T.);
#67=FACE_OUTER_BOUND('',#110,.T.);
#68=FACE_OUTER_BOUND('',#112,.T.);
#69=FACE_OUTER_BOUND('',#113,.T.);
#70=FACE_OUTER_BOUND('',#115,.T.);
#71=FACE_OUTER_BOUND('',#116,.T.);
#72=FACE_OUTER_BOUND('',#118,.T.);
#73=FACE_OUTER_BOUND('',#119,.T.);
#74=FACE_OUTER_BOUND('',#120,.T.);
#75=FACE_OUTER_BOUND('',#121,.T.);
#76=FACE_OUTER_BOUND('',#123,.T.);
#77=FACE_OUTER_BOUND('',#124,.T.);
#78=FACE_OUTER_BOUND('',#125,.T.);
#79=FACE_OUTER_BOUND('',#126,.T.);
#80=FACE_OUTER_BOUND('',#127,.T.);
#81=FACE_OUTER_BOUND('',#129,.T.);
#82=FACE_OUTER_BOUND('',#130,.T.);
#83=FACE_OUTER_BOUND('',#131,.T.);
#84=FACE_OUTER_BOUND('',#132,.T.);
#85=FACE_OUTER_BOUND('',#134,.T.);
#86=FACE_OUTER_BOUND('',#135,.T.);
#87=FACE_OUTER_BOUND('',#136,.T.);
#88=FACE_OUTER_BOUND('',#137,.T.);
#89=FACE_OUTER_BOUND('',#139,.T.);
#90=FACE_OUTER_BOUND('',#140,.T.);
#91=FACE_OUTER_BOUND('',#141,.T.);
#92=FACE_OUTER_BOUND('',#142,.T.);
#93=FACE_OUTER_BOUND('',#143,.T.);
#94=FACE_OUTER_BOUND('',#144,.T.);
#95=FACE_OUTER_BOUND('',#145,.T.);
#96=FACE_OUTER_BOUND('',#146,.T.);
#97=EDGE_LOOP('',(#519,#520,#521,#522));
#98=EDGE_LOOP('',(#523,#524,#525,#526));
#99=EDGE_LOOP('',(#527,#528,#529,#530));
#100=EDGE_LOOP('',(#531,#532,#533,#534,#535,#536));
#101=EDGE_LOOP('',(#537,#538,#539,#540,#541,#542));
#102=EDGE_LOOP('',(#543,#544,#545,#546,#547,#548));
#103=EDGE_LOOP('',(#549,#550,#551,#552,#553,#554));
#104=EDGE_LOOP('',(#555,#556,#557,#558,#559,#560));
#105=EDGE_LOOP('',(#561,#562,#563,#564,#565,#566));
#106=EDGE_LOOP('',(#567,#568,#569,#570));
#107=EDGE_LOOP('',(#571));
#108=EDGE_LOOP('',(#572));
#109=EDGE_LOOP('',(#573,#574,#575,#576));
#110=EDGE_LOOP('',(#577));
#111=EDGE_LOOP('',(#578));
#112=EDGE_LOOP('',(#579,#580,#581,#582));
#113=EDGE_LOOP('',(#583));
#114=EDGE_LOOP('',(#584));
#115=EDGE_LOOP('',(#585,#586,#587,#588));
#116=EDGE_LOOP('',(#589));
#117=EDGE_LOOP('',(#590));
#118=EDGE_LOOP('',(#591,#592,#593,#594));
#119=EDGE_LOOP('',(#595,#596,#597,#598));
#120=EDGE_LOOP('',(#599,#600,#601,#602));
#121=EDGE_LOOP('',(#603,#604,#605,#606,#607));
#122=EDGE_LOOP('',(#608));
#123=EDGE_LOOP('',(#609,#610,#611,#612,#613,#614,#615,#616,#617,#618,#619,
#620,#621,#622,#623,#624,#625,#626,#627,#628));
#124=EDGE_LOOP('',(#629,#630,#631,#632));
#125=EDGE_LOOP('',(#633,#634,#635,#636));
#126=EDGE_LOOP('',(#637,#638,#639,#640));
#127=EDGE_LOOP('',(#641,#642,#643,#644,#645));
#128=EDGE_LOOP('',(#646));
#129=EDGE_LOOP('',(#647,#648,#649,#650));
#130=EDGE_LOOP('',(#651,#652,#653,#654));
#131=EDGE_LOOP('',(#655,#656,#657,#658));
#132=EDGE_LOOP('',(#659,#660,#661,#662,#663));
#133=EDGE_LOOP('',(#664));
#134=EDGE_LOOP('',(#665,#666,#667,#668));
#135=EDGE_LOOP('',(#669,#670,#671,#672));
#136=EDGE_LOOP('',(#673,#674,#675,#676));
#137=EDGE_LOOP('',(#677,#678,#679,#680,#681));
#138=EDGE_LOOP('',(#682));
#139=EDGE_LOOP('',(#683,#684,#685,#686));
#140=EDGE_LOOP('',(#687,#688,#689,#690));
#141=EDGE_LOOP('',(#691,#692,#693,#694));
#142=EDGE_LOOP('',(#695,#696,#697,#698));
#143=EDGE_LOOP('',(#699,#700,#701,#702,#703,#704,#705,#706));
#144=EDGE_LOOP('',(#707,#708,#709,#710,#711,#712,#713,#714));
#145=EDGE_LOOP('',(#715,#716,#717,#718,#719,#720,#721,#722));
#146=EDGE_LOOP('',(#723,#724,#725,#726,#727,#728,#729,#730));
#147=EDGE_LOOP('',(#731));
#148=EDGE_LOOP('',(#732));
#149=EDGE_LOOP('',(#733));
#150=EDGE_LOOP('',(#734));
#151=LINE('',#1103,#231);
#152=LINE('',#1106,#232);
#153=LINE('',#1109,#233);
#154=LINE('',#1111,#234);
#155=LINE('',#1112,#235);
#156=LINE('',#1118,#236);
#157=LINE('',#1121,#237);
#158=LINE('',#1123,#238);
#159=LINE('',#1125,#239);
#160=LINE('',#1127,#240);
#161=LINE('',#1128,#241);
#162=LINE('',#1131,#242);
#163=LINE('',#1133,#243);
#164=LINE('',#1135,#244);
#165=LINE('',#1137,#245);
#166=LINE('',#1138,#246);
#167=LINE('',#1140,#247);
#168=LINE('',#1142,#248);
#169=LINE('',#1145,#249);
#170=LINE('',#1147,#250);
#171=LINE('',#1149,#251);
#172=LINE('',#1151,#252);
#173=LINE('',#1152,#253);
#174=LINE('',#1155,#254);
#175=LINE('',#1157,#255);
#176=LINE('',#1159,#256);
#177=LINE('',#1161,#257);
#178=LINE('',#1162,#258);
#179=LINE('',#1167,#259);
#180=LINE('',#1176,#260);
#181=LINE('',#1185,#261);
#182=LINE('',#1194,#262);
#183=LINE('',#1202,#263);
#184=LINE('',#1204,#264);
#185=LINE('',#1206,#265);
#186=LINE('',#1207,#266);
#187=LINE('',#1210,#267);
#188=LINE('',#1212,#268);
#189=LINE('',#1213,#269);
#190=LINE('',#1218,#270);
#191=LINE('',#1223,#271);
#192=LINE('',#1225,#272);
#193=LINE('',#1229,#273);
#194=LINE('',#1231,#274);
#195=LINE('',#1233,#275);
#196=LINE('',#1237,#276);
#197=LINE('',#1239,#277);
#198=LINE('',#1241,#278);
#199=LINE('',#1244,#279);
#200=LINE('',#1247,#280);
#201=LINE('',#1249,#281);
#202=LINE('',#1250,#282);
#203=LINE('',#1253,#283);
#204=LINE('',#1255,#284);
#205=LINE('',#1256,#285);
#206=LINE('',#1261,#286);
#207=LINE('',#1262,#287);
#208=LINE('',#1267,#288);
#209=LINE('',#1268,#289);
#210=LINE('',#1271,#290);
#211=LINE('',#1273,#291);
#212=LINE('',#1274,#292);
#213=LINE('',#1278,#293);
#214=LINE('',#1283,#294);
#215=LINE('',#1285,#295);
#216=LINE('',#1286,#296);
#217=LINE('',#1289,#297);
#218=LINE('',#1291,#298);
#219=LINE('',#1292,#299);
#220=LINE('',#1297,#300);
#221=LINE('',#1298,#301);
#222=LINE('',#1302,#302);
#223=LINE('',#1304,#303);
#224=LINE('',#1306,#304);
#225=LINE('',#1308,#305);
#226=LINE('',#1311,#306);
#227=LINE('',#1312,#307);
#228=LINE('',#1315,#308);
#229=LINE('',#1316,#309);
#230=LINE('',#1318,#310);
#231=VECTOR('',#881,10.);
#232=VECTOR('',#884,10.);
#233=VECTOR('',#887,10.);
#234=VECTOR('',#888,10.);
#235=VECTOR('',#889,10.);
#236=VECTOR('',#896,10.);
#237=VECTOR('',#899,10.);
#238=VECTOR('',#900,10.);
#239=VECTOR('',#901,10.);
#240=VECTOR('',#902,10.);
#241=VECTOR('',#903,10.);
#242=VECTOR('',#906,10.);
#243=VECTOR('',#907,10.);
#244=VECTOR('',#908,10.);
#245=VECTOR('',#909,10.);
#246=VECTOR('',#910,10.);
#247=VECTOR('',#913,10.);
#248=VECTOR('',#916,10.);
#249=VECTOR('',#919,10.);
#250=VECTOR('',#920,10.);
#251=VECTOR('',#921,10.);
#252=VECTOR('',#922,10.);
#253=VECTOR('',#923,10.);
#254=VECTOR('',#926,10.);
#255=VECTOR('',#927,10.);
#256=VECTOR('',#928,10.);
#257=VECTOR('',#929,10.);
#258=VECTOR('',#930,10.);
#259=VECTOR('',#935,3.5);
#260=VECTOR('',#946,3.5);
#261=VECTOR('',#957,3.5);
#262=VECTOR('',#968,3.5);
#263=VECTOR('',#977,10.);
#264=VECTOR('',#978,10.);
#265=VECTOR('',#979,10.);
#266=VECTOR('',#980,10.);
#267=VECTOR('',#983,10.);
#268=VECTOR('',#984,10.);
#269=VECTOR('',#985,10.);
#270=VECTOR('',#994,10.);
#271=VECTOR('',#999,10.);
#272=VECTOR('',#1000,10.);
#273=VECTOR('',#1003,10.);
#274=VECTOR('',#1004,10.);
#275=VECTOR('',#1005,10.);
#276=VECTOR('',#1008,10.);
#277=VECTOR('',#1009,10.);
#278=VECTOR('',#1010,10.);
#279=VECTOR('',#1013,10.);
#280=VECTOR('',#1016,10.);
#281=VECTOR('',#1017,10.);
#282=VECTOR('',#1018,10.);
#283=VECTOR('',#1021,10.);
#284=VECTOR('',#1022,10.);
#285=VECTOR('',#1023,10.);
#286=VECTOR('',#1030,10.);
#287=VECTOR('',#1031,10.);
#288=VECTOR('',#1036,10.);
#289=VECTOR('',#1037,10.);
#290=VECTOR('',#1040,10.);
#291=VECTOR('',#1041,10.);
#292=VECTOR('',#1042,10.);
#293=VECTOR('',#1049,10.);
#294=VECTOR('',#1054,10.);
#295=VECTOR('',#1055,10.);
#296=VECTOR('',#1056,10.);
#297=VECTOR('',#1059,10.);
#298=VECTOR('',#1060,10.);
#299=VECTOR('',#1061,10.);
#300=VECTOR('',#1068,10.);
#301=VECTOR('',#1069,10.);
#302=VECTOR('',#1074,1.8);
#303=VECTOR('',#1077,1.8);
#304=VECTOR('',#1080,1.8);
#305=VECTOR('',#1083,1.8);
#306=VECTOR('',#1086,10.);
#307=VECTOR('',#1087,10.);
#308=VECTOR('',#1090,10.);
#309=VECTOR('',#1091,10.);
#310=VECTOR('',#1094,10.);
#311=CIRCLE('',#806,2.50000002980232);
#312=CIRCLE('',#807,2.50000002980232);
#313=CIRCLE('',#810,2.50000002980232);
#314=CIRCLE('',#811,2.50000002980232);
#315=CIRCLE('',#819,3.5);
#316=CIRCLE('',#820,3.5);
#317=CIRCLE('',#822,1.8);
#318=CIRCLE('',#824,3.5);
#319=CIRCLE('',#825,3.5);
#320=CIRCLE('',#827,1.8);
#321=CIRCLE('',#829,3.5);
#322=CIRCLE('',#830,3.5);
#323=CIRCLE('',#832,1.8);
#324=CIRCLE('',#834,3.5);
#325=CIRCLE('',#835,3.5);
#326=CIRCLE('',#837,1.8);
#327=CIRCLE('',#841,5.00000007450581);
#328=CIRCLE('',#842,5.00000007450581);
#329=CIRCLE('',#844,1.8);
#330=CIRCLE('',#846,5.00000007450581);
#331=CIRCLE('',#847,5.00000007450581);
#332=CIRCLE('',#848,5.00000007450581);
#333=CIRCLE('',#852,5.00000007450581);
#334=CIRCLE('',#854,1.8);
#335=CIRCLE('',#858,5.00000007450581);
#336=CIRCLE('',#860,1.8);
#337=CIRCLE('',#864,5.00000007450581);
#338=CIRCLE('',#866,1.8);
#339=VERTEX_POINT('',#1099);
#340=VERTEX_POINT('',#1100);
#341=VERTEX_POINT('',#1102);
#342=VERTEX_POINT('',#1104);
#343=VERTEX_POINT('',#1108);
#344=VERTEX_POINT('',#1110);
#345=VERTEX_POINT('',#1114);
#346=VERTEX_POINT('',#1116);
#347=VERTEX_POINT('',#1120);
#348=VERTEX_POINT('',#1122);
#349=VERTEX_POINT('',#1124);
#350=VERTEX_POINT('',#1126);
#351=VERTEX_POINT('',#1130);
#352=VERTEX_POINT('',#1132);
#353=VERTEX_POINT('',#1134);
#354=VERTEX_POINT('',#1136);
#355=VERTEX_POINT('',#1144);
#356=VERTEX_POINT('',#1146);
#357=VERTEX_POINT('',#1148);
#358=VERTEX_POINT('',#1150);
#359=VERTEX_POINT('',#1154);
#360=VERTEX_POINT('',#1156);
#361=VERTEX_POINT('',#1158);
#362=VERTEX_POINT('',#1160);
#363=VERTEX_POINT('',#1164);
#364=VERTEX_POINT('',#1166);
#365=VERTEX_POINT('',#1170);
#366=VERTEX_POINT('',#1173);
#367=VERTEX_POINT('',#1175);
#368=VERTEX_POINT('',#1179);
#369=VERTEX_POINT('',#1182);
#370=VERTEX_POINT('',#1184);
#371=VERTEX_POINT('',#1188);
#372=VERTEX_POINT('',#1191);
#373=VERTEX_POINT('',#1193);
#374=VERTEX_POINT('',#1197);
#375=VERTEX_POINT('',#1200);
#376=VERTEX_POINT('',#1201);
#377=VERTEX_POINT('',#1203);
#378=VERTEX_POINT('',#1205);
#379=VERTEX_POINT('',#1209);
#380=VERTEX_POINT('',#1211);
#381=VERTEX_POINT('',#1219);
#382=VERTEX_POINT('',#1222);
#383=VERTEX_POINT('',#1224);
#384=VERTEX_POINT('',#1226);
#385=VERTEX_POINT('',#1228);
#386=VERTEX_POINT('',#1230);
#387=VERTEX_POINT('',#1232);
#388=VERTEX_POINT('',#1234);
#389=VERTEX_POINT('',#1236);
#390=VERTEX_POINT('',#1238);
#391=VERTEX_POINT('',#1240);
#392=VERTEX_POINT('',#1242);
#393=VERTEX_POINT('',#1246);
#394=VERTEX_POINT('',#1248);
#395=VERTEX_POINT('',#1252);
#396=VERTEX_POINT('',#1254);
#397=VERTEX_POINT('',#1260);
#398=VERTEX_POINT('',#1263);
#399=VERTEX_POINT('',#1266);
#400=VERTEX_POINT('',#1270);
#401=VERTEX_POINT('',#1272);
#402=VERTEX_POINT('',#1279);
#403=VERTEX_POINT('',#1282);
#404=VERTEX_POINT('',#1284);
#405=VERTEX_POINT('',#1288);
#406=VERTEX_POINT('',#1290);
#407=VERTEX_POINT('',#1296);
#408=VERTEX_POINT('',#1299);
#409=VERTEX_POINT('',#1310);
#410=VERTEX_POINT('',#1314);
#411=EDGE_CURVE('',#339,#340,#311,.T.);
#412=EDGE_CURVE('',#339,#341,#151,.T.);
#413=EDGE_CURVE('',#342,#341,#312,.F.);
#414=EDGE_CURVE('',#340,#342,#152,.T.);
#415=EDGE_CURVE('',#340,#343,#153,.T.);
#416=EDGE_CURVE('',#344,#342,#154,.F.);
#417=EDGE_CURVE('',#343,#344,#155,.T.);
#418=EDGE_CURVE('',#343,#345,#313,.T.);
#419=EDGE_CURVE('',#346,#344,#314,.F.);
#420=EDGE_CURVE('',#345,#346,#156,.F.);
#421=EDGE_CURVE('',#347,#346,#157,.T.);
#422=EDGE_CURVE('',#348,#347,#158,.T.);
#423=EDGE_CURVE('',#349,#348,#159,.F.);
#424=EDGE_CURVE('',#350,#349,#160,.T.);
#425=EDGE_CURVE('',#345,#350,#161,.T.);
#426=EDGE_CURVE('',#339,#351,#162,.T.);
#427=EDGE_CURVE('',#351,#352,#163,.T.);
#428=EDGE_CURVE('',#353,#352,#164,.F.);
#429=EDGE_CURVE('',#353,#354,#165,.T.);
#430=EDGE_CURVE('',#341,#354,#166,.T.);
#431=EDGE_CURVE('',#354,#347,#167,.T.);
#432=EDGE_CURVE('',#351,#350,#168,.T.);
#433=EDGE_CURVE('',#355,#348,#169,.T.);
#434=EDGE_CURVE('',#355,#356,#170,.F.);
#435=EDGE_CURVE('',#357,#356,#171,.F.);
#436=EDGE_CURVE('',#358,#357,#172,.F.);
#437=EDGE_CURVE('',#349,#358,#173,.F.);
#438=EDGE_CURVE('',#359,#352,#174,.F.);
#439=EDGE_CURVE('',#359,#360,#175,.T.);
#440=EDGE_CURVE('',#361,#360,#176,.F.);
#441=EDGE_CURVE('',#361,#362,#177,.F.);
#442=EDGE_CURVE('',#353,#362,#178,.T.);
#443=EDGE_CURVE('',#363,#363,#315,.T.);
#444=EDGE_CURVE('',#363,#364,#179,.T.);
#445=EDGE_CURVE('',#364,#364,#316,.T.);
#446=EDGE_CURVE('',#365,#365,#317,.T.);
#447=EDGE_CURVE('',#366,#366,#318,.T.);
#448=EDGE_CURVE('',#366,#367,#180,.T.);
#449=EDGE_CURVE('',#367,#367,#319,.T.);
#450=EDGE_CURVE('',#368,#368,#320,.T.);
#451=EDGE_CURVE('',#369,#369,#321,.T.);
#452=EDGE_CURVE('',#369,#370,#181,.T.);
#453=EDGE_CURVE('',#370,#370,#322,.T.);
#454=EDGE_CURVE('',#371,#371,#323,.T.);
#455=EDGE_CURVE('',#372,#372,#324,.T.);
#456=EDGE_CURVE('',#372,#373,#182,.T.);
#457=EDGE_CURVE('',#373,#373,#325,.T.);
#458=EDGE_CURVE('',#374,#374,#326,.T.);
#459=EDGE_CURVE('',#375,#376,#183,.T.);
#460=EDGE_CURVE('',#375,#377,#184,.T.);
#461=EDGE_CURVE('',#378,#377,#185,.T.);
#462=EDGE_CURVE('',#376,#378,#186,.T.);
#463=EDGE_CURVE('',#358,#379,#187,.T.);
#464=EDGE_CURVE('',#380,#357,#188,.T.);
#465=EDGE_CURVE('',#379,#380,#189,.T.);
#466=EDGE_CURVE('',#379,#375,#327,.T.);
#467=EDGE_CURVE('',#377,#380,#328,.T.);
#468=EDGE_CURVE('',#356,#378,#190,.F.);
#469=EDGE_CURVE('',#381,#381,#329,.T.);
#470=EDGE_CURVE('',#376,#382,#191,.F.);
#471=EDGE_CURVE('',#382,#383,#192,.T.);
#472=EDGE_CURVE('',#383,#384,#330,.T.);
#473=EDGE_CURVE('',#384,#385,#193,.T.);
#474=EDGE_CURVE('',#385,#386,#194,.F.);
#475=EDGE_CURVE('',#386,#387,#195,.T.);
#476=EDGE_CURVE('',#387,#388,#331,.T.);
#477=EDGE_CURVE('',#388,#389,#196,.T.);
#478=EDGE_CURVE('',#389,#390,#197,.F.);
#479=EDGE_CURVE('',#390,#391,#198,.T.);
#480=EDGE_CURVE('',#391,#392,#332,.T.);
#481=EDGE_CURVE('',#392,#359,#199,.T.);
#482=EDGE_CURVE('',#384,#393,#200,.T.);
#483=EDGE_CURVE('',#394,#393,#201,.T.);
#484=EDGE_CURVE('',#385,#394,#202,.T.);
#485=EDGE_CURVE('',#382,#395,#203,.F.);
#486=EDGE_CURVE('',#396,#395,#204,.T.);
#487=EDGE_CURVE('',#383,#396,#205,.T.);
#488=EDGE_CURVE('',#393,#396,#333,.T.);
#489=EDGE_CURVE('',#395,#397,#206,.F.);
#490=EDGE_CURVE('',#397,#394,#207,.F.);
#491=EDGE_CURVE('',#398,#398,#334,.T.);
#492=EDGE_CURVE('',#392,#399,#208,.T.);
#493=EDGE_CURVE('',#360,#399,#209,.T.);
#494=EDGE_CURVE('',#390,#400,#210,.F.);
#495=EDGE_CURVE('',#401,#400,#211,.T.);
#496=EDGE_CURVE('',#391,#401,#212,.T.);
#497=EDGE_CURVE('',#399,#401,#335,.T.);
#498=EDGE_CURVE('',#400,#361,#213,.F.);
#499=EDGE_CURVE('',#402,#402,#336,.T.);
#500=EDGE_CURVE('',#388,#403,#214,.T.);
#501=EDGE_CURVE('',#404,#403,#215,.T.);
#502=EDGE_CURVE('',#389,#404,#216,.T.);
#503=EDGE_CURVE('',#386,#405,#217,.F.);
#504=EDGE_CURVE('',#406,#405,#218,.T.);
#505=EDGE_CURVE('',#387,#406,#219,.T.);
#506=EDGE_CURVE('',#403,#406,#337,.T.);
#507=EDGE_CURVE('',#405,#407,#220,.F.);
#508=EDGE_CURVE('',#407,#404,#221,.F.);
#509=EDGE_CURVE('',#408,#408,#338,.T.);
#510=EDGE_CURVE('',#371,#408,#222,.T.);
#511=EDGE_CURVE('',#365,#402,#223,.T.);
#512=EDGE_CURVE('',#374,#398,#224,.T.);
#513=EDGE_CURVE('',#368,#381,#225,.T.);
#514=EDGE_CURVE('',#409,#355,#226,.T.);
#515=EDGE_CURVE('',#409,#397,#227,.F.);
#516=EDGE_CURVE('',#410,#409,#228,.T.);
#517=EDGE_CURVE('',#410,#407,#229,.F.);
#518=EDGE_CURVE('',#362,#410,#230,.T.);
#519=ORIENTED_EDGE('',*,*,#411,.F.);
#520=ORIENTED_EDGE('',*,*,#412,.T.);
#521=ORIENTED_EDGE('',*,*,#413,.F.);
#522=ORIENTED_EDGE('',*,*,#414,.F.);
#523=ORIENTED_EDGE('',*,*,#415,.F.);
#524=ORIENTED_EDGE('',*,*,#414,.T.);
#525=ORIENTED_EDGE('',*,*,#416,.F.);
#526=ORIENTED_EDGE('',*,*,#417,.F.);
#527=ORIENTED_EDGE('',*,*,#418,.F.);
#528=ORIENTED_EDGE('',*,*,#417,.T.);
#529=ORIENTED_EDGE('',*,*,#419,.F.);
#530=ORIENTED_EDGE('',*,*,#420,.F.);
#531=ORIENTED_EDGE('',*,*,#420,.T.);
#532=ORIENTED_EDGE('',*,*,#421,.F.);
#533=ORIENTED_EDGE('',*,*,#422,.F.);
#534=ORIENTED_EDGE('',*,*,#423,.F.);
#535=ORIENTED_EDGE('',*,*,#424,.F.);
#536=ORIENTED_EDGE('',*,*,#425,.F.);
#537=ORIENTED_EDGE('',*,*,#426,.T.);
#538=ORIENTED_EDGE('',*,*,#427,.T.);
#539=ORIENTED_EDGE('',*,*,#428,.F.);
#540=ORIENTED_EDGE('',*,*,#429,.T.);
#541=ORIENTED_EDGE('',*,*,#430,.F.);
#542=ORIENTED_EDGE('',*,*,#412,.F.);
#543=ORIENTED_EDGE('',*,*,#430,.T.);
#544=ORIENTED_EDGE('',*,*,#431,.T.);
#545=ORIENTED_EDGE('',*,*,#421,.T.);
#546=ORIENTED_EDGE('',*,*,#419,.T.);
#547=ORIENTED_EDGE('',*,*,#416,.T.);
#548=ORIENTED_EDGE('',*,*,#413,.T.);
#549=ORIENTED_EDGE('',*,*,#432,.F.);
#550=ORIENTED_EDGE('',*,*,#426,.F.);
#551=ORIENTED_EDGE('',*,*,#411,.T.);
#552=ORIENTED_EDGE('',*,*,#415,.T.);
#553=ORIENTED_EDGE('',*,*,#418,.T.);
#554=ORIENTED_EDGE('',*,*,#425,.T.);
#555=ORIENTED_EDGE('',*,*,#433,.F.);
#556=ORIENTED_EDGE('',*,*,#434,.T.);
#557=ORIENTED_EDGE('',*,*,#435,.F.);
#558=ORIENTED_EDGE('',*,*,#436,.F.);
#559=ORIENTED_EDGE('',*,*,#437,.F.);
#560=ORIENTED_EDGE('',*,*,#423,.T.);
#561=ORIENTED_EDGE('',*,*,#428,.T.);
#562=ORIENTED_EDGE('',*,*,#438,.F.);
#563=ORIENTED_EDGE('',*,*,#439,.T.);
#564=ORIENTED_EDGE('',*,*,#440,.F.);
#565=ORIENTED_EDGE('',*,*,#441,.T.);
#566=ORIENTED_EDGE('',*,*,#442,.F.);
#567=ORIENTED_EDGE('',*,*,#443,.F.);
#568=ORIENTED_EDGE('',*,*,#444,.T.);
#569=ORIENTED_EDGE('',*,*,#445,.T.);
#570=ORIENTED_EDGE('',*,*,#444,.F.);
#571=ORIENTED_EDGE('',*,*,#445,.F.);
#572=ORIENTED_EDGE('',*,*,#446,.F.);
#573=ORIENTED_EDGE('',*,*,#447,.F.);
#574=ORIENTED_EDGE('',*,*,#448,.T.);
#575=ORIENTED_EDGE('',*,*,#449,.T.);
#576=ORIENTED_EDGE('',*,*,#448,.F.);
#577=ORIENTED_EDGE('',*,*,#449,.F.);
#578=ORIENTED_EDGE('',*,*,#450,.F.);
#579=ORIENTED_EDGE('',*,*,#451,.F.);
#580=ORIENTED_EDGE('',*,*,#452,.T.);
#581=ORIENTED_EDGE('',*,*,#453,.T.);
#582=ORIENTED_EDGE('',*,*,#452,.F.);
#583=ORIENTED_EDGE('',*,*,#453,.F.);
#584=ORIENTED_EDGE('',*,*,#454,.F.);
#585=ORIENTED_EDGE('',*,*,#455,.F.);
#586=ORIENTED_EDGE('',*,*,#456,.T.);
#587=ORIENTED_EDGE('',*,*,#457,.T.);
#588=ORIENTED_EDGE('',*,*,#456,.F.);
#589=ORIENTED_EDGE('',*,*,#457,.F.);
#590=ORIENTED_EDGE('',*,*,#458,.F.);
#591=ORIENTED_EDGE('',*,*,#459,.F.);
#592=ORIENTED_EDGE('',*,*,#460,.T.);
#593=ORIENTED_EDGE('',*,*,#461,.F.);
#594=ORIENTED_EDGE('',*,*,#462,.F.);
#595=ORIENTED_EDGE('',*,*,#463,.F.);
#596=ORIENTED_EDGE('',*,*,#436,.T.);
#597=ORIENTED_EDGE('',*,*,#464,.F.);
#598=ORIENTED_EDGE('',*,*,#465,.F.);
#599=ORIENTED_EDGE('',*,*,#466,.F.);
#600=ORIENTED_EDGE('',*,*,#465,.T.);
#601=ORIENTED_EDGE('',*,*,#467,.F.);
#602=ORIENTED_EDGE('',*,*,#460,.F.);
#603=ORIENTED_EDGE('',*,*,#467,.T.);
#604=ORIENTED_EDGE('',*,*,#464,.T.);
#605=ORIENTED_EDGE('',*,*,#435,.T.);
#606=ORIENTED_EDGE('',*,*,#468,.T.);
#607=ORIENTED_EDGE('',*,*,#461,.T.);
#608=ORIENTED_EDGE('',*,*,#469,.T.);
#609=ORIENTED_EDGE('',*,*,#463,.T.);
#610=ORIENTED_EDGE('',*,*,#466,.T.);
#611=ORIENTED_EDGE('',*,*,#459,.T.);
#612=ORIENTED_EDGE('',*,*,#470,.T.);
#613=ORIENTED_EDGE('',*,*,#471,.T.);
#614=ORIENTED_EDGE('',*,*,#472,.T.);
#615=ORIENTED_EDGE('',*,*,#473,.T.);
#616=ORIENTED_EDGE('',*,*,#474,.T.);
#617=ORIENTED_EDGE('',*,*,#475,.T.);
#618=ORIENTED_EDGE('',*,*,#476,.T.);
#619=ORIENTED_EDGE('',*,*,#477,.T.);
#620=ORIENTED_EDGE('',*,*,#478,.T.);
#621=ORIENTED_EDGE('',*,*,#479,.T.);
#622=ORIENTED_EDGE('',*,*,#480,.T.);
#623=ORIENTED_EDGE('',*,*,#481,.T.);
#624=ORIENTED_EDGE('',*,*,#438,.T.);
#625=ORIENTED_EDGE('',*,*,#427,.F.);
#626=ORIENTED_EDGE('',*,*,#432,.T.);
#627=ORIENTED_EDGE('',*,*,#424,.T.);
#628=ORIENTED_EDGE('',*,*,#437,.T.);
#629=ORIENTED_EDGE('',*,*,#473,.F.);
#630=ORIENTED_EDGE('',*,*,#482,.T.);
#631=ORIENTED_EDGE('',*,*,#483,.F.);
#632=ORIENTED_EDGE('',*,*,#484,.F.);
#633=ORIENTED_EDGE('',*,*,#471,.F.);
#634=ORIENTED_EDGE('',*,*,#485,.T.);
#635=ORIENTED_EDGE('',*,*,#486,.F.);
#636=ORIENTED_EDGE('',*,*,#487,.F.);
#637=ORIENTED_EDGE('',*,*,#472,.F.);
#638=ORIENTED_EDGE('',*,*,#487,.T.);
#639=ORIENTED_EDGE('',*,*,#488,.F.);
#640=ORIENTED_EDGE('',*,*,#482,.F.);
#641=ORIENTED_EDGE('',*,*,#488,.T.);
#642=ORIENTED_EDGE('',*,*,#486,.T.);
#643=ORIENTED_EDGE('',*,*,#489,.T.);
#644=ORIENTED_EDGE('',*,*,#490,.T.);
#645=ORIENTED_EDGE('',*,*,#483,.T.);
#646=ORIENTED_EDGE('',*,*,#491,.T.);
#647=ORIENTED_EDGE('',*,*,#481,.F.);
#648=ORIENTED_EDGE('',*,*,#492,.T.);
#649=ORIENTED_EDGE('',*,*,#493,.F.);
#650=ORIENTED_EDGE('',*,*,#439,.F.);
#651=ORIENTED_EDGE('',*,*,#479,.F.);
#652=ORIENTED_EDGE('',*,*,#494,.T.);
#653=ORIENTED_EDGE('',*,*,#495,.F.);
#654=ORIENTED_EDGE('',*,*,#496,.F.);
#655=ORIENTED_EDGE('',*,*,#480,.F.);
#656=ORIENTED_EDGE('',*,*,#496,.T.);
#657=ORIENTED_EDGE('',*,*,#497,.F.);
#658=ORIENTED_EDGE('',*,*,#492,.F.);
#659=ORIENTED_EDGE('',*,*,#497,.T.);
#660=ORIENTED_EDGE('',*,*,#495,.T.);
#661=ORIENTED_EDGE('',*,*,#498,.T.);
#662=ORIENTED_EDGE('',*,*,#440,.T.);
#663=ORIENTED_EDGE('',*,*,#493,.T.);
#664=ORIENTED_EDGE('',*,*,#499,.T.);
#665=ORIENTED_EDGE('',*,*,#477,.F.);
#666=ORIENTED_EDGE('',*,*,#500,.T.);
#667=ORIENTED_EDGE('',*,*,#501,.F.);
#668=ORIENTED_EDGE('',*,*,#502,.F.);
#669=ORIENTED_EDGE('',*,*,#475,.F.);
#670=ORIENTED_EDGE('',*,*,#503,.T.);
#671=ORIENTED_EDGE('',*,*,#504,.F.);
#672=ORIENTED_EDGE('',*,*,#505,.F.);
#673=ORIENTED_EDGE('',*,*,#476,.F.);
#674=ORIENTED_EDGE('',*,*,#505,.T.);
#675=ORIENTED_EDGE('',*,*,#506,.F.);
#676=ORIENTED_EDGE('',*,*,#500,.F.);
#677=ORIENTED_EDGE('',*,*,#506,.T.);
#678=ORIENTED_EDGE('',*,*,#504,.T.);
#679=ORIENTED_EDGE('',*,*,#507,.T.);
#680=ORIENTED_EDGE('',*,*,#508,.T.);
#681=ORIENTED_EDGE('',*,*,#501,.T.);
#682=ORIENTED_EDGE('',*,*,#509,.T.);
#683=ORIENTED_EDGE('',*,*,#454,.T.);
#684=ORIENTED_EDGE('',*,*,#510,.T.);
#685=ORIENTED_EDGE('',*,*,#509,.F.);
#686=ORIENTED_EDGE('',*,*,#510,.F.);
#687=ORIENTED_EDGE('',*,*,#446,.T.);
#688=ORIENTED_EDGE('',*,*,#511,.T.);
#689=ORIENTED_EDGE('',*,*,#499,.F.);
#690=ORIENTED_EDGE('',*,*,#511,.F.);
#691=ORIENTED_EDGE('',*,*,#458,.T.);
#692=ORIENTED_EDGE('',*,*,#512,.T.);
#693=ORIENTED_EDGE('',*,*,#491,.F.);
#694=ORIENTED_EDGE('',*,*,#512,.F.);
#695=ORIENTED_EDGE('',*,*,#450,.T.);
#696=ORIENTED_EDGE('',*,*,#513,.T.);
#697=ORIENTED_EDGE('',*,*,#469,.F.);
#698=ORIENTED_EDGE('',*,*,#513,.F.);
#699=ORIENTED_EDGE('',*,*,#434,.F.);
#700=ORIENTED_EDGE('',*,*,#514,.F.);
#701=ORIENTED_EDGE('',*,*,#515,.T.);
#702=ORIENTED_EDGE('',*,*,#489,.F.);
#703=ORIENTED_EDGE('',*,*,#485,.F.);
#704=ORIENTED_EDGE('',*,*,#470,.F.);
#705=ORIENTED_EDGE('',*,*,#462,.T.);
#706=ORIENTED_EDGE('',*,*,#468,.F.);
#707=ORIENTED_EDGE('',*,*,#515,.F.);
#708=ORIENTED_EDGE('',*,*,#516,.F.);
#709=ORIENTED_EDGE('',*,*,#517,.T.);
#710=ORIENTED_EDGE('',*,*,#507,.F.);
#711=ORIENTED_EDGE('',*,*,#503,.F.);
#712=ORIENTED_EDGE('',*,*,#474,.F.);
#713=ORIENTED_EDGE('',*,*,#484,.T.);
#714=ORIENTED_EDGE('',*,*,#490,.F.);
#715=ORIENTED_EDGE('',*,*,#517,.F.);
#716=ORIENTED_EDGE('',*,*,#518,.F.);
#717=ORIENTED_EDGE('',*,*,#441,.F.);
#718=ORIENTED_EDGE('',*,*,#498,.F.);
#719=ORIENTED_EDGE('',*,*,#494,.F.);
#720=ORIENTED_EDGE('',*,*,#478,.F.);
#721=ORIENTED_EDGE('',*,*,#502,.T.);
#722=ORIENTED_EDGE('',*,*,#508,.F.);
#723=ORIENTED_EDGE('',*,*,#433,.T.);
#724=ORIENTED_EDGE('',*,*,#422,.T.);
#725=ORIENTED_EDGE('',*,*,#431,.F.);
#726=ORIENTED_EDGE('',*,*,#429,.F.);
#727=ORIENTED_EDGE('',*,*,#442,.T.);
#728=ORIENTED_EDGE('',*,*,#518,.T.);
#729=ORIENTED_EDGE('',*,*,#516,.T.);
#730=ORIENTED_EDGE('',*,*,#514,.T.);
#731=ORIENTED_EDGE('',*,*,#443,.T.);
#732=ORIENTED_EDGE('',*,*,#447,.T.);
#733=ORIENTED_EDGE('',*,*,#451,.T.);
#734=ORIENTED_EDGE('',*,*,#455,.T.);
#735=CYLINDRICAL_SURFACE('',#805,2.50000002980232);
#736=CYLINDRICAL_SURFACE('',#809,2.50000002980232);
#737=CYLINDRICAL_SURFACE('',#818,3.5);
#738=CYLINDRICAL_SURFACE('',#823,3.5);
#739=CYLINDRICAL_SURFACE('',#828,3.5);
#740=CYLINDRICAL_SURFACE('',#833,3.5);
#741=CYLINDRICAL_SURFACE('',#840,5.00000007450581);
#742=CYLINDRICAL_SURFACE('',#851,5.00000007450581);
#743=CYLINDRICAL_SURFACE('',#857,5.00000007450581);
#744=CYLINDRICAL_SURFACE('',#863,5.00000007450581);
#745=CYLINDRICAL_SURFACE('',#867,1.8);
#746=CYLINDRICAL_SURFACE('',#868,1.8);
#747=CYLINDRICAL_SURFACE('',#869,1.8);
#748=CYLINDRICAL_SURFACE('',#870,1.8);
#749=ADVANCED_FACE('',(#55),#735,.F.);
#750=ADVANCED_FACE('',(#56),#27,.T.);
#751=ADVANCED_FACE('',(#57),#736,.F.);
#752=ADVANCED_FACE('',(#58),#28,.T.);
#753=ADVANCED_FACE('',(#59),#29,.T.);
#754=ADVANCED_FACE('',(#60),#30,.T.);
#755=ADVANCED_FACE('',(#61),#31,.F.);
#756=ADVANCED_FACE('',(#62),#32,.T.);
#757=ADVANCED_FACE('',(#63),#33,.T.);
#758=ADVANCED_FACE('',(#64),#737,.F.);
#759=ADVANCED_FACE('',(#65,#15),#34,.T.);
#760=ADVANCED_FACE('',(#66),#738,.F.);
#761=ADVANCED_FACE('',(#67,#16),#35,.T.);
#762=ADVANCED_FACE('',(#68),#739,.F.);
#763=ADVANCED_FACE('',(#69,#17),#36,.T.);
#764=ADVANCED_FACE('',(#70),#740,.F.);
#765=ADVANCED_FACE('',(#71,#18),#37,.T.);
#766=ADVANCED_FACE('',(#72),#38,.T.);
#767=ADVANCED_FACE('',(#73),#39,.T.);
#768=ADVANCED_FACE('',(#74),#741,.T.);
#769=ADVANCED_FACE('',(#75,#19),#40,.T.);
#770=ADVANCED_FACE('',(#76),#41,.T.);
#771=ADVANCED_FACE('',(#77),#42,.T.);
#772=ADVANCED_FACE('',(#78),#43,.T.);
#773=ADVANCED_FACE('',(#79),#742,.T.);
#774=ADVANCED_FACE('',(#80,#20),#44,.T.);
#775=ADVANCED_FACE('',(#81),#45,.T.);
#776=ADVANCED_FACE('',(#82),#46,.T.);
#777=ADVANCED_FACE('',(#83),#743,.T.);
#778=ADVANCED_FACE('',(#84,#21),#47,.T.);
#779=ADVANCED_FACE('',(#85),#48,.T.);
#780=ADVANCED_FACE('',(#86),#49,.T.);
#781=ADVANCED_FACE('',(#87),#744,.T.);
#782=ADVANCED_FACE('',(#88,#22),#50,.T.);
#783=ADVANCED_FACE('',(#89),#745,.F.);
#784=ADVANCED_FACE('',(#90),#746,.F.);
#785=ADVANCED_FACE('',(#91),#747,.F.);
#786=ADVANCED_FACE('',(#92),#748,.F.);
#787=ADVANCED_FACE('',(#93),#51,.T.);
#788=ADVANCED_FACE('',(#94),#52,.T.);
#789=ADVANCED_FACE('',(#95),#53,.T.);
#790=ADVANCED_FACE('',(#96,#23,#24,#25,#26),#54,.F.);
#791=CLOSED_SHELL('',(#749,#750,#751,#752,#753,#754,#755,#756,#757,#758,
#759,#760,#761,#762,#763,#764,#765,#766,#767,#768,#769,#770,#771,#772,#773,
#774,#775,#776,#777,#778,#779,#780,#781,#782,#783,#784,#785,#786,#787,#788,
#789,#790));
#792=DERIVED_UNIT_ELEMENT(#794,1.);
#793=DERIVED_UNIT_ELEMENT(#1325,-3.);
#794=(
MASS_UNIT()
NAMED_UNIT(*)
SI_UNIT(.KILO.,.GRAM.)
);
#795=DERIVED_UNIT((#792,#793));
#796=MEASURE_REPRESENTATION_ITEM('density measure',
POSITIVE_RATIO_MEASURE(7850.),#795);
#797=PROPERTY_DEFINITION_REPRESENTATION(#802,#799);
#798=PROPERTY_DEFINITION_REPRESENTATION(#803,#800);
#799=REPRESENTATION('material name',(#801),#1322);
#800=REPRESENTATION('density',(#796),#1322);
#801=DESCRIPTIVE_REPRESENTATION_ITEM('Steel','Steel');
#802=PROPERTY_DEFINITION('material property','material name',#1332);
#803=PROPERTY_DEFINITION('material property','density of part',#1332);
#804=AXIS2_PLACEMENT_3D('',#1097,#875,#876);
#805=AXIS2_PLACEMENT_3D('',#1098,#877,#878);
#806=AXIS2_PLACEMENT_3D('',#1101,#879,#880);
#807=AXIS2_PLACEMENT_3D('',#1105,#882,#883);
#808=AXIS2_PLACEMENT_3D('',#1107,#885,#886);
#809=AXIS2_PLACEMENT_3D('',#1113,#890,#891);
#810=AXIS2_PLACEMENT_3D('',#1115,#892,#893);
#811=AXIS2_PLACEMENT_3D('',#1117,#894,#895);
#812=AXIS2_PLACEMENT_3D('',#1119,#897,#898);
#813=AXIS2_PLACEMENT_3D('',#1129,#904,#905);
#814=AXIS2_PLACEMENT_3D('',#1139,#911,#912);
#815=AXIS2_PLACEMENT_3D('',#1141,#914,#915);
#816=AXIS2_PLACEMENT_3D('',#1143,#917,#918);
#817=AXIS2_PLACEMENT_3D('',#1153,#924,#925);
#818=AXIS2_PLACEMENT_3D('',#1163,#931,#932);
#819=AXIS2_PLACEMENT_3D('',#1165,#933,#934);
#820=AXIS2_PLACEMENT_3D('',#1168,#936,#937);
#821=AXIS2_PLACEMENT_3D('',#1169,#938,#939);
#822=AXIS2_PLACEMENT_3D('',#1171,#940,#941);
#823=AXIS2_PLACEMENT_3D('',#1172,#942,#943);
#824=AXIS2_PLACEMENT_3D('',#1174,#944,#945);
#825=AXIS2_PLACEMENT_3D('',#1177,#947,#948);
#826=AXIS2_PLACEMENT_3D('',#1178,#949,#950);
#827=AXIS2_PLACEMENT_3D('',#1180,#951,#952);
#828=AXIS2_PLACEMENT_3D('',#1181,#953,#954);
#829=AXIS2_PLACEMENT_3D('',#1183,#955,#956);
#830=AXIS2_PLACEMENT_3D('',#1186,#958,#959);
#831=AXIS2_PLACEMENT_3D('',#1187,#960,#961);
#832=AXIS2_PLACEMENT_3D('',#1189,#962,#963);
#833=AXIS2_PLACEMENT_3D('',#1190,#964,#965);
#834=AXIS2_PLACEMENT_3D('',#1192,#966,#967);
#835=AXIS2_PLACEMENT_3D('',#1195,#969,#970);
#836=AXIS2_PLACEMENT_3D('',#1196,#971,#972);
#837=AXIS2_PLACEMENT_3D('',#1198,#973,#974);
#838=AXIS2_PLACEMENT_3D('',#1199,#975,#976);
#839=AXIS2_PLACEMENT_3D('',#1208,#981,#982);
#840=AXIS2_PLACEMENT_3D('',#1214,#986,#987);
#841=AXIS2_PLACEMENT_3D('',#1215,#988,#989);
#842=AXIS2_PLACEMENT_3D('',#1216,#990,#991);
#843=AXIS2_PLACEMENT_3D('',#1217,#992,#993);
#844=AXIS2_PLACEMENT_3D('',#1220,#995,#996);
#845=AXIS2_PLACEMENT_3D('',#1221,#997,#998);
#846=AXIS2_PLACEMENT_3D('',#1227,#1001,#1002);
#847=AXIS2_PLACEMENT_3D('',#1235,#1006,#1007);
#848=AXIS2_PLACEMENT_3D('',#1243,#1011,#1012);
#849=AXIS2_PLACEMENT_3D('',#1245,#1014,#1015);
#850=AXIS2_PLACEMENT_3D('',#1251,#1019,#1020);
#851=AXIS2_PLACEMENT_3D('',#1257,#1024,#1025);
#852=AXIS2_PLACEMENT_3D('',#1258,#1026,#1027);
#853=AXIS2_PLACEMENT_3D('',#1259,#1028,#1029);
#854=AXIS2_PLACEMENT_3D('',#1264,#1032,#1033);
#855=AXIS2_PLACEMENT_3D('',#1265,#1034,#1035);
#856=AXIS2_PLACEMENT_3D('',#1269,#1038,#1039);
#857=AXIS2_PLACEMENT_3D('',#1275,#1043,#1044);
#858=AXIS2_PLACEMENT_3D('',#1276,#1045,#1046);
#859=AXIS2_PLACEMENT_3D('',#1277,#1047,#1048);
#860=AXIS2_PLACEMENT_3D('',#1280,#1050,#1051);
#861=AXIS2_PLACEMENT_3D('',#1281,#1052,#1053);
#862=AXIS2_PLACEMENT_3D('',#1287,#1057,#1058);
#863=AXIS2_PLACEMENT_3D('',#1293,#1062,#1063);
#864=AXIS2_PLACEMENT_3D('',#1294,#1064,#1065);
#865=AXIS2_PLACEMENT_3D('',#1295,#1066,#1067);
#866=AXIS2_PLACEMENT_3D('',#1300,#1070,#1071);
#867=AXIS2_PLACEMENT_3D('',#1301,#1072,#1073);
#868=AXIS2_PLACEMENT_3D('',#1303,#1075,#1076);
#869=AXIS2_PLACEMENT_3D('',#1305,#1078,#1079);
#870=AXIS2_PLACEMENT_3D('',#1307,#1081,#1082);
#871=AXIS2_PLACEMENT_3D('',#1309,#1084,#1085);
#872=AXIS2_PLACEMENT_3D('',#1313,#1088,#1089);
#873=AXIS2_PLACEMENT_3D('',#1317,#1092,#1093);
#874=AXIS2_PLACEMENT_3D('',#1319,#1095,#1096);
#875=DIRECTION('axis',(0.,0.,1.));
#876=DIRECTION('refdir',(1.,0.,0.));
#877=DIRECTION('center_axis',(1.,0.,0.));
#878=DIRECTION('ref_axis',(0.,1.,0.));
#879=DIRECTION('center_axis',(1.,0.,0.));
#880=DIRECTION('ref_axis',(0.,1.,0.));
#881=DIRECTION('',(1.,0.,0.));
#882=DIRECTION('center_axis',(1.,0.,0.));
#883=DIRECTION('ref_axis',(0.,1.,0.));
#884=DIRECTION('',(1.,0.,0.));
#885=DIRECTION('center_axis',(0.,1.,0.));
#886=DIRECTION('ref_axis',(0.,0.,1.));
#887=DIRECTION('',(0.,0.,-1.));
#888=DIRECTION('',(0.,0.,-1.));
#889=DIRECTION('',(1.,0.,0.));
#890=DIRECTION('center_axis',(1.,0.,0.));
#891=DIRECTION('ref_axis',(0.,-1.,0.));
#892=DIRECTION('center_axis',(1.,0.,0.));
#893=DIRECTION('ref_axis',(0.,-1.,0.));
#894=DIRECTION('center_axis',(1.,0.,0.));
#895=DIRECTION('ref_axis',(0.,-1.,0.));
#896=DIRECTION('',(-1.,0.,0.));
#897=DIRECTION('center_axis',(0.,0.,-1.));
#898=DIRECTION('ref_axis',(0.,1.,0.));
#899=DIRECTION('',(0.,1.,0.));
#900=DIRECTION('',(1.,0.,0.));
#901=DIRECTION('',(0.,1.,0.));
#902=DIRECTION('',(-1.,0.,0.));
#903=DIRECTION('',(0.,-1.,0.));
#904=DIRECTION('center_axis',(0.,0.,1.));
#905=DIRECTION('ref_axis',(0.,-1.,0.));
#906=DIRECTION('',(0.,-1.,0.));
#907=DIRECTION('',(-1.,0.,0.));
#908=DIRECTION('',(0.,-1.,0.));
#909=DIRECTION('',(1.,0.,0.));
#910=DIRECTION('',(0.,-1.,0.));
#911=DIRECTION('center_axis',(1.,0.,0.));
#912=DIRECTION('ref_axis',(0.,0.,-1.));
#913=DIRECTION('',(0.,0.,-1.));
#914=DIRECTION('center_axis',(1.,0.,0.));
#915=DIRECTION('ref_axis',(0.,0.,-1.));
#916=DIRECTION('',(0.,0.,-1.));
#917=DIRECTION('center_axis',(1.,0.,0.));
#918=DIRECTION('ref_axis',(0.,0.,1.));
#919=DIRECTION('',(0.,0.,1.));
#920=DIRECTION('',(0.,-1.,0.));
#921=DIRECTION('',(0.,0.,1.));
#922=DIRECTION('',(0.,-1.,0.));
#923=DIRECTION('',(0.,0.,1.));
#924=DIRECTION('center_axis',(1.,0.,0.));
#925=DIRECTION('ref_axis',(0.,0.,1.));
#926=DIRECTION('',(0.,0.,1.));
#927=DIRECTION('',(0.,1.,0.));
#928=DIRECTION('',(0.,0.,1.));
#929=DIRECTION('',(0.,1.,0.));
#930=DIRECTION('',(0.,0.,1.));
#931=DIRECTION('center_axis',(0.,1.,0.));
#932=DIRECTION('ref_axis',(1.,0.,0.));
#933=DIRECTION('center_axis',(0.,1.,0.));
#934=DIRECTION('ref_axis',(1.,0.,0.));
#935=DIRECTION('',(0.,1.,0.));
#936=DIRECTION('center_axis',(0.,1.,0.));
#937=DIRECTION('ref_axis',(1.,0.,0.));
#938=DIRECTION('center_axis',(0.,-1.,0.));
#939=DIRECTION('ref_axis',(1.,0.,0.));
#940=DIRECTION('center_axis',(0.,-1.,0.));
#941=DIRECTION('ref_axis',(1.,0.,0.));
#942=DIRECTION('center_axis',(0.,1.,0.));
#943=DIRECTION('ref_axis',(1.,0.,0.));
#944=DIRECTION('center_axis',(0.,1.,0.));
#945=DIRECTION('ref_axis',(1.,0.,0.));
#946=DIRECTION('',(0.,1.,0.));
#947=DIRECTION('center_axis',(0.,1.,0.));
#948=DIRECTION('ref_axis',(1.,0.,0.));
#949=DIRECTION('center_axis',(0.,-1.,0.));
#950=DIRECTION('ref_axis',(1.,0.,0.));
#951=DIRECTION('center_axis',(0.,-1.,0.));
#952=DIRECTION('ref_axis',(1.,0.,0.));
#953=DIRECTION('center_axis',(0.,1.,0.));
#954=DIRECTION('ref_axis',(1.,0.,0.));
#955=DIRECTION('center_axis',(0.,1.,0.));
#956=DIRECTION('ref_axis',(1.,0.,0.));
#957=DIRECTION('',(0.,1.,0.));
#958=DIRECTION('center_axis',(0.,1.,0.));
#959=DIRECTION('ref_axis',(1.,0.,0.));
#960=DIRECTION('center_axis',(0.,-1.,0.));
#961=DIRECTION('ref_axis',(1.,0.,0.));
#962=DIRECTION('center_axis',(0.,-1.,0.));
#963=DIRECTION('ref_axis',(1.,0.,0.));
#964=DIRECTION('center_axis',(0.,1.,0.));
#965=DIRECTION('ref_axis',(1.,0.,0.));
#966=DIRECTION('center_axis',(0.,1.,0.));
#967=DIRECTION('ref_axis',(1.,0.,0.));
#968=DIRECTION('',(0.,1.,0.));
#969=DIRECTION('center_axis',(0.,1.,0.));
#970=DIRECTION('ref_axis',(1.,0.,0.));
#971=DIRECTION('center_axis',(0.,-1.,0.));
#972=DIRECTION('ref_axis',(1.,0.,0.));
#973=DIRECTION('center_axis',(0.,-1.,0.));
#974=DIRECTION('ref_axis',(1.,0.,0.));
#975=DIRECTION('center_axis',(-1.,0.,0.));
#976=DIRECTION('ref_axis',(0.,0.,1.));
#977=DIRECTION('',(0.,0.,-1.));
#978=DIRECTION('',(0.,1.,0.));
#979=DIRECTION('',(0.,0.,1.));
#980=DIRECTION('',(0.,1.,0.));
#981=DIRECTION('center_axis',(0.,0.,1.));
#982=DIRECTION('ref_axis',(1.,0.,0.));
#983=DIRECTION('',(-1.,0.,0.));
#984=DIRECTION('',(1.,0.,0.));
#985=DIRECTION('',(0.,1.,0.));
#986=DIRECTION('center_axis',(0.,1.,0.));
#987=DIRECTION('ref_axis',(-1.,0.,0.));
#988=DIRECTION('center_axis',(0.,-1.,0.));
#989=DIRECTION('ref_axis',(-1.,0.,0.));
#990=DIRECTION('center_axis',(0.,1.,0.));
#991=DIRECTION('ref_axis',(-1.,0.,0.));
#992=DIRECTION('center_axis',(0.,1.,0.));
#993=DIRECTION('ref_axis',(1.,0.,0.));
#994=DIRECTION('',(1.,0.,0.));
#995=DIRECTION('center_axis',(0.,-1.,0.));
#996=DIRECTION('ref_axis',(1.,0.,0.));
#997=DIRECTION('center_axis',(0.,1.,0.));
#998=DIRECTION('ref_axis',(1.,0.,0.));
#999=DIRECTION('',(1.,0.,0.));
#1000=DIRECTION('',(3.70074394848921E-16,0.,1.));
#1001=DIRECTION('center_axis',(0.,-1.,0.));
#1002=DIRECTION('ref_axis',(0.,0.,1.));
#1003=DIRECTION('',(-1.,0.,0.));
#1004=DIRECTION('',(0.,0.,-1.));
#1005=DIRECTION('',(1.,0.,0.));
#1006=DIRECTION('center_axis',(0.,-1.,0.));
#1007=DIRECTION('ref_axis',(1.,0.,0.));
#1008=DIRECTION('',(0.,0.,1.));
#1009=DIRECTION('',(-1.,0.,0.));
#1010=DIRECTION('',(0.,0.,-1.));
#1011=DIRECTION('center_axis',(0.,-1.,0.));
#1012=DIRECTION('ref_axis',(0.,0.,-1.));
#1013=DIRECTION('',(1.,0.,-3.70074394848921E-16));
#1014=DIRECTION('center_axis',(0.,0.,1.));
#1015=DIRECTION('ref_axis',(1.,0.,0.));
#1016=DIRECTION('',(0.,1.,0.));
#1017=DIRECTION('',(1.,0.,0.));
#1018=DIRECTION('',(0.,1.,0.));
#1019=DIRECTION('center_axis',(1.,0.,-3.70074394848921E-16));
#1020=DIRECTION('ref_axis',(-3.70074394848921E-16,0.,-1.));
#1021=DIRECTION('',(0.,-1.,0.));
#1022=DIRECTION('',(-3.70074394848921E-16,0.,-1.));
#1023=DIRECTION('',(0.,1.,0.));
#1024=DIRECTION('center_axis',(0.,1.,0.));
#1025=DIRECTION('ref_axis',(0.,0.,1.));
#1026=DIRECTION('center_axis',(0.,1.,0.));
#1027=DIRECTION('ref_axis',(0.,0.,1.));
#1028=DIRECTION('center_axis',(0.,1.,0.));
#1029=DIRECTION('ref_axis',(1.,0.,0.));
#1030=DIRECTION('',(1.,0.,0.));
#1031=DIRECTION('',(0.,0.,-1.));
#1032=DIRECTION('center_axis',(0.,-1.,0.));
#1033=DIRECTION('ref_axis',(1.,0.,0.));
#1034=DIRECTION('center_axis',(-3.70074394848921E-16,0.,-1.));
#1035=DIRECTION('ref_axis',(-1.,0.,3.70074394848921E-16));
#1036=DIRECTION('',(0.,1.,0.));
#1037=DIRECTION('',(-1.,0.,3.70074394848921E-16));
#1038=DIRECTION('center_axis',(-1.,0.,0.));
#1039=DIRECTION('ref_axis',(0.,0.,1.));
#1040=DIRECTION('',(0.,-1.,0.));
#1041=DIRECTION('',(0.,0.,1.));
#1042=DIRECTION('',(0.,1.,0.));
#1043=DIRECTION('center_axis',(0.,1.,0.));
#1044=DIRECTION('ref_axis',(0.,0.,-1.));
#1045=DIRECTION('center_axis',(0.,1.,0.));
#1046=DIRECTION('ref_axis',(0.,0.,-1.));
#1047=DIRECTION('center_axis',(0.,1.,0.));
#1048=DIRECTION('ref_axis',(1.,0.,0.));
#1049=DIRECTION('',(-1.,0.,0.));
#1050=DIRECTION('center_axis',(0.,-1.,0.));
#1051=DIRECTION('ref_axis',(1.,0.,0.));
#1052=DIRECTION('center_axis',(1.,0.,0.));
#1053=DIRECTION('ref_axis',(0.,0.,-1.));
#1054=DIRECTION('',(0.,1.,0.));
#1055=DIRECTION('',(0.,0.,-1.));
#1056=DIRECTION('',(0.,1.,0.));
#1057=DIRECTION('center_axis',(0.,0.,-1.));
#1058=DIRECTION('ref_axis',(-1.,0.,0.));
#1059=DIRECTION('',(0.,-1.,0.));
#1060=DIRECTION('',(-1.,0.,0.));
#1061=DIRECTION('',(0.,1.,0.));
#1062=DIRECTION('center_axis',(0.,1.,0.));
#1063=DIRECTION('ref_axis',(1.,0.,0.));
#1064=DIRECTION('center_axis',(0.,1.,0.));
#1065=DIRECTION('ref_axis',(1.,0.,0.));
#1066=DIRECTION('center_axis',(0.,1.,0.));
#1067=DIRECTION('ref_axis',(1.,0.,0.));
#1068=DIRECTION('',(0.,0.,-1.));
#1069=DIRECTION('',(-1.,0.,0.));
#1070=DIRECTION('center_axis',(0.,-1.,0.));
#1071=DIRECTION('ref_axis',(1.,0.,0.));
#1072=DIRECTION('center_axis',(0.,-1.,0.));
#1073=DIRECTION('ref_axis',(1.,0.,0.));
#1074=DIRECTION('',(0.,1.,0.));
#1075=DIRECTION('center_axis',(0.,-1.,0.));
#1076=DIRECTION('ref_axis',(1.,0.,0.));
#1077=DIRECTION('',(0.,1.,0.));
#1078=DIRECTION('center_axis',(0.,-1.,0.));
#1079=DIRECTION('ref_axis',(1.,0.,0.));
#1080=DIRECTION('',(0.,1.,0.));
#1081=DIRECTION('center_axis',(0.,-1.,0.));
#1082=DIRECTION('ref_axis',(1.,0.,0.));
#1083=DIRECTION('',(0.,1.,0.));
#1084=DIRECTION('center_axis',(0.,0.,-1.));
#1085=DIRECTION('ref_axis',(1.,0.,0.));
#1086=DIRECTION('',(1.,0.,0.));
#1087=DIRECTION('',(0.,-1.,0.));
#1088=DIRECTION('center_axis',(-1.,0.,0.));
#1089=DIRECTION('ref_axis',(0.,0.,-1.));
#1090=DIRECTION('',(0.,0.,-1.));
#1091=DIRECTION('',(0.,-1.,0.));
#1092=DIRECTION('center_axis',(0.,0.,1.));
#1093=DIRECTION('ref_axis',(-1.,0.,0.));
#1094=DIRECTION('',(-1.,0.,0.));
#1095=DIRECTION('center_axis',(0.,1.,0.));
#1096=DIRECTION('ref_axis',(1.,0.,0.));
#1097=CARTESIAN_POINT('',(0.,0.,0.));
#1098=CARTESIAN_POINT('Origin',(66.0000000298023,6.79999986588955,-22.6499994784594));
#1099=CARTESIAN_POINT('',(66.0000000298023,5.29999985595544,-20.649999448657));
#1100=CARTESIAN_POINT('',(66.0000000298023,4.29999983608723,-22.6499994784594));
#1101=CARTESIAN_POINT('Origin',(66.0000000298023,6.79999986588955,-22.6499994784594));
#1102=CARTESIAN_POINT('',(68.0000000298023,5.29999985595544,-20.649999448657));
#1103=CARTESIAN_POINT('',(66.0000000298023,5.29999985595544,-20.649999448657));
#1104=CARTESIAN_POINT('',(68.0000000298023,4.29999983608723,-22.6499994784594));
#1105=CARTESIAN_POINT('Origin',(68.0000000298023,6.79999986588955,-22.6499994784594));
#1106=CARTESIAN_POINT('',(66.0000000298023,4.29999983608723,-22.6499994784594));
#1107=CARTESIAN_POINT('Origin',(66.0000000298023,4.29999983608723,-47.3499994784594));
#1108=CARTESIAN_POINT('',(66.0000000298023,4.29999983608723,-47.3499994784594));
#1109=CARTESIAN_POINT('',(66.0000000298023,4.29999983608723,-41.1749994784594));
#1110=CARTESIAN_POINT('',(68.0000000298023,4.29999983608723,-47.3499994784594));
#1111=CARTESIAN_POINT('',(68.0000000298023,4.29999983608723,-41.1749994784594));
#1112=CARTESIAN_POINT('',(66.0000000298023,4.29999983608723,-47.3499994784594));
#1113=CARTESIAN_POINT('Origin',(66.0000000298023,6.79999986588955,-47.3499994784594));
#1114=CARTESIAN_POINT('',(66.0000000298023,5.29999985595544,-49.3499995082617));
#1115=CARTESIAN_POINT('Origin',(66.0000000298023,6.79999986588955,-47.3499994784594));
#1116=CARTESIAN_POINT('',(68.0000000298023,5.29999985595544,-49.3499995082617));
#1117=CARTESIAN_POINT('Origin',(68.0000000298023,6.79999986588955,-47.3499994784594));
#1118=CARTESIAN_POINT('',(66.0000000298023,5.29999985595544,-49.3499995082617));
#1119=CARTESIAN_POINT('Origin',(66.0000000298023,-2.00000025331974,-49.3499995082617));
#1120=CARTESIAN_POINT('',(68.0000000298023,-2.00000025331974,-49.3499995082617));
#1121=CARTESIAN_POINT('',(68.0000000298023,6.79999986588955,-49.3499995082617));
#1122=CARTESIAN_POINT('',(65.5000000298023,-2.00000025331974,-49.3499995082617));
#1123=CARTESIAN_POINT('',(66.0000000298023,-2.00000025331974,-49.3499995082617));
#1124=CARTESIAN_POINT('',(65.5000000298023,0.,-49.3499995082617));
#1125=CARTESIAN_POINT('',(65.5000000298023,-1.00000012665987,-49.3499995082617));
#1126=CARTESIAN_POINT('',(66.0000000298023,0.,-49.3499995082617));
#1127=CARTESIAN_POINT('',(50.5000000298023,0.,-49.3499995082617));
#1128=CARTESIAN_POINT('',(66.0000000298023,6.79999986588955,-49.3499995082617));
#1129=CARTESIAN_POINT('Origin',(66.0000000298023,6.79999986588955,-20.649999448657));
#1130=CARTESIAN_POINT('',(66.0000000298023,0.,-20.649999448657));
#1131=CARTESIAN_POINT('',(66.0000000298023,6.79999986588955,-20.649999448657));
#1132=CARTESIAN_POINT('',(65.5000000298023,0.,-20.649999448657));
#1133=CARTESIAN_POINT('',(50.5000000298023,0.,-20.649999448657));
#1134=CARTESIAN_POINT('',(65.5000000298023,-2.00000025331974,-20.649999448657));
#1135=CARTESIAN_POINT('',(65.5000000298023,3.39999993294477,-20.649999448657));
#1136=CARTESIAN_POINT('',(68.0000000298023,-2.00000025331974,-20.649999448657));
#1137=CARTESIAN_POINT('',(66.0000000298023,-2.00000025331974,-20.649999448657));
#1138=CARTESIAN_POINT('',(68.0000000298023,6.79999986588955,-20.649999448657));
#1139=CARTESIAN_POINT('Origin',(68.0000000298023,2.3999998062849,-34.9999994784594));
#1140=CARTESIAN_POINT('',(68.0000000298023,-2.00000025331974,-20.649999448657));
#1141=CARTESIAN_POINT('Origin',(66.0000000298023,2.3999998062849,-34.9999994784594));
#1142=CARTESIAN_POINT('',(66.0000000298023,0.,-4.00000002980232));
#1143=CARTESIAN_POINT('Origin',(65.5000000298023,0.,-66.0000000298023));
#1144=CARTESIAN_POINT('',(65.5000000298023,-2.,-65.5000000298023));
#1145=CARTESIAN_POINT('',(65.5000000298023,-2.,-50.5000000298023));
#1146=CARTESIAN_POINT('',(65.5000000298023,3.,-65.5000000298023));
#1147=CARTESIAN_POINT('',(65.5000000298023,0.,-65.5000000298023));
#1148=CARTESIAN_POINT('',(65.5000000298023,3.,-55.0000008195639));
#1149=CARTESIAN_POINT('',(65.5000000298023,3.,-63.2500002272427));
#1150=CARTESIAN_POINT('',(65.5000000298023,0.,-55.0000008195639));
#1151=CARTESIAN_POINT('',(65.5000000298023,0.,-55.0000008195639));
#1152=CARTESIAN_POINT('',(65.5000000298023,0.,-50.5000000298023));
#1153=CARTESIAN_POINT('Origin',(65.5000000298023,0.,-66.0000000298023));
#1154=CARTESIAN_POINT('',(65.5000000298023,0.,-15.0000002235174));
#1155=CARTESIAN_POINT('',(65.5000000298023,0.,-50.5000000298023));
#1156=CARTESIAN_POINT('',(65.5000000298023,3.,-15.0000002235174));
#1157=CARTESIAN_POINT('',(65.5000000298023,0.,-15.0000002235174));
#1158=CARTESIAN_POINT('',(65.5000000298023,3.,-4.50000002980232));
#1159=CARTESIAN_POINT('',(65.5000000298023,3.,-37.7500000782311));
#1160=CARTESIAN_POINT('',(65.5000000298023,-2.,-4.50000002980232));
#1161=CARTESIAN_POINT('',(65.5000000298023,0.,-4.50000002980232));
#1162=CARTESIAN_POINT('',(65.5000000298023,-2.,-50.5000000298023));
#1163=CARTESIAN_POINT('Origin',(60.0000008940697,-2.,-10.0000001490116));
#1164=CARTESIAN_POINT('',(56.5000008940697,-2.,-10.0000001490116));
#1165=CARTESIAN_POINT('Origin',(60.0000008940697,-2.,-10.0000001490116));
#1166=CARTESIAN_POINT('',(56.5000008940697,1.,-10.0000001490116));
#1167=CARTESIAN_POINT('',(56.5000008940697,-2.,-10.0000001490116));
#1168=CARTESIAN_POINT('Origin',(60.0000008940697,1.,-10.0000001490116));
#1169=CARTESIAN_POINT('Origin',(60.0000008940697,1.,-10.0000001490116));
#1170=CARTESIAN_POINT('',(58.2000008940697,1.,-10.0000001490116));
#1171=CARTESIAN_POINT('Origin',(60.0000008940697,1.,-10.0000001490116));
#1172=CARTESIAN_POINT('Origin',(60.0000008940697,-2.,-60.0000008940697));
#1173=CARTESIAN_POINT('',(56.5000008940697,-2.,-60.0000008940697));
#1174=CARTESIAN_POINT('Origin',(60.0000008940697,-2.,-60.0000008940697));
#1175=CARTESIAN_POINT('',(56.5000008940697,1.,-60.0000008940697));
#1176=CARTESIAN_POINT('',(56.5000008940697,-2.,-60.0000008940697));
#1177=CARTESIAN_POINT('Origin',(60.0000008940697,1.,-60.0000008940697));
#1178=CARTESIAN_POINT('Origin',(60.0000008940697,1.,-60.0000008940697));
#1179=CARTESIAN_POINT('',(58.2000008940697,1.,-60.0000008940697));
#1180=CARTESIAN_POINT('Origin',(60.0000008940697,1.,-60.0000008940697));
#1181=CARTESIAN_POINT('Origin',(10.0000001490116,-2.,-10.0000001490116));
#1182=CARTESIAN_POINT('',(6.50000014901161,-2.,-10.0000001490116));
#1183=CARTESIAN_POINT('Origin',(10.0000001490116,-2.,-10.0000001490116));
#1184=CARTESIAN_POINT('',(6.50000014901161,1.,-10.0000001490116));
#1185=CARTESIAN_POINT('',(6.50000014901161,-2.,-10.0000001490116));
#1186=CARTESIAN_POINT('Origin',(10.0000001490116,1.,-10.0000001490116));
#1187=CARTESIAN_POINT('Origin',(10.0000001490116,1.,-10.0000001490116));
#1188=CARTESIAN_POINT('',(8.20000014901161,1.,-10.0000001490116));
#1189=CARTESIAN_POINT('Origin',(10.0000001490116,1.,-10.0000001490116));
#1190=CARTESIAN_POINT('Origin',(10.0000001490116,-2.,-60.0000008940697));
#1191=CARTESIAN_POINT('',(6.50000014901161,-2.,-60.0000008940697));
#1192=CARTESIAN_POINT('Origin',(10.0000001490116,-2.,-60.0000008940697));
#1193=CARTESIAN_POINT('',(6.50000014901161,1.,-60.0000008940697));
#1194=CARTESIAN_POINT('',(6.50000014901161,-2.,-60.0000008940697));
#1195=CARTESIAN_POINT('Origin',(10.0000001490116,1.,-60.0000008940697));
#1196=CARTESIAN_POINT('Origin',(10.0000001490116,1.,-60.0000008940697));
#1197=CARTESIAN_POINT('',(8.20000014901161,1.,-60.0000008940697));
#1198=CARTESIAN_POINT('Origin',(10.0000001490116,1.,-60.0000008940697));
#1199=CARTESIAN_POINT('Origin',(55.0000008195639,0.,-66.0000000298023));
#1200=CARTESIAN_POINT('',(55.0000008195639,0.,-60.0000008940697));
#1201=CARTESIAN_POINT('',(55.0000008195639,0.,-65.5000000298023));
#1202=CARTESIAN_POINT('',(55.0000008195639,0.,-50.5000000298023));
#1203=CARTESIAN_POINT('',(55.0000008195639,3.,-60.0000008940697));
#1204=CARTESIAN_POINT('',(55.0000008195639,0.,-60.0000008940697));
#1205=CARTESIAN_POINT('',(55.0000008195639,3.,-65.5000000298023));
#1206=CARTESIAN_POINT('',(55.0000008195639,3.,-60.0000008940697));
#1207=CARTESIAN_POINT('',(55.0000008195639,0.,-65.5000000298023));
#1208=CARTESIAN_POINT('Origin',(60.0000008940697,0.,-55.0000008195639));
#1209=CARTESIAN_POINT('',(60.0000008940697,0.,-55.0000008195639));
#1210=CARTESIAN_POINT('',(47.500000461936,0.,-55.0000008195639));
#1211=CARTESIAN_POINT('',(60.0000008940697,3.,-55.0000008195639));
#1212=CARTESIAN_POINT('',(60.0000008940697,3.,-55.0000008195639));
#1213=CARTESIAN_POINT('',(60.0000008940697,0.,-55.0000008195639));
#1214=CARTESIAN_POINT('Origin',(60.0000008940697,0.,-60.0000008940697));
#1215=CARTESIAN_POINT('Origin',(60.0000008940697,0.,-60.0000008940697));
#1216=CARTESIAN_POINT('Origin',(60.0000008940697,3.,-60.0000008940697));
#1217=CARTESIAN_POINT('Origin',(60.5000004246831,3.,-60.5000004246831));
#1218=CARTESIAN_POINT('',(32.2500002272427,3.,-65.5000000298023));
#1219=CARTESIAN_POINT('',(58.2000008940697,3.,-60.0000008940697));
#1220=CARTESIAN_POINT('Origin',(60.0000008940697,3.,-60.0000008940697));
#1221=CARTESIAN_POINT('Origin',(35.0000000298023,0.,-35.0000000298023));
#1222=CARTESIAN_POINT('',(15.0000002235174,0.,-65.5000000298023));
#1223=CARTESIAN_POINT('',(19.5000000298023,0.,-65.5000000298023));
#1224=CARTESIAN_POINT('',(15.0000002235174,0.,-60.0000008940697));
#1225=CARTESIAN_POINT('',(15.0000002235174,0.,-47.500000461936));
#1226=CARTESIAN_POINT('',(10.0000001490116,0.,-55.0000008195639));
#1227=CARTESIAN_POINT('Origin',(10.0000001490116,0.,-60.0000008940697));
#1228=CARTESIAN_POINT('',(4.50000002980232,0.,-55.0000008195639));
#1229=CARTESIAN_POINT('',(19.5000000298023,0.,-55.0000008195639));
#1230=CARTESIAN_POINT('',(4.50000002980232,0.,-15.0000002235174));
#1231=CARTESIAN_POINT('',(4.50000002980232,0.,-19.5000000298023));
#1232=CARTESIAN_POINT('',(10.0000001490116,0.,-15.0000002235174));
#1233=CARTESIAN_POINT('',(22.500000089407,0.,-15.0000002235174));
#1234=CARTESIAN_POINT('',(15.0000002235174,0.,-10.0000001490116));
#1235=CARTESIAN_POINT('Origin',(10.0000001490116,0.,-10.0000001490116));
#1236=CARTESIAN_POINT('',(15.0000002235174,0.,-4.50000002980232));
#1237=CARTESIAN_POINT('',(15.0000002235174,0.,-19.5000000298023));
#1238=CARTESIAN_POINT('',(55.0000008195639,0.,-4.50000002980232));
#1239=CARTESIAN_POINT('',(50.5000000298023,0.,-4.50000002980232));
#1240=CARTESIAN_POINT('',(55.0000008195639,0.,-10.0000001490116));
#1241=CARTESIAN_POINT('',(55.0000008195639,0.,-22.500000089407));
#1242=CARTESIAN_POINT('',(60.0000008940697,0.,-15.0000002235174));
#1243=CARTESIAN_POINT('Origin',(60.0000008940697,0.,-10.0000001490116));
#1244=CARTESIAN_POINT('',(50.5000000298023,0.,-15.0000002235174));
#1245=CARTESIAN_POINT('Origin',(4.00000002980232,0.,-55.0000008195639));
#1246=CARTESIAN_POINT('',(10.0000001490116,3.,-55.0000008195639));
#1247=CARTESIAN_POINT('',(10.0000001490116,0.,-55.0000008195639));
#1248=CARTESIAN_POINT('',(4.50000002980232,3.,-55.0000008195639));
#1249=CARTESIAN_POINT('',(10.0000001490116,3.,-55.0000008195639));
#1250=CARTESIAN_POINT('',(4.50000002980232,0.,-55.0000008195639));
#1251=CARTESIAN_POINT('Origin',(15.0000002235174,0.,-60.0000008940697));
#1252=CARTESIAN_POINT('',(15.0000002235174,3.,-65.5000000298023));
#1253=CARTESIAN_POINT('',(15.0000002235174,0.,-65.5000000298023));
#1254=CARTESIAN_POINT('',(15.0000002235174,3.,-60.0000008940697));
#1255=CARTESIAN_POINT('',(15.0000002235174,3.,-60.0000008940697));
#1256=CARTESIAN_POINT('',(15.0000002235174,0.,-60.0000008940697));
#1257=CARTESIAN_POINT('Origin',(10.0000001490116,0.,-60.0000008940697));
#1258=CARTESIAN_POINT('Origin',(10.0000001490116,3.,-60.0000008940697));
#1259=CARTESIAN_POINT('Origin',(9.50000012665987,3.,-60.5000004246831));
#1260=CARTESIAN_POINT('',(4.50000002980232,3.,-65.5000000298023));
#1261=CARTESIAN_POINT('',(6.7500000782311,3.,-65.5000000298023));
#1262=CARTESIAN_POINT('',(4.50000002980232,3.,-32.2500002272427));
#1263=CARTESIAN_POINT('',(8.20000014901161,3.,-60.0000008940697));
#1264=CARTESIAN_POINT('Origin',(10.0000001490116,3.,-60.0000008940697));
#1265=CARTESIAN_POINT('Origin',(66.0000000298023,0.,-15.0000002235174));
#1266=CARTESIAN_POINT('',(60.0000008940697,3.,-15.0000002235174));
#1267=CARTESIAN_POINT('',(60.0000008940697,0.,-15.0000002235174));
#1268=CARTESIAN_POINT('',(60.0000008940697,3.,-15.0000002235174));
#1269=CARTESIAN_POINT('Origin',(55.0000008195639,0.,-10.0000001490116));
#1270=CARTESIAN_POINT('',(55.0000008195639,3.,-4.50000002980232));
#1271=CARTESIAN_POINT('',(55.0000008195639,0.,-4.50000002980232));
#1272=CARTESIAN_POINT('',(55.0000008195639,3.,-10.0000001490116));
#1273=CARTESIAN_POINT('',(55.0000008195639,3.,-10.0000001490116));
#1274=CARTESIAN_POINT('',(55.0000008195639,0.,-10.0000001490116));
#1275=CARTESIAN_POINT('Origin',(60.0000008940697,0.,-10.0000001490116));
#1276=CARTESIAN_POINT('Origin',(60.0000008940697,3.,-10.0000001490116));
#1277=CARTESIAN_POINT('Origin',(60.5000004246831,3.,-9.50000012665987));
#1278=CARTESIAN_POINT('',(63.2500002272427,3.,-4.50000002980232));
#1279=CARTESIAN_POINT('',(58.2000008940697,3.,-10.0000001490116));
#1280=CARTESIAN_POINT('Origin',(60.0000008940697,3.,-10.0000001490116));
#1281=CARTESIAN_POINT('Origin',(15.0000002235174,0.,-4.00000002980232));
#1282=CARTESIAN_POINT('',(15.0000002235174,3.,-10.0000001490116));
#1283=CARTESIAN_POINT('',(15.0000002235174,0.,-10.0000001490116));
#1284=CARTESIAN_POINT('',(15.0000002235174,3.,-4.50000002980232));
#1285=CARTESIAN_POINT('',(15.0000002235174,3.,-10.0000001490116));
#1286=CARTESIAN_POINT('',(15.0000002235174,0.,-4.50000002980232));
#1287=CARTESIAN_POINT('Origin',(10.0000001490116,0.,-15.0000002235174));
#1288=CARTESIAN_POINT('',(4.50000002980232,3.,-15.0000002235174));
#1289=CARTESIAN_POINT('',(4.50000002980232,0.,-15.0000002235174));
#1290=CARTESIAN_POINT('',(10.0000001490116,3.,-15.0000002235174));
#1291=CARTESIAN_POINT('',(10.0000001490116,3.,-15.0000002235174));
#1292=CARTESIAN_POINT('',(10.0000001490116,0.,-15.0000002235174));
#1293=CARTESIAN_POINT('Origin',(10.0000001490116,0.,-10.0000001490116));
#1294=CARTESIAN_POINT('Origin',(10.0000001490116,3.,-10.0000001490116));
#1295=CARTESIAN_POINT('Origin',(9.50000012665987,3.,-9.50000012665987));
#1296=CARTESIAN_POINT('',(4.50000002980232,3.,-4.50000002980232));
#1297=CARTESIAN_POINT('',(4.50000002980232,3.,-6.7500000782311));
#1298=CARTESIAN_POINT('',(37.7500000782311,3.,-4.50000002980232));
#1299=CARTESIAN_POINT('',(8.20000014901161,3.,-10.0000001490116));
#1300=CARTESIAN_POINT('Origin',(10.0000001490116,3.,-10.0000001490116));
#1301=CARTESIAN_POINT('Origin',(10.0000001490116,0.,-10.0000001490116));
#1302=CARTESIAN_POINT('',(8.20000014901161,0.,-10.0000001490116));
#1303=CARTESIAN_POINT('Origin',(60.0000008940697,0.,-10.0000001490116));
#1304=CARTESIAN_POINT('',(58.2000008940697,0.,-10.0000001490116));
#1305=CARTESIAN_POINT('Origin',(10.0000001490116,0.,-60.0000008940697));
#1306=CARTESIAN_POINT('',(8.20000014901161,0.,-60.0000008940697));
#1307=CARTESIAN_POINT('Origin',(60.0000008940697,0.,-60.0000008940697));
#1308=CARTESIAN_POINT('',(58.2000008940697,0.,-60.0000008940697));
#1309=CARTESIAN_POINT('Origin',(4.00000002980232,0.,-65.5000000298023));
#1310=CARTESIAN_POINT('',(4.50000002980232,-2.,-65.5000000298023));
#1311=CARTESIAN_POINT('',(19.5000000298023,-2.,-65.5000000298023));
#1312=CARTESIAN_POINT('',(4.50000002980232,0.,-65.5000000298023));
#1313=CARTESIAN_POINT('Origin',(4.50000002980232,0.,-4.00000002980232));
#1314=CARTESIAN_POINT('',(4.50000002980232,-2.,-4.50000002980232));
#1315=CARTESIAN_POINT('',(4.50000002980232,-2.,-19.5000000298023));
#1316=CARTESIAN_POINT('',(4.50000002980232,0.,-4.50000002980232));
#1317=CARTESIAN_POINT('Origin',(66.0000000298023,0.,-4.50000002980232));
#1318=CARTESIAN_POINT('',(50.5000000298023,-2.,-4.50000002980232));
#1319=CARTESIAN_POINT('Origin',(35.0000000298023,-2.,-35.0000000298023));
#1320=UNCERTAINTY_MEASURE_WITH_UNIT(LENGTH_MEASURE(0.01),#1324,
'DISTANCE_ACCURACY_VALUE',
'Maximum model space distance between geometric entities at asserted c
onnectivities');
#1321=UNCERTAINTY_MEASURE_WITH_UNIT(LENGTH_MEASURE(0.01),#1324,
'DISTANCE_ACCURACY_VALUE',
'Maximum model space distance between geometric entities at asserted c
onnectivities');
#1322=(
GEOMETRIC_REPRESENTATION_CONTEXT(3)
GLOBAL_UNCERTAINTY_ASSIGNED_CONTEXT((#1320))
GLOBAL_UNIT_ASSIGNED_CONTEXT((#1324,#1326,#1327))
REPRESENTATION_CONTEXT('','3D')
);
#1323=(
GEOMETRIC_REPRESENTATION_CONTEXT(3)
GLOBAL_UNCERTAINTY_ASSIGNED_CONTEXT((#1321))
GLOBAL_UNIT_ASSIGNED_CONTEXT((#1324,#1326,#1327))
REPRESENTATION_CONTEXT('','3D')
);
#1324=(
LENGTH_UNIT()
NAMED_UNIT(*)
SI_UNIT(.MILLI.,.METRE.)
);
#1325=(
LENGTH_UNIT()
NAMED_UNIT(*)
SI_UNIT($,.METRE.)
);
#1326=(
NAMED_UNIT(*)
PLANE_ANGLE_UNIT()
SI_UNIT($,.RADIAN.)
);
#1327=(
NAMED_UNIT(*)
SI_UNIT($,.STERADIAN.)
SOLID_ANGLE_UNIT()
);
#1328=SHAPE_DEFINITION_REPRESENTATION(#1329,#1330);
#1329=PRODUCT_DEFINITION_SHAPE('',$,#1332);
#1330=SHAPE_REPRESENTATION('',(#804),#1322);
#1331=PRODUCT_DEFINITION_CONTEXT('part definition',#1336,'design');
#1332=PRODUCT_DEFINITION('2025-11-13-17-35-49-354',
'Controller module bottom',#1333,#1331);
#1333=PRODUCT_DEFINITION_FORMATION('',$,#1338);
#1334=PRODUCT_RELATED_PRODUCT_CATEGORY('Controller module bottom',
'Controller module bottom',(#1338));
#1335=APPLICATION_PROTOCOL_DEFINITION('international standard',
'automotive_design',2009,#1336);
#1336=APPLICATION_CONTEXT(
'Core Data for Automotive Mechanical Design Process');
#1337=PRODUCT_CONTEXT('part definition',#1336,'mechanical');
#1338=PRODUCT('2025-11-13-17-35-49-354','Controller module bottom',$,(#1337));
#1339=PRESENTATION_STYLE_ASSIGNMENT((#1340));
#1340=SURFACE_STYLE_USAGE(.BOTH.,#1341);
#1341=SURFACE_SIDE_STYLE('',(#1342));
#1342=SURFACE_STYLE_FILL_AREA(#1343);
#1343=FILL_AREA_STYLE('Steel - Satin',(#1344));
#1344=FILL_AREA_STYLE_COLOUR('Steel - Satin',#1345);
#1345=COLOUR_RGB('Steel - Satin',0.627450980392157,0.627450980392157,0.627450980392157);
ENDSEC;
END-ISO-10303-21;
