ISO-10303-21;
HEADER;
/* Generated by software containing ST-Developer
 * from STEP Tools, Inc. (www.steptools.com) 
 */

FILE_DESCRIPTION(
/* description */ (''),
/* implementation_level */ '2;1');

FILE_NAME(
/* name */ 'Controller module middle.step',
/* time_stamp */ '2026-04-27T15:44:16+01:00',
/* author */ (''),
/* organization */ (''),
/* preprocessor_version */ 'ST-DEVELOPER v20.1',
/* originating_system */ 'Autodesk Translation Framework v14.24.0.0',
/* authorisation */ '');

FILE_SCHEMA (('AUTOMOTIVE_DESIGN { 1 0 10303 214 3 1 1 }'));
ENDSEC;

DATA;
#10=MECHANICAL_DESIGN_GEOMETRIC_PRESENTATION_REPRESENTATION('',(#13),#1869);
#11=SHAPE_REPRESENTATION_RELATIONSHIP('SRR','None',#1876,#12);
#12=ADVANCED_BREP_SHAPE_REPRESENTATION('',(#14),#1868);
#13=STYLED_ITEM('',(#1885),#14);
#14=MANIFOLD_SOLID_BREP('Body1',#1129);
#15=FACE_BOUND('',#132,.T.);
#16=FACE_BOUND('',#133,.T.);
#17=FACE_BOUND('',#134,.T.);
#18=FACE_BOUND('',#135,.T.);
#19=FACE_BOUND('',#156,.T.);
#20=FACE_BOUND('',#162,.T.);
#21=FACE_BOUND('',#168,.T.);
#22=FACE_BOUND('',#174,.T.);
#23=PLANE('',#1146);
#24=PLANE('',#1156);
#25=PLANE('',#1157);
#26=PLANE('',#1158);
#27=PLANE('',#1159);
#28=PLANE('',#1160);
#29=PLANE('',#1161);
#30=PLANE('',#1162);
#31=PLANE('',#1163);
#32=PLANE('',#1164);
#33=PLANE('',#1165);
#34=PLANE('',#1166);
#35=PLANE('',#1170);
#36=PLANE('',#1173);
#37=PLANE('',#1187);
#38=PLANE('',#1190);
#39=PLANE('',#1193);
#40=PLANE('',#1196);
#41=PLANE('',#1197);
#42=PLANE('',#1200);
#43=PLANE('',#1201);
#44=PLANE('',#1202);
#45=PLANE('',#1203);
#46=PLANE('',#1204);
#47=PLANE('',#1207);
#48=PLANE('',#1210);
#49=PLANE('',#1211);
#50=PLANE('',#1214);
#51=PLANE('',#1217);
#52=PLANE('',#1218);
#53=PLANE('',#1221);
#54=PLANE('',#1224);
#55=PLANE('',#1225);
#56=PLANE('',#1228);
#57=PLANE('',#1231);
#58=PLANE('',#1232);
#59=FACE_OUTER_BOUND('',#113,.T.);
#60=FACE_OUTER_BOUND('',#114,.T.);
#61=FACE_OUTER_BOUND('',#115,.T.);
#62=FACE_OUTER_BOUND('',#116,.T.);
#63=FACE_OUTER_BOUND('',#117,.T.);
#64=FACE_OUTER_BOUND('',#118,.T.);
#65=FACE_OUTER_BOUND('',#119,.T.);
#66=FACE_OUTER_BOUND('',#120,.T.);
#67=FACE_OUTER_BOUND('',#121,.T.);
#68=FACE_OUTER_BOUND('',#122,.T.);
#69=FACE_OUTER_BOUND('',#123,.T.);
#70=FACE_OUTER_BOUND('',#124,.T.);
#71=FACE_OUTER_BOUND('',#125,.T.);
#72=FACE_OUTER_BOUND('',#126,.T.);
#73=FACE_OUTER_BOUND('',#127,.T.);
#74=FACE_OUTER_BOUND('',#128,.T.);
#75=FACE_OUTER_BOUND('',#129,.T.);
#76=FACE_OUTER_BOUND('',#130,.T.);
#77=FACE_OUTER_BOUND('',#131,.T.);
#78=FACE_OUTER_BOUND('',#136,.T.);
#79=FACE_OUTER_BOUND('',#137,.T.);
#80=FACE_OUTER_BOUND('',#138,.T.);
#81=FACE_OUTER_BOUND('',#139,.T.);
#82=FACE_OUTER_BOUND('',#140,.T.);
#83=FACE_OUTER_BOUND('',#141,.T.);
#84=FACE_OUTER_BOUND('',#142,.T.);
#85=FACE_OUTER_BOUND('',#143,.T.);
#86=FACE_OUTER_BOUND('',#144,.T.);
#87=FACE_OUTER_BOUND('',#145,.T.);
#88=FACE_OUTER_BOUND('',#146,.T.);
#89=FACE_OUTER_BOUND('',#147,.T.);
#90=FACE_OUTER_BOUND('',#148,.T.);
#91=FACE_OUTER_BOUND('',#149,.T.);
#92=FACE_OUTER_BOUND('',#150,.T.);
#93=FACE_OUTER_BOUND('',#151,.T.);
#94=FACE_OUTER_BOUND('',#152,.T.);
#95=FACE_OUTER_BOUND('',#153,.T.);
#96=FACE_OUTER_BOUND('',#154,.T.);
#97=FACE_OUTER_BOUND('',#155,.T.);
#98=FACE_OUTER_BOUND('',#157,.T.);
#99=FACE_OUTER_BOUND('',#158,.T.);
#100=FACE_OUTER_BOUND('',#159,.T.);
#101=FACE_OUTER_BOUND('',#160,.T.);
#102=FACE_OUTER_BOUND('',#161,.T.);
#103=FACE_OUTER_BOUND('',#163,.T.);
#104=FACE_OUTER_BOUND('',#164,.T.);
#105=FACE_OUTER_BOUND('',#165,.T.);
#106=FACE_OUTER_BOUND('',#166,.T.);
#107=FACE_OUTER_BOUND('',#167,.T.);
#108=FACE_OUTER_BOUND('',#169,.T.);
#109=FACE_OUTER_BOUND('',#170,.T.);
#110=FACE_OUTER_BOUND('',#171,.T.);
#111=FACE_OUTER_BOUND('',#172,.T.);
#112=FACE_OUTER_BOUND('',#173,.T.);
#113=EDGE_LOOP('',(#733,#734,#735,#736));
#114=EDGE_LOOP('',(#737,#738,#739,#740));
#115=EDGE_LOOP('',(#741,#742,#743,#744));
#116=EDGE_LOOP('',(#745,#746,#747,#748));
#117=EDGE_LOOP('',(#749,#750,#751,#752));
#118=EDGE_LOOP('',(#753,#754,#755,#756));
#119=EDGE_LOOP('',(#757,#758,#759,#760,#761,#762,#763,#764));
#120=EDGE_LOOP('',(#765,#766,#767,#768,#769,#770,#771,#772));
#121=EDGE_LOOP('',(#773,#774,#775,#776,#777,#778,#779,#780));
#122=EDGE_LOOP('',(#781,#782,#783,#784));
#123=EDGE_LOOP('',(#785,#786,#787,#788));
#124=EDGE_LOOP('',(#789,#790,#791,#792));
#125=EDGE_LOOP('',(#793,#794,#795,#796));
#126=EDGE_LOOP('',(#797,#798,#799,#800));
#127=EDGE_LOOP('',(#801,#802,#803,#804));
#128=EDGE_LOOP('',(#805,#806,#807,#808,#809,#810,#811,#812,#813,#814,#815,
#816));
#129=EDGE_LOOP('',(#817,#818,#819,#820));
#130=EDGE_LOOP('',(#821,#822,#823,#824,#825,#826,#827,#828,#829,#830));
#131=EDGE_LOOP('',(#831,#832,#833,#834,#835,#836,#837,#838,#839,#840,#841,
#842,#843,#844,#845,#846,#847,#848,#849,#850,#851,#852,#853,#854,#855,#856,
#857,#858,#859,#860,#861,#862,#863,#864,#865,#866,#867,#868,#869,#870));
#132=EDGE_LOOP('',(#871));
#133=EDGE_LOOP('',(#872));
#134=EDGE_LOOP('',(#873));
#135=EDGE_LOOP('',(#874));
#136=EDGE_LOOP('',(#875,#876,#877,#878));
#137=EDGE_LOOP('',(#879,#880,#881,#882));
#138=EDGE_LOOP('',(#883,#884,#885,#886));
#139=EDGE_LOOP('',(#887,#888,#889,#890));
#140=EDGE_LOOP('',(#891,#892,#893,#894));
#141=EDGE_LOOP('',(#895,#896,#897,#898));
#142=EDGE_LOOP('',(#899,#900,#901,#902));
#143=EDGE_LOOP('',(#903,#904,#905,#906));
#144=EDGE_LOOP('',(#907,#908,#909,#910));
#145=EDGE_LOOP('',(#911,#912,#913,#914));
#146=EDGE_LOOP('',(#915,#916,#917,#918,#919,#920,#921,#922,#923,#924,#925,
#926,#927,#928));
#147=EDGE_LOOP('',(#929,#930,#931,#932,#933,#934,#935,#936));
#148=EDGE_LOOP('',(#937,#938,#939,#940,#941,#942,#943,#944));
#149=EDGE_LOOP('',(#945,#946,#947,#948,#949,#950,#951,#952));
#150=EDGE_LOOP('',(#953,#954,#955,#956,#957,#958,#959,#960,#961,#962,#963,
#964,#965,#966,#967,#968));
#151=EDGE_LOOP('',(#969,#970,#971,#972));
#152=EDGE_LOOP('',(#973,#974,#975,#976));
#153=EDGE_LOOP('',(#977,#978,#979,#980));
#154=EDGE_LOOP('',(#981,#982,#983,#984));
#155=EDGE_LOOP('',(#985,#986,#987,#988,#989));
#156=EDGE_LOOP('',(#990));
#157=EDGE_LOOP('',(#991,#992,#993,#994));
#158=EDGE_LOOP('',(#995,#996,#997,#998));
#159=EDGE_LOOP('',(#999,#1000,#1001,#1002));
#160=EDGE_LOOP('',(#1003,#1004,#1005,#1006));
#161=EDGE_LOOP('',(#1007,#1008,#1009,#1010,#1011));
#162=EDGE_LOOP('',(#1012));
#163=EDGE_LOOP('',(#1013,#1014,#1015,#1016));
#164=EDGE_LOOP('',(#1017,#1018,#1019,#1020));
#165=EDGE_LOOP('',(#1021,#1022,#1023,#1024));
#166=EDGE_LOOP('',(#1025,#1026,#1027,#1028));
#167=EDGE_LOOP('',(#1029,#1030,#1031,#1032,#1033));
#168=EDGE_LOOP('',(#1034));
#169=EDGE_LOOP('',(#1035,#1036,#1037,#1038));
#170=EDGE_LOOP('',(#1039,#1040,#1041,#1042));
#171=EDGE_LOOP('',(#1043,#1044,#1045,#1046));
#172=EDGE_LOOP('',(#1047,#1048,#1049,#1050));
#173=EDGE_LOOP('',(#1051,#1052,#1053,#1054,#1055));
#174=EDGE_LOOP('',(#1056));
#175=LINE('',#1547,#301);
#176=LINE('',#1550,#302);
#177=LINE('',#1553,#303);
#178=LINE('',#1555,#304);
#179=LINE('',#1556,#305);
#180=LINE('',#1562,#306);
#181=LINE('',#1568,#307);
#182=LINE('',#1571,#308);
#183=LINE('',#1577,#309);
#184=LINE('',#1580,#310);
#185=LINE('',#1582,#311);
#186=LINE('',#1583,#312);
#187=LINE('',#1586,#313);
#188=LINE('',#1588,#314);
#189=LINE('',#1590,#315);
#190=LINE('',#1592,#316);
#191=LINE('',#1593,#317);
#192=LINE('',#1596,#318);
#193=LINE('',#1598,#319);
#194=LINE('',#1600,#320);
#195=LINE('',#1602,#321);
#196=LINE('',#1603,#322);
#197=LINE('',#1606,#323);
#198=LINE('',#1608,#324);
#199=LINE('',#1610,#325);
#200=LINE('',#1612,#326);
#201=LINE('',#1613,#327);
#202=LINE('',#1617,#328);
#203=LINE('',#1618,#329);
#204=LINE('',#1619,#330);
#205=LINE('',#1622,#331);
#206=LINE('',#1623,#332);
#207=LINE('',#1625,#333);
#208=LINE('',#1626,#334);
#209=LINE('',#1628,#335);
#210=LINE('',#1630,#336);
#211=LINE('',#1633,#337);
#212=LINE('',#1634,#338);
#213=LINE('',#1637,#339);
#214=LINE('',#1639,#340);
#215=LINE('',#1641,#341);
#216=LINE('',#1643,#342);
#217=LINE('',#1645,#343);
#218=LINE('',#1647,#344);
#219=LINE('',#1649,#345);
#220=LINE('',#1651,#346);
#221=LINE('',#1652,#347);
#222=LINE('',#1658,#348);
#223=LINE('',#1661,#349);
#224=LINE('',#1664,#350);
#225=LINE('',#1666,#351);
#226=LINE('',#1668,#352);
#227=LINE('',#1670,#353);
#228=LINE('',#1674,#354);
#229=LINE('',#1678,#355);
#230=LINE('',#1679,#356);
#231=LINE('',#1682,#357);
#232=LINE('',#1686,#358);
#233=LINE('',#1688,#359);
#234=LINE('',#1690,#360);
#235=LINE('',#1694,#361);
#236=LINE('',#1696,#362);
#237=LINE('',#1698,#363);
#238=LINE('',#1702,#364);
#239=LINE('',#1704,#365);
#240=LINE('',#1706,#366);
#241=LINE('',#1709,#367);
#242=LINE('',#1711,#368);
#243=LINE('',#1715,#369);
#244=LINE('',#1718,#370);
#245=LINE('',#1721,#371);
#246=LINE('',#1733,#372);
#247=LINE('',#1736,#373);
#248=LINE('',#1737,#374);
#249=LINE('',#1742,#375);
#250=LINE('',#1743,#376);
#251=LINE('',#1745,#377);
#252=LINE('',#1749,#378);
#253=LINE('',#1753,#379);
#254=LINE('',#1754,#380);
#255=LINE('',#1755,#381);
#256=LINE('',#1759,#382);
#257=LINE('',#1762,#383);
#258=LINE('',#1763,#384);
#259=LINE('',#1767,#385);
#260=LINE('',#1768,#386);
#261=LINE('',#1769,#387);
#262=LINE('',#1774,#388);
#263=LINE('',#1776,#389);
#264=LINE('',#1778,#390);
#265=LINE('',#1779,#391);
#266=LINE('',#1781,#392);
#267=LINE('',#1783,#393);
#268=LINE('',#1785,#394);
#269=LINE('',#1786,#395);
#270=LINE('',#1789,#396);
#271=LINE('',#1791,#397);
#272=LINE('',#1792,#398);
#273=LINE('',#1793,#399);
#274=LINE('',#1794,#400);
#275=LINE('',#1797,#401);
#276=LINE('',#1799,#402);
#277=LINE('',#1800,#403);
#278=LINE('',#1801,#404);
#279=LINE('',#1802,#405);
#280=LINE('',#1804,#406);
#281=LINE('',#1809,#407);
#282=LINE('',#1812,#408);
#283=LINE('',#1813,#409);
#284=LINE('',#1817,#410);
#285=LINE('',#1819,#411);
#286=LINE('',#1824,#412);
#287=LINE('',#1827,#413);
#288=LINE('',#1828,#414);
#289=LINE('',#1832,#415);
#290=LINE('',#1834,#416);
#291=LINE('',#1839,#417);
#292=LINE('',#1842,#418);
#293=LINE('',#1843,#419);
#294=LINE('',#1847,#420);
#295=LINE('',#1849,#421);
#296=LINE('',#1854,#422);
#297=LINE('',#1857,#423);
#298=LINE('',#1858,#424);
#299=LINE('',#1862,#425);
#300=LINE('',#1864,#426);
#301=VECTOR('',#1239,10.);
#302=VECTOR('',#1242,10.);
#303=VECTOR('',#1245,10.);
#304=VECTOR('',#1246,10.);
#305=VECTOR('',#1247,10.);
#306=VECTOR('',#1254,10.);
#307=VECTOR('',#1259,10.);
#308=VECTOR('',#1262,10.);
#309=VECTOR('',#1267,10.);
#310=VECTOR('',#1270,10.);
#311=VECTOR('',#1273,10.);
#312=VECTOR('',#1274,10.);
#313=VECTOR('',#1277,10.);
#314=VECTOR('',#1278,10.);
#315=VECTOR('',#1279,10.);
#316=VECTOR('',#1280,10.);
#317=VECTOR('',#1281,10.);
#318=VECTOR('',#1284,10.);
#319=VECTOR('',#1285,10.);
#320=VECTOR('',#1286,10.);
#321=VECTOR('',#1287,10.);
#322=VECTOR('',#1288,10.);
#323=VECTOR('',#1291,10.);
#324=VECTOR('',#1292,10.);
#325=VECTOR('',#1293,10.);
#326=VECTOR('',#1294,10.);
#327=VECTOR('',#1295,10.);
#328=VECTOR('',#1298,10.);
#329=VECTOR('',#1299,10.);
#330=VECTOR('',#1300,10.);
#331=VECTOR('',#1303,10.);
#332=VECTOR('',#1304,10.);
#333=VECTOR('',#1307,10.);
#334=VECTOR('',#1308,10.);
#335=VECTOR('',#1311,10.);
#336=VECTOR('',#1314,10.);
#337=VECTOR('',#1317,10.);
#338=VECTOR('',#1318,10.);
#339=VECTOR('',#1321,10.);
#340=VECTOR('',#1322,10.);
#341=VECTOR('',#1323,10.);
#342=VECTOR('',#1324,10.);
#343=VECTOR('',#1325,10.);
#344=VECTOR('',#1326,10.);
#345=VECTOR('',#1327,10.);
#346=VECTOR('',#1328,10.);
#347=VECTOR('',#1329,10.);
#348=VECTOR('',#1334,10.);
#349=VECTOR('',#1337,10.);
#350=VECTOR('',#1340,10.);
#351=VECTOR('',#1341,10.);
#352=VECTOR('',#1342,10.);
#353=VECTOR('',#1343,10.);
#354=VECTOR('',#1346,10.);
#355=VECTOR('',#1349,10.);
#356=VECTOR('',#1350,10.);
#357=VECTOR('',#1353,10.);
#358=VECTOR('',#1356,10.);
#359=VECTOR('',#1357,10.);
#360=VECTOR('',#1358,10.);
#361=VECTOR('',#1361,10.);
#362=VECTOR('',#1362,10.);
#363=VECTOR('',#1363,10.);
#364=VECTOR('',#1366,10.);
#365=VECTOR('',#1367,10.);
#366=VECTOR('',#1368,10.);
#367=VECTOR('',#1371,10.);
#368=VECTOR('',#1372,10.);
#369=VECTOR('',#1375,10.);
#370=VECTOR('',#1378,10.);
#371=VECTOR('',#1381,10.);
#372=VECTOR('',#1394,10.);
#373=VECTOR('',#1397,10.);
#374=VECTOR('',#1398,10.);
#375=VECTOR('',#1403,10.);
#376=VECTOR('',#1404,10.);
#377=VECTOR('',#1407,10.);
#378=VECTOR('',#1412,10.);
#379=VECTOR('',#1415,10.);
#380=VECTOR('',#1416,10.);
#381=VECTOR('',#1417,10.);
#382=VECTOR('',#1422,10.);
#383=VECTOR('',#1425,10.);
#384=VECTOR('',#1426,10.);
#385=VECTOR('',#1429,10.);
#386=VECTOR('',#1430,10.);
#387=VECTOR('',#1431,10.);
#388=VECTOR('',#1438,10.);
#389=VECTOR('',#1439,10.);
#390=VECTOR('',#1440,10.);
#391=VECTOR('',#1441,10.);
#392=VECTOR('',#1442,10.);
#393=VECTOR('',#1443,10.);
#394=VECTOR('',#1444,10.);
#395=VECTOR('',#1445,10.);
#396=VECTOR('',#1448,10.);
#397=VECTOR('',#1449,10.);
#398=VECTOR('',#1450,10.);
#399=VECTOR('',#1451,10.);
#400=VECTOR('',#1452,10.);
#401=VECTOR('',#1455,10.);
#402=VECTOR('',#1456,10.);
#403=VECTOR('',#1457,10.);
#404=VECTOR('',#1458,10.);
#405=VECTOR('',#1459,10.);
#406=VECTOR('',#1462,10.);
#407=VECTOR('',#1469,1.8);
#408=VECTOR('',#1472,10.);
#409=VECTOR('',#1473,10.);
#410=VECTOR('',#1478,10.);
#411=VECTOR('',#1481,10.);
#412=VECTOR('',#1488,1.8);
#413=VECTOR('',#1491,10.);
#414=VECTOR('',#1492,10.);
#415=VECTOR('',#1497,10.);
#416=VECTOR('',#1500,10.);
#417=VECTOR('',#1507,1.8);
#418=VECTOR('',#1510,10.);
#419=VECTOR('',#1511,10.);
#420=VECTOR('',#1516,10.);
#421=VECTOR('',#1519,10.);
#422=VECTOR('',#1526,1.8);
#423=VECTOR('',#1529,10.);
#424=VECTOR('',#1530,10.);
#425=VECTOR('',#1535,10.);
#426=VECTOR('',#1538,10.);
#427=CIRCLE('',#1144,2.00000002980232);
#428=CIRCLE('',#1145,2.00000002980232);
#429=CIRCLE('',#1148,2.00000002980232);
#430=CIRCLE('',#1149,2.00000002980232);
#431=CIRCLE('',#1151,2.00000002980232);
#432=CIRCLE('',#1152,2.00000002980232);
#433=CIRCLE('',#1154,2.00000002980232);
#434=CIRCLE('',#1155,2.00000002980232);
#435=CIRCLE('',#1168,2.);
#436=CIRCLE('',#1169,2.);
#437=CIRCLE('',#1171,3.00000002980232);
#438=CIRCLE('',#1172,3.00000002980232);
#439=CIRCLE('',#1174,5.00000007450581);
#440=CIRCLE('',#1175,5.00000007450581);
#441=CIRCLE('',#1176,5.00000007450581);
#442=CIRCLE('',#1177,5.00000007450581);
#443=CIRCLE('',#1178,2.);
#444=CIRCLE('',#1179,2.);
#445=CIRCLE('',#1180,2.);
#446=CIRCLE('',#1181,1.8);
#447=CIRCLE('',#1182,1.8);
#448=CIRCLE('',#1183,1.8);
#449=CIRCLE('',#1184,1.8);
#450=CIRCLE('',#1186,2.);
#451=CIRCLE('',#1189,2.);
#452=CIRCLE('',#1192,2.);
#453=CIRCLE('',#1195,3.00000002980232);
#454=CIRCLE('',#1199,3.00000002980232);
#455=CIRCLE('',#1206,1.8);
#456=CIRCLE('',#1209,5.00000007450581);
#457=CIRCLE('',#1213,1.8);
#458=CIRCLE('',#1216,5.00000007450581);
#459=CIRCLE('',#1220,1.8);
#460=CIRCLE('',#1223,5.00000007450581);
#461=CIRCLE('',#1227,1.8);
#462=CIRCLE('',#1230,5.00000007450581);
#463=VERTEX_POINT('',#1543);
#464=VERTEX_POINT('',#1544);
#465=VERTEX_POINT('',#1546);
#466=VERTEX_POINT('',#1548);
#467=VERTEX_POINT('',#1552);
#468=VERTEX_POINT('',#1554);
#469=VERTEX_POINT('',#1558);
#470=VERTEX_POINT('',#1560);
#471=VERTEX_POINT('',#1564);
#472=VERTEX_POINT('',#1565);
#473=VERTEX_POINT('',#1567);
#474=VERTEX_POINT('',#1569);
#475=VERTEX_POINT('',#1573);
#476=VERTEX_POINT('',#1574);
#477=VERTEX_POINT('',#1576);
#478=VERTEX_POINT('',#1578);
#479=VERTEX_POINT('',#1585);
#480=VERTEX_POINT('',#1587);
#481=VERTEX_POINT('',#1589);
#482=VERTEX_POINT('',#1591);
#483=VERTEX_POINT('',#1595);
#484=VERTEX_POINT('',#1597);
#485=VERTEX_POINT('',#1599);
#486=VERTEX_POINT('',#1601);
#487=VERTEX_POINT('',#1605);
#488=VERTEX_POINT('',#1607);
#489=VERTEX_POINT('',#1609);
#490=VERTEX_POINT('',#1611);
#491=VERTEX_POINT('',#1615);
#492=VERTEX_POINT('',#1616);
#493=VERTEX_POINT('',#1621);
#494=VERTEX_POINT('',#1632);
#495=VERTEX_POINT('',#1636);
#496=VERTEX_POINT('',#1638);
#497=VERTEX_POINT('',#1640);
#498=VERTEX_POINT('',#1642);
#499=VERTEX_POINT('',#1644);
#500=VERTEX_POINT('',#1646);
#501=VERTEX_POINT('',#1648);
#502=VERTEX_POINT('',#1650);
#503=VERTEX_POINT('',#1654);
#504=VERTEX_POINT('',#1655);
#505=VERTEX_POINT('',#1657);
#506=VERTEX_POINT('',#1659);
#507=VERTEX_POINT('',#1663);
#508=VERTEX_POINT('',#1665);
#509=VERTEX_POINT('',#1667);
#510=VERTEX_POINT('',#1669);
#511=VERTEX_POINT('',#1671);
#512=VERTEX_POINT('',#1673);
#513=VERTEX_POINT('',#1675);
#514=VERTEX_POINT('',#1677);
#515=VERTEX_POINT('',#1681);
#516=VERTEX_POINT('',#1683);
#517=VERTEX_POINT('',#1685);
#518=VERTEX_POINT('',#1687);
#519=VERTEX_POINT('',#1689);
#520=VERTEX_POINT('',#1691);
#521=VERTEX_POINT('',#1693);
#522=VERTEX_POINT('',#1695);
#523=VERTEX_POINT('',#1697);
#524=VERTEX_POINT('',#1699);
#525=VERTEX_POINT('',#1701);
#526=VERTEX_POINT('',#1703);
#527=VERTEX_POINT('',#1705);
#528=VERTEX_POINT('',#1707);
#529=VERTEX_POINT('',#1710);
#530=VERTEX_POINT('',#1712);
#531=VERTEX_POINT('',#1714);
#532=VERTEX_POINT('',#1717);
#533=VERTEX_POINT('',#1719);
#534=VERTEX_POINT('',#1722);
#535=VERTEX_POINT('',#1724);
#536=VERTEX_POINT('',#1726);
#537=VERTEX_POINT('',#1728);
#538=VERTEX_POINT('',#1731);
#539=VERTEX_POINT('',#1735);
#540=VERTEX_POINT('',#1739);
#541=VERTEX_POINT('',#1740);
#542=VERTEX_POINT('',#1747);
#543=VERTEX_POINT('',#1751);
#544=VERTEX_POINT('',#1752);
#545=VERTEX_POINT('',#1757);
#546=VERTEX_POINT('',#1761);
#547=VERTEX_POINT('',#1765);
#548=VERTEX_POINT('',#1766);
#549=VERTEX_POINT('',#1773);
#550=VERTEX_POINT('',#1775);
#551=VERTEX_POINT('',#1777);
#552=VERTEX_POINT('',#1780);
#553=VERTEX_POINT('',#1782);
#554=VERTEX_POINT('',#1784);
#555=VERTEX_POINT('',#1788);
#556=VERTEX_POINT('',#1790);
#557=VERTEX_POINT('',#1796);
#558=VERTEX_POINT('',#1798);
#559=VERTEX_POINT('',#1807);
#560=VERTEX_POINT('',#1811);
#561=VERTEX_POINT('',#1815);
#562=VERTEX_POINT('',#1822);
#563=VERTEX_POINT('',#1826);
#564=VERTEX_POINT('',#1830);
#565=VERTEX_POINT('',#1837);
#566=VERTEX_POINT('',#1841);
#567=VERTEX_POINT('',#1845);
#568=VERTEX_POINT('',#1852);
#569=VERTEX_POINT('',#1856);
#570=VERTEX_POINT('',#1860);
#571=EDGE_CURVE('',#463,#464,#427,.T.);
#572=EDGE_CURVE('',#465,#463,#175,.T.);
#573=EDGE_CURVE('',#466,#465,#428,.T.);
#574=EDGE_CURVE('',#466,#464,#176,.T.);
#575=EDGE_CURVE('',#464,#467,#177,.T.);
#576=EDGE_CURVE('',#468,#466,#178,.T.);
#577=EDGE_CURVE('',#468,#467,#179,.T.);
#578=EDGE_CURVE('',#467,#469,#429,.T.);
#579=EDGE_CURVE('',#470,#468,#430,.T.);
#580=EDGE_CURVE('',#469,#470,#180,.T.);
#581=EDGE_CURVE('',#471,#472,#431,.T.);
#582=EDGE_CURVE('',#473,#471,#181,.T.);
#583=EDGE_CURVE('',#474,#473,#432,.T.);
#584=EDGE_CURVE('',#472,#474,#182,.T.);
#585=EDGE_CURVE('',#475,#476,#433,.T.);
#586=EDGE_CURVE('',#475,#477,#183,.T.);
#587=EDGE_CURVE('',#478,#477,#434,.T.);
#588=EDGE_CURVE('',#476,#478,#184,.T.);
#589=EDGE_CURVE('',#472,#475,#185,.T.);
#590=EDGE_CURVE('',#477,#474,#186,.T.);
#591=EDGE_CURVE('',#473,#479,#187,.T.);
#592=EDGE_CURVE('',#479,#480,#188,.T.);
#593=EDGE_CURVE('',#480,#481,#189,.T.);
#594=EDGE_CURVE('',#481,#482,#190,.T.);
#595=EDGE_CURVE('',#482,#478,#191,.T.);
#596=EDGE_CURVE('',#483,#469,#192,.T.);
#597=EDGE_CURVE('',#483,#484,#193,.T.);
#598=EDGE_CURVE('',#484,#485,#194,.T.);
#599=EDGE_CURVE('',#485,#486,#195,.T.);
#600=EDGE_CURVE('',#463,#486,#196,.T.);
#601=EDGE_CURVE('',#487,#476,#197,.T.);
#602=EDGE_CURVE('',#487,#488,#198,.T.);
#603=EDGE_CURVE('',#488,#489,#199,.T.);
#604=EDGE_CURVE('',#489,#490,#200,.T.);
#605=EDGE_CURVE('',#471,#490,#201,.T.);
#606=EDGE_CURVE('',#491,#492,#202,.T.);
#607=EDGE_CURVE('',#491,#481,#203,.T.);
#608=EDGE_CURVE('',#492,#480,#204,.T.);
#609=EDGE_CURVE('',#492,#493,#205,.T.);
#610=EDGE_CURVE('',#493,#479,#206,.T.);
#611=EDGE_CURVE('',#483,#490,#207,.T.);
#612=EDGE_CURVE('',#484,#489,#208,.T.);
#613=EDGE_CURVE('',#485,#488,#209,.T.);
#614=EDGE_CURVE('',#486,#487,#210,.T.);
#615=EDGE_CURVE('',#494,#491,#211,.T.);
#616=EDGE_CURVE('',#494,#482,#212,.T.);
#617=EDGE_CURVE('',#495,#493,#213,.T.);
#618=EDGE_CURVE('',#495,#496,#214,.T.);
#619=EDGE_CURVE('',#497,#496,#215,.T.);
#620=EDGE_CURVE('',#497,#498,#216,.T.);
#621=EDGE_CURVE('',#499,#498,#217,.T.);
#622=EDGE_CURVE('',#500,#499,#218,.T.);
#623=EDGE_CURVE('',#501,#500,#219,.T.);
#624=EDGE_CURVE('',#502,#501,#220,.T.);
#625=EDGE_CURVE('',#494,#502,#221,.T.);
#626=EDGE_CURVE('',#503,#504,#435,.T.);
#627=EDGE_CURVE('',#504,#505,#222,.T.);
#628=EDGE_CURVE('',#505,#506,#436,.T.);
#629=EDGE_CURVE('',#506,#503,#223,.T.);
#630=EDGE_CURVE('',#506,#507,#224,.T.);
#631=EDGE_CURVE('',#508,#507,#225,.T.);
#632=EDGE_CURVE('',#509,#508,#226,.T.);
#633=EDGE_CURVE('',#509,#510,#227,.T.);
#634=EDGE_CURVE('',#510,#511,#437,.T.);
#635=EDGE_CURVE('',#511,#512,#228,.T.);
#636=EDGE_CURVE('',#512,#513,#438,.T.);
#637=EDGE_CURVE('',#513,#514,#229,.T.);
#638=EDGE_CURVE('',#503,#514,#230,.T.);
#639=EDGE_CURVE('',#515,#502,#231,.T.);
#640=EDGE_CURVE('',#515,#516,#439,.T.);
#641=EDGE_CURVE('',#516,#517,#232,.T.);
#642=EDGE_CURVE('',#517,#518,#233,.T.);
#643=EDGE_CURVE('',#519,#518,#234,.T.);
#644=EDGE_CURVE('',#519,#520,#440,.T.);
#645=EDGE_CURVE('',#520,#521,#235,.T.);
#646=EDGE_CURVE('',#521,#522,#236,.T.);
#647=EDGE_CURVE('',#523,#522,#237,.T.);
#648=EDGE_CURVE('',#523,#524,#441,.T.);
#649=EDGE_CURVE('',#524,#525,#238,.T.);
#650=EDGE_CURVE('',#525,#526,#239,.T.);
#651=EDGE_CURVE('',#527,#526,#240,.T.);
#652=EDGE_CURVE('',#527,#528,#442,.T.);
#653=EDGE_CURVE('',#528,#495,#241,.T.);
#654=EDGE_CURVE('',#529,#470,#242,.T.);
#655=EDGE_CURVE('',#530,#529,#443,.T.);
#656=EDGE_CURVE('',#531,#530,#243,.T.);
#657=EDGE_CURVE('',#507,#531,#444,.T.);
#658=EDGE_CURVE('',#532,#505,#244,.T.);
#659=EDGE_CURVE('',#533,#532,#445,.T.);
#660=EDGE_CURVE('',#465,#533,#245,.T.);
#661=EDGE_CURVE('',#534,#534,#446,.T.);
#662=EDGE_CURVE('',#535,#535,#447,.T.);
#663=EDGE_CURVE('',#536,#536,#448,.T.);
#664=EDGE_CURVE('',#537,#537,#449,.T.);
#665=EDGE_CURVE('',#538,#508,#450,.T.);
#666=EDGE_CURVE('',#531,#538,#246,.T.);
#667=EDGE_CURVE('',#539,#530,#247,.T.);
#668=EDGE_CURVE('',#538,#539,#248,.T.);
#669=EDGE_CURVE('',#540,#541,#451,.T.);
#670=EDGE_CURVE('',#541,#533,#249,.T.);
#671=EDGE_CURVE('',#532,#540,#250,.T.);
#672=EDGE_CURVE('',#540,#504,#251,.T.);
#673=EDGE_CURVE('',#542,#539,#452,.T.);
#674=EDGE_CURVE('',#529,#542,#252,.T.);
#675=EDGE_CURVE('',#543,#544,#253,.T.);
#676=EDGE_CURVE('',#543,#512,#254,.T.);
#677=EDGE_CURVE('',#544,#511,#255,.T.);
#678=EDGE_CURVE('',#545,#543,#453,.T.);
#679=EDGE_CURVE('',#545,#513,#256,.T.);
#680=EDGE_CURVE('',#546,#545,#257,.T.);
#681=EDGE_CURVE('',#514,#546,#258,.T.);
#682=EDGE_CURVE('',#547,#548,#259,.T.);
#683=EDGE_CURVE('',#547,#510,#260,.T.);
#684=EDGE_CURVE('',#548,#509,#261,.T.);
#685=EDGE_CURVE('',#544,#547,#454,.T.);
#686=EDGE_CURVE('',#549,#548,#262,.T.);
#687=EDGE_CURVE('',#550,#549,#263,.T.);
#688=EDGE_CURVE('',#551,#550,#264,.T.);
#689=EDGE_CURVE('',#522,#551,#265,.T.);
#690=EDGE_CURVE('',#521,#552,#266,.T.);
#691=EDGE_CURVE('',#553,#552,#267,.T.);
#692=EDGE_CURVE('',#553,#554,#268,.T.);
#693=EDGE_CURVE('',#546,#554,#269,.T.);
#694=EDGE_CURVE('',#518,#555,#270,.T.);
#695=EDGE_CURVE('',#517,#556,#271,.T.);
#696=EDGE_CURVE('',#500,#556,#272,.T.);
#697=EDGE_CURVE('',#554,#499,#273,.T.);
#698=EDGE_CURVE('',#555,#553,#274,.T.);
#699=EDGE_CURVE('',#526,#557,#275,.T.);
#700=EDGE_CURVE('',#525,#558,#276,.T.);
#701=EDGE_CURVE('',#550,#558,#277,.T.);
#702=EDGE_CURVE('',#498,#549,#278,.T.);
#703=EDGE_CURVE('',#557,#497,#279,.T.);
#704=EDGE_CURVE('',#542,#541,#280,.T.);
#705=EDGE_CURVE('',#559,#559,#455,.T.);
#706=EDGE_CURVE('',#559,#535,#281,.T.);
#707=EDGE_CURVE('',#560,#551,#282,.T.);
#708=EDGE_CURVE('',#523,#560,#283,.T.);
#709=EDGE_CURVE('',#561,#560,#456,.T.);
#710=EDGE_CURVE('',#524,#561,#284,.T.);
#711=EDGE_CURVE('',#558,#561,#285,.T.);
#712=EDGE_CURVE('',#562,#562,#457,.T.);
#713=EDGE_CURVE('',#562,#536,#286,.T.);
#714=EDGE_CURVE('',#563,#501,#287,.T.);
#715=EDGE_CURVE('',#515,#563,#288,.T.);
#716=EDGE_CURVE('',#564,#563,#458,.T.);
#717=EDGE_CURVE('',#516,#564,#289,.T.);
#718=EDGE_CURVE('',#556,#564,#290,.T.);
#719=EDGE_CURVE('',#565,#565,#459,.T.);
#720=EDGE_CURVE('',#565,#534,#291,.T.);
#721=EDGE_CURVE('',#566,#555,#292,.T.);
#722=EDGE_CURVE('',#519,#566,#293,.T.);
#723=EDGE_CURVE('',#567,#566,#460,.T.);
#724=EDGE_CURVE('',#520,#567,#294,.T.);
#725=EDGE_CURVE('',#552,#567,#295,.T.);
#726=EDGE_CURVE('',#568,#568,#461,.T.);
#727=EDGE_CURVE('',#568,#537,#296,.T.);
#728=EDGE_CURVE('',#569,#557,#297,.T.);
#729=EDGE_CURVE('',#527,#569,#298,.T.);
#730=EDGE_CURVE('',#570,#569,#462,.T.);
#731=EDGE_CURVE('',#528,#570,#299,.T.);
#732=EDGE_CURVE('',#496,#570,#300,.T.);
#733=ORIENTED_EDGE('',*,*,#571,.F.);
#734=ORIENTED_EDGE('',*,*,#572,.F.);
#735=ORIENTED_EDGE('',*,*,#573,.F.);
#736=ORIENTED_EDGE('',*,*,#574,.T.);
#737=ORIENTED_EDGE('',*,*,#575,.F.);
#738=ORIENTED_EDGE('',*,*,#574,.F.);
#739=ORIENTED_EDGE('',*,*,#576,.F.);
#740=ORIENTED_EDGE('',*,*,#577,.T.);
#741=ORIENTED_EDGE('',*,*,#578,.F.);
#742=ORIENTED_EDGE('',*,*,#577,.F.);
#743=ORIENTED_EDGE('',*,*,#579,.F.);
#744=ORIENTED_EDGE('',*,*,#580,.F.);
#745=ORIENTED_EDGE('',*,*,#581,.F.);
#746=ORIENTED_EDGE('',*,*,#582,.F.);
#747=ORIENTED_EDGE('',*,*,#583,.F.);
#748=ORIENTED_EDGE('',*,*,#584,.F.);
#749=ORIENTED_EDGE('',*,*,#585,.F.);
#750=ORIENTED_EDGE('',*,*,#586,.T.);
#751=ORIENTED_EDGE('',*,*,#587,.F.);
#752=ORIENTED_EDGE('',*,*,#588,.F.);
#753=ORIENTED_EDGE('',*,*,#589,.F.);
#754=ORIENTED_EDGE('',*,*,#584,.T.);
#755=ORIENTED_EDGE('',*,*,#590,.F.);
#756=ORIENTED_EDGE('',*,*,#586,.F.);
#757=ORIENTED_EDGE('',*,*,#587,.T.);
#758=ORIENTED_EDGE('',*,*,#590,.T.);
#759=ORIENTED_EDGE('',*,*,#583,.T.);
#760=ORIENTED_EDGE('',*,*,#591,.T.);
#761=ORIENTED_EDGE('',*,*,#592,.T.);
#762=ORIENTED_EDGE('',*,*,#593,.T.);
#763=ORIENTED_EDGE('',*,*,#594,.T.);
#764=ORIENTED_EDGE('',*,*,#595,.T.);
#765=ORIENTED_EDGE('',*,*,#571,.T.);
#766=ORIENTED_EDGE('',*,*,#575,.T.);
#767=ORIENTED_EDGE('',*,*,#578,.T.);
#768=ORIENTED_EDGE('',*,*,#596,.F.);
#769=ORIENTED_EDGE('',*,*,#597,.T.);
#770=ORIENTED_EDGE('',*,*,#598,.T.);
#771=ORIENTED_EDGE('',*,*,#599,.T.);
#772=ORIENTED_EDGE('',*,*,#600,.F.);
#773=ORIENTED_EDGE('',*,*,#585,.T.);
#774=ORIENTED_EDGE('',*,*,#601,.F.);
#775=ORIENTED_EDGE('',*,*,#602,.T.);
#776=ORIENTED_EDGE('',*,*,#603,.T.);
#777=ORIENTED_EDGE('',*,*,#604,.T.);
#778=ORIENTED_EDGE('',*,*,#605,.F.);
#779=ORIENTED_EDGE('',*,*,#581,.T.);
#780=ORIENTED_EDGE('',*,*,#589,.T.);
#781=ORIENTED_EDGE('',*,*,#606,.F.);
#782=ORIENTED_EDGE('',*,*,#607,.T.);
#783=ORIENTED_EDGE('',*,*,#593,.F.);
#784=ORIENTED_EDGE('',*,*,#608,.F.);
#785=ORIENTED_EDGE('',*,*,#609,.F.);
#786=ORIENTED_EDGE('',*,*,#608,.T.);
#787=ORIENTED_EDGE('',*,*,#592,.F.);
#788=ORIENTED_EDGE('',*,*,#610,.F.);
#789=ORIENTED_EDGE('',*,*,#597,.F.);
#790=ORIENTED_EDGE('',*,*,#611,.T.);
#791=ORIENTED_EDGE('',*,*,#604,.F.);
#792=ORIENTED_EDGE('',*,*,#612,.F.);
#793=ORIENTED_EDGE('',*,*,#598,.F.);
#794=ORIENTED_EDGE('',*,*,#612,.T.);
#795=ORIENTED_EDGE('',*,*,#603,.F.);
#796=ORIENTED_EDGE('',*,*,#613,.F.);
#797=ORIENTED_EDGE('',*,*,#599,.F.);
#798=ORIENTED_EDGE('',*,*,#613,.T.);
#799=ORIENTED_EDGE('',*,*,#602,.F.);
#800=ORIENTED_EDGE('',*,*,#614,.F.);
#801=ORIENTED_EDGE('',*,*,#615,.F.);
#802=ORIENTED_EDGE('',*,*,#616,.T.);
#803=ORIENTED_EDGE('',*,*,#594,.F.);
#804=ORIENTED_EDGE('',*,*,#607,.F.);
#805=ORIENTED_EDGE('',*,*,#609,.T.);
#806=ORIENTED_EDGE('',*,*,#617,.F.);
#807=ORIENTED_EDGE('',*,*,#618,.T.);
#808=ORIENTED_EDGE('',*,*,#619,.F.);
#809=ORIENTED_EDGE('',*,*,#620,.T.);
#810=ORIENTED_EDGE('',*,*,#621,.F.);
#811=ORIENTED_EDGE('',*,*,#622,.F.);
#812=ORIENTED_EDGE('',*,*,#623,.F.);
#813=ORIENTED_EDGE('',*,*,#624,.F.);
#814=ORIENTED_EDGE('',*,*,#625,.F.);
#815=ORIENTED_EDGE('',*,*,#615,.T.);
#816=ORIENTED_EDGE('',*,*,#606,.T.);
#817=ORIENTED_EDGE('',*,*,#626,.T.);
#818=ORIENTED_EDGE('',*,*,#627,.T.);
#819=ORIENTED_EDGE('',*,*,#628,.T.);
#820=ORIENTED_EDGE('',*,*,#629,.T.);
#821=ORIENTED_EDGE('',*,*,#629,.F.);
#822=ORIENTED_EDGE('',*,*,#630,.T.);
#823=ORIENTED_EDGE('',*,*,#631,.F.);
#824=ORIENTED_EDGE('',*,*,#632,.F.);
#825=ORIENTED_EDGE('',*,*,#633,.T.);
#826=ORIENTED_EDGE('',*,*,#634,.T.);
#827=ORIENTED_EDGE('',*,*,#635,.T.);
#828=ORIENTED_EDGE('',*,*,#636,.T.);
#829=ORIENTED_EDGE('',*,*,#637,.T.);
#830=ORIENTED_EDGE('',*,*,#638,.F.);
#831=ORIENTED_EDGE('',*,*,#588,.T.);
#832=ORIENTED_EDGE('',*,*,#595,.F.);
#833=ORIENTED_EDGE('',*,*,#616,.F.);
#834=ORIENTED_EDGE('',*,*,#625,.T.);
#835=ORIENTED_EDGE('',*,*,#639,.F.);
#836=ORIENTED_EDGE('',*,*,#640,.T.);
#837=ORIENTED_EDGE('',*,*,#641,.T.);
#838=ORIENTED_EDGE('',*,*,#642,.T.);
#839=ORIENTED_EDGE('',*,*,#643,.F.);
#840=ORIENTED_EDGE('',*,*,#644,.T.);
#841=ORIENTED_EDGE('',*,*,#645,.T.);
#842=ORIENTED_EDGE('',*,*,#646,.T.);
#843=ORIENTED_EDGE('',*,*,#647,.F.);
#844=ORIENTED_EDGE('',*,*,#648,.T.);
#845=ORIENTED_EDGE('',*,*,#649,.T.);
#846=ORIENTED_EDGE('',*,*,#650,.T.);
#847=ORIENTED_EDGE('',*,*,#651,.F.);
#848=ORIENTED_EDGE('',*,*,#652,.T.);
#849=ORIENTED_EDGE('',*,*,#653,.T.);
#850=ORIENTED_EDGE('',*,*,#617,.T.);
#851=ORIENTED_EDGE('',*,*,#610,.T.);
#852=ORIENTED_EDGE('',*,*,#591,.F.);
#853=ORIENTED_EDGE('',*,*,#582,.T.);
#854=ORIENTED_EDGE('',*,*,#605,.T.);
#855=ORIENTED_EDGE('',*,*,#611,.F.);
#856=ORIENTED_EDGE('',*,*,#596,.T.);
#857=ORIENTED_EDGE('',*,*,#580,.T.);
#858=ORIENTED_EDGE('',*,*,#654,.F.);
#859=ORIENTED_EDGE('',*,*,#655,.F.);
#860=ORIENTED_EDGE('',*,*,#656,.F.);
#861=ORIENTED_EDGE('',*,*,#657,.F.);
#862=ORIENTED_EDGE('',*,*,#630,.F.);
#863=ORIENTED_EDGE('',*,*,#628,.F.);
#864=ORIENTED_EDGE('',*,*,#658,.F.);
#865=ORIENTED_EDGE('',*,*,#659,.F.);
#866=ORIENTED_EDGE('',*,*,#660,.F.);
#867=ORIENTED_EDGE('',*,*,#572,.T.);
#868=ORIENTED_EDGE('',*,*,#600,.T.);
#869=ORIENTED_EDGE('',*,*,#614,.T.);
#870=ORIENTED_EDGE('',*,*,#601,.T.);
#871=ORIENTED_EDGE('',*,*,#661,.T.);
#872=ORIENTED_EDGE('',*,*,#662,.T.);
#873=ORIENTED_EDGE('',*,*,#663,.T.);
#874=ORIENTED_EDGE('',*,*,#664,.T.);
#875=ORIENTED_EDGE('',*,*,#665,.T.);
#876=ORIENTED_EDGE('',*,*,#631,.T.);
#877=ORIENTED_EDGE('',*,*,#657,.T.);
#878=ORIENTED_EDGE('',*,*,#666,.T.);
#879=ORIENTED_EDGE('',*,*,#666,.F.);
#880=ORIENTED_EDGE('',*,*,#656,.T.);
#881=ORIENTED_EDGE('',*,*,#667,.F.);
#882=ORIENTED_EDGE('',*,*,#668,.F.);
#883=ORIENTED_EDGE('',*,*,#669,.T.);
#884=ORIENTED_EDGE('',*,*,#670,.T.);
#885=ORIENTED_EDGE('',*,*,#659,.T.);
#886=ORIENTED_EDGE('',*,*,#671,.T.);
#887=ORIENTED_EDGE('',*,*,#627,.F.);
#888=ORIENTED_EDGE('',*,*,#672,.F.);
#889=ORIENTED_EDGE('',*,*,#671,.F.);
#890=ORIENTED_EDGE('',*,*,#658,.T.);
#891=ORIENTED_EDGE('',*,*,#673,.T.);
#892=ORIENTED_EDGE('',*,*,#667,.T.);
#893=ORIENTED_EDGE('',*,*,#655,.T.);
#894=ORIENTED_EDGE('',*,*,#674,.T.);
#895=ORIENTED_EDGE('',*,*,#675,.F.);
#896=ORIENTED_EDGE('',*,*,#676,.T.);
#897=ORIENTED_EDGE('',*,*,#635,.F.);
#898=ORIENTED_EDGE('',*,*,#677,.F.);
#899=ORIENTED_EDGE('',*,*,#678,.F.);
#900=ORIENTED_EDGE('',*,*,#679,.T.);
#901=ORIENTED_EDGE('',*,*,#636,.F.);
#902=ORIENTED_EDGE('',*,*,#676,.F.);
#903=ORIENTED_EDGE('',*,*,#680,.F.);
#904=ORIENTED_EDGE('',*,*,#681,.F.);
#905=ORIENTED_EDGE('',*,*,#637,.F.);
#906=ORIENTED_EDGE('',*,*,#679,.F.);
#907=ORIENTED_EDGE('',*,*,#682,.F.);
#908=ORIENTED_EDGE('',*,*,#683,.T.);
#909=ORIENTED_EDGE('',*,*,#633,.F.);
#910=ORIENTED_EDGE('',*,*,#684,.F.);
#911=ORIENTED_EDGE('',*,*,#685,.F.);
#912=ORIENTED_EDGE('',*,*,#677,.T.);
#913=ORIENTED_EDGE('',*,*,#634,.F.);
#914=ORIENTED_EDGE('',*,*,#683,.F.);
#915=ORIENTED_EDGE('',*,*,#680,.T.);
#916=ORIENTED_EDGE('',*,*,#678,.T.);
#917=ORIENTED_EDGE('',*,*,#675,.T.);
#918=ORIENTED_EDGE('',*,*,#685,.T.);
#919=ORIENTED_EDGE('',*,*,#682,.T.);
#920=ORIENTED_EDGE('',*,*,#686,.F.);
#921=ORIENTED_EDGE('',*,*,#687,.F.);
#922=ORIENTED_EDGE('',*,*,#688,.F.);
#923=ORIENTED_EDGE('',*,*,#689,.F.);
#924=ORIENTED_EDGE('',*,*,#646,.F.);
#925=ORIENTED_EDGE('',*,*,#690,.T.);
#926=ORIENTED_EDGE('',*,*,#691,.F.);
#927=ORIENTED_EDGE('',*,*,#692,.T.);
#928=ORIENTED_EDGE('',*,*,#693,.F.);
#929=ORIENTED_EDGE('',*,*,#694,.F.);
#930=ORIENTED_EDGE('',*,*,#642,.F.);
#931=ORIENTED_EDGE('',*,*,#695,.T.);
#932=ORIENTED_EDGE('',*,*,#696,.F.);
#933=ORIENTED_EDGE('',*,*,#622,.T.);
#934=ORIENTED_EDGE('',*,*,#697,.F.);
#935=ORIENTED_EDGE('',*,*,#692,.F.);
#936=ORIENTED_EDGE('',*,*,#698,.F.);
#937=ORIENTED_EDGE('',*,*,#699,.F.);
#938=ORIENTED_EDGE('',*,*,#650,.F.);
#939=ORIENTED_EDGE('',*,*,#700,.T.);
#940=ORIENTED_EDGE('',*,*,#701,.F.);
#941=ORIENTED_EDGE('',*,*,#687,.T.);
#942=ORIENTED_EDGE('',*,*,#702,.F.);
#943=ORIENTED_EDGE('',*,*,#620,.F.);
#944=ORIENTED_EDGE('',*,*,#703,.F.);
#945=ORIENTED_EDGE('',*,*,#573,.T.);
#946=ORIENTED_EDGE('',*,*,#660,.T.);
#947=ORIENTED_EDGE('',*,*,#670,.F.);
#948=ORIENTED_EDGE('',*,*,#704,.F.);
#949=ORIENTED_EDGE('',*,*,#674,.F.);
#950=ORIENTED_EDGE('',*,*,#654,.T.);
#951=ORIENTED_EDGE('',*,*,#579,.T.);
#952=ORIENTED_EDGE('',*,*,#576,.T.);
#953=ORIENTED_EDGE('',*,*,#626,.F.);
#954=ORIENTED_EDGE('',*,*,#638,.T.);
#955=ORIENTED_EDGE('',*,*,#681,.T.);
#956=ORIENTED_EDGE('',*,*,#693,.T.);
#957=ORIENTED_EDGE('',*,*,#697,.T.);
#958=ORIENTED_EDGE('',*,*,#621,.T.);
#959=ORIENTED_EDGE('',*,*,#702,.T.);
#960=ORIENTED_EDGE('',*,*,#686,.T.);
#961=ORIENTED_EDGE('',*,*,#684,.T.);
#962=ORIENTED_EDGE('',*,*,#632,.T.);
#963=ORIENTED_EDGE('',*,*,#665,.F.);
#964=ORIENTED_EDGE('',*,*,#668,.T.);
#965=ORIENTED_EDGE('',*,*,#673,.F.);
#966=ORIENTED_EDGE('',*,*,#704,.T.);
#967=ORIENTED_EDGE('',*,*,#669,.F.);
#968=ORIENTED_EDGE('',*,*,#672,.T.);
#969=ORIENTED_EDGE('',*,*,#705,.F.);
#970=ORIENTED_EDGE('',*,*,#706,.T.);
#971=ORIENTED_EDGE('',*,*,#662,.F.);
#972=ORIENTED_EDGE('',*,*,#706,.F.);
#973=ORIENTED_EDGE('',*,*,#647,.T.);
#974=ORIENTED_EDGE('',*,*,#689,.T.);
#975=ORIENTED_EDGE('',*,*,#707,.F.);
#976=ORIENTED_EDGE('',*,*,#708,.F.);
#977=ORIENTED_EDGE('',*,*,#648,.F.);
#978=ORIENTED_EDGE('',*,*,#708,.T.);
#979=ORIENTED_EDGE('',*,*,#709,.F.);
#980=ORIENTED_EDGE('',*,*,#710,.F.);
#981=ORIENTED_EDGE('',*,*,#649,.F.);
#982=ORIENTED_EDGE('',*,*,#710,.T.);
#983=ORIENTED_EDGE('',*,*,#711,.F.);
#984=ORIENTED_EDGE('',*,*,#700,.F.);
#985=ORIENTED_EDGE('',*,*,#711,.T.);
#986=ORIENTED_EDGE('',*,*,#709,.T.);
#987=ORIENTED_EDGE('',*,*,#707,.T.);
#988=ORIENTED_EDGE('',*,*,#688,.T.);
#989=ORIENTED_EDGE('',*,*,#701,.T.);
#990=ORIENTED_EDGE('',*,*,#705,.T.);
#991=ORIENTED_EDGE('',*,*,#712,.F.);
#992=ORIENTED_EDGE('',*,*,#713,.T.);
#993=ORIENTED_EDGE('',*,*,#663,.F.);
#994=ORIENTED_EDGE('',*,*,#713,.F.);
#995=ORIENTED_EDGE('',*,*,#639,.T.);
#996=ORIENTED_EDGE('',*,*,#624,.T.);
#997=ORIENTED_EDGE('',*,*,#714,.F.);
#998=ORIENTED_EDGE('',*,*,#715,.F.);
#999=ORIENTED_EDGE('',*,*,#640,.F.);
#1000=ORIENTED_EDGE('',*,*,#715,.T.);
#1001=ORIENTED_EDGE('',*,*,#716,.F.);
#1002=ORIENTED_EDGE('',*,*,#717,.F.);
#1003=ORIENTED_EDGE('',*,*,#641,.F.);
#1004=ORIENTED_EDGE('',*,*,#717,.T.);
#1005=ORIENTED_EDGE('',*,*,#718,.F.);
#1006=ORIENTED_EDGE('',*,*,#695,.F.);
#1007=ORIENTED_EDGE('',*,*,#718,.T.);
#1008=ORIENTED_EDGE('',*,*,#716,.T.);
#1009=ORIENTED_EDGE('',*,*,#714,.T.);
#1010=ORIENTED_EDGE('',*,*,#623,.T.);
#1011=ORIENTED_EDGE('',*,*,#696,.T.);
#1012=ORIENTED_EDGE('',*,*,#712,.T.);
#1013=ORIENTED_EDGE('',*,*,#719,.F.);
#1014=ORIENTED_EDGE('',*,*,#720,.T.);
#1015=ORIENTED_EDGE('',*,*,#661,.F.);
#1016=ORIENTED_EDGE('',*,*,#720,.F.);
#1017=ORIENTED_EDGE('',*,*,#643,.T.);
#1018=ORIENTED_EDGE('',*,*,#694,.T.);
#1019=ORIENTED_EDGE('',*,*,#721,.F.);
#1020=ORIENTED_EDGE('',*,*,#722,.F.);
#1021=ORIENTED_EDGE('',*,*,#644,.F.);
#1022=ORIENTED_EDGE('',*,*,#722,.T.);
#1023=ORIENTED_EDGE('',*,*,#723,.F.);
#1024=ORIENTED_EDGE('',*,*,#724,.F.);
#1025=ORIENTED_EDGE('',*,*,#645,.F.);
#1026=ORIENTED_EDGE('',*,*,#724,.T.);
#1027=ORIENTED_EDGE('',*,*,#725,.F.);
#1028=ORIENTED_EDGE('',*,*,#690,.F.);
#1029=ORIENTED_EDGE('',*,*,#725,.T.);
#1030=ORIENTED_EDGE('',*,*,#723,.T.);
#1031=ORIENTED_EDGE('',*,*,#721,.T.);
#1032=ORIENTED_EDGE('',*,*,#698,.T.);
#1033=ORIENTED_EDGE('',*,*,#691,.T.);
#1034=ORIENTED_EDGE('',*,*,#719,.T.);
#1035=ORIENTED_EDGE('',*,*,#726,.F.);
#1036=ORIENTED_EDGE('',*,*,#727,.T.);
#1037=ORIENTED_EDGE('',*,*,#664,.F.);
#1038=ORIENTED_EDGE('',*,*,#727,.F.);
#1039=ORIENTED_EDGE('',*,*,#651,.T.);
#1040=ORIENTED_EDGE('',*,*,#699,.T.);
#1041=ORIENTED_EDGE('',*,*,#728,.F.);
#1042=ORIENTED_EDGE('',*,*,#729,.F.);
#1043=ORIENTED_EDGE('',*,*,#652,.F.);
#1044=ORIENTED_EDGE('',*,*,#729,.T.);
#1045=ORIENTED_EDGE('',*,*,#730,.F.);
#1046=ORIENTED_EDGE('',*,*,#731,.F.);
#1047=ORIENTED_EDGE('',*,*,#653,.F.);
#1048=ORIENTED_EDGE('',*,*,#731,.T.);
#1049=ORIENTED_EDGE('',*,*,#732,.F.);
#1050=ORIENTED_EDGE('',*,*,#618,.F.);
#1051=ORIENTED_EDGE('',*,*,#732,.T.);
#1052=ORIENTED_EDGE('',*,*,#730,.T.);
#1053=ORIENTED_EDGE('',*,*,#728,.T.);
#1054=ORIENTED_EDGE('',*,*,#703,.T.);
#1055=ORIENTED_EDGE('',*,*,#619,.T.);
#1056=ORIENTED_EDGE('',*,*,#726,.T.);
#1057=CYLINDRICAL_SURFACE('',#1143,2.00000002980232);
#1058=CYLINDRICAL_SURFACE('',#1147,2.00000002980232);
#1059=CYLINDRICAL_SURFACE('',#1150,2.00000002980232);
#1060=CYLINDRICAL_SURFACE('',#1153,2.00000002980232);
#1061=CYLINDRICAL_SURFACE('',#1167,2.);
#1062=CYLINDRICAL_SURFACE('',#1185,2.);
#1063=CYLINDRICAL_SURFACE('',#1188,2.);
#1064=CYLINDRICAL_SURFACE('',#1191,2.);
#1065=CYLINDRICAL_SURFACE('',#1194,3.00000002980232);
#1066=CYLINDRICAL_SURFACE('',#1198,3.00000002980232);
#1067=CYLINDRICAL_SURFACE('',#1205,1.8);
#1068=CYLINDRICAL_SURFACE('',#1208,5.00000007450581);
#1069=CYLINDRICAL_SURFACE('',#1212,1.8);
#1070=CYLINDRICAL_SURFACE('',#1215,5.00000007450581);
#1071=CYLINDRICAL_SURFACE('',#1219,1.8);
#1072=CYLINDRICAL_SURFACE('',#1222,5.00000007450581);
#1073=CYLINDRICAL_SURFACE('',#1226,1.8);
#1074=CYLINDRICAL_SURFACE('',#1229,5.00000007450581);
#1075=ADVANCED_FACE('',(#59),#1057,.F.);
#1076=ADVANCED_FACE('',(#60),#23,.F.);
#1077=ADVANCED_FACE('',(#61),#1058,.F.);
#1078=ADVANCED_FACE('',(#62),#1059,.F.);
#1079=ADVANCED_FACE('',(#63),#1060,.F.);
#1080=ADVANCED_FACE('',(#64),#24,.F.);
#1081=ADVANCED_FACE('',(#65),#25,.T.);
#1082=ADVANCED_FACE('',(#66),#26,.T.);
#1083=ADVANCED_FACE('',(#67),#27,.F.);
#1084=ADVANCED_FACE('',(#68),#28,.T.);
#1085=ADVANCED_FACE('',(#69),#29,.T.);
#1086=ADVANCED_FACE('',(#70),#30,.T.);
#1087=ADVANCED_FACE('',(#71),#31,.T.);
#1088=ADVANCED_FACE('',(#72),#32,.T.);
#1089=ADVANCED_FACE('',(#73),#33,.T.);
#1090=ADVANCED_FACE('',(#74),#34,.T.);
#1091=ADVANCED_FACE('',(#75),#1061,.T.);
#1092=ADVANCED_FACE('',(#76),#35,.T.);
#1093=ADVANCED_FACE('',(#77,#15,#16,#17,#18),#36,.T.);
#1094=ADVANCED_FACE('',(#78),#1062,.T.);
#1095=ADVANCED_FACE('',(#79),#37,.T.);
#1096=ADVANCED_FACE('',(#80),#1063,.T.);
#1097=ADVANCED_FACE('',(#81),#38,.T.);
#1098=ADVANCED_FACE('',(#82),#1064,.T.);
#1099=ADVANCED_FACE('',(#83),#39,.F.);
#1100=ADVANCED_FACE('',(#84),#1065,.F.);
#1101=ADVANCED_FACE('',(#85),#40,.F.);
#1102=ADVANCED_FACE('',(#86),#41,.F.);
#1103=ADVANCED_FACE('',(#87),#1066,.F.);
#1104=ADVANCED_FACE('',(#88),#42,.T.);
#1105=ADVANCED_FACE('',(#89),#43,.T.);
#1106=ADVANCED_FACE('',(#90),#44,.T.);
#1107=ADVANCED_FACE('',(#91),#45,.T.);
#1108=ADVANCED_FACE('',(#92),#46,.T.);
#1109=ADVANCED_FACE('',(#93),#1067,.F.);
#1110=ADVANCED_FACE('',(#94),#47,.T.);
#1111=ADVANCED_FACE('',(#95),#1068,.T.);
#1112=ADVANCED_FACE('',(#96),#48,.T.);
#1113=ADVANCED_FACE('',(#97,#19),#49,.F.);
#1114=ADVANCED_FACE('',(#98),#1069,.F.);
#1115=ADVANCED_FACE('',(#99),#50,.T.);
#1116=ADVANCED_FACE('',(#100),#1070,.T.);
#1117=ADVANCED_FACE('',(#101),#51,.T.);
#1118=ADVANCED_FACE('',(#102,#20),#52,.F.);
#1119=ADVANCED_FACE('',(#103),#1071,.F.);
#1120=ADVANCED_FACE('',(#104),#53,.T.);
#1121=ADVANCED_FACE('',(#105),#1072,.T.);
#1122=ADVANCED_FACE('',(#106),#54,.T.);
#1123=ADVANCED_FACE('',(#107,#21),#55,.F.);
#1124=ADVANCED_FACE('',(#108),#1073,.F.);
#1125=ADVANCED_FACE('',(#109),#56,.T.);
#1126=ADVANCED_FACE('',(#110),#1074,.T.);
#1127=ADVANCED_FACE('',(#111),#57,.T.);
#1128=ADVANCED_FACE('',(#112,#22),#58,.F.);
#1129=CLOSED_SHELL('',(#1075,#1076,#1077,#1078,#1079,#1080,#1081,#1082,
#1083,#1084,#1085,#1086,#1087,#1088,#1089,#1090,#1091,#1092,#1093,#1094,
#1095,#1096,#1097,#1098,#1099,#1100,#1101,#1102,#1103,#1104,#1105,#1106,
#1107,#1108,#1109,#1110,#1111,#1112,#1113,#1114,#1115,#1116,#1117,#1118,
#1119,#1120,#1121,#1122,#1123,#1124,#1125,#1126,#1127,#1128));
#1130=DERIVED_UNIT_ELEMENT(#1132,1.);
#1131=DERIVED_UNIT_ELEMENT(#1871,-3.);
#1132=(
MASS_UNIT()
NAMED_UNIT(*)
SI_UNIT(.KILO.,.GRAM.)
);
#1133=DERIVED_UNIT((#1130,#1131));
#1134=MEASURE_REPRESENTATION_ITEM('density measure',
POSITIVE_RATIO_MEASURE(7850.),#1133);
#1135=PROPERTY_DEFINITION_REPRESENTATION(#1140,#1137);
#1136=PROPERTY_DEFINITION_REPRESENTATION(#1141,#1138);
#1137=REPRESENTATION('material name',(#1139),#1868);
#1138=REPRESENTATION('density',(#1134),#1868);
#1139=DESCRIPTIVE_REPRESENTATION_ITEM('Steel','Steel');
#1140=PROPERTY_DEFINITION('material property','material name',#1878);
#1141=PROPERTY_DEFINITION('material property','density of part',#1878);
#1142=AXIS2_PLACEMENT_3D('',#1541,#1233,#1234);
#1143=AXIS2_PLACEMENT_3D('',#1542,#1235,#1236);
#1144=AXIS2_PLACEMENT_3D('',#1545,#1237,#1238);
#1145=AXIS2_PLACEMENT_3D('',#1549,#1240,#1241);
#1146=AXIS2_PLACEMENT_3D('',#1551,#1243,#1244);
#1147=AXIS2_PLACEMENT_3D('',#1557,#1248,#1249);
#1148=AXIS2_PLACEMENT_3D('',#1559,#1250,#1251);
#1149=AXIS2_PLACEMENT_3D('',#1561,#1252,#1253);
#1150=AXIS2_PLACEMENT_3D('',#1563,#1255,#1256);
#1151=AXIS2_PLACEMENT_3D('',#1566,#1257,#1258);
#1152=AXIS2_PLACEMENT_3D('',#1570,#1260,#1261);
#1153=AXIS2_PLACEMENT_3D('',#1572,#1263,#1264);
#1154=AXIS2_PLACEMENT_3D('',#1575,#1265,#1266);
#1155=AXIS2_PLACEMENT_3D('',#1579,#1268,#1269);
#1156=AXIS2_PLACEMENT_3D('',#1581,#1271,#1272);
#1157=AXIS2_PLACEMENT_3D('',#1584,#1275,#1276);
#1158=AXIS2_PLACEMENT_3D('',#1594,#1282,#1283);
#1159=AXIS2_PLACEMENT_3D('',#1604,#1289,#1290);
#1160=AXIS2_PLACEMENT_3D('',#1614,#1296,#1297);
#1161=AXIS2_PLACEMENT_3D('',#1620,#1301,#1302);
#1162=AXIS2_PLACEMENT_3D('',#1624,#1305,#1306);
#1163=AXIS2_PLACEMENT_3D('',#1627,#1309,#1310);
#1164=AXIS2_PLACEMENT_3D('',#1629,#1312,#1313);
#1165=AXIS2_PLACEMENT_3D('',#1631,#1315,#1316);
#1166=AXIS2_PLACEMENT_3D('',#1635,#1319,#1320);
#1167=AXIS2_PLACEMENT_3D('',#1653,#1330,#1331);
#1168=AXIS2_PLACEMENT_3D('',#1656,#1332,#1333);
#1169=AXIS2_PLACEMENT_3D('',#1660,#1335,#1336);
#1170=AXIS2_PLACEMENT_3D('',#1662,#1338,#1339);
#1171=AXIS2_PLACEMENT_3D('',#1672,#1344,#1345);
#1172=AXIS2_PLACEMENT_3D('',#1676,#1347,#1348);
#1173=AXIS2_PLACEMENT_3D('',#1680,#1351,#1352);
#1174=AXIS2_PLACEMENT_3D('',#1684,#1354,#1355);
#1175=AXIS2_PLACEMENT_3D('',#1692,#1359,#1360);
#1176=AXIS2_PLACEMENT_3D('',#1700,#1364,#1365);
#1177=AXIS2_PLACEMENT_3D('',#1708,#1369,#1370);
#1178=AXIS2_PLACEMENT_3D('',#1713,#1373,#1374);
#1179=AXIS2_PLACEMENT_3D('',#1716,#1376,#1377);
#1180=AXIS2_PLACEMENT_3D('',#1720,#1379,#1380);
#1181=AXIS2_PLACEMENT_3D('',#1723,#1382,#1383);
#1182=AXIS2_PLACEMENT_3D('',#1725,#1384,#1385);
#1183=AXIS2_PLACEMENT_3D('',#1727,#1386,#1387);
#1184=AXIS2_PLACEMENT_3D('',#1729,#1388,#1389);
#1185=AXIS2_PLACEMENT_3D('',#1730,#1390,#1391);
#1186=AXIS2_PLACEMENT_3D('',#1732,#1392,#1393);
#1187=AXIS2_PLACEMENT_3D('',#1734,#1395,#1396);
#1188=AXIS2_PLACEMENT_3D('',#1738,#1399,#1400);
#1189=AXIS2_PLACEMENT_3D('',#1741,#1401,#1402);
#1190=AXIS2_PLACEMENT_3D('',#1744,#1405,#1406);
#1191=AXIS2_PLACEMENT_3D('',#1746,#1408,#1409);
#1192=AXIS2_PLACEMENT_3D('',#1748,#1410,#1411);
#1193=AXIS2_PLACEMENT_3D('',#1750,#1413,#1414);
#1194=AXIS2_PLACEMENT_3D('',#1756,#1418,#1419);
#1195=AXIS2_PLACEMENT_3D('',#1758,#1420,#1421);
#1196=AXIS2_PLACEMENT_3D('',#1760,#1423,#1424);
#1197=AXIS2_PLACEMENT_3D('',#1764,#1427,#1428);
#1198=AXIS2_PLACEMENT_3D('',#1770,#1432,#1433);
#1199=AXIS2_PLACEMENT_3D('',#1771,#1434,#1435);
#1200=AXIS2_PLACEMENT_3D('',#1772,#1436,#1437);
#1201=AXIS2_PLACEMENT_3D('',#1787,#1446,#1447);
#1202=AXIS2_PLACEMENT_3D('',#1795,#1453,#1454);
#1203=AXIS2_PLACEMENT_3D('',#1803,#1460,#1461);
#1204=AXIS2_PLACEMENT_3D('',#1805,#1463,#1464);
#1205=AXIS2_PLACEMENT_3D('',#1806,#1465,#1466);
#1206=AXIS2_PLACEMENT_3D('',#1808,#1467,#1468);
#1207=AXIS2_PLACEMENT_3D('',#1810,#1470,#1471);
#1208=AXIS2_PLACEMENT_3D('',#1814,#1474,#1475);
#1209=AXIS2_PLACEMENT_3D('',#1816,#1476,#1477);
#1210=AXIS2_PLACEMENT_3D('',#1818,#1479,#1480);
#1211=AXIS2_PLACEMENT_3D('',#1820,#1482,#1483);
#1212=AXIS2_PLACEMENT_3D('',#1821,#1484,#1485);
#1213=AXIS2_PLACEMENT_3D('',#1823,#1486,#1487);
#1214=AXIS2_PLACEMENT_3D('',#1825,#1489,#1490);
#1215=AXIS2_PLACEMENT_3D('',#1829,#1493,#1494);
#1216=AXIS2_PLACEMENT_3D('',#1831,#1495,#1496);
#1217=AXIS2_PLACEMENT_3D('',#1833,#1498,#1499);
#1218=AXIS2_PLACEMENT_3D('',#1835,#1501,#1502);
#1219=AXIS2_PLACEMENT_3D('',#1836,#1503,#1504);
#1220=AXIS2_PLACEMENT_3D('',#1838,#1505,#1506);
#1221=AXIS2_PLACEMENT_3D('',#1840,#1508,#1509);
#1222=AXIS2_PLACEMENT_3D('',#1844,#1512,#1513);
#1223=AXIS2_PLACEMENT_3D('',#1846,#1514,#1515);
#1224=AXIS2_PLACEMENT_3D('',#1848,#1517,#1518);
#1225=AXIS2_PLACEMENT_3D('',#1850,#1520,#1521);
#1226=AXIS2_PLACEMENT_3D('',#1851,#1522,#1523);
#1227=AXIS2_PLACEMENT_3D('',#1853,#1524,#1525);
#1228=AXIS2_PLACEMENT_3D('',#1855,#1527,#1528);
#1229=AXIS2_PLACEMENT_3D('',#1859,#1531,#1532);
#1230=AXIS2_PLACEMENT_3D('',#1861,#1533,#1534);
#1231=AXIS2_PLACEMENT_3D('',#1863,#1536,#1537);
#1232=AXIS2_PLACEMENT_3D('',#1865,#1539,#1540);
#1233=DIRECTION('axis',(0.,0.,1.));
#1234=DIRECTION('refdir',(1.,0.,0.));
#1235=DIRECTION('center_axis',(1.,0.,0.));
#1236=DIRECTION('ref_axis',(0.,0.,-1.));
#1237=DIRECTION('center_axis',(-1.,0.,0.));
#1238=DIRECTION('ref_axis',(0.,0.,-1.));
#1239=DIRECTION('',(1.,0.,0.));
#1240=DIRECTION('center_axis',(1.,0.,0.));
#1241=DIRECTION('ref_axis',(0.,0.,-1.));
#1242=DIRECTION('',(1.,0.,0.));
#1243=DIRECTION('center_axis',(0.,-1.,0.));
#1244=DIRECTION('ref_axis',(0.,0.,-1.));
#1245=DIRECTION('',(0.,0.,1.));
#1246=DIRECTION('',(0.,0.,-1.));
#1247=DIRECTION('',(1.,0.,0.));
#1248=DIRECTION('center_axis',(1.,0.,0.));
#1249=DIRECTION('ref_axis',(0.,-1.,0.));
#1250=DIRECTION('center_axis',(-1.,0.,0.));
#1251=DIRECTION('ref_axis',(0.,-1.,0.));
#1252=DIRECTION('center_axis',(1.,0.,0.));
#1253=DIRECTION('ref_axis',(0.,-1.,0.));
#1254=DIRECTION('',(-1.,0.,0.));
#1255=DIRECTION('center_axis',(1.,0.,0.));
#1256=DIRECTION('ref_axis',(0.,-1.,0.));
#1257=DIRECTION('center_axis',(1.,0.,0.));
#1258=DIRECTION('ref_axis',(0.,-1.,0.));
#1259=DIRECTION('',(-1.,0.,0.));
#1260=DIRECTION('center_axis',(-1.,0.,0.));
#1261=DIRECTION('ref_axis',(0.,-1.,0.));
#1262=DIRECTION('',(1.,0.,0.));
#1263=DIRECTION('center_axis',(1.,0.,0.));
#1264=DIRECTION('ref_axis',(0.,0.,-1.));
#1265=DIRECTION('center_axis',(1.,0.,0.));
#1266=DIRECTION('ref_axis',(0.,0.,-1.));
#1267=DIRECTION('',(1.,0.,0.));
#1268=DIRECTION('center_axis',(-1.,0.,0.));
#1269=DIRECTION('ref_axis',(0.,0.,-1.));
#1270=DIRECTION('',(1.,0.,0.));
#1271=DIRECTION('center_axis',(0.,-1.,0.));
#1272=DIRECTION('ref_axis',(0.,0.,-1.));
#1273=DIRECTION('',(0.,0.,-1.));
#1274=DIRECTION('',(0.,0.,1.));
#1275=DIRECTION('center_axis',(1.,0.,0.));
#1276=DIRECTION('ref_axis',(0.,0.,-1.));
#1277=DIRECTION('',(0.,0.,1.));
#1278=DIRECTION('',(0.,-1.,0.));
#1279=DIRECTION('',(0.,0.,-1.));
#1280=DIRECTION('',(0.,1.,0.));
#1281=DIRECTION('',(0.,0.,1.));
#1282=DIRECTION('center_axis',(1.,0.,0.));
#1283=DIRECTION('ref_axis',(0.,0.,1.));
#1284=DIRECTION('',(0.,0.,-1.));
#1285=DIRECTION('',(0.,-1.,0.));
#1286=DIRECTION('',(0.,0.,-1.));
#1287=DIRECTION('',(0.,1.,0.));
#1288=DIRECTION('',(0.,0.,-1.));
#1289=DIRECTION('center_axis',(1.,0.,0.));
#1290=DIRECTION('ref_axis',(0.,0.,-1.));
#1291=DIRECTION('',(0.,0.,1.));
#1292=DIRECTION('',(0.,-1.,0.));
#1293=DIRECTION('',(0.,0.,1.));
#1294=DIRECTION('',(0.,1.,0.));
#1295=DIRECTION('',(0.,0.,1.));
#1296=DIRECTION('center_axis',(0.,-1.,0.));
#1297=DIRECTION('ref_axis',(0.,0.,-1.));
#1298=DIRECTION('',(0.,0.,1.));
#1299=DIRECTION('',(1.,0.,0.));
#1300=DIRECTION('',(1.,0.,0.));
#1301=DIRECTION('center_axis',(0.,0.,1.));
#1302=DIRECTION('ref_axis',(0.,-1.,0.));
#1303=DIRECTION('',(0.,1.,0.));
#1304=DIRECTION('',(1.,0.,0.));
#1305=DIRECTION('center_axis',(0.,0.,-1.));
#1306=DIRECTION('ref_axis',(0.,1.,0.));
#1307=DIRECTION('',(1.,0.,0.));
#1308=DIRECTION('',(1.,0.,0.));
#1309=DIRECTION('center_axis',(0.,1.,0.));
#1310=DIRECTION('ref_axis',(0.,0.,1.));
#1311=DIRECTION('',(1.,0.,0.));
#1312=DIRECTION('center_axis',(0.,0.,1.));
#1313=DIRECTION('ref_axis',(0.,-1.,0.));
#1314=DIRECTION('',(1.,0.,0.));
#1315=DIRECTION('center_axis',(0.,0.,-1.));
#1316=DIRECTION('ref_axis',(0.,1.,0.));
#1317=DIRECTION('',(0.,-1.,0.));
#1318=DIRECTION('',(1.,0.,0.));
#1319=DIRECTION('center_axis',(1.,0.,0.));
#1320=DIRECTION('ref_axis',(0.,0.,1.));
#1321=DIRECTION('',(0.,0.,-1.));
#1322=DIRECTION('',(0.,-1.,0.));
#1323=DIRECTION('',(0.,0.,-1.));
#1324=DIRECTION('',(0.,-1.,0.));
#1325=DIRECTION('',(0.,0.,1.));
#1326=DIRECTION('',(0.,-1.,0.));
#1327=DIRECTION('',(0.,0.,-1.));
#1328=DIRECTION('',(0.,-1.,0.));
#1329=DIRECTION('',(0.,0.,-1.));
#1330=DIRECTION('center_axis',(0.,-1.,0.));
#1331=DIRECTION('ref_axis',(0.707106781186551,0.,-0.707106781186544));
#1332=DIRECTION('center_axis',(0.,1.,0.));
#1333=DIRECTION('ref_axis',(0.707106781186551,0.,-0.707106781186544));
#1334=DIRECTION('',(0.,1.,0.));
#1335=DIRECTION('center_axis',(0.,-1.,0.));
#1336=DIRECTION('ref_axis',(0.707106781186551,0.,-0.707106781186544));
#1337=DIRECTION('',(0.,-1.,0.));
#1338=DIRECTION('center_axis',(1.,0.,0.));
#1339=DIRECTION('ref_axis',(0.,0.,1.));
#1340=DIRECTION('',(0.,0.,1.));
#1341=DIRECTION('',(0.,1.,0.));
#1342=DIRECTION('',(0.,0.,1.));
#1343=DIRECTION('',(0.,1.,0.));
#1344=DIRECTION('center_axis',(-1.,0.,0.));
#1345=DIRECTION('ref_axis',(0.,-1.,0.));
#1346=DIRECTION('',(0.,0.,-1.));
#1347=DIRECTION('center_axis',(-1.,0.,0.));
#1348=DIRECTION('ref_axis',(0.,1.,0.));
#1349=DIRECTION('',(0.,-1.,0.));
#1350=DIRECTION('',(0.,0.,1.));
#1351=DIRECTION('center_axis',(0.,1.,0.));
#1352=DIRECTION('ref_axis',(1.,0.,0.));
#1353=DIRECTION('',(-1.,0.,0.));
#1354=DIRECTION('center_axis',(0.,1.,0.));
#1355=DIRECTION('ref_axis',(0.,0.,1.));
#1356=DIRECTION('',(-3.70074394848921E-16,0.,-1.));
#1357=DIRECTION('',(1.,0.,0.));
#1358=DIRECTION('',(0.,0.,-1.));
#1359=DIRECTION('center_axis',(0.,1.,0.));
#1360=DIRECTION('ref_axis',(-1.,0.,0.));
#1361=DIRECTION('',(1.,0.,0.));
#1362=DIRECTION('',(0.,0.,1.));
#1363=DIRECTION('',(1.,0.,-3.70074394848921E-16));
#1364=DIRECTION('center_axis',(0.,1.,0.));
#1365=DIRECTION('ref_axis',(0.,0.,-1.));
#1366=DIRECTION('',(0.,0.,1.));
#1367=DIRECTION('',(-1.,0.,0.));
#1368=DIRECTION('',(0.,0.,1.));
#1369=DIRECTION('center_axis',(0.,1.,0.));
#1370=DIRECTION('ref_axis',(1.,0.,0.));
#1371=DIRECTION('',(-1.,0.,0.));
#1372=DIRECTION('',(0.,0.,-1.));
#1373=DIRECTION('center_axis',(0.,-1.,0.));
#1374=DIRECTION('ref_axis',(-0.707106781186548,0.,0.707106781186547));
#1375=DIRECTION('',(-1.,0.,0.));
#1376=DIRECTION('center_axis',(0.,-1.,0.));
#1377=DIRECTION('ref_axis',(0.707106781186546,0.,0.707106781186549));
#1378=DIRECTION('',(1.,0.,0.));
#1379=DIRECTION('center_axis',(0.,-1.,0.));
#1380=DIRECTION('ref_axis',(-0.707106781186546,0.,-0.707106781186549));
#1381=DIRECTION('',(0.,0.,-1.));
#1382=DIRECTION('center_axis',(0.,-1.,0.));
#1383=DIRECTION('ref_axis',(1.,0.,0.));
#1384=DIRECTION('center_axis',(0.,-1.,0.));
#1385=DIRECTION('ref_axis',(1.,0.,0.));
#1386=DIRECTION('center_axis',(0.,-1.,0.));
#1387=DIRECTION('ref_axis',(1.,0.,0.));
#1388=DIRECTION('center_axis',(0.,-1.,0.));
#1389=DIRECTION('ref_axis',(1.,0.,0.));
#1390=DIRECTION('center_axis',(0.,-1.,0.));
#1391=DIRECTION('ref_axis',(0.707106781186546,0.,0.707106781186549));
#1392=DIRECTION('center_axis',(0.,1.,0.));
#1393=DIRECTION('ref_axis',(0.707106781186546,0.,0.707106781186549));
#1394=DIRECTION('',(0.,-1.,0.));
#1395=DIRECTION('center_axis',(0.,0.,1.));
#1396=DIRECTION('ref_axis',(-1.,0.,0.));
#1397=DIRECTION('',(0.,1.,0.));
#1398=DIRECTION('',(-1.,0.,0.));
#1399=DIRECTION('center_axis',(0.,-1.,0.));
#1400=DIRECTION('ref_axis',(-0.707106781186546,0.,-0.707106781186549));
#1401=DIRECTION('center_axis',(0.,1.,0.));
#1402=DIRECTION('ref_axis',(-0.707106781186546,0.,-0.707106781186549));
#1403=DIRECTION('',(0.,1.,0.));
#1404=DIRECTION('',(0.,-1.,0.));
#1405=DIRECTION('center_axis',(0.,0.,-1.));
#1406=DIRECTION('ref_axis',(1.,0.,0.));
#1407=DIRECTION('',(1.,0.,0.));
#1408=DIRECTION('center_axis',(0.,-1.,0.));
#1409=DIRECTION('ref_axis',(-0.707106781186548,0.,0.707106781186547));
#1410=DIRECTION('center_axis',(0.,1.,0.));
#1411=DIRECTION('ref_axis',(-0.707106781186548,0.,0.707106781186547));
#1412=DIRECTION('',(0.,-1.,0.));
#1413=DIRECTION('center_axis',(0.,1.,0.));
#1414=DIRECTION('ref_axis',(0.,0.,1.));
#1415=DIRECTION('',(0.,0.,1.));
#1416=DIRECTION('',(1.,0.,0.));
#1417=DIRECTION('',(1.,0.,0.));
#1418=DIRECTION('center_axis',(1.,0.,0.));
#1419=DIRECTION('ref_axis',(0.,1.,0.));
#1420=DIRECTION('center_axis',(1.,0.,0.));
#1421=DIRECTION('ref_axis',(0.,1.,0.));
#1422=DIRECTION('',(1.,0.,0.));
#1423=DIRECTION('center_axis',(0.,0.,-1.));
#1424=DIRECTION('ref_axis',(0.,1.,0.));
#1425=DIRECTION('',(0.,1.,0.));
#1426=DIRECTION('',(-1.,0.,0.));
#1427=DIRECTION('center_axis',(0.,0.,1.));
#1428=DIRECTION('ref_axis',(0.,-1.,0.));
#1429=DIRECTION('',(0.,-1.,0.));
#1430=DIRECTION('',(1.,0.,0.));
#1431=DIRECTION('',(1.,0.,0.));
#1432=DIRECTION('center_axis',(1.,0.,0.));
#1433=DIRECTION('ref_axis',(0.,-1.,0.));
#1434=DIRECTION('center_axis',(1.,0.,0.));
#1435=DIRECTION('ref_axis',(0.,-1.,0.));
#1436=DIRECTION('center_axis',(-1.,0.,0.));
#1437=DIRECTION('ref_axis',(0.,0.,-1.));
#1438=DIRECTION('',(0.,0.,-1.));
#1439=DIRECTION('',(0.,-1.,0.));
#1440=DIRECTION('',(0.,0.,1.));
#1441=DIRECTION('',(0.,-1.,0.));
#1442=DIRECTION('',(0.,-1.,0.));
#1443=DIRECTION('',(0.,0.,1.));
#1444=DIRECTION('',(0.,-1.,0.));
#1445=DIRECTION('',(0.,0.,-1.));
#1446=DIRECTION('center_axis',(0.,0.,1.));
#1447=DIRECTION('ref_axis',(-1.,0.,0.));
#1448=DIRECTION('',(0.,-1.,0.));
#1449=DIRECTION('',(0.,-1.,0.));
#1450=DIRECTION('',(1.,0.,0.));
#1451=DIRECTION('',(-1.,0.,0.));
#1452=DIRECTION('',(1.,0.,0.));
#1453=DIRECTION('center_axis',(0.,0.,-1.));
#1454=DIRECTION('ref_axis',(1.,0.,0.));
#1455=DIRECTION('',(0.,-1.,0.));
#1456=DIRECTION('',(0.,-1.,0.));
#1457=DIRECTION('',(-1.,0.,0.));
#1458=DIRECTION('',(1.,0.,0.));
#1459=DIRECTION('',(-1.,0.,0.));
#1460=DIRECTION('center_axis',(-1.,0.,0.));
#1461=DIRECTION('ref_axis',(0.,0.,-1.));
#1462=DIRECTION('',(0.,0.,-1.));
#1463=DIRECTION('center_axis',(0.,-1.,0.));
#1464=DIRECTION('ref_axis',(0.,0.,-1.));
#1465=DIRECTION('center_axis',(0.,-1.,0.));
#1466=DIRECTION('ref_axis',(1.,0.,0.));
#1467=DIRECTION('center_axis',(0.,1.,0.));
#1468=DIRECTION('ref_axis',(1.,0.,0.));
#1469=DIRECTION('',(0.,1.,0.));
#1470=DIRECTION('center_axis',(-3.70074394848921E-16,0.,-1.));
#1471=DIRECTION('ref_axis',(1.,0.,-3.70074394848921E-16));
#1472=DIRECTION('',(1.,0.,-3.70074394848921E-16));
#1473=DIRECTION('',(0.,-1.,0.));
#1474=DIRECTION('center_axis',(0.,-1.,0.));
#1475=DIRECTION('ref_axis',(0.,0.,-1.));
#1476=DIRECTION('center_axis',(0.,-1.,0.));
#1477=DIRECTION('ref_axis',(0.,0.,-1.));
#1478=DIRECTION('',(0.,-1.,0.));
#1479=DIRECTION('center_axis',(-1.,0.,0.));
#1480=DIRECTION('ref_axis',(0.,0.,-1.));
#1481=DIRECTION('',(0.,0.,-1.));
#1482=DIRECTION('center_axis',(0.,1.,0.));
#1483=DIRECTION('ref_axis',(1.,0.,0.));
#1484=DIRECTION('center_axis',(0.,-1.,0.));
#1485=DIRECTION('ref_axis',(1.,0.,0.));
#1486=DIRECTION('center_axis',(0.,1.,0.));
#1487=DIRECTION('ref_axis',(1.,0.,0.));
#1488=DIRECTION('',(0.,1.,0.));
#1489=DIRECTION('center_axis',(0.,0.,1.));
#1490=DIRECTION('ref_axis',(-1.,0.,0.));
#1491=DIRECTION('',(-1.,0.,0.));
#1492=DIRECTION('',(0.,-1.,0.));
#1493=DIRECTION('center_axis',(0.,-1.,0.));
#1494=DIRECTION('ref_axis',(0.,0.,1.));
#1495=DIRECTION('center_axis',(0.,-1.,0.));
#1496=DIRECTION('ref_axis',(0.,0.,1.));
#1497=DIRECTION('',(0.,-1.,0.));
#1498=DIRECTION('center_axis',(1.,0.,-3.70074394848921E-16));
#1499=DIRECTION('ref_axis',(3.70074394848921E-16,0.,1.));
#1500=DIRECTION('',(3.70074394848921E-16,0.,1.));
#1501=DIRECTION('center_axis',(0.,1.,0.));
#1502=DIRECTION('ref_axis',(1.,0.,0.));
#1503=DIRECTION('center_axis',(0.,-1.,0.));
#1504=DIRECTION('ref_axis',(1.,0.,0.));
#1505=DIRECTION('center_axis',(0.,1.,0.));
#1506=DIRECTION('ref_axis',(1.,0.,0.));
#1507=DIRECTION('',(0.,1.,0.));
#1508=DIRECTION('center_axis',(-1.,0.,0.));
#1509=DIRECTION('ref_axis',(0.,0.,-1.));
#1510=DIRECTION('',(0.,0.,-1.));
#1511=DIRECTION('',(0.,-1.,0.));
#1512=DIRECTION('center_axis',(0.,-1.,0.));
#1513=DIRECTION('ref_axis',(-1.,0.,0.));
#1514=DIRECTION('center_axis',(0.,-1.,0.));
#1515=DIRECTION('ref_axis',(-1.,0.,0.));
#1516=DIRECTION('',(0.,-1.,0.));
#1517=DIRECTION('center_axis',(0.,0.,1.));
#1518=DIRECTION('ref_axis',(-1.,0.,0.));
#1519=DIRECTION('',(-1.,0.,0.));
#1520=DIRECTION('center_axis',(0.,1.,0.));
#1521=DIRECTION('ref_axis',(1.,0.,0.));
#1522=DIRECTION('center_axis',(0.,-1.,0.));
#1523=DIRECTION('ref_axis',(1.,0.,0.));
#1524=DIRECTION('center_axis',(0.,1.,0.));
#1525=DIRECTION('ref_axis',(1.,0.,0.));
#1526=DIRECTION('',(0.,1.,0.));
#1527=DIRECTION('center_axis',(1.,0.,0.));
#1528=DIRECTION('ref_axis',(0.,0.,1.));
#1529=DIRECTION('',(0.,0.,1.));
#1530=DIRECTION('',(0.,-1.,0.));
#1531=DIRECTION('center_axis',(0.,-1.,0.));
#1532=DIRECTION('ref_axis',(1.,0.,0.));
#1533=DIRECTION('center_axis',(0.,-1.,0.));
#1534=DIRECTION('ref_axis',(1.,0.,0.));
#1535=DIRECTION('',(0.,-1.,0.));
#1536=DIRECTION('center_axis',(0.,0.,-1.));
#1537=DIRECTION('ref_axis',(1.,0.,0.));
#1538=DIRECTION('',(1.,0.,0.));
#1539=DIRECTION('center_axis',(0.,1.,0.));
#1540=DIRECTION('ref_axis',(1.,0.,0.));
#1541=CARTESIAN_POINT('',(0.,0.,0.));
#1542=CARTESIAN_POINT('Origin',(2.00000002980232,0.,-38.0000005662441));
#1543=CARTESIAN_POINT('',(4.00000002980232,0.,-40.0000005960464));
#1544=CARTESIAN_POINT('',(4.00000002980232,-2.00000002980232,-38.0000005662441));
#1545=CARTESIAN_POINT('Origin',(4.00000002980232,0.,-38.0000005662441));
#1546=CARTESIAN_POINT('',(2.00000002980232,0.,-40.0000005960464));
#1547=CARTESIAN_POINT('',(2.00000002980232,0.,-40.0000005960464));
#1548=CARTESIAN_POINT('',(2.00000002980232,-2.00000002980232,-38.0000005662441));
#1549=CARTESIAN_POINT('Origin',(2.00000002980232,0.,-38.0000005662441));
#1550=CARTESIAN_POINT('',(2.00000002980232,-2.00000002980232,-38.0000005662441));
#1551=CARTESIAN_POINT('Origin',(2.00000002980232,-2.00000002980232,-32.0000004768372));
#1552=CARTESIAN_POINT('',(4.00000002980232,-2.00000002980232,-32.0000004768372));
#1553=CARTESIAN_POINT('',(4.00000002980232,-2.00000002980232,-49.0000002533197));
#1554=CARTESIAN_POINT('',(2.00000002980232,-2.00000002980232,-32.0000004768372));
#1555=CARTESIAN_POINT('',(2.00000002980232,-2.00000002980232,-17.0000002533197));
#1556=CARTESIAN_POINT('',(2.00000002980232,-2.00000002980232,-32.0000004768372));
#1557=CARTESIAN_POINT('Origin',(2.00000002980232,0.,-32.0000004768372));
#1558=CARTESIAN_POINT('',(4.00000002980232,0.,-30.0000004470348));
#1559=CARTESIAN_POINT('Origin',(4.00000002980232,0.,-32.0000004768372));
#1560=CARTESIAN_POINT('',(2.00000002980232,0.,-30.0000004470348));
#1561=CARTESIAN_POINT('Origin',(2.00000002980232,0.,-32.0000004768372));
#1562=CARTESIAN_POINT('',(2.00000002980232,0.,-30.0000004470348));
#1563=CARTESIAN_POINT('Origin',(2.00000002980232,0.,-32.0000004768372));
#1564=CARTESIAN_POINT('',(9.00000002980232,0.,-30.0000004470348));
#1565=CARTESIAN_POINT('',(9.00000002980232,-2.00000002980232,-32.0000004768372));
#1566=CARTESIAN_POINT('Origin',(9.00000002980232,0.,-32.0000004768372));
#1567=CARTESIAN_POINT('',(11.0000000298023,0.,-30.0000004470348));
#1568=CARTESIAN_POINT('',(2.00000002980232,0.,-30.0000004470348));
#1569=CARTESIAN_POINT('',(11.0000000298023,-2.00000002980232,-32.0000004768372));
#1570=CARTESIAN_POINT('Origin',(11.0000000298023,0.,-32.0000004768372));
#1571=CARTESIAN_POINT('',(2.00000002980232,-2.00000002980232,-32.0000004768372));
#1572=CARTESIAN_POINT('Origin',(2.00000002980232,0.,-38.0000005662441));
#1573=CARTESIAN_POINT('',(9.00000002980232,-2.00000002980232,-38.0000005662441));
#1574=CARTESIAN_POINT('',(9.00000002980232,0.,-40.0000005960464));
#1575=CARTESIAN_POINT('Origin',(9.00000002980232,0.,-38.0000005662441));
#1576=CARTESIAN_POINT('',(11.0000000298023,-2.00000002980232,-38.0000005662441));
#1577=CARTESIAN_POINT('',(2.00000002980232,-2.00000002980232,-38.0000005662441));
#1578=CARTESIAN_POINT('',(11.0000000298023,0.,-40.0000005960464));
#1579=CARTESIAN_POINT('Origin',(11.0000000298023,0.,-38.0000005662441));
#1580=CARTESIAN_POINT('',(2.00000002980232,0.,-40.0000005960464));
#1581=CARTESIAN_POINT('Origin',(2.00000002980232,-2.00000002980232,-32.0000004768372));
#1582=CARTESIAN_POINT('',(9.00000002980232,-2.00000002980232,-33.5000004991889));
#1583=CARTESIAN_POINT('',(11.0000000298023,-2.00000002980232,-33.5000004991889));
#1584=CARTESIAN_POINT('Origin',(11.0000000298023,-3.50000005215406,-35.0000005215406));
#1585=CARTESIAN_POINT('',(11.0000000298023,0.,-23.0000003427267));
#1586=CARTESIAN_POINT('',(11.0000000298023,0.,-47.0000007003546));
#1587=CARTESIAN_POINT('',(11.0000000298023,-7.00000010430813,-23.0000003427267));
#1588=CARTESIAN_POINT('',(11.0000000298023,0.,-23.0000003427267));
#1589=CARTESIAN_POINT('',(11.0000000298023,-7.00000010430813,-47.0000007003546));
#1590=CARTESIAN_POINT('',(11.0000000298023,-7.00000010430813,-23.0000003427267));
#1591=CARTESIAN_POINT('',(11.0000000298023,0.,-47.0000007003546));
#1592=CARTESIAN_POINT('',(11.0000000298023,-7.00000010430813,-47.0000007003546));
#1593=CARTESIAN_POINT('',(11.0000000298023,0.,-47.0000007003546));
#1594=CARTESIAN_POINT('Origin',(4.00000002980232,0.,-66.0000000298023));
#1595=CARTESIAN_POINT('',(4.00000002980232,0.,-25.000000372529));
#1596=CARTESIAN_POINT('',(4.00000002980232,0.,-66.0000000298023));
#1597=CARTESIAN_POINT('',(4.00000002980232,-5.00000007450581,-25.000000372529));
#1598=CARTESIAN_POINT('',(4.00000002980232,-2.5000000372529,-25.000000372529));
#1599=CARTESIAN_POINT('',(4.00000002980232,-5.00000007450581,-45.0000006705523));
#1600=CARTESIAN_POINT('',(4.00000002980232,-5.00000007450581,-55.5000003501773));
#1601=CARTESIAN_POINT('',(4.00000002980232,0.,-45.0000006705523));
#1602=CARTESIAN_POINT('',(4.00000002980232,0.,-45.0000006705523));
#1603=CARTESIAN_POINT('',(4.00000002980232,0.,-66.0000000298023));
#1604=CARTESIAN_POINT('Origin',(9.00000002980232,-3.50000005215406,-35.0000005215406));
#1605=CARTESIAN_POINT('',(9.00000002980232,0.,-45.0000006705523));
#1606=CARTESIAN_POINT('',(9.00000002980232,0.,-47.0000007003546));
#1607=CARTESIAN_POINT('',(9.00000002980232,-5.00000007450581,-45.0000006705523));
#1608=CARTESIAN_POINT('',(9.00000002980232,0.,-45.0000006705523));
#1609=CARTESIAN_POINT('',(9.00000002980232,-5.00000007450581,-25.000000372529));
#1610=CARTESIAN_POINT('',(9.00000002980232,-5.00000007450581,-45.0000006705523));
#1611=CARTESIAN_POINT('',(9.00000002980232,0.,-25.000000372529));
#1612=CARTESIAN_POINT('',(9.00000002980232,-5.00000007450581,-25.000000372529));
#1613=CARTESIAN_POINT('',(9.00000002980232,0.,-47.0000007003546));
#1614=CARTESIAN_POINT('Origin',(4.00000002980232,-7.00000010430813,-23.0000003427267));
#1615=CARTESIAN_POINT('',(4.00000002980232,-7.00000010430813,-47.0000007003546));
#1616=CARTESIAN_POINT('',(4.00000002980232,-7.00000010430813,-23.0000003427267));
#1617=CARTESIAN_POINT('',(4.00000002980232,-7.00000010430813,-44.5000001862645));
#1618=CARTESIAN_POINT('',(4.00000002980232,-7.00000010430813,-47.0000007003546));
#1619=CARTESIAN_POINT('',(4.00000002980232,-7.00000010430813,-23.0000003427267));
#1620=CARTESIAN_POINT('Origin',(4.00000002980232,0.,-23.0000003427267));
#1621=CARTESIAN_POINT('',(4.00000002980232,0.,-23.0000003427267));
#1622=CARTESIAN_POINT('',(4.00000002980232,0.,-23.0000003427267));
#1623=CARTESIAN_POINT('',(4.00000002980232,0.,-23.0000003427267));
#1624=CARTESIAN_POINT('Origin',(4.00000002980232,-5.00000007450581,-25.000000372529));
#1625=CARTESIAN_POINT('',(4.00000002980232,0.,-25.000000372529));
#1626=CARTESIAN_POINT('',(4.00000002980232,-5.00000007450581,-25.000000372529));
#1627=CARTESIAN_POINT('Origin',(4.00000002980232,-5.00000007450581,-45.0000006705523));
#1628=CARTESIAN_POINT('',(4.00000002980232,-5.00000007450581,-45.0000006705523));
#1629=CARTESIAN_POINT('Origin',(4.00000002980232,0.,-45.0000006705523));
#1630=CARTESIAN_POINT('',(4.00000002980232,0.,-45.0000006705523));
#1631=CARTESIAN_POINT('Origin',(4.00000002980232,-7.00000010430813,-47.0000007003546));
#1632=CARTESIAN_POINT('',(4.00000002980232,0.,-47.0000007003546));
#1633=CARTESIAN_POINT('',(4.00000002980232,-3.50000005215406,-47.0000007003546));
#1634=CARTESIAN_POINT('',(4.00000002980232,0.,-47.0000007003546));
#1635=CARTESIAN_POINT('Origin',(4.00000002980232,0.,-66.0000000298023));
#1636=CARTESIAN_POINT('',(4.00000002980232,0.,-15.0000002235174));
#1637=CARTESIAN_POINT('',(4.00000002980232,0.,-66.0000000298023));
#1638=CARTESIAN_POINT('',(4.00000002980232,-10.,-15.0000002235174));
#1639=CARTESIAN_POINT('',(4.00000002980232,0.,-15.0000002235174));
#1640=CARTESIAN_POINT('',(4.00000002980232,-10.,-4.00000002980232));
#1641=CARTESIAN_POINT('',(4.00000002980232,-10.,-66.0000000298023));
#1642=CARTESIAN_POINT('',(4.00000002980232,-17.,-4.00000002980232));
#1643=CARTESIAN_POINT('',(4.00000002980232,0.,-4.00000002980232));
#1644=CARTESIAN_POINT('',(4.00000002980232,-17.,-66.0000000298023));
#1645=CARTESIAN_POINT('',(4.00000002980232,-17.,-66.0000000298023));
#1646=CARTESIAN_POINT('',(4.00000002980232,-10.,-66.0000000298023));
#1647=CARTESIAN_POINT('',(4.00000002980232,0.,-66.0000000298023));
#1648=CARTESIAN_POINT('',(4.00000002980232,-10.,-55.0000008195639));
#1649=CARTESIAN_POINT('',(4.00000002980232,-10.,-66.0000000298023));
#1650=CARTESIAN_POINT('',(4.00000002980232,0.,-55.0000008195639));
#1651=CARTESIAN_POINT('',(4.00000002980232,0.,-55.0000008195639));
#1652=CARTESIAN_POINT('',(4.00000002980232,0.,-66.0000000298023));
#1653=CARTESIAN_POINT('Origin',(66.000001013279,0.,-66.000001013279));
#1654=CARTESIAN_POINT('',(68.000001013279,-17.,-66.000001013279));
#1655=CARTESIAN_POINT('',(66.000001013279,-17.,-68.000001013279));
#1656=CARTESIAN_POINT('Origin',(66.000001013279,-17.,-66.000001013279));
#1657=CARTESIAN_POINT('',(66.000001013279,0.,-68.000001013279));
#1658=CARTESIAN_POINT('',(66.000001013279,0.,-68.000001013279));
#1659=CARTESIAN_POINT('',(68.000001013279,0.,-66.000001013279));
#1660=CARTESIAN_POINT('Origin',(66.000001013279,0.,-66.000001013279));
#1661=CARTESIAN_POINT('',(68.000001013279,0.,-66.000001013279));
#1662=CARTESIAN_POINT('Origin',(68.000001013279,0.,-68.000001013279));
#1663=CARTESIAN_POINT('',(68.000001013279,0.,-4.00000002980232));
#1664=CARTESIAN_POINT('',(68.000001013279,0.,-68.000001013279));
#1665=CARTESIAN_POINT('',(68.000001013279,-17.,-4.00000002980232));
#1666=CARTESIAN_POINT('',(68.000001013279,0.,-4.00000002980232));
#1667=CARTESIAN_POINT('',(68.000001013279,-17.,-19.6500004917383));
#1668=CARTESIAN_POINT('',(68.000001013279,-17.,-68.000001013279));
#1669=CARTESIAN_POINT('',(68.000001013279,-8.20000013411045,-19.6500004917383));
#1670=CARTESIAN_POINT('',(68.000001013279,-4.10000006705523,-19.6500004917383));
#1671=CARTESIAN_POINT('',(68.000001013279,-5.20000010430813,-22.6500005215406));
#1672=CARTESIAN_POINT('Origin',(68.000001013279,-8.20000013411045,-22.6500005215406));
#1673=CARTESIAN_POINT('',(68.000001013279,-5.20000010430813,-47.3500005215406));
#1674=CARTESIAN_POINT('',(68.000001013279,-5.20000010430813,-57.6750007674098));
#1675=CARTESIAN_POINT('',(68.000001013279,-8.20000013411045,-50.350000551343));
#1676=CARTESIAN_POINT('Origin',(68.000001013279,-8.20000013411045,-47.3500005215406));
#1677=CARTESIAN_POINT('',(68.000001013279,-17.,-50.350000551343));
#1678=CARTESIAN_POINT('',(68.000001013279,-8.5,-50.350000551343));
#1679=CARTESIAN_POINT('',(68.000001013279,-17.,-68.000001013279));
#1680=CARTESIAN_POINT('Origin',(9.50000012665987,0.,-9.50000012665987));
#1681=CARTESIAN_POINT('',(10.0000001490116,0.,-55.0000008195639));
#1682=CARTESIAN_POINT('',(10.0000001490116,0.,-55.0000008195639));
#1683=CARTESIAN_POINT('',(15.0000002235174,0.,-60.0000008940697));
#1684=CARTESIAN_POINT('Origin',(10.0000001490116,0.,-60.0000008940697));
#1685=CARTESIAN_POINT('',(15.0000002235174,0.,-66.0000000298023));
#1686=CARTESIAN_POINT('',(15.0000002235174,0.,-60.0000008940697));
#1687=CARTESIAN_POINT('',(55.0000008195639,0.,-66.0000000298023));
#1688=CARTESIAN_POINT('',(66.0000000298023,0.,-66.0000000298023));
#1689=CARTESIAN_POINT('',(55.0000008195639,0.,-60.0000008940697));
#1690=CARTESIAN_POINT('',(55.0000008195639,0.,-60.0000008940697));
#1691=CARTESIAN_POINT('',(60.0000008940697,0.,-55.0000008195639));
#1692=CARTESIAN_POINT('Origin',(60.0000008940697,0.,-60.0000008940697));
#1693=CARTESIAN_POINT('',(66.0000000298023,0.,-55.0000008195639));
#1694=CARTESIAN_POINT('',(60.0000008940697,0.,-55.0000008195639));
#1695=CARTESIAN_POINT('',(66.0000000298023,0.,-15.0000002235174));
#1696=CARTESIAN_POINT('',(66.0000000298023,0.,-4.00000002980232));
#1697=CARTESIAN_POINT('',(60.0000008940697,0.,-15.0000002235174));
#1698=CARTESIAN_POINT('',(60.0000008940697,0.,-15.0000002235174));
#1699=CARTESIAN_POINT('',(55.0000008195639,0.,-10.0000001490116));
#1700=CARTESIAN_POINT('Origin',(60.0000008940697,0.,-10.0000001490116));
#1701=CARTESIAN_POINT('',(55.0000008195639,0.,-4.00000002980232));
#1702=CARTESIAN_POINT('',(55.0000008195639,0.,-10.0000001490116));
#1703=CARTESIAN_POINT('',(15.0000002235174,0.,-4.00000002980232));
#1704=CARTESIAN_POINT('',(4.00000002980232,0.,-4.00000002980232));
#1705=CARTESIAN_POINT('',(15.0000002235174,0.,-10.0000001490116));
#1706=CARTESIAN_POINT('',(15.0000002235174,0.,-10.0000001490116));
#1707=CARTESIAN_POINT('',(10.0000001490116,0.,-15.0000002235174));
#1708=CARTESIAN_POINT('Origin',(10.0000001490116,0.,-10.0000001490116));
#1709=CARTESIAN_POINT('',(10.0000001490116,0.,-15.0000002235174));
#1710=CARTESIAN_POINT('',(2.00000002980232,0.,-4.00000002980232));
#1711=CARTESIAN_POINT('',(2.00000002980232,0.,-2.00000002980232));
#1712=CARTESIAN_POINT('',(4.00000002980232,0.,-2.00000002980232));
#1713=CARTESIAN_POINT('Origin',(4.00000002980232,0.,-4.00000002980232));
#1714=CARTESIAN_POINT('',(66.000001013279,0.,-2.00000002980232));
#1715=CARTESIAN_POINT('',(68.000001013279,0.,-2.00000002980232));
#1716=CARTESIAN_POINT('Origin',(66.000001013279,0.,-4.00000002980232));
#1717=CARTESIAN_POINT('',(4.00000002980232,0.,-68.000001013279));
#1718=CARTESIAN_POINT('',(2.00000002980232,0.,-68.000001013279));
#1719=CARTESIAN_POINT('',(2.00000002980232,0.,-66.000001013279));
#1720=CARTESIAN_POINT('Origin',(4.00000002980232,0.,-66.000001013279));
#1721=CARTESIAN_POINT('',(2.00000002980232,0.,-2.00000002980232));
#1722=CARTESIAN_POINT('',(58.2000008940697,0.,-60.0000008940697));
#1723=CARTESIAN_POINT('Origin',(60.0000008940697,0.,-60.0000008940697));
#1724=CARTESIAN_POINT('',(58.2000008940697,0.,-10.0000001490116));
#1725=CARTESIAN_POINT('Origin',(60.0000008940697,0.,-10.0000001490116));
#1726=CARTESIAN_POINT('',(8.20000014901161,0.,-60.0000008940697));
#1727=CARTESIAN_POINT('Origin',(10.0000001490116,0.,-60.0000008940697));
#1728=CARTESIAN_POINT('',(8.20000014901161,0.,-10.0000001490116));
#1729=CARTESIAN_POINT('Origin',(10.0000001490116,0.,-10.0000001490116));
#1730=CARTESIAN_POINT('Origin',(66.000001013279,0.,-4.00000002980232));
#1731=CARTESIAN_POINT('',(66.000001013279,-17.,-2.00000002980232));
#1732=CARTESIAN_POINT('Origin',(66.000001013279,-17.,-4.00000002980232));
#1733=CARTESIAN_POINT('',(66.000001013279,0.,-2.00000002980232));
#1734=CARTESIAN_POINT('Origin',(68.000001013279,0.,-2.00000002980232));
#1735=CARTESIAN_POINT('',(4.00000002980232,-17.,-2.00000002980232));
#1736=CARTESIAN_POINT('',(4.00000002980232,0.,-2.00000002980232));
#1737=CARTESIAN_POINT('',(68.000001013279,-17.,-2.00000002980232));
#1738=CARTESIAN_POINT('Origin',(4.00000002980232,0.,-66.000001013279));
#1739=CARTESIAN_POINT('',(4.00000002980232,-17.,-68.000001013279));
#1740=CARTESIAN_POINT('',(2.00000002980232,-17.,-66.000001013279));
#1741=CARTESIAN_POINT('Origin',(4.00000002980232,-17.,-66.000001013279));
#1742=CARTESIAN_POINT('',(2.00000002980232,0.,-66.000001013279));
#1743=CARTESIAN_POINT('',(4.00000002980232,0.,-68.000001013279));
#1744=CARTESIAN_POINT('Origin',(2.00000002980232,0.,-68.000001013279));
#1745=CARTESIAN_POINT('',(2.00000002980232,-17.,-68.000001013279));
#1746=CARTESIAN_POINT('Origin',(4.00000002980232,0.,-4.00000002980232));
#1747=CARTESIAN_POINT('',(2.00000002980232,-17.,-4.00000002980232));
#1748=CARTESIAN_POINT('Origin',(4.00000002980232,-17.,-4.00000002980232));
#1749=CARTESIAN_POINT('',(2.00000002980232,0.,-4.00000002980232));
#1750=CARTESIAN_POINT('Origin',(66.0000000298023,-5.20000010430813,-47.3500005215406));
#1751=CARTESIAN_POINT('',(66.0000000298023,-5.20000010430813,-47.3500005215406));
#1752=CARTESIAN_POINT('',(66.0000000298023,-5.20000010430813,-22.6500005215406));
#1753=CARTESIAN_POINT('',(66.0000000298023,-5.20000010430813,-25.6750002756715));
#1754=CARTESIAN_POINT('',(66.0000000298023,-5.20000010430813,-47.3500005215406));
#1755=CARTESIAN_POINT('',(66.0000000298023,-5.20000010430813,-22.6500005215406));
#1756=CARTESIAN_POINT('Origin',(66.0000000298023,-8.20000013411045,-47.3500005215406));
#1757=CARTESIAN_POINT('',(66.0000000298023,-8.20000013411045,-50.350000551343));
#1758=CARTESIAN_POINT('Origin',(66.0000000298023,-8.20000013411045,-47.3500005215406));
#1759=CARTESIAN_POINT('',(66.0000000298023,-8.20000013411045,-50.350000551343));
#1760=CARTESIAN_POINT('Origin',(66.0000000298023,-17.,-50.350000551343));
#1761=CARTESIAN_POINT('',(66.0000000298023,-17.,-50.350000551343));
#1762=CARTESIAN_POINT('',(66.0000000298023,-8.5,-50.350000551343));
#1763=CARTESIAN_POINT('',(50.5000002756715,-17.,-50.350000551343));
#1764=CARTESIAN_POINT('Origin',(66.0000000298023,-8.20000013411045,-19.6500004917383));
#1765=CARTESIAN_POINT('',(66.0000000298023,-8.20000013411045,-19.6500004917383));
#1766=CARTESIAN_POINT('',(66.0000000298023,-17.,-19.6500004917383));
#1767=CARTESIAN_POINT('',(66.0000000298023,-4.10000006705523,-19.6500004917383));
#1768=CARTESIAN_POINT('',(66.0000000298023,-8.20000013411045,-19.6500004917383));
#1769=CARTESIAN_POINT('',(50.5000002756715,-17.,-19.6500004917383));
#1770=CARTESIAN_POINT('Origin',(66.0000000298023,-8.20000013411045,-22.6500005215406));
#1771=CARTESIAN_POINT('Origin',(66.0000000298023,-8.20000013411045,-22.6500005215406));
#1772=CARTESIAN_POINT('Origin',(66.0000000298023,0.,-4.00000002980232));
#1773=CARTESIAN_POINT('',(66.0000000298023,-17.,-4.00000002980232));
#1774=CARTESIAN_POINT('',(66.0000000298023,-17.,-4.00000002980232));
#1775=CARTESIAN_POINT('',(66.0000000298023,-10.,-4.00000002980232));
#1776=CARTESIAN_POINT('',(66.0000000298023,0.,-4.00000002980232));
#1777=CARTESIAN_POINT('',(66.0000000298023,-10.,-15.0000002235174));
#1778=CARTESIAN_POINT('',(66.0000000298023,-10.,-4.00000002980232));
#1779=CARTESIAN_POINT('',(66.0000000298023,0.,-15.0000002235174));
#1780=CARTESIAN_POINT('',(66.0000000298023,-10.,-55.0000008195639));
#1781=CARTESIAN_POINT('',(66.0000000298023,0.,-55.0000008195639));
#1782=CARTESIAN_POINT('',(66.0000000298023,-10.,-66.0000000298023));
#1783=CARTESIAN_POINT('',(66.0000000298023,-10.,-4.00000002980232));
#1784=CARTESIAN_POINT('',(66.0000000298023,-17.,-66.0000000298023));
#1785=CARTESIAN_POINT('',(66.0000000298023,0.,-66.0000000298023));
#1786=CARTESIAN_POINT('',(66.0000000298023,-17.,-4.00000002980232));
#1787=CARTESIAN_POINT('Origin',(66.0000000298023,0.,-66.0000000298023));
#1788=CARTESIAN_POINT('',(55.0000008195639,-10.,-66.0000000298023));
#1789=CARTESIAN_POINT('',(55.0000008195639,0.,-66.0000000298023));
#1790=CARTESIAN_POINT('',(15.0000002235174,-10.,-66.0000000298023));
#1791=CARTESIAN_POINT('',(15.0000002235174,0.,-66.0000000298023));
#1792=CARTESIAN_POINT('',(66.0000000298023,-10.,-66.0000000298023));
#1793=CARTESIAN_POINT('',(66.0000000298023,-17.,-66.0000000298023));
#1794=CARTESIAN_POINT('',(66.0000000298023,-10.,-66.0000000298023));
#1795=CARTESIAN_POINT('Origin',(4.00000002980232,0.,-4.00000002980232));
#1796=CARTESIAN_POINT('',(15.0000002235174,-10.,-4.00000002980232));
#1797=CARTESIAN_POINT('',(15.0000002235174,0.,-4.00000002980232));
#1798=CARTESIAN_POINT('',(55.0000008195639,-10.,-4.00000002980232));
#1799=CARTESIAN_POINT('',(55.0000008195639,0.,-4.00000002980232));
#1800=CARTESIAN_POINT('',(4.00000002980232,-10.,-4.00000002980232));
#1801=CARTESIAN_POINT('',(4.00000002980232,-17.,-4.00000002980232));
#1802=CARTESIAN_POINT('',(4.00000002980232,-10.,-4.00000002980232));
#1803=CARTESIAN_POINT('Origin',(2.00000002980232,0.,-2.00000002980232));
#1804=CARTESIAN_POINT('',(2.00000002980232,-17.,-2.00000002980232));
#1805=CARTESIAN_POINT('Origin',(35.0000005215406,-17.,-35.0000005215406));
#1806=CARTESIAN_POINT('Origin',(60.0000008940697,0.,-10.0000001490116));
#1807=CARTESIAN_POINT('',(58.2000008940697,-10.,-10.0000001490116));
#1808=CARTESIAN_POINT('Origin',(60.0000008940697,-10.,-10.0000001490116));
#1809=CARTESIAN_POINT('',(58.2000008940697,0.,-10.0000001490116));
#1810=CARTESIAN_POINT('Origin',(60.0000008940697,0.,-15.0000002235174));
#1811=CARTESIAN_POINT('',(60.0000008940697,-10.,-15.0000002235174));
#1812=CARTESIAN_POINT('',(60.0000008940697,-10.,-15.0000002235174));
#1813=CARTESIAN_POINT('',(60.0000008940697,0.,-15.0000002235174));
#1814=CARTESIAN_POINT('Origin',(60.0000008940697,0.,-10.0000001490116));
#1815=CARTESIAN_POINT('',(55.0000008195639,-10.,-10.0000001490116));
#1816=CARTESIAN_POINT('Origin',(60.0000008940697,-10.,-10.0000001490116));
#1817=CARTESIAN_POINT('',(55.0000008195639,0.,-10.0000001490116));
#1818=CARTESIAN_POINT('Origin',(55.0000008195639,0.,-4.00000002980232));
#1819=CARTESIAN_POINT('',(55.0000008195639,-10.,-10.0000001490116));
#1820=CARTESIAN_POINT('Origin',(60.5000004246831,-10.,-9.50000012665987));
#1821=CARTESIAN_POINT('Origin',(10.0000001490116,0.,-60.0000008940697));
#1822=CARTESIAN_POINT('',(8.20000014901161,-10.,-60.0000008940697));
#1823=CARTESIAN_POINT('Origin',(10.0000001490116,-10.,-60.0000008940697));
#1824=CARTESIAN_POINT('',(8.20000014901161,0.,-60.0000008940697));
#1825=CARTESIAN_POINT('Origin',(10.0000001490116,0.,-55.0000008195639));
#1826=CARTESIAN_POINT('',(10.0000001490116,-10.,-55.0000008195639));
#1827=CARTESIAN_POINT('',(10.0000001490116,-10.,-55.0000008195639));
#1828=CARTESIAN_POINT('',(10.0000001490116,0.,-55.0000008195639));
#1829=CARTESIAN_POINT('Origin',(10.0000001490116,0.,-60.0000008940697));
#1830=CARTESIAN_POINT('',(15.0000002235174,-10.,-60.0000008940697));
#1831=CARTESIAN_POINT('Origin',(10.0000001490116,-10.,-60.0000008940697));
#1832=CARTESIAN_POINT('',(15.0000002235174,0.,-60.0000008940697));
#1833=CARTESIAN_POINT('Origin',(15.0000002235174,0.,-66.0000000298023));
#1834=CARTESIAN_POINT('',(15.0000002235174,-10.,-60.0000008940697));
#1835=CARTESIAN_POINT('Origin',(9.50000012665987,-10.,-60.5000004246831));
#1836=CARTESIAN_POINT('Origin',(60.0000008940697,0.,-60.0000008940697));
#1837=CARTESIAN_POINT('',(58.2000008940697,-10.,-60.0000008940697));
#1838=CARTESIAN_POINT('Origin',(60.0000008940697,-10.,-60.0000008940697));
#1839=CARTESIAN_POINT('',(58.2000008940697,0.,-60.0000008940697));
#1840=CARTESIAN_POINT('Origin',(55.0000008195639,0.,-60.0000008940697));
#1841=CARTESIAN_POINT('',(55.0000008195639,-10.,-60.0000008940697));
#1842=CARTESIAN_POINT('',(55.0000008195639,-10.,-60.0000008940697));
#1843=CARTESIAN_POINT('',(55.0000008195639,0.,-60.0000008940697));
#1844=CARTESIAN_POINT('Origin',(60.0000008940697,0.,-60.0000008940697));
#1845=CARTESIAN_POINT('',(60.0000008940697,-10.,-55.0000008195639));
#1846=CARTESIAN_POINT('Origin',(60.0000008940697,-10.,-60.0000008940697));
#1847=CARTESIAN_POINT('',(60.0000008940697,0.,-55.0000008195639));
#1848=CARTESIAN_POINT('Origin',(66.0000000298023,0.,-55.0000008195639));
#1849=CARTESIAN_POINT('',(60.0000008940697,-10.,-55.0000008195639));
#1850=CARTESIAN_POINT('Origin',(60.5000004246831,-10.,-60.5000004246831));
#1851=CARTESIAN_POINT('Origin',(10.0000001490116,0.,-10.0000001490116));
#1852=CARTESIAN_POINT('',(8.20000014901161,-10.,-10.0000001490116));
#1853=CARTESIAN_POINT('Origin',(10.0000001490116,-10.,-10.0000001490116));
#1854=CARTESIAN_POINT('',(8.20000014901161,0.,-10.0000001490116));
#1855=CARTESIAN_POINT('Origin',(15.0000002235174,0.,-10.0000001490116));
#1856=CARTESIAN_POINT('',(15.0000002235174,-10.,-10.0000001490116));
#1857=CARTESIAN_POINT('',(15.0000002235174,-10.,-10.0000001490116));
#1858=CARTESIAN_POINT('',(15.0000002235174,0.,-10.0000001490116));
#1859=CARTESIAN_POINT('Origin',(10.0000001490116,0.,-10.0000001490116));
#1860=CARTESIAN_POINT('',(10.0000001490116,-10.,-15.0000002235174));
#1861=CARTESIAN_POINT('Origin',(10.0000001490116,-10.,-10.0000001490116));
#1862=CARTESIAN_POINT('',(10.0000001490116,0.,-15.0000002235174));
#1863=CARTESIAN_POINT('Origin',(4.00000002980232,0.,-15.0000002235174));
#1864=CARTESIAN_POINT('',(10.0000001490116,-10.,-15.0000002235174));
#1865=CARTESIAN_POINT('Origin',(9.50000012665987,-10.,-9.50000012665987));
#1866=UNCERTAINTY_MEASURE_WITH_UNIT(LENGTH_MEASURE(0.01),#1870,
'DISTANCE_ACCURACY_VALUE',
'Maximum model space distance between geometric entities at asserted c
onnectivities');
#1867=UNCERTAINTY_MEASURE_WITH_UNIT(LENGTH_MEASURE(0.01),#1870,
'DISTANCE_ACCURACY_VALUE',
'Maximum model space distance between geometric entities at asserted c
onnectivities');
#1868=(
GEOMETRIC_REPRESENTATION_CONTEXT(3)
GLOBAL_UNCERTAINTY_ASSIGNED_CONTEXT((#1866))
GLOBAL_UNIT_ASSIGNED_CONTEXT((#1870,#1872,#1873))
REPRESENTATION_CONTEXT('','3D')
);
#1869=(
GEOMETRIC_REPRESENTATION_CONTEXT(3)
GLOBAL_UNCERTAINTY_ASSIGNED_CONTEXT((#1867))
GLOBAL_UNIT_ASSIGNED_CONTEXT((#1870,#1872,#1873))
REPRESENTATION_CONTEXT('','3D')
);
#1870=(
LENGTH_UNIT()
NAMED_UNIT(*)
SI_UNIT(.MILLI.,.METRE.)
);
#1871=(
LENGTH_UNIT()
NAMED_UNIT(*)
SI_UNIT($,.METRE.)
);
#1872=(
NAMED_UNIT(*)
PLANE_ANGLE_UNIT()
SI_UNIT($,.RADIAN.)
);
#1873=(
NAMED_UNIT(*)
SI_UNIT($,.STERADIAN.)
SOLID_ANGLE_UNIT()
);
#1874=SHAPE_DEFINITION_REPRESENTATION(#1875,#1876);
#1875=PRODUCT_DEFINITION_SHAPE('',$,#1878);
#1876=SHAPE_REPRESENTATION('',(#1142),#1868);
#1877=PRODUCT_DEFINITION_CONTEXT('part definition',#1882,'design');
#1878=PRODUCT_DEFINITION('2025-11-13-16-57-45-530',
'Controller module middle',#1879,#1877);
#1879=PRODUCT_DEFINITION_FORMATION('',$,#1884);
#1880=PRODUCT_RELATED_PRODUCT_CATEGORY('Controller module middle',
'Controller module middle',(#1884));
#1881=APPLICATION_PROTOCOL_DEFINITION('international standard',
'automotive_design',2009,#1882);
#1882=APPLICATION_CONTEXT(
'Core Data for Automotive Mechanical Design Process');
#1883=PRODUCT_CONTEXT('part definition',#1882,'mechanical');
#1884=PRODUCT('2025-11-13-16-57-45-530','Controller module middle',$,(#1883));
#1885=PRESENTATION_STYLE_ASSIGNMENT((#1886));
#1886=SURFACE_STYLE_USAGE(.BOTH.,#1887);
#1887=SURFACE_SIDE_STYLE('',(#1888));
#1888=SURFACE_STYLE_FILL_AREA(#1889);
#1889=FILL_AREA_STYLE('Steel - Satin',(#1890));
#1890=FILL_AREA_STYLE_COLOUR('Steel - Satin',#1891);
#1891=COLOUR_RGB('Steel - Satin',0.627450980392157,0.627450980392157,0.627450980392157);
ENDSEC;
END-ISO-10303-21;
