ISO-10303-21;
HEADER;
/* Generated by software containing ST-Developer
 * from STEP Tools, Inc. (www.steptools.com) 
 */

FILE_DESCRIPTION(
/* description */ (''),
/* implementation_level */ '2;1');

FILE_NAME(
/* name */ 'USB cable bracket.step',
/* time_stamp */ '2026-04-27T15:44:47+01:00',
/* author */ (''),
/* organization */ (''),
/* preprocessor_version */ 'ST-DEVELOPER v20.1',
/* originating_system */ 'Autodesk Translation Framework v14.24.0.0',
/* authorisation */ '');

FILE_SCHEMA (('AUTOMOTIVE_DESIGN { 1 0 10303 214 3 1 1 }'));
ENDSEC;

DATA;
#10=MECHANICAL_DESIGN_GEOMETRIC_PRESENTATION_REPRESENTATION('',(#13),#323);
#11=SHAPE_REPRESENTATION_RELATIONSHIP('SRR','None',#330,#12);
#12=ADVANCED_BREP_SHAPE_REPRESENTATION('',(#14),#322);
#13=STYLED_ITEM('',(#339),#14);
#14=MANIFOLD_SOLID_BREP('Body1',#191);
#15=FACE_BOUND('',#44,.T.);
#16=FACE_BOUND('',#46,.T.);
#17=PLANE('',#208);
#18=PLANE('',#212);
#19=PLANE('',#213);
#20=PLANE('',#214);
#21=PLANE('',#215);
#22=PLANE('',#216);
#23=PLANE('',#217);
#24=PLANE('',#218);
#25=FACE_OUTER_BOUND('',#35,.T.);
#26=FACE_OUTER_BOUND('',#36,.T.);
#27=FACE_OUTER_BOUND('',#37,.T.);
#28=FACE_OUTER_BOUND('',#38,.T.);
#29=FACE_OUTER_BOUND('',#39,.T.);
#30=FACE_OUTER_BOUND('',#40,.T.);
#31=FACE_OUTER_BOUND('',#41,.T.);
#32=FACE_OUTER_BOUND('',#42,.T.);
#33=FACE_OUTER_BOUND('',#43,.T.);
#34=FACE_OUTER_BOUND('',#45,.T.);
#35=EDGE_LOOP('',(#131,#132,#133,#134));
#36=EDGE_LOOP('',(#135,#136,#137,#138));
#37=EDGE_LOOP('',(#139,#140,#141,#142));
#38=EDGE_LOOP('',(#143,#144,#145,#146));
#39=EDGE_LOOP('',(#147,#148,#149,#150));
#40=EDGE_LOOP('',(#151,#152,#153,#154));
#41=EDGE_LOOP('',(#155,#156,#157,#158));
#42=EDGE_LOOP('',(#159,#160,#161,#162));
#43=EDGE_LOOP('',(#163,#164,#165,#166));
#44=EDGE_LOOP('',(#167,#168,#169,#170));
#45=EDGE_LOOP('',(#171,#172,#173,#174));
#46=EDGE_LOOP('',(#175,#176,#177,#178));
#47=LINE('',#275,#67);
#48=LINE('',#278,#68);
#49=LINE('',#281,#69);
#50=LINE('',#283,#70);
#51=LINE('',#284,#71);
#52=LINE('',#289,#72);
#53=LINE('',#292,#73);
#54=LINE('',#293,#74);
#55=LINE('',#297,#75);
#56=LINE('',#299,#76);
#57=LINE('',#301,#77);
#58=LINE('',#302,#78);
#59=LINE('',#305,#79);
#60=LINE('',#307,#80);
#61=LINE('',#308,#81);
#62=LINE('',#311,#82);
#63=LINE('',#313,#83);
#64=LINE('',#314,#84);
#65=LINE('',#316,#85);
#66=LINE('',#317,#86);
#67=VECTOR('',#225,10.);
#68=VECTOR('',#228,10.);
#69=VECTOR('',#231,10.);
#70=VECTOR('',#232,10.);
#71=VECTOR('',#233,10.);
#72=VECTOR('',#238,10.);
#73=VECTOR('',#243,10.);
#74=VECTOR('',#244,10.);
#75=VECTOR('',#247,10.);
#76=VECTOR('',#248,10.);
#77=VECTOR('',#249,10.);
#78=VECTOR('',#250,10.);
#79=VECTOR('',#253,10.);
#80=VECTOR('',#254,10.);
#81=VECTOR('',#255,10.);
#82=VECTOR('',#258,10.);
#83=VECTOR('',#259,10.);
#84=VECTOR('',#260,10.);
#85=VECTOR('',#263,10.);
#86=VECTOR('',#264,10.);
#87=CIRCLE('',#206,1.9);
#88=CIRCLE('',#207,1.9);
#89=CIRCLE('',#210,1.9);
#90=CIRCLE('',#211,1.9);
#91=VERTEX_POINT('',#271);
#92=VERTEX_POINT('',#272);
#93=VERTEX_POINT('',#274);
#94=VERTEX_POINT('',#276);
#95=VERTEX_POINT('',#280);
#96=VERTEX_POINT('',#282);
#97=VERTEX_POINT('',#286);
#98=VERTEX_POINT('',#288);
#99=VERTEX_POINT('',#295);
#100=VERTEX_POINT('',#296);
#101=VERTEX_POINT('',#298);
#102=VERTEX_POINT('',#300);
#103=VERTEX_POINT('',#304);
#104=VERTEX_POINT('',#306);
#105=VERTEX_POINT('',#310);
#106=VERTEX_POINT('',#312);
#107=EDGE_CURVE('',#91,#92,#87,.T.);
#108=EDGE_CURVE('',#92,#93,#47,.T.);
#109=EDGE_CURVE('',#93,#94,#88,.T.);
#110=EDGE_CURVE('',#94,#91,#48,.T.);
#111=EDGE_CURVE('',#95,#92,#49,.T.);
#112=EDGE_CURVE('',#96,#95,#50,.T.);
#113=EDGE_CURVE('',#93,#96,#51,.T.);
#114=EDGE_CURVE('',#95,#97,#89,.T.);
#115=EDGE_CURVE('',#97,#98,#52,.T.);
#116=EDGE_CURVE('',#98,#96,#90,.T.);
#117=EDGE_CURVE('',#98,#94,#53,.T.);
#118=EDGE_CURVE('',#91,#97,#54,.T.);
#119=EDGE_CURVE('',#99,#100,#55,.T.);
#120=EDGE_CURVE('',#99,#101,#56,.T.);
#121=EDGE_CURVE('',#102,#101,#57,.T.);
#122=EDGE_CURVE('',#100,#102,#58,.T.);
#123=EDGE_CURVE('',#100,#103,#59,.T.);
#124=EDGE_CURVE('',#104,#102,#60,.T.);
#125=EDGE_CURVE('',#103,#104,#61,.T.);
#126=EDGE_CURVE('',#103,#105,#62,.T.);
#127=EDGE_CURVE('',#106,#104,#63,.T.);
#128=EDGE_CURVE('',#105,#106,#64,.T.);
#129=EDGE_CURVE('',#105,#99,#65,.T.);
#130=EDGE_CURVE('',#101,#106,#66,.T.);
#131=ORIENTED_EDGE('',*,*,#107,.T.);
#132=ORIENTED_EDGE('',*,*,#108,.T.);
#133=ORIENTED_EDGE('',*,*,#109,.T.);
#134=ORIENTED_EDGE('',*,*,#110,.T.);
#135=ORIENTED_EDGE('',*,*,#108,.F.);
#136=ORIENTED_EDGE('',*,*,#111,.F.);
#137=ORIENTED_EDGE('',*,*,#112,.F.);
#138=ORIENTED_EDGE('',*,*,#113,.F.);
#139=ORIENTED_EDGE('',*,*,#114,.T.);
#140=ORIENTED_EDGE('',*,*,#115,.T.);
#141=ORIENTED_EDGE('',*,*,#116,.T.);
#142=ORIENTED_EDGE('',*,*,#112,.T.);
#143=ORIENTED_EDGE('',*,*,#110,.F.);
#144=ORIENTED_EDGE('',*,*,#117,.F.);
#145=ORIENTED_EDGE('',*,*,#115,.F.);
#146=ORIENTED_EDGE('',*,*,#118,.F.);
#147=ORIENTED_EDGE('',*,*,#119,.F.);
#148=ORIENTED_EDGE('',*,*,#120,.T.);
#149=ORIENTED_EDGE('',*,*,#121,.F.);
#150=ORIENTED_EDGE('',*,*,#122,.F.);
#151=ORIENTED_EDGE('',*,*,#123,.F.);
#152=ORIENTED_EDGE('',*,*,#122,.T.);
#153=ORIENTED_EDGE('',*,*,#124,.F.);
#154=ORIENTED_EDGE('',*,*,#125,.F.);
#155=ORIENTED_EDGE('',*,*,#126,.F.);
#156=ORIENTED_EDGE('',*,*,#125,.T.);
#157=ORIENTED_EDGE('',*,*,#127,.F.);
#158=ORIENTED_EDGE('',*,*,#128,.F.);
#159=ORIENTED_EDGE('',*,*,#129,.F.);
#160=ORIENTED_EDGE('',*,*,#128,.T.);
#161=ORIENTED_EDGE('',*,*,#130,.F.);
#162=ORIENTED_EDGE('',*,*,#120,.F.);
#163=ORIENTED_EDGE('',*,*,#129,.T.);
#164=ORIENTED_EDGE('',*,*,#119,.T.);
#165=ORIENTED_EDGE('',*,*,#123,.T.);
#166=ORIENTED_EDGE('',*,*,#126,.T.);
#167=ORIENTED_EDGE('',*,*,#114,.F.);
#168=ORIENTED_EDGE('',*,*,#111,.T.);
#169=ORIENTED_EDGE('',*,*,#107,.F.);
#170=ORIENTED_EDGE('',*,*,#118,.T.);
#171=ORIENTED_EDGE('',*,*,#130,.T.);
#172=ORIENTED_EDGE('',*,*,#127,.T.);
#173=ORIENTED_EDGE('',*,*,#124,.T.);
#174=ORIENTED_EDGE('',*,*,#121,.T.);
#175=ORIENTED_EDGE('',*,*,#116,.F.);
#176=ORIENTED_EDGE('',*,*,#117,.T.);
#177=ORIENTED_EDGE('',*,*,#109,.F.);
#178=ORIENTED_EDGE('',*,*,#113,.T.);
#179=CYLINDRICAL_SURFACE('',#205,1.9);
#180=CYLINDRICAL_SURFACE('',#209,1.9);
#181=ADVANCED_FACE('',(#25),#179,.F.);
#182=ADVANCED_FACE('',(#26),#17,.T.);
#183=ADVANCED_FACE('',(#27),#180,.F.);
#184=ADVANCED_FACE('',(#28),#18,.T.);
#185=ADVANCED_FACE('',(#29),#19,.T.);
#186=ADVANCED_FACE('',(#30),#20,.T.);
#187=ADVANCED_FACE('',(#31),#21,.T.);
#188=ADVANCED_FACE('',(#32),#22,.T.);
#189=ADVANCED_FACE('',(#33,#15),#23,.T.);
#190=ADVANCED_FACE('',(#34,#16),#24,.T.);
#191=CLOSED_SHELL('',(#181,#182,#183,#184,#185,#186,#187,#188,#189,#190));
#192=DERIVED_UNIT_ELEMENT(#194,1.);
#193=DERIVED_UNIT_ELEMENT(#325,-3.);
#194=(
MASS_UNIT()
NAMED_UNIT(*)
SI_UNIT(.KILO.,.GRAM.)
);
#195=DERIVED_UNIT((#192,#193));
#196=MEASURE_REPRESENTATION_ITEM('density measure',
POSITIVE_RATIO_MEASURE(7850.),#195);
#197=PROPERTY_DEFINITION_REPRESENTATION(#202,#199);
#198=PROPERTY_DEFINITION_REPRESENTATION(#203,#200);
#199=REPRESENTATION('material name',(#201),#322);
#200=REPRESENTATION('density',(#196),#322);
#201=DESCRIPTIVE_REPRESENTATION_ITEM('Steel','Steel');
#202=PROPERTY_DEFINITION('material property','material name',#332);
#203=PROPERTY_DEFINITION('material property','density of part',#332);
#204=AXIS2_PLACEMENT_3D('',#269,#219,#220);
#205=AXIS2_PLACEMENT_3D('',#270,#221,#222);
#206=AXIS2_PLACEMENT_3D('',#273,#223,#224);
#207=AXIS2_PLACEMENT_3D('',#277,#226,#227);
#208=AXIS2_PLACEMENT_3D('',#279,#229,#230);
#209=AXIS2_PLACEMENT_3D('',#285,#234,#235);
#210=AXIS2_PLACEMENT_3D('',#287,#236,#237);
#211=AXIS2_PLACEMENT_3D('',#290,#239,#240);
#212=AXIS2_PLACEMENT_3D('',#291,#241,#242);
#213=AXIS2_PLACEMENT_3D('',#294,#245,#246);
#214=AXIS2_PLACEMENT_3D('',#303,#251,#252);
#215=AXIS2_PLACEMENT_3D('',#309,#256,#257);
#216=AXIS2_PLACEMENT_3D('',#315,#261,#262);
#217=AXIS2_PLACEMENT_3D('',#318,#265,#266);
#218=AXIS2_PLACEMENT_3D('',#319,#267,#268);
#219=DIRECTION('axis',(0.,0.,1.));
#220=DIRECTION('refdir',(1.,0.,0.));
#221=DIRECTION('center_axis',(-1.,0.,0.));
#222=DIRECTION('ref_axis',(0.,-0.707106781186547,0.707106781186548));
#223=DIRECTION('center_axis',(1.,0.,0.));
#224=DIRECTION('ref_axis',(0.,0.707106781186548,0.707106781186547));
#225=DIRECTION('',(-1.,0.,0.));
#226=DIRECTION('center_axis',(-1.,0.,0.));
#227=DIRECTION('ref_axis',(0.,-0.707106781186547,0.707106781186548));
#228=DIRECTION('',(1.,0.,0.));
#229=DIRECTION('center_axis',(0.,1.,2.83220159343152E-17));
#230=DIRECTION('ref_axis',(0.,2.83220159343152E-17,-1.));
#231=DIRECTION('',(0.,-2.83220159343152E-17,1.));
#232=DIRECTION('',(1.,0.,0.));
#233=DIRECTION('',(0.,2.83220159343152E-17,-1.));
#234=DIRECTION('center_axis',(-1.,0.,0.));
#235=DIRECTION('ref_axis',(0.,0.707106781186547,-0.707106781186548));
#236=DIRECTION('center_axis',(1.,0.,0.));
#237=DIRECTION('ref_axis',(0.,-0.707106781186548,-0.707106781186547));
#238=DIRECTION('',(-1.,0.,0.));
#239=DIRECTION('center_axis',(-1.,0.,0.));
#240=DIRECTION('ref_axis',(0.,0.707106781186547,-0.707106781186548));
#241=DIRECTION('center_axis',(0.,-1.,-2.83220159343152E-17));
#242=DIRECTION('ref_axis',(0.,-2.83220159343152E-17,1.));
#243=DIRECTION('',(0.,-2.83220159343152E-17,1.));
#244=DIRECTION('',(0.,2.83220159343152E-17,-1.));
#245=DIRECTION('center_axis',(0.,1.,0.));
#246=DIRECTION('ref_axis',(0.,0.,-1.));
#247=DIRECTION('',(0.,0.,1.));
#248=DIRECTION('',(-1.,0.,0.));
#249=DIRECTION('',(0.,0.,-1.));
#250=DIRECTION('',(-1.,0.,0.));
#251=DIRECTION('center_axis',(0.,0.,1.));
#252=DIRECTION('ref_axis',(0.,1.,0.));
#253=DIRECTION('',(0.,-1.,0.));
#254=DIRECTION('',(0.,1.,0.));
#255=DIRECTION('',(-1.,0.,0.));
#256=DIRECTION('center_axis',(0.,-1.,0.));
#257=DIRECTION('ref_axis',(0.,0.,1.));
#258=DIRECTION('',(0.,0.,-1.));
#259=DIRECTION('',(0.,0.,1.));
#260=DIRECTION('',(-1.,0.,0.));
#261=DIRECTION('center_axis',(0.,0.,-1.));
#262=DIRECTION('ref_axis',(0.,-1.,0.));
#263=DIRECTION('',(0.,1.,0.));
#264=DIRECTION('',(0.,-1.,0.));
#265=DIRECTION('center_axis',(1.,0.,0.));
#266=DIRECTION('ref_axis',(0.,0.,-1.));
#267=DIRECTION('center_axis',(-1.,0.,0.));
#268=DIRECTION('ref_axis',(0.,0.,1.));
#269=CARTESIAN_POINT('',(0.,0.,0.));
#270=CARTESIAN_POINT('Origin',(0.,-1.66533453693773E-15,2.99999999999999));
#271=CARTESIAN_POINT('',(0.,1.9,2.99999999999999));
#272=CARTESIAN_POINT('',(0.,-1.9,2.99999999999999));
#273=CARTESIAN_POINT('Origin',(0.,-1.63842862180014E-15,2.99999999999999));
#274=CARTESIAN_POINT('',(-4.7,-1.9,2.99999999999999));
#275=CARTESIAN_POINT('',(0.,-1.9,2.99999999999999));
#276=CARTESIAN_POINT('',(-4.7,1.9,2.99999999999999));
#277=CARTESIAN_POINT('Origin',(-4.7,-1.66533453693773E-15,2.99999999999999));
#278=CARTESIAN_POINT('',(0.,1.9,2.99999999999999));
#279=CARTESIAN_POINT('Origin',(0.,-1.9,4.89999999999999));
#280=CARTESIAN_POINT('',(0.,-1.9,-3.00000000000001));
#281=CARTESIAN_POINT('',(0.,-1.9,4.89999999999999));
#282=CARTESIAN_POINT('',(-4.7,-1.9,-3.00000000000001));
#283=CARTESIAN_POINT('',(0.,-1.9,-3.00000000000001));
#284=CARTESIAN_POINT('',(-4.7,-1.9,4.89999999999999));
#285=CARTESIAN_POINT('Origin',(0.,-1.38777878078145E-15,-3.00000000000001));
#286=CARTESIAN_POINT('',(0.,1.9,-3.00000000000001));
#287=CARTESIAN_POINT('Origin',(0.,-1.41468469591905E-15,-3.00000000000001));
#288=CARTESIAN_POINT('',(-4.7,1.9,-3.00000000000001));
#289=CARTESIAN_POINT('',(0.,1.9,-3.00000000000001));
#290=CARTESIAN_POINT('Origin',(-4.7,-1.38777878078145E-15,-3.00000000000001));
#291=CARTESIAN_POINT('Origin',(0.,1.9,-4.90000000000001));
#292=CARTESIAN_POINT('',(-4.7,1.9,-4.90000000000001));
#293=CARTESIAN_POINT('',(0.,1.9,-4.90000000000001));
#294=CARTESIAN_POINT('Origin',(0.,4.5,9.5));
#295=CARTESIAN_POINT('',(0.,4.5,-9.5));
#296=CARTESIAN_POINT('',(0.,4.5,9.5));
#297=CARTESIAN_POINT('',(0.,4.5,-9.5));
#298=CARTESIAN_POINT('',(-4.7,4.5,-9.5));
#299=CARTESIAN_POINT('',(0.,4.5,-9.5));
#300=CARTESIAN_POINT('',(-4.7,4.5,9.5));
#301=CARTESIAN_POINT('',(-4.7,4.5,-9.5));
#302=CARTESIAN_POINT('',(0.,4.5,9.5));
#303=CARTESIAN_POINT('Origin',(0.,-4.5,9.5));
#304=CARTESIAN_POINT('',(0.,-4.5,9.5));
#305=CARTESIAN_POINT('',(0.,4.5,9.5));
#306=CARTESIAN_POINT('',(-4.7,-4.5,9.5));
#307=CARTESIAN_POINT('',(-4.7,4.5,9.5));
#308=CARTESIAN_POINT('',(0.,-4.5,9.5));
#309=CARTESIAN_POINT('Origin',(0.,-4.5,-9.5));
#310=CARTESIAN_POINT('',(0.,-4.5,-9.5));
#311=CARTESIAN_POINT('',(0.,-4.5,9.5));
#312=CARTESIAN_POINT('',(-4.7,-4.5,-9.5));
#313=CARTESIAN_POINT('',(-4.7,-4.5,9.5));
#314=CARTESIAN_POINT('',(0.,-4.5,-9.5));
#315=CARTESIAN_POINT('Origin',(0.,4.5,-9.5));
#316=CARTESIAN_POINT('',(0.,-4.5,-9.5));
#317=CARTESIAN_POINT('',(-4.7,-4.5,-9.5));
#318=CARTESIAN_POINT('Origin',(0.,0.,0.));
#319=CARTESIAN_POINT('Origin',(-4.7,0.,0.));
#320=UNCERTAINTY_MEASURE_WITH_UNIT(LENGTH_MEASURE(0.01),#324,
'DISTANCE_ACCURACY_VALUE',
'Maximum model space distance between geometric entities at asserted c
onnectivities');
#321=UNCERTAINTY_MEASURE_WITH_UNIT(LENGTH_MEASURE(0.01),#324,
'DISTANCE_ACCURACY_VALUE',
'Maximum model space distance between geometric entities at asserted c
onnectivities');
#322=(
GEOMETRIC_REPRESENTATION_CONTEXT(3)
GLOBAL_UNCERTAINTY_ASSIGNED_CONTEXT((#320))
GLOBAL_UNIT_ASSIGNED_CONTEXT((#324,#326,#327))
REPRESENTATION_CONTEXT('','3D')
);
#323=(
GEOMETRIC_REPRESENTATION_CONTEXT(3)
GLOBAL_UNCERTAINTY_ASSIGNED_CONTEXT((#321))
GLOBAL_UNIT_ASSIGNED_CONTEXT((#324,#326,#327))
REPRESENTATION_CONTEXT('','3D')
);
#324=(
LENGTH_UNIT()
NAMED_UNIT(*)
SI_UNIT(.MILLI.,.METRE.)
);
#325=(
LENGTH_UNIT()
NAMED_UNIT(*)
SI_UNIT($,.METRE.)
);
#326=(
NAMED_UNIT(*)
PLANE_ANGLE_UNIT()
SI_UNIT($,.RADIAN.)
);
#327=(
NAMED_UNIT(*)
SI_UNIT($,.STERADIAN.)
SOLID_ANGLE_UNIT()
);
#328=SHAPE_DEFINITION_REPRESENTATION(#329,#330);
#329=PRODUCT_DEFINITION_SHAPE('',$,#332);
#330=SHAPE_REPRESENTATION('',(#204),#322);
#331=PRODUCT_DEFINITION_CONTEXT('part definition',#336,'design');
#332=PRODUCT_DEFINITION('2026-02-10-13-29-50-630','USB cable bracket',#333,
#331);
#333=PRODUCT_DEFINITION_FORMATION('',$,#338);
#334=PRODUCT_RELATED_PRODUCT_CATEGORY('USB cable bracket',
'USB cable bracket',(#338));
#335=APPLICATION_PROTOCOL_DEFINITION('international standard',
'automotive_design',2009,#336);
#336=APPLICATION_CONTEXT(
'Core Data for Automotive Mechanical Design Process');
#337=PRODUCT_CONTEXT('part definition',#336,'mechanical');
#338=PRODUCT('2026-02-10-13-29-50-630','USB cable bracket',$,(#337));
#339=PRESENTATION_STYLE_ASSIGNMENT((#340));
#340=SURFACE_STYLE_USAGE(.BOTH.,#341);
#341=SURFACE_SIDE_STYLE('',(#342));
#342=SURFACE_STYLE_FILL_AREA(#343);
#343=FILL_AREA_STYLE('Steel - Satin',(#344));
#344=FILL_AREA_STYLE_COLOUR('Steel - Satin',#345);
#345=COLOUR_RGB('Steel - Satin',0.627450980392157,0.627450980392157,0.627450980392157);
ENDSEC;
END-ISO-10303-21;
