ISO-10303-21;
HEADER;
/* Generated by software containing ST-Developer
 * from STEP Tools, Inc. (www.steptools.com) 
 */

FILE_DESCRIPTION(
/* description */ (''),
/* implementation_level */ '2;1');

FILE_NAME(
/* name */ 'Module bottom.step',
/* time_stamp */ '2026-04-27T15:53:19+01:00',
/* author */ (''),
/* organization */ (''),
/* preprocessor_version */ 'ST-DEVELOPER v20.1',
/* originating_system */ 'Autodesk Translation Framework v14.24.0.0',
/* authorisation */ '');

FILE_SCHEMA (('AUTOMOTIVE_DESIGN { 1 0 10303 214 3 1 1 }'));
ENDSEC;

DATA;
#10=MECHANICAL_DESIGN_GEOMETRIC_PRESENTATION_REPRESENTATION('',(#13),#1591);
#11=SHAPE_REPRESENTATION_RELATIONSHIP('SRR','None',#1598,#12);
#12=ADVANCED_BREP_SHAPE_REPRESENTATION('',(#14),#1590);
#13=STYLED_ITEM('',(#1607),#14);
#14=MANIFOLD_SOLID_BREP('Body1',#955);
#15=FACE_BOUND('',#131,.T.);
#16=FACE_BOUND('',#134,.T.);
#17=FACE_BOUND('',#137,.T.);
#18=FACE_BOUND('',#140,.T.);
#19=FACE_BOUND('',#145,.T.);
#20=FACE_BOUND('',#151,.T.);
#21=FACE_BOUND('',#156,.T.);
#22=FACE_BOUND('',#161,.T.);
#23=FACE_BOUND('',#169,.T.);
#24=FACE_BOUND('',#170,.T.);
#25=FACE_BOUND('',#171,.T.);
#26=FACE_BOUND('',#172,.T.);
#27=PLANE('',#972);
#28=PLANE('',#976);
#29=PLANE('',#977);
#30=PLANE('',#978);
#31=PLANE('',#979);
#32=PLANE('',#980);
#33=PLANE('',#981);
#34=PLANE('',#982);
#35=PLANE('',#986);
#36=PLANE('',#987);
#37=PLANE('',#991);
#38=PLANE('',#992);
#39=PLANE('',#993);
#40=PLANE('',#994);
#41=PLANE('',#998);
#42=PLANE('',#1003);
#43=PLANE('',#1008);
#44=PLANE('',#1013);
#45=PLANE('',#1015);
#46=PLANE('',#1016);
#47=PLANE('',#1020);
#48=PLANE('',#1022);
#49=PLANE('',#1026);
#50=PLANE('',#1027);
#51=PLANE('',#1030);
#52=PLANE('',#1032);
#53=PLANE('',#1033);
#54=PLANE('',#1036);
#55=PLANE('',#1038);
#56=PLANE('',#1039);
#57=PLANE('',#1042);
#58=PLANE('',#1048);
#59=PLANE('',#1049);
#60=PLANE('',#1050);
#61=FACE_OUTER_BOUND('',#111,.T.);
#62=FACE_OUTER_BOUND('',#112,.T.);
#63=FACE_OUTER_BOUND('',#113,.T.);
#64=FACE_OUTER_BOUND('',#114,.T.);
#65=FACE_OUTER_BOUND('',#115,.T.);
#66=FACE_OUTER_BOUND('',#116,.T.);
#67=FACE_OUTER_BOUND('',#117,.T.);
#68=FACE_OUTER_BOUND('',#118,.T.);
#69=FACE_OUTER_BOUND('',#119,.T.);
#70=FACE_OUTER_BOUND('',#120,.T.);
#71=FACE_OUTER_BOUND('',#121,.T.);
#72=FACE_OUTER_BOUND('',#122,.T.);
#73=FACE_OUTER_BOUND('',#123,.T.);
#74=FACE_OUTER_BOUND('',#124,.T.);
#75=FACE_OUTER_BOUND('',#125,.T.);
#76=FACE_OUTER_BOUND('',#126,.T.);
#77=FACE_OUTER_BOUND('',#127,.T.);
#78=FACE_OUTER_BOUND('',#128,.T.);
#79=FACE_OUTER_BOUND('',#129,.T.);
#80=FACE_OUTER_BOUND('',#130,.T.);
#81=FACE_OUTER_BOUND('',#132,.T.);
#82=FACE_OUTER_BOUND('',#133,.T.);
#83=FACE_OUTER_BOUND('',#135,.T.);
#84=FACE_OUTER_BOUND('',#136,.T.);
#85=FACE_OUTER_BOUND('',#138,.T.);
#86=FACE_OUTER_BOUND('',#139,.T.);
#87=FACE_OUTER_BOUND('',#141,.T.);
#88=FACE_OUTER_BOUND('',#142,.T.);
#89=FACE_OUTER_BOUND('',#143,.T.);
#90=FACE_OUTER_BOUND('',#144,.T.);
#91=FACE_OUTER_BOUND('',#146,.T.);
#92=FACE_OUTER_BOUND('',#147,.T.);
#93=FACE_OUTER_BOUND('',#148,.T.);
#94=FACE_OUTER_BOUND('',#149,.T.);
#95=FACE_OUTER_BOUND('',#150,.T.);
#96=FACE_OUTER_BOUND('',#152,.T.);
#97=FACE_OUTER_BOUND('',#153,.T.);
#98=FACE_OUTER_BOUND('',#154,.T.);
#99=FACE_OUTER_BOUND('',#155,.T.);
#100=FACE_OUTER_BOUND('',#157,.T.);
#101=FACE_OUTER_BOUND('',#158,.T.);
#102=FACE_OUTER_BOUND('',#159,.T.);
#103=FACE_OUTER_BOUND('',#160,.T.);
#104=FACE_OUTER_BOUND('',#162,.T.);
#105=FACE_OUTER_BOUND('',#163,.T.);
#106=FACE_OUTER_BOUND('',#164,.T.);
#107=FACE_OUTER_BOUND('',#165,.T.);
#108=FACE_OUTER_BOUND('',#166,.T.);
#109=FACE_OUTER_BOUND('',#167,.T.);
#110=FACE_OUTER_BOUND('',#168,.T.);
#111=EDGE_LOOP('',(#625,#626,#627,#628));
#112=EDGE_LOOP('',(#629,#630,#631,#632));
#113=EDGE_LOOP('',(#633,#634,#635,#636));
#114=EDGE_LOOP('',(#637,#638,#639,#640,#641,#642));
#115=EDGE_LOOP('',(#643,#644,#645,#646,#647,#648));
#116=EDGE_LOOP('',(#649,#650,#651,#652,#653,#654));
#117=EDGE_LOOP('',(#655,#656,#657,#658,#659,#660));
#118=EDGE_LOOP('',(#661,#662,#663,#664,#665,#666));
#119=EDGE_LOOP('',(#667,#668,#669,#670,#671,#672));
#120=EDGE_LOOP('',(#673,#674,#675,#676));
#121=EDGE_LOOP('',(#677,#678,#679,#680));
#122=EDGE_LOOP('',(#681,#682,#683,#684,#685,#686));
#123=EDGE_LOOP('',(#687,#688,#689,#690,#691,#692));
#124=EDGE_LOOP('',(#693,#694,#695,#696));
#125=EDGE_LOOP('',(#697,#698,#699,#700,#701,#702));
#126=EDGE_LOOP('',(#703,#704,#705,#706,#707,#708));
#127=EDGE_LOOP('',(#709,#710,#711,#712,#713,#714));
#128=EDGE_LOOP('',(#715,#716,#717,#718,#719,#720));
#129=EDGE_LOOP('',(#721,#722,#723,#724));
#130=EDGE_LOOP('',(#725));
#131=EDGE_LOOP('',(#726));
#132=EDGE_LOOP('',(#727,#728,#729,#730));
#133=EDGE_LOOP('',(#731));
#134=EDGE_LOOP('',(#732));
#135=EDGE_LOOP('',(#733,#734,#735,#736));
#136=EDGE_LOOP('',(#737));
#137=EDGE_LOOP('',(#738));
#138=EDGE_LOOP('',(#739,#740,#741,#742));
#139=EDGE_LOOP('',(#743));
#140=EDGE_LOOP('',(#744));
#141=EDGE_LOOP('',(#745,#746,#747,#748));
#142=EDGE_LOOP('',(#749,#750,#751,#752));
#143=EDGE_LOOP('',(#753,#754,#755,#756));
#144=EDGE_LOOP('',(#757,#758,#759,#760,#761));
#145=EDGE_LOOP('',(#762));
#146=EDGE_LOOP('',(#763,#764,#765,#766,#767,#768,#769,#770,#771,#772,#773,
#774,#775,#776,#777,#778,#779,#780,#781,#782,#783,#784,#785,#786));
#147=EDGE_LOOP('',(#787,#788,#789,#790));
#148=EDGE_LOOP('',(#791,#792,#793,#794));
#149=EDGE_LOOP('',(#795,#796,#797,#798));
#150=EDGE_LOOP('',(#799,#800,#801,#802,#803));
#151=EDGE_LOOP('',(#804));
#152=EDGE_LOOP('',(#805,#806,#807,#808));
#153=EDGE_LOOP('',(#809,#810,#811,#812));
#154=EDGE_LOOP('',(#813,#814,#815,#816));
#155=EDGE_LOOP('',(#817,#818,#819,#820,#821));
#156=EDGE_LOOP('',(#822));
#157=EDGE_LOOP('',(#823,#824,#825,#826));
#158=EDGE_LOOP('',(#827,#828,#829,#830));
#159=EDGE_LOOP('',(#831,#832,#833,#834));
#160=EDGE_LOOP('',(#835,#836,#837,#838,#839));
#161=EDGE_LOOP('',(#840));
#162=EDGE_LOOP('',(#841,#842,#843,#844));
#163=EDGE_LOOP('',(#845,#846,#847,#848));
#164=EDGE_LOOP('',(#849,#850,#851,#852));
#165=EDGE_LOOP('',(#853,#854,#855,#856));
#166=EDGE_LOOP('',(#857,#858,#859,#860,#861,#862,#863,#864));
#167=EDGE_LOOP('',(#865,#866,#867,#868,#869,#870,#871,#872));
#168=EDGE_LOOP('',(#873,#874,#875,#876,#877,#878,#879,#880,#881,#882,#883,
#884));
#169=EDGE_LOOP('',(#885));
#170=EDGE_LOOP('',(#886));
#171=EDGE_LOOP('',(#887));
#172=EDGE_LOOP('',(#888));
#173=LINE('',#1323,#273);
#174=LINE('',#1326,#274);
#175=LINE('',#1329,#275);
#176=LINE('',#1331,#276);
#177=LINE('',#1332,#277);
#178=LINE('',#1338,#278);
#179=LINE('',#1341,#279);
#180=LINE('',#1343,#280);
#181=LINE('',#1345,#281);
#182=LINE('',#1347,#282);
#183=LINE('',#1348,#283);
#184=LINE('',#1351,#284);
#185=LINE('',#1353,#285);
#186=LINE('',#1355,#286);
#187=LINE('',#1357,#287);
#188=LINE('',#1358,#288);
#189=LINE('',#1360,#289);
#190=LINE('',#1362,#290);
#191=LINE('',#1365,#291);
#192=LINE('',#1367,#292);
#193=LINE('',#1369,#293);
#194=LINE('',#1371,#294);
#195=LINE('',#1372,#295);
#196=LINE('',#1375,#296);
#197=LINE('',#1377,#297);
#198=LINE('',#1379,#298);
#199=LINE('',#1381,#299);
#200=LINE('',#1382,#300);
#201=LINE('',#1386,#301);
#202=LINE('',#1388,#302);
#203=LINE('',#1390,#303);
#204=LINE('',#1391,#304);
#205=LINE('',#1397,#305);
#206=LINE('',#1400,#306);
#207=LINE('',#1402,#307);
#208=LINE('',#1404,#308);
#209=LINE('',#1406,#309);
#210=LINE('',#1407,#310);
#211=LINE('',#1411,#311);
#212=LINE('',#1413,#312);
#213=LINE('',#1415,#313);
#214=LINE('',#1417,#314);
#215=LINE('',#1419,#315);
#216=LINE('',#1420,#316);
#217=LINE('',#1425,#317);
#218=LINE('',#1427,#318);
#219=LINE('',#1430,#319);
#220=LINE('',#1432,#320);
#221=LINE('',#1434,#321);
#222=LINE('',#1436,#322);
#223=LINE('',#1437,#323);
#224=LINE('',#1440,#324);
#225=LINE('',#1442,#325);
#226=LINE('',#1444,#326);
#227=LINE('',#1446,#327);
#228=LINE('',#1447,#328);
#229=LINE('',#1452,#329);
#230=LINE('',#1461,#330);
#231=LINE('',#1470,#331);
#232=LINE('',#1479,#332);
#233=LINE('',#1487,#333);
#234=LINE('',#1489,#334);
#235=LINE('',#1491,#335);
#236=LINE('',#1492,#336);
#237=LINE('',#1495,#337);
#238=LINE('',#1497,#338);
#239=LINE('',#1498,#339);
#240=LINE('',#1503,#340);
#241=LINE('',#1508,#341);
#242=LINE('',#1510,#342);
#243=LINE('',#1513,#343);
#244=LINE('',#1515,#344);
#245=LINE('',#1519,#345);
#246=LINE('',#1521,#346);
#247=LINE('',#1523,#347);
#248=LINE('',#1526,#348);
#249=LINE('',#1529,#349);
#250=LINE('',#1530,#350);
#251=LINE('',#1533,#351);
#252=LINE('',#1535,#352);
#253=LINE('',#1536,#353);
#254=LINE('',#1540,#354);
#255=LINE('',#1545,#355);
#256=LINE('',#1546,#356);
#257=LINE('',#1549,#357);
#258=LINE('',#1551,#358);
#259=LINE('',#1552,#359);
#260=LINE('',#1556,#360);
#261=LINE('',#1561,#361);
#262=LINE('',#1563,#362);
#263=LINE('',#1564,#363);
#264=LINE('',#1567,#364);
#265=LINE('',#1568,#365);
#266=LINE('',#1572,#366);
#267=LINE('',#1576,#367);
#268=LINE('',#1578,#368);
#269=LINE('',#1580,#369);
#270=LINE('',#1582,#370);
#271=LINE('',#1584,#371);
#272=LINE('',#1586,#372);
#273=VECTOR('',#1057,10.);
#274=VECTOR('',#1060,10.);
#275=VECTOR('',#1063,10.);
#276=VECTOR('',#1064,10.);
#277=VECTOR('',#1065,10.);
#278=VECTOR('',#1072,10.);
#279=VECTOR('',#1075,10.);
#280=VECTOR('',#1076,10.);
#281=VECTOR('',#1077,10.);
#282=VECTOR('',#1078,10.);
#283=VECTOR('',#1079,10.);
#284=VECTOR('',#1082,10.);
#285=VECTOR('',#1083,10.);
#286=VECTOR('',#1084,10.);
#287=VECTOR('',#1085,10.);
#288=VECTOR('',#1086,10.);
#289=VECTOR('',#1089,10.);
#290=VECTOR('',#1092,10.);
#291=VECTOR('',#1095,10.);
#292=VECTOR('',#1096,10.);
#293=VECTOR('',#1097,10.);
#294=VECTOR('',#1098,10.);
#295=VECTOR('',#1099,10.);
#296=VECTOR('',#1102,10.);
#297=VECTOR('',#1103,10.);
#298=VECTOR('',#1104,10.);
#299=VECTOR('',#1105,10.);
#300=VECTOR('',#1106,10.);
#301=VECTOR('',#1109,10.);
#302=VECTOR('',#1110,10.);
#303=VECTOR('',#1111,10.);
#304=VECTOR('',#1112,10.);
#305=VECTOR('',#1119,10.);
#306=VECTOR('',#1122,10.);
#307=VECTOR('',#1123,10.);
#308=VECTOR('',#1124,10.);
#309=VECTOR('',#1125,10.);
#310=VECTOR('',#1126,10.);
#311=VECTOR('',#1129,10.);
#312=VECTOR('',#1130,10.);
#313=VECTOR('',#1131,10.);
#314=VECTOR('',#1132,10.);
#315=VECTOR('',#1133,10.);
#316=VECTOR('',#1134,10.);
#317=VECTOR('',#1143,10.);
#318=VECTOR('',#1146,10.);
#319=VECTOR('',#1149,10.);
#320=VECTOR('',#1150,10.);
#321=VECTOR('',#1151,10.);
#322=VECTOR('',#1152,10.);
#323=VECTOR('',#1153,10.);
#324=VECTOR('',#1156,10.);
#325=VECTOR('',#1157,10.);
#326=VECTOR('',#1158,10.);
#327=VECTOR('',#1159,10.);
#328=VECTOR('',#1160,10.);
#329=VECTOR('',#1165,3.5);
#330=VECTOR('',#1176,3.5);
#331=VECTOR('',#1187,3.5);
#332=VECTOR('',#1198,3.5);
#333=VECTOR('',#1207,10.);
#334=VECTOR('',#1208,10.);
#335=VECTOR('',#1209,10.);
#336=VECTOR('',#1210,10.);
#337=VECTOR('',#1213,10.);
#338=VECTOR('',#1214,10.);
#339=VECTOR('',#1215,10.);
#340=VECTOR('',#1224,10.);
#341=VECTOR('',#1229,10.);
#342=VECTOR('',#1230,10.);
#343=VECTOR('',#1233,10.);
#344=VECTOR('',#1234,10.);
#345=VECTOR('',#1237,10.);
#346=VECTOR('',#1238,10.);
#347=VECTOR('',#1239,10.);
#348=VECTOR('',#1242,10.);
#349=VECTOR('',#1245,10.);
#350=VECTOR('',#1246,10.);
#351=VECTOR('',#1249,10.);
#352=VECTOR('',#1250,10.);
#353=VECTOR('',#1251,10.);
#354=VECTOR('',#1258,10.);
#355=VECTOR('',#1263,10.);
#356=VECTOR('',#1264,10.);
#357=VECTOR('',#1267,10.);
#358=VECTOR('',#1268,10.);
#359=VECTOR('',#1269,10.);
#360=VECTOR('',#1276,10.);
#361=VECTOR('',#1281,10.);
#362=VECTOR('',#1282,10.);
#363=VECTOR('',#1283,10.);
#364=VECTOR('',#1286,10.);
#365=VECTOR('',#1287,10.);
#366=VECTOR('',#1294,10.);
#367=VECTOR('',#1299,1.8);
#368=VECTOR('',#1302,1.8);
#369=VECTOR('',#1305,1.8);
#370=VECTOR('',#1308,1.8);
#371=VECTOR('',#1311,10.);
#372=VECTOR('',#1314,10.);
#373=CIRCLE('',#970,2.50000002980232);
#374=CIRCLE('',#971,2.50000002980232);
#375=CIRCLE('',#974,2.50000002980232);
#376=CIRCLE('',#975,2.50000002980232);
#377=CIRCLE('',#984,2.50000002980232);
#378=CIRCLE('',#985,2.50000002980232);
#379=CIRCLE('',#989,2.50000002980232);
#380=CIRCLE('',#990,2.50000002980232);
#381=CIRCLE('',#996,3.5);
#382=CIRCLE('',#997,3.5);
#383=CIRCLE('',#999,1.8);
#384=CIRCLE('',#1001,3.5);
#385=CIRCLE('',#1002,3.5);
#386=CIRCLE('',#1004,1.8);
#387=CIRCLE('',#1006,3.5);
#388=CIRCLE('',#1007,3.5);
#389=CIRCLE('',#1009,1.8);
#390=CIRCLE('',#1011,3.5);
#391=CIRCLE('',#1012,3.5);
#392=CIRCLE('',#1014,1.8);
#393=CIRCLE('',#1018,5.00000007450581);
#394=CIRCLE('',#1019,5.00000007450581);
#395=CIRCLE('',#1021,1.8);
#396=CIRCLE('',#1023,5.00000007450581);
#397=CIRCLE('',#1024,5.00000007450581);
#398=CIRCLE('',#1025,5.00000007450581);
#399=CIRCLE('',#1029,5.00000007450581);
#400=CIRCLE('',#1031,1.8);
#401=CIRCLE('',#1035,5.00000007450581);
#402=CIRCLE('',#1037,1.8);
#403=CIRCLE('',#1041,5.00000007450581);
#404=CIRCLE('',#1043,1.8);
#405=VERTEX_POINT('',#1319);
#406=VERTEX_POINT('',#1320);
#407=VERTEX_POINT('',#1322);
#408=VERTEX_POINT('',#1324);
#409=VERTEX_POINT('',#1328);
#410=VERTEX_POINT('',#1330);
#411=VERTEX_POINT('',#1334);
#412=VERTEX_POINT('',#1336);
#413=VERTEX_POINT('',#1340);
#414=VERTEX_POINT('',#1342);
#415=VERTEX_POINT('',#1344);
#416=VERTEX_POINT('',#1346);
#417=VERTEX_POINT('',#1350);
#418=VERTEX_POINT('',#1352);
#419=VERTEX_POINT('',#1354);
#420=VERTEX_POINT('',#1356);
#421=VERTEX_POINT('',#1364);
#422=VERTEX_POINT('',#1366);
#423=VERTEX_POINT('',#1368);
#424=VERTEX_POINT('',#1370);
#425=VERTEX_POINT('',#1374);
#426=VERTEX_POINT('',#1376);
#427=VERTEX_POINT('',#1378);
#428=VERTEX_POINT('',#1380);
#429=VERTEX_POINT('',#1384);
#430=VERTEX_POINT('',#1385);
#431=VERTEX_POINT('',#1387);
#432=VERTEX_POINT('',#1389);
#433=VERTEX_POINT('',#1393);
#434=VERTEX_POINT('',#1395);
#435=VERTEX_POINT('',#1399);
#436=VERTEX_POINT('',#1401);
#437=VERTEX_POINT('',#1403);
#438=VERTEX_POINT('',#1405);
#439=VERTEX_POINT('',#1409);
#440=VERTEX_POINT('',#1410);
#441=VERTEX_POINT('',#1412);
#442=VERTEX_POINT('',#1414);
#443=VERTEX_POINT('',#1416);
#444=VERTEX_POINT('',#1418);
#445=VERTEX_POINT('',#1429);
#446=VERTEX_POINT('',#1431);
#447=VERTEX_POINT('',#1433);
#448=VERTEX_POINT('',#1435);
#449=VERTEX_POINT('',#1439);
#450=VERTEX_POINT('',#1441);
#451=VERTEX_POINT('',#1443);
#452=VERTEX_POINT('',#1445);
#453=VERTEX_POINT('',#1449);
#454=VERTEX_POINT('',#1451);
#455=VERTEX_POINT('',#1455);
#456=VERTEX_POINT('',#1458);
#457=VERTEX_POINT('',#1460);
#458=VERTEX_POINT('',#1464);
#459=VERTEX_POINT('',#1467);
#460=VERTEX_POINT('',#1469);
#461=VERTEX_POINT('',#1473);
#462=VERTEX_POINT('',#1476);
#463=VERTEX_POINT('',#1478);
#464=VERTEX_POINT('',#1482);
#465=VERTEX_POINT('',#1485);
#466=VERTEX_POINT('',#1486);
#467=VERTEX_POINT('',#1488);
#468=VERTEX_POINT('',#1490);
#469=VERTEX_POINT('',#1494);
#470=VERTEX_POINT('',#1496);
#471=VERTEX_POINT('',#1504);
#472=VERTEX_POINT('',#1507);
#473=VERTEX_POINT('',#1509);
#474=VERTEX_POINT('',#1511);
#475=VERTEX_POINT('',#1514);
#476=VERTEX_POINT('',#1516);
#477=VERTEX_POINT('',#1518);
#478=VERTEX_POINT('',#1520);
#479=VERTEX_POINT('',#1522);
#480=VERTEX_POINT('',#1524);
#481=VERTEX_POINT('',#1528);
#482=VERTEX_POINT('',#1532);
#483=VERTEX_POINT('',#1534);
#484=VERTEX_POINT('',#1541);
#485=VERTEX_POINT('',#1544);
#486=VERTEX_POINT('',#1548);
#487=VERTEX_POINT('',#1550);
#488=VERTEX_POINT('',#1557);
#489=VERTEX_POINT('',#1560);
#490=VERTEX_POINT('',#1562);
#491=VERTEX_POINT('',#1566);
#492=VERTEX_POINT('',#1573);
#493=EDGE_CURVE('',#405,#406,#373,.T.);
#494=EDGE_CURVE('',#405,#407,#173,.T.);
#495=EDGE_CURVE('',#408,#407,#374,.F.);
#496=EDGE_CURVE('',#406,#408,#174,.T.);
#497=EDGE_CURVE('',#406,#409,#175,.T.);
#498=EDGE_CURVE('',#410,#408,#176,.F.);
#499=EDGE_CURVE('',#409,#410,#177,.T.);
#500=EDGE_CURVE('',#409,#411,#375,.T.);
#501=EDGE_CURVE('',#412,#410,#376,.F.);
#502=EDGE_CURVE('',#411,#412,#178,.F.);
#503=EDGE_CURVE('',#413,#412,#179,.T.);
#504=EDGE_CURVE('',#414,#413,#180,.T.);
#505=EDGE_CURVE('',#415,#414,#181,.F.);
#506=EDGE_CURVE('',#416,#415,#182,.T.);
#507=EDGE_CURVE('',#411,#416,#183,.T.);
#508=EDGE_CURVE('',#405,#417,#184,.T.);
#509=EDGE_CURVE('',#417,#418,#185,.T.);
#510=EDGE_CURVE('',#419,#418,#186,.F.);
#511=EDGE_CURVE('',#419,#420,#187,.T.);
#512=EDGE_CURVE('',#407,#420,#188,.T.);
#513=EDGE_CURVE('',#420,#413,#189,.T.);
#514=EDGE_CURVE('',#417,#416,#190,.T.);
#515=EDGE_CURVE('',#421,#414,#191,.T.);
#516=EDGE_CURVE('',#421,#422,#192,.F.);
#517=EDGE_CURVE('',#423,#422,#193,.F.);
#518=EDGE_CURVE('',#424,#423,#194,.F.);
#519=EDGE_CURVE('',#415,#424,#195,.F.);
#520=EDGE_CURVE('',#425,#418,#196,.F.);
#521=EDGE_CURVE('',#425,#426,#197,.T.);
#522=EDGE_CURVE('',#427,#426,#198,.F.);
#523=EDGE_CURVE('',#427,#428,#199,.F.);
#524=EDGE_CURVE('',#419,#428,#200,.T.);
#525=EDGE_CURVE('',#429,#430,#201,.T.);
#526=EDGE_CURVE('',#429,#431,#202,.T.);
#527=EDGE_CURVE('',#432,#431,#203,.F.);
#528=EDGE_CURVE('',#430,#432,#204,.T.);
#529=EDGE_CURVE('',#430,#433,#377,.T.);
#530=EDGE_CURVE('',#434,#432,#378,.F.);
#531=EDGE_CURVE('',#433,#434,#205,.F.);
#532=EDGE_CURVE('',#435,#434,#206,.T.);
#533=EDGE_CURVE('',#436,#435,#207,.T.);
#534=EDGE_CURVE('',#437,#436,#208,.F.);
#535=EDGE_CURVE('',#438,#437,#209,.T.);
#536=EDGE_CURVE('',#433,#438,#210,.T.);
#537=EDGE_CURVE('',#439,#440,#211,.T.);
#538=EDGE_CURVE('',#440,#441,#212,.T.);
#539=EDGE_CURVE('',#442,#441,#213,.F.);
#540=EDGE_CURVE('',#442,#443,#214,.T.);
#541=EDGE_CURVE('',#444,#443,#215,.T.);
#542=EDGE_CURVE('',#439,#444,#216,.T.);
#543=EDGE_CURVE('',#439,#429,#379,.T.);
#544=EDGE_CURVE('',#431,#444,#380,.F.);
#545=EDGE_CURVE('',#443,#435,#217,.T.);
#546=EDGE_CURVE('',#440,#438,#218,.T.);
#547=EDGE_CURVE('',#445,#436,#219,.T.);
#548=EDGE_CURVE('',#445,#446,#220,.F.);
#549=EDGE_CURVE('',#447,#446,#221,.F.);
#550=EDGE_CURVE('',#448,#447,#222,.F.);
#551=EDGE_CURVE('',#437,#448,#223,.F.);
#552=EDGE_CURVE('',#449,#441,#224,.F.);
#553=EDGE_CURVE('',#449,#450,#225,.T.);
#554=EDGE_CURVE('',#451,#450,#226,.F.);
#555=EDGE_CURVE('',#452,#451,#227,.F.);
#556=EDGE_CURVE('',#442,#452,#228,.T.);
#557=EDGE_CURVE('',#453,#453,#381,.T.);
#558=EDGE_CURVE('',#453,#454,#229,.T.);
#559=EDGE_CURVE('',#454,#454,#382,.T.);
#560=EDGE_CURVE('',#455,#455,#383,.T.);
#561=EDGE_CURVE('',#456,#456,#384,.T.);
#562=EDGE_CURVE('',#456,#457,#230,.T.);
#563=EDGE_CURVE('',#457,#457,#385,.T.);
#564=EDGE_CURVE('',#458,#458,#386,.T.);
#565=EDGE_CURVE('',#459,#459,#387,.T.);
#566=EDGE_CURVE('',#459,#460,#231,.T.);
#567=EDGE_CURVE('',#460,#460,#388,.T.);
#568=EDGE_CURVE('',#461,#461,#389,.T.);
#569=EDGE_CURVE('',#462,#462,#390,.T.);
#570=EDGE_CURVE('',#462,#463,#232,.T.);
#571=EDGE_CURVE('',#463,#463,#391,.T.);
#572=EDGE_CURVE('',#464,#464,#392,.T.);
#573=EDGE_CURVE('',#465,#466,#233,.T.);
#574=EDGE_CURVE('',#465,#467,#234,.T.);
#575=EDGE_CURVE('',#468,#467,#235,.T.);
#576=EDGE_CURVE('',#466,#468,#236,.T.);
#577=EDGE_CURVE('',#424,#469,#237,.T.);
#578=EDGE_CURVE('',#470,#423,#238,.T.);
#579=EDGE_CURVE('',#469,#470,#239,.T.);
#580=EDGE_CURVE('',#469,#465,#393,.T.);
#581=EDGE_CURVE('',#467,#470,#394,.T.);
#582=EDGE_CURVE('',#422,#468,#240,.F.);
#583=EDGE_CURVE('',#471,#471,#395,.T.);
#584=EDGE_CURVE('',#466,#472,#241,.F.);
#585=EDGE_CURVE('',#472,#473,#242,.T.);
#586=EDGE_CURVE('',#473,#474,#396,.T.);
#587=EDGE_CURVE('',#474,#449,#243,.T.);
#588=EDGE_CURVE('',#448,#475,#244,.T.);
#589=EDGE_CURVE('',#475,#476,#397,.T.);
#590=EDGE_CURVE('',#476,#477,#245,.T.);
#591=EDGE_CURVE('',#477,#478,#246,.F.);
#592=EDGE_CURVE('',#478,#479,#247,.T.);
#593=EDGE_CURVE('',#479,#480,#398,.T.);
#594=EDGE_CURVE('',#480,#425,#248,.T.);
#595=EDGE_CURVE('',#474,#481,#249,.T.);
#596=EDGE_CURVE('',#450,#481,#250,.T.);
#597=EDGE_CURVE('',#472,#482,#251,.F.);
#598=EDGE_CURVE('',#483,#482,#252,.T.);
#599=EDGE_CURVE('',#473,#483,#253,.T.);
#600=EDGE_CURVE('',#481,#483,#399,.T.);
#601=EDGE_CURVE('',#482,#451,#254,.F.);
#602=EDGE_CURVE('',#484,#484,#400,.T.);
#603=EDGE_CURVE('',#480,#485,#255,.T.);
#604=EDGE_CURVE('',#426,#485,#256,.T.);
#605=EDGE_CURVE('',#478,#486,#257,.F.);
#606=EDGE_CURVE('',#487,#486,#258,.T.);
#607=EDGE_CURVE('',#479,#487,#259,.T.);
#608=EDGE_CURVE('',#485,#487,#401,.T.);
#609=EDGE_CURVE('',#486,#427,#260,.F.);
#610=EDGE_CURVE('',#488,#488,#402,.T.);
#611=EDGE_CURVE('',#476,#489,#261,.T.);
#612=EDGE_CURVE('',#490,#489,#262,.T.);
#613=EDGE_CURVE('',#477,#490,#263,.T.);
#614=EDGE_CURVE('',#491,#447,#264,.T.);
#615=EDGE_CURVE('',#475,#491,#265,.T.);
#616=EDGE_CURVE('',#489,#491,#403,.T.);
#617=EDGE_CURVE('',#446,#490,#266,.F.);
#618=EDGE_CURVE('',#492,#492,#404,.T.);
#619=EDGE_CURVE('',#461,#492,#267,.T.);
#620=EDGE_CURVE('',#455,#488,#268,.T.);
#621=EDGE_CURVE('',#464,#484,#269,.T.);
#622=EDGE_CURVE('',#458,#471,#270,.T.);
#623=EDGE_CURVE('',#452,#421,#271,.T.);
#624=EDGE_CURVE('',#428,#445,#272,.T.);
#625=ORIENTED_EDGE('',*,*,#493,.F.);
#626=ORIENTED_EDGE('',*,*,#494,.T.);
#627=ORIENTED_EDGE('',*,*,#495,.F.);
#628=ORIENTED_EDGE('',*,*,#496,.F.);
#629=ORIENTED_EDGE('',*,*,#497,.F.);
#630=ORIENTED_EDGE('',*,*,#496,.T.);
#631=ORIENTED_EDGE('',*,*,#498,.F.);
#632=ORIENTED_EDGE('',*,*,#499,.F.);
#633=ORIENTED_EDGE('',*,*,#500,.F.);
#634=ORIENTED_EDGE('',*,*,#499,.T.);
#635=ORIENTED_EDGE('',*,*,#501,.F.);
#636=ORIENTED_EDGE('',*,*,#502,.F.);
#637=ORIENTED_EDGE('',*,*,#502,.T.);
#638=ORIENTED_EDGE('',*,*,#503,.F.);
#639=ORIENTED_EDGE('',*,*,#504,.F.);
#640=ORIENTED_EDGE('',*,*,#505,.F.);
#641=ORIENTED_EDGE('',*,*,#506,.F.);
#642=ORIENTED_EDGE('',*,*,#507,.F.);
#643=ORIENTED_EDGE('',*,*,#508,.T.);
#644=ORIENTED_EDGE('',*,*,#509,.T.);
#645=ORIENTED_EDGE('',*,*,#510,.F.);
#646=ORIENTED_EDGE('',*,*,#511,.T.);
#647=ORIENTED_EDGE('',*,*,#512,.F.);
#648=ORIENTED_EDGE('',*,*,#494,.F.);
#649=ORIENTED_EDGE('',*,*,#512,.T.);
#650=ORIENTED_EDGE('',*,*,#513,.T.);
#651=ORIENTED_EDGE('',*,*,#503,.T.);
#652=ORIENTED_EDGE('',*,*,#501,.T.);
#653=ORIENTED_EDGE('',*,*,#498,.T.);
#654=ORIENTED_EDGE('',*,*,#495,.T.);
#655=ORIENTED_EDGE('',*,*,#514,.F.);
#656=ORIENTED_EDGE('',*,*,#508,.F.);
#657=ORIENTED_EDGE('',*,*,#493,.T.);
#658=ORIENTED_EDGE('',*,*,#497,.T.);
#659=ORIENTED_EDGE('',*,*,#500,.T.);
#660=ORIENTED_EDGE('',*,*,#507,.T.);
#661=ORIENTED_EDGE('',*,*,#515,.F.);
#662=ORIENTED_EDGE('',*,*,#516,.T.);
#663=ORIENTED_EDGE('',*,*,#517,.F.);
#664=ORIENTED_EDGE('',*,*,#518,.F.);
#665=ORIENTED_EDGE('',*,*,#519,.F.);
#666=ORIENTED_EDGE('',*,*,#505,.T.);
#667=ORIENTED_EDGE('',*,*,#510,.T.);
#668=ORIENTED_EDGE('',*,*,#520,.F.);
#669=ORIENTED_EDGE('',*,*,#521,.T.);
#670=ORIENTED_EDGE('',*,*,#522,.F.);
#671=ORIENTED_EDGE('',*,*,#523,.T.);
#672=ORIENTED_EDGE('',*,*,#524,.F.);
#673=ORIENTED_EDGE('',*,*,#525,.F.);
#674=ORIENTED_EDGE('',*,*,#526,.T.);
#675=ORIENTED_EDGE('',*,*,#527,.F.);
#676=ORIENTED_EDGE('',*,*,#528,.F.);
#677=ORIENTED_EDGE('',*,*,#529,.F.);
#678=ORIENTED_EDGE('',*,*,#528,.T.);
#679=ORIENTED_EDGE('',*,*,#530,.F.);
#680=ORIENTED_EDGE('',*,*,#531,.F.);
#681=ORIENTED_EDGE('',*,*,#531,.T.);
#682=ORIENTED_EDGE('',*,*,#532,.F.);
#683=ORIENTED_EDGE('',*,*,#533,.F.);
#684=ORIENTED_EDGE('',*,*,#534,.F.);
#685=ORIENTED_EDGE('',*,*,#535,.F.);
#686=ORIENTED_EDGE('',*,*,#536,.F.);
#687=ORIENTED_EDGE('',*,*,#537,.T.);
#688=ORIENTED_EDGE('',*,*,#538,.T.);
#689=ORIENTED_EDGE('',*,*,#539,.F.);
#690=ORIENTED_EDGE('',*,*,#540,.T.);
#691=ORIENTED_EDGE('',*,*,#541,.F.);
#692=ORIENTED_EDGE('',*,*,#542,.F.);
#693=ORIENTED_EDGE('',*,*,#543,.F.);
#694=ORIENTED_EDGE('',*,*,#542,.T.);
#695=ORIENTED_EDGE('',*,*,#544,.F.);
#696=ORIENTED_EDGE('',*,*,#526,.F.);
#697=ORIENTED_EDGE('',*,*,#544,.T.);
#698=ORIENTED_EDGE('',*,*,#541,.T.);
#699=ORIENTED_EDGE('',*,*,#545,.T.);
#700=ORIENTED_EDGE('',*,*,#532,.T.);
#701=ORIENTED_EDGE('',*,*,#530,.T.);
#702=ORIENTED_EDGE('',*,*,#527,.T.);
#703=ORIENTED_EDGE('',*,*,#546,.F.);
#704=ORIENTED_EDGE('',*,*,#537,.F.);
#705=ORIENTED_EDGE('',*,*,#543,.T.);
#706=ORIENTED_EDGE('',*,*,#525,.T.);
#707=ORIENTED_EDGE('',*,*,#529,.T.);
#708=ORIENTED_EDGE('',*,*,#536,.T.);
#709=ORIENTED_EDGE('',*,*,#547,.F.);
#710=ORIENTED_EDGE('',*,*,#548,.T.);
#711=ORIENTED_EDGE('',*,*,#549,.F.);
#712=ORIENTED_EDGE('',*,*,#550,.F.);
#713=ORIENTED_EDGE('',*,*,#551,.F.);
#714=ORIENTED_EDGE('',*,*,#534,.T.);
#715=ORIENTED_EDGE('',*,*,#539,.T.);
#716=ORIENTED_EDGE('',*,*,#552,.F.);
#717=ORIENTED_EDGE('',*,*,#553,.T.);
#718=ORIENTED_EDGE('',*,*,#554,.F.);
#719=ORIENTED_EDGE('',*,*,#555,.F.);
#720=ORIENTED_EDGE('',*,*,#556,.F.);
#721=ORIENTED_EDGE('',*,*,#557,.F.);
#722=ORIENTED_EDGE('',*,*,#558,.T.);
#723=ORIENTED_EDGE('',*,*,#559,.T.);
#724=ORIENTED_EDGE('',*,*,#558,.F.);
#725=ORIENTED_EDGE('',*,*,#559,.F.);
#726=ORIENTED_EDGE('',*,*,#560,.F.);
#727=ORIENTED_EDGE('',*,*,#561,.F.);
#728=ORIENTED_EDGE('',*,*,#562,.T.);
#729=ORIENTED_EDGE('',*,*,#563,.T.);
#730=ORIENTED_EDGE('',*,*,#562,.F.);
#731=ORIENTED_EDGE('',*,*,#563,.F.);
#732=ORIENTED_EDGE('',*,*,#564,.F.);
#733=ORIENTED_EDGE('',*,*,#565,.F.);
#734=ORIENTED_EDGE('',*,*,#566,.T.);
#735=ORIENTED_EDGE('',*,*,#567,.T.);
#736=ORIENTED_EDGE('',*,*,#566,.F.);
#737=ORIENTED_EDGE('',*,*,#567,.F.);
#738=ORIENTED_EDGE('',*,*,#568,.F.);
#739=ORIENTED_EDGE('',*,*,#569,.F.);
#740=ORIENTED_EDGE('',*,*,#570,.T.);
#741=ORIENTED_EDGE('',*,*,#571,.T.);
#742=ORIENTED_EDGE('',*,*,#570,.F.);
#743=ORIENTED_EDGE('',*,*,#571,.F.);
#744=ORIENTED_EDGE('',*,*,#572,.F.);
#745=ORIENTED_EDGE('',*,*,#573,.F.);
#746=ORIENTED_EDGE('',*,*,#574,.T.);
#747=ORIENTED_EDGE('',*,*,#575,.F.);
#748=ORIENTED_EDGE('',*,*,#576,.F.);
#749=ORIENTED_EDGE('',*,*,#577,.F.);
#750=ORIENTED_EDGE('',*,*,#518,.T.);
#751=ORIENTED_EDGE('',*,*,#578,.F.);
#752=ORIENTED_EDGE('',*,*,#579,.F.);
#753=ORIENTED_EDGE('',*,*,#580,.F.);
#754=ORIENTED_EDGE('',*,*,#579,.T.);
#755=ORIENTED_EDGE('',*,*,#581,.F.);
#756=ORIENTED_EDGE('',*,*,#574,.F.);
#757=ORIENTED_EDGE('',*,*,#581,.T.);
#758=ORIENTED_EDGE('',*,*,#578,.T.);
#759=ORIENTED_EDGE('',*,*,#517,.T.);
#760=ORIENTED_EDGE('',*,*,#582,.T.);
#761=ORIENTED_EDGE('',*,*,#575,.T.);
#762=ORIENTED_EDGE('',*,*,#583,.T.);
#763=ORIENTED_EDGE('',*,*,#577,.T.);
#764=ORIENTED_EDGE('',*,*,#580,.T.);
#765=ORIENTED_EDGE('',*,*,#573,.T.);
#766=ORIENTED_EDGE('',*,*,#584,.T.);
#767=ORIENTED_EDGE('',*,*,#585,.T.);
#768=ORIENTED_EDGE('',*,*,#586,.T.);
#769=ORIENTED_EDGE('',*,*,#587,.T.);
#770=ORIENTED_EDGE('',*,*,#552,.T.);
#771=ORIENTED_EDGE('',*,*,#538,.F.);
#772=ORIENTED_EDGE('',*,*,#546,.T.);
#773=ORIENTED_EDGE('',*,*,#535,.T.);
#774=ORIENTED_EDGE('',*,*,#551,.T.);
#775=ORIENTED_EDGE('',*,*,#588,.T.);
#776=ORIENTED_EDGE('',*,*,#589,.T.);
#777=ORIENTED_EDGE('',*,*,#590,.T.);
#778=ORIENTED_EDGE('',*,*,#591,.T.);
#779=ORIENTED_EDGE('',*,*,#592,.T.);
#780=ORIENTED_EDGE('',*,*,#593,.T.);
#781=ORIENTED_EDGE('',*,*,#594,.T.);
#782=ORIENTED_EDGE('',*,*,#520,.T.);
#783=ORIENTED_EDGE('',*,*,#509,.F.);
#784=ORIENTED_EDGE('',*,*,#514,.T.);
#785=ORIENTED_EDGE('',*,*,#506,.T.);
#786=ORIENTED_EDGE('',*,*,#519,.T.);
#787=ORIENTED_EDGE('',*,*,#587,.F.);
#788=ORIENTED_EDGE('',*,*,#595,.T.);
#789=ORIENTED_EDGE('',*,*,#596,.F.);
#790=ORIENTED_EDGE('',*,*,#553,.F.);
#791=ORIENTED_EDGE('',*,*,#585,.F.);
#792=ORIENTED_EDGE('',*,*,#597,.T.);
#793=ORIENTED_EDGE('',*,*,#598,.F.);
#794=ORIENTED_EDGE('',*,*,#599,.F.);
#795=ORIENTED_EDGE('',*,*,#586,.F.);
#796=ORIENTED_EDGE('',*,*,#599,.T.);
#797=ORIENTED_EDGE('',*,*,#600,.F.);
#798=ORIENTED_EDGE('',*,*,#595,.F.);
#799=ORIENTED_EDGE('',*,*,#600,.T.);
#800=ORIENTED_EDGE('',*,*,#598,.T.);
#801=ORIENTED_EDGE('',*,*,#601,.T.);
#802=ORIENTED_EDGE('',*,*,#554,.T.);
#803=ORIENTED_EDGE('',*,*,#596,.T.);
#804=ORIENTED_EDGE('',*,*,#602,.T.);
#805=ORIENTED_EDGE('',*,*,#594,.F.);
#806=ORIENTED_EDGE('',*,*,#603,.T.);
#807=ORIENTED_EDGE('',*,*,#604,.F.);
#808=ORIENTED_EDGE('',*,*,#521,.F.);
#809=ORIENTED_EDGE('',*,*,#592,.F.);
#810=ORIENTED_EDGE('',*,*,#605,.T.);
#811=ORIENTED_EDGE('',*,*,#606,.F.);
#812=ORIENTED_EDGE('',*,*,#607,.F.);
#813=ORIENTED_EDGE('',*,*,#593,.F.);
#814=ORIENTED_EDGE('',*,*,#607,.T.);
#815=ORIENTED_EDGE('',*,*,#608,.F.);
#816=ORIENTED_EDGE('',*,*,#603,.F.);
#817=ORIENTED_EDGE('',*,*,#608,.T.);
#818=ORIENTED_EDGE('',*,*,#606,.T.);
#819=ORIENTED_EDGE('',*,*,#609,.T.);
#820=ORIENTED_EDGE('',*,*,#522,.T.);
#821=ORIENTED_EDGE('',*,*,#604,.T.);
#822=ORIENTED_EDGE('',*,*,#610,.T.);
#823=ORIENTED_EDGE('',*,*,#590,.F.);
#824=ORIENTED_EDGE('',*,*,#611,.T.);
#825=ORIENTED_EDGE('',*,*,#612,.F.);
#826=ORIENTED_EDGE('',*,*,#613,.F.);
#827=ORIENTED_EDGE('',*,*,#588,.F.);
#828=ORIENTED_EDGE('',*,*,#550,.T.);
#829=ORIENTED_EDGE('',*,*,#614,.F.);
#830=ORIENTED_EDGE('',*,*,#615,.F.);
#831=ORIENTED_EDGE('',*,*,#589,.F.);
#832=ORIENTED_EDGE('',*,*,#615,.T.);
#833=ORIENTED_EDGE('',*,*,#616,.F.);
#834=ORIENTED_EDGE('',*,*,#611,.F.);
#835=ORIENTED_EDGE('',*,*,#616,.T.);
#836=ORIENTED_EDGE('',*,*,#614,.T.);
#837=ORIENTED_EDGE('',*,*,#549,.T.);
#838=ORIENTED_EDGE('',*,*,#617,.T.);
#839=ORIENTED_EDGE('',*,*,#612,.T.);
#840=ORIENTED_EDGE('',*,*,#618,.T.);
#841=ORIENTED_EDGE('',*,*,#568,.T.);
#842=ORIENTED_EDGE('',*,*,#619,.T.);
#843=ORIENTED_EDGE('',*,*,#618,.F.);
#844=ORIENTED_EDGE('',*,*,#619,.F.);
#845=ORIENTED_EDGE('',*,*,#560,.T.);
#846=ORIENTED_EDGE('',*,*,#620,.T.);
#847=ORIENTED_EDGE('',*,*,#610,.F.);
#848=ORIENTED_EDGE('',*,*,#620,.F.);
#849=ORIENTED_EDGE('',*,*,#572,.T.);
#850=ORIENTED_EDGE('',*,*,#621,.T.);
#851=ORIENTED_EDGE('',*,*,#602,.F.);
#852=ORIENTED_EDGE('',*,*,#621,.F.);
#853=ORIENTED_EDGE('',*,*,#564,.T.);
#854=ORIENTED_EDGE('',*,*,#622,.T.);
#855=ORIENTED_EDGE('',*,*,#583,.F.);
#856=ORIENTED_EDGE('',*,*,#622,.F.);
#857=ORIENTED_EDGE('',*,*,#516,.F.);
#858=ORIENTED_EDGE('',*,*,#623,.F.);
#859=ORIENTED_EDGE('',*,*,#555,.T.);
#860=ORIENTED_EDGE('',*,*,#601,.F.);
#861=ORIENTED_EDGE('',*,*,#597,.F.);
#862=ORIENTED_EDGE('',*,*,#584,.F.);
#863=ORIENTED_EDGE('',*,*,#576,.T.);
#864=ORIENTED_EDGE('',*,*,#582,.F.);
#865=ORIENTED_EDGE('',*,*,#548,.F.);
#866=ORIENTED_EDGE('',*,*,#624,.F.);
#867=ORIENTED_EDGE('',*,*,#523,.F.);
#868=ORIENTED_EDGE('',*,*,#609,.F.);
#869=ORIENTED_EDGE('',*,*,#605,.F.);
#870=ORIENTED_EDGE('',*,*,#591,.F.);
#871=ORIENTED_EDGE('',*,*,#613,.T.);
#872=ORIENTED_EDGE('',*,*,#617,.F.);
#873=ORIENTED_EDGE('',*,*,#515,.T.);
#874=ORIENTED_EDGE('',*,*,#504,.T.);
#875=ORIENTED_EDGE('',*,*,#513,.F.);
#876=ORIENTED_EDGE('',*,*,#511,.F.);
#877=ORIENTED_EDGE('',*,*,#524,.T.);
#878=ORIENTED_EDGE('',*,*,#624,.T.);
#879=ORIENTED_EDGE('',*,*,#547,.T.);
#880=ORIENTED_EDGE('',*,*,#533,.T.);
#881=ORIENTED_EDGE('',*,*,#545,.F.);
#882=ORIENTED_EDGE('',*,*,#540,.F.);
#883=ORIENTED_EDGE('',*,*,#556,.T.);
#884=ORIENTED_EDGE('',*,*,#623,.T.);
#885=ORIENTED_EDGE('',*,*,#557,.T.);
#886=ORIENTED_EDGE('',*,*,#561,.T.);
#887=ORIENTED_EDGE('',*,*,#565,.T.);
#888=ORIENTED_EDGE('',*,*,#569,.T.);
#889=CYLINDRICAL_SURFACE('',#969,2.50000002980232);
#890=CYLINDRICAL_SURFACE('',#973,2.50000002980232);
#891=CYLINDRICAL_SURFACE('',#983,2.50000002980232);
#892=CYLINDRICAL_SURFACE('',#988,2.50000002980232);
#893=CYLINDRICAL_SURFACE('',#995,3.5);
#894=CYLINDRICAL_SURFACE('',#1000,3.5);
#895=CYLINDRICAL_SURFACE('',#1005,3.5);
#896=CYLINDRICAL_SURFACE('',#1010,3.5);
#897=CYLINDRICAL_SURFACE('',#1017,5.00000007450581);
#898=CYLINDRICAL_SURFACE('',#1028,5.00000007450581);
#899=CYLINDRICAL_SURFACE('',#1034,5.00000007450581);
#900=CYLINDRICAL_SURFACE('',#1040,5.00000007450581);
#901=CYLINDRICAL_SURFACE('',#1044,1.8);
#902=CYLINDRICAL_SURFACE('',#1045,1.8);
#903=CYLINDRICAL_SURFACE('',#1046,1.8);
#904=CYLINDRICAL_SURFACE('',#1047,1.8);
#905=ADVANCED_FACE('',(#61),#889,.F.);
#906=ADVANCED_FACE('',(#62),#27,.T.);
#907=ADVANCED_FACE('',(#63),#890,.F.);
#908=ADVANCED_FACE('',(#64),#28,.T.);
#909=ADVANCED_FACE('',(#65),#29,.T.);
#910=ADVANCED_FACE('',(#66),#30,.T.);
#911=ADVANCED_FACE('',(#67),#31,.F.);
#912=ADVANCED_FACE('',(#68),#32,.T.);
#913=ADVANCED_FACE('',(#69),#33,.T.);
#914=ADVANCED_FACE('',(#70),#34,.T.);
#915=ADVANCED_FACE('',(#71),#891,.F.);
#916=ADVANCED_FACE('',(#72),#35,.T.);
#917=ADVANCED_FACE('',(#73),#36,.T.);
#918=ADVANCED_FACE('',(#74),#892,.F.);
#919=ADVANCED_FACE('',(#75),#37,.T.);
#920=ADVANCED_FACE('',(#76),#38,.F.);
#921=ADVANCED_FACE('',(#77),#39,.T.);
#922=ADVANCED_FACE('',(#78),#40,.T.);
#923=ADVANCED_FACE('',(#79),#893,.F.);
#924=ADVANCED_FACE('',(#80,#15),#41,.T.);
#925=ADVANCED_FACE('',(#81),#894,.F.);
#926=ADVANCED_FACE('',(#82,#16),#42,.T.);
#927=ADVANCED_FACE('',(#83),#895,.F.);
#928=ADVANCED_FACE('',(#84,#17),#43,.T.);
#929=ADVANCED_FACE('',(#85),#896,.F.);
#930=ADVANCED_FACE('',(#86,#18),#44,.T.);
#931=ADVANCED_FACE('',(#87),#45,.T.);
#932=ADVANCED_FACE('',(#88),#46,.T.);
#933=ADVANCED_FACE('',(#89),#897,.T.);
#934=ADVANCED_FACE('',(#90,#19),#47,.T.);
#935=ADVANCED_FACE('',(#91),#48,.T.);
#936=ADVANCED_FACE('',(#92),#49,.T.);
#937=ADVANCED_FACE('',(#93),#50,.T.);
#938=ADVANCED_FACE('',(#94),#898,.T.);
#939=ADVANCED_FACE('',(#95,#20),#51,.T.);
#940=ADVANCED_FACE('',(#96),#52,.T.);
#941=ADVANCED_FACE('',(#97),#53,.T.);
#942=ADVANCED_FACE('',(#98),#899,.T.);
#943=ADVANCED_FACE('',(#99,#21),#54,.T.);
#944=ADVANCED_FACE('',(#100),#55,.T.);
#945=ADVANCED_FACE('',(#101),#56,.T.);
#946=ADVANCED_FACE('',(#102),#900,.T.);
#947=ADVANCED_FACE('',(#103,#22),#57,.T.);
#948=ADVANCED_FACE('',(#104),#901,.F.);
#949=ADVANCED_FACE('',(#105),#902,.F.);
#950=ADVANCED_FACE('',(#106),#903,.F.);
#951=ADVANCED_FACE('',(#107),#904,.F.);
#952=ADVANCED_FACE('',(#108),#58,.T.);
#953=ADVANCED_FACE('',(#109),#59,.T.);
#954=ADVANCED_FACE('',(#110,#23,#24,#25,#26),#60,.F.);
#955=CLOSED_SHELL('',(#905,#906,#907,#908,#909,#910,#911,#912,#913,#914,
#915,#916,#917,#918,#919,#920,#921,#922,#923,#924,#925,#926,#927,#928,#929,
#930,#931,#932,#933,#934,#935,#936,#937,#938,#939,#940,#941,#942,#943,#944,
#945,#946,#947,#948,#949,#950,#951,#952,#953,#954));
#956=DERIVED_UNIT_ELEMENT(#958,1.);
#957=DERIVED_UNIT_ELEMENT(#1593,-3.);
#958=(
MASS_UNIT()
NAMED_UNIT(*)
SI_UNIT(.KILO.,.GRAM.)
);
#959=DERIVED_UNIT((#956,#957));
#960=MEASURE_REPRESENTATION_ITEM('density measure',
POSITIVE_RATIO_MEASURE(7850.),#959);
#961=PROPERTY_DEFINITION_REPRESENTATION(#966,#963);
#962=PROPERTY_DEFINITION_REPRESENTATION(#967,#964);
#963=REPRESENTATION('material name',(#965),#1590);
#964=REPRESENTATION('density',(#960),#1590);
#965=DESCRIPTIVE_REPRESENTATION_ITEM('Steel','Steel');
#966=PROPERTY_DEFINITION('material property','material name',#1600);
#967=PROPERTY_DEFINITION('material property','density of part',#1600);
#968=AXIS2_PLACEMENT_3D('',#1317,#1051,#1052);
#969=AXIS2_PLACEMENT_3D('',#1318,#1053,#1054);
#970=AXIS2_PLACEMENT_3D('',#1321,#1055,#1056);
#971=AXIS2_PLACEMENT_3D('',#1325,#1058,#1059);
#972=AXIS2_PLACEMENT_3D('',#1327,#1061,#1062);
#973=AXIS2_PLACEMENT_3D('',#1333,#1066,#1067);
#974=AXIS2_PLACEMENT_3D('',#1335,#1068,#1069);
#975=AXIS2_PLACEMENT_3D('',#1337,#1070,#1071);
#976=AXIS2_PLACEMENT_3D('',#1339,#1073,#1074);
#977=AXIS2_PLACEMENT_3D('',#1349,#1080,#1081);
#978=AXIS2_PLACEMENT_3D('',#1359,#1087,#1088);
#979=AXIS2_PLACEMENT_3D('',#1361,#1090,#1091);
#980=AXIS2_PLACEMENT_3D('',#1363,#1093,#1094);
#981=AXIS2_PLACEMENT_3D('',#1373,#1100,#1101);
#982=AXIS2_PLACEMENT_3D('',#1383,#1107,#1108);
#983=AXIS2_PLACEMENT_3D('',#1392,#1113,#1114);
#984=AXIS2_PLACEMENT_3D('',#1394,#1115,#1116);
#985=AXIS2_PLACEMENT_3D('',#1396,#1117,#1118);
#986=AXIS2_PLACEMENT_3D('',#1398,#1120,#1121);
#987=AXIS2_PLACEMENT_3D('',#1408,#1127,#1128);
#988=AXIS2_PLACEMENT_3D('',#1421,#1135,#1136);
#989=AXIS2_PLACEMENT_3D('',#1422,#1137,#1138);
#990=AXIS2_PLACEMENT_3D('',#1423,#1139,#1140);
#991=AXIS2_PLACEMENT_3D('',#1424,#1141,#1142);
#992=AXIS2_PLACEMENT_3D('',#1426,#1144,#1145);
#993=AXIS2_PLACEMENT_3D('',#1428,#1147,#1148);
#994=AXIS2_PLACEMENT_3D('',#1438,#1154,#1155);
#995=AXIS2_PLACEMENT_3D('',#1448,#1161,#1162);
#996=AXIS2_PLACEMENT_3D('',#1450,#1163,#1164);
#997=AXIS2_PLACEMENT_3D('',#1453,#1166,#1167);
#998=AXIS2_PLACEMENT_3D('',#1454,#1168,#1169);
#999=AXIS2_PLACEMENT_3D('',#1456,#1170,#1171);
#1000=AXIS2_PLACEMENT_3D('',#1457,#1172,#1173);
#1001=AXIS2_PLACEMENT_3D('',#1459,#1174,#1175);
#1002=AXIS2_PLACEMENT_3D('',#1462,#1177,#1178);
#1003=AXIS2_PLACEMENT_3D('',#1463,#1179,#1180);
#1004=AXIS2_PLACEMENT_3D('',#1465,#1181,#1182);
#1005=AXIS2_PLACEMENT_3D('',#1466,#1183,#1184);
#1006=AXIS2_PLACEMENT_3D('',#1468,#1185,#1186);
#1007=AXIS2_PLACEMENT_3D('',#1471,#1188,#1189);
#1008=AXIS2_PLACEMENT_3D('',#1472,#1190,#1191);
#1009=AXIS2_PLACEMENT_3D('',#1474,#1192,#1193);
#1010=AXIS2_PLACEMENT_3D('',#1475,#1194,#1195);
#1011=AXIS2_PLACEMENT_3D('',#1477,#1196,#1197);
#1012=AXIS2_PLACEMENT_3D('',#1480,#1199,#1200);
#1013=AXIS2_PLACEMENT_3D('',#1481,#1201,#1202);
#1014=AXIS2_PLACEMENT_3D('',#1483,#1203,#1204);
#1015=AXIS2_PLACEMENT_3D('',#1484,#1205,#1206);
#1016=AXIS2_PLACEMENT_3D('',#1493,#1211,#1212);
#1017=AXIS2_PLACEMENT_3D('',#1499,#1216,#1217);
#1018=AXIS2_PLACEMENT_3D('',#1500,#1218,#1219);
#1019=AXIS2_PLACEMENT_3D('',#1501,#1220,#1221);
#1020=AXIS2_PLACEMENT_3D('',#1502,#1222,#1223);
#1021=AXIS2_PLACEMENT_3D('',#1505,#1225,#1226);
#1022=AXIS2_PLACEMENT_3D('',#1506,#1227,#1228);
#1023=AXIS2_PLACEMENT_3D('',#1512,#1231,#1232);
#1024=AXIS2_PLACEMENT_3D('',#1517,#1235,#1236);
#1025=AXIS2_PLACEMENT_3D('',#1525,#1240,#1241);
#1026=AXIS2_PLACEMENT_3D('',#1527,#1243,#1244);
#1027=AXIS2_PLACEMENT_3D('',#1531,#1247,#1248);
#1028=AXIS2_PLACEMENT_3D('',#1537,#1252,#1253);
#1029=AXIS2_PLACEMENT_3D('',#1538,#1254,#1255);
#1030=AXIS2_PLACEMENT_3D('',#1539,#1256,#1257);
#1031=AXIS2_PLACEMENT_3D('',#1542,#1259,#1260);
#1032=AXIS2_PLACEMENT_3D('',#1543,#1261,#1262);
#1033=AXIS2_PLACEMENT_3D('',#1547,#1265,#1266);
#1034=AXIS2_PLACEMENT_3D('',#1553,#1270,#1271);
#1035=AXIS2_PLACEMENT_3D('',#1554,#1272,#1273);
#1036=AXIS2_PLACEMENT_3D('',#1555,#1274,#1275);
#1037=AXIS2_PLACEMENT_3D('',#1558,#1277,#1278);
#1038=AXIS2_PLACEMENT_3D('',#1559,#1279,#1280);
#1039=AXIS2_PLACEMENT_3D('',#1565,#1284,#1285);
#1040=AXIS2_PLACEMENT_3D('',#1569,#1288,#1289);
#1041=AXIS2_PLACEMENT_3D('',#1570,#1290,#1291);
#1042=AXIS2_PLACEMENT_3D('',#1571,#1292,#1293);
#1043=AXIS2_PLACEMENT_3D('',#1574,#1295,#1296);
#1044=AXIS2_PLACEMENT_3D('',#1575,#1297,#1298);
#1045=AXIS2_PLACEMENT_3D('',#1577,#1300,#1301);
#1046=AXIS2_PLACEMENT_3D('',#1579,#1303,#1304);
#1047=AXIS2_PLACEMENT_3D('',#1581,#1306,#1307);
#1048=AXIS2_PLACEMENT_3D('',#1583,#1309,#1310);
#1049=AXIS2_PLACEMENT_3D('',#1585,#1312,#1313);
#1050=AXIS2_PLACEMENT_3D('',#1587,#1315,#1316);
#1051=DIRECTION('axis',(0.,0.,1.));
#1052=DIRECTION('refdir',(1.,0.,0.));
#1053=DIRECTION('center_axis',(1.,0.,0.));
#1054=DIRECTION('ref_axis',(0.,1.,0.));
#1055=DIRECTION('center_axis',(1.,0.,0.));
#1056=DIRECTION('ref_axis',(0.,1.,0.));
#1057=DIRECTION('',(1.,0.,0.));
#1058=DIRECTION('center_axis',(1.,0.,0.));
#1059=DIRECTION('ref_axis',(0.,1.,0.));
#1060=DIRECTION('',(1.,0.,0.));
#1061=DIRECTION('center_axis',(0.,1.,0.));
#1062=DIRECTION('ref_axis',(0.,0.,1.));
#1063=DIRECTION('',(0.,0.,-1.));
#1064=DIRECTION('',(0.,0.,-1.));
#1065=DIRECTION('',(1.,0.,0.));
#1066=DIRECTION('center_axis',(1.,0.,0.));
#1067=DIRECTION('ref_axis',(0.,-1.,0.));
#1068=DIRECTION('center_axis',(1.,0.,0.));
#1069=DIRECTION('ref_axis',(0.,-1.,0.));
#1070=DIRECTION('center_axis',(1.,0.,0.));
#1071=DIRECTION('ref_axis',(0.,-1.,0.));
#1072=DIRECTION('',(-1.,0.,0.));
#1073=DIRECTION('center_axis',(0.,0.,-1.));
#1074=DIRECTION('ref_axis',(0.,1.,0.));
#1075=DIRECTION('',(0.,1.,0.));
#1076=DIRECTION('',(1.,0.,0.));
#1077=DIRECTION('',(0.,1.,0.));
#1078=DIRECTION('',(-1.,0.,0.));
#1079=DIRECTION('',(0.,-1.,0.));
#1080=DIRECTION('center_axis',(0.,0.,1.));
#1081=DIRECTION('ref_axis',(0.,-1.,0.));
#1082=DIRECTION('',(0.,-1.,0.));
#1083=DIRECTION('',(-1.,0.,0.));
#1084=DIRECTION('',(0.,-1.,0.));
#1085=DIRECTION('',(1.,0.,0.));
#1086=DIRECTION('',(0.,-1.,0.));
#1087=DIRECTION('center_axis',(1.,0.,0.));
#1088=DIRECTION('ref_axis',(0.,0.,-1.));
#1089=DIRECTION('',(0.,0.,-1.));
#1090=DIRECTION('center_axis',(1.,0.,0.));
#1091=DIRECTION('ref_axis',(0.,0.,-1.));
#1092=DIRECTION('',(0.,0.,-1.));
#1093=DIRECTION('center_axis',(1.,0.,0.));
#1094=DIRECTION('ref_axis',(0.,0.,1.));
#1095=DIRECTION('',(0.,0.,1.));
#1096=DIRECTION('',(0.,-1.,0.));
#1097=DIRECTION('',(0.,0.,1.));
#1098=DIRECTION('',(0.,-1.,0.));
#1099=DIRECTION('',(0.,0.,1.));
#1100=DIRECTION('center_axis',(1.,0.,0.));
#1101=DIRECTION('ref_axis',(0.,0.,1.));
#1102=DIRECTION('',(0.,0.,1.));
#1103=DIRECTION('',(0.,1.,0.));
#1104=DIRECTION('',(0.,0.,1.));
#1105=DIRECTION('',(0.,1.,0.));
#1106=DIRECTION('',(0.,0.,1.));
#1107=DIRECTION('center_axis',(0.,1.,0.));
#1108=DIRECTION('ref_axis',(0.,0.,-1.));
#1109=DIRECTION('',(0.,0.,1.));
#1110=DIRECTION('',(-1.,0.,0.));
#1111=DIRECTION('',(0.,0.,1.));
#1112=DIRECTION('',(-1.,0.,0.));
#1113=DIRECTION('center_axis',(-1.,0.,0.));
#1114=DIRECTION('ref_axis',(0.,-1.,0.));
#1115=DIRECTION('center_axis',(-1.,0.,0.));
#1116=DIRECTION('ref_axis',(0.,-1.,0.));
#1117=DIRECTION('center_axis',(-1.,0.,0.));
#1118=DIRECTION('ref_axis',(0.,-1.,0.));
#1119=DIRECTION('',(1.,0.,0.));
#1120=DIRECTION('center_axis',(0.,0.,1.));
#1121=DIRECTION('ref_axis',(0.,1.,0.));
#1122=DIRECTION('',(0.,1.,0.));
#1123=DIRECTION('',(-1.,0.,0.));
#1124=DIRECTION('',(0.,1.,0.));
#1125=DIRECTION('',(1.,0.,0.));
#1126=DIRECTION('',(0.,-1.,0.));
#1127=DIRECTION('center_axis',(0.,0.,-1.));
#1128=DIRECTION('ref_axis',(0.,-1.,0.));
#1129=DIRECTION('',(0.,-1.,0.));
#1130=DIRECTION('',(1.,0.,0.));
#1131=DIRECTION('',(0.,-1.,0.));
#1132=DIRECTION('',(-1.,0.,0.));
#1133=DIRECTION('',(0.,-1.,0.));
#1134=DIRECTION('',(-1.,0.,0.));
#1135=DIRECTION('center_axis',(-1.,0.,0.));
#1136=DIRECTION('ref_axis',(0.,1.,0.));
#1137=DIRECTION('center_axis',(-1.,0.,0.));
#1138=DIRECTION('ref_axis',(0.,1.,0.));
#1139=DIRECTION('center_axis',(-1.,0.,0.));
#1140=DIRECTION('ref_axis',(0.,1.,0.));
#1141=DIRECTION('center_axis',(-1.,0.,0.));
#1142=DIRECTION('ref_axis',(0.,0.,1.));
#1143=DIRECTION('',(0.,-8.95341148891255E-18,1.));
#1144=DIRECTION('center_axis',(-1.,0.,0.));
#1145=DIRECTION('ref_axis',(0.,0.,1.));
#1146=DIRECTION('',(0.,0.,1.));
#1147=DIRECTION('center_axis',(-1.,0.,0.));
#1148=DIRECTION('ref_axis',(0.,0.,-1.));
#1149=DIRECTION('',(0.,0.,-1.));
#1150=DIRECTION('',(0.,-1.,0.));
#1151=DIRECTION('',(0.,0.,-1.));
#1152=DIRECTION('',(0.,-1.,0.));
#1153=DIRECTION('',(0.,0.,-1.));
#1154=DIRECTION('center_axis',(-1.,0.,0.));
#1155=DIRECTION('ref_axis',(0.,0.,-1.));
#1156=DIRECTION('',(0.,0.,-1.));
#1157=DIRECTION('',(0.,1.,0.));
#1158=DIRECTION('',(0.,0.,-1.));
#1159=DIRECTION('',(0.,-1.,0.));
#1160=DIRECTION('',(0.,0.,-1.));
#1161=DIRECTION('center_axis',(0.,1.,0.));
#1162=DIRECTION('ref_axis',(1.,0.,0.));
#1163=DIRECTION('center_axis',(0.,1.,0.));
#1164=DIRECTION('ref_axis',(1.,0.,0.));
#1165=DIRECTION('',(0.,1.,0.));
#1166=DIRECTION('center_axis',(0.,1.,0.));
#1167=DIRECTION('ref_axis',(1.,0.,0.));
#1168=DIRECTION('center_axis',(0.,-1.,0.));
#1169=DIRECTION('ref_axis',(1.,0.,0.));
#1170=DIRECTION('center_axis',(0.,-1.,0.));
#1171=DIRECTION('ref_axis',(1.,0.,0.));
#1172=DIRECTION('center_axis',(0.,1.,0.));
#1173=DIRECTION('ref_axis',(1.,0.,0.));
#1174=DIRECTION('center_axis',(0.,1.,0.));
#1175=DIRECTION('ref_axis',(1.,0.,0.));
#1176=DIRECTION('',(0.,1.,0.));
#1177=DIRECTION('center_axis',(0.,1.,0.));
#1178=DIRECTION('ref_axis',(1.,0.,0.));
#1179=DIRECTION('center_axis',(0.,-1.,0.));
#1180=DIRECTION('ref_axis',(1.,0.,0.));
#1181=DIRECTION('center_axis',(0.,-1.,0.));
#1182=DIRECTION('ref_axis',(1.,0.,0.));
#1183=DIRECTION('center_axis',(0.,1.,0.));
#1184=DIRECTION('ref_axis',(1.,0.,0.));
#1185=DIRECTION('center_axis',(0.,1.,0.));
#1186=DIRECTION('ref_axis',(1.,0.,0.));
#1187=DIRECTION('',(0.,1.,0.));
#1188=DIRECTION('center_axis',(0.,1.,0.));
#1189=DIRECTION('ref_axis',(1.,0.,0.));
#1190=DIRECTION('center_axis',(0.,-1.,0.));
#1191=DIRECTION('ref_axis',(1.,0.,0.));
#1192=DIRECTION('center_axis',(0.,-1.,0.));
#1193=DIRECTION('ref_axis',(1.,0.,0.));
#1194=DIRECTION('center_axis',(0.,1.,0.));
#1195=DIRECTION('ref_axis',(1.,0.,0.));
#1196=DIRECTION('center_axis',(0.,1.,0.));
#1197=DIRECTION('ref_axis',(1.,0.,0.));
#1198=DIRECTION('',(0.,1.,0.));
#1199=DIRECTION('center_axis',(0.,1.,0.));
#1200=DIRECTION('ref_axis',(1.,0.,0.));
#1201=DIRECTION('center_axis',(0.,-1.,0.));
#1202=DIRECTION('ref_axis',(1.,0.,0.));
#1203=DIRECTION('center_axis',(0.,-1.,0.));
#1204=DIRECTION('ref_axis',(1.,0.,0.));
#1205=DIRECTION('center_axis',(-1.,0.,0.));
#1206=DIRECTION('ref_axis',(0.,0.,1.));
#1207=DIRECTION('',(0.,0.,-1.));
#1208=DIRECTION('',(0.,1.,0.));
#1209=DIRECTION('',(0.,0.,1.));
#1210=DIRECTION('',(0.,1.,0.));
#1211=DIRECTION('center_axis',(0.,0.,1.));
#1212=DIRECTION('ref_axis',(1.,0.,0.));
#1213=DIRECTION('',(-1.,0.,0.));
#1214=DIRECTION('',(1.,0.,0.));
#1215=DIRECTION('',(0.,1.,0.));
#1216=DIRECTION('center_axis',(0.,1.,0.));
#1217=DIRECTION('ref_axis',(-1.,0.,0.));
#1218=DIRECTION('center_axis',(0.,-1.,0.));
#1219=DIRECTION('ref_axis',(-1.,0.,0.));
#1220=DIRECTION('center_axis',(0.,1.,0.));
#1221=DIRECTION('ref_axis',(-1.,0.,0.));
#1222=DIRECTION('center_axis',(0.,1.,0.));
#1223=DIRECTION('ref_axis',(1.,0.,0.));
#1224=DIRECTION('',(1.,0.,0.));
#1225=DIRECTION('center_axis',(0.,-1.,0.));
#1226=DIRECTION('ref_axis',(1.,0.,0.));
#1227=DIRECTION('center_axis',(0.,1.,0.));
#1228=DIRECTION('ref_axis',(1.,0.,0.));
#1229=DIRECTION('',(1.,0.,0.));
#1230=DIRECTION('',(3.70074394848921E-16,0.,1.));
#1231=DIRECTION('center_axis',(0.,-1.,0.));
#1232=DIRECTION('ref_axis',(0.,0.,1.));
#1233=DIRECTION('',(-1.,0.,0.));
#1234=DIRECTION('',(1.,0.,0.));
#1235=DIRECTION('center_axis',(0.,-1.,0.));
#1236=DIRECTION('ref_axis',(1.,0.,0.));
#1237=DIRECTION('',(0.,0.,1.));
#1238=DIRECTION('',(-1.,0.,0.));
#1239=DIRECTION('',(0.,0.,-1.));
#1240=DIRECTION('center_axis',(0.,-1.,0.));
#1241=DIRECTION('ref_axis',(0.,0.,-1.));
#1242=DIRECTION('',(1.,0.,-3.70074394848921E-16));
#1243=DIRECTION('center_axis',(0.,0.,1.));
#1244=DIRECTION('ref_axis',(1.,0.,0.));
#1245=DIRECTION('',(0.,1.,0.));
#1246=DIRECTION('',(1.,0.,0.));
#1247=DIRECTION('center_axis',(1.,0.,-3.70074394848921E-16));
#1248=DIRECTION('ref_axis',(-3.70074394848921E-16,0.,-1.));
#1249=DIRECTION('',(0.,-1.,0.));
#1250=DIRECTION('',(-3.70074394848921E-16,0.,-1.));
#1251=DIRECTION('',(0.,1.,0.));
#1252=DIRECTION('center_axis',(0.,1.,0.));
#1253=DIRECTION('ref_axis',(0.,0.,1.));
#1254=DIRECTION('center_axis',(0.,1.,0.));
#1255=DIRECTION('ref_axis',(0.,0.,1.));
#1256=DIRECTION('center_axis',(0.,1.,0.));
#1257=DIRECTION('ref_axis',(1.,0.,0.));
#1258=DIRECTION('',(1.,0.,0.));
#1259=DIRECTION('center_axis',(0.,-1.,0.));
#1260=DIRECTION('ref_axis',(1.,0.,0.));
#1261=DIRECTION('center_axis',(-3.70074394848921E-16,0.,-1.));
#1262=DIRECTION('ref_axis',(-1.,0.,3.70074394848921E-16));
#1263=DIRECTION('',(0.,1.,0.));
#1264=DIRECTION('',(-1.,0.,3.70074394848921E-16));
#1265=DIRECTION('center_axis',(-1.,0.,0.));
#1266=DIRECTION('ref_axis',(0.,0.,1.));
#1267=DIRECTION('',(0.,-1.,0.));
#1268=DIRECTION('',(0.,0.,1.));
#1269=DIRECTION('',(0.,1.,0.));
#1270=DIRECTION('center_axis',(0.,1.,0.));
#1271=DIRECTION('ref_axis',(0.,0.,-1.));
#1272=DIRECTION('center_axis',(0.,1.,0.));
#1273=DIRECTION('ref_axis',(0.,0.,-1.));
#1274=DIRECTION('center_axis',(0.,1.,0.));
#1275=DIRECTION('ref_axis',(1.,0.,0.));
#1276=DIRECTION('',(-1.,0.,0.));
#1277=DIRECTION('center_axis',(0.,-1.,0.));
#1278=DIRECTION('ref_axis',(1.,0.,0.));
#1279=DIRECTION('center_axis',(1.,0.,0.));
#1280=DIRECTION('ref_axis',(0.,0.,-1.));
#1281=DIRECTION('',(0.,1.,0.));
#1282=DIRECTION('',(0.,0.,-1.));
#1283=DIRECTION('',(0.,1.,0.));
#1284=DIRECTION('center_axis',(0.,0.,-1.));
#1285=DIRECTION('ref_axis',(-1.,0.,0.));
#1286=DIRECTION('',(-1.,0.,0.));
#1287=DIRECTION('',(0.,1.,0.));
#1288=DIRECTION('center_axis',(0.,1.,0.));
#1289=DIRECTION('ref_axis',(1.,0.,0.));
#1290=DIRECTION('center_axis',(0.,1.,0.));
#1291=DIRECTION('ref_axis',(1.,0.,0.));
#1292=DIRECTION('center_axis',(0.,1.,0.));
#1293=DIRECTION('ref_axis',(1.,0.,0.));
#1294=DIRECTION('',(-1.,0.,0.));
#1295=DIRECTION('center_axis',(0.,-1.,0.));
#1296=DIRECTION('ref_axis',(1.,0.,0.));
#1297=DIRECTION('center_axis',(0.,-1.,0.));
#1298=DIRECTION('ref_axis',(1.,0.,0.));
#1299=DIRECTION('',(0.,1.,0.));
#1300=DIRECTION('center_axis',(0.,-1.,0.));
#1301=DIRECTION('ref_axis',(1.,0.,0.));
#1302=DIRECTION('',(0.,1.,0.));
#1303=DIRECTION('center_axis',(0.,-1.,0.));
#1304=DIRECTION('ref_axis',(1.,0.,0.));
#1305=DIRECTION('',(0.,1.,0.));
#1306=DIRECTION('center_axis',(0.,-1.,0.));
#1307=DIRECTION('ref_axis',(1.,0.,0.));
#1308=DIRECTION('',(0.,1.,0.));
#1309=DIRECTION('center_axis',(0.,0.,-1.));
#1310=DIRECTION('ref_axis',(1.,0.,0.));
#1311=DIRECTION('',(1.,0.,0.));
#1312=DIRECTION('center_axis',(0.,0.,1.));
#1313=DIRECTION('ref_axis',(-1.,0.,0.));
#1314=DIRECTION('',(-1.,0.,0.));
#1315=DIRECTION('center_axis',(0.,1.,0.));
#1316=DIRECTION('ref_axis',(1.,0.,0.));
#1317=CARTESIAN_POINT('',(0.,0.,0.));
#1318=CARTESIAN_POINT('Origin',(66.0000000298023,6.79999986588955,-22.6499994784594));
#1319=CARTESIAN_POINT('',(66.0000000298023,5.29999985595544,-20.649999448657));
#1320=CARTESIAN_POINT('',(66.0000000298023,4.29999983608723,-22.6499994784594));
#1321=CARTESIAN_POINT('Origin',(66.0000000298023,6.79999986588955,-22.6499994784594));
#1322=CARTESIAN_POINT('',(68.0000000298023,5.29999985595544,-20.649999448657));
#1323=CARTESIAN_POINT('',(66.0000000298023,5.29999985595544,-20.649999448657));
#1324=CARTESIAN_POINT('',(68.0000000298023,4.29999983608723,-22.6499994784594));
#1325=CARTESIAN_POINT('Origin',(68.0000000298023,6.79999986588955,-22.6499994784594));
#1326=CARTESIAN_POINT('',(66.0000000298023,4.29999983608723,-22.6499994784594));
#1327=CARTESIAN_POINT('Origin',(66.0000000298023,4.29999983608723,-47.3499994784594));
#1328=CARTESIAN_POINT('',(66.0000000298023,4.29999983608723,-47.3499994784594));
#1329=CARTESIAN_POINT('',(66.0000000298023,4.29999983608723,-41.1749994784594));
#1330=CARTESIAN_POINT('',(68.0000000298023,4.29999983608723,-47.3499994784594));
#1331=CARTESIAN_POINT('',(68.0000000298023,4.29999983608723,-41.1749994784594));
#1332=CARTESIAN_POINT('',(66.0000000298023,4.29999983608723,-47.3499994784594));
#1333=CARTESIAN_POINT('Origin',(66.0000000298023,6.79999986588955,-47.3499994784594));
#1334=CARTESIAN_POINT('',(66.0000000298023,5.29999985595544,-49.3499995082617));
#1335=CARTESIAN_POINT('Origin',(66.0000000298023,6.79999986588955,-47.3499994784594));
#1336=CARTESIAN_POINT('',(68.0000000298023,5.29999985595544,-49.3499995082617));
#1337=CARTESIAN_POINT('Origin',(68.0000000298023,6.79999986588955,-47.3499994784594));
#1338=CARTESIAN_POINT('',(66.0000000298023,5.29999985595544,-49.3499995082617));
#1339=CARTESIAN_POINT('Origin',(66.0000000298023,-2.00000025331974,-49.3499995082617));
#1340=CARTESIAN_POINT('',(68.0000000298023,-2.00000025331974,-49.3499995082617));
#1341=CARTESIAN_POINT('',(68.0000000298023,6.79999986588955,-49.3499995082617));
#1342=CARTESIAN_POINT('',(65.5000000298023,-2.00000025331974,-49.3499995082617));
#1343=CARTESIAN_POINT('',(66.0000000298023,-2.00000025331974,-49.3499995082617));
#1344=CARTESIAN_POINT('',(65.5000000298023,0.,-49.3499995082617));
#1345=CARTESIAN_POINT('',(65.5000000298023,-1.00000012665987,-49.3499995082617));
#1346=CARTESIAN_POINT('',(66.0000000298023,0.,-49.3499995082617));
#1347=CARTESIAN_POINT('',(50.5000000298023,0.,-49.3499995082617));
#1348=CARTESIAN_POINT('',(66.0000000298023,6.79999986588955,-49.3499995082617));
#1349=CARTESIAN_POINT('Origin',(66.0000000298023,6.79999986588955,-20.649999448657));
#1350=CARTESIAN_POINT('',(66.0000000298023,0.,-20.649999448657));
#1351=CARTESIAN_POINT('',(66.0000000298023,6.79999986588955,-20.649999448657));
#1352=CARTESIAN_POINT('',(65.5000000298023,0.,-20.649999448657));
#1353=CARTESIAN_POINT('',(50.5000000298023,0.,-20.649999448657));
#1354=CARTESIAN_POINT('',(65.5000000298023,-2.00000025331974,-20.649999448657));
#1355=CARTESIAN_POINT('',(65.5000000298023,3.39999993294477,-20.649999448657));
#1356=CARTESIAN_POINT('',(68.0000000298023,-2.00000025331974,-20.649999448657));
#1357=CARTESIAN_POINT('',(66.0000000298023,-2.00000025331974,-20.649999448657));
#1358=CARTESIAN_POINT('',(68.0000000298023,6.79999986588955,-20.649999448657));
#1359=CARTESIAN_POINT('Origin',(68.0000000298023,2.3999998062849,-34.9999994784594));
#1360=CARTESIAN_POINT('',(68.0000000298023,-2.00000025331974,-20.649999448657));
#1361=CARTESIAN_POINT('Origin',(66.0000000298023,2.3999998062849,-34.9999994784594));
#1362=CARTESIAN_POINT('',(66.0000000298023,0.,-4.00000002980232));
#1363=CARTESIAN_POINT('Origin',(65.5000000298023,0.,-66.0000000298023));
#1364=CARTESIAN_POINT('',(65.5000000298023,-2.,-65.5000000298023));
#1365=CARTESIAN_POINT('',(65.5000000298023,-2.,-50.5000000298023));
#1366=CARTESIAN_POINT('',(65.5000000298023,3.,-65.5000000298023));
#1367=CARTESIAN_POINT('',(65.5000000298023,0.,-65.5000000298023));
#1368=CARTESIAN_POINT('',(65.5000000298023,3.,-55.0000008195639));
#1369=CARTESIAN_POINT('',(65.5000000298023,3.,-63.2500002272427));
#1370=CARTESIAN_POINT('',(65.5000000298023,0.,-55.0000008195639));
#1371=CARTESIAN_POINT('',(65.5000000298023,0.,-55.0000008195639));
#1372=CARTESIAN_POINT('',(65.5000000298023,0.,-50.5000000298023));
#1373=CARTESIAN_POINT('Origin',(65.5000000298023,0.,-66.0000000298023));
#1374=CARTESIAN_POINT('',(65.5000000298023,0.,-15.0000002235174));
#1375=CARTESIAN_POINT('',(65.5000000298023,0.,-50.5000000298023));
#1376=CARTESIAN_POINT('',(65.5000000298023,3.,-15.0000002235174));
#1377=CARTESIAN_POINT('',(65.5000000298023,0.,-15.0000002235174));
#1378=CARTESIAN_POINT('',(65.5000000298023,3.,-4.50000002980232));
#1379=CARTESIAN_POINT('',(65.5000000298023,3.,-37.7500000782311));
#1380=CARTESIAN_POINT('',(65.5000000298023,-2.,-4.50000002980232));
#1381=CARTESIAN_POINT('',(65.5000000298023,0.,-4.50000002980232));
#1382=CARTESIAN_POINT('',(65.5000000298023,-2.,-50.5000000298023));
#1383=CARTESIAN_POINT('Origin',(4.00000002980232,4.29999983608723,-22.6500005215406));
#1384=CARTESIAN_POINT('',(4.00000002980232,4.29999983608723,-47.3500005215406));
#1385=CARTESIAN_POINT('',(4.00000002980232,4.29999983608723,-22.6500005215406));
#1386=CARTESIAN_POINT('',(4.00000002980232,4.29999983608723,-28.8250005215406));
#1387=CARTESIAN_POINT('',(2.00000002980232,4.29999983608723,-47.3500005215406));
#1388=CARTESIAN_POINT('',(4.00000002980232,4.29999983608723,-47.3500005215406));
#1389=CARTESIAN_POINT('',(2.00000002980232,4.29999983608723,-22.6500005215406));
#1390=CARTESIAN_POINT('',(2.00000002980232,4.29999983608723,-28.8250005215406));
#1391=CARTESIAN_POINT('',(4.00000002980232,4.29999983608723,-22.6500005215406));
#1392=CARTESIAN_POINT('Origin',(4.00000002980232,6.79999986588955,-22.6500005215406));
#1393=CARTESIAN_POINT('',(4.00000002980232,5.29999985595544,-20.6500004917383));
#1394=CARTESIAN_POINT('Origin',(4.00000002980232,6.79999986588955,-22.6500005215406));
#1395=CARTESIAN_POINT('',(2.00000002980232,5.29999985595544,-20.6500004917383));
#1396=CARTESIAN_POINT('Origin',(2.00000002980232,6.79999986588955,-22.6500005215406));
#1397=CARTESIAN_POINT('',(4.00000002980232,5.29999985595544,-20.6500004917383));
#1398=CARTESIAN_POINT('Origin',(4.00000002980232,-2.,-20.6500004917383));
#1399=CARTESIAN_POINT('',(2.00000002980232,-2.,-20.6500004917383));
#1400=CARTESIAN_POINT('',(2.00000002980232,6.79999986588955,-20.6500004917383));
#1401=CARTESIAN_POINT('',(4.50000002980232,-2.,-20.6500004917383));
#1402=CARTESIAN_POINT('',(4.00000002980232,-2.,-20.6500004917383));
#1403=CARTESIAN_POINT('',(4.50000002980232,0.,-20.6500004917383));
#1404=CARTESIAN_POINT('',(4.50000002980232,-1.,-20.6500004917383));
#1405=CARTESIAN_POINT('',(4.00000002980232,0.,-20.6500004917383));
#1406=CARTESIAN_POINT('',(19.5000000298023,0.,-20.6500004917383));
#1407=CARTESIAN_POINT('',(4.00000002980232,6.79999986588955,-20.6500004917383));
#1408=CARTESIAN_POINT('Origin',(4.00000002980232,6.79999986588955,-49.350000551343));
#1409=CARTESIAN_POINT('',(4.00000002980232,5.29999985595544,-49.350000551343));
#1410=CARTESIAN_POINT('',(4.00000002980232,0.,-49.350000551343));
#1411=CARTESIAN_POINT('',(4.00000002980232,6.79999986588955,-49.350000551343));
#1412=CARTESIAN_POINT('',(4.50000002980232,0.,-49.350000551343));
#1413=CARTESIAN_POINT('',(19.5000000298023,0.,-49.350000551343));
#1414=CARTESIAN_POINT('',(4.50000002980232,-2.,-49.350000551343));
#1415=CARTESIAN_POINT('',(4.50000002980232,3.39999993294477,-49.350000551343));
#1416=CARTESIAN_POINT('',(2.00000002980232,-2.,-49.350000551343));
#1417=CARTESIAN_POINT('',(4.00000002980232,-2.,-49.350000551343));
#1418=CARTESIAN_POINT('',(2.00000002980232,5.29999985595544,-49.350000551343));
#1419=CARTESIAN_POINT('',(2.00000002980232,6.79999986588955,-49.350000551343));
#1420=CARTESIAN_POINT('',(4.00000002980232,5.29999985595544,-49.350000551343));
#1421=CARTESIAN_POINT('Origin',(4.00000002980232,6.79999986588955,-47.3500005215406));
#1422=CARTESIAN_POINT('Origin',(4.00000002980232,6.79999986588955,-47.3500005215406));
#1423=CARTESIAN_POINT('Origin',(2.00000002980232,6.79999986588955,-47.3500005215406));
#1424=CARTESIAN_POINT('Origin',(2.00000002980232,2.3999998062849,-35.0000005215406));
#1425=CARTESIAN_POINT('',(2.00000002980232,-2.,-66.0000000298023));
#1426=CARTESIAN_POINT('Origin',(4.00000002980232,2.3999998062849,-35.0000005215406));
#1427=CARTESIAN_POINT('',(4.00000002980232,0.,-66.0000000298023));
#1428=CARTESIAN_POINT('Origin',(4.50000002980232,0.,-4.00000002980232));
#1429=CARTESIAN_POINT('',(4.50000002980232,-2.,-4.50000002980232));
#1430=CARTESIAN_POINT('',(4.50000002980232,-2.,-19.5000000298023));
#1431=CARTESIAN_POINT('',(4.50000002980232,3.,-4.50000002980232));
#1432=CARTESIAN_POINT('',(4.50000002980232,0.,-4.50000002980232));
#1433=CARTESIAN_POINT('',(4.50000002980232,3.,-15.0000002235174));
#1434=CARTESIAN_POINT('',(4.50000002980232,3.,-6.7500000782311));
#1435=CARTESIAN_POINT('',(4.50000002980232,0.,-15.0000002235174));
#1436=CARTESIAN_POINT('',(4.50000002980232,0.,-15.0000002235174));
#1437=CARTESIAN_POINT('',(4.50000002980232,0.,-19.5000000298023));
#1438=CARTESIAN_POINT('Origin',(4.50000002980232,0.,-4.00000002980232));
#1439=CARTESIAN_POINT('',(4.50000002980232,0.,-55.0000008195639));
#1440=CARTESIAN_POINT('',(4.50000002980232,0.,-19.5000000298023));
#1441=CARTESIAN_POINT('',(4.50000002980232,3.,-55.0000008195639));
#1442=CARTESIAN_POINT('',(4.50000002980232,0.,-55.0000008195639));
#1443=CARTESIAN_POINT('',(4.50000002980232,3.,-65.5000000298023));
#1444=CARTESIAN_POINT('',(4.50000002980232,3.,-32.2500002272427));
#1445=CARTESIAN_POINT('',(4.50000002980232,-2.,-65.5000000298023));
#1446=CARTESIAN_POINT('',(4.50000002980232,0.,-65.5000000298023));
#1447=CARTESIAN_POINT('',(4.50000002980232,-2.,-19.5000000298023));
#1448=CARTESIAN_POINT('Origin',(60.0000008940697,-2.,-10.0000001490116));
#1449=CARTESIAN_POINT('',(56.5000008940697,-2.,-10.0000001490116));
#1450=CARTESIAN_POINT('Origin',(60.0000008940697,-2.,-10.0000001490116));
#1451=CARTESIAN_POINT('',(56.5000008940697,1.,-10.0000001490116));
#1452=CARTESIAN_POINT('',(56.5000008940697,-2.,-10.0000001490116));
#1453=CARTESIAN_POINT('Origin',(60.0000008940697,1.,-10.0000001490116));
#1454=CARTESIAN_POINT('Origin',(60.0000008940697,1.,-10.0000001490116));
#1455=CARTESIAN_POINT('',(58.2000008940697,1.,-10.0000001490116));
#1456=CARTESIAN_POINT('Origin',(60.0000008940697,1.,-10.0000001490116));
#1457=CARTESIAN_POINT('Origin',(60.0000008940697,-2.,-60.0000008940697));
#1458=CARTESIAN_POINT('',(56.5000008940697,-2.,-60.0000008940697));
#1459=CARTESIAN_POINT('Origin',(60.0000008940697,-2.,-60.0000008940697));
#1460=CARTESIAN_POINT('',(56.5000008940697,1.,-60.0000008940697));
#1461=CARTESIAN_POINT('',(56.5000008940697,-2.,-60.0000008940697));
#1462=CARTESIAN_POINT('Origin',(60.0000008940697,1.,-60.0000008940697));
#1463=CARTESIAN_POINT('Origin',(60.0000008940697,1.,-60.0000008940697));
#1464=CARTESIAN_POINT('',(58.2000008940697,1.,-60.0000008940697));
#1465=CARTESIAN_POINT('Origin',(60.0000008940697,1.,-60.0000008940697));
#1466=CARTESIAN_POINT('Origin',(10.0000001490116,-2.,-10.0000001490116));
#1467=CARTESIAN_POINT('',(6.50000014901161,-2.,-10.0000001490116));
#1468=CARTESIAN_POINT('Origin',(10.0000001490116,-2.,-10.0000001490116));
#1469=CARTESIAN_POINT('',(6.50000014901161,1.,-10.0000001490116));
#1470=CARTESIAN_POINT('',(6.50000014901161,-2.,-10.0000001490116));
#1471=CARTESIAN_POINT('Origin',(10.0000001490116,1.,-10.0000001490116));
#1472=CARTESIAN_POINT('Origin',(10.0000001490116,1.,-10.0000001490116));
#1473=CARTESIAN_POINT('',(8.20000014901161,1.,-10.0000001490116));
#1474=CARTESIAN_POINT('Origin',(10.0000001490116,1.,-10.0000001490116));
#1475=CARTESIAN_POINT('Origin',(10.0000001490116,-2.,-60.0000008940697));
#1476=CARTESIAN_POINT('',(6.50000014901161,-2.,-60.0000008940697));
#1477=CARTESIAN_POINT('Origin',(10.0000001490116,-2.,-60.0000008940697));
#1478=CARTESIAN_POINT('',(6.50000014901161,1.,-60.0000008940697));
#1479=CARTESIAN_POINT('',(6.50000014901161,-2.,-60.0000008940697));
#1480=CARTESIAN_POINT('Origin',(10.0000001490116,1.,-60.0000008940697));
#1481=CARTESIAN_POINT('Origin',(10.0000001490116,1.,-60.0000008940697));
#1482=CARTESIAN_POINT('',(8.20000014901161,1.,-60.0000008940697));
#1483=CARTESIAN_POINT('Origin',(10.0000001490116,1.,-60.0000008940697));
#1484=CARTESIAN_POINT('Origin',(55.0000008195639,0.,-66.0000000298023));
#1485=CARTESIAN_POINT('',(55.0000008195639,0.,-60.0000008940697));
#1486=CARTESIAN_POINT('',(55.0000008195639,0.,-65.5000000298023));
#1487=CARTESIAN_POINT('',(55.0000008195639,0.,-50.5000000298023));
#1488=CARTESIAN_POINT('',(55.0000008195639,3.,-60.0000008940697));
#1489=CARTESIAN_POINT('',(55.0000008195639,0.,-60.0000008940697));
#1490=CARTESIAN_POINT('',(55.0000008195639,3.,-65.5000000298023));
#1491=CARTESIAN_POINT('',(55.0000008195639,3.,-60.0000008940697));
#1492=CARTESIAN_POINT('',(55.0000008195639,0.,-65.5000000298023));
#1493=CARTESIAN_POINT('Origin',(60.0000008940697,0.,-55.0000008195639));
#1494=CARTESIAN_POINT('',(60.0000008940697,0.,-55.0000008195639));
#1495=CARTESIAN_POINT('',(47.500000461936,0.,-55.0000008195639));
#1496=CARTESIAN_POINT('',(60.0000008940697,3.,-55.0000008195639));
#1497=CARTESIAN_POINT('',(60.0000008940697,3.,-55.0000008195639));
#1498=CARTESIAN_POINT('',(60.0000008940697,0.,-55.0000008195639));
#1499=CARTESIAN_POINT('Origin',(60.0000008940697,0.,-60.0000008940697));
#1500=CARTESIAN_POINT('Origin',(60.0000008940697,0.,-60.0000008940697));
#1501=CARTESIAN_POINT('Origin',(60.0000008940697,3.,-60.0000008940697));
#1502=CARTESIAN_POINT('Origin',(60.5000004246831,3.,-60.5000004246831));
#1503=CARTESIAN_POINT('',(32.2500002272427,3.,-65.5000000298023));
#1504=CARTESIAN_POINT('',(58.2000008940697,3.,-60.0000008940697));
#1505=CARTESIAN_POINT('Origin',(60.0000008940697,3.,-60.0000008940697));
#1506=CARTESIAN_POINT('Origin',(35.0000000298023,0.,-35.0000000298023));
#1507=CARTESIAN_POINT('',(15.0000002235174,0.,-65.5000000298023));
#1508=CARTESIAN_POINT('',(19.5000000298023,0.,-65.5000000298023));
#1509=CARTESIAN_POINT('',(15.0000002235174,0.,-60.0000008940697));
#1510=CARTESIAN_POINT('',(15.0000002235174,0.,-47.500000461936));
#1511=CARTESIAN_POINT('',(10.0000001490116,0.,-55.0000008195639));
#1512=CARTESIAN_POINT('Origin',(10.0000001490116,0.,-60.0000008940697));
#1513=CARTESIAN_POINT('',(19.5000000298023,0.,-55.0000008195639));
#1514=CARTESIAN_POINT('',(10.0000001490116,0.,-15.0000002235174));
#1515=CARTESIAN_POINT('',(22.500000089407,0.,-15.0000002235174));
#1516=CARTESIAN_POINT('',(15.0000002235174,0.,-10.0000001490116));
#1517=CARTESIAN_POINT('Origin',(10.0000001490116,0.,-10.0000001490116));
#1518=CARTESIAN_POINT('',(15.0000002235174,0.,-4.50000002980232));
#1519=CARTESIAN_POINT('',(15.0000002235174,0.,-19.5000000298023));
#1520=CARTESIAN_POINT('',(55.0000008195639,0.,-4.50000002980232));
#1521=CARTESIAN_POINT('',(50.5000000298023,0.,-4.50000002980232));
#1522=CARTESIAN_POINT('',(55.0000008195639,0.,-10.0000001490116));
#1523=CARTESIAN_POINT('',(55.0000008195639,0.,-22.500000089407));
#1524=CARTESIAN_POINT('',(60.0000008940697,0.,-15.0000002235174));
#1525=CARTESIAN_POINT('Origin',(60.0000008940697,0.,-10.0000001490116));
#1526=CARTESIAN_POINT('',(50.5000000298023,0.,-15.0000002235174));
#1527=CARTESIAN_POINT('Origin',(4.00000002980232,0.,-55.0000008195639));
#1528=CARTESIAN_POINT('',(10.0000001490116,3.,-55.0000008195639));
#1529=CARTESIAN_POINT('',(10.0000001490116,0.,-55.0000008195639));
#1530=CARTESIAN_POINT('',(10.0000001490116,3.,-55.0000008195639));
#1531=CARTESIAN_POINT('Origin',(15.0000002235174,0.,-60.0000008940697));
#1532=CARTESIAN_POINT('',(15.0000002235174,3.,-65.5000000298023));
#1533=CARTESIAN_POINT('',(15.0000002235174,0.,-65.5000000298023));
#1534=CARTESIAN_POINT('',(15.0000002235174,3.,-60.0000008940697));
#1535=CARTESIAN_POINT('',(15.0000002235174,3.,-60.0000008940697));
#1536=CARTESIAN_POINT('',(15.0000002235174,0.,-60.0000008940697));
#1537=CARTESIAN_POINT('Origin',(10.0000001490116,0.,-60.0000008940697));
#1538=CARTESIAN_POINT('Origin',(10.0000001490116,3.,-60.0000008940697));
#1539=CARTESIAN_POINT('Origin',(9.50000012665987,3.,-60.5000004246831));
#1540=CARTESIAN_POINT('',(6.7500000782311,3.,-65.5000000298023));
#1541=CARTESIAN_POINT('',(8.20000014901161,3.,-60.0000008940697));
#1542=CARTESIAN_POINT('Origin',(10.0000001490116,3.,-60.0000008940697));
#1543=CARTESIAN_POINT('Origin',(66.0000000298023,0.,-15.0000002235174));
#1544=CARTESIAN_POINT('',(60.0000008940697,3.,-15.0000002235174));
#1545=CARTESIAN_POINT('',(60.0000008940697,0.,-15.0000002235174));
#1546=CARTESIAN_POINT('',(60.0000008940697,3.,-15.0000002235174));
#1547=CARTESIAN_POINT('Origin',(55.0000008195639,0.,-10.0000001490116));
#1548=CARTESIAN_POINT('',(55.0000008195639,3.,-4.50000002980232));
#1549=CARTESIAN_POINT('',(55.0000008195639,0.,-4.50000002980232));
#1550=CARTESIAN_POINT('',(55.0000008195639,3.,-10.0000001490116));
#1551=CARTESIAN_POINT('',(55.0000008195639,3.,-10.0000001490116));
#1552=CARTESIAN_POINT('',(55.0000008195639,0.,-10.0000001490116));
#1553=CARTESIAN_POINT('Origin',(60.0000008940697,0.,-10.0000001490116));
#1554=CARTESIAN_POINT('Origin',(60.0000008940697,3.,-10.0000001490116));
#1555=CARTESIAN_POINT('Origin',(60.5000004246831,3.,-9.50000012665987));
#1556=CARTESIAN_POINT('',(63.2500002272427,3.,-4.50000002980232));
#1557=CARTESIAN_POINT('',(58.2000008940697,3.,-10.0000001490116));
#1558=CARTESIAN_POINT('Origin',(60.0000008940697,3.,-10.0000001490116));
#1559=CARTESIAN_POINT('Origin',(15.0000002235174,0.,-4.00000002980232));
#1560=CARTESIAN_POINT('',(15.0000002235174,3.,-10.0000001490116));
#1561=CARTESIAN_POINT('',(15.0000002235174,0.,-10.0000001490116));
#1562=CARTESIAN_POINT('',(15.0000002235174,3.,-4.50000002980232));
#1563=CARTESIAN_POINT('',(15.0000002235174,3.,-10.0000001490116));
#1564=CARTESIAN_POINT('',(15.0000002235174,0.,-4.50000002980232));
#1565=CARTESIAN_POINT('Origin',(10.0000001490116,0.,-15.0000002235174));
#1566=CARTESIAN_POINT('',(10.0000001490116,3.,-15.0000002235174));
#1567=CARTESIAN_POINT('',(10.0000001490116,3.,-15.0000002235174));
#1568=CARTESIAN_POINT('',(10.0000001490116,0.,-15.0000002235174));
#1569=CARTESIAN_POINT('Origin',(10.0000001490116,0.,-10.0000001490116));
#1570=CARTESIAN_POINT('Origin',(10.0000001490116,3.,-10.0000001490116));
#1571=CARTESIAN_POINT('Origin',(9.50000012665987,3.,-9.50000012665987));
#1572=CARTESIAN_POINT('',(37.7500000782311,3.,-4.50000002980232));
#1573=CARTESIAN_POINT('',(8.20000014901161,3.,-10.0000001490116));
#1574=CARTESIAN_POINT('Origin',(10.0000001490116,3.,-10.0000001490116));
#1575=CARTESIAN_POINT('Origin',(10.0000001490116,0.,-10.0000001490116));
#1576=CARTESIAN_POINT('',(8.20000014901161,0.,-10.0000001490116));
#1577=CARTESIAN_POINT('Origin',(60.0000008940697,0.,-10.0000001490116));
#1578=CARTESIAN_POINT('',(58.2000008940697,0.,-10.0000001490116));
#1579=CARTESIAN_POINT('Origin',(10.0000001490116,0.,-60.0000008940697));
#1580=CARTESIAN_POINT('',(8.20000014901161,0.,-60.0000008940697));
#1581=CARTESIAN_POINT('Origin',(60.0000008940697,0.,-60.0000008940697));
#1582=CARTESIAN_POINT('',(58.2000008940697,0.,-60.0000008940697));
#1583=CARTESIAN_POINT('Origin',(4.00000002980232,0.,-65.5000000298023));
#1584=CARTESIAN_POINT('',(19.5000000298023,-2.,-65.5000000298023));
#1585=CARTESIAN_POINT('Origin',(66.0000000298023,0.,-4.50000002980232));
#1586=CARTESIAN_POINT('',(50.5000000298023,-2.,-4.50000002980232));
#1587=CARTESIAN_POINT('Origin',(35.0000000298023,-2.,-35.0000000298023));
#1588=UNCERTAINTY_MEASURE_WITH_UNIT(LENGTH_MEASURE(0.01),#1592,
'DISTANCE_ACCURACY_VALUE',
'Maximum model space distance between geometric entities at asserted c
onnectivities');
#1589=UNCERTAINTY_MEASURE_WITH_UNIT(LENGTH_MEASURE(0.01),#1592,
'DISTANCE_ACCURACY_VALUE',
'Maximum model space distance between geometric entities at asserted c
onnectivities');
#1590=(
GEOMETRIC_REPRESENTATION_CONTEXT(3)
GLOBAL_UNCERTAINTY_ASSIGNED_CONTEXT((#1588))
GLOBAL_UNIT_ASSIGNED_CONTEXT((#1592,#1594,#1595))
REPRESENTATION_CONTEXT('','3D')
);
#1591=(
GEOMETRIC_REPRESENTATION_CONTEXT(3)
GLOBAL_UNCERTAINTY_ASSIGNED_CONTEXT((#1589))
GLOBAL_UNIT_ASSIGNED_CONTEXT((#1592,#1594,#1595))
REPRESENTATION_CONTEXT('','3D')
);
#1592=(
LENGTH_UNIT()
NAMED_UNIT(*)
SI_UNIT(.MILLI.,.METRE.)
);
#1593=(
LENGTH_UNIT()
NAMED_UNIT(*)
SI_UNIT($,.METRE.)
);
#1594=(
NAMED_UNIT(*)
PLANE_ANGLE_UNIT()
SI_UNIT($,.RADIAN.)
);
#1595=(
NAMED_UNIT(*)
SI_UNIT($,.STERADIAN.)
SOLID_ANGLE_UNIT()
);
#1596=SHAPE_DEFINITION_REPRESENTATION(#1597,#1598);
#1597=PRODUCT_DEFINITION_SHAPE('',$,#1600);
#1598=SHAPE_REPRESENTATION('',(#968),#1590);
#1599=PRODUCT_DEFINITION_CONTEXT('part definition',#1604,'design');
#1600=PRODUCT_DEFINITION('2025-11-13-17-35-49-354','Module bottom',#1601,
#1599);
#1601=PRODUCT_DEFINITION_FORMATION('',$,#1606);
#1602=PRODUCT_RELATED_PRODUCT_CATEGORY('Module bottom','Module bottom',
(#1606));
#1603=APPLICATION_PROTOCOL_DEFINITION('international standard',
'automotive_design',2009,#1604);
#1604=APPLICATION_CONTEXT(
'Core Data for Automotive Mechanical Design Process');
#1605=PRODUCT_CONTEXT('part definition',#1604,'mechanical');
#1606=PRODUCT('2025-11-13-17-35-49-354','Module bottom',$,(#1605));
#1607=PRESENTATION_STYLE_ASSIGNMENT((#1608));
#1608=SURFACE_STYLE_USAGE(.BOTH.,#1609);
#1609=SURFACE_SIDE_STYLE('',(#1610));
#1610=SURFACE_STYLE_FILL_AREA(#1611);
#1611=FILL_AREA_STYLE('Steel - Satin',(#1612));
#1612=FILL_AREA_STYLE_COLOUR('Steel - Satin',#1613);
#1613=COLOUR_RGB('Steel - Satin',0.627450980392157,0.627450980392157,0.627450980392157);
ENDSEC;
END-ISO-10303-21;
