ISO-10303-21;
HEADER;
/* Generated by software containing ST-Developer
 * from STEP Tools, Inc. (www.steptools.com) 
 */

FILE_DESCRIPTION(
/* description */ (''),
/* implementation_level */ '2;1');

FILE_NAME(
/* name */ 'Module middle.step',
/* time_stamp */ '2026-04-27T15:53:33+01:00',
/* author */ (''),
/* organization */ (''),
/* preprocessor_version */ 'ST-DEVELOPER v20.1',
/* originating_system */ 'Autodesk Translation Framework v14.24.0.0',
/* authorisation */ '');

FILE_SCHEMA (('AUTOMOTIVE_DESIGN { 1 0 10303 214 3 1 1 }'));
ENDSEC;

DATA;
#10=MECHANICAL_DESIGN_GEOMETRIC_PRESENTATION_REPRESENTATION('',(#13),#1545);
#11=SHAPE_REPRESENTATION_RELATIONSHIP('SRR','None',#1552,#12);
#12=ADVANCED_BREP_SHAPE_REPRESENTATION('',(#14),#1544);
#13=STYLED_ITEM('',(#1561),#14);
#14=MANIFOLD_SOLID_BREP('Body1',#929);
#15=FACE_BOUND('',#101,.T.);
#16=FACE_BOUND('',#102,.T.);
#17=FACE_BOUND('',#103,.T.);
#18=FACE_BOUND('',#104,.T.);
#19=FACE_BOUND('',#105,.T.);
#20=FACE_BOUND('',#133,.T.);
#21=FACE_BOUND('',#139,.T.);
#22=FACE_BOUND('',#145,.T.);
#23=FACE_BOUND('',#151,.T.);
#24=PLANE('',#946);
#25=PLANE('',#949);
#26=PLANE('',#963);
#27=PLANE('',#966);
#28=PLANE('',#971);
#29=PLANE('',#972);
#30=PLANE('',#973);
#31=PLANE('',#980);
#32=PLANE('',#981);
#33=PLANE('',#982);
#34=PLANE('',#985);
#35=PLANE('',#986);
#36=PLANE('',#987);
#37=PLANE('',#988);
#38=PLANE('',#989);
#39=PLANE('',#990);
#40=PLANE('',#991);
#41=PLANE('',#994);
#42=PLANE('',#997);
#43=PLANE('',#998);
#44=PLANE('',#1001);
#45=PLANE('',#1004);
#46=PLANE('',#1005);
#47=PLANE('',#1008);
#48=PLANE('',#1011);
#49=PLANE('',#1012);
#50=PLANE('',#1015);
#51=PLANE('',#1018);
#52=PLANE('',#1019);
#53=FACE_OUTER_BOUND('',#98,.T.);
#54=FACE_OUTER_BOUND('',#99,.T.);
#55=FACE_OUTER_BOUND('',#100,.T.);
#56=FACE_OUTER_BOUND('',#106,.T.);
#57=FACE_OUTER_BOUND('',#107,.T.);
#58=FACE_OUTER_BOUND('',#108,.T.);
#59=FACE_OUTER_BOUND('',#109,.T.);
#60=FACE_OUTER_BOUND('',#110,.T.);
#61=FACE_OUTER_BOUND('',#111,.T.);
#62=FACE_OUTER_BOUND('',#112,.T.);
#63=FACE_OUTER_BOUND('',#113,.T.);
#64=FACE_OUTER_BOUND('',#114,.T.);
#65=FACE_OUTER_BOUND('',#115,.T.);
#66=FACE_OUTER_BOUND('',#116,.T.);
#67=FACE_OUTER_BOUND('',#117,.T.);
#68=FACE_OUTER_BOUND('',#118,.T.);
#69=FACE_OUTER_BOUND('',#119,.T.);
#70=FACE_OUTER_BOUND('',#120,.T.);
#71=FACE_OUTER_BOUND('',#121,.T.);
#72=FACE_OUTER_BOUND('',#122,.T.);
#73=FACE_OUTER_BOUND('',#123,.T.);
#74=FACE_OUTER_BOUND('',#124,.T.);
#75=FACE_OUTER_BOUND('',#125,.T.);
#76=FACE_OUTER_BOUND('',#126,.T.);
#77=FACE_OUTER_BOUND('',#127,.T.);
#78=FACE_OUTER_BOUND('',#128,.T.);
#79=FACE_OUTER_BOUND('',#129,.T.);
#80=FACE_OUTER_BOUND('',#130,.T.);
#81=FACE_OUTER_BOUND('',#131,.T.);
#82=FACE_OUTER_BOUND('',#132,.T.);
#83=FACE_OUTER_BOUND('',#134,.T.);
#84=FACE_OUTER_BOUND('',#135,.T.);
#85=FACE_OUTER_BOUND('',#136,.T.);
#86=FACE_OUTER_BOUND('',#137,.T.);
#87=FACE_OUTER_BOUND('',#138,.T.);
#88=FACE_OUTER_BOUND('',#140,.T.);
#89=FACE_OUTER_BOUND('',#141,.T.);
#90=FACE_OUTER_BOUND('',#142,.T.);
#91=FACE_OUTER_BOUND('',#143,.T.);
#92=FACE_OUTER_BOUND('',#144,.T.);
#93=FACE_OUTER_BOUND('',#146,.T.);
#94=FACE_OUTER_BOUND('',#147,.T.);
#95=FACE_OUTER_BOUND('',#148,.T.);
#96=FACE_OUTER_BOUND('',#149,.T.);
#97=FACE_OUTER_BOUND('',#150,.T.);
#98=EDGE_LOOP('',(#604,#605,#606,#607));
#99=EDGE_LOOP('',(#608,#609,#610,#611,#612,#613,#614,#615,#616,#617));
#100=EDGE_LOOP('',(#618,#619,#620,#621,#622,#623,#624,#625));
#101=EDGE_LOOP('',(#626,#627,#628,#629,#630,#631,#632,#633,#634,#635,#636,
#637,#638,#639,#640,#641));
#102=EDGE_LOOP('',(#642));
#103=EDGE_LOOP('',(#643));
#104=EDGE_LOOP('',(#644));
#105=EDGE_LOOP('',(#645));
#106=EDGE_LOOP('',(#646,#647,#648,#649));
#107=EDGE_LOOP('',(#650,#651,#652,#653));
#108=EDGE_LOOP('',(#654,#655,#656,#657));
#109=EDGE_LOOP('',(#658,#659,#660,#661,#662,#663,#664,#665,#666,#667));
#110=EDGE_LOOP('',(#668,#669,#670,#671));
#111=EDGE_LOOP('',(#672,#673,#674,#675,#676,#677,#678,#679,#680,#681));
#112=EDGE_LOOP('',(#682,#683,#684,#685));
#113=EDGE_LOOP('',(#686,#687,#688,#689));
#114=EDGE_LOOP('',(#690,#691,#692,#693));
#115=EDGE_LOOP('',(#694,#695,#696,#697));
#116=EDGE_LOOP('',(#698,#699,#700,#701));
#117=EDGE_LOOP('',(#702,#703,#704,#705));
#118=EDGE_LOOP('',(#706,#707,#708,#709));
#119=EDGE_LOOP('',(#710,#711,#712,#713));
#120=EDGE_LOOP('',(#714,#715,#716,#717));
#121=EDGE_LOOP('',(#718,#719,#720,#721));
#122=EDGE_LOOP('',(#722,#723,#724,#725,#726,#727,#728,#729,#730,#731,#732,
#733,#734,#735));
#123=EDGE_LOOP('',(#736,#737,#738,#739,#740,#741,#742,#743,#744,#745,#746,
#747,#748,#749));
#124=EDGE_LOOP('',(#750,#751,#752,#753,#754,#755,#756,#757));
#125=EDGE_LOOP('',(#758,#759,#760,#761,#762,#763,#764,#765));
#126=EDGE_LOOP('',(#766,#767,#768,#769));
#127=EDGE_LOOP('',(#770,#771,#772,#773,#774,#775,#776,#777,#778,#779));
#128=EDGE_LOOP('',(#780,#781,#782,#783));
#129=EDGE_LOOP('',(#784,#785,#786,#787));
#130=EDGE_LOOP('',(#788,#789,#790,#791));
#131=EDGE_LOOP('',(#792,#793,#794,#795));
#132=EDGE_LOOP('',(#796,#797,#798,#799,#800));
#133=EDGE_LOOP('',(#801));
#134=EDGE_LOOP('',(#802,#803,#804,#805));
#135=EDGE_LOOP('',(#806,#807,#808,#809));
#136=EDGE_LOOP('',(#810,#811,#812,#813));
#137=EDGE_LOOP('',(#814,#815,#816,#817));
#138=EDGE_LOOP('',(#818,#819,#820,#821,#822));
#139=EDGE_LOOP('',(#823));
#140=EDGE_LOOP('',(#824,#825,#826,#827));
#141=EDGE_LOOP('',(#828,#829,#830,#831));
#142=EDGE_LOOP('',(#832,#833,#834,#835));
#143=EDGE_LOOP('',(#836,#837,#838,#839));
#144=EDGE_LOOP('',(#840,#841,#842,#843,#844));
#145=EDGE_LOOP('',(#845));
#146=EDGE_LOOP('',(#846,#847,#848,#849));
#147=EDGE_LOOP('',(#850,#851,#852,#853));
#148=EDGE_LOOP('',(#854,#855,#856,#857));
#149=EDGE_LOOP('',(#858,#859,#860,#861));
#150=EDGE_LOOP('',(#862,#863,#864,#865,#866));
#151=EDGE_LOOP('',(#867));
#152=LINE('',#1282,#252);
#153=LINE('',#1285,#253);
#154=LINE('',#1288,#254);
#155=LINE('',#1290,#255);
#156=LINE('',#1292,#256);
#157=LINE('',#1294,#257);
#158=LINE('',#1298,#258);
#159=LINE('',#1302,#259);
#160=LINE('',#1303,#260);
#161=LINE('',#1306,#261);
#162=LINE('',#1310,#262);
#163=LINE('',#1314,#263);
#164=LINE('',#1318,#264);
#165=LINE('',#1320,#265);
#166=LINE('',#1322,#266);
#167=LINE('',#1326,#267);
#168=LINE('',#1328,#268);
#169=LINE('',#1330,#269);
#170=LINE('',#1334,#270);
#171=LINE('',#1336,#271);
#172=LINE('',#1338,#272);
#173=LINE('',#1342,#273);
#174=LINE('',#1344,#274);
#175=LINE('',#1346,#275);
#176=LINE('',#1359,#276);
#177=LINE('',#1362,#277);
#178=LINE('',#1363,#278);
#179=LINE('',#1368,#279);
#180=LINE('',#1369,#280);
#181=LINE('',#1372,#281);
#182=LINE('',#1374,#282);
#183=LINE('',#1378,#283);
#184=LINE('',#1382,#284);
#185=LINE('',#1384,#285);
#186=LINE('',#1385,#286);
#187=LINE('',#1390,#287);
#188=LINE('',#1392,#288);
#189=LINE('',#1394,#289);
#190=LINE('',#1396,#290);
#191=LINE('',#1397,#291);
#192=LINE('',#1401,#292);
#193=LINE('',#1402,#293);
#194=LINE('',#1403,#294);
#195=LINE('',#1407,#295);
#196=LINE('',#1408,#296);
#197=LINE('',#1409,#297);
#198=LINE('',#1413,#298);
#199=LINE('',#1417,#299);
#200=LINE('',#1421,#300);
#201=LINE('',#1423,#301);
#202=LINE('',#1425,#302);
#203=LINE('',#1428,#303);
#204=LINE('',#1429,#304);
#205=LINE('',#1433,#305);
#206=LINE('',#1436,#306);
#207=LINE('',#1437,#307);
#208=LINE('',#1440,#308);
#209=LINE('',#1442,#309);
#210=LINE('',#1443,#310);
#211=LINE('',#1445,#311);
#212=LINE('',#1447,#312);
#213=LINE('',#1449,#313);
#214=LINE('',#1450,#314);
#215=LINE('',#1453,#315);
#216=LINE('',#1455,#316);
#217=LINE('',#1457,#317);
#218=LINE('',#1458,#318);
#219=LINE('',#1460,#319);
#220=LINE('',#1462,#320);
#221=LINE('',#1463,#321);
#222=LINE('',#1466,#322);
#223=LINE('',#1468,#323);
#224=LINE('',#1469,#324);
#225=LINE('',#1470,#325);
#226=LINE('',#1471,#326);
#227=LINE('',#1474,#327);
#228=LINE('',#1476,#328);
#229=LINE('',#1477,#329);
#230=LINE('',#1478,#330);
#231=LINE('',#1480,#331);
#232=LINE('',#1485,#332);
#233=LINE('',#1488,#333);
#234=LINE('',#1489,#334);
#235=LINE('',#1493,#335);
#236=LINE('',#1495,#336);
#237=LINE('',#1500,#337);
#238=LINE('',#1503,#338);
#239=LINE('',#1504,#339);
#240=LINE('',#1508,#340);
#241=LINE('',#1510,#341);
#242=LINE('',#1515,#342);
#243=LINE('',#1518,#343);
#244=LINE('',#1519,#344);
#245=LINE('',#1523,#345);
#246=LINE('',#1525,#346);
#247=LINE('',#1530,#347);
#248=LINE('',#1533,#348);
#249=LINE('',#1534,#349);
#250=LINE('',#1538,#350);
#251=LINE('',#1540,#351);
#252=VECTOR('',#1026,10.);
#253=VECTOR('',#1029,10.);
#254=VECTOR('',#1032,10.);
#255=VECTOR('',#1033,10.);
#256=VECTOR('',#1034,10.);
#257=VECTOR('',#1035,10.);
#258=VECTOR('',#1038,10.);
#259=VECTOR('',#1041,10.);
#260=VECTOR('',#1042,10.);
#261=VECTOR('',#1045,10.);
#262=VECTOR('',#1048,10.);
#263=VECTOR('',#1051,10.);
#264=VECTOR('',#1054,10.);
#265=VECTOR('',#1055,10.);
#266=VECTOR('',#1056,10.);
#267=VECTOR('',#1059,10.);
#268=VECTOR('',#1060,10.);
#269=VECTOR('',#1061,10.);
#270=VECTOR('',#1064,10.);
#271=VECTOR('',#1065,10.);
#272=VECTOR('',#1066,10.);
#273=VECTOR('',#1069,10.);
#274=VECTOR('',#1070,10.);
#275=VECTOR('',#1071,10.);
#276=VECTOR('',#1086,10.);
#277=VECTOR('',#1089,10.);
#278=VECTOR('',#1090,10.);
#279=VECTOR('',#1095,10.);
#280=VECTOR('',#1096,10.);
#281=VECTOR('',#1099,10.);
#282=VECTOR('',#1100,10.);
#283=VECTOR('',#1103,10.);
#284=VECTOR('',#1106,10.);
#285=VECTOR('',#1107,10.);
#286=VECTOR('',#1108,10.);
#287=VECTOR('',#1115,10.);
#288=VECTOR('',#1116,10.);
#289=VECTOR('',#1117,10.);
#290=VECTOR('',#1118,10.);
#291=VECTOR('',#1119,10.);
#292=VECTOR('',#1122,10.);
#293=VECTOR('',#1123,10.);
#294=VECTOR('',#1124,10.);
#295=VECTOR('',#1127,10.);
#296=VECTOR('',#1128,10.);
#297=VECTOR('',#1129,10.);
#298=VECTOR('',#1134,10.);
#299=VECTOR('',#1139,10.);
#300=VECTOR('',#1144,10.);
#301=VECTOR('',#1147,10.);
#302=VECTOR('',#1150,10.);
#303=VECTOR('',#1153,10.);
#304=VECTOR('',#1154,10.);
#305=VECTOR('',#1159,10.);
#306=VECTOR('',#1162,10.);
#307=VECTOR('',#1163,10.);
#308=VECTOR('',#1166,10.);
#309=VECTOR('',#1167,10.);
#310=VECTOR('',#1168,10.);
#311=VECTOR('',#1169,10.);
#312=VECTOR('',#1170,10.);
#313=VECTOR('',#1171,10.);
#314=VECTOR('',#1172,10.);
#315=VECTOR('',#1175,10.);
#316=VECTOR('',#1176,10.);
#317=VECTOR('',#1177,10.);
#318=VECTOR('',#1178,10.);
#319=VECTOR('',#1179,10.);
#320=VECTOR('',#1180,10.);
#321=VECTOR('',#1181,10.);
#322=VECTOR('',#1184,10.);
#323=VECTOR('',#1185,10.);
#324=VECTOR('',#1186,10.);
#325=VECTOR('',#1187,10.);
#326=VECTOR('',#1188,10.);
#327=VECTOR('',#1191,10.);
#328=VECTOR('',#1192,10.);
#329=VECTOR('',#1193,10.);
#330=VECTOR('',#1194,10.);
#331=VECTOR('',#1197,10.);
#332=VECTOR('',#1204,1.8);
#333=VECTOR('',#1207,10.);
#334=VECTOR('',#1208,10.);
#335=VECTOR('',#1213,10.);
#336=VECTOR('',#1216,10.);
#337=VECTOR('',#1223,1.8);
#338=VECTOR('',#1226,10.);
#339=VECTOR('',#1227,10.);
#340=VECTOR('',#1232,10.);
#341=VECTOR('',#1235,10.);
#342=VECTOR('',#1242,1.8);
#343=VECTOR('',#1245,10.);
#344=VECTOR('',#1246,10.);
#345=VECTOR('',#1251,10.);
#346=VECTOR('',#1254,10.);
#347=VECTOR('',#1261,1.8);
#348=VECTOR('',#1264,10.);
#349=VECTOR('',#1265,10.);
#350=VECTOR('',#1270,10.);
#351=VECTOR('',#1273,10.);
#352=CIRCLE('',#944,2.);
#353=CIRCLE('',#945,2.);
#354=CIRCLE('',#947,2.50000002980232);
#355=CIRCLE('',#948,2.50000002980232);
#356=CIRCLE('',#950,2.);
#357=CIRCLE('',#951,2.);
#358=CIRCLE('',#952,2.);
#359=CIRCLE('',#953,5.00000007450581);
#360=CIRCLE('',#954,5.00000007450581);
#361=CIRCLE('',#955,5.00000007450581);
#362=CIRCLE('',#956,5.00000007450581);
#363=CIRCLE('',#957,1.8);
#364=CIRCLE('',#958,1.8);
#365=CIRCLE('',#959,1.8);
#366=CIRCLE('',#960,1.8);
#367=CIRCLE('',#962,2.);
#368=CIRCLE('',#965,2.);
#369=CIRCLE('',#967,2.50000002980232);
#370=CIRCLE('',#968,2.50000002980232);
#371=CIRCLE('',#970,2.);
#372=CIRCLE('',#975,2.50000002980232);
#373=CIRCLE('',#977,2.50000002980232);
#374=CIRCLE('',#979,2.50000002980232);
#375=CIRCLE('',#984,2.50000002980232);
#376=CIRCLE('',#993,1.8);
#377=CIRCLE('',#996,5.00000007450581);
#378=CIRCLE('',#1000,1.8);
#379=CIRCLE('',#1003,5.00000007450581);
#380=CIRCLE('',#1007,1.8);
#381=CIRCLE('',#1010,5.00000007450581);
#382=CIRCLE('',#1014,1.8);
#383=CIRCLE('',#1017,5.00000007450581);
#384=VERTEX_POINT('',#1278);
#385=VERTEX_POINT('',#1279);
#386=VERTEX_POINT('',#1281);
#387=VERTEX_POINT('',#1283);
#388=VERTEX_POINT('',#1287);
#389=VERTEX_POINT('',#1289);
#390=VERTEX_POINT('',#1291);
#391=VERTEX_POINT('',#1293);
#392=VERTEX_POINT('',#1295);
#393=VERTEX_POINT('',#1297);
#394=VERTEX_POINT('',#1299);
#395=VERTEX_POINT('',#1301);
#396=VERTEX_POINT('',#1305);
#397=VERTEX_POINT('',#1307);
#398=VERTEX_POINT('',#1309);
#399=VERTEX_POINT('',#1311);
#400=VERTEX_POINT('',#1313);
#401=VERTEX_POINT('',#1316);
#402=VERTEX_POINT('',#1317);
#403=VERTEX_POINT('',#1319);
#404=VERTEX_POINT('',#1321);
#405=VERTEX_POINT('',#1323);
#406=VERTEX_POINT('',#1325);
#407=VERTEX_POINT('',#1327);
#408=VERTEX_POINT('',#1329);
#409=VERTEX_POINT('',#1331);
#410=VERTEX_POINT('',#1333);
#411=VERTEX_POINT('',#1335);
#412=VERTEX_POINT('',#1337);
#413=VERTEX_POINT('',#1339);
#414=VERTEX_POINT('',#1341);
#415=VERTEX_POINT('',#1343);
#416=VERTEX_POINT('',#1345);
#417=VERTEX_POINT('',#1348);
#418=VERTEX_POINT('',#1350);
#419=VERTEX_POINT('',#1352);
#420=VERTEX_POINT('',#1354);
#421=VERTEX_POINT('',#1357);
#422=VERTEX_POINT('',#1361);
#423=VERTEX_POINT('',#1365);
#424=VERTEX_POINT('',#1366);
#425=VERTEX_POINT('',#1371);
#426=VERTEX_POINT('',#1373);
#427=VERTEX_POINT('',#1375);
#428=VERTEX_POINT('',#1377);
#429=VERTEX_POINT('',#1379);
#430=VERTEX_POINT('',#1381);
#431=VERTEX_POINT('',#1383);
#432=VERTEX_POINT('',#1389);
#433=VERTEX_POINT('',#1391);
#434=VERTEX_POINT('',#1393);
#435=VERTEX_POINT('',#1395);
#436=VERTEX_POINT('',#1399);
#437=VERTEX_POINT('',#1400);
#438=VERTEX_POINT('',#1405);
#439=VERTEX_POINT('',#1406);
#440=VERTEX_POINT('',#1411);
#441=VERTEX_POINT('',#1415);
#442=VERTEX_POINT('',#1419);
#443=VERTEX_POINT('',#1427);
#444=VERTEX_POINT('',#1431);
#445=VERTEX_POINT('',#1435);
#446=VERTEX_POINT('',#1439);
#447=VERTEX_POINT('',#1441);
#448=VERTEX_POINT('',#1444);
#449=VERTEX_POINT('',#1446);
#450=VERTEX_POINT('',#1448);
#451=VERTEX_POINT('',#1452);
#452=VERTEX_POINT('',#1454);
#453=VERTEX_POINT('',#1456);
#454=VERTEX_POINT('',#1459);
#455=VERTEX_POINT('',#1461);
#456=VERTEX_POINT('',#1465);
#457=VERTEX_POINT('',#1467);
#458=VERTEX_POINT('',#1473);
#459=VERTEX_POINT('',#1475);
#460=VERTEX_POINT('',#1483);
#461=VERTEX_POINT('',#1487);
#462=VERTEX_POINT('',#1491);
#463=VERTEX_POINT('',#1498);
#464=VERTEX_POINT('',#1502);
#465=VERTEX_POINT('',#1506);
#466=VERTEX_POINT('',#1513);
#467=VERTEX_POINT('',#1517);
#468=VERTEX_POINT('',#1521);
#469=VERTEX_POINT('',#1528);
#470=VERTEX_POINT('',#1532);
#471=VERTEX_POINT('',#1536);
#472=EDGE_CURVE('',#384,#385,#352,.T.);
#473=EDGE_CURVE('',#385,#386,#152,.T.);
#474=EDGE_CURVE('',#386,#387,#353,.T.);
#475=EDGE_CURVE('',#387,#384,#153,.T.);
#476=EDGE_CURVE('',#387,#388,#154,.T.);
#477=EDGE_CURVE('',#389,#388,#155,.T.);
#478=EDGE_CURVE('',#390,#389,#156,.T.);
#479=EDGE_CURVE('',#390,#391,#157,.T.);
#480=EDGE_CURVE('',#391,#392,#354,.T.);
#481=EDGE_CURVE('',#392,#393,#158,.T.);
#482=EDGE_CURVE('',#393,#394,#355,.T.);
#483=EDGE_CURVE('',#394,#395,#159,.T.);
#484=EDGE_CURVE('',#384,#395,#160,.T.);
#485=EDGE_CURVE('',#396,#386,#161,.T.);
#486=EDGE_CURVE('',#397,#396,#356,.T.);
#487=EDGE_CURVE('',#398,#397,#162,.T.);
#488=EDGE_CURVE('',#399,#398,#357,.T.);
#489=EDGE_CURVE('',#400,#399,#163,.T.);
#490=EDGE_CURVE('',#388,#400,#358,.T.);
#491=EDGE_CURVE('',#401,#402,#164,.T.);
#492=EDGE_CURVE('',#402,#403,#165,.T.);
#493=EDGE_CURVE('',#404,#403,#166,.T.);
#494=EDGE_CURVE('',#404,#405,#359,.T.);
#495=EDGE_CURVE('',#405,#406,#167,.T.);
#496=EDGE_CURVE('',#406,#407,#168,.T.);
#497=EDGE_CURVE('',#408,#407,#169,.T.);
#498=EDGE_CURVE('',#408,#409,#360,.T.);
#499=EDGE_CURVE('',#409,#410,#170,.T.);
#500=EDGE_CURVE('',#410,#411,#171,.T.);
#501=EDGE_CURVE('',#412,#411,#172,.T.);
#502=EDGE_CURVE('',#412,#413,#361,.T.);
#503=EDGE_CURVE('',#413,#414,#173,.T.);
#504=EDGE_CURVE('',#414,#415,#174,.T.);
#505=EDGE_CURVE('',#416,#415,#175,.T.);
#506=EDGE_CURVE('',#416,#401,#362,.T.);
#507=EDGE_CURVE('',#417,#417,#363,.T.);
#508=EDGE_CURVE('',#418,#418,#364,.T.);
#509=EDGE_CURVE('',#419,#419,#365,.T.);
#510=EDGE_CURVE('',#420,#420,#366,.T.);
#511=EDGE_CURVE('',#421,#389,#367,.T.);
#512=EDGE_CURVE('',#400,#421,#176,.T.);
#513=EDGE_CURVE('',#422,#399,#177,.T.);
#514=EDGE_CURVE('',#421,#422,#178,.T.);
#515=EDGE_CURVE('',#423,#424,#368,.T.);
#516=EDGE_CURVE('',#424,#397,#179,.T.);
#517=EDGE_CURVE('',#396,#423,#180,.T.);
#518=EDGE_CURVE('',#425,#424,#181,.T.);
#519=EDGE_CURVE('',#425,#426,#182,.T.);
#520=EDGE_CURVE('',#426,#427,#369,.T.);
#521=EDGE_CURVE('',#427,#428,#183,.T.);
#522=EDGE_CURVE('',#428,#429,#370,.T.);
#523=EDGE_CURVE('',#429,#430,#184,.T.);
#524=EDGE_CURVE('',#431,#430,#185,.T.);
#525=EDGE_CURVE('',#398,#431,#186,.T.);
#526=EDGE_CURVE('',#431,#422,#371,.T.);
#527=EDGE_CURVE('',#430,#432,#187,.T.);
#528=EDGE_CURVE('',#432,#433,#188,.T.);
#529=EDGE_CURVE('',#433,#434,#189,.T.);
#530=EDGE_CURVE('',#434,#435,#190,.T.);
#531=EDGE_CURVE('',#435,#390,#191,.T.);
#532=EDGE_CURVE('',#436,#437,#192,.T.);
#533=EDGE_CURVE('',#428,#436,#193,.T.);
#534=EDGE_CURVE('',#427,#437,#194,.T.);
#535=EDGE_CURVE('',#438,#439,#195,.T.);
#536=EDGE_CURVE('',#438,#393,#196,.T.);
#537=EDGE_CURVE('',#439,#392,#197,.T.);
#538=EDGE_CURVE('',#440,#436,#372,.T.);
#539=EDGE_CURVE('',#429,#440,#198,.T.);
#540=EDGE_CURVE('',#439,#441,#373,.T.);
#541=EDGE_CURVE('',#441,#391,#199,.T.);
#542=EDGE_CURVE('',#437,#442,#374,.T.);
#543=EDGE_CURVE('',#426,#442,#200,.T.);
#544=EDGE_CURVE('',#432,#440,#201,.T.);
#545=EDGE_CURVE('',#441,#435,#202,.T.);
#546=EDGE_CURVE('',#442,#443,#203,.T.);
#547=EDGE_CURVE('',#443,#425,#204,.T.);
#548=EDGE_CURVE('',#444,#438,#375,.T.);
#549=EDGE_CURVE('',#444,#394,#205,.T.);
#550=EDGE_CURVE('',#445,#444,#206,.T.);
#551=EDGE_CURVE('',#395,#445,#207,.T.);
#552=EDGE_CURVE('',#446,#434,#208,.T.);
#553=EDGE_CURVE('',#447,#446,#209,.T.);
#554=EDGE_CURVE('',#411,#447,#210,.T.);
#555=EDGE_CURVE('',#410,#448,#211,.T.);
#556=EDGE_CURVE('',#449,#448,#212,.T.);
#557=EDGE_CURVE('',#449,#450,#213,.T.);
#558=EDGE_CURVE('',#445,#450,#214,.T.);
#559=EDGE_CURVE('',#451,#443,#215,.T.);
#560=EDGE_CURVE('',#452,#451,#216,.T.);
#561=EDGE_CURVE('',#453,#452,#217,.T.);
#562=EDGE_CURVE('',#403,#453,#218,.T.);
#563=EDGE_CURVE('',#402,#454,#219,.T.);
#564=EDGE_CURVE('',#455,#454,#220,.T.);
#565=EDGE_CURVE('',#455,#433,#221,.T.);
#566=EDGE_CURVE('',#407,#456,#222,.T.);
#567=EDGE_CURVE('',#406,#457,#223,.T.);
#568=EDGE_CURVE('',#452,#457,#224,.T.);
#569=EDGE_CURVE('',#450,#451,#225,.T.);
#570=EDGE_CURVE('',#456,#449,#226,.T.);
#571=EDGE_CURVE('',#415,#458,#227,.T.);
#572=EDGE_CURVE('',#414,#459,#228,.T.);
#573=EDGE_CURVE('',#446,#459,#229,.T.);
#574=EDGE_CURVE('',#458,#455,#230,.T.);
#575=EDGE_CURVE('',#423,#385,#231,.T.);
#576=EDGE_CURVE('',#460,#460,#376,.T.);
#577=EDGE_CURVE('',#460,#419,#232,.T.);
#578=EDGE_CURVE('',#461,#447,#233,.T.);
#579=EDGE_CURVE('',#412,#461,#234,.T.);
#580=EDGE_CURVE('',#462,#461,#377,.T.);
#581=EDGE_CURVE('',#413,#462,#235,.T.);
#582=EDGE_CURVE('',#459,#462,#236,.T.);
#583=EDGE_CURVE('',#463,#463,#378,.T.);
#584=EDGE_CURVE('',#463,#418,#237,.T.);
#585=EDGE_CURVE('',#464,#453,#238,.T.);
#586=EDGE_CURVE('',#404,#464,#239,.T.);
#587=EDGE_CURVE('',#465,#464,#379,.T.);
#588=EDGE_CURVE('',#405,#465,#240,.T.);
#589=EDGE_CURVE('',#457,#465,#241,.T.);
#590=EDGE_CURVE('',#466,#466,#380,.T.);
#591=EDGE_CURVE('',#466,#420,#242,.T.);
#592=EDGE_CURVE('',#467,#456,#243,.T.);
#593=EDGE_CURVE('',#408,#467,#244,.T.);
#594=EDGE_CURVE('',#468,#467,#381,.T.);
#595=EDGE_CURVE('',#409,#468,#245,.T.);
#596=EDGE_CURVE('',#448,#468,#246,.T.);
#597=EDGE_CURVE('',#469,#469,#382,.T.);
#598=EDGE_CURVE('',#469,#417,#247,.T.);
#599=EDGE_CURVE('',#470,#458,#248,.T.);
#600=EDGE_CURVE('',#416,#470,#249,.T.);
#601=EDGE_CURVE('',#471,#470,#383,.T.);
#602=EDGE_CURVE('',#401,#471,#250,.T.);
#603=EDGE_CURVE('',#454,#471,#251,.T.);
#604=ORIENTED_EDGE('',*,*,#472,.T.);
#605=ORIENTED_EDGE('',*,*,#473,.T.);
#606=ORIENTED_EDGE('',*,*,#474,.T.);
#607=ORIENTED_EDGE('',*,*,#475,.T.);
#608=ORIENTED_EDGE('',*,*,#475,.F.);
#609=ORIENTED_EDGE('',*,*,#476,.T.);
#610=ORIENTED_EDGE('',*,*,#477,.F.);
#611=ORIENTED_EDGE('',*,*,#478,.F.);
#612=ORIENTED_EDGE('',*,*,#479,.T.);
#613=ORIENTED_EDGE('',*,*,#480,.T.);
#614=ORIENTED_EDGE('',*,*,#481,.T.);
#615=ORIENTED_EDGE('',*,*,#482,.T.);
#616=ORIENTED_EDGE('',*,*,#483,.T.);
#617=ORIENTED_EDGE('',*,*,#484,.F.);
#618=ORIENTED_EDGE('',*,*,#474,.F.);
#619=ORIENTED_EDGE('',*,*,#485,.F.);
#620=ORIENTED_EDGE('',*,*,#486,.F.);
#621=ORIENTED_EDGE('',*,*,#487,.F.);
#622=ORIENTED_EDGE('',*,*,#488,.F.);
#623=ORIENTED_EDGE('',*,*,#489,.F.);
#624=ORIENTED_EDGE('',*,*,#490,.F.);
#625=ORIENTED_EDGE('',*,*,#476,.F.);
#626=ORIENTED_EDGE('',*,*,#491,.T.);
#627=ORIENTED_EDGE('',*,*,#492,.T.);
#628=ORIENTED_EDGE('',*,*,#493,.F.);
#629=ORIENTED_EDGE('',*,*,#494,.T.);
#630=ORIENTED_EDGE('',*,*,#495,.T.);
#631=ORIENTED_EDGE('',*,*,#496,.T.);
#632=ORIENTED_EDGE('',*,*,#497,.F.);
#633=ORIENTED_EDGE('',*,*,#498,.T.);
#634=ORIENTED_EDGE('',*,*,#499,.T.);
#635=ORIENTED_EDGE('',*,*,#500,.T.);
#636=ORIENTED_EDGE('',*,*,#501,.F.);
#637=ORIENTED_EDGE('',*,*,#502,.T.);
#638=ORIENTED_EDGE('',*,*,#503,.T.);
#639=ORIENTED_EDGE('',*,*,#504,.T.);
#640=ORIENTED_EDGE('',*,*,#505,.F.);
#641=ORIENTED_EDGE('',*,*,#506,.T.);
#642=ORIENTED_EDGE('',*,*,#507,.T.);
#643=ORIENTED_EDGE('',*,*,#508,.T.);
#644=ORIENTED_EDGE('',*,*,#509,.T.);
#645=ORIENTED_EDGE('',*,*,#510,.T.);
#646=ORIENTED_EDGE('',*,*,#511,.T.);
#647=ORIENTED_EDGE('',*,*,#477,.T.);
#648=ORIENTED_EDGE('',*,*,#490,.T.);
#649=ORIENTED_EDGE('',*,*,#512,.T.);
#650=ORIENTED_EDGE('',*,*,#512,.F.);
#651=ORIENTED_EDGE('',*,*,#489,.T.);
#652=ORIENTED_EDGE('',*,*,#513,.F.);
#653=ORIENTED_EDGE('',*,*,#514,.F.);
#654=ORIENTED_EDGE('',*,*,#515,.T.);
#655=ORIENTED_EDGE('',*,*,#516,.T.);
#656=ORIENTED_EDGE('',*,*,#486,.T.);
#657=ORIENTED_EDGE('',*,*,#517,.T.);
#658=ORIENTED_EDGE('',*,*,#516,.F.);
#659=ORIENTED_EDGE('',*,*,#518,.F.);
#660=ORIENTED_EDGE('',*,*,#519,.T.);
#661=ORIENTED_EDGE('',*,*,#520,.T.);
#662=ORIENTED_EDGE('',*,*,#521,.T.);
#663=ORIENTED_EDGE('',*,*,#522,.T.);
#664=ORIENTED_EDGE('',*,*,#523,.T.);
#665=ORIENTED_EDGE('',*,*,#524,.F.);
#666=ORIENTED_EDGE('',*,*,#525,.F.);
#667=ORIENTED_EDGE('',*,*,#487,.T.);
#668=ORIENTED_EDGE('',*,*,#526,.T.);
#669=ORIENTED_EDGE('',*,*,#513,.T.);
#670=ORIENTED_EDGE('',*,*,#488,.T.);
#671=ORIENTED_EDGE('',*,*,#525,.T.);
#672=ORIENTED_EDGE('',*,*,#511,.F.);
#673=ORIENTED_EDGE('',*,*,#514,.T.);
#674=ORIENTED_EDGE('',*,*,#526,.F.);
#675=ORIENTED_EDGE('',*,*,#524,.T.);
#676=ORIENTED_EDGE('',*,*,#527,.T.);
#677=ORIENTED_EDGE('',*,*,#528,.T.);
#678=ORIENTED_EDGE('',*,*,#529,.T.);
#679=ORIENTED_EDGE('',*,*,#530,.T.);
#680=ORIENTED_EDGE('',*,*,#531,.T.);
#681=ORIENTED_EDGE('',*,*,#478,.T.);
#682=ORIENTED_EDGE('',*,*,#532,.F.);
#683=ORIENTED_EDGE('',*,*,#533,.F.);
#684=ORIENTED_EDGE('',*,*,#521,.F.);
#685=ORIENTED_EDGE('',*,*,#534,.T.);
#686=ORIENTED_EDGE('',*,*,#535,.F.);
#687=ORIENTED_EDGE('',*,*,#536,.T.);
#688=ORIENTED_EDGE('',*,*,#481,.F.);
#689=ORIENTED_EDGE('',*,*,#537,.F.);
#690=ORIENTED_EDGE('',*,*,#538,.F.);
#691=ORIENTED_EDGE('',*,*,#539,.F.);
#692=ORIENTED_EDGE('',*,*,#522,.F.);
#693=ORIENTED_EDGE('',*,*,#533,.T.);
#694=ORIENTED_EDGE('',*,*,#540,.F.);
#695=ORIENTED_EDGE('',*,*,#537,.T.);
#696=ORIENTED_EDGE('',*,*,#480,.F.);
#697=ORIENTED_EDGE('',*,*,#541,.F.);
#698=ORIENTED_EDGE('',*,*,#542,.F.);
#699=ORIENTED_EDGE('',*,*,#534,.F.);
#700=ORIENTED_EDGE('',*,*,#520,.F.);
#701=ORIENTED_EDGE('',*,*,#543,.T.);
#702=ORIENTED_EDGE('',*,*,#544,.F.);
#703=ORIENTED_EDGE('',*,*,#527,.F.);
#704=ORIENTED_EDGE('',*,*,#523,.F.);
#705=ORIENTED_EDGE('',*,*,#539,.T.);
#706=ORIENTED_EDGE('',*,*,#545,.F.);
#707=ORIENTED_EDGE('',*,*,#541,.T.);
#708=ORIENTED_EDGE('',*,*,#479,.F.);
#709=ORIENTED_EDGE('',*,*,#531,.F.);
#710=ORIENTED_EDGE('',*,*,#546,.F.);
#711=ORIENTED_EDGE('',*,*,#543,.F.);
#712=ORIENTED_EDGE('',*,*,#519,.F.);
#713=ORIENTED_EDGE('',*,*,#547,.F.);
#714=ORIENTED_EDGE('',*,*,#548,.F.);
#715=ORIENTED_EDGE('',*,*,#549,.T.);
#716=ORIENTED_EDGE('',*,*,#482,.F.);
#717=ORIENTED_EDGE('',*,*,#536,.F.);
#718=ORIENTED_EDGE('',*,*,#550,.F.);
#719=ORIENTED_EDGE('',*,*,#551,.F.);
#720=ORIENTED_EDGE('',*,*,#483,.F.);
#721=ORIENTED_EDGE('',*,*,#549,.F.);
#722=ORIENTED_EDGE('',*,*,#550,.T.);
#723=ORIENTED_EDGE('',*,*,#548,.T.);
#724=ORIENTED_EDGE('',*,*,#535,.T.);
#725=ORIENTED_EDGE('',*,*,#540,.T.);
#726=ORIENTED_EDGE('',*,*,#545,.T.);
#727=ORIENTED_EDGE('',*,*,#530,.F.);
#728=ORIENTED_EDGE('',*,*,#552,.F.);
#729=ORIENTED_EDGE('',*,*,#553,.F.);
#730=ORIENTED_EDGE('',*,*,#554,.F.);
#731=ORIENTED_EDGE('',*,*,#500,.F.);
#732=ORIENTED_EDGE('',*,*,#555,.T.);
#733=ORIENTED_EDGE('',*,*,#556,.F.);
#734=ORIENTED_EDGE('',*,*,#557,.T.);
#735=ORIENTED_EDGE('',*,*,#558,.F.);
#736=ORIENTED_EDGE('',*,*,#544,.T.);
#737=ORIENTED_EDGE('',*,*,#538,.T.);
#738=ORIENTED_EDGE('',*,*,#532,.T.);
#739=ORIENTED_EDGE('',*,*,#542,.T.);
#740=ORIENTED_EDGE('',*,*,#546,.T.);
#741=ORIENTED_EDGE('',*,*,#559,.F.);
#742=ORIENTED_EDGE('',*,*,#560,.F.);
#743=ORIENTED_EDGE('',*,*,#561,.F.);
#744=ORIENTED_EDGE('',*,*,#562,.F.);
#745=ORIENTED_EDGE('',*,*,#492,.F.);
#746=ORIENTED_EDGE('',*,*,#563,.T.);
#747=ORIENTED_EDGE('',*,*,#564,.F.);
#748=ORIENTED_EDGE('',*,*,#565,.T.);
#749=ORIENTED_EDGE('',*,*,#528,.F.);
#750=ORIENTED_EDGE('',*,*,#566,.F.);
#751=ORIENTED_EDGE('',*,*,#496,.F.);
#752=ORIENTED_EDGE('',*,*,#567,.T.);
#753=ORIENTED_EDGE('',*,*,#568,.F.);
#754=ORIENTED_EDGE('',*,*,#560,.T.);
#755=ORIENTED_EDGE('',*,*,#569,.F.);
#756=ORIENTED_EDGE('',*,*,#557,.F.);
#757=ORIENTED_EDGE('',*,*,#570,.F.);
#758=ORIENTED_EDGE('',*,*,#571,.F.);
#759=ORIENTED_EDGE('',*,*,#504,.F.);
#760=ORIENTED_EDGE('',*,*,#572,.T.);
#761=ORIENTED_EDGE('',*,*,#573,.F.);
#762=ORIENTED_EDGE('',*,*,#552,.T.);
#763=ORIENTED_EDGE('',*,*,#529,.F.);
#764=ORIENTED_EDGE('',*,*,#565,.F.);
#765=ORIENTED_EDGE('',*,*,#574,.F.);
#766=ORIENTED_EDGE('',*,*,#473,.F.);
#767=ORIENTED_EDGE('',*,*,#575,.F.);
#768=ORIENTED_EDGE('',*,*,#517,.F.);
#769=ORIENTED_EDGE('',*,*,#485,.T.);
#770=ORIENTED_EDGE('',*,*,#472,.F.);
#771=ORIENTED_EDGE('',*,*,#484,.T.);
#772=ORIENTED_EDGE('',*,*,#551,.T.);
#773=ORIENTED_EDGE('',*,*,#558,.T.);
#774=ORIENTED_EDGE('',*,*,#569,.T.);
#775=ORIENTED_EDGE('',*,*,#559,.T.);
#776=ORIENTED_EDGE('',*,*,#547,.T.);
#777=ORIENTED_EDGE('',*,*,#518,.T.);
#778=ORIENTED_EDGE('',*,*,#515,.F.);
#779=ORIENTED_EDGE('',*,*,#575,.T.);
#780=ORIENTED_EDGE('',*,*,#576,.F.);
#781=ORIENTED_EDGE('',*,*,#577,.T.);
#782=ORIENTED_EDGE('',*,*,#509,.F.);
#783=ORIENTED_EDGE('',*,*,#577,.F.);
#784=ORIENTED_EDGE('',*,*,#501,.T.);
#785=ORIENTED_EDGE('',*,*,#554,.T.);
#786=ORIENTED_EDGE('',*,*,#578,.F.);
#787=ORIENTED_EDGE('',*,*,#579,.F.);
#788=ORIENTED_EDGE('',*,*,#502,.F.);
#789=ORIENTED_EDGE('',*,*,#579,.T.);
#790=ORIENTED_EDGE('',*,*,#580,.F.);
#791=ORIENTED_EDGE('',*,*,#581,.F.);
#792=ORIENTED_EDGE('',*,*,#503,.F.);
#793=ORIENTED_EDGE('',*,*,#581,.T.);
#794=ORIENTED_EDGE('',*,*,#582,.F.);
#795=ORIENTED_EDGE('',*,*,#572,.F.);
#796=ORIENTED_EDGE('',*,*,#582,.T.);
#797=ORIENTED_EDGE('',*,*,#580,.T.);
#798=ORIENTED_EDGE('',*,*,#578,.T.);
#799=ORIENTED_EDGE('',*,*,#553,.T.);
#800=ORIENTED_EDGE('',*,*,#573,.T.);
#801=ORIENTED_EDGE('',*,*,#576,.T.);
#802=ORIENTED_EDGE('',*,*,#583,.F.);
#803=ORIENTED_EDGE('',*,*,#584,.T.);
#804=ORIENTED_EDGE('',*,*,#508,.F.);
#805=ORIENTED_EDGE('',*,*,#584,.F.);
#806=ORIENTED_EDGE('',*,*,#493,.T.);
#807=ORIENTED_EDGE('',*,*,#562,.T.);
#808=ORIENTED_EDGE('',*,*,#585,.F.);
#809=ORIENTED_EDGE('',*,*,#586,.F.);
#810=ORIENTED_EDGE('',*,*,#494,.F.);
#811=ORIENTED_EDGE('',*,*,#586,.T.);
#812=ORIENTED_EDGE('',*,*,#587,.F.);
#813=ORIENTED_EDGE('',*,*,#588,.F.);
#814=ORIENTED_EDGE('',*,*,#495,.F.);
#815=ORIENTED_EDGE('',*,*,#588,.T.);
#816=ORIENTED_EDGE('',*,*,#589,.F.);
#817=ORIENTED_EDGE('',*,*,#567,.F.);
#818=ORIENTED_EDGE('',*,*,#589,.T.);
#819=ORIENTED_EDGE('',*,*,#587,.T.);
#820=ORIENTED_EDGE('',*,*,#585,.T.);
#821=ORIENTED_EDGE('',*,*,#561,.T.);
#822=ORIENTED_EDGE('',*,*,#568,.T.);
#823=ORIENTED_EDGE('',*,*,#583,.T.);
#824=ORIENTED_EDGE('',*,*,#590,.F.);
#825=ORIENTED_EDGE('',*,*,#591,.T.);
#826=ORIENTED_EDGE('',*,*,#510,.F.);
#827=ORIENTED_EDGE('',*,*,#591,.F.);
#828=ORIENTED_EDGE('',*,*,#497,.T.);
#829=ORIENTED_EDGE('',*,*,#566,.T.);
#830=ORIENTED_EDGE('',*,*,#592,.F.);
#831=ORIENTED_EDGE('',*,*,#593,.F.);
#832=ORIENTED_EDGE('',*,*,#498,.F.);
#833=ORIENTED_EDGE('',*,*,#593,.T.);
#834=ORIENTED_EDGE('',*,*,#594,.F.);
#835=ORIENTED_EDGE('',*,*,#595,.F.);
#836=ORIENTED_EDGE('',*,*,#499,.F.);
#837=ORIENTED_EDGE('',*,*,#595,.T.);
#838=ORIENTED_EDGE('',*,*,#596,.F.);
#839=ORIENTED_EDGE('',*,*,#555,.F.);
#840=ORIENTED_EDGE('',*,*,#596,.T.);
#841=ORIENTED_EDGE('',*,*,#594,.T.);
#842=ORIENTED_EDGE('',*,*,#592,.T.);
#843=ORIENTED_EDGE('',*,*,#570,.T.);
#844=ORIENTED_EDGE('',*,*,#556,.T.);
#845=ORIENTED_EDGE('',*,*,#590,.T.);
#846=ORIENTED_EDGE('',*,*,#597,.F.);
#847=ORIENTED_EDGE('',*,*,#598,.T.);
#848=ORIENTED_EDGE('',*,*,#507,.F.);
#849=ORIENTED_EDGE('',*,*,#598,.F.);
#850=ORIENTED_EDGE('',*,*,#505,.T.);
#851=ORIENTED_EDGE('',*,*,#571,.T.);
#852=ORIENTED_EDGE('',*,*,#599,.F.);
#853=ORIENTED_EDGE('',*,*,#600,.F.);
#854=ORIENTED_EDGE('',*,*,#506,.F.);
#855=ORIENTED_EDGE('',*,*,#600,.T.);
#856=ORIENTED_EDGE('',*,*,#601,.F.);
#857=ORIENTED_EDGE('',*,*,#602,.F.);
#858=ORIENTED_EDGE('',*,*,#491,.F.);
#859=ORIENTED_EDGE('',*,*,#602,.T.);
#860=ORIENTED_EDGE('',*,*,#603,.F.);
#861=ORIENTED_EDGE('',*,*,#563,.F.);
#862=ORIENTED_EDGE('',*,*,#603,.T.);
#863=ORIENTED_EDGE('',*,*,#601,.T.);
#864=ORIENTED_EDGE('',*,*,#599,.T.);
#865=ORIENTED_EDGE('',*,*,#574,.T.);
#866=ORIENTED_EDGE('',*,*,#564,.T.);
#867=ORIENTED_EDGE('',*,*,#597,.T.);
#868=CYLINDRICAL_SURFACE('',#943,2.);
#869=CYLINDRICAL_SURFACE('',#961,2.);
#870=CYLINDRICAL_SURFACE('',#964,2.);
#871=CYLINDRICAL_SURFACE('',#969,2.);
#872=CYLINDRICAL_SURFACE('',#974,2.50000002980232);
#873=CYLINDRICAL_SURFACE('',#976,2.50000002980232);
#874=CYLINDRICAL_SURFACE('',#978,2.50000002980232);
#875=CYLINDRICAL_SURFACE('',#983,2.50000002980232);
#876=CYLINDRICAL_SURFACE('',#992,1.8);
#877=CYLINDRICAL_SURFACE('',#995,5.00000007450581);
#878=CYLINDRICAL_SURFACE('',#999,1.8);
#879=CYLINDRICAL_SURFACE('',#1002,5.00000007450581);
#880=CYLINDRICAL_SURFACE('',#1006,1.8);
#881=CYLINDRICAL_SURFACE('',#1009,5.00000007450581);
#882=CYLINDRICAL_SURFACE('',#1013,1.8);
#883=CYLINDRICAL_SURFACE('',#1016,5.00000007450581);
#884=ADVANCED_FACE('',(#53),#868,.T.);
#885=ADVANCED_FACE('',(#54),#24,.T.);
#886=ADVANCED_FACE('',(#55,#15,#16,#17,#18,#19),#25,.T.);
#887=ADVANCED_FACE('',(#56),#869,.T.);
#888=ADVANCED_FACE('',(#57),#26,.T.);
#889=ADVANCED_FACE('',(#58),#870,.T.);
#890=ADVANCED_FACE('',(#59),#27,.T.);
#891=ADVANCED_FACE('',(#60),#871,.T.);
#892=ADVANCED_FACE('',(#61),#28,.T.);
#893=ADVANCED_FACE('',(#62),#29,.F.);
#894=ADVANCED_FACE('',(#63),#30,.F.);
#895=ADVANCED_FACE('',(#64),#872,.F.);
#896=ADVANCED_FACE('',(#65),#873,.F.);
#897=ADVANCED_FACE('',(#66),#874,.F.);
#898=ADVANCED_FACE('',(#67),#31,.F.);
#899=ADVANCED_FACE('',(#68),#32,.F.);
#900=ADVANCED_FACE('',(#69),#33,.F.);
#901=ADVANCED_FACE('',(#70),#875,.F.);
#902=ADVANCED_FACE('',(#71),#34,.F.);
#903=ADVANCED_FACE('',(#72),#35,.T.);
#904=ADVANCED_FACE('',(#73),#36,.T.);
#905=ADVANCED_FACE('',(#74),#37,.T.);
#906=ADVANCED_FACE('',(#75),#38,.T.);
#907=ADVANCED_FACE('',(#76),#39,.T.);
#908=ADVANCED_FACE('',(#77),#40,.T.);
#909=ADVANCED_FACE('',(#78),#876,.F.);
#910=ADVANCED_FACE('',(#79),#41,.T.);
#911=ADVANCED_FACE('',(#80),#877,.T.);
#912=ADVANCED_FACE('',(#81),#42,.T.);
#913=ADVANCED_FACE('',(#82,#20),#43,.F.);
#914=ADVANCED_FACE('',(#83),#878,.F.);
#915=ADVANCED_FACE('',(#84),#44,.T.);
#916=ADVANCED_FACE('',(#85),#879,.T.);
#917=ADVANCED_FACE('',(#86),#45,.T.);
#918=ADVANCED_FACE('',(#87,#21),#46,.F.);
#919=ADVANCED_FACE('',(#88),#880,.F.);
#920=ADVANCED_FACE('',(#89),#47,.T.);
#921=ADVANCED_FACE('',(#90),#881,.T.);
#922=ADVANCED_FACE('',(#91),#48,.T.);
#923=ADVANCED_FACE('',(#92,#22),#49,.F.);
#924=ADVANCED_FACE('',(#93),#882,.F.);
#925=ADVANCED_FACE('',(#94),#50,.T.);
#926=ADVANCED_FACE('',(#95),#883,.T.);
#927=ADVANCED_FACE('',(#96),#51,.T.);
#928=ADVANCED_FACE('',(#97,#23),#52,.F.);
#929=CLOSED_SHELL('',(#884,#885,#886,#887,#888,#889,#890,#891,#892,#893,
#894,#895,#896,#897,#898,#899,#900,#901,#902,#903,#904,#905,#906,#907,#908,
#909,#910,#911,#912,#913,#914,#915,#916,#917,#918,#919,#920,#921,#922,#923,
#924,#925,#926,#927,#928));
#930=DERIVED_UNIT_ELEMENT(#932,1.);
#931=DERIVED_UNIT_ELEMENT(#1547,-3.);
#932=(
MASS_UNIT()
NAMED_UNIT(*)
SI_UNIT(.KILO.,.GRAM.)
);
#933=DERIVED_UNIT((#930,#931));
#934=MEASURE_REPRESENTATION_ITEM('density measure',
POSITIVE_RATIO_MEASURE(7850.),#933);
#935=PROPERTY_DEFINITION_REPRESENTATION(#940,#937);
#936=PROPERTY_DEFINITION_REPRESENTATION(#941,#938);
#937=REPRESENTATION('material name',(#939),#1544);
#938=REPRESENTATION('density',(#934),#1544);
#939=DESCRIPTIVE_REPRESENTATION_ITEM('Steel','Steel');
#940=PROPERTY_DEFINITION('material property','material name',#1554);
#941=PROPERTY_DEFINITION('material property','density of part',#1554);
#942=AXIS2_PLACEMENT_3D('',#1276,#1020,#1021);
#943=AXIS2_PLACEMENT_3D('',#1277,#1022,#1023);
#944=AXIS2_PLACEMENT_3D('',#1280,#1024,#1025);
#945=AXIS2_PLACEMENT_3D('',#1284,#1027,#1028);
#946=AXIS2_PLACEMENT_3D('',#1286,#1030,#1031);
#947=AXIS2_PLACEMENT_3D('',#1296,#1036,#1037);
#948=AXIS2_PLACEMENT_3D('',#1300,#1039,#1040);
#949=AXIS2_PLACEMENT_3D('',#1304,#1043,#1044);
#950=AXIS2_PLACEMENT_3D('',#1308,#1046,#1047);
#951=AXIS2_PLACEMENT_3D('',#1312,#1049,#1050);
#952=AXIS2_PLACEMENT_3D('',#1315,#1052,#1053);
#953=AXIS2_PLACEMENT_3D('',#1324,#1057,#1058);
#954=AXIS2_PLACEMENT_3D('',#1332,#1062,#1063);
#955=AXIS2_PLACEMENT_3D('',#1340,#1067,#1068);
#956=AXIS2_PLACEMENT_3D('',#1347,#1072,#1073);
#957=AXIS2_PLACEMENT_3D('',#1349,#1074,#1075);
#958=AXIS2_PLACEMENT_3D('',#1351,#1076,#1077);
#959=AXIS2_PLACEMENT_3D('',#1353,#1078,#1079);
#960=AXIS2_PLACEMENT_3D('',#1355,#1080,#1081);
#961=AXIS2_PLACEMENT_3D('',#1356,#1082,#1083);
#962=AXIS2_PLACEMENT_3D('',#1358,#1084,#1085);
#963=AXIS2_PLACEMENT_3D('',#1360,#1087,#1088);
#964=AXIS2_PLACEMENT_3D('',#1364,#1091,#1092);
#965=AXIS2_PLACEMENT_3D('',#1367,#1093,#1094);
#966=AXIS2_PLACEMENT_3D('',#1370,#1097,#1098);
#967=AXIS2_PLACEMENT_3D('',#1376,#1101,#1102);
#968=AXIS2_PLACEMENT_3D('',#1380,#1104,#1105);
#969=AXIS2_PLACEMENT_3D('',#1386,#1109,#1110);
#970=AXIS2_PLACEMENT_3D('',#1387,#1111,#1112);
#971=AXIS2_PLACEMENT_3D('',#1388,#1113,#1114);
#972=AXIS2_PLACEMENT_3D('',#1398,#1120,#1121);
#973=AXIS2_PLACEMENT_3D('',#1404,#1125,#1126);
#974=AXIS2_PLACEMENT_3D('',#1410,#1130,#1131);
#975=AXIS2_PLACEMENT_3D('',#1412,#1132,#1133);
#976=AXIS2_PLACEMENT_3D('',#1414,#1135,#1136);
#977=AXIS2_PLACEMENT_3D('',#1416,#1137,#1138);
#978=AXIS2_PLACEMENT_3D('',#1418,#1140,#1141);
#979=AXIS2_PLACEMENT_3D('',#1420,#1142,#1143);
#980=AXIS2_PLACEMENT_3D('',#1422,#1145,#1146);
#981=AXIS2_PLACEMENT_3D('',#1424,#1148,#1149);
#982=AXIS2_PLACEMENT_3D('',#1426,#1151,#1152);
#983=AXIS2_PLACEMENT_3D('',#1430,#1155,#1156);
#984=AXIS2_PLACEMENT_3D('',#1432,#1157,#1158);
#985=AXIS2_PLACEMENT_3D('',#1434,#1160,#1161);
#986=AXIS2_PLACEMENT_3D('',#1438,#1164,#1165);
#987=AXIS2_PLACEMENT_3D('',#1451,#1173,#1174);
#988=AXIS2_PLACEMENT_3D('',#1464,#1182,#1183);
#989=AXIS2_PLACEMENT_3D('',#1472,#1189,#1190);
#990=AXIS2_PLACEMENT_3D('',#1479,#1195,#1196);
#991=AXIS2_PLACEMENT_3D('',#1481,#1198,#1199);
#992=AXIS2_PLACEMENT_3D('',#1482,#1200,#1201);
#993=AXIS2_PLACEMENT_3D('',#1484,#1202,#1203);
#994=AXIS2_PLACEMENT_3D('',#1486,#1205,#1206);
#995=AXIS2_PLACEMENT_3D('',#1490,#1209,#1210);
#996=AXIS2_PLACEMENT_3D('',#1492,#1211,#1212);
#997=AXIS2_PLACEMENT_3D('',#1494,#1214,#1215);
#998=AXIS2_PLACEMENT_3D('',#1496,#1217,#1218);
#999=AXIS2_PLACEMENT_3D('',#1497,#1219,#1220);
#1000=AXIS2_PLACEMENT_3D('',#1499,#1221,#1222);
#1001=AXIS2_PLACEMENT_3D('',#1501,#1224,#1225);
#1002=AXIS2_PLACEMENT_3D('',#1505,#1228,#1229);
#1003=AXIS2_PLACEMENT_3D('',#1507,#1230,#1231);
#1004=AXIS2_PLACEMENT_3D('',#1509,#1233,#1234);
#1005=AXIS2_PLACEMENT_3D('',#1511,#1236,#1237);
#1006=AXIS2_PLACEMENT_3D('',#1512,#1238,#1239);
#1007=AXIS2_PLACEMENT_3D('',#1514,#1240,#1241);
#1008=AXIS2_PLACEMENT_3D('',#1516,#1243,#1244);
#1009=AXIS2_PLACEMENT_3D('',#1520,#1247,#1248);
#1010=AXIS2_PLACEMENT_3D('',#1522,#1249,#1250);
#1011=AXIS2_PLACEMENT_3D('',#1524,#1252,#1253);
#1012=AXIS2_PLACEMENT_3D('',#1526,#1255,#1256);
#1013=AXIS2_PLACEMENT_3D('',#1527,#1257,#1258);
#1014=AXIS2_PLACEMENT_3D('',#1529,#1259,#1260);
#1015=AXIS2_PLACEMENT_3D('',#1531,#1262,#1263);
#1016=AXIS2_PLACEMENT_3D('',#1535,#1266,#1267);
#1017=AXIS2_PLACEMENT_3D('',#1537,#1268,#1269);
#1018=AXIS2_PLACEMENT_3D('',#1539,#1271,#1272);
#1019=AXIS2_PLACEMENT_3D('',#1541,#1274,#1275);
#1020=DIRECTION('axis',(0.,0.,1.));
#1021=DIRECTION('refdir',(1.,0.,0.));
#1022=DIRECTION('center_axis',(0.,-1.,0.));
#1023=DIRECTION('ref_axis',(0.707106781186551,0.,-0.707106781186544));
#1024=DIRECTION('center_axis',(0.,1.,0.));
#1025=DIRECTION('ref_axis',(0.707106781186551,0.,-0.707106781186544));
#1026=DIRECTION('',(0.,1.,0.));
#1027=DIRECTION('center_axis',(0.,-1.,0.));
#1028=DIRECTION('ref_axis',(0.707106781186551,0.,-0.707106781186544));
#1029=DIRECTION('',(0.,-1.,0.));
#1030=DIRECTION('center_axis',(1.,0.,0.));
#1031=DIRECTION('ref_axis',(0.,0.,1.));
#1032=DIRECTION('',(0.,0.,1.));
#1033=DIRECTION('',(0.,1.,0.));
#1034=DIRECTION('',(0.,0.,1.));
#1035=DIRECTION('',(0.,1.,0.));
#1036=DIRECTION('center_axis',(-1.,0.,0.));
#1037=DIRECTION('ref_axis',(0.,-1.,0.));
#1038=DIRECTION('',(0.,0.,-1.));
#1039=DIRECTION('center_axis',(-1.,0.,0.));
#1040=DIRECTION('ref_axis',(0.,1.,0.));
#1041=DIRECTION('',(0.,-1.,0.));
#1042=DIRECTION('',(0.,0.,1.));
#1043=DIRECTION('center_axis',(0.,1.,0.));
#1044=DIRECTION('ref_axis',(1.,0.,0.));
#1045=DIRECTION('',(1.,0.,0.));
#1046=DIRECTION('center_axis',(0.,-1.,0.));
#1047=DIRECTION('ref_axis',(-0.707106781186546,0.,-0.707106781186549));
#1048=DIRECTION('',(0.,0.,-1.));
#1049=DIRECTION('center_axis',(0.,-1.,0.));
#1050=DIRECTION('ref_axis',(-0.707106781186548,0.,0.707106781186547));
#1051=DIRECTION('',(-1.,0.,0.));
#1052=DIRECTION('center_axis',(0.,-1.,0.));
#1053=DIRECTION('ref_axis',(0.707106781186546,0.,0.707106781186549));
#1054=DIRECTION('',(-1.,0.,0.));
#1055=DIRECTION('',(0.,0.,-1.));
#1056=DIRECTION('',(-1.,0.,0.));
#1057=DIRECTION('center_axis',(0.,1.,0.));
#1058=DIRECTION('ref_axis',(0.,0.,1.));
#1059=DIRECTION('',(-3.70074394848921E-16,0.,-1.));
#1060=DIRECTION('',(1.,0.,0.));
#1061=DIRECTION('',(0.,0.,-1.));
#1062=DIRECTION('center_axis',(0.,1.,0.));
#1063=DIRECTION('ref_axis',(-1.,0.,0.));
#1064=DIRECTION('',(1.,0.,0.));
#1065=DIRECTION('',(0.,0.,1.));
#1066=DIRECTION('',(1.,0.,-3.70074394848921E-16));
#1067=DIRECTION('center_axis',(0.,1.,0.));
#1068=DIRECTION('ref_axis',(0.,0.,-1.));
#1069=DIRECTION('',(0.,0.,1.));
#1070=DIRECTION('',(-1.,0.,0.));
#1071=DIRECTION('',(0.,0.,1.));
#1072=DIRECTION('center_axis',(0.,1.,0.));
#1073=DIRECTION('ref_axis',(1.,0.,0.));
#1074=DIRECTION('center_axis',(0.,-1.,0.));
#1075=DIRECTION('ref_axis',(1.,0.,0.));
#1076=DIRECTION('center_axis',(0.,-1.,0.));
#1077=DIRECTION('ref_axis',(1.,0.,0.));
#1078=DIRECTION('center_axis',(0.,-1.,0.));
#1079=DIRECTION('ref_axis',(1.,0.,0.));
#1080=DIRECTION('center_axis',(0.,-1.,0.));
#1081=DIRECTION('ref_axis',(1.,0.,0.));
#1082=DIRECTION('center_axis',(0.,-1.,0.));
#1083=DIRECTION('ref_axis',(0.707106781186546,0.,0.707106781186549));
#1084=DIRECTION('center_axis',(0.,1.,0.));
#1085=DIRECTION('ref_axis',(0.707106781186546,0.,0.707106781186549));
#1086=DIRECTION('',(0.,-1.,0.));
#1087=DIRECTION('center_axis',(0.,0.,1.));
#1088=DIRECTION('ref_axis',(-1.,0.,0.));
#1089=DIRECTION('',(0.,1.,0.));
#1090=DIRECTION('',(-1.,0.,0.));
#1091=DIRECTION('center_axis',(0.,-1.,0.));
#1092=DIRECTION('ref_axis',(-0.707106781186546,0.,-0.707106781186549));
#1093=DIRECTION('center_axis',(0.,1.,0.));
#1094=DIRECTION('ref_axis',(-0.707106781186546,0.,-0.707106781186549));
#1095=DIRECTION('',(0.,1.,0.));
#1096=DIRECTION('',(0.,-1.,0.));
#1097=DIRECTION('center_axis',(-1.,0.,0.));
#1098=DIRECTION('ref_axis',(0.,0.,-1.));
#1099=DIRECTION('',(0.,0.,-1.));
#1100=DIRECTION('',(0.,1.,0.));
#1101=DIRECTION('center_axis',(1.,0.,0.));
#1102=DIRECTION('ref_axis',(0.,1.,0.));
#1103=DIRECTION('',(0.,0.,1.));
#1104=DIRECTION('center_axis',(1.,0.,0.));
#1105=DIRECTION('ref_axis',(0.,-1.,0.));
#1106=DIRECTION('',(0.,-1.,0.));
#1107=DIRECTION('',(0.,0.,-1.));
#1108=DIRECTION('',(0.,-1.,0.));
#1109=DIRECTION('center_axis',(0.,-1.,0.));
#1110=DIRECTION('ref_axis',(-0.707106781186548,0.,0.707106781186547));
#1111=DIRECTION('center_axis',(0.,1.,0.));
#1112=DIRECTION('ref_axis',(-0.707106781186548,0.,0.707106781186547));
#1113=DIRECTION('center_axis',(0.,-1.,0.));
#1114=DIRECTION('ref_axis',(0.,0.,-1.));
#1115=DIRECTION('',(1.,0.,0.));
#1116=DIRECTION('',(0.,0.,1.));
#1117=DIRECTION('',(1.,0.,0.));
#1118=DIRECTION('',(0.,0.,-1.));
#1119=DIRECTION('',(1.,0.,0.));
#1120=DIRECTION('center_axis',(0.,1.,0.));
#1121=DIRECTION('ref_axis',(0.,0.,1.));
#1122=DIRECTION('',(0.,0.,-1.));
#1123=DIRECTION('',(1.,0.,0.));
#1124=DIRECTION('',(1.,0.,0.));
#1125=DIRECTION('center_axis',(0.,1.,0.));
#1126=DIRECTION('ref_axis',(0.,0.,1.));
#1127=DIRECTION('',(0.,0.,1.));
#1128=DIRECTION('',(1.,0.,0.));
#1129=DIRECTION('',(1.,0.,0.));
#1130=DIRECTION('center_axis',(1.,0.,0.));
#1131=DIRECTION('ref_axis',(0.,-1.,0.));
#1132=DIRECTION('center_axis',(-1.,0.,0.));
#1133=DIRECTION('ref_axis',(0.,-1.,0.));
#1134=DIRECTION('',(1.,0.,0.));
#1135=DIRECTION('center_axis',(1.,0.,0.));
#1136=DIRECTION('ref_axis',(0.,-1.,0.));
#1137=DIRECTION('center_axis',(1.,0.,0.));
#1138=DIRECTION('ref_axis',(0.,-1.,0.));
#1139=DIRECTION('',(1.,0.,0.));
#1140=DIRECTION('center_axis',(1.,0.,0.));
#1141=DIRECTION('ref_axis',(0.,1.,0.));
#1142=DIRECTION('center_axis',(-1.,0.,0.));
#1143=DIRECTION('ref_axis',(0.,1.,0.));
#1144=DIRECTION('',(1.,0.,0.));
#1145=DIRECTION('center_axis',(0.,0.,1.));
#1146=DIRECTION('ref_axis',(0.,-1.,0.));
#1147=DIRECTION('',(0.,1.,0.));
#1148=DIRECTION('center_axis',(0.,0.,1.));
#1149=DIRECTION('ref_axis',(0.,-1.,0.));
#1150=DIRECTION('',(0.,-1.,0.));
#1151=DIRECTION('center_axis',(0.,0.,-1.));
#1152=DIRECTION('ref_axis',(0.,1.,0.));
#1153=DIRECTION('',(0.,-1.,0.));
#1154=DIRECTION('',(-1.,0.,0.));
#1155=DIRECTION('center_axis',(1.,0.,0.));
#1156=DIRECTION('ref_axis',(0.,1.,0.));
#1157=DIRECTION('center_axis',(1.,0.,0.));
#1158=DIRECTION('ref_axis',(0.,1.,0.));
#1159=DIRECTION('',(1.,0.,0.));
#1160=DIRECTION('center_axis',(0.,0.,-1.));
#1161=DIRECTION('ref_axis',(0.,1.,0.));
#1162=DIRECTION('',(0.,1.,0.));
#1163=DIRECTION('',(-1.,0.,0.));
#1164=DIRECTION('center_axis',(-1.,0.,0.));
#1165=DIRECTION('ref_axis',(0.,0.,-1.));
#1166=DIRECTION('',(0.,-1.,0.));
#1167=DIRECTION('',(0.,0.,1.));
#1168=DIRECTION('',(0.,-1.,0.));
#1169=DIRECTION('',(0.,-1.,0.));
#1170=DIRECTION('',(0.,0.,1.));
#1171=DIRECTION('',(0.,-1.,0.));
#1172=DIRECTION('',(0.,0.,-1.));
#1173=DIRECTION('center_axis',(1.,0.,0.));
#1174=DIRECTION('ref_axis',(0.,0.,1.));
#1175=DIRECTION('',(0.,0.,1.));
#1176=DIRECTION('',(0.,-1.,0.));
#1177=DIRECTION('',(0.,0.,-1.));
#1178=DIRECTION('',(0.,-1.,0.));
#1179=DIRECTION('',(0.,-1.,0.));
#1180=DIRECTION('',(0.,0.,-1.));
#1181=DIRECTION('',(0.,-1.,0.));
#1182=DIRECTION('center_axis',(0.,0.,1.));
#1183=DIRECTION('ref_axis',(-1.,0.,0.));
#1184=DIRECTION('',(0.,-1.,0.));
#1185=DIRECTION('',(0.,-1.,0.));
#1186=DIRECTION('',(1.,0.,0.));
#1187=DIRECTION('',(-1.,0.,0.));
#1188=DIRECTION('',(1.,0.,0.));
#1189=DIRECTION('center_axis',(0.,0.,-1.));
#1190=DIRECTION('ref_axis',(1.,0.,0.));
#1191=DIRECTION('',(0.,-1.,0.));
#1192=DIRECTION('',(0.,-1.,0.));
#1193=DIRECTION('',(-1.,0.,0.));
#1194=DIRECTION('',(-1.,0.,0.));
#1195=DIRECTION('center_axis',(0.,0.,-1.));
#1196=DIRECTION('ref_axis',(1.,0.,0.));
#1197=DIRECTION('',(1.,0.,0.));
#1198=DIRECTION('center_axis',(0.,-1.,0.));
#1199=DIRECTION('ref_axis',(0.,0.,-1.));
#1200=DIRECTION('center_axis',(0.,-1.,0.));
#1201=DIRECTION('ref_axis',(1.,0.,0.));
#1202=DIRECTION('center_axis',(0.,1.,0.));
#1203=DIRECTION('ref_axis',(1.,0.,0.));
#1204=DIRECTION('',(0.,1.,0.));
#1205=DIRECTION('center_axis',(-3.70074394848921E-16,0.,-1.));
#1206=DIRECTION('ref_axis',(1.,0.,-3.70074394848921E-16));
#1207=DIRECTION('',(1.,0.,-3.70074394848921E-16));
#1208=DIRECTION('',(0.,-1.,0.));
#1209=DIRECTION('center_axis',(0.,-1.,0.));
#1210=DIRECTION('ref_axis',(0.,0.,-1.));
#1211=DIRECTION('center_axis',(0.,-1.,0.));
#1212=DIRECTION('ref_axis',(0.,0.,-1.));
#1213=DIRECTION('',(0.,-1.,0.));
#1214=DIRECTION('center_axis',(-1.,0.,0.));
#1215=DIRECTION('ref_axis',(0.,0.,-1.));
#1216=DIRECTION('',(0.,0.,-1.));
#1217=DIRECTION('center_axis',(0.,1.,0.));
#1218=DIRECTION('ref_axis',(1.,0.,0.));
#1219=DIRECTION('center_axis',(0.,-1.,0.));
#1220=DIRECTION('ref_axis',(1.,0.,0.));
#1221=DIRECTION('center_axis',(0.,1.,0.));
#1222=DIRECTION('ref_axis',(1.,0.,0.));
#1223=DIRECTION('',(0.,1.,0.));
#1224=DIRECTION('center_axis',(0.,0.,1.));
#1225=DIRECTION('ref_axis',(-1.,0.,0.));
#1226=DIRECTION('',(-1.,0.,0.));
#1227=DIRECTION('',(0.,-1.,0.));
#1228=DIRECTION('center_axis',(0.,-1.,0.));
#1229=DIRECTION('ref_axis',(0.,0.,1.));
#1230=DIRECTION('center_axis',(0.,-1.,0.));
#1231=DIRECTION('ref_axis',(0.,0.,1.));
#1232=DIRECTION('',(0.,-1.,0.));
#1233=DIRECTION('center_axis',(1.,0.,-3.70074394848921E-16));
#1234=DIRECTION('ref_axis',(3.70074394848921E-16,0.,1.));
#1235=DIRECTION('',(3.70074394848921E-16,0.,1.));
#1236=DIRECTION('center_axis',(0.,1.,0.));
#1237=DIRECTION('ref_axis',(1.,0.,0.));
#1238=DIRECTION('center_axis',(0.,-1.,0.));
#1239=DIRECTION('ref_axis',(1.,0.,0.));
#1240=DIRECTION('center_axis',(0.,1.,0.));
#1241=DIRECTION('ref_axis',(1.,0.,0.));
#1242=DIRECTION('',(0.,1.,0.));
#1243=DIRECTION('center_axis',(-1.,0.,0.));
#1244=DIRECTION('ref_axis',(0.,0.,-1.));
#1245=DIRECTION('',(0.,0.,-1.));
#1246=DIRECTION('',(0.,-1.,0.));
#1247=DIRECTION('center_axis',(0.,-1.,0.));
#1248=DIRECTION('ref_axis',(-1.,0.,0.));
#1249=DIRECTION('center_axis',(0.,-1.,0.));
#1250=DIRECTION('ref_axis',(-1.,0.,0.));
#1251=DIRECTION('',(0.,-1.,0.));
#1252=DIRECTION('center_axis',(0.,0.,1.));
#1253=DIRECTION('ref_axis',(-1.,0.,0.));
#1254=DIRECTION('',(-1.,0.,0.));
#1255=DIRECTION('center_axis',(0.,1.,0.));
#1256=DIRECTION('ref_axis',(1.,0.,0.));
#1257=DIRECTION('center_axis',(0.,-1.,0.));
#1258=DIRECTION('ref_axis',(1.,0.,0.));
#1259=DIRECTION('center_axis',(0.,1.,0.));
#1260=DIRECTION('ref_axis',(1.,0.,0.));
#1261=DIRECTION('',(0.,1.,0.));
#1262=DIRECTION('center_axis',(1.,0.,0.));
#1263=DIRECTION('ref_axis',(0.,0.,1.));
#1264=DIRECTION('',(0.,0.,1.));
#1265=DIRECTION('',(0.,-1.,0.));
#1266=DIRECTION('center_axis',(0.,-1.,0.));
#1267=DIRECTION('ref_axis',(1.,0.,0.));
#1268=DIRECTION('center_axis',(0.,-1.,0.));
#1269=DIRECTION('ref_axis',(1.,0.,0.));
#1270=DIRECTION('',(0.,-1.,0.));
#1271=DIRECTION('center_axis',(0.,0.,-1.));
#1272=DIRECTION('ref_axis',(1.,0.,0.));
#1273=DIRECTION('',(1.,0.,0.));
#1274=DIRECTION('center_axis',(0.,1.,0.));
#1275=DIRECTION('ref_axis',(1.,0.,0.));
#1276=CARTESIAN_POINT('',(0.,0.,0.));
#1277=CARTESIAN_POINT('Origin',(66.000001013279,0.,-66.000001013279));
#1278=CARTESIAN_POINT('',(68.000001013279,-17.,-66.000001013279));
#1279=CARTESIAN_POINT('',(66.000001013279,-17.,-68.000001013279));
#1280=CARTESIAN_POINT('Origin',(66.000001013279,-17.,-66.000001013279));
#1281=CARTESIAN_POINT('',(66.000001013279,0.,-68.000001013279));
#1282=CARTESIAN_POINT('',(66.000001013279,0.,-68.000001013279));
#1283=CARTESIAN_POINT('',(68.000001013279,0.,-66.000001013279));
#1284=CARTESIAN_POINT('Origin',(66.000001013279,0.,-66.000001013279));
#1285=CARTESIAN_POINT('',(68.000001013279,0.,-66.000001013279));
#1286=CARTESIAN_POINT('Origin',(68.000001013279,0.,-68.000001013279));
#1287=CARTESIAN_POINT('',(68.000001013279,0.,-4.00000002980232));
#1288=CARTESIAN_POINT('',(68.000001013279,0.,-68.000001013279));
#1289=CARTESIAN_POINT('',(68.000001013279,-17.,-4.00000002980232));
#1290=CARTESIAN_POINT('',(68.000001013279,0.,-4.00000002980232));
#1291=CARTESIAN_POINT('',(68.000001013279,-17.,-20.1500004917383));
#1292=CARTESIAN_POINT('',(68.000001013279,-17.,-68.000001013279));
#1293=CARTESIAN_POINT('',(68.000001013279,-8.20000013411045,-20.1500004917383));
#1294=CARTESIAN_POINT('',(68.000001013279,-4.10000006705523,-20.1500004917383));
#1295=CARTESIAN_POINT('',(68.000001013279,-5.70000010430813,-22.6500005215406));
#1296=CARTESIAN_POINT('Origin',(68.000001013279,-8.20000013411045,-22.6500005215406));
#1297=CARTESIAN_POINT('',(68.000001013279,-5.70000010430813,-47.3500005215406));
#1298=CARTESIAN_POINT('',(68.000001013279,-5.70000010430813,-57.6750007674098));
#1299=CARTESIAN_POINT('',(68.000001013279,-8.20000013411045,-49.850000551343));
#1300=CARTESIAN_POINT('Origin',(68.000001013279,-8.20000013411045,-47.3500005215406));
#1301=CARTESIAN_POINT('',(68.000001013279,-17.,-49.850000551343));
#1302=CARTESIAN_POINT('',(68.000001013279,-8.50000012665987,-49.850000551343));
#1303=CARTESIAN_POINT('',(68.000001013279,-17.,-68.000001013279));
#1304=CARTESIAN_POINT('Origin',(9.50000012665987,0.,-9.50000012665987));
#1305=CARTESIAN_POINT('',(4.00000002980232,0.,-68.000001013279));
#1306=CARTESIAN_POINT('',(2.00000002980232,0.,-68.000001013279));
#1307=CARTESIAN_POINT('',(2.00000002980232,0.,-66.000001013279));
#1308=CARTESIAN_POINT('Origin',(4.00000002980232,0.,-66.000001013279));
#1309=CARTESIAN_POINT('',(2.00000002980232,0.,-4.00000002980232));
#1310=CARTESIAN_POINT('',(2.00000002980232,0.,-2.00000002980232));
#1311=CARTESIAN_POINT('',(4.00000002980232,0.,-2.00000002980232));
#1312=CARTESIAN_POINT('Origin',(4.00000002980232,0.,-4.00000002980232));
#1313=CARTESIAN_POINT('',(66.000001013279,0.,-2.00000002980232));
#1314=CARTESIAN_POINT('',(68.000001013279,0.,-2.00000002980232));
#1315=CARTESIAN_POINT('Origin',(66.000001013279,0.,-4.00000002980232));
#1316=CARTESIAN_POINT('',(10.0000001490116,0.,-15.0000002235174));
#1317=CARTESIAN_POINT('',(4.00000002980232,0.,-15.0000002235174));
#1318=CARTESIAN_POINT('',(10.0000001490116,0.,-15.0000002235174));
#1319=CARTESIAN_POINT('',(4.00000002980232,0.,-55.0000008195639));
#1320=CARTESIAN_POINT('',(4.00000002980232,0.,-66.0000000298023));
#1321=CARTESIAN_POINT('',(10.0000001490116,0.,-55.0000008195639));
#1322=CARTESIAN_POINT('',(10.0000001490116,0.,-55.0000008195639));
#1323=CARTESIAN_POINT('',(15.0000002235174,0.,-60.0000008940697));
#1324=CARTESIAN_POINT('Origin',(10.0000001490116,0.,-60.0000008940697));
#1325=CARTESIAN_POINT('',(15.0000002235174,0.,-66.0000000298023));
#1326=CARTESIAN_POINT('',(15.0000002235174,0.,-60.0000008940697));
#1327=CARTESIAN_POINT('',(55.0000008195639,0.,-66.0000000298023));
#1328=CARTESIAN_POINT('',(66.0000000298023,0.,-66.0000000298023));
#1329=CARTESIAN_POINT('',(55.0000008195639,0.,-60.0000008940697));
#1330=CARTESIAN_POINT('',(55.0000008195639,0.,-60.0000008940697));
#1331=CARTESIAN_POINT('',(60.0000008940697,0.,-55.0000008195639));
#1332=CARTESIAN_POINT('Origin',(60.0000008940697,0.,-60.0000008940697));
#1333=CARTESIAN_POINT('',(66.0000000298023,0.,-55.0000008195639));
#1334=CARTESIAN_POINT('',(60.0000008940697,0.,-55.0000008195639));
#1335=CARTESIAN_POINT('',(66.0000000298023,0.,-15.0000002235174));
#1336=CARTESIAN_POINT('',(66.0000000298023,0.,-4.00000002980232));
#1337=CARTESIAN_POINT('',(60.0000008940697,0.,-15.0000002235174));
#1338=CARTESIAN_POINT('',(60.0000008940697,0.,-15.0000002235174));
#1339=CARTESIAN_POINT('',(55.0000008195639,0.,-10.0000001490116));
#1340=CARTESIAN_POINT('Origin',(60.0000008940697,0.,-10.0000001490116));
#1341=CARTESIAN_POINT('',(55.0000008195639,0.,-4.00000002980232));
#1342=CARTESIAN_POINT('',(55.0000008195639,0.,-10.0000001490116));
#1343=CARTESIAN_POINT('',(15.0000002235174,0.,-4.00000002980232));
#1344=CARTESIAN_POINT('',(4.00000002980232,0.,-4.00000002980232));
#1345=CARTESIAN_POINT('',(15.0000002235174,0.,-10.0000001490116));
#1346=CARTESIAN_POINT('',(15.0000002235174,0.,-10.0000001490116));
#1347=CARTESIAN_POINT('Origin',(10.0000001490116,0.,-10.0000001490116));
#1348=CARTESIAN_POINT('',(8.20000014901161,0.,-10.0000001490116));
#1349=CARTESIAN_POINT('Origin',(10.0000001490116,0.,-10.0000001490116));
#1350=CARTESIAN_POINT('',(8.20000014901161,0.,-60.0000008940697));
#1351=CARTESIAN_POINT('Origin',(10.0000001490116,0.,-60.0000008940697));
#1352=CARTESIAN_POINT('',(58.2000008940697,0.,-10.0000001490116));
#1353=CARTESIAN_POINT('Origin',(60.0000008940697,0.,-10.0000001490116));
#1354=CARTESIAN_POINT('',(58.2000008940697,0.,-60.0000008940697));
#1355=CARTESIAN_POINT('Origin',(60.0000008940697,0.,-60.0000008940697));
#1356=CARTESIAN_POINT('Origin',(66.000001013279,0.,-4.00000002980232));
#1357=CARTESIAN_POINT('',(66.000001013279,-17.,-2.00000002980232));
#1358=CARTESIAN_POINT('Origin',(66.000001013279,-17.,-4.00000002980232));
#1359=CARTESIAN_POINT('',(66.000001013279,0.,-2.00000002980232));
#1360=CARTESIAN_POINT('Origin',(68.000001013279,0.,-2.00000002980232));
#1361=CARTESIAN_POINT('',(4.00000002980232,-17.,-2.00000002980232));
#1362=CARTESIAN_POINT('',(4.00000002980232,0.,-2.00000002980232));
#1363=CARTESIAN_POINT('',(68.000001013279,-17.,-2.00000002980232));
#1364=CARTESIAN_POINT('Origin',(4.00000002980232,0.,-66.000001013279));
#1365=CARTESIAN_POINT('',(4.00000002980232,-17.,-68.000001013279));
#1366=CARTESIAN_POINT('',(2.00000002980232,-17.,-66.000001013279));
#1367=CARTESIAN_POINT('Origin',(4.00000002980232,-17.,-66.000001013279));
#1368=CARTESIAN_POINT('',(2.00000002980232,0.,-66.000001013279));
#1369=CARTESIAN_POINT('',(4.00000002980232,0.,-68.000001013279));
#1370=CARTESIAN_POINT('Origin',(2.00000002980232,0.,-2.00000002980232));
#1371=CARTESIAN_POINT('',(2.00000002980232,-17.,-49.850000551343));
#1372=CARTESIAN_POINT('',(2.00000002980232,-17.,-2.00000002980232));
#1373=CARTESIAN_POINT('',(2.00000002980232,-8.20000013411045,-49.850000551343));
#1374=CARTESIAN_POINT('',(2.00000002980232,-8.50000012665987,-49.850000551343));
#1375=CARTESIAN_POINT('',(2.00000002980232,-5.70000010430813,-47.3500005215406));
#1376=CARTESIAN_POINT('Origin',(2.00000002980232,-8.20000013411045,-47.3500005215406));
#1377=CARTESIAN_POINT('',(2.00000002980232,-5.70000010430813,-22.6500005215406));
#1378=CARTESIAN_POINT('',(2.00000002980232,-5.70000010430813,-24.6750002756715));
#1379=CARTESIAN_POINT('',(2.00000002980232,-8.20000013411045,-20.1500004917383));
#1380=CARTESIAN_POINT('Origin',(2.00000002980232,-8.20000013411045,-22.6500005215406));
#1381=CARTESIAN_POINT('',(2.00000002980232,-17.,-20.1500004917383));
#1382=CARTESIAN_POINT('',(2.00000002980232,-4.10000006705523,-20.1500004917383));
#1383=CARTESIAN_POINT('',(2.00000002980232,-17.,-4.00000002980232));
#1384=CARTESIAN_POINT('',(2.00000002980232,-17.,-2.00000002980232));
#1385=CARTESIAN_POINT('',(2.00000002980232,0.,-4.00000002980232));
#1386=CARTESIAN_POINT('Origin',(4.00000002980232,0.,-4.00000002980232));
#1387=CARTESIAN_POINT('Origin',(4.00000002980232,-17.,-4.00000002980232));
#1388=CARTESIAN_POINT('Origin',(35.0000005215406,-17.,-35.0000005215406));
#1389=CARTESIAN_POINT('',(4.00000002980232,-17.,-20.1500004917383));
#1390=CARTESIAN_POINT('',(18.5000002756715,-17.,-20.1500004917383));
#1391=CARTESIAN_POINT('',(4.00000002980232,-17.,-4.00000002980232));
#1392=CARTESIAN_POINT('',(4.00000002980232,-17.,-66.0000000298023));
#1393=CARTESIAN_POINT('',(66.0000000298023,-17.,-4.00000002980232));
#1394=CARTESIAN_POINT('',(4.00000002980232,-17.,-4.00000002980232));
#1395=CARTESIAN_POINT('',(66.0000000298023,-17.,-20.1500004917383));
#1396=CARTESIAN_POINT('',(66.0000000298023,-17.,-4.00000002980232));
#1397=CARTESIAN_POINT('',(18.5000002756715,-17.,-20.1500004917383));
#1398=CARTESIAN_POINT('Origin',(2.00000002980232,-5.70000010430813,-47.3500005215406));
#1399=CARTESIAN_POINT('',(4.00000002980232,-5.70000010430813,-22.6500005215406));
#1400=CARTESIAN_POINT('',(4.00000002980232,-5.70000010430813,-47.3500005215406));
#1401=CARTESIAN_POINT('',(4.00000002980232,-5.70000010430813,-56.6750002756715));
#1402=CARTESIAN_POINT('',(2.00000002980232,-5.70000010430813,-22.6500005215406));
#1403=CARTESIAN_POINT('',(2.00000002980232,-5.70000010430813,-47.3500005215406));
#1404=CARTESIAN_POINT('Origin',(2.00000002980232,-5.70000010430813,-47.3500005215406));
#1405=CARTESIAN_POINT('',(66.0000000298023,-5.70000010430813,-47.3500005215406));
#1406=CARTESIAN_POINT('',(66.0000000298023,-5.70000010430813,-22.6500005215406));
#1407=CARTESIAN_POINT('',(66.0000000298023,-5.70000010430813,-25.6750002756715));
#1408=CARTESIAN_POINT('',(2.00000002980232,-5.70000010430813,-47.3500005215406));
#1409=CARTESIAN_POINT('',(2.00000002980232,-5.70000010430813,-22.6500005215406));
#1410=CARTESIAN_POINT('Origin',(2.00000002980232,-8.20000013411045,-22.6500005215406));
#1411=CARTESIAN_POINT('',(4.00000002980232,-8.20000013411045,-20.1500004917383));
#1412=CARTESIAN_POINT('Origin',(4.00000002980232,-8.20000013411045,-22.6500005215406));
#1413=CARTESIAN_POINT('',(2.00000002980232,-8.20000013411045,-20.1500004917383));
#1414=CARTESIAN_POINT('Origin',(2.00000002980232,-8.20000013411045,-22.6500005215406));
#1415=CARTESIAN_POINT('',(66.0000000298023,-8.20000013411045,-20.1500004917383));
#1416=CARTESIAN_POINT('Origin',(66.0000000298023,-8.20000013411045,-22.6500005215406));
#1417=CARTESIAN_POINT('',(2.00000002980232,-8.20000013411045,-20.1500004917383));
#1418=CARTESIAN_POINT('Origin',(2.00000002980232,-8.20000013411045,-47.3500005215406));
#1419=CARTESIAN_POINT('',(4.00000002980232,-8.20000013411045,-49.850000551343));
#1420=CARTESIAN_POINT('Origin',(4.00000002980232,-8.20000013411045,-47.3500005215406));
#1421=CARTESIAN_POINT('',(2.00000002980232,-8.20000013411045,-49.850000551343));
#1422=CARTESIAN_POINT('Origin',(2.00000002980232,-8.20000013411045,-20.1500004917383));
#1423=CARTESIAN_POINT('',(4.00000002980232,-4.10000006705523,-20.1500004917383));
#1424=CARTESIAN_POINT('Origin',(2.00000002980232,-8.20000013411045,-20.1500004917383));
#1425=CARTESIAN_POINT('',(66.0000000298023,-4.10000006705523,-20.1500004917383));
#1426=CARTESIAN_POINT('Origin',(2.00000002980232,-17.0000002533197,-49.850000551343));
#1427=CARTESIAN_POINT('',(4.00000002980232,-17.,-49.850000551343));
#1428=CARTESIAN_POINT('',(4.00000002980232,-8.50000012665987,-49.850000551343));
#1429=CARTESIAN_POINT('',(18.5000002756715,-17.,-49.850000551343));
#1430=CARTESIAN_POINT('Origin',(2.00000002980232,-8.20000013411045,-47.3500005215406));
#1431=CARTESIAN_POINT('',(66.0000000298023,-8.20000013411045,-49.850000551343));
#1432=CARTESIAN_POINT('Origin',(66.0000000298023,-8.20000013411045,-47.3500005215406));
#1433=CARTESIAN_POINT('',(2.00000002980232,-8.20000013411045,-49.850000551343));
#1434=CARTESIAN_POINT('Origin',(2.00000002980232,-17.0000002533197,-49.850000551343));
#1435=CARTESIAN_POINT('',(66.0000000298023,-17.,-49.850000551343));
#1436=CARTESIAN_POINT('',(66.0000000298023,-8.50000012665987,-49.850000551343));
#1437=CARTESIAN_POINT('',(18.5000002756715,-17.,-49.850000551343));
#1438=CARTESIAN_POINT('Origin',(66.0000000298023,0.,-4.00000002980232));
#1439=CARTESIAN_POINT('',(66.0000000298023,-10.,-4.00000002980232));
#1440=CARTESIAN_POINT('',(66.0000000298023,0.,-4.00000002980232));
#1441=CARTESIAN_POINT('',(66.0000000298023,-10.,-15.0000002235174));
#1442=CARTESIAN_POINT('',(66.0000000298023,-10.,-4.00000002980232));
#1443=CARTESIAN_POINT('',(66.0000000298023,0.,-15.0000002235174));
#1444=CARTESIAN_POINT('',(66.0000000298023,-10.,-55.0000008195639));
#1445=CARTESIAN_POINT('',(66.0000000298023,0.,-55.0000008195639));
#1446=CARTESIAN_POINT('',(66.0000000298023,-10.,-66.0000000298023));
#1447=CARTESIAN_POINT('',(66.0000000298023,-10.,-4.00000002980232));
#1448=CARTESIAN_POINT('',(66.0000000298023,-17.,-66.0000000298023));
#1449=CARTESIAN_POINT('',(66.0000000298023,0.,-66.0000000298023));
#1450=CARTESIAN_POINT('',(66.0000000298023,-17.,-4.00000002980232));
#1451=CARTESIAN_POINT('Origin',(4.00000002980232,0.,-66.0000000298023));
#1452=CARTESIAN_POINT('',(4.00000002980232,-17.,-66.0000000298023));
#1453=CARTESIAN_POINT('',(4.00000002980232,-17.,-66.0000000298023));
#1454=CARTESIAN_POINT('',(4.00000002980232,-10.,-66.0000000298023));
#1455=CARTESIAN_POINT('',(4.00000002980232,0.,-66.0000000298023));
#1456=CARTESIAN_POINT('',(4.00000002980232,-10.,-55.0000008195639));
#1457=CARTESIAN_POINT('',(4.00000002980232,-10.,-66.0000000298023));
#1458=CARTESIAN_POINT('',(4.00000002980232,0.,-55.0000008195639));
#1459=CARTESIAN_POINT('',(4.00000002980232,-10.,-15.0000002235174));
#1460=CARTESIAN_POINT('',(4.00000002980232,0.,-15.0000002235174));
#1461=CARTESIAN_POINT('',(4.00000002980232,-10.,-4.00000002980232));
#1462=CARTESIAN_POINT('',(4.00000002980232,-10.,-66.0000000298023));
#1463=CARTESIAN_POINT('',(4.00000002980232,0.,-4.00000002980232));
#1464=CARTESIAN_POINT('Origin',(66.0000000298023,0.,-66.0000000298023));
#1465=CARTESIAN_POINT('',(55.0000008195639,-10.,-66.0000000298023));
#1466=CARTESIAN_POINT('',(55.0000008195639,0.,-66.0000000298023));
#1467=CARTESIAN_POINT('',(15.0000002235174,-10.,-66.0000000298023));
#1468=CARTESIAN_POINT('',(15.0000002235174,0.,-66.0000000298023));
#1469=CARTESIAN_POINT('',(66.0000000298023,-10.,-66.0000000298023));
#1470=CARTESIAN_POINT('',(66.0000000298023,-17.,-66.0000000298023));
#1471=CARTESIAN_POINT('',(66.0000000298023,-10.,-66.0000000298023));
#1472=CARTESIAN_POINT('Origin',(4.00000002980232,0.,-4.00000002980232));
#1473=CARTESIAN_POINT('',(15.0000002235174,-10.,-4.00000002980232));
#1474=CARTESIAN_POINT('',(15.0000002235174,0.,-4.00000002980232));
#1475=CARTESIAN_POINT('',(55.0000008195639,-10.,-4.00000002980232));
#1476=CARTESIAN_POINT('',(55.0000008195639,0.,-4.00000002980232));
#1477=CARTESIAN_POINT('',(4.00000002980232,-10.,-4.00000002980232));
#1478=CARTESIAN_POINT('',(4.00000002980232,-10.,-4.00000002980232));
#1479=CARTESIAN_POINT('Origin',(2.00000002980232,0.,-68.000001013279));
#1480=CARTESIAN_POINT('',(2.00000002980232,-17.,-68.000001013279));
#1481=CARTESIAN_POINT('Origin',(35.0000005215406,-17.,-35.0000005215406));
#1482=CARTESIAN_POINT('Origin',(60.0000008940697,0.,-10.0000001490116));
#1483=CARTESIAN_POINT('',(58.2000008940697,-10.,-10.0000001490116));
#1484=CARTESIAN_POINT('Origin',(60.0000008940697,-10.,-10.0000001490116));
#1485=CARTESIAN_POINT('',(58.2000008940697,0.,-10.0000001490116));
#1486=CARTESIAN_POINT('Origin',(60.0000008940697,0.,-15.0000002235174));
#1487=CARTESIAN_POINT('',(60.0000008940697,-10.,-15.0000002235174));
#1488=CARTESIAN_POINT('',(60.0000008940697,-10.,-15.0000002235174));
#1489=CARTESIAN_POINT('',(60.0000008940697,0.,-15.0000002235174));
#1490=CARTESIAN_POINT('Origin',(60.0000008940697,0.,-10.0000001490116));
#1491=CARTESIAN_POINT('',(55.0000008195639,-10.,-10.0000001490116));
#1492=CARTESIAN_POINT('Origin',(60.0000008940697,-10.,-10.0000001490116));
#1493=CARTESIAN_POINT('',(55.0000008195639,0.,-10.0000001490116));
#1494=CARTESIAN_POINT('Origin',(55.0000008195639,0.,-4.00000002980232));
#1495=CARTESIAN_POINT('',(55.0000008195639,-10.,-10.0000001490116));
#1496=CARTESIAN_POINT('Origin',(60.5000004246831,-10.,-9.50000012665987));
#1497=CARTESIAN_POINT('Origin',(10.0000001490116,0.,-60.0000008940697));
#1498=CARTESIAN_POINT('',(8.20000014901161,-10.,-60.0000008940697));
#1499=CARTESIAN_POINT('Origin',(10.0000001490116,-10.,-60.0000008940697));
#1500=CARTESIAN_POINT('',(8.20000014901161,0.,-60.0000008940697));
#1501=CARTESIAN_POINT('Origin',(10.0000001490116,0.,-55.0000008195639));
#1502=CARTESIAN_POINT('',(10.0000001490116,-10.,-55.0000008195639));
#1503=CARTESIAN_POINT('',(10.0000001490116,-10.,-55.0000008195639));
#1504=CARTESIAN_POINT('',(10.0000001490116,0.,-55.0000008195639));
#1505=CARTESIAN_POINT('Origin',(10.0000001490116,0.,-60.0000008940697));
#1506=CARTESIAN_POINT('',(15.0000002235174,-10.,-60.0000008940697));
#1507=CARTESIAN_POINT('Origin',(10.0000001490116,-10.,-60.0000008940697));
#1508=CARTESIAN_POINT('',(15.0000002235174,0.,-60.0000008940697));
#1509=CARTESIAN_POINT('Origin',(15.0000002235174,0.,-66.0000000298023));
#1510=CARTESIAN_POINT('',(15.0000002235174,-10.,-60.0000008940697));
#1511=CARTESIAN_POINT('Origin',(9.50000012665987,-10.,-60.5000004246831));
#1512=CARTESIAN_POINT('Origin',(60.0000008940697,0.,-60.0000008940697));
#1513=CARTESIAN_POINT('',(58.2000008940697,-10.,-60.0000008940697));
#1514=CARTESIAN_POINT('Origin',(60.0000008940697,-10.,-60.0000008940697));
#1515=CARTESIAN_POINT('',(58.2000008940697,0.,-60.0000008940697));
#1516=CARTESIAN_POINT('Origin',(55.0000008195639,0.,-60.0000008940697));
#1517=CARTESIAN_POINT('',(55.0000008195639,-10.,-60.0000008940697));
#1518=CARTESIAN_POINT('',(55.0000008195639,-10.,-60.0000008940697));
#1519=CARTESIAN_POINT('',(55.0000008195639,0.,-60.0000008940697));
#1520=CARTESIAN_POINT('Origin',(60.0000008940697,0.,-60.0000008940697));
#1521=CARTESIAN_POINT('',(60.0000008940697,-10.,-55.0000008195639));
#1522=CARTESIAN_POINT('Origin',(60.0000008940697,-10.,-60.0000008940697));
#1523=CARTESIAN_POINT('',(60.0000008940697,0.,-55.0000008195639));
#1524=CARTESIAN_POINT('Origin',(66.0000000298023,0.,-55.0000008195639));
#1525=CARTESIAN_POINT('',(60.0000008940697,-10.,-55.0000008195639));
#1526=CARTESIAN_POINT('Origin',(60.5000004246831,-10.,-60.5000004246831));
#1527=CARTESIAN_POINT('Origin',(10.0000001490116,0.,-10.0000001490116));
#1528=CARTESIAN_POINT('',(8.20000014901161,-10.,-10.0000001490116));
#1529=CARTESIAN_POINT('Origin',(10.0000001490116,-10.,-10.0000001490116));
#1530=CARTESIAN_POINT('',(8.20000014901161,0.,-10.0000001490116));
#1531=CARTESIAN_POINT('Origin',(15.0000002235174,0.,-10.0000001490116));
#1532=CARTESIAN_POINT('',(15.0000002235174,-10.,-10.0000001490116));
#1533=CARTESIAN_POINT('',(15.0000002235174,-10.,-10.0000001490116));
#1534=CARTESIAN_POINT('',(15.0000002235174,0.,-10.0000001490116));
#1535=CARTESIAN_POINT('Origin',(10.0000001490116,0.,-10.0000001490116));
#1536=CARTESIAN_POINT('',(10.0000001490116,-10.,-15.0000002235174));
#1537=CARTESIAN_POINT('Origin',(10.0000001490116,-10.,-10.0000001490116));
#1538=CARTESIAN_POINT('',(10.0000001490116,0.,-15.0000002235174));
#1539=CARTESIAN_POINT('Origin',(4.00000002980232,0.,-15.0000002235174));
#1540=CARTESIAN_POINT('',(10.0000001490116,-10.,-15.0000002235174));
#1541=CARTESIAN_POINT('Origin',(9.50000012665987,-10.,-9.50000012665987));
#1542=UNCERTAINTY_MEASURE_WITH_UNIT(LENGTH_MEASURE(0.01),#1546,
'DISTANCE_ACCURACY_VALUE',
'Maximum model space distance between geometric entities at asserted c
onnectivities');
#1543=UNCERTAINTY_MEASURE_WITH_UNIT(LENGTH_MEASURE(0.01),#1546,
'DISTANCE_ACCURACY_VALUE',
'Maximum model space distance between geometric entities at asserted c
onnectivities');
#1544=(
GEOMETRIC_REPRESENTATION_CONTEXT(3)
GLOBAL_UNCERTAINTY_ASSIGNED_CONTEXT((#1542))
GLOBAL_UNIT_ASSIGNED_CONTEXT((#1546,#1548,#1549))
REPRESENTATION_CONTEXT('','3D')
);
#1545=(
GEOMETRIC_REPRESENTATION_CONTEXT(3)
GLOBAL_UNCERTAINTY_ASSIGNED_CONTEXT((#1543))
GLOBAL_UNIT_ASSIGNED_CONTEXT((#1546,#1548,#1549))
REPRESENTATION_CONTEXT('','3D')
);
#1546=(
LENGTH_UNIT()
NAMED_UNIT(*)
SI_UNIT(.MILLI.,.METRE.)
);
#1547=(
LENGTH_UNIT()
NAMED_UNIT(*)
SI_UNIT($,.METRE.)
);
#1548=(
NAMED_UNIT(*)
PLANE_ANGLE_UNIT()
SI_UNIT($,.RADIAN.)
);
#1549=(
NAMED_UNIT(*)
SI_UNIT($,.STERADIAN.)
SOLID_ANGLE_UNIT()
);
#1550=SHAPE_DEFINITION_REPRESENTATION(#1551,#1552);
#1551=PRODUCT_DEFINITION_SHAPE('',$,#1554);
#1552=SHAPE_REPRESENTATION('',(#942),#1544);
#1553=PRODUCT_DEFINITION_CONTEXT('part definition',#1558,'design');
#1554=PRODUCT_DEFINITION('2025-11-13-16-57-45-530','Module middle',#1555,
#1553);
#1555=PRODUCT_DEFINITION_FORMATION('',$,#1560);
#1556=PRODUCT_RELATED_PRODUCT_CATEGORY('Module middle','Module middle',
(#1560));
#1557=APPLICATION_PROTOCOL_DEFINITION('international standard',
'automotive_design',2009,#1558);
#1558=APPLICATION_CONTEXT(
'Core Data for Automotive Mechanical Design Process');
#1559=PRODUCT_CONTEXT('part definition',#1558,'mechanical');
#1560=PRODUCT('2025-11-13-16-57-45-530','Module middle',$,(#1559));
#1561=PRESENTATION_STYLE_ASSIGNMENT((#1562));
#1562=SURFACE_STYLE_USAGE(.BOTH.,#1563);
#1563=SURFACE_SIDE_STYLE('',(#1564));
#1564=SURFACE_STYLE_FILL_AREA(#1565);
#1565=FILL_AREA_STYLE('Steel - Satin',(#1566));
#1566=FILL_AREA_STYLE_COLOUR('Steel - Satin',#1567);
#1567=COLOUR_RGB('Steel - Satin',0.627450980392157,0.627450980392157,0.627450980392157);
ENDSEC;
END-ISO-10303-21;
