ISO-10303-21;
HEADER;
/* Generated by software containing ST-Developer
 * from STEP Tools, Inc. (www.steptools.com) 
 */

FILE_DESCRIPTION(
/* description */ (''),
/* implementation_level */ '2;1');

FILE_NAME(
/* name */ 'PCB.step',
/* time_stamp */ '2026-04-27T15:54:02+01:00',
/* author */ (''),
/* organization */ (''),
/* preprocessor_version */ 'ST-DEVELOPER v20.1',
/* originating_system */ 'Autodesk Translation Framework v14.24.0.0',
/* authorisation */ '');

FILE_SCHEMA (('AUTOMOTIVE_DESIGN { 1 0 10303 214 3 1 1 }'));
ENDSEC;

DATA;
#10=MECHANICAL_DESIGN_GEOMETRIC_PRESENTATION_REPRESENTATION('',(#39,#40,
#41,#42,#43,#44,#45,#46,#47,#48),#1790);
#11=ITEM_DEFINED_TRANSFORMATION($,$,#1010,#1151);
#12=ITEM_DEFINED_TRANSFORMATION($,$,#1010,#1152);
#13=(
REPRESENTATION_RELATIONSHIP($,$,#1802,#1801)
REPRESENTATION_RELATIONSHIP_WITH_TRANSFORMATION(#11)
SHAPE_REPRESENTATION_RELATIONSHIP()
);
#14=(
REPRESENTATION_RELATIONSHIP($,$,#1802,#1801)
REPRESENTATION_RELATIONSHIP_WITH_TRANSFORMATION(#12)
SHAPE_REPRESENTATION_RELATIONSHIP()
);
#15=CONTEXT_DEPENDENT_SHAPE_REPRESENTATION(#13,#1799);
#16=CONTEXT_DEPENDENT_SHAPE_REPRESENTATION(#14,#1800);
#17=NEXT_ASSEMBLY_USAGE_OCCURRENCE('Pogo pin connector:1',
'Pogo pin connector:1','Pogo pin connector:1',#1804,#1805,
'Pogo pin connector:1');
#18=NEXT_ASSEMBLY_USAGE_OCCURRENCE('Pogo pin connector:2',
'Pogo pin connector:2','Pogo pin connector:2',#1804,#1805,
'Pogo pin connector:2');
#19=FACE_BOUND('',#212,.T.);
#20=FACE_BOUND('',#213,.T.);
#21=FACE_BOUND('',#214,.T.);
#22=FACE_BOUND('',#215,.T.);
#23=FACE_BOUND('',#217,.T.);
#24=FACE_BOUND('',#218,.T.);
#25=FACE_BOUND('',#219,.T.);
#26=FACE_BOUND('',#220,.T.);
#27=SHAPE_REPRESENTATION_RELATIONSHIP('SRR','None',#1802,#29);
#28=SHAPE_REPRESENTATION_RELATIONSHIP('SRR','None',#1801,#30);
#29=ADVANCED_BREP_SHAPE_REPRESENTATION('',(#49,#50,#51,#52,#53,#54,#55,
#56,#57),#1789);
#30=ADVANCED_BREP_SHAPE_REPRESENTATION('',(#58),#1788);
#31=TOROIDAL_SURFACE('',#1041,0.999999977648258,0.35);
#32=TOROIDAL_SURFACE('',#1053,0.999999977648258,0.35);
#33=TOROIDAL_SURFACE('',#1065,0.999999977648258,0.35);
#34=TOROIDAL_SURFACE('',#1077,0.999999977648258,0.35);
#35=TOROIDAL_SURFACE('',#1089,0.999999977648258,0.35);
#36=TOROIDAL_SURFACE('',#1101,0.999999977648258,0.35);
#37=TOROIDAL_SURFACE('',#1113,0.999999977648258,0.35);
#38=TOROIDAL_SURFACE('',#1125,0.999999977648258,0.35);
#39=STYLED_ITEM('',(#1815),#49);
#40=STYLED_ITEM('',(#1815),#50);
#41=STYLED_ITEM('',(#1815),#51);
#42=STYLED_ITEM('',(#1815),#52);
#43=STYLED_ITEM('',(#1815),#53);
#44=STYLED_ITEM('',(#1815),#54);
#45=STYLED_ITEM('',(#1815),#55);
#46=STYLED_ITEM('',(#1815),#56);
#47=STYLED_ITEM('',(#1815),#57);
#48=STYLED_ITEM('',(#1815),#58);
#49=MANIFOLD_SOLID_BREP('Body1',#987);
#50=MANIFOLD_SOLID_BREP('Body2',#988);
#51=MANIFOLD_SOLID_BREP('Body3',#989);
#52=MANIFOLD_SOLID_BREP('Body4',#990);
#53=MANIFOLD_SOLID_BREP('Body5',#991);
#54=MANIFOLD_SOLID_BREP('Body6',#992);
#55=MANIFOLD_SOLID_BREP('Body7',#993);
#56=MANIFOLD_SOLID_BREP('Body8',#994);
#57=MANIFOLD_SOLID_BREP('Body9',#995);
#58=MANIFOLD_SOLID_BREP('Body1',#996);
#59=CYLINDRICAL_SURFACE('',#1020,2.);
#60=CYLINDRICAL_SURFACE('',#1022,2.);
#61=CYLINDRICAL_SURFACE('',#1026,2.);
#62=CYLINDRICAL_SURFACE('',#1028,2.);
#63=CYLINDRICAL_SURFACE('',#1030,2.);
#64=CYLINDRICAL_SURFACE('',#1033,2.);
#65=CYLINDRICAL_SURFACE('',#1037,0.35);
#66=CYLINDRICAL_SURFACE('',#1045,0.35);
#67=CYLINDRICAL_SURFACE('',#1049,0.35);
#68=CYLINDRICAL_SURFACE('',#1057,0.35);
#69=CYLINDRICAL_SURFACE('',#1061,0.35);
#70=CYLINDRICAL_SURFACE('',#1069,0.35);
#71=CYLINDRICAL_SURFACE('',#1073,0.35);
#72=CYLINDRICAL_SURFACE('',#1081,0.35);
#73=CYLINDRICAL_SURFACE('',#1085,0.35);
#74=CYLINDRICAL_SURFACE('',#1093,0.35);
#75=CYLINDRICAL_SURFACE('',#1097,0.35);
#76=CYLINDRICAL_SURFACE('',#1105,0.35);
#77=CYLINDRICAL_SURFACE('',#1109,0.35);
#78=CYLINDRICAL_SURFACE('',#1117,0.35);
#79=CYLINDRICAL_SURFACE('',#1121,0.35);
#80=CYLINDRICAL_SURFACE('',#1129,0.35);
#81=CYLINDRICAL_SURFACE('',#1133,1.8);
#82=CYLINDRICAL_SURFACE('',#1136,1.8);
#83=CYLINDRICAL_SURFACE('',#1139,1.8);
#84=CYLINDRICAL_SURFACE('',#1142,1.8);
#85=FACE_OUTER_BOUND('',#149,.T.);
#86=FACE_OUTER_BOUND('',#150,.T.);
#87=FACE_OUTER_BOUND('',#151,.T.);
#88=FACE_OUTER_BOUND('',#152,.T.);
#89=FACE_OUTER_BOUND('',#153,.T.);
#90=FACE_OUTER_BOUND('',#154,.T.);
#91=FACE_OUTER_BOUND('',#155,.T.);
#92=FACE_OUTER_BOUND('',#156,.T.);
#93=FACE_OUTER_BOUND('',#157,.T.);
#94=FACE_OUTER_BOUND('',#158,.T.);
#95=FACE_OUTER_BOUND('',#159,.T.);
#96=FACE_OUTER_BOUND('',#160,.T.);
#97=FACE_OUTER_BOUND('',#161,.T.);
#98=FACE_OUTER_BOUND('',#162,.T.);
#99=FACE_OUTER_BOUND('',#163,.T.);
#100=FACE_OUTER_BOUND('',#164,.T.);
#101=FACE_OUTER_BOUND('',#165,.T.);
#102=FACE_OUTER_BOUND('',#166,.T.);
#103=FACE_OUTER_BOUND('',#167,.T.);
#104=FACE_OUTER_BOUND('',#168,.T.);
#105=FACE_OUTER_BOUND('',#169,.T.);
#106=FACE_OUTER_BOUND('',#170,.T.);
#107=FACE_OUTER_BOUND('',#171,.T.);
#108=FACE_OUTER_BOUND('',#172,.T.);
#109=FACE_OUTER_BOUND('',#173,.T.);
#110=FACE_OUTER_BOUND('',#174,.T.);
#111=FACE_OUTER_BOUND('',#175,.T.);
#112=FACE_OUTER_BOUND('',#176,.T.);
#113=FACE_OUTER_BOUND('',#177,.T.);
#114=FACE_OUTER_BOUND('',#178,.T.);
#115=FACE_OUTER_BOUND('',#179,.T.);
#116=FACE_OUTER_BOUND('',#180,.T.);
#117=FACE_OUTER_BOUND('',#181,.T.);
#118=FACE_OUTER_BOUND('',#182,.T.);
#119=FACE_OUTER_BOUND('',#183,.T.);
#120=FACE_OUTER_BOUND('',#184,.T.);
#121=FACE_OUTER_BOUND('',#185,.T.);
#122=FACE_OUTER_BOUND('',#186,.T.);
#123=FACE_OUTER_BOUND('',#187,.T.);
#124=FACE_OUTER_BOUND('',#188,.T.);
#125=FACE_OUTER_BOUND('',#189,.T.);
#126=FACE_OUTER_BOUND('',#190,.T.);
#127=FACE_OUTER_BOUND('',#191,.T.);
#128=FACE_OUTER_BOUND('',#192,.T.);
#129=FACE_OUTER_BOUND('',#193,.T.);
#130=FACE_OUTER_BOUND('',#194,.T.);
#131=FACE_OUTER_BOUND('',#195,.T.);
#132=FACE_OUTER_BOUND('',#196,.T.);
#133=FACE_OUTER_BOUND('',#197,.T.);
#134=FACE_OUTER_BOUND('',#198,.T.);
#135=FACE_OUTER_BOUND('',#199,.T.);
#136=FACE_OUTER_BOUND('',#200,.T.);
#137=FACE_OUTER_BOUND('',#201,.T.);
#138=FACE_OUTER_BOUND('',#202,.T.);
#139=FACE_OUTER_BOUND('',#203,.T.);
#140=FACE_OUTER_BOUND('',#204,.T.);
#141=FACE_OUTER_BOUND('',#205,.T.);
#142=FACE_OUTER_BOUND('',#206,.T.);
#143=FACE_OUTER_BOUND('',#207,.T.);
#144=FACE_OUTER_BOUND('',#208,.T.);
#145=FACE_OUTER_BOUND('',#209,.T.);
#146=FACE_OUTER_BOUND('',#210,.T.);
#147=FACE_OUTER_BOUND('',#211,.T.);
#148=FACE_OUTER_BOUND('',#216,.T.);
#149=EDGE_LOOP('',(#629,#630,#631,#632));
#150=EDGE_LOOP('',(#633,#634,#635,#636));
#151=EDGE_LOOP('',(#637,#638,#639,#640));
#152=EDGE_LOOP('',(#641,#642,#643,#644));
#153=EDGE_LOOP('',(#645,#646,#647,#648));
#154=EDGE_LOOP('',(#649,#650,#651,#652));
#155=EDGE_LOOP('',(#653,#654,#655,#656,#657,#658,#659,#660,#661,#662,#663,
#664));
#156=EDGE_LOOP('',(#665,#666,#667,#668));
#157=EDGE_LOOP('',(#669,#670,#671,#672));
#158=EDGE_LOOP('',(#673,#674,#675,#676));
#159=EDGE_LOOP('',(#677,#678,#679,#680,#681,#682,#683,#684,#685,#686,#687,
#688));
#160=EDGE_LOOP('',(#689,#690,#691,#692));
#161=EDGE_LOOP('',(#693,#694,#695,#696));
#162=EDGE_LOOP('',(#697,#698,#699,#700));
#163=EDGE_LOOP('',(#701,#702,#703,#704,#705));
#164=EDGE_LOOP('',(#706,#707,#708,#709,#710,#711));
#165=EDGE_LOOP('',(#712,#713,#714,#715,#716));
#166=EDGE_LOOP('',(#717));
#167=EDGE_LOOP('',(#718));
#168=EDGE_LOOP('',(#719,#720,#721,#722,#723));
#169=EDGE_LOOP('',(#724,#725,#726,#727,#728,#729));
#170=EDGE_LOOP('',(#730,#731,#732,#733,#734));
#171=EDGE_LOOP('',(#735));
#172=EDGE_LOOP('',(#736));
#173=EDGE_LOOP('',(#737,#738,#739,#740,#741));
#174=EDGE_LOOP('',(#742,#743,#744,#745,#746,#747));
#175=EDGE_LOOP('',(#748,#749,#750,#751,#752));
#176=EDGE_LOOP('',(#753));
#177=EDGE_LOOP('',(#754));
#178=EDGE_LOOP('',(#755,#756,#757,#758,#759));
#179=EDGE_LOOP('',(#760,#761,#762,#763,#764,#765));
#180=EDGE_LOOP('',(#766,#767,#768,#769,#770));
#181=EDGE_LOOP('',(#771));
#182=EDGE_LOOP('',(#772));
#183=EDGE_LOOP('',(#773,#774,#775,#776,#777));
#184=EDGE_LOOP('',(#778,#779,#780,#781,#782,#783));
#185=EDGE_LOOP('',(#784,#785,#786,#787,#788));
#186=EDGE_LOOP('',(#789));
#187=EDGE_LOOP('',(#790));
#188=EDGE_LOOP('',(#791,#792,#793,#794,#795));
#189=EDGE_LOOP('',(#796,#797,#798,#799,#800,#801));
#190=EDGE_LOOP('',(#802,#803,#804,#805,#806));
#191=EDGE_LOOP('',(#807));
#192=EDGE_LOOP('',(#808));
#193=EDGE_LOOP('',(#809,#810,#811,#812,#813));
#194=EDGE_LOOP('',(#814,#815,#816,#817,#818,#819));
#195=EDGE_LOOP('',(#820,#821,#822,#823,#824));
#196=EDGE_LOOP('',(#825));
#197=EDGE_LOOP('',(#826));
#198=EDGE_LOOP('',(#827,#828,#829,#830,#831));
#199=EDGE_LOOP('',(#832,#833,#834,#835,#836,#837));
#200=EDGE_LOOP('',(#838,#839,#840,#841,#842));
#201=EDGE_LOOP('',(#843));
#202=EDGE_LOOP('',(#844));
#203=EDGE_LOOP('',(#845,#846,#847,#848));
#204=EDGE_LOOP('',(#849,#850,#851,#852));
#205=EDGE_LOOP('',(#853,#854,#855,#856));
#206=EDGE_LOOP('',(#857,#858,#859,#860));
#207=EDGE_LOOP('',(#861,#862,#863,#864));
#208=EDGE_LOOP('',(#865,#866,#867,#868));
#209=EDGE_LOOP('',(#869,#870,#871,#872));
#210=EDGE_LOOP('',(#873,#874,#875,#876));
#211=EDGE_LOOP('',(#877,#878,#879,#880));
#212=EDGE_LOOP('',(#881));
#213=EDGE_LOOP('',(#882));
#214=EDGE_LOOP('',(#883));
#215=EDGE_LOOP('',(#884));
#216=EDGE_LOOP('',(#885,#886,#887,#888));
#217=EDGE_LOOP('',(#889));
#218=EDGE_LOOP('',(#890));
#219=EDGE_LOOP('',(#891));
#220=EDGE_LOOP('',(#892));
#221=LINE('',#1504,#277);
#222=LINE('',#1507,#278);
#223=LINE('',#1513,#279);
#224=LINE('',#1516,#280);
#225=LINE('',#1522,#281);
#226=LINE('',#1525,#282);
#227=LINE('',#1530,#283);
#228=LINE('',#1531,#284);
#229=LINE('',#1533,#285);
#230=LINE('',#1534,#286);
#231=LINE('',#1539,#287);
#232=LINE('',#1540,#288);
#233=LINE('',#1543,#289);
#234=LINE('',#1545,#290);
#235=LINE('',#1546,#291);
#236=LINE('',#1548,#292);
#237=LINE('',#1550,#293);
#238=LINE('',#1551,#294);
#239=LINE('',#1554,#295);
#240=LINE('',#1558,#296);
#241=LINE('',#1563,#297);
#242=LINE('',#1565,#298);
#243=LINE('',#1567,#299);
#244=LINE('',#1568,#300);
#245=LINE('',#1577,#301);
#246=LINE('',#1589,#302);
#247=LINE('',#1597,#303);
#248=LINE('',#1609,#304);
#249=LINE('',#1617,#305);
#250=LINE('',#1629,#306);
#251=LINE('',#1637,#307);
#252=LINE('',#1649,#308);
#253=LINE('',#1657,#309);
#254=LINE('',#1669,#310);
#255=LINE('',#1677,#311);
#256=LINE('',#1689,#312);
#257=LINE('',#1697,#313);
#258=LINE('',#1709,#314);
#259=LINE('',#1717,#315);
#260=LINE('',#1729,#316);
#261=LINE('',#1737,#317);
#262=LINE('',#1743,#318);
#263=LINE('',#1749,#319);
#264=LINE('',#1755,#320);
#265=LINE('',#1760,#321);
#266=LINE('',#1762,#322);
#267=LINE('',#1764,#323);
#268=LINE('',#1765,#324);
#269=LINE('',#1768,#325);
#270=LINE('',#1770,#326);
#271=LINE('',#1771,#327);
#272=LINE('',#1774,#328);
#273=LINE('',#1776,#329);
#274=LINE('',#1777,#330);
#275=LINE('',#1779,#331);
#276=LINE('',#1780,#332);
#277=VECTOR('',#1161,10.);
#278=VECTOR('',#1164,10.);
#279=VECTOR('',#1169,10.);
#280=VECTOR('',#1172,10.);
#281=VECTOR('',#1177,10.);
#282=VECTOR('',#1180,10.);
#283=VECTOR('',#1185,10.);
#284=VECTOR('',#1186,10.);
#285=VECTOR('',#1189,10.);
#286=VECTOR('',#1190,10.);
#287=VECTOR('',#1195,10.);
#288=VECTOR('',#1196,10.);
#289=VECTOR('',#1199,10.);
#290=VECTOR('',#1200,10.);
#291=VECTOR('',#1201,10.);
#292=VECTOR('',#1202,10.);
#293=VECTOR('',#1203,10.);
#294=VECTOR('',#1204,10.);
#295=VECTOR('',#1207,10.);
#296=VECTOR('',#1212,10.);
#297=VECTOR('',#1219,10.);
#298=VECTOR('',#1222,10.);
#299=VECTOR('',#1223,10.);
#300=VECTOR('',#1224,10.);
#301=VECTOR('',#1237,0.35);
#302=VECTOR('',#1252,0.35);
#303=VECTOR('',#1263,0.35);
#304=VECTOR('',#1278,0.35);
#305=VECTOR('',#1289,0.35);
#306=VECTOR('',#1304,0.35);
#307=VECTOR('',#1315,0.35);
#308=VECTOR('',#1330,0.35);
#309=VECTOR('',#1341,0.35);
#310=VECTOR('',#1356,0.35);
#311=VECTOR('',#1367,0.35);
#312=VECTOR('',#1382,0.35);
#313=VECTOR('',#1393,0.35);
#314=VECTOR('',#1408,0.35);
#315=VECTOR('',#1419,0.35);
#316=VECTOR('',#1434,0.35);
#317=VECTOR('',#1445,1.8);
#318=VECTOR('',#1452,1.8);
#319=VECTOR('',#1459,1.8);
#320=VECTOR('',#1466,1.8);
#321=VECTOR('',#1471,10.);
#322=VECTOR('',#1472,10.);
#323=VECTOR('',#1473,10.);
#324=VECTOR('',#1474,10.);
#325=VECTOR('',#1477,10.);
#326=VECTOR('',#1478,10.);
#327=VECTOR('',#1479,10.);
#328=VECTOR('',#1482,10.);
#329=VECTOR('',#1483,10.);
#330=VECTOR('',#1484,10.);
#331=VECTOR('',#1487,10.);
#332=VECTOR('',#1488,10.);
#333=CIRCLE('',#1012,2.);
#334=CIRCLE('',#1013,2.);
#335=CIRCLE('',#1015,2.);
#336=CIRCLE('',#1016,2.);
#337=CIRCLE('',#1018,2.);
#338=CIRCLE('',#1019,2.);
#339=CIRCLE('',#1021,2.);
#340=CIRCLE('',#1024,2.);
#341=CIRCLE('',#1027,2.);
#342=CIRCLE('',#1029,2.);
#343=CIRCLE('',#1031,2.);
#344=CIRCLE('',#1034,2.);
#345=CIRCLE('',#1038,0.35);
#346=CIRCLE('',#1039,0.35);
#347=CIRCLE('',#1040,0.35);
#348=CIRCLE('',#1042,0.649999977648258);
#349=CIRCLE('',#1043,0.35);
#350=CIRCLE('',#1044,0.35);
#351=CIRCLE('',#1046,0.35);
#352=CIRCLE('',#1050,0.35);
#353=CIRCLE('',#1051,0.35);
#354=CIRCLE('',#1052,0.35);
#355=CIRCLE('',#1054,0.649999977648258);
#356=CIRCLE('',#1055,0.35);
#357=CIRCLE('',#1056,0.35);
#358=CIRCLE('',#1058,0.35);
#359=CIRCLE('',#1062,0.35);
#360=CIRCLE('',#1063,0.35);
#361=CIRCLE('',#1064,0.35);
#362=CIRCLE('',#1066,0.649999977648258);
#363=CIRCLE('',#1067,0.35);
#364=CIRCLE('',#1068,0.35);
#365=CIRCLE('',#1070,0.35);
#366=CIRCLE('',#1074,0.35);
#367=CIRCLE('',#1075,0.35);
#368=CIRCLE('',#1076,0.35);
#369=CIRCLE('',#1078,0.649999977648258);
#370=CIRCLE('',#1079,0.35);
#371=CIRCLE('',#1080,0.35);
#372=CIRCLE('',#1082,0.35);
#373=CIRCLE('',#1086,0.35);
#374=CIRCLE('',#1087,0.35);
#375=CIRCLE('',#1088,0.35);
#376=CIRCLE('',#1090,0.649999977648258);
#377=CIRCLE('',#1091,0.35);
#378=CIRCLE('',#1092,0.35);
#379=CIRCLE('',#1094,0.35);
#380=CIRCLE('',#1098,0.35);
#381=CIRCLE('',#1099,0.35);
#382=CIRCLE('',#1100,0.35);
#383=CIRCLE('',#1102,0.649999977648258);
#384=CIRCLE('',#1103,0.35);
#385=CIRCLE('',#1104,0.35);
#386=CIRCLE('',#1106,0.35);
#387=CIRCLE('',#1110,0.35);
#388=CIRCLE('',#1111,0.35);
#389=CIRCLE('',#1112,0.35);
#390=CIRCLE('',#1114,0.649999977648258);
#391=CIRCLE('',#1115,0.35);
#392=CIRCLE('',#1116,0.35);
#393=CIRCLE('',#1118,0.35);
#394=CIRCLE('',#1122,0.35);
#395=CIRCLE('',#1123,0.35);
#396=CIRCLE('',#1124,0.35);
#397=CIRCLE('',#1126,0.649999977648258);
#398=CIRCLE('',#1127,0.35);
#399=CIRCLE('',#1128,0.35);
#400=CIRCLE('',#1130,0.35);
#401=CIRCLE('',#1134,1.8);
#402=CIRCLE('',#1135,1.8);
#403=CIRCLE('',#1137,1.8);
#404=CIRCLE('',#1138,1.8);
#405=CIRCLE('',#1140,1.8);
#406=CIRCLE('',#1141,1.8);
#407=CIRCLE('',#1143,1.8);
#408=CIRCLE('',#1144,1.8);
#409=VERTEX_POINT('',#1500);
#410=VERTEX_POINT('',#1501);
#411=VERTEX_POINT('',#1503);
#412=VERTEX_POINT('',#1505);
#413=VERTEX_POINT('',#1509);
#414=VERTEX_POINT('',#1510);
#415=VERTEX_POINT('',#1512);
#416=VERTEX_POINT('',#1514);
#417=VERTEX_POINT('',#1518);
#418=VERTEX_POINT('',#1519);
#419=VERTEX_POINT('',#1521);
#420=VERTEX_POINT('',#1523);
#421=VERTEX_POINT('',#1527);
#422=VERTEX_POINT('',#1528);
#423=VERTEX_POINT('',#1536);
#424=VERTEX_POINT('',#1537);
#425=VERTEX_POINT('',#1542);
#426=VERTEX_POINT('',#1544);
#427=VERTEX_POINT('',#1547);
#428=VERTEX_POINT('',#1549);
#429=VERTEX_POINT('',#1553);
#430=VERTEX_POINT('',#1557);
#431=VERTEX_POINT('',#1561);
#432=VERTEX_POINT('',#1566);
#433=VERTEX_POINT('',#1574);
#434=VERTEX_POINT('',#1576);
#435=VERTEX_POINT('',#1578);
#436=VERTEX_POINT('',#1582);
#437=VERTEX_POINT('',#1584);
#438=VERTEX_POINT('',#1588);
#439=VERTEX_POINT('',#1594);
#440=VERTEX_POINT('',#1596);
#441=VERTEX_POINT('',#1598);
#442=VERTEX_POINT('',#1602);
#443=VERTEX_POINT('',#1604);
#444=VERTEX_POINT('',#1608);
#445=VERTEX_POINT('',#1614);
#446=VERTEX_POINT('',#1616);
#447=VERTEX_POINT('',#1618);
#448=VERTEX_POINT('',#1622);
#449=VERTEX_POINT('',#1624);
#450=VERTEX_POINT('',#1628);
#451=VERTEX_POINT('',#1634);
#452=VERTEX_POINT('',#1636);
#453=VERTEX_POINT('',#1638);
#454=VERTEX_POINT('',#1642);
#455=VERTEX_POINT('',#1644);
#456=VERTEX_POINT('',#1648);
#457=VERTEX_POINT('',#1654);
#458=VERTEX_POINT('',#1656);
#459=VERTEX_POINT('',#1658);
#460=VERTEX_POINT('',#1662);
#461=VERTEX_POINT('',#1664);
#462=VERTEX_POINT('',#1668);
#463=VERTEX_POINT('',#1674);
#464=VERTEX_POINT('',#1676);
#465=VERTEX_POINT('',#1678);
#466=VERTEX_POINT('',#1682);
#467=VERTEX_POINT('',#1684);
#468=VERTEX_POINT('',#1688);
#469=VERTEX_POINT('',#1694);
#470=VERTEX_POINT('',#1696);
#471=VERTEX_POINT('',#1698);
#472=VERTEX_POINT('',#1702);
#473=VERTEX_POINT('',#1704);
#474=VERTEX_POINT('',#1708);
#475=VERTEX_POINT('',#1714);
#476=VERTEX_POINT('',#1716);
#477=VERTEX_POINT('',#1718);
#478=VERTEX_POINT('',#1722);
#479=VERTEX_POINT('',#1724);
#480=VERTEX_POINT('',#1728);
#481=VERTEX_POINT('',#1734);
#482=VERTEX_POINT('',#1736);
#483=VERTEX_POINT('',#1740);
#484=VERTEX_POINT('',#1742);
#485=VERTEX_POINT('',#1746);
#486=VERTEX_POINT('',#1748);
#487=VERTEX_POINT('',#1752);
#488=VERTEX_POINT('',#1754);
#489=VERTEX_POINT('',#1758);
#490=VERTEX_POINT('',#1759);
#491=VERTEX_POINT('',#1761);
#492=VERTEX_POINT('',#1763);
#493=VERTEX_POINT('',#1767);
#494=VERTEX_POINT('',#1769);
#495=VERTEX_POINT('',#1773);
#496=VERTEX_POINT('',#1775);
#497=EDGE_CURVE('',#409,#410,#333,.T.);
#498=EDGE_CURVE('',#409,#411,#221,.T.);
#499=EDGE_CURVE('',#411,#412,#334,.T.);
#500=EDGE_CURVE('',#412,#410,#222,.T.);
#501=EDGE_CURVE('',#413,#414,#335,.T.);
#502=EDGE_CURVE('',#413,#415,#223,.T.);
#503=EDGE_CURVE('',#415,#416,#336,.T.);
#504=EDGE_CURVE('',#416,#414,#224,.T.);
#505=EDGE_CURVE('',#417,#418,#337,.T.);
#506=EDGE_CURVE('',#417,#419,#225,.T.);
#507=EDGE_CURVE('',#419,#420,#338,.T.);
#508=EDGE_CURVE('',#420,#418,#226,.T.);
#509=EDGE_CURVE('',#421,#422,#339,.T.);
#510=EDGE_CURVE('',#421,#420,#227,.T.);
#511=EDGE_CURVE('',#422,#419,#228,.T.);
#512=EDGE_CURVE('',#411,#416,#229,.T.);
#513=EDGE_CURVE('',#412,#415,#230,.T.);
#514=EDGE_CURVE('',#423,#424,#340,.T.);
#515=EDGE_CURVE('',#423,#421,#231,.T.);
#516=EDGE_CURVE('',#422,#424,#232,.T.);
#517=EDGE_CURVE('',#425,#423,#233,.T.);
#518=EDGE_CURVE('',#425,#426,#234,.T.);
#519=EDGE_CURVE('',#426,#410,#235,.T.);
#520=EDGE_CURVE('',#413,#427,#236,.T.);
#521=EDGE_CURVE('',#428,#427,#237,.T.);
#522=EDGE_CURVE('',#418,#428,#238,.T.);
#523=EDGE_CURVE('',#429,#424,#239,.T.);
#524=EDGE_CURVE('',#429,#425,#341,.T.);
#525=EDGE_CURVE('',#414,#430,#240,.T.);
#526=EDGE_CURVE('',#427,#430,#342,.T.);
#527=EDGE_CURVE('',#431,#428,#343,.T.);
#528=EDGE_CURVE('',#417,#431,#241,.T.);
#529=EDGE_CURVE('',#430,#431,#242,.T.);
#530=EDGE_CURVE('',#432,#409,#243,.T.);
#531=EDGE_CURVE('',#432,#429,#244,.T.);
#532=EDGE_CURVE('',#426,#432,#344,.T.);
#533=EDGE_CURVE('',#433,#433,#345,.T.);
#534=EDGE_CURVE('',#433,#434,#245,.T.);
#535=EDGE_CURVE('',#434,#435,#346,.T.);
#536=EDGE_CURVE('',#435,#434,#347,.T.);
#537=EDGE_CURVE('',#435,#436,#348,.T.);
#538=EDGE_CURVE('',#436,#437,#349,.T.);
#539=EDGE_CURVE('',#437,#436,#350,.T.);
#540=EDGE_CURVE('',#437,#438,#246,.T.);
#541=EDGE_CURVE('',#438,#438,#351,.T.);
#542=EDGE_CURVE('',#439,#439,#352,.T.);
#543=EDGE_CURVE('',#439,#440,#247,.T.);
#544=EDGE_CURVE('',#440,#441,#353,.T.);
#545=EDGE_CURVE('',#441,#440,#354,.T.);
#546=EDGE_CURVE('',#441,#442,#355,.T.);
#547=EDGE_CURVE('',#442,#443,#356,.T.);
#548=EDGE_CURVE('',#443,#442,#357,.T.);
#549=EDGE_CURVE('',#443,#444,#248,.T.);
#550=EDGE_CURVE('',#444,#444,#358,.T.);
#551=EDGE_CURVE('',#445,#445,#359,.T.);
#552=EDGE_CURVE('',#445,#446,#249,.T.);
#553=EDGE_CURVE('',#446,#447,#360,.T.);
#554=EDGE_CURVE('',#447,#446,#361,.T.);
#555=EDGE_CURVE('',#447,#448,#362,.T.);
#556=EDGE_CURVE('',#448,#449,#363,.T.);
#557=EDGE_CURVE('',#449,#448,#364,.T.);
#558=EDGE_CURVE('',#449,#450,#250,.T.);
#559=EDGE_CURVE('',#450,#450,#365,.T.);
#560=EDGE_CURVE('',#451,#451,#366,.T.);
#561=EDGE_CURVE('',#451,#452,#251,.T.);
#562=EDGE_CURVE('',#452,#453,#367,.T.);
#563=EDGE_CURVE('',#453,#452,#368,.T.);
#564=EDGE_CURVE('',#453,#454,#369,.T.);
#565=EDGE_CURVE('',#454,#455,#370,.T.);
#566=EDGE_CURVE('',#455,#454,#371,.T.);
#567=EDGE_CURVE('',#455,#456,#252,.T.);
#568=EDGE_CURVE('',#456,#456,#372,.T.);
#569=EDGE_CURVE('',#457,#457,#373,.T.);
#570=EDGE_CURVE('',#457,#458,#253,.T.);
#571=EDGE_CURVE('',#458,#459,#374,.T.);
#572=EDGE_CURVE('',#459,#458,#375,.T.);
#573=EDGE_CURVE('',#459,#460,#376,.T.);
#574=EDGE_CURVE('',#460,#461,#377,.T.);
#575=EDGE_CURVE('',#461,#460,#378,.T.);
#576=EDGE_CURVE('',#461,#462,#254,.T.);
#577=EDGE_CURVE('',#462,#462,#379,.T.);
#578=EDGE_CURVE('',#463,#463,#380,.T.);
#579=EDGE_CURVE('',#463,#464,#255,.T.);
#580=EDGE_CURVE('',#464,#465,#381,.T.);
#581=EDGE_CURVE('',#465,#464,#382,.T.);
#582=EDGE_CURVE('',#465,#466,#383,.T.);
#583=EDGE_CURVE('',#466,#467,#384,.T.);
#584=EDGE_CURVE('',#467,#466,#385,.T.);
#585=EDGE_CURVE('',#467,#468,#256,.T.);
#586=EDGE_CURVE('',#468,#468,#386,.T.);
#587=EDGE_CURVE('',#469,#469,#387,.T.);
#588=EDGE_CURVE('',#469,#470,#257,.T.);
#589=EDGE_CURVE('',#470,#471,#388,.T.);
#590=EDGE_CURVE('',#471,#470,#389,.T.);
#591=EDGE_CURVE('',#471,#472,#390,.T.);
#592=EDGE_CURVE('',#472,#473,#391,.T.);
#593=EDGE_CURVE('',#473,#472,#392,.T.);
#594=EDGE_CURVE('',#473,#474,#258,.T.);
#595=EDGE_CURVE('',#474,#474,#393,.T.);
#596=EDGE_CURVE('',#475,#475,#394,.T.);
#597=EDGE_CURVE('',#475,#476,#259,.T.);
#598=EDGE_CURVE('',#476,#477,#395,.T.);
#599=EDGE_CURVE('',#477,#476,#396,.T.);
#600=EDGE_CURVE('',#477,#478,#397,.T.);
#601=EDGE_CURVE('',#478,#479,#398,.T.);
#602=EDGE_CURVE('',#479,#478,#399,.T.);
#603=EDGE_CURVE('',#479,#480,#260,.T.);
#604=EDGE_CURVE('',#480,#480,#400,.T.);
#605=EDGE_CURVE('',#481,#481,#401,.T.);
#606=EDGE_CURVE('',#481,#482,#261,.T.);
#607=EDGE_CURVE('',#482,#482,#402,.T.);
#608=EDGE_CURVE('',#483,#483,#403,.T.);
#609=EDGE_CURVE('',#483,#484,#262,.T.);
#610=EDGE_CURVE('',#484,#484,#404,.T.);
#611=EDGE_CURVE('',#485,#485,#405,.T.);
#612=EDGE_CURVE('',#485,#486,#263,.T.);
#613=EDGE_CURVE('',#486,#486,#406,.T.);
#614=EDGE_CURVE('',#487,#487,#407,.T.);
#615=EDGE_CURVE('',#487,#488,#264,.T.);
#616=EDGE_CURVE('',#488,#488,#408,.T.);
#617=EDGE_CURVE('',#489,#490,#265,.T.);
#618=EDGE_CURVE('',#490,#491,#266,.T.);
#619=EDGE_CURVE('',#492,#491,#267,.T.);
#620=EDGE_CURVE('',#489,#492,#268,.T.);
#621=EDGE_CURVE('',#493,#489,#269,.T.);
#622=EDGE_CURVE('',#494,#492,#270,.T.);
#623=EDGE_CURVE('',#493,#494,#271,.T.);
#624=EDGE_CURVE('',#495,#493,#272,.T.);
#625=EDGE_CURVE('',#496,#494,#273,.T.);
#626=EDGE_CURVE('',#495,#496,#274,.T.);
#627=EDGE_CURVE('',#490,#495,#275,.T.);
#628=EDGE_CURVE('',#491,#496,#276,.T.);
#629=ORIENTED_EDGE('',*,*,#497,.F.);
#630=ORIENTED_EDGE('',*,*,#498,.T.);
#631=ORIENTED_EDGE('',*,*,#499,.T.);
#632=ORIENTED_EDGE('',*,*,#500,.T.);
#633=ORIENTED_EDGE('',*,*,#501,.F.);
#634=ORIENTED_EDGE('',*,*,#502,.T.);
#635=ORIENTED_EDGE('',*,*,#503,.T.);
#636=ORIENTED_EDGE('',*,*,#504,.T.);
#637=ORIENTED_EDGE('',*,*,#505,.F.);
#638=ORIENTED_EDGE('',*,*,#506,.T.);
#639=ORIENTED_EDGE('',*,*,#507,.T.);
#640=ORIENTED_EDGE('',*,*,#508,.T.);
#641=ORIENTED_EDGE('',*,*,#509,.F.);
#642=ORIENTED_EDGE('',*,*,#510,.T.);
#643=ORIENTED_EDGE('',*,*,#507,.F.);
#644=ORIENTED_EDGE('',*,*,#511,.F.);
#645=ORIENTED_EDGE('',*,*,#499,.F.);
#646=ORIENTED_EDGE('',*,*,#512,.T.);
#647=ORIENTED_EDGE('',*,*,#503,.F.);
#648=ORIENTED_EDGE('',*,*,#513,.F.);
#649=ORIENTED_EDGE('',*,*,#514,.F.);
#650=ORIENTED_EDGE('',*,*,#515,.T.);
#651=ORIENTED_EDGE('',*,*,#509,.T.);
#652=ORIENTED_EDGE('',*,*,#516,.T.);
#653=ORIENTED_EDGE('',*,*,#517,.F.);
#654=ORIENTED_EDGE('',*,*,#518,.T.);
#655=ORIENTED_EDGE('',*,*,#519,.T.);
#656=ORIENTED_EDGE('',*,*,#500,.F.);
#657=ORIENTED_EDGE('',*,*,#513,.T.);
#658=ORIENTED_EDGE('',*,*,#502,.F.);
#659=ORIENTED_EDGE('',*,*,#520,.T.);
#660=ORIENTED_EDGE('',*,*,#521,.F.);
#661=ORIENTED_EDGE('',*,*,#522,.F.);
#662=ORIENTED_EDGE('',*,*,#508,.F.);
#663=ORIENTED_EDGE('',*,*,#510,.F.);
#664=ORIENTED_EDGE('',*,*,#515,.F.);
#665=ORIENTED_EDGE('',*,*,#514,.T.);
#666=ORIENTED_EDGE('',*,*,#523,.F.);
#667=ORIENTED_EDGE('',*,*,#524,.T.);
#668=ORIENTED_EDGE('',*,*,#517,.T.);
#669=ORIENTED_EDGE('',*,*,#501,.T.);
#670=ORIENTED_EDGE('',*,*,#525,.T.);
#671=ORIENTED_EDGE('',*,*,#526,.F.);
#672=ORIENTED_EDGE('',*,*,#520,.F.);
#673=ORIENTED_EDGE('',*,*,#505,.T.);
#674=ORIENTED_EDGE('',*,*,#522,.T.);
#675=ORIENTED_EDGE('',*,*,#527,.F.);
#676=ORIENTED_EDGE('',*,*,#528,.F.);
#677=ORIENTED_EDGE('',*,*,#528,.T.);
#678=ORIENTED_EDGE('',*,*,#529,.F.);
#679=ORIENTED_EDGE('',*,*,#525,.F.);
#680=ORIENTED_EDGE('',*,*,#504,.F.);
#681=ORIENTED_EDGE('',*,*,#512,.F.);
#682=ORIENTED_EDGE('',*,*,#498,.F.);
#683=ORIENTED_EDGE('',*,*,#530,.F.);
#684=ORIENTED_EDGE('',*,*,#531,.T.);
#685=ORIENTED_EDGE('',*,*,#523,.T.);
#686=ORIENTED_EDGE('',*,*,#516,.F.);
#687=ORIENTED_EDGE('',*,*,#511,.T.);
#688=ORIENTED_EDGE('',*,*,#506,.F.);
#689=ORIENTED_EDGE('',*,*,#497,.T.);
#690=ORIENTED_EDGE('',*,*,#519,.F.);
#691=ORIENTED_EDGE('',*,*,#532,.T.);
#692=ORIENTED_EDGE('',*,*,#530,.T.);
#693=ORIENTED_EDGE('',*,*,#526,.T.);
#694=ORIENTED_EDGE('',*,*,#529,.T.);
#695=ORIENTED_EDGE('',*,*,#527,.T.);
#696=ORIENTED_EDGE('',*,*,#521,.T.);
#697=ORIENTED_EDGE('',*,*,#532,.F.);
#698=ORIENTED_EDGE('',*,*,#518,.F.);
#699=ORIENTED_EDGE('',*,*,#524,.F.);
#700=ORIENTED_EDGE('',*,*,#531,.F.);
#701=ORIENTED_EDGE('',*,*,#533,.F.);
#702=ORIENTED_EDGE('',*,*,#534,.T.);
#703=ORIENTED_EDGE('',*,*,#535,.T.);
#704=ORIENTED_EDGE('',*,*,#536,.T.);
#705=ORIENTED_EDGE('',*,*,#534,.F.);
#706=ORIENTED_EDGE('',*,*,#535,.F.);
#707=ORIENTED_EDGE('',*,*,#536,.F.);
#708=ORIENTED_EDGE('',*,*,#537,.T.);
#709=ORIENTED_EDGE('',*,*,#538,.T.);
#710=ORIENTED_EDGE('',*,*,#539,.T.);
#711=ORIENTED_EDGE('',*,*,#537,.F.);
#712=ORIENTED_EDGE('',*,*,#539,.F.);
#713=ORIENTED_EDGE('',*,*,#540,.T.);
#714=ORIENTED_EDGE('',*,*,#541,.T.);
#715=ORIENTED_EDGE('',*,*,#540,.F.);
#716=ORIENTED_EDGE('',*,*,#538,.F.);
#717=ORIENTED_EDGE('',*,*,#533,.T.);
#718=ORIENTED_EDGE('',*,*,#541,.F.);
#719=ORIENTED_EDGE('',*,*,#542,.F.);
#720=ORIENTED_EDGE('',*,*,#543,.T.);
#721=ORIENTED_EDGE('',*,*,#544,.T.);
#722=ORIENTED_EDGE('',*,*,#545,.T.);
#723=ORIENTED_EDGE('',*,*,#543,.F.);
#724=ORIENTED_EDGE('',*,*,#544,.F.);
#725=ORIENTED_EDGE('',*,*,#545,.F.);
#726=ORIENTED_EDGE('',*,*,#546,.T.);
#727=ORIENTED_EDGE('',*,*,#547,.T.);
#728=ORIENTED_EDGE('',*,*,#548,.T.);
#729=ORIENTED_EDGE('',*,*,#546,.F.);
#730=ORIENTED_EDGE('',*,*,#548,.F.);
#731=ORIENTED_EDGE('',*,*,#549,.T.);
#732=ORIENTED_EDGE('',*,*,#550,.T.);
#733=ORIENTED_EDGE('',*,*,#549,.F.);
#734=ORIENTED_EDGE('',*,*,#547,.F.);
#735=ORIENTED_EDGE('',*,*,#542,.T.);
#736=ORIENTED_EDGE('',*,*,#550,.F.);
#737=ORIENTED_EDGE('',*,*,#551,.F.);
#738=ORIENTED_EDGE('',*,*,#552,.T.);
#739=ORIENTED_EDGE('',*,*,#553,.T.);
#740=ORIENTED_EDGE('',*,*,#554,.T.);
#741=ORIENTED_EDGE('',*,*,#552,.F.);
#742=ORIENTED_EDGE('',*,*,#553,.F.);
#743=ORIENTED_EDGE('',*,*,#554,.F.);
#744=ORIENTED_EDGE('',*,*,#555,.T.);
#745=ORIENTED_EDGE('',*,*,#556,.T.);
#746=ORIENTED_EDGE('',*,*,#557,.T.);
#747=ORIENTED_EDGE('',*,*,#555,.F.);
#748=ORIENTED_EDGE('',*,*,#557,.F.);
#749=ORIENTED_EDGE('',*,*,#558,.T.);
#750=ORIENTED_EDGE('',*,*,#559,.T.);
#751=ORIENTED_EDGE('',*,*,#558,.F.);
#752=ORIENTED_EDGE('',*,*,#556,.F.);
#753=ORIENTED_EDGE('',*,*,#551,.T.);
#754=ORIENTED_EDGE('',*,*,#559,.F.);
#755=ORIENTED_EDGE('',*,*,#560,.F.);
#756=ORIENTED_EDGE('',*,*,#561,.T.);
#757=ORIENTED_EDGE('',*,*,#562,.T.);
#758=ORIENTED_EDGE('',*,*,#563,.T.);
#759=ORIENTED_EDGE('',*,*,#561,.F.);
#760=ORIENTED_EDGE('',*,*,#562,.F.);
#761=ORIENTED_EDGE('',*,*,#563,.F.);
#762=ORIENTED_EDGE('',*,*,#564,.T.);
#763=ORIENTED_EDGE('',*,*,#565,.T.);
#764=ORIENTED_EDGE('',*,*,#566,.T.);
#765=ORIENTED_EDGE('',*,*,#564,.F.);
#766=ORIENTED_EDGE('',*,*,#566,.F.);
#767=ORIENTED_EDGE('',*,*,#567,.T.);
#768=ORIENTED_EDGE('',*,*,#568,.T.);
#769=ORIENTED_EDGE('',*,*,#567,.F.);
#770=ORIENTED_EDGE('',*,*,#565,.F.);
#771=ORIENTED_EDGE('',*,*,#560,.T.);
#772=ORIENTED_EDGE('',*,*,#568,.F.);
#773=ORIENTED_EDGE('',*,*,#569,.F.);
#774=ORIENTED_EDGE('',*,*,#570,.T.);
#775=ORIENTED_EDGE('',*,*,#571,.T.);
#776=ORIENTED_EDGE('',*,*,#572,.T.);
#777=ORIENTED_EDGE('',*,*,#570,.F.);
#778=ORIENTED_EDGE('',*,*,#571,.F.);
#779=ORIENTED_EDGE('',*,*,#572,.F.);
#780=ORIENTED_EDGE('',*,*,#573,.T.);
#781=ORIENTED_EDGE('',*,*,#574,.T.);
#782=ORIENTED_EDGE('',*,*,#575,.T.);
#783=ORIENTED_EDGE('',*,*,#573,.F.);
#784=ORIENTED_EDGE('',*,*,#575,.F.);
#785=ORIENTED_EDGE('',*,*,#576,.T.);
#786=ORIENTED_EDGE('',*,*,#577,.T.);
#787=ORIENTED_EDGE('',*,*,#576,.F.);
#788=ORIENTED_EDGE('',*,*,#574,.F.);
#789=ORIENTED_EDGE('',*,*,#569,.T.);
#790=ORIENTED_EDGE('',*,*,#577,.F.);
#791=ORIENTED_EDGE('',*,*,#578,.F.);
#792=ORIENTED_EDGE('',*,*,#579,.T.);
#793=ORIENTED_EDGE('',*,*,#580,.T.);
#794=ORIENTED_EDGE('',*,*,#581,.T.);
#795=ORIENTED_EDGE('',*,*,#579,.F.);
#796=ORIENTED_EDGE('',*,*,#580,.F.);
#797=ORIENTED_EDGE('',*,*,#581,.F.);
#798=ORIENTED_EDGE('',*,*,#582,.T.);
#799=ORIENTED_EDGE('',*,*,#583,.T.);
#800=ORIENTED_EDGE('',*,*,#584,.T.);
#801=ORIENTED_EDGE('',*,*,#582,.F.);
#802=ORIENTED_EDGE('',*,*,#584,.F.);
#803=ORIENTED_EDGE('',*,*,#585,.T.);
#804=ORIENTED_EDGE('',*,*,#586,.T.);
#805=ORIENTED_EDGE('',*,*,#585,.F.);
#806=ORIENTED_EDGE('',*,*,#583,.F.);
#807=ORIENTED_EDGE('',*,*,#578,.T.);
#808=ORIENTED_EDGE('',*,*,#586,.F.);
#809=ORIENTED_EDGE('',*,*,#587,.F.);
#810=ORIENTED_EDGE('',*,*,#588,.T.);
#811=ORIENTED_EDGE('',*,*,#589,.T.);
#812=ORIENTED_EDGE('',*,*,#590,.T.);
#813=ORIENTED_EDGE('',*,*,#588,.F.);
#814=ORIENTED_EDGE('',*,*,#589,.F.);
#815=ORIENTED_EDGE('',*,*,#590,.F.);
#816=ORIENTED_EDGE('',*,*,#591,.T.);
#817=ORIENTED_EDGE('',*,*,#592,.T.);
#818=ORIENTED_EDGE('',*,*,#593,.T.);
#819=ORIENTED_EDGE('',*,*,#591,.F.);
#820=ORIENTED_EDGE('',*,*,#593,.F.);
#821=ORIENTED_EDGE('',*,*,#594,.T.);
#822=ORIENTED_EDGE('',*,*,#595,.T.);
#823=ORIENTED_EDGE('',*,*,#594,.F.);
#824=ORIENTED_EDGE('',*,*,#592,.F.);
#825=ORIENTED_EDGE('',*,*,#587,.T.);
#826=ORIENTED_EDGE('',*,*,#595,.F.);
#827=ORIENTED_EDGE('',*,*,#596,.F.);
#828=ORIENTED_EDGE('',*,*,#597,.T.);
#829=ORIENTED_EDGE('',*,*,#598,.T.);
#830=ORIENTED_EDGE('',*,*,#599,.T.);
#831=ORIENTED_EDGE('',*,*,#597,.F.);
#832=ORIENTED_EDGE('',*,*,#598,.F.);
#833=ORIENTED_EDGE('',*,*,#599,.F.);
#834=ORIENTED_EDGE('',*,*,#600,.T.);
#835=ORIENTED_EDGE('',*,*,#601,.T.);
#836=ORIENTED_EDGE('',*,*,#602,.T.);
#837=ORIENTED_EDGE('',*,*,#600,.F.);
#838=ORIENTED_EDGE('',*,*,#602,.F.);
#839=ORIENTED_EDGE('',*,*,#603,.T.);
#840=ORIENTED_EDGE('',*,*,#604,.T.);
#841=ORIENTED_EDGE('',*,*,#603,.F.);
#842=ORIENTED_EDGE('',*,*,#601,.F.);
#843=ORIENTED_EDGE('',*,*,#596,.T.);
#844=ORIENTED_EDGE('',*,*,#604,.F.);
#845=ORIENTED_EDGE('',*,*,#605,.F.);
#846=ORIENTED_EDGE('',*,*,#606,.T.);
#847=ORIENTED_EDGE('',*,*,#607,.T.);
#848=ORIENTED_EDGE('',*,*,#606,.F.);
#849=ORIENTED_EDGE('',*,*,#608,.F.);
#850=ORIENTED_EDGE('',*,*,#609,.T.);
#851=ORIENTED_EDGE('',*,*,#610,.T.);
#852=ORIENTED_EDGE('',*,*,#609,.F.);
#853=ORIENTED_EDGE('',*,*,#611,.F.);
#854=ORIENTED_EDGE('',*,*,#612,.T.);
#855=ORIENTED_EDGE('',*,*,#613,.T.);
#856=ORIENTED_EDGE('',*,*,#612,.F.);
#857=ORIENTED_EDGE('',*,*,#614,.F.);
#858=ORIENTED_EDGE('',*,*,#615,.T.);
#859=ORIENTED_EDGE('',*,*,#616,.T.);
#860=ORIENTED_EDGE('',*,*,#615,.F.);
#861=ORIENTED_EDGE('',*,*,#617,.T.);
#862=ORIENTED_EDGE('',*,*,#618,.T.);
#863=ORIENTED_EDGE('',*,*,#619,.F.);
#864=ORIENTED_EDGE('',*,*,#620,.F.);
#865=ORIENTED_EDGE('',*,*,#621,.T.);
#866=ORIENTED_EDGE('',*,*,#620,.T.);
#867=ORIENTED_EDGE('',*,*,#622,.F.);
#868=ORIENTED_EDGE('',*,*,#623,.F.);
#869=ORIENTED_EDGE('',*,*,#624,.T.);
#870=ORIENTED_EDGE('',*,*,#623,.T.);
#871=ORIENTED_EDGE('',*,*,#625,.F.);
#872=ORIENTED_EDGE('',*,*,#626,.F.);
#873=ORIENTED_EDGE('',*,*,#627,.T.);
#874=ORIENTED_EDGE('',*,*,#626,.T.);
#875=ORIENTED_EDGE('',*,*,#628,.F.);
#876=ORIENTED_EDGE('',*,*,#618,.F.);
#877=ORIENTED_EDGE('',*,*,#628,.T.);
#878=ORIENTED_EDGE('',*,*,#625,.T.);
#879=ORIENTED_EDGE('',*,*,#622,.T.);
#880=ORIENTED_EDGE('',*,*,#619,.T.);
#881=ORIENTED_EDGE('',*,*,#614,.T.);
#882=ORIENTED_EDGE('',*,*,#611,.T.);
#883=ORIENTED_EDGE('',*,*,#608,.T.);
#884=ORIENTED_EDGE('',*,*,#605,.T.);
#885=ORIENTED_EDGE('',*,*,#627,.F.);
#886=ORIENTED_EDGE('',*,*,#617,.F.);
#887=ORIENTED_EDGE('',*,*,#621,.F.);
#888=ORIENTED_EDGE('',*,*,#624,.F.);
#889=ORIENTED_EDGE('',*,*,#616,.F.);
#890=ORIENTED_EDGE('',*,*,#613,.F.);
#891=ORIENTED_EDGE('',*,*,#610,.F.);
#892=ORIENTED_EDGE('',*,*,#607,.F.);
#893=PLANE('',#1011);
#894=PLANE('',#1014);
#895=PLANE('',#1017);
#896=PLANE('',#1023);
#897=PLANE('',#1025);
#898=PLANE('',#1032);
#899=PLANE('',#1035);
#900=PLANE('',#1036);
#901=PLANE('',#1047);
#902=PLANE('',#1048);
#903=PLANE('',#1059);
#904=PLANE('',#1060);
#905=PLANE('',#1071);
#906=PLANE('',#1072);
#907=PLANE('',#1083);
#908=PLANE('',#1084);
#909=PLANE('',#1095);
#910=PLANE('',#1096);
#911=PLANE('',#1107);
#912=PLANE('',#1108);
#913=PLANE('',#1119);
#914=PLANE('',#1120);
#915=PLANE('',#1131);
#916=PLANE('',#1132);
#917=PLANE('',#1145);
#918=PLANE('',#1146);
#919=PLANE('',#1147);
#920=PLANE('',#1148);
#921=PLANE('',#1149);
#922=PLANE('',#1150);
#923=ADVANCED_FACE('',(#85),#893,.T.);
#924=ADVANCED_FACE('',(#86),#894,.F.);
#925=ADVANCED_FACE('',(#87),#895,.F.);
#926=ADVANCED_FACE('',(#88),#59,.T.);
#927=ADVANCED_FACE('',(#89),#60,.T.);
#928=ADVANCED_FACE('',(#90),#896,.T.);
#929=ADVANCED_FACE('',(#91),#897,.T.);
#930=ADVANCED_FACE('',(#92),#61,.T.);
#931=ADVANCED_FACE('',(#93),#62,.T.);
#932=ADVANCED_FACE('',(#94),#63,.T.);
#933=ADVANCED_FACE('',(#95),#898,.T.);
#934=ADVANCED_FACE('',(#96),#64,.T.);
#935=ADVANCED_FACE('',(#97),#899,.T.);
#936=ADVANCED_FACE('',(#98),#900,.F.);
#937=ADVANCED_FACE('',(#99),#65,.T.);
#938=ADVANCED_FACE('',(#100),#31,.T.);
#939=ADVANCED_FACE('',(#101),#66,.T.);
#940=ADVANCED_FACE('',(#102),#901,.T.);
#941=ADVANCED_FACE('',(#103),#902,.F.);
#942=ADVANCED_FACE('',(#104),#67,.T.);
#943=ADVANCED_FACE('',(#105),#32,.T.);
#944=ADVANCED_FACE('',(#106),#68,.T.);
#945=ADVANCED_FACE('',(#107),#903,.T.);
#946=ADVANCED_FACE('',(#108),#904,.F.);
#947=ADVANCED_FACE('',(#109),#69,.T.);
#948=ADVANCED_FACE('',(#110),#33,.T.);
#949=ADVANCED_FACE('',(#111),#70,.T.);
#950=ADVANCED_FACE('',(#112),#905,.T.);
#951=ADVANCED_FACE('',(#113),#906,.F.);
#952=ADVANCED_FACE('',(#114),#71,.T.);
#953=ADVANCED_FACE('',(#115),#34,.T.);
#954=ADVANCED_FACE('',(#116),#72,.T.);
#955=ADVANCED_FACE('',(#117),#907,.T.);
#956=ADVANCED_FACE('',(#118),#908,.F.);
#957=ADVANCED_FACE('',(#119),#73,.T.);
#958=ADVANCED_FACE('',(#120),#35,.T.);
#959=ADVANCED_FACE('',(#121),#74,.T.);
#960=ADVANCED_FACE('',(#122),#909,.T.);
#961=ADVANCED_FACE('',(#123),#910,.F.);
#962=ADVANCED_FACE('',(#124),#75,.T.);
#963=ADVANCED_FACE('',(#125),#36,.T.);
#964=ADVANCED_FACE('',(#126),#76,.T.);
#965=ADVANCED_FACE('',(#127),#911,.T.);
#966=ADVANCED_FACE('',(#128),#912,.F.);
#967=ADVANCED_FACE('',(#129),#77,.T.);
#968=ADVANCED_FACE('',(#130),#37,.T.);
#969=ADVANCED_FACE('',(#131),#78,.T.);
#970=ADVANCED_FACE('',(#132),#913,.T.);
#971=ADVANCED_FACE('',(#133),#914,.F.);
#972=ADVANCED_FACE('',(#134),#79,.T.);
#973=ADVANCED_FACE('',(#135),#38,.T.);
#974=ADVANCED_FACE('',(#136),#80,.T.);
#975=ADVANCED_FACE('',(#137),#915,.T.);
#976=ADVANCED_FACE('',(#138),#916,.F.);
#977=ADVANCED_FACE('',(#139),#81,.F.);
#978=ADVANCED_FACE('',(#140),#82,.F.);
#979=ADVANCED_FACE('',(#141),#83,.F.);
#980=ADVANCED_FACE('',(#142),#84,.F.);
#981=ADVANCED_FACE('',(#143),#917,.T.);
#982=ADVANCED_FACE('',(#144),#918,.T.);
#983=ADVANCED_FACE('',(#145),#919,.T.);
#984=ADVANCED_FACE('',(#146),#920,.T.);
#985=ADVANCED_FACE('',(#147,#19,#20,#21,#22),#921,.T.);
#986=ADVANCED_FACE('',(#148,#23,#24,#25,#26),#922,.F.);
#987=CLOSED_SHELL('',(#923,#924,#925,#926,#927,#928,#929,#930,#931,#932,
#933,#934,#935,#936));
#988=CLOSED_SHELL('',(#937,#938,#939,#940,#941));
#989=CLOSED_SHELL('',(#942,#943,#944,#945,#946));
#990=CLOSED_SHELL('',(#947,#948,#949,#950,#951));
#991=CLOSED_SHELL('',(#952,#953,#954,#955,#956));
#992=CLOSED_SHELL('',(#957,#958,#959,#960,#961));
#993=CLOSED_SHELL('',(#962,#963,#964,#965,#966));
#994=CLOSED_SHELL('',(#967,#968,#969,#970,#971));
#995=CLOSED_SHELL('',(#972,#973,#974,#975,#976));
#996=CLOSED_SHELL('',(#977,#978,#979,#980,#981,#982,#983,#984,#985,#986));
#997=DERIVED_UNIT_ELEMENT(#999,1.);
#998=DERIVED_UNIT_ELEMENT(#1792,-3.);
#999=(
MASS_UNIT()
NAMED_UNIT(*)
SI_UNIT(.KILO.,.GRAM.)
);
#1000=DERIVED_UNIT((#997,#998));
#1001=MEASURE_REPRESENTATION_ITEM('density measure',
POSITIVE_RATIO_MEASURE(7850.),#1000);
#1002=PROPERTY_DEFINITION_REPRESENTATION(#1007,#1004);
#1003=PROPERTY_DEFINITION_REPRESENTATION(#1008,#1005);
#1004=REPRESENTATION('material name',(#1006),#1789);
#1005=REPRESENTATION('density',(#1001),#1789);
#1006=DESCRIPTIVE_REPRESENTATION_ITEM('Steel','Steel');
#1007=PROPERTY_DEFINITION('material property','material name',#1805);
#1008=PROPERTY_DEFINITION('material property','density of part',#1805);
#1009=AXIS2_PLACEMENT_3D('',#1497,#1153,#1154);
#1010=AXIS2_PLACEMENT_3D('',#1498,#1155,#1156);
#1011=AXIS2_PLACEMENT_3D('',#1499,#1157,#1158);
#1012=AXIS2_PLACEMENT_3D('',#1502,#1159,#1160);
#1013=AXIS2_PLACEMENT_3D('',#1506,#1162,#1163);
#1014=AXIS2_PLACEMENT_3D('',#1508,#1165,#1166);
#1015=AXIS2_PLACEMENT_3D('',#1511,#1167,#1168);
#1016=AXIS2_PLACEMENT_3D('',#1515,#1170,#1171);
#1017=AXIS2_PLACEMENT_3D('',#1517,#1173,#1174);
#1018=AXIS2_PLACEMENT_3D('',#1520,#1175,#1176);
#1019=AXIS2_PLACEMENT_3D('',#1524,#1178,#1179);
#1020=AXIS2_PLACEMENT_3D('',#1526,#1181,#1182);
#1021=AXIS2_PLACEMENT_3D('',#1529,#1183,#1184);
#1022=AXIS2_PLACEMENT_3D('',#1532,#1187,#1188);
#1023=AXIS2_PLACEMENT_3D('',#1535,#1191,#1192);
#1024=AXIS2_PLACEMENT_3D('',#1538,#1193,#1194);
#1025=AXIS2_PLACEMENT_3D('',#1541,#1197,#1198);
#1026=AXIS2_PLACEMENT_3D('',#1552,#1205,#1206);
#1027=AXIS2_PLACEMENT_3D('',#1555,#1208,#1209);
#1028=AXIS2_PLACEMENT_3D('',#1556,#1210,#1211);
#1029=AXIS2_PLACEMENT_3D('',#1559,#1213,#1214);
#1030=AXIS2_PLACEMENT_3D('',#1560,#1215,#1216);
#1031=AXIS2_PLACEMENT_3D('',#1562,#1217,#1218);
#1032=AXIS2_PLACEMENT_3D('',#1564,#1220,#1221);
#1033=AXIS2_PLACEMENT_3D('',#1569,#1225,#1226);
#1034=AXIS2_PLACEMENT_3D('',#1570,#1227,#1228);
#1035=AXIS2_PLACEMENT_3D('',#1571,#1229,#1230);
#1036=AXIS2_PLACEMENT_3D('',#1572,#1231,#1232);
#1037=AXIS2_PLACEMENT_3D('',#1573,#1233,#1234);
#1038=AXIS2_PLACEMENT_3D('',#1575,#1235,#1236);
#1039=AXIS2_PLACEMENT_3D('',#1579,#1238,#1239);
#1040=AXIS2_PLACEMENT_3D('',#1580,#1240,#1241);
#1041=AXIS2_PLACEMENT_3D('',#1581,#1242,#1243);
#1042=AXIS2_PLACEMENT_3D('',#1583,#1244,#1245);
#1043=AXIS2_PLACEMENT_3D('',#1585,#1246,#1247);
#1044=AXIS2_PLACEMENT_3D('',#1586,#1248,#1249);
#1045=AXIS2_PLACEMENT_3D('',#1587,#1250,#1251);
#1046=AXIS2_PLACEMENT_3D('',#1590,#1253,#1254);
#1047=AXIS2_PLACEMENT_3D('',#1591,#1255,#1256);
#1048=AXIS2_PLACEMENT_3D('',#1592,#1257,#1258);
#1049=AXIS2_PLACEMENT_3D('',#1593,#1259,#1260);
#1050=AXIS2_PLACEMENT_3D('',#1595,#1261,#1262);
#1051=AXIS2_PLACEMENT_3D('',#1599,#1264,#1265);
#1052=AXIS2_PLACEMENT_3D('',#1600,#1266,#1267);
#1053=AXIS2_PLACEMENT_3D('',#1601,#1268,#1269);
#1054=AXIS2_PLACEMENT_3D('',#1603,#1270,#1271);
#1055=AXIS2_PLACEMENT_3D('',#1605,#1272,#1273);
#1056=AXIS2_PLACEMENT_3D('',#1606,#1274,#1275);
#1057=AXIS2_PLACEMENT_3D('',#1607,#1276,#1277);
#1058=AXIS2_PLACEMENT_3D('',#1610,#1279,#1280);
#1059=AXIS2_PLACEMENT_3D('',#1611,#1281,#1282);
#1060=AXIS2_PLACEMENT_3D('',#1612,#1283,#1284);
#1061=AXIS2_PLACEMENT_3D('',#1613,#1285,#1286);
#1062=AXIS2_PLACEMENT_3D('',#1615,#1287,#1288);
#1063=AXIS2_PLACEMENT_3D('',#1619,#1290,#1291);
#1064=AXIS2_PLACEMENT_3D('',#1620,#1292,#1293);
#1065=AXIS2_PLACEMENT_3D('',#1621,#1294,#1295);
#1066=AXIS2_PLACEMENT_3D('',#1623,#1296,#1297);
#1067=AXIS2_PLACEMENT_3D('',#1625,#1298,#1299);
#1068=AXIS2_PLACEMENT_3D('',#1626,#1300,#1301);
#1069=AXIS2_PLACEMENT_3D('',#1627,#1302,#1303);
#1070=AXIS2_PLACEMENT_3D('',#1630,#1305,#1306);
#1071=AXIS2_PLACEMENT_3D('',#1631,#1307,#1308);
#1072=AXIS2_PLACEMENT_3D('',#1632,#1309,#1310);
#1073=AXIS2_PLACEMENT_3D('',#1633,#1311,#1312);
#1074=AXIS2_PLACEMENT_3D('',#1635,#1313,#1314);
#1075=AXIS2_PLACEMENT_3D('',#1639,#1316,#1317);
#1076=AXIS2_PLACEMENT_3D('',#1640,#1318,#1319);
#1077=AXIS2_PLACEMENT_3D('',#1641,#1320,#1321);
#1078=AXIS2_PLACEMENT_3D('',#1643,#1322,#1323);
#1079=AXIS2_PLACEMENT_3D('',#1645,#1324,#1325);
#1080=AXIS2_PLACEMENT_3D('',#1646,#1326,#1327);
#1081=AXIS2_PLACEMENT_3D('',#1647,#1328,#1329);
#1082=AXIS2_PLACEMENT_3D('',#1650,#1331,#1332);
#1083=AXIS2_PLACEMENT_3D('',#1651,#1333,#1334);
#1084=AXIS2_PLACEMENT_3D('',#1652,#1335,#1336);
#1085=AXIS2_PLACEMENT_3D('',#1653,#1337,#1338);
#1086=AXIS2_PLACEMENT_3D('',#1655,#1339,#1340);
#1087=AXIS2_PLACEMENT_3D('',#1659,#1342,#1343);
#1088=AXIS2_PLACEMENT_3D('',#1660,#1344,#1345);
#1089=AXIS2_PLACEMENT_3D('',#1661,#1346,#1347);
#1090=AXIS2_PLACEMENT_3D('',#1663,#1348,#1349);
#1091=AXIS2_PLACEMENT_3D('',#1665,#1350,#1351);
#1092=AXIS2_PLACEMENT_3D('',#1666,#1352,#1353);
#1093=AXIS2_PLACEMENT_3D('',#1667,#1354,#1355);
#1094=AXIS2_PLACEMENT_3D('',#1670,#1357,#1358);
#1095=AXIS2_PLACEMENT_3D('',#1671,#1359,#1360);
#1096=AXIS2_PLACEMENT_3D('',#1672,#1361,#1362);
#1097=AXIS2_PLACEMENT_3D('',#1673,#1363,#1364);
#1098=AXIS2_PLACEMENT_3D('',#1675,#1365,#1366);
#1099=AXIS2_PLACEMENT_3D('',#1679,#1368,#1369);
#1100=AXIS2_PLACEMENT_3D('',#1680,#1370,#1371);
#1101=AXIS2_PLACEMENT_3D('',#1681,#1372,#1373);
#1102=AXIS2_PLACEMENT_3D('',#1683,#1374,#1375);
#1103=AXIS2_PLACEMENT_3D('',#1685,#1376,#1377);
#1104=AXIS2_PLACEMENT_3D('',#1686,#1378,#1379);
#1105=AXIS2_PLACEMENT_3D('',#1687,#1380,#1381);
#1106=AXIS2_PLACEMENT_3D('',#1690,#1383,#1384);
#1107=AXIS2_PLACEMENT_3D('',#1691,#1385,#1386);
#1108=AXIS2_PLACEMENT_3D('',#1692,#1387,#1388);
#1109=AXIS2_PLACEMENT_3D('',#1693,#1389,#1390);
#1110=AXIS2_PLACEMENT_3D('',#1695,#1391,#1392);
#1111=AXIS2_PLACEMENT_3D('',#1699,#1394,#1395);
#1112=AXIS2_PLACEMENT_3D('',#1700,#1396,#1397);
#1113=AXIS2_PLACEMENT_3D('',#1701,#1398,#1399);
#1114=AXIS2_PLACEMENT_3D('',#1703,#1400,#1401);
#1115=AXIS2_PLACEMENT_3D('',#1705,#1402,#1403);
#1116=AXIS2_PLACEMENT_3D('',#1706,#1404,#1405);
#1117=AXIS2_PLACEMENT_3D('',#1707,#1406,#1407);
#1118=AXIS2_PLACEMENT_3D('',#1710,#1409,#1410);
#1119=AXIS2_PLACEMENT_3D('',#1711,#1411,#1412);
#1120=AXIS2_PLACEMENT_3D('',#1712,#1413,#1414);
#1121=AXIS2_PLACEMENT_3D('',#1713,#1415,#1416);
#1122=AXIS2_PLACEMENT_3D('',#1715,#1417,#1418);
#1123=AXIS2_PLACEMENT_3D('',#1719,#1420,#1421);
#1124=AXIS2_PLACEMENT_3D('',#1720,#1422,#1423);
#1125=AXIS2_PLACEMENT_3D('',#1721,#1424,#1425);
#1126=AXIS2_PLACEMENT_3D('',#1723,#1426,#1427);
#1127=AXIS2_PLACEMENT_3D('',#1725,#1428,#1429);
#1128=AXIS2_PLACEMENT_3D('',#1726,#1430,#1431);
#1129=AXIS2_PLACEMENT_3D('',#1727,#1432,#1433);
#1130=AXIS2_PLACEMENT_3D('',#1730,#1435,#1436);
#1131=AXIS2_PLACEMENT_3D('',#1731,#1437,#1438);
#1132=AXIS2_PLACEMENT_3D('',#1732,#1439,#1440);
#1133=AXIS2_PLACEMENT_3D('',#1733,#1441,#1442);
#1134=AXIS2_PLACEMENT_3D('',#1735,#1443,#1444);
#1135=AXIS2_PLACEMENT_3D('',#1738,#1446,#1447);
#1136=AXIS2_PLACEMENT_3D('',#1739,#1448,#1449);
#1137=AXIS2_PLACEMENT_3D('',#1741,#1450,#1451);
#1138=AXIS2_PLACEMENT_3D('',#1744,#1453,#1454);
#1139=AXIS2_PLACEMENT_3D('',#1745,#1455,#1456);
#1140=AXIS2_PLACEMENT_3D('',#1747,#1457,#1458);
#1141=AXIS2_PLACEMENT_3D('',#1750,#1460,#1461);
#1142=AXIS2_PLACEMENT_3D('',#1751,#1462,#1463);
#1143=AXIS2_PLACEMENT_3D('',#1753,#1464,#1465);
#1144=AXIS2_PLACEMENT_3D('',#1756,#1467,#1468);
#1145=AXIS2_PLACEMENT_3D('',#1757,#1469,#1470);
#1146=AXIS2_PLACEMENT_3D('',#1766,#1475,#1476);
#1147=AXIS2_PLACEMENT_3D('',#1772,#1480,#1481);
#1148=AXIS2_PLACEMENT_3D('',#1778,#1485,#1486);
#1149=AXIS2_PLACEMENT_3D('',#1781,#1489,#1490);
#1150=AXIS2_PLACEMENT_3D('',#1782,#1491,#1492);
#1151=AXIS2_PLACEMENT_3D('',#1783,#1493,#1494);
#1152=AXIS2_PLACEMENT_3D('',#1784,#1495,#1496);
#1153=DIRECTION('axis',(0.,0.,1.));
#1154=DIRECTION('refdir',(1.,0.,0.));
#1155=DIRECTION('axis',(0.,0.,1.));
#1156=DIRECTION('refdir',(1.,0.,0.));
#1157=DIRECTION('center_axis',(0.,0.,-1.));
#1158=DIRECTION('ref_axis',(-1.,0.,0.));
#1159=DIRECTION('center_axis',(0.,0.,-1.));
#1160=DIRECTION('ref_axis',(1.11022302462516E-15,1.,0.));
#1161=DIRECTION('',(-1.,0.,0.));
#1162=DIRECTION('center_axis',(0.,0.,-1.));
#1163=DIRECTION('ref_axis',(1.11022302462516E-15,-1.,0.));
#1164=DIRECTION('',(1.,0.,0.));
#1165=DIRECTION('center_axis',(0.,0.,-1.));
#1166=DIRECTION('ref_axis',(-1.,0.,0.));
#1167=DIRECTION('center_axis',(0.,0.,1.));
#1168=DIRECTION('ref_axis',(1.11022302462516E-15,1.,0.));
#1169=DIRECTION('',(-1.,0.,0.));
#1170=DIRECTION('center_axis',(0.,0.,1.));
#1171=DIRECTION('ref_axis',(1.11022302462516E-15,-1.,0.));
#1172=DIRECTION('',(1.,0.,0.));
#1173=DIRECTION('center_axis',(0.,0.,-1.));
#1174=DIRECTION('ref_axis',(-1.,0.,0.));
#1175=DIRECTION('center_axis',(0.,0.,1.));
#1176=DIRECTION('ref_axis',(-1.11022302462516E-15,-1.,0.));
#1177=DIRECTION('',(1.,0.,0.));
#1178=DIRECTION('center_axis',(0.,0.,1.));
#1179=DIRECTION('ref_axis',(-1.11022302462516E-15,1.,0.));
#1180=DIRECTION('',(-1.,0.,0.));
#1181=DIRECTION('center_axis',(0.,0.,1.));
#1182=DIRECTION('ref_axis',(-1.11022302462516E-15,1.,0.));
#1183=DIRECTION('center_axis',(0.,0.,-1.));
#1184=DIRECTION('ref_axis',(-1.11022302462516E-15,1.,0.));
#1185=DIRECTION('',(0.,0.,1.));
#1186=DIRECTION('',(0.,0.,1.));
#1187=DIRECTION('center_axis',(0.,0.,1.));
#1188=DIRECTION('ref_axis',(1.11022302462516E-15,-1.,0.));
#1189=DIRECTION('',(0.,0.,1.));
#1190=DIRECTION('',(0.,0.,1.));
#1191=DIRECTION('center_axis',(0.,0.,-1.));
#1192=DIRECTION('ref_axis',(-1.,0.,0.));
#1193=DIRECTION('center_axis',(0.,0.,-1.));
#1194=DIRECTION('ref_axis',(-1.11022302462516E-15,-1.,0.));
#1195=DIRECTION('',(1.,0.,0.));
#1196=DIRECTION('',(-1.,0.,0.));
#1197=DIRECTION('center_axis',(0.,1.,0.));
#1198=DIRECTION('ref_axis',(-1.,0.,0.));
#1199=DIRECTION('',(0.,0.,1.));
#1200=DIRECTION('',(-1.,0.,0.));
#1201=DIRECTION('',(0.,0.,1.));
#1202=DIRECTION('',(0.,0.,1.));
#1203=DIRECTION('',(-1.,0.,0.));
#1204=DIRECTION('',(0.,0.,1.));
#1205=DIRECTION('center_axis',(0.,0.,1.));
#1206=DIRECTION('ref_axis',(-1.11022302462516E-15,-1.,0.));
#1207=DIRECTION('',(0.,0.,1.));
#1208=DIRECTION('center_axis',(0.,0.,1.));
#1209=DIRECTION('ref_axis',(-1.11022302462516E-15,-1.,0.));
#1210=DIRECTION('center_axis',(0.,0.,1.));
#1211=DIRECTION('ref_axis',(1.11022302462516E-15,1.,0.));
#1212=DIRECTION('',(0.,0.,1.));
#1213=DIRECTION('center_axis',(0.,0.,1.));
#1214=DIRECTION('ref_axis',(1.11022302462516E-15,1.,0.));
#1215=DIRECTION('center_axis',(0.,0.,1.));
#1216=DIRECTION('ref_axis',(-1.11022302462516E-15,-1.,0.));
#1217=DIRECTION('center_axis',(0.,0.,1.));
#1218=DIRECTION('ref_axis',(-1.11022302462516E-15,-1.,0.));
#1219=DIRECTION('',(0.,0.,1.));
#1220=DIRECTION('center_axis',(0.,-1.,0.));
#1221=DIRECTION('ref_axis',(1.,0.,0.));
#1222=DIRECTION('',(1.,0.,0.));
#1223=DIRECTION('',(0.,0.,1.));
#1224=DIRECTION('',(1.,0.,0.));
#1225=DIRECTION('center_axis',(0.,0.,1.));
#1226=DIRECTION('ref_axis',(1.11022302462516E-15,1.,0.));
#1227=DIRECTION('center_axis',(0.,0.,1.));
#1228=DIRECTION('ref_axis',(1.11022302462516E-15,1.,0.));
#1229=DIRECTION('center_axis',(0.,0.,1.));
#1230=DIRECTION('ref_axis',(1.,0.,0.));
#1231=DIRECTION('center_axis',(0.,0.,1.));
#1232=DIRECTION('ref_axis',(1.,0.,0.));
#1233=DIRECTION('center_axis',(0.,-1.,0.));
#1234=DIRECTION('ref_axis',(-1.,0.,0.));
#1235=DIRECTION('center_axis',(0.,-1.,-6.12323399573676E-17));
#1236=DIRECTION('ref_axis',(-1.,0.,0.));
#1237=DIRECTION('',(0.,1.,0.));
#1238=DIRECTION('center_axis',(0.,-1.,-6.12323399573676E-17));
#1239=DIRECTION('ref_axis',(-1.,0.,0.));
#1240=DIRECTION('center_axis',(0.,-1.,-6.12323399573676E-17));
#1241=DIRECTION('ref_axis',(-1.,0.,0.));
#1242=DIRECTION('center_axis',(-1.,0.,0.));
#1243=DIRECTION('ref_axis',(0.,0.,1.));
#1244=DIRECTION('center_axis',(1.,0.,0.));
#1245=DIRECTION('ref_axis',(0.,0.,1.));
#1246=DIRECTION('center_axis',(0.,0.,-1.));
#1247=DIRECTION('ref_axis',(-1.,0.,0.));
#1248=DIRECTION('center_axis',(0.,0.,-1.));
#1249=DIRECTION('ref_axis',(-1.,0.,0.));
#1250=DIRECTION('center_axis',(0.,0.,-1.));
#1251=DIRECTION('ref_axis',(-1.,0.,0.));
#1252=DIRECTION('',(0.,0.,1.));
#1253=DIRECTION('center_axis',(0.,0.,-1.));
#1254=DIRECTION('ref_axis',(-1.,0.,0.));
#1255=DIRECTION('center_axis',(0.,-1.,-6.12323399573676E-17));
#1256=DIRECTION('ref_axis',(-1.,0.,0.));
#1257=DIRECTION('center_axis',(0.,0.,-1.));
#1258=DIRECTION('ref_axis',(-1.,0.,0.));
#1259=DIRECTION('center_axis',(0.,-1.,0.));
#1260=DIRECTION('ref_axis',(-1.,0.,0.));
#1261=DIRECTION('center_axis',(0.,-1.,-6.12323399573676E-17));
#1262=DIRECTION('ref_axis',(-1.,0.,0.));
#1263=DIRECTION('',(0.,1.,0.));
#1264=DIRECTION('center_axis',(0.,-1.,-6.12323399573676E-17));
#1265=DIRECTION('ref_axis',(-1.,0.,0.));
#1266=DIRECTION('center_axis',(0.,-1.,-6.12323399573676E-17));
#1267=DIRECTION('ref_axis',(-1.,0.,0.));
#1268=DIRECTION('center_axis',(-1.,0.,0.));
#1269=DIRECTION('ref_axis',(0.,0.,1.));
#1270=DIRECTION('center_axis',(1.,0.,0.));
#1271=DIRECTION('ref_axis',(0.,0.,1.));
#1272=DIRECTION('center_axis',(0.,0.,-1.));
#1273=DIRECTION('ref_axis',(-1.,0.,0.));
#1274=DIRECTION('center_axis',(0.,0.,-1.));
#1275=DIRECTION('ref_axis',(-1.,0.,0.));
#1276=DIRECTION('center_axis',(0.,0.,-1.));
#1277=DIRECTION('ref_axis',(-1.,0.,0.));
#1278=DIRECTION('',(0.,0.,1.));
#1279=DIRECTION('center_axis',(0.,0.,-1.));
#1280=DIRECTION('ref_axis',(-1.,0.,0.));
#1281=DIRECTION('center_axis',(0.,-1.,-6.12323399573676E-17));
#1282=DIRECTION('ref_axis',(-1.,0.,0.));
#1283=DIRECTION('center_axis',(0.,0.,-1.));
#1284=DIRECTION('ref_axis',(-1.,0.,0.));
#1285=DIRECTION('center_axis',(0.,-1.,0.));
#1286=DIRECTION('ref_axis',(-1.,0.,0.));
#1287=DIRECTION('center_axis',(0.,-1.,-6.12323399573676E-17));
#1288=DIRECTION('ref_axis',(-1.,0.,0.));
#1289=DIRECTION('',(0.,1.,0.));
#1290=DIRECTION('center_axis',(0.,-1.,-6.12323399573676E-17));
#1291=DIRECTION('ref_axis',(-1.,0.,0.));
#1292=DIRECTION('center_axis',(0.,-1.,-6.12323399573676E-17));
#1293=DIRECTION('ref_axis',(-1.,0.,0.));
#1294=DIRECTION('center_axis',(-1.,0.,0.));
#1295=DIRECTION('ref_axis',(0.,0.,1.));
#1296=DIRECTION('center_axis',(1.,0.,0.));
#1297=DIRECTION('ref_axis',(0.,0.,1.));
#1298=DIRECTION('center_axis',(0.,0.,-1.));
#1299=DIRECTION('ref_axis',(-1.,0.,0.));
#1300=DIRECTION('center_axis',(0.,0.,-1.));
#1301=DIRECTION('ref_axis',(-1.,0.,0.));
#1302=DIRECTION('center_axis',(0.,0.,-1.));
#1303=DIRECTION('ref_axis',(-1.,0.,0.));
#1304=DIRECTION('',(0.,0.,1.));
#1305=DIRECTION('center_axis',(0.,0.,-1.));
#1306=DIRECTION('ref_axis',(-1.,0.,0.));
#1307=DIRECTION('center_axis',(0.,-1.,-6.12323399573676E-17));
#1308=DIRECTION('ref_axis',(-1.,0.,0.));
#1309=DIRECTION('center_axis',(0.,0.,-1.));
#1310=DIRECTION('ref_axis',(-1.,0.,0.));
#1311=DIRECTION('center_axis',(0.,-1.,0.));
#1312=DIRECTION('ref_axis',(-1.,0.,0.));
#1313=DIRECTION('center_axis',(0.,-1.,-6.12323399573676E-17));
#1314=DIRECTION('ref_axis',(-1.,0.,0.));
#1315=DIRECTION('',(0.,1.,0.));
#1316=DIRECTION('center_axis',(0.,-1.,-6.12323399573676E-17));
#1317=DIRECTION('ref_axis',(-1.,0.,0.));
#1318=DIRECTION('center_axis',(0.,-1.,-6.12323399573676E-17));
#1319=DIRECTION('ref_axis',(-1.,0.,0.));
#1320=DIRECTION('center_axis',(-1.,0.,0.));
#1321=DIRECTION('ref_axis',(0.,0.,1.));
#1322=DIRECTION('center_axis',(1.,0.,0.));
#1323=DIRECTION('ref_axis',(0.,0.,1.));
#1324=DIRECTION('center_axis',(0.,0.,-1.));
#1325=DIRECTION('ref_axis',(-1.,0.,0.));
#1326=DIRECTION('center_axis',(0.,0.,-1.));
#1327=DIRECTION('ref_axis',(-1.,0.,0.));
#1328=DIRECTION('center_axis',(0.,0.,-1.));
#1329=DIRECTION('ref_axis',(-1.,0.,0.));
#1330=DIRECTION('',(0.,0.,1.));
#1331=DIRECTION('center_axis',(0.,0.,-1.));
#1332=DIRECTION('ref_axis',(-1.,0.,0.));
#1333=DIRECTION('center_axis',(0.,-1.,-6.12323399573676E-17));
#1334=DIRECTION('ref_axis',(-1.,0.,0.));
#1335=DIRECTION('center_axis',(0.,0.,-1.));
#1336=DIRECTION('ref_axis',(-1.,0.,0.));
#1337=DIRECTION('center_axis',(0.,-1.,0.));
#1338=DIRECTION('ref_axis',(-1.,0.,0.));
#1339=DIRECTION('center_axis',(0.,-1.,-6.12323399573676E-17));
#1340=DIRECTION('ref_axis',(-1.,0.,0.));
#1341=DIRECTION('',(0.,1.,0.));
#1342=DIRECTION('center_axis',(0.,-1.,-6.12323399573676E-17));
#1343=DIRECTION('ref_axis',(-1.,0.,0.));
#1344=DIRECTION('center_axis',(0.,-1.,-6.12323399573676E-17));
#1345=DIRECTION('ref_axis',(-1.,0.,0.));
#1346=DIRECTION('center_axis',(-1.,0.,0.));
#1347=DIRECTION('ref_axis',(0.,0.,1.));
#1348=DIRECTION('center_axis',(1.,0.,0.));
#1349=DIRECTION('ref_axis',(0.,0.,1.));
#1350=DIRECTION('center_axis',(0.,0.,-1.));
#1351=DIRECTION('ref_axis',(-1.,0.,0.));
#1352=DIRECTION('center_axis',(0.,0.,-1.));
#1353=DIRECTION('ref_axis',(-1.,0.,0.));
#1354=DIRECTION('center_axis',(0.,0.,-1.));
#1355=DIRECTION('ref_axis',(-1.,0.,0.));
#1356=DIRECTION('',(0.,0.,1.));
#1357=DIRECTION('center_axis',(0.,0.,-1.));
#1358=DIRECTION('ref_axis',(-1.,0.,0.));
#1359=DIRECTION('center_axis',(0.,-1.,-6.12323399573676E-17));
#1360=DIRECTION('ref_axis',(-1.,0.,0.));
#1361=DIRECTION('center_axis',(0.,0.,-1.));
#1362=DIRECTION('ref_axis',(-1.,0.,0.));
#1363=DIRECTION('center_axis',(0.,-1.,0.));
#1364=DIRECTION('ref_axis',(-1.,0.,0.));
#1365=DIRECTION('center_axis',(0.,-1.,-6.12323399573676E-17));
#1366=DIRECTION('ref_axis',(-1.,0.,0.));
#1367=DIRECTION('',(0.,1.,0.));
#1368=DIRECTION('center_axis',(0.,-1.,-6.12323399573676E-17));
#1369=DIRECTION('ref_axis',(-1.,0.,0.));
#1370=DIRECTION('center_axis',(0.,-1.,-6.12323399573676E-17));
#1371=DIRECTION('ref_axis',(-1.,0.,0.));
#1372=DIRECTION('center_axis',(-1.,0.,0.));
#1373=DIRECTION('ref_axis',(0.,0.,1.));
#1374=DIRECTION('center_axis',(1.,0.,0.));
#1375=DIRECTION('ref_axis',(0.,0.,1.));
#1376=DIRECTION('center_axis',(0.,0.,-1.));
#1377=DIRECTION('ref_axis',(-1.,0.,0.));
#1378=DIRECTION('center_axis',(0.,0.,-1.));
#1379=DIRECTION('ref_axis',(-1.,0.,0.));
#1380=DIRECTION('center_axis',(0.,0.,-1.));
#1381=DIRECTION('ref_axis',(-1.,0.,0.));
#1382=DIRECTION('',(0.,0.,1.));
#1383=DIRECTION('center_axis',(0.,0.,-1.));
#1384=DIRECTION('ref_axis',(-1.,0.,0.));
#1385=DIRECTION('center_axis',(0.,-1.,-6.12323399573676E-17));
#1386=DIRECTION('ref_axis',(-1.,0.,0.));
#1387=DIRECTION('center_axis',(0.,0.,-1.));
#1388=DIRECTION('ref_axis',(-1.,0.,0.));
#1389=DIRECTION('center_axis',(0.,-1.,0.));
#1390=DIRECTION('ref_axis',(-1.,0.,0.));
#1391=DIRECTION('center_axis',(0.,-1.,-6.12323399573676E-17));
#1392=DIRECTION('ref_axis',(-1.,0.,0.));
#1393=DIRECTION('',(0.,1.,0.));
#1394=DIRECTION('center_axis',(0.,-1.,-6.12323399573676E-17));
#1395=DIRECTION('ref_axis',(-1.,0.,0.));
#1396=DIRECTION('center_axis',(0.,-1.,-6.12323399573676E-17));
#1397=DIRECTION('ref_axis',(-1.,0.,0.));
#1398=DIRECTION('center_axis',(-1.,0.,0.));
#1399=DIRECTION('ref_axis',(0.,0.,1.));
#1400=DIRECTION('center_axis',(1.,0.,0.));
#1401=DIRECTION('ref_axis',(0.,0.,1.));
#1402=DIRECTION('center_axis',(0.,0.,-1.));
#1403=DIRECTION('ref_axis',(-1.,0.,0.));
#1404=DIRECTION('center_axis',(0.,0.,-1.));
#1405=DIRECTION('ref_axis',(-1.,0.,0.));
#1406=DIRECTION('center_axis',(0.,0.,-1.));
#1407=DIRECTION('ref_axis',(-1.,0.,0.));
#1408=DIRECTION('',(0.,0.,1.));
#1409=DIRECTION('center_axis',(0.,0.,-1.));
#1410=DIRECTION('ref_axis',(-1.,0.,0.));
#1411=DIRECTION('center_axis',(0.,-1.,-6.12323399573676E-17));
#1412=DIRECTION('ref_axis',(-1.,0.,0.));
#1413=DIRECTION('center_axis',(0.,0.,-1.));
#1414=DIRECTION('ref_axis',(-1.,0.,0.));
#1415=DIRECTION('center_axis',(0.,-1.,0.));
#1416=DIRECTION('ref_axis',(-1.,0.,0.));
#1417=DIRECTION('center_axis',(0.,-1.,-6.12323399573676E-17));
#1418=DIRECTION('ref_axis',(-1.,0.,0.));
#1419=DIRECTION('',(0.,1.,0.));
#1420=DIRECTION('center_axis',(0.,-1.,-6.12323399573676E-17));
#1421=DIRECTION('ref_axis',(-1.,0.,0.));
#1422=DIRECTION('center_axis',(0.,-1.,-6.12323399573676E-17));
#1423=DIRECTION('ref_axis',(-1.,0.,0.));
#1424=DIRECTION('center_axis',(-1.,0.,0.));
#1425=DIRECTION('ref_axis',(0.,0.,1.));
#1426=DIRECTION('center_axis',(1.,0.,0.));
#1427=DIRECTION('ref_axis',(0.,0.,1.));
#1428=DIRECTION('center_axis',(0.,0.,-1.));
#1429=DIRECTION('ref_axis',(-1.,0.,0.));
#1430=DIRECTION('center_axis',(0.,0.,-1.));
#1431=DIRECTION('ref_axis',(-1.,0.,0.));
#1432=DIRECTION('center_axis',(0.,0.,-1.));
#1433=DIRECTION('ref_axis',(-1.,0.,0.));
#1434=DIRECTION('',(0.,0.,1.));
#1435=DIRECTION('center_axis',(0.,0.,-1.));
#1436=DIRECTION('ref_axis',(-1.,0.,0.));
#1437=DIRECTION('center_axis',(0.,-1.,-6.12323399573676E-17));
#1438=DIRECTION('ref_axis',(-1.,0.,0.));
#1439=DIRECTION('center_axis',(0.,0.,-1.));
#1440=DIRECTION('ref_axis',(-1.,0.,0.));
#1441=DIRECTION('center_axis',(0.,1.,0.));
#1442=DIRECTION('ref_axis',(1.,0.,0.));
#1443=DIRECTION('center_axis',(0.,-1.,0.));
#1444=DIRECTION('ref_axis',(1.,0.,0.));
#1445=DIRECTION('',(0.,-1.,0.));
#1446=DIRECTION('center_axis',(0.,-1.,0.));
#1447=DIRECTION('ref_axis',(1.,0.,0.));
#1448=DIRECTION('center_axis',(0.,1.,0.));
#1449=DIRECTION('ref_axis',(1.,0.,0.));
#1450=DIRECTION('center_axis',(0.,-1.,0.));
#1451=DIRECTION('ref_axis',(1.,0.,0.));
#1452=DIRECTION('',(0.,-1.,0.));
#1453=DIRECTION('center_axis',(0.,-1.,0.));
#1454=DIRECTION('ref_axis',(1.,0.,0.));
#1455=DIRECTION('center_axis',(0.,1.,0.));
#1456=DIRECTION('ref_axis',(1.,0.,0.));
#1457=DIRECTION('center_axis',(0.,-1.,0.));
#1458=DIRECTION('ref_axis',(1.,0.,0.));
#1459=DIRECTION('',(0.,-1.,0.));
#1460=DIRECTION('center_axis',(0.,-1.,0.));
#1461=DIRECTION('ref_axis',(1.,0.,0.));
#1462=DIRECTION('center_axis',(0.,1.,0.));
#1463=DIRECTION('ref_axis',(1.,0.,0.));
#1464=DIRECTION('center_axis',(0.,-1.,0.));
#1465=DIRECTION('ref_axis',(1.,0.,0.));
#1466=DIRECTION('',(0.,-1.,0.));
#1467=DIRECTION('center_axis',(0.,-1.,0.));
#1468=DIRECTION('ref_axis',(1.,0.,0.));
#1469=DIRECTION('center_axis',(0.,0.,-1.));
#1470=DIRECTION('ref_axis',(-1.,0.,0.));
#1471=DIRECTION('',(-1.,0.,0.));
#1472=DIRECTION('',(0.,1.,0.));
#1473=DIRECTION('',(-1.,0.,0.));
#1474=DIRECTION('',(0.,1.,0.));
#1475=DIRECTION('center_axis',(1.,0.,0.));
#1476=DIRECTION('ref_axis',(0.,0.,-1.));
#1477=DIRECTION('',(0.,0.,-1.));
#1478=DIRECTION('',(0.,0.,-1.));
#1479=DIRECTION('',(0.,1.,0.));
#1480=DIRECTION('center_axis',(0.,0.,1.));
#1481=DIRECTION('ref_axis',(1.,0.,0.));
#1482=DIRECTION('',(1.,0.,0.));
#1483=DIRECTION('',(1.,0.,0.));
#1484=DIRECTION('',(0.,1.,0.));
#1485=DIRECTION('center_axis',(-1.,0.,0.));
#1486=DIRECTION('ref_axis',(0.,0.,1.));
#1487=DIRECTION('',(0.,0.,1.));
#1488=DIRECTION('',(0.,0.,1.));
#1489=DIRECTION('center_axis',(0.,1.,0.));
#1490=DIRECTION('ref_axis',(1.,0.,0.));
#1491=DIRECTION('center_axis',(0.,1.,0.));
#1492=DIRECTION('ref_axis',(1.,0.,0.));
#1493=DIRECTION('',(-1.,-1.07852076885685E-30,-5.55111512312578E-17));
#1494=DIRECTION('',(-5.55111512312578E-17,1.79609788518196E-46,1.));
#1495=DIRECTION('',(1.,4.44089209850063E-15,-2.22044604925031E-16));
#1496=DIRECTION('',(-2.22044604925031E-16,2.95822839457883E-31,-1.));
#1497=CARTESIAN_POINT('',(0.,0.,0.));
#1498=CARTESIAN_POINT('',(0.,0.,0.));
#1499=CARTESIAN_POINT('Origin',(-2.22044604925031E-15,0.,1.));
#1500=CARTESIAN_POINT('',(-12.35,-2.,1.));
#1501=CARTESIAN_POINT('',(-12.35,2.,1.));
#1502=CARTESIAN_POINT('Origin',(-12.35,0.,1.));
#1503=CARTESIAN_POINT('',(-13.35,-2.,1.));
#1504=CARTESIAN_POINT('',(13.35,-2.,1.));
#1505=CARTESIAN_POINT('',(-13.35,2.,1.));
#1506=CARTESIAN_POINT('Origin',(-13.35,0.,1.));
#1507=CARTESIAN_POINT('',(-13.35,2.,1.));
#1508=CARTESIAN_POINT('Origin',(-2.22044604925031E-15,0.,2.));
#1509=CARTESIAN_POINT('',(-12.35,2.,2.));
#1510=CARTESIAN_POINT('',(-12.35,-2.,2.));
#1511=CARTESIAN_POINT('Origin',(-12.35,0.,2.));
#1512=CARTESIAN_POINT('',(-13.35,2.,2.));
#1513=CARTESIAN_POINT('',(-13.35,2.,2.));
#1514=CARTESIAN_POINT('',(-13.35,-2.,2.));
#1515=CARTESIAN_POINT('Origin',(-13.35,0.,2.));
#1516=CARTESIAN_POINT('',(13.35,-2.,2.));
#1517=CARTESIAN_POINT('Origin',(-2.22044604925031E-15,0.,2.));
#1518=CARTESIAN_POINT('',(12.35,-2.,2.));
#1519=CARTESIAN_POINT('',(12.35,2.,2.));
#1520=CARTESIAN_POINT('Origin',(12.35,0.,2.));
#1521=CARTESIAN_POINT('',(13.35,-2.,2.));
#1522=CARTESIAN_POINT('',(13.35,-2.,2.));
#1523=CARTESIAN_POINT('',(13.35,2.,2.));
#1524=CARTESIAN_POINT('Origin',(13.35,0.,2.));
#1525=CARTESIAN_POINT('',(-13.35,2.,2.));
#1526=CARTESIAN_POINT('Origin',(13.35,0.,1.));
#1527=CARTESIAN_POINT('',(13.35,2.,1.));
#1528=CARTESIAN_POINT('',(13.35,-2.,1.));
#1529=CARTESIAN_POINT('Origin',(13.35,0.,1.));
#1530=CARTESIAN_POINT('',(13.35,2.,1.));
#1531=CARTESIAN_POINT('',(13.35,-2.,1.));
#1532=CARTESIAN_POINT('Origin',(-13.35,0.,1.));
#1533=CARTESIAN_POINT('',(-13.35,-2.,1.));
#1534=CARTESIAN_POINT('',(-13.35,2.,1.));
#1535=CARTESIAN_POINT('Origin',(-2.22044604925031E-15,0.,1.));
#1536=CARTESIAN_POINT('',(12.35,2.,1.));
#1537=CARTESIAN_POINT('',(12.35,-2.,1.));
#1538=CARTESIAN_POINT('Origin',(12.35,0.,1.));
#1539=CARTESIAN_POINT('',(-13.35,2.,1.));
#1540=CARTESIAN_POINT('',(13.35,-2.,1.));
#1541=CARTESIAN_POINT('Origin',(12.35,2.,0.));
#1542=CARTESIAN_POINT('',(12.35,2.,0.));
#1543=CARTESIAN_POINT('',(12.35,2.,0.));
#1544=CARTESIAN_POINT('',(-12.35,2.,0.));
#1545=CARTESIAN_POINT('',(12.35,2.,0.));
#1546=CARTESIAN_POINT('',(-12.35,2.,0.));
#1547=CARTESIAN_POINT('',(-12.35,2.,4.));
#1548=CARTESIAN_POINT('',(-12.35,2.,0.));
#1549=CARTESIAN_POINT('',(12.35,2.,4.));
#1550=CARTESIAN_POINT('',(12.35,2.,4.));
#1551=CARTESIAN_POINT('',(12.35,2.,0.));
#1552=CARTESIAN_POINT('Origin',(12.35,0.,0.));
#1553=CARTESIAN_POINT('',(12.35,-2.,0.));
#1554=CARTESIAN_POINT('',(12.35,-2.,0.));
#1555=CARTESIAN_POINT('Origin',(12.35,0.,0.));
#1556=CARTESIAN_POINT('Origin',(-12.35,0.,0.));
#1557=CARTESIAN_POINT('',(-12.35,-2.,4.));
#1558=CARTESIAN_POINT('',(-12.35,-2.,0.));
#1559=CARTESIAN_POINT('Origin',(-12.35,0.,4.));
#1560=CARTESIAN_POINT('Origin',(12.35,0.,0.));
#1561=CARTESIAN_POINT('',(12.35,-2.,4.));
#1562=CARTESIAN_POINT('Origin',(12.35,0.,4.));
#1563=CARTESIAN_POINT('',(12.35,-2.,0.));
#1564=CARTESIAN_POINT('Origin',(-12.35,-2.,0.));
#1565=CARTESIAN_POINT('',(-12.35,-2.,4.));
#1566=CARTESIAN_POINT('',(-12.35,-2.,0.));
#1567=CARTESIAN_POINT('',(-12.35,-2.,0.));
#1568=CARTESIAN_POINT('',(-12.35,-2.,0.));
#1569=CARTESIAN_POINT('Origin',(-12.35,0.,0.));
#1570=CARTESIAN_POINT('Origin',(-12.35,0.,0.));
#1571=CARTESIAN_POINT('Origin',(0.,0.,4.));
#1572=CARTESIAN_POINT('Origin',(0.,0.,0.));
#1573=CARTESIAN_POINT('Origin',(8.89,-0.999999977648258,-1.64999996311963));
#1574=CARTESIAN_POINT('',(9.24,-3.64999997764826,-1.64999996311963));
#1575=CARTESIAN_POINT('Origin',(8.89,-3.64999997764826,-1.64999996311963));
#1576=CARTESIAN_POINT('',(9.24,-0.999999977648258,-1.64999996311963));
#1577=CARTESIAN_POINT('',(9.24,-0.999999977648258,-1.64999996311963));
#1578=CARTESIAN_POINT('',(8.89,-0.999999977648258,-1.29999996311963));
#1579=CARTESIAN_POINT('Origin',(8.89,-0.999999977648258,-1.64999996311963));
#1580=CARTESIAN_POINT('Origin',(8.89,-0.999999977648258,-1.64999996311963));
#1581=CARTESIAN_POINT('Origin',(8.89,-0.999999977648258,-0.649999985471368));
#1582=CARTESIAN_POINT('',(8.89,-0.35,-0.649999985471368));
#1583=CARTESIAN_POINT('Origin',(8.89,-0.999999977648258,-0.649999985471368));
#1584=CARTESIAN_POINT('',(9.24,-4.28626379701574E-17,-0.649999985471368));
#1585=CARTESIAN_POINT('Origin',(8.89,0.,-0.649999985471368));
#1586=CARTESIAN_POINT('Origin',(8.89,0.,-0.649999985471368));
#1587=CARTESIAN_POINT('Origin',(8.89,0.,4.99999991059303));
#1588=CARTESIAN_POINT('',(9.24,-4.28626379701574E-17,4.99999991059303));
#1589=CARTESIAN_POINT('',(9.24,-4.28626379701574E-17,4.99999991059303));
#1590=CARTESIAN_POINT('Origin',(8.89,0.,4.99999991059303));
#1591=CARTESIAN_POINT('Origin',(8.89,-3.64999997764826,-1.64999996311963));
#1592=CARTESIAN_POINT('Origin',(8.89,0.,4.99999991059303));
#1593=CARTESIAN_POINT('Origin',(6.35,-0.999999977648258,-1.64999996311963));
#1594=CARTESIAN_POINT('',(6.7,-3.64999997764826,-1.64999996311963));
#1595=CARTESIAN_POINT('Origin',(6.35,-3.64999997764826,-1.64999996311963));
#1596=CARTESIAN_POINT('',(6.7,-0.999999977648258,-1.64999996311963));
#1597=CARTESIAN_POINT('',(6.7,-0.999999977648258,-1.64999996311963));
#1598=CARTESIAN_POINT('',(6.35,-0.999999977648258,-1.29999996311963));
#1599=CARTESIAN_POINT('Origin',(6.35,-0.999999977648258,-1.64999996311963));
#1600=CARTESIAN_POINT('Origin',(6.35,-0.999999977648258,-1.64999996311963));
#1601=CARTESIAN_POINT('Origin',(6.35,-0.999999977648258,-0.649999985471368));
#1602=CARTESIAN_POINT('',(6.35,-0.35,-0.649999985471368));
#1603=CARTESIAN_POINT('Origin',(6.35,-0.999999977648258,-0.649999985471368));
#1604=CARTESIAN_POINT('',(6.7,-4.28626379701574E-17,-0.649999985471368));
#1605=CARTESIAN_POINT('Origin',(6.35,0.,-0.649999985471368));
#1606=CARTESIAN_POINT('Origin',(6.35,0.,-0.649999985471368));
#1607=CARTESIAN_POINT('Origin',(6.35,0.,4.99999991059303));
#1608=CARTESIAN_POINT('',(6.7,-4.28626379701574E-17,4.99999991059303));
#1609=CARTESIAN_POINT('',(6.7,-4.28626379701574E-17,4.99999991059303));
#1610=CARTESIAN_POINT('Origin',(6.35,0.,4.99999991059303));
#1611=CARTESIAN_POINT('Origin',(6.35,-3.64999997764826,-1.64999996311963));
#1612=CARTESIAN_POINT('Origin',(6.35,0.,4.99999991059303));
#1613=CARTESIAN_POINT('Origin',(3.81,-0.999999977648258,-1.64999996311963));
#1614=CARTESIAN_POINT('',(4.16,-3.64999997764826,-1.64999996311963));
#1615=CARTESIAN_POINT('Origin',(3.81,-3.64999997764826,-1.64999996311963));
#1616=CARTESIAN_POINT('',(4.16,-0.999999977648258,-1.64999996311963));
#1617=CARTESIAN_POINT('',(4.16,-0.999999977648258,-1.64999996311963));
#1618=CARTESIAN_POINT('',(3.81,-0.999999977648258,-1.29999996311963));
#1619=CARTESIAN_POINT('Origin',(3.81,-0.999999977648258,-1.64999996311963));
#1620=CARTESIAN_POINT('Origin',(3.81,-0.999999977648258,-1.64999996311963));
#1621=CARTESIAN_POINT('Origin',(3.81,-0.999999977648258,-0.649999985471368));
#1622=CARTESIAN_POINT('',(3.81,-0.35,-0.649999985471368));
#1623=CARTESIAN_POINT('Origin',(3.81,-0.999999977648258,-0.649999985471368));
#1624=CARTESIAN_POINT('',(4.16,-4.28626379701574E-17,-0.649999985471368));
#1625=CARTESIAN_POINT('Origin',(3.81,0.,-0.649999985471368));
#1626=CARTESIAN_POINT('Origin',(3.81,0.,-0.649999985471368));
#1627=CARTESIAN_POINT('Origin',(3.81,0.,4.99999991059303));
#1628=CARTESIAN_POINT('',(4.16,-4.28626379701574E-17,4.99999991059303));
#1629=CARTESIAN_POINT('',(4.16,-4.28626379701574E-17,4.99999991059303));
#1630=CARTESIAN_POINT('Origin',(3.81,0.,4.99999991059303));
#1631=CARTESIAN_POINT('Origin',(3.81,-3.64999997764826,-1.64999996311963));
#1632=CARTESIAN_POINT('Origin',(3.81,0.,4.99999991059303));
#1633=CARTESIAN_POINT('Origin',(1.27,-0.999999977648258,-1.64999996311963));
#1634=CARTESIAN_POINT('',(1.62,-3.64999997764826,-1.64999996311963));
#1635=CARTESIAN_POINT('Origin',(1.27,-3.64999997764826,-1.64999996311963));
#1636=CARTESIAN_POINT('',(1.62,-0.999999977648258,-1.64999996311963));
#1637=CARTESIAN_POINT('',(1.62,-0.999999977648258,-1.64999996311963));
#1638=CARTESIAN_POINT('',(1.27,-0.999999977648258,-1.29999996311963));
#1639=CARTESIAN_POINT('Origin',(1.27,-0.999999977648258,-1.64999996311963));
#1640=CARTESIAN_POINT('Origin',(1.27,-0.999999977648258,-1.64999996311963));
#1641=CARTESIAN_POINT('Origin',(1.27,-0.999999977648258,-0.649999985471368));
#1642=CARTESIAN_POINT('',(1.27,-0.35,-0.649999985471368));
#1643=CARTESIAN_POINT('Origin',(1.27,-0.999999977648258,-0.649999985471368));
#1644=CARTESIAN_POINT('',(1.62,-4.28626379701574E-17,-0.649999985471368));
#1645=CARTESIAN_POINT('Origin',(1.27,0.,-0.649999985471368));
#1646=CARTESIAN_POINT('Origin',(1.27,0.,-0.649999985471368));
#1647=CARTESIAN_POINT('Origin',(1.27,0.,4.99999991059303));
#1648=CARTESIAN_POINT('',(1.62,-4.28626379701574E-17,4.99999991059303));
#1649=CARTESIAN_POINT('',(1.62,-4.28626379701574E-17,4.99999991059303));
#1650=CARTESIAN_POINT('Origin',(1.27,0.,4.99999991059303));
#1651=CARTESIAN_POINT('Origin',(1.27,-3.64999997764826,-1.64999996311963));
#1652=CARTESIAN_POINT('Origin',(1.27,0.,4.99999991059303));
#1653=CARTESIAN_POINT('Origin',(-1.27,-0.999999977648258,-1.64999996311963));
#1654=CARTESIAN_POINT('',(-0.919999999999999,-3.64999997764826,-1.64999996311963));
#1655=CARTESIAN_POINT('Origin',(-1.27,-3.64999997764826,-1.64999996311963));
#1656=CARTESIAN_POINT('',(-0.919999999999999,-0.999999977648258,-1.64999996311963));
#1657=CARTESIAN_POINT('',(-0.919999999999999,-0.999999977648258,-1.64999996311963));
#1658=CARTESIAN_POINT('',(-1.27,-0.999999977648258,-1.29999996311963));
#1659=CARTESIAN_POINT('Origin',(-1.27,-0.999999977648258,-1.64999996311963));
#1660=CARTESIAN_POINT('Origin',(-1.27,-0.999999977648258,-1.64999996311963));
#1661=CARTESIAN_POINT('Origin',(-1.27,-0.999999977648258,-0.649999985471368));
#1662=CARTESIAN_POINT('',(-1.27,-0.35,-0.649999985471368));
#1663=CARTESIAN_POINT('Origin',(-1.27,-0.999999977648258,-0.649999985471368));
#1664=CARTESIAN_POINT('',(-0.919999999999999,-4.28626379701574E-17,-0.649999985471368));
#1665=CARTESIAN_POINT('Origin',(-1.27,0.,-0.649999985471368));
#1666=CARTESIAN_POINT('Origin',(-1.27,0.,-0.649999985471368));
#1667=CARTESIAN_POINT('Origin',(-1.27,0.,4.99999991059303));
#1668=CARTESIAN_POINT('',(-0.919999999999999,-4.28626379701574E-17,4.99999991059303));
#1669=CARTESIAN_POINT('',(-0.919999999999999,-4.28626379701574E-17,4.99999991059303));
#1670=CARTESIAN_POINT('Origin',(-1.27,0.,4.99999991059303));
#1671=CARTESIAN_POINT('Origin',(-1.27,-3.64999997764826,-1.64999996311963));
#1672=CARTESIAN_POINT('Origin',(-1.27,0.,4.99999991059303));
#1673=CARTESIAN_POINT('Origin',(-3.81,-0.999999977648258,-1.64999996311963));
#1674=CARTESIAN_POINT('',(-3.46,-3.64999997764826,-1.64999996311963));
#1675=CARTESIAN_POINT('Origin',(-3.81,-3.64999997764826,-1.64999996311963));
#1676=CARTESIAN_POINT('',(-3.46,-0.999999977648258,-1.64999996311963));
#1677=CARTESIAN_POINT('',(-3.46,-0.999999977648258,-1.64999996311963));
#1678=CARTESIAN_POINT('',(-3.81,-0.999999977648258,-1.29999996311963));
#1679=CARTESIAN_POINT('Origin',(-3.81,-0.999999977648258,-1.64999996311963));
#1680=CARTESIAN_POINT('Origin',(-3.81,-0.999999977648258,-1.64999996311963));
#1681=CARTESIAN_POINT('Origin',(-3.81,-0.999999977648258,-0.649999985471368));
#1682=CARTESIAN_POINT('',(-3.81,-0.35,-0.649999985471368));
#1683=CARTESIAN_POINT('Origin',(-3.81,-0.999999977648258,-0.649999985471368));
#1684=CARTESIAN_POINT('',(-3.46,-4.28626379701574E-17,-0.649999985471368));
#1685=CARTESIAN_POINT('Origin',(-3.81,0.,-0.649999985471368));
#1686=CARTESIAN_POINT('Origin',(-3.81,0.,-0.649999985471368));
#1687=CARTESIAN_POINT('Origin',(-3.81,0.,4.99999991059303));
#1688=CARTESIAN_POINT('',(-3.46,-4.28626379701574E-17,4.99999991059303));
#1689=CARTESIAN_POINT('',(-3.46,-4.28626379701574E-17,4.99999991059303));
#1690=CARTESIAN_POINT('Origin',(-3.81,0.,4.99999991059303));
#1691=CARTESIAN_POINT('Origin',(-3.81,-3.64999997764826,-1.64999996311963));
#1692=CARTESIAN_POINT('Origin',(-3.81,0.,4.99999991059303));
#1693=CARTESIAN_POINT('Origin',(-6.35,-0.999999977648258,-1.64999996311963));
#1694=CARTESIAN_POINT('',(-6.,-3.64999997764826,-1.64999996311963));
#1695=CARTESIAN_POINT('Origin',(-6.35,-3.64999997764826,-1.64999996311963));
#1696=CARTESIAN_POINT('',(-6.,-0.999999977648258,-1.64999996311963));
#1697=CARTESIAN_POINT('',(-6.,-0.999999977648258,-1.64999996311963));
#1698=CARTESIAN_POINT('',(-6.35,-0.999999977648258,-1.29999996311963));
#1699=CARTESIAN_POINT('Origin',(-6.35,-0.999999977648258,-1.64999996311963));
#1700=CARTESIAN_POINT('Origin',(-6.35,-0.999999977648258,-1.64999996311963));
#1701=CARTESIAN_POINT('Origin',(-6.35,-0.999999977648258,-0.649999985471368));
#1702=CARTESIAN_POINT('',(-6.35,-0.35,-0.649999985471368));
#1703=CARTESIAN_POINT('Origin',(-6.35,-0.999999977648258,-0.649999985471368));
#1704=CARTESIAN_POINT('',(-6.,-4.28626379701574E-17,-0.649999985471368));
#1705=CARTESIAN_POINT('Origin',(-6.35,0.,-0.649999985471368));
#1706=CARTESIAN_POINT('Origin',(-6.35,0.,-0.649999985471368));
#1707=CARTESIAN_POINT('Origin',(-6.35,0.,4.99999991059303));
#1708=CARTESIAN_POINT('',(-6.,-4.28626379701574E-17,4.99999991059303));
#1709=CARTESIAN_POINT('',(-6.,-4.28626379701574E-17,4.99999991059303));
#1710=CARTESIAN_POINT('Origin',(-6.35,0.,4.99999991059303));
#1711=CARTESIAN_POINT('Origin',(-6.35,-3.64999997764826,-1.64999996311963));
#1712=CARTESIAN_POINT('Origin',(-6.35,0.,4.99999991059303));
#1713=CARTESIAN_POINT('Origin',(-8.89,-0.999999977648258,-1.64999996311963));
#1714=CARTESIAN_POINT('',(-8.54,-3.64999997764826,-1.64999996311963));
#1715=CARTESIAN_POINT('Origin',(-8.89,-3.64999997764826,-1.64999996311963));
#1716=CARTESIAN_POINT('',(-8.54,-0.999999977648258,-1.64999996311963));
#1717=CARTESIAN_POINT('',(-8.54,-0.999999977648258,-1.64999996311963));
#1718=CARTESIAN_POINT('',(-8.89,-0.999999977648258,-1.29999996311963));
#1719=CARTESIAN_POINT('Origin',(-8.89,-0.999999977648258,-1.64999996311963));
#1720=CARTESIAN_POINT('Origin',(-8.89,-0.999999977648258,-1.64999996311963));
#1721=CARTESIAN_POINT('Origin',(-8.89,-0.999999977648258,-0.649999985471368));
#1722=CARTESIAN_POINT('',(-8.89,-0.35,-0.649999985471368));
#1723=CARTESIAN_POINT('Origin',(-8.89,-0.999999977648258,-0.649999985471368));
#1724=CARTESIAN_POINT('',(-8.54,-4.28626379701574E-17,-0.649999985471368));
#1725=CARTESIAN_POINT('Origin',(-8.89,0.,-0.649999985471368));
#1726=CARTESIAN_POINT('Origin',(-8.89,0.,-0.649999985471368));
#1727=CARTESIAN_POINT('Origin',(-8.89,0.,4.99999991059303));
#1728=CARTESIAN_POINT('',(-8.54,-4.28626379701574E-17,4.99999991059303));
#1729=CARTESIAN_POINT('',(-8.54,-4.28626379701574E-17,4.99999991059303));
#1730=CARTESIAN_POINT('Origin',(-8.89,0.,4.99999991059303));
#1731=CARTESIAN_POINT('Origin',(-8.89,-3.64999997764826,-1.64999996311963));
#1732=CARTESIAN_POINT('Origin',(-8.89,0.,4.99999991059303));
#1733=CARTESIAN_POINT('Origin',(55.0000008195639,0.,-5.00000007450581));
#1734=CARTESIAN_POINT('',(53.2000008195639,1.6,-5.00000007450581));
#1735=CARTESIAN_POINT('Origin',(55.0000008195639,1.6,-5.00000007450581));
#1736=CARTESIAN_POINT('',(53.2000008195639,0.,-5.00000007450581));
#1737=CARTESIAN_POINT('',(53.2000008195639,0.,-5.00000007450581));
#1738=CARTESIAN_POINT('Origin',(55.0000008195639,0.,-5.00000007450581));
#1739=CARTESIAN_POINT('Origin',(5.00000007450581,0.,-5.00000007450581));
#1740=CARTESIAN_POINT('',(3.20000007450581,1.6,-5.00000007450581));
#1741=CARTESIAN_POINT('Origin',(5.00000007450581,1.6,-5.00000007450581));
#1742=CARTESIAN_POINT('',(3.20000007450581,0.,-5.00000007450581));
#1743=CARTESIAN_POINT('',(3.20000007450581,0.,-5.00000007450581));
#1744=CARTESIAN_POINT('Origin',(5.00000007450581,0.,-5.00000007450581));
#1745=CARTESIAN_POINT('Origin',(5.00000007450581,0.,-55.0000008195639));
#1746=CARTESIAN_POINT('',(3.20000007450581,1.6,-55.0000008195639));
#1747=CARTESIAN_POINT('Origin',(5.00000007450581,1.6,-55.0000008195639));
#1748=CARTESIAN_POINT('',(3.20000007450581,0.,-55.0000008195639));
#1749=CARTESIAN_POINT('',(3.20000007450581,0.,-55.0000008195639));
#1750=CARTESIAN_POINT('Origin',(5.00000007450581,0.,-55.0000008195639));
#1751=CARTESIAN_POINT('Origin',(55.0000008195639,0.,-55.0000008195639));
#1752=CARTESIAN_POINT('',(53.2000008195639,1.6,-55.0000008195639));
#1753=CARTESIAN_POINT('Origin',(55.0000008195639,1.6,-55.0000008195639));
#1754=CARTESIAN_POINT('',(53.2000008195639,0.,-55.0000008195639));
#1755=CARTESIAN_POINT('',(53.2000008195639,0.,-55.0000008195639));
#1756=CARTESIAN_POINT('Origin',(55.0000008195639,0.,-55.0000008195639));
#1757=CARTESIAN_POINT('Origin',(60.,0.,-60.));
#1758=CARTESIAN_POINT('',(60.,0.,-60.));
#1759=CARTESIAN_POINT('',(0.,0.,-60.));
#1760=CARTESIAN_POINT('',(60.,0.,-60.));
#1761=CARTESIAN_POINT('',(0.,1.6,-60.));
#1762=CARTESIAN_POINT('',(0.,0.,-60.));
#1763=CARTESIAN_POINT('',(60.,1.6,-60.));
#1764=CARTESIAN_POINT('',(60.,1.6,-60.));
#1765=CARTESIAN_POINT('',(60.,0.,-60.));
#1766=CARTESIAN_POINT('Origin',(60.,0.,0.));
#1767=CARTESIAN_POINT('',(60.,0.,0.));
#1768=CARTESIAN_POINT('',(60.,0.,0.));
#1769=CARTESIAN_POINT('',(60.,1.6,0.));
#1770=CARTESIAN_POINT('',(60.,1.6,0.));
#1771=CARTESIAN_POINT('',(60.,0.,0.));
#1772=CARTESIAN_POINT('Origin',(0.,0.,0.));
#1773=CARTESIAN_POINT('',(0.,0.,0.));
#1774=CARTESIAN_POINT('',(0.,0.,0.));
#1775=CARTESIAN_POINT('',(0.,1.6,0.));
#1776=CARTESIAN_POINT('',(0.,1.6,0.));
#1777=CARTESIAN_POINT('',(0.,0.,0.));
#1778=CARTESIAN_POINT('Origin',(0.,0.,-60.));
#1779=CARTESIAN_POINT('',(0.,0.,-60.));
#1780=CARTESIAN_POINT('',(0.,1.6,-60.));
#1781=CARTESIAN_POINT('Origin',(30.,1.6,-30.));
#1782=CARTESIAN_POINT('Origin',(30.,0.,-30.));
#1783=CARTESIAN_POINT('',(1.00000000000001,3.6,-30.));
#1784=CARTESIAN_POINT('',(59.,3.6,-30.));
#1785=UNCERTAINTY_MEASURE_WITH_UNIT(LENGTH_MEASURE(0.01),#1791,
'DISTANCE_ACCURACY_VALUE',
'Maximum model space distance between geometric entities at asserted c
onnectivities');
#1786=UNCERTAINTY_MEASURE_WITH_UNIT(LENGTH_MEASURE(0.01),#1791,
'DISTANCE_ACCURACY_VALUE',
'Maximum model space distance between geometric entities at asserted c
onnectivities');
#1787=UNCERTAINTY_MEASURE_WITH_UNIT(LENGTH_MEASURE(0.01),#1791,
'DISTANCE_ACCURACY_VALUE',
'Maximum model space distance between geometric entities at asserted c
onnectivities');
#1788=(
GEOMETRIC_REPRESENTATION_CONTEXT(3)
GLOBAL_UNCERTAINTY_ASSIGNED_CONTEXT((#1785))
GLOBAL_UNIT_ASSIGNED_CONTEXT((#1791,#1793,#1794))
REPRESENTATION_CONTEXT('','3D')
);
#1789=(
GEOMETRIC_REPRESENTATION_CONTEXT(3)
GLOBAL_UNCERTAINTY_ASSIGNED_CONTEXT((#1786))
GLOBAL_UNIT_ASSIGNED_CONTEXT((#1791,#1793,#1794))
REPRESENTATION_CONTEXT('','3D')
);
#1790=(
GEOMETRIC_REPRESENTATION_CONTEXT(3)
GLOBAL_UNCERTAINTY_ASSIGNED_CONTEXT((#1787))
GLOBAL_UNIT_ASSIGNED_CONTEXT((#1791,#1793,#1794))
REPRESENTATION_CONTEXT('','3D')
);
#1791=(
LENGTH_UNIT()
NAMED_UNIT(*)
SI_UNIT(.MILLI.,.METRE.)
);
#1792=(
LENGTH_UNIT()
NAMED_UNIT(*)
SI_UNIT($,.METRE.)
);
#1793=(
NAMED_UNIT(*)
PLANE_ANGLE_UNIT()
SI_UNIT($,.RADIAN.)
);
#1794=(
NAMED_UNIT(*)
SI_UNIT($,.STERADIAN.)
SOLID_ANGLE_UNIT()
);
#1795=SHAPE_DEFINITION_REPRESENTATION(#1797,#1801);
#1796=SHAPE_DEFINITION_REPRESENTATION(#1798,#1802);
#1797=PRODUCT_DEFINITION_SHAPE('',$,#1804);
#1798=PRODUCT_DEFINITION_SHAPE('',$,#1805);
#1799=PRODUCT_DEFINITION_SHAPE($,$,#17);
#1800=PRODUCT_DEFINITION_SHAPE($,$,#18);
#1801=SHAPE_REPRESENTATION('',(#1009,#1151,#1152),#1788);
#1802=SHAPE_REPRESENTATION('',(#1010),#1789);
#1803=PRODUCT_DEFINITION_CONTEXT('part definition',#1811,'design');
#1804=PRODUCT_DEFINITION('2025-11-13-16-57-43-513','PCB',#1806,#1803);
#1805=PRODUCT_DEFINITION('2025-11-13-16-57-44-902','Pogo pin connector',
#1807,#1803);
#1806=PRODUCT_DEFINITION_FORMATION('',$,#1813);
#1807=PRODUCT_DEFINITION_FORMATION('',$,#1814);
#1808=PRODUCT_RELATED_PRODUCT_CATEGORY('PCB','PCB',(#1813));
#1809=PRODUCT_RELATED_PRODUCT_CATEGORY('Pogo pin connector',
'Pogo pin connector',(#1814));
#1810=APPLICATION_PROTOCOL_DEFINITION('international standard',
'automotive_design',2009,#1811);
#1811=APPLICATION_CONTEXT(
'Core Data for Automotive Mechanical Design Process');
#1812=PRODUCT_CONTEXT('part definition',#1811,'mechanical');
#1813=PRODUCT('2025-11-13-16-57-43-513','PCB',$,(#1812));
#1814=PRODUCT('2025-11-13-16-57-44-902','Pogo pin connector',$,(#1812));
#1815=PRESENTATION_STYLE_ASSIGNMENT((#1816));
#1816=SURFACE_STYLE_USAGE(.BOTH.,#1817);
#1817=SURFACE_SIDE_STYLE('',(#1818));
#1818=SURFACE_STYLE_FILL_AREA(#1819);
#1819=FILL_AREA_STYLE('Steel - Satin',(#1820));
#1820=FILL_AREA_STYLE_COLOUR('Steel - Satin',#1821);
#1821=COLOUR_RGB('Steel - Satin',0.627450980392157,0.627450980392157,0.627450980392157);
ENDSEC;
END-ISO-10303-21;
