ISO-10303-21;
HEADER;
/* Generated by software containing ST-Developer
 * from STEP Tools, Inc. (www.steptools.com) 
 */

FILE_DESCRIPTION(
/* description */ (''),
/* implementation_level */ '2;1');

FILE_NAME(
/* name */ 'Pogo pin connector.step',
/* time_stamp */ '2026-04-27T15:54:39+01:00',
/* author */ (''),
/* organization */ (''),
/* preprocessor_version */ 'ST-DEVELOPER v20.1',
/* originating_system */ 'Autodesk Translation Framework v14.24.0.0',
/* authorisation */ '');

FILE_SCHEMA (('AUTOMOTIVE_DESIGN { 1 0 10303 214 3 1 1 }'));
ENDSEC;

DATA;
#10=MECHANICAL_DESIGN_GEOMETRIC_PRESENTATION_REPRESENTATION('',(#21,#22,
#23,#24,#25,#26,#27,#28,#29),#1459);
#11=SHAPE_REPRESENTATION_RELATIONSHIP('SRR','None',#1466,#12);
#12=ADVANCED_BREP_SHAPE_REPRESENTATION('',(#30,#31,#32,#33,#34,#35,#36,
#37,#38),#1458);
#13=TOROIDAL_SURFACE('',#843,0.999999977648258,0.35);
#14=TOROIDAL_SURFACE('',#855,0.999999977648258,0.35);
#15=TOROIDAL_SURFACE('',#867,0.999999977648258,0.35);
#16=TOROIDAL_SURFACE('',#879,0.999999977648258,0.35);
#17=TOROIDAL_SURFACE('',#891,0.999999977648258,0.35);
#18=TOROIDAL_SURFACE('',#903,0.999999977648258,0.35);
#19=TOROIDAL_SURFACE('',#915,0.999999977648258,0.35);
#20=TOROIDAL_SURFACE('',#927,0.999999977648258,0.35);
#21=STYLED_ITEM('',(#1475),#30);
#22=STYLED_ITEM('',(#1475),#31);
#23=STYLED_ITEM('',(#1475),#32);
#24=STYLED_ITEM('',(#1475),#33);
#25=STYLED_ITEM('',(#1475),#34);
#26=STYLED_ITEM('',(#1475),#35);
#27=STYLED_ITEM('',(#1475),#36);
#28=STYLED_ITEM('',(#1475),#37);
#29=STYLED_ITEM('',(#1475),#38);
#30=MANIFOLD_SOLID_BREP('Body1',#791);
#31=MANIFOLD_SOLID_BREP('Body2',#792);
#32=MANIFOLD_SOLID_BREP('Body3',#793);
#33=MANIFOLD_SOLID_BREP('Body4',#794);
#34=MANIFOLD_SOLID_BREP('Body5',#795);
#35=MANIFOLD_SOLID_BREP('Body6',#796);
#36=MANIFOLD_SOLID_BREP('Body7',#797);
#37=MANIFOLD_SOLID_BREP('Body8',#798);
#38=MANIFOLD_SOLID_BREP('Body9',#799);
#39=CYLINDRICAL_SURFACE('',#822,2.);
#40=CYLINDRICAL_SURFACE('',#824,2.);
#41=CYLINDRICAL_SURFACE('',#828,2.);
#42=CYLINDRICAL_SURFACE('',#830,2.);
#43=CYLINDRICAL_SURFACE('',#832,2.);
#44=CYLINDRICAL_SURFACE('',#835,2.);
#45=CYLINDRICAL_SURFACE('',#839,0.35);
#46=CYLINDRICAL_SURFACE('',#847,0.35);
#47=CYLINDRICAL_SURFACE('',#851,0.35);
#48=CYLINDRICAL_SURFACE('',#859,0.35);
#49=CYLINDRICAL_SURFACE('',#863,0.35);
#50=CYLINDRICAL_SURFACE('',#871,0.35);
#51=CYLINDRICAL_SURFACE('',#875,0.35);
#52=CYLINDRICAL_SURFACE('',#883,0.35);
#53=CYLINDRICAL_SURFACE('',#887,0.35);
#54=CYLINDRICAL_SURFACE('',#895,0.35);
#55=CYLINDRICAL_SURFACE('',#899,0.35);
#56=CYLINDRICAL_SURFACE('',#907,0.35);
#57=CYLINDRICAL_SURFACE('',#911,0.35);
#58=CYLINDRICAL_SURFACE('',#919,0.35);
#59=CYLINDRICAL_SURFACE('',#923,0.35);
#60=CYLINDRICAL_SURFACE('',#931,0.35);
#61=FACE_OUTER_BOUND('',#115,.T.);
#62=FACE_OUTER_BOUND('',#116,.T.);
#63=FACE_OUTER_BOUND('',#117,.T.);
#64=FACE_OUTER_BOUND('',#118,.T.);
#65=FACE_OUTER_BOUND('',#119,.T.);
#66=FACE_OUTER_BOUND('',#120,.T.);
#67=FACE_OUTER_BOUND('',#121,.T.);
#68=FACE_OUTER_BOUND('',#122,.T.);
#69=FACE_OUTER_BOUND('',#123,.T.);
#70=FACE_OUTER_BOUND('',#124,.T.);
#71=FACE_OUTER_BOUND('',#125,.T.);
#72=FACE_OUTER_BOUND('',#126,.T.);
#73=FACE_OUTER_BOUND('',#127,.T.);
#74=FACE_OUTER_BOUND('',#128,.T.);
#75=FACE_OUTER_BOUND('',#129,.T.);
#76=FACE_OUTER_BOUND('',#130,.T.);
#77=FACE_OUTER_BOUND('',#131,.T.);
#78=FACE_OUTER_BOUND('',#132,.T.);
#79=FACE_OUTER_BOUND('',#133,.T.);
#80=FACE_OUTER_BOUND('',#134,.T.);
#81=FACE_OUTER_BOUND('',#135,.T.);
#82=FACE_OUTER_BOUND('',#136,.T.);
#83=FACE_OUTER_BOUND('',#137,.T.);
#84=FACE_OUTER_BOUND('',#138,.T.);
#85=FACE_OUTER_BOUND('',#139,.T.);
#86=FACE_OUTER_BOUND('',#140,.T.);
#87=FACE_OUTER_BOUND('',#141,.T.);
#88=FACE_OUTER_BOUND('',#142,.T.);
#89=FACE_OUTER_BOUND('',#143,.T.);
#90=FACE_OUTER_BOUND('',#144,.T.);
#91=FACE_OUTER_BOUND('',#145,.T.);
#92=FACE_OUTER_BOUND('',#146,.T.);
#93=FACE_OUTER_BOUND('',#147,.T.);
#94=FACE_OUTER_BOUND('',#148,.T.);
#95=FACE_OUTER_BOUND('',#149,.T.);
#96=FACE_OUTER_BOUND('',#150,.T.);
#97=FACE_OUTER_BOUND('',#151,.T.);
#98=FACE_OUTER_BOUND('',#152,.T.);
#99=FACE_OUTER_BOUND('',#153,.T.);
#100=FACE_OUTER_BOUND('',#154,.T.);
#101=FACE_OUTER_BOUND('',#155,.T.);
#102=FACE_OUTER_BOUND('',#156,.T.);
#103=FACE_OUTER_BOUND('',#157,.T.);
#104=FACE_OUTER_BOUND('',#158,.T.);
#105=FACE_OUTER_BOUND('',#159,.T.);
#106=FACE_OUTER_BOUND('',#160,.T.);
#107=FACE_OUTER_BOUND('',#161,.T.);
#108=FACE_OUTER_BOUND('',#162,.T.);
#109=FACE_OUTER_BOUND('',#163,.T.);
#110=FACE_OUTER_BOUND('',#164,.T.);
#111=FACE_OUTER_BOUND('',#165,.T.);
#112=FACE_OUTER_BOUND('',#166,.T.);
#113=FACE_OUTER_BOUND('',#167,.T.);
#114=FACE_OUTER_BOUND('',#168,.T.);
#115=EDGE_LOOP('',(#497,#498,#499,#500));
#116=EDGE_LOOP('',(#501,#502,#503,#504));
#117=EDGE_LOOP('',(#505,#506,#507,#508));
#118=EDGE_LOOP('',(#509,#510,#511,#512));
#119=EDGE_LOOP('',(#513,#514,#515,#516));
#120=EDGE_LOOP('',(#517,#518,#519,#520));
#121=EDGE_LOOP('',(#521,#522,#523,#524,#525,#526,#527,#528,#529,#530,#531,
#532));
#122=EDGE_LOOP('',(#533,#534,#535,#536));
#123=EDGE_LOOP('',(#537,#538,#539,#540));
#124=EDGE_LOOP('',(#541,#542,#543,#544));
#125=EDGE_LOOP('',(#545,#546,#547,#548,#549,#550,#551,#552,#553,#554,#555,
#556));
#126=EDGE_LOOP('',(#557,#558,#559,#560));
#127=EDGE_LOOP('',(#561,#562,#563,#564));
#128=EDGE_LOOP('',(#565,#566,#567,#568));
#129=EDGE_LOOP('',(#569,#570,#571,#572,#573));
#130=EDGE_LOOP('',(#574,#575,#576,#577,#578,#579));
#131=EDGE_LOOP('',(#580,#581,#582,#583,#584));
#132=EDGE_LOOP('',(#585));
#133=EDGE_LOOP('',(#586));
#134=EDGE_LOOP('',(#587,#588,#589,#590,#591));
#135=EDGE_LOOP('',(#592,#593,#594,#595,#596,#597));
#136=EDGE_LOOP('',(#598,#599,#600,#601,#602));
#137=EDGE_LOOP('',(#603));
#138=EDGE_LOOP('',(#604));
#139=EDGE_LOOP('',(#605,#606,#607,#608,#609));
#140=EDGE_LOOP('',(#610,#611,#612,#613,#614,#615));
#141=EDGE_LOOP('',(#616,#617,#618,#619,#620));
#142=EDGE_LOOP('',(#621));
#143=EDGE_LOOP('',(#622));
#144=EDGE_LOOP('',(#623,#624,#625,#626,#627));
#145=EDGE_LOOP('',(#628,#629,#630,#631,#632,#633));
#146=EDGE_LOOP('',(#634,#635,#636,#637,#638));
#147=EDGE_LOOP('',(#639));
#148=EDGE_LOOP('',(#640));
#149=EDGE_LOOP('',(#641,#642,#643,#644,#645));
#150=EDGE_LOOP('',(#646,#647,#648,#649,#650,#651));
#151=EDGE_LOOP('',(#652,#653,#654,#655,#656));
#152=EDGE_LOOP('',(#657));
#153=EDGE_LOOP('',(#658));
#154=EDGE_LOOP('',(#659,#660,#661,#662,#663));
#155=EDGE_LOOP('',(#664,#665,#666,#667,#668,#669));
#156=EDGE_LOOP('',(#670,#671,#672,#673,#674));
#157=EDGE_LOOP('',(#675));
#158=EDGE_LOOP('',(#676));
#159=EDGE_LOOP('',(#677,#678,#679,#680,#681));
#160=EDGE_LOOP('',(#682,#683,#684,#685,#686,#687));
#161=EDGE_LOOP('',(#688,#689,#690,#691,#692));
#162=EDGE_LOOP('',(#693));
#163=EDGE_LOOP('',(#694));
#164=EDGE_LOOP('',(#695,#696,#697,#698,#699));
#165=EDGE_LOOP('',(#700,#701,#702,#703,#704,#705));
#166=EDGE_LOOP('',(#706,#707,#708,#709,#710));
#167=EDGE_LOOP('',(#711));
#168=EDGE_LOOP('',(#712));
#169=LINE('',#1227,#209);
#170=LINE('',#1230,#210);
#171=LINE('',#1236,#211);
#172=LINE('',#1239,#212);
#173=LINE('',#1245,#213);
#174=LINE('',#1248,#214);
#175=LINE('',#1253,#215);
#176=LINE('',#1254,#216);
#177=LINE('',#1256,#217);
#178=LINE('',#1257,#218);
#179=LINE('',#1262,#219);
#180=LINE('',#1263,#220);
#181=LINE('',#1266,#221);
#182=LINE('',#1268,#222);
#183=LINE('',#1269,#223);
#184=LINE('',#1271,#224);
#185=LINE('',#1273,#225);
#186=LINE('',#1274,#226);
#187=LINE('',#1277,#227);
#188=LINE('',#1281,#228);
#189=LINE('',#1286,#229);
#190=LINE('',#1288,#230);
#191=LINE('',#1290,#231);
#192=LINE('',#1291,#232);
#193=LINE('',#1300,#233);
#194=LINE('',#1312,#234);
#195=LINE('',#1320,#235);
#196=LINE('',#1332,#236);
#197=LINE('',#1340,#237);
#198=LINE('',#1352,#238);
#199=LINE('',#1360,#239);
#200=LINE('',#1372,#240);
#201=LINE('',#1380,#241);
#202=LINE('',#1392,#242);
#203=LINE('',#1400,#243);
#204=LINE('',#1412,#244);
#205=LINE('',#1420,#245);
#206=LINE('',#1432,#246);
#207=LINE('',#1440,#247);
#208=LINE('',#1452,#248);
#209=VECTOR('',#941,10.);
#210=VECTOR('',#944,10.);
#211=VECTOR('',#949,10.);
#212=VECTOR('',#952,10.);
#213=VECTOR('',#957,10.);
#214=VECTOR('',#960,10.);
#215=VECTOR('',#965,10.);
#216=VECTOR('',#966,10.);
#217=VECTOR('',#969,10.);
#218=VECTOR('',#970,10.);
#219=VECTOR('',#975,10.);
#220=VECTOR('',#976,10.);
#221=VECTOR('',#979,10.);
#222=VECTOR('',#980,10.);
#223=VECTOR('',#981,10.);
#224=VECTOR('',#982,10.);
#225=VECTOR('',#983,10.);
#226=VECTOR('',#984,10.);
#227=VECTOR('',#987,10.);
#228=VECTOR('',#992,10.);
#229=VECTOR('',#999,10.);
#230=VECTOR('',#1002,10.);
#231=VECTOR('',#1003,10.);
#232=VECTOR('',#1004,10.);
#233=VECTOR('',#1017,0.35);
#234=VECTOR('',#1032,0.35);
#235=VECTOR('',#1043,0.35);
#236=VECTOR('',#1058,0.35);
#237=VECTOR('',#1069,0.35);
#238=VECTOR('',#1084,0.35);
#239=VECTOR('',#1095,0.35);
#240=VECTOR('',#1110,0.35);
#241=VECTOR('',#1121,0.35);
#242=VECTOR('',#1136,0.35);
#243=VECTOR('',#1147,0.35);
#244=VECTOR('',#1162,0.35);
#245=VECTOR('',#1173,0.35);
#246=VECTOR('',#1188,0.35);
#247=VECTOR('',#1199,0.35);
#248=VECTOR('',#1214,0.35);
#249=CIRCLE('',#814,2.);
#250=CIRCLE('',#815,2.);
#251=CIRCLE('',#817,2.);
#252=CIRCLE('',#818,2.);
#253=CIRCLE('',#820,2.);
#254=CIRCLE('',#821,2.);
#255=CIRCLE('',#823,2.);
#256=CIRCLE('',#826,2.);
#257=CIRCLE('',#829,2.);
#258=CIRCLE('',#831,2.);
#259=CIRCLE('',#833,2.);
#260=CIRCLE('',#836,2.);
#261=CIRCLE('',#840,0.35);
#262=CIRCLE('',#841,0.35);
#263=CIRCLE('',#842,0.35);
#264=CIRCLE('',#844,0.649999977648258);
#265=CIRCLE('',#845,0.35);
#266=CIRCLE('',#846,0.35);
#267=CIRCLE('',#848,0.35);
#268=CIRCLE('',#852,0.35);
#269=CIRCLE('',#853,0.35);
#270=CIRCLE('',#854,0.35);
#271=CIRCLE('',#856,0.649999977648258);
#272=CIRCLE('',#857,0.35);
#273=CIRCLE('',#858,0.35);
#274=CIRCLE('',#860,0.35);
#275=CIRCLE('',#864,0.35);
#276=CIRCLE('',#865,0.35);
#277=CIRCLE('',#866,0.35);
#278=CIRCLE('',#868,0.649999977648258);
#279=CIRCLE('',#869,0.35);
#280=CIRCLE('',#870,0.35);
#281=CIRCLE('',#872,0.35);
#282=CIRCLE('',#876,0.35);
#283=CIRCLE('',#877,0.35);
#284=CIRCLE('',#878,0.35);
#285=CIRCLE('',#880,0.649999977648258);
#286=CIRCLE('',#881,0.35);
#287=CIRCLE('',#882,0.35);
#288=CIRCLE('',#884,0.35);
#289=CIRCLE('',#888,0.35);
#290=CIRCLE('',#889,0.35);
#291=CIRCLE('',#890,0.35);
#292=CIRCLE('',#892,0.649999977648258);
#293=CIRCLE('',#893,0.35);
#294=CIRCLE('',#894,0.35);
#295=CIRCLE('',#896,0.35);
#296=CIRCLE('',#900,0.35);
#297=CIRCLE('',#901,0.35);
#298=CIRCLE('',#902,0.35);
#299=CIRCLE('',#904,0.649999977648258);
#300=CIRCLE('',#905,0.35);
#301=CIRCLE('',#906,0.35);
#302=CIRCLE('',#908,0.35);
#303=CIRCLE('',#912,0.35);
#304=CIRCLE('',#913,0.35);
#305=CIRCLE('',#914,0.35);
#306=CIRCLE('',#916,0.649999977648258);
#307=CIRCLE('',#917,0.35);
#308=CIRCLE('',#918,0.35);
#309=CIRCLE('',#920,0.35);
#310=CIRCLE('',#924,0.35);
#311=CIRCLE('',#925,0.35);
#312=CIRCLE('',#926,0.35);
#313=CIRCLE('',#928,0.649999977648258);
#314=CIRCLE('',#929,0.35);
#315=CIRCLE('',#930,0.35);
#316=CIRCLE('',#932,0.35);
#317=VERTEX_POINT('',#1223);
#318=VERTEX_POINT('',#1224);
#319=VERTEX_POINT('',#1226);
#320=VERTEX_POINT('',#1228);
#321=VERTEX_POINT('',#1232);
#322=VERTEX_POINT('',#1233);
#323=VERTEX_POINT('',#1235);
#324=VERTEX_POINT('',#1237);
#325=VERTEX_POINT('',#1241);
#326=VERTEX_POINT('',#1242);
#327=VERTEX_POINT('',#1244);
#328=VERTEX_POINT('',#1246);
#329=VERTEX_POINT('',#1250);
#330=VERTEX_POINT('',#1251);
#331=VERTEX_POINT('',#1259);
#332=VERTEX_POINT('',#1260);
#333=VERTEX_POINT('',#1265);
#334=VERTEX_POINT('',#1267);
#335=VERTEX_POINT('',#1270);
#336=VERTEX_POINT('',#1272);
#337=VERTEX_POINT('',#1276);
#338=VERTEX_POINT('',#1280);
#339=VERTEX_POINT('',#1284);
#340=VERTEX_POINT('',#1289);
#341=VERTEX_POINT('',#1297);
#342=VERTEX_POINT('',#1299);
#343=VERTEX_POINT('',#1301);
#344=VERTEX_POINT('',#1305);
#345=VERTEX_POINT('',#1307);
#346=VERTEX_POINT('',#1311);
#347=VERTEX_POINT('',#1317);
#348=VERTEX_POINT('',#1319);
#349=VERTEX_POINT('',#1321);
#350=VERTEX_POINT('',#1325);
#351=VERTEX_POINT('',#1327);
#352=VERTEX_POINT('',#1331);
#353=VERTEX_POINT('',#1337);
#354=VERTEX_POINT('',#1339);
#355=VERTEX_POINT('',#1341);
#356=VERTEX_POINT('',#1345);
#357=VERTEX_POINT('',#1347);
#358=VERTEX_POINT('',#1351);
#359=VERTEX_POINT('',#1357);
#360=VERTEX_POINT('',#1359);
#361=VERTEX_POINT('',#1361);
#362=VERTEX_POINT('',#1365);
#363=VERTEX_POINT('',#1367);
#364=VERTEX_POINT('',#1371);
#365=VERTEX_POINT('',#1377);
#366=VERTEX_POINT('',#1379);
#367=VERTEX_POINT('',#1381);
#368=VERTEX_POINT('',#1385);
#369=VERTEX_POINT('',#1387);
#370=VERTEX_POINT('',#1391);
#371=VERTEX_POINT('',#1397);
#372=VERTEX_POINT('',#1399);
#373=VERTEX_POINT('',#1401);
#374=VERTEX_POINT('',#1405);
#375=VERTEX_POINT('',#1407);
#376=VERTEX_POINT('',#1411);
#377=VERTEX_POINT('',#1417);
#378=VERTEX_POINT('',#1419);
#379=VERTEX_POINT('',#1421);
#380=VERTEX_POINT('',#1425);
#381=VERTEX_POINT('',#1427);
#382=VERTEX_POINT('',#1431);
#383=VERTEX_POINT('',#1437);
#384=VERTEX_POINT('',#1439);
#385=VERTEX_POINT('',#1441);
#386=VERTEX_POINT('',#1445);
#387=VERTEX_POINT('',#1447);
#388=VERTEX_POINT('',#1451);
#389=EDGE_CURVE('',#317,#318,#249,.T.);
#390=EDGE_CURVE('',#317,#319,#169,.T.);
#391=EDGE_CURVE('',#319,#320,#250,.T.);
#392=EDGE_CURVE('',#320,#318,#170,.T.);
#393=EDGE_CURVE('',#321,#322,#251,.T.);
#394=EDGE_CURVE('',#321,#323,#171,.T.);
#395=EDGE_CURVE('',#323,#324,#252,.T.);
#396=EDGE_CURVE('',#324,#322,#172,.T.);
#397=EDGE_CURVE('',#325,#326,#253,.T.);
#398=EDGE_CURVE('',#325,#327,#173,.T.);
#399=EDGE_CURVE('',#327,#328,#254,.T.);
#400=EDGE_CURVE('',#328,#326,#174,.T.);
#401=EDGE_CURVE('',#329,#330,#255,.T.);
#402=EDGE_CURVE('',#329,#328,#175,.T.);
#403=EDGE_CURVE('',#330,#327,#176,.T.);
#404=EDGE_CURVE('',#319,#324,#177,.T.);
#405=EDGE_CURVE('',#320,#323,#178,.T.);
#406=EDGE_CURVE('',#331,#332,#256,.T.);
#407=EDGE_CURVE('',#331,#329,#179,.T.);
#408=EDGE_CURVE('',#330,#332,#180,.T.);
#409=EDGE_CURVE('',#333,#331,#181,.T.);
#410=EDGE_CURVE('',#333,#334,#182,.T.);
#411=EDGE_CURVE('',#334,#318,#183,.T.);
#412=EDGE_CURVE('',#321,#335,#184,.T.);
#413=EDGE_CURVE('',#336,#335,#185,.T.);
#414=EDGE_CURVE('',#326,#336,#186,.T.);
#415=EDGE_CURVE('',#337,#332,#187,.T.);
#416=EDGE_CURVE('',#337,#333,#257,.T.);
#417=EDGE_CURVE('',#322,#338,#188,.T.);
#418=EDGE_CURVE('',#335,#338,#258,.T.);
#419=EDGE_CURVE('',#339,#336,#259,.T.);
#420=EDGE_CURVE('',#325,#339,#189,.T.);
#421=EDGE_CURVE('',#338,#339,#190,.T.);
#422=EDGE_CURVE('',#340,#317,#191,.T.);
#423=EDGE_CURVE('',#340,#337,#192,.T.);
#424=EDGE_CURVE('',#334,#340,#260,.T.);
#425=EDGE_CURVE('',#341,#341,#261,.T.);
#426=EDGE_CURVE('',#341,#342,#193,.T.);
#427=EDGE_CURVE('',#342,#343,#262,.T.);
#428=EDGE_CURVE('',#343,#342,#263,.T.);
#429=EDGE_CURVE('',#343,#344,#264,.T.);
#430=EDGE_CURVE('',#344,#345,#265,.T.);
#431=EDGE_CURVE('',#345,#344,#266,.T.);
#432=EDGE_CURVE('',#345,#346,#194,.T.);
#433=EDGE_CURVE('',#346,#346,#267,.T.);
#434=EDGE_CURVE('',#347,#347,#268,.T.);
#435=EDGE_CURVE('',#347,#348,#195,.T.);
#436=EDGE_CURVE('',#348,#349,#269,.T.);
#437=EDGE_CURVE('',#349,#348,#270,.T.);
#438=EDGE_CURVE('',#349,#350,#271,.T.);
#439=EDGE_CURVE('',#350,#351,#272,.T.);
#440=EDGE_CURVE('',#351,#350,#273,.T.);
#441=EDGE_CURVE('',#351,#352,#196,.T.);
#442=EDGE_CURVE('',#352,#352,#274,.T.);
#443=EDGE_CURVE('',#353,#353,#275,.T.);
#444=EDGE_CURVE('',#353,#354,#197,.T.);
#445=EDGE_CURVE('',#354,#355,#276,.T.);
#446=EDGE_CURVE('',#355,#354,#277,.T.);
#447=EDGE_CURVE('',#355,#356,#278,.T.);
#448=EDGE_CURVE('',#356,#357,#279,.T.);
#449=EDGE_CURVE('',#357,#356,#280,.T.);
#450=EDGE_CURVE('',#357,#358,#198,.T.);
#451=EDGE_CURVE('',#358,#358,#281,.T.);
#452=EDGE_CURVE('',#359,#359,#282,.T.);
#453=EDGE_CURVE('',#359,#360,#199,.T.);
#454=EDGE_CURVE('',#360,#361,#283,.T.);
#455=EDGE_CURVE('',#361,#360,#284,.T.);
#456=EDGE_CURVE('',#361,#362,#285,.T.);
#457=EDGE_CURVE('',#362,#363,#286,.T.);
#458=EDGE_CURVE('',#363,#362,#287,.T.);
#459=EDGE_CURVE('',#363,#364,#200,.T.);
#460=EDGE_CURVE('',#364,#364,#288,.T.);
#461=EDGE_CURVE('',#365,#365,#289,.T.);
#462=EDGE_CURVE('',#365,#366,#201,.T.);
#463=EDGE_CURVE('',#366,#367,#290,.T.);
#464=EDGE_CURVE('',#367,#366,#291,.T.);
#465=EDGE_CURVE('',#367,#368,#292,.T.);
#466=EDGE_CURVE('',#368,#369,#293,.T.);
#467=EDGE_CURVE('',#369,#368,#294,.T.);
#468=EDGE_CURVE('',#369,#370,#202,.T.);
#469=EDGE_CURVE('',#370,#370,#295,.T.);
#470=EDGE_CURVE('',#371,#371,#296,.T.);
#471=EDGE_CURVE('',#371,#372,#203,.T.);
#472=EDGE_CURVE('',#372,#373,#297,.T.);
#473=EDGE_CURVE('',#373,#372,#298,.T.);
#474=EDGE_CURVE('',#373,#374,#299,.T.);
#475=EDGE_CURVE('',#374,#375,#300,.T.);
#476=EDGE_CURVE('',#375,#374,#301,.T.);
#477=EDGE_CURVE('',#375,#376,#204,.T.);
#478=EDGE_CURVE('',#376,#376,#302,.T.);
#479=EDGE_CURVE('',#377,#377,#303,.T.);
#480=EDGE_CURVE('',#377,#378,#205,.T.);
#481=EDGE_CURVE('',#378,#379,#304,.T.);
#482=EDGE_CURVE('',#379,#378,#305,.T.);
#483=EDGE_CURVE('',#379,#380,#306,.T.);
#484=EDGE_CURVE('',#380,#381,#307,.T.);
#485=EDGE_CURVE('',#381,#380,#308,.T.);
#486=EDGE_CURVE('',#381,#382,#206,.T.);
#487=EDGE_CURVE('',#382,#382,#309,.T.);
#488=EDGE_CURVE('',#383,#383,#310,.T.);
#489=EDGE_CURVE('',#383,#384,#207,.T.);
#490=EDGE_CURVE('',#384,#385,#311,.T.);
#491=EDGE_CURVE('',#385,#384,#312,.T.);
#492=EDGE_CURVE('',#385,#386,#313,.T.);
#493=EDGE_CURVE('',#386,#387,#314,.T.);
#494=EDGE_CURVE('',#387,#386,#315,.T.);
#495=EDGE_CURVE('',#387,#388,#208,.T.);
#496=EDGE_CURVE('',#388,#388,#316,.T.);
#497=ORIENTED_EDGE('',*,*,#389,.F.);
#498=ORIENTED_EDGE('',*,*,#390,.T.);
#499=ORIENTED_EDGE('',*,*,#391,.T.);
#500=ORIENTED_EDGE('',*,*,#392,.T.);
#501=ORIENTED_EDGE('',*,*,#393,.F.);
#502=ORIENTED_EDGE('',*,*,#394,.T.);
#503=ORIENTED_EDGE('',*,*,#395,.T.);
#504=ORIENTED_EDGE('',*,*,#396,.T.);
#505=ORIENTED_EDGE('',*,*,#397,.F.);
#506=ORIENTED_EDGE('',*,*,#398,.T.);
#507=ORIENTED_EDGE('',*,*,#399,.T.);
#508=ORIENTED_EDGE('',*,*,#400,.T.);
#509=ORIENTED_EDGE('',*,*,#401,.F.);
#510=ORIENTED_EDGE('',*,*,#402,.T.);
#511=ORIENTED_EDGE('',*,*,#399,.F.);
#512=ORIENTED_EDGE('',*,*,#403,.F.);
#513=ORIENTED_EDGE('',*,*,#391,.F.);
#514=ORIENTED_EDGE('',*,*,#404,.T.);
#515=ORIENTED_EDGE('',*,*,#395,.F.);
#516=ORIENTED_EDGE('',*,*,#405,.F.);
#517=ORIENTED_EDGE('',*,*,#406,.F.);
#518=ORIENTED_EDGE('',*,*,#407,.T.);
#519=ORIENTED_EDGE('',*,*,#401,.T.);
#520=ORIENTED_EDGE('',*,*,#408,.T.);
#521=ORIENTED_EDGE('',*,*,#409,.F.);
#522=ORIENTED_EDGE('',*,*,#410,.T.);
#523=ORIENTED_EDGE('',*,*,#411,.T.);
#524=ORIENTED_EDGE('',*,*,#392,.F.);
#525=ORIENTED_EDGE('',*,*,#405,.T.);
#526=ORIENTED_EDGE('',*,*,#394,.F.);
#527=ORIENTED_EDGE('',*,*,#412,.T.);
#528=ORIENTED_EDGE('',*,*,#413,.F.);
#529=ORIENTED_EDGE('',*,*,#414,.F.);
#530=ORIENTED_EDGE('',*,*,#400,.F.);
#531=ORIENTED_EDGE('',*,*,#402,.F.);
#532=ORIENTED_EDGE('',*,*,#407,.F.);
#533=ORIENTED_EDGE('',*,*,#406,.T.);
#534=ORIENTED_EDGE('',*,*,#415,.F.);
#535=ORIENTED_EDGE('',*,*,#416,.T.);
#536=ORIENTED_EDGE('',*,*,#409,.T.);
#537=ORIENTED_EDGE('',*,*,#393,.T.);
#538=ORIENTED_EDGE('',*,*,#417,.T.);
#539=ORIENTED_EDGE('',*,*,#418,.F.);
#540=ORIENTED_EDGE('',*,*,#412,.F.);
#541=ORIENTED_EDGE('',*,*,#397,.T.);
#542=ORIENTED_EDGE('',*,*,#414,.T.);
#543=ORIENTED_EDGE('',*,*,#419,.F.);
#544=ORIENTED_EDGE('',*,*,#420,.F.);
#545=ORIENTED_EDGE('',*,*,#420,.T.);
#546=ORIENTED_EDGE('',*,*,#421,.F.);
#547=ORIENTED_EDGE('',*,*,#417,.F.);
#548=ORIENTED_EDGE('',*,*,#396,.F.);
#549=ORIENTED_EDGE('',*,*,#404,.F.);
#550=ORIENTED_EDGE('',*,*,#390,.F.);
#551=ORIENTED_EDGE('',*,*,#422,.F.);
#552=ORIENTED_EDGE('',*,*,#423,.T.);
#553=ORIENTED_EDGE('',*,*,#415,.T.);
#554=ORIENTED_EDGE('',*,*,#408,.F.);
#555=ORIENTED_EDGE('',*,*,#403,.T.);
#556=ORIENTED_EDGE('',*,*,#398,.F.);
#557=ORIENTED_EDGE('',*,*,#389,.T.);
#558=ORIENTED_EDGE('',*,*,#411,.F.);
#559=ORIENTED_EDGE('',*,*,#424,.T.);
#560=ORIENTED_EDGE('',*,*,#422,.T.);
#561=ORIENTED_EDGE('',*,*,#418,.T.);
#562=ORIENTED_EDGE('',*,*,#421,.T.);
#563=ORIENTED_EDGE('',*,*,#419,.T.);
#564=ORIENTED_EDGE('',*,*,#413,.T.);
#565=ORIENTED_EDGE('',*,*,#424,.F.);
#566=ORIENTED_EDGE('',*,*,#410,.F.);
#567=ORIENTED_EDGE('',*,*,#416,.F.);
#568=ORIENTED_EDGE('',*,*,#423,.F.);
#569=ORIENTED_EDGE('',*,*,#425,.F.);
#570=ORIENTED_EDGE('',*,*,#426,.T.);
#571=ORIENTED_EDGE('',*,*,#427,.T.);
#572=ORIENTED_EDGE('',*,*,#428,.T.);
#573=ORIENTED_EDGE('',*,*,#426,.F.);
#574=ORIENTED_EDGE('',*,*,#427,.F.);
#575=ORIENTED_EDGE('',*,*,#428,.F.);
#576=ORIENTED_EDGE('',*,*,#429,.T.);
#577=ORIENTED_EDGE('',*,*,#430,.T.);
#578=ORIENTED_EDGE('',*,*,#431,.T.);
#579=ORIENTED_EDGE('',*,*,#429,.F.);
#580=ORIENTED_EDGE('',*,*,#431,.F.);
#581=ORIENTED_EDGE('',*,*,#432,.T.);
#582=ORIENTED_EDGE('',*,*,#433,.T.);
#583=ORIENTED_EDGE('',*,*,#432,.F.);
#584=ORIENTED_EDGE('',*,*,#430,.F.);
#585=ORIENTED_EDGE('',*,*,#425,.T.);
#586=ORIENTED_EDGE('',*,*,#433,.F.);
#587=ORIENTED_EDGE('',*,*,#434,.F.);
#588=ORIENTED_EDGE('',*,*,#435,.T.);
#589=ORIENTED_EDGE('',*,*,#436,.T.);
#590=ORIENTED_EDGE('',*,*,#437,.T.);
#591=ORIENTED_EDGE('',*,*,#435,.F.);
#592=ORIENTED_EDGE('',*,*,#436,.F.);
#593=ORIENTED_EDGE('',*,*,#437,.F.);
#594=ORIENTED_EDGE('',*,*,#438,.T.);
#595=ORIENTED_EDGE('',*,*,#439,.T.);
#596=ORIENTED_EDGE('',*,*,#440,.T.);
#597=ORIENTED_EDGE('',*,*,#438,.F.);
#598=ORIENTED_EDGE('',*,*,#440,.F.);
#599=ORIENTED_EDGE('',*,*,#441,.T.);
#600=ORIENTED_EDGE('',*,*,#442,.T.);
#601=ORIENTED_EDGE('',*,*,#441,.F.);
#602=ORIENTED_EDGE('',*,*,#439,.F.);
#603=ORIENTED_EDGE('',*,*,#434,.T.);
#604=ORIENTED_EDGE('',*,*,#442,.F.);
#605=ORIENTED_EDGE('',*,*,#443,.F.);
#606=ORIENTED_EDGE('',*,*,#444,.T.);
#607=ORIENTED_EDGE('',*,*,#445,.T.);
#608=ORIENTED_EDGE('',*,*,#446,.T.);
#609=ORIENTED_EDGE('',*,*,#444,.F.);
#610=ORIENTED_EDGE('',*,*,#445,.F.);
#611=ORIENTED_EDGE('',*,*,#446,.F.);
#612=ORIENTED_EDGE('',*,*,#447,.T.);
#613=ORIENTED_EDGE('',*,*,#448,.T.);
#614=ORIENTED_EDGE('',*,*,#449,.T.);
#615=ORIENTED_EDGE('',*,*,#447,.F.);
#616=ORIENTED_EDGE('',*,*,#449,.F.);
#617=ORIENTED_EDGE('',*,*,#450,.T.);
#618=ORIENTED_EDGE('',*,*,#451,.T.);
#619=ORIENTED_EDGE('',*,*,#450,.F.);
#620=ORIENTED_EDGE('',*,*,#448,.F.);
#621=ORIENTED_EDGE('',*,*,#443,.T.);
#622=ORIENTED_EDGE('',*,*,#451,.F.);
#623=ORIENTED_EDGE('',*,*,#452,.F.);
#624=ORIENTED_EDGE('',*,*,#453,.T.);
#625=ORIENTED_EDGE('',*,*,#454,.T.);
#626=ORIENTED_EDGE('',*,*,#455,.T.);
#627=ORIENTED_EDGE('',*,*,#453,.F.);
#628=ORIENTED_EDGE('',*,*,#454,.F.);
#629=ORIENTED_EDGE('',*,*,#455,.F.);
#630=ORIENTED_EDGE('',*,*,#456,.T.);
#631=ORIENTED_EDGE('',*,*,#457,.T.);
#632=ORIENTED_EDGE('',*,*,#458,.T.);
#633=ORIENTED_EDGE('',*,*,#456,.F.);
#634=ORIENTED_EDGE('',*,*,#458,.F.);
#635=ORIENTED_EDGE('',*,*,#459,.T.);
#636=ORIENTED_EDGE('',*,*,#460,.T.);
#637=ORIENTED_EDGE('',*,*,#459,.F.);
#638=ORIENTED_EDGE('',*,*,#457,.F.);
#639=ORIENTED_EDGE('',*,*,#452,.T.);
#640=ORIENTED_EDGE('',*,*,#460,.F.);
#641=ORIENTED_EDGE('',*,*,#461,.F.);
#642=ORIENTED_EDGE('',*,*,#462,.T.);
#643=ORIENTED_EDGE('',*,*,#463,.T.);
#644=ORIENTED_EDGE('',*,*,#464,.T.);
#645=ORIENTED_EDGE('',*,*,#462,.F.);
#646=ORIENTED_EDGE('',*,*,#463,.F.);
#647=ORIENTED_EDGE('',*,*,#464,.F.);
#648=ORIENTED_EDGE('',*,*,#465,.T.);
#649=ORIENTED_EDGE('',*,*,#466,.T.);
#650=ORIENTED_EDGE('',*,*,#467,.T.);
#651=ORIENTED_EDGE('',*,*,#465,.F.);
#652=ORIENTED_EDGE('',*,*,#467,.F.);
#653=ORIENTED_EDGE('',*,*,#468,.T.);
#654=ORIENTED_EDGE('',*,*,#469,.T.);
#655=ORIENTED_EDGE('',*,*,#468,.F.);
#656=ORIENTED_EDGE('',*,*,#466,.F.);
#657=ORIENTED_EDGE('',*,*,#461,.T.);
#658=ORIENTED_EDGE('',*,*,#469,.F.);
#659=ORIENTED_EDGE('',*,*,#470,.F.);
#660=ORIENTED_EDGE('',*,*,#471,.T.);
#661=ORIENTED_EDGE('',*,*,#472,.T.);
#662=ORIENTED_EDGE('',*,*,#473,.T.);
#663=ORIENTED_EDGE('',*,*,#471,.F.);
#664=ORIENTED_EDGE('',*,*,#472,.F.);
#665=ORIENTED_EDGE('',*,*,#473,.F.);
#666=ORIENTED_EDGE('',*,*,#474,.T.);
#667=ORIENTED_EDGE('',*,*,#475,.T.);
#668=ORIENTED_EDGE('',*,*,#476,.T.);
#669=ORIENTED_EDGE('',*,*,#474,.F.);
#670=ORIENTED_EDGE('',*,*,#476,.F.);
#671=ORIENTED_EDGE('',*,*,#477,.T.);
#672=ORIENTED_EDGE('',*,*,#478,.T.);
#673=ORIENTED_EDGE('',*,*,#477,.F.);
#674=ORIENTED_EDGE('',*,*,#475,.F.);
#675=ORIENTED_EDGE('',*,*,#470,.T.);
#676=ORIENTED_EDGE('',*,*,#478,.F.);
#677=ORIENTED_EDGE('',*,*,#479,.F.);
#678=ORIENTED_EDGE('',*,*,#480,.T.);
#679=ORIENTED_EDGE('',*,*,#481,.T.);
#680=ORIENTED_EDGE('',*,*,#482,.T.);
#681=ORIENTED_EDGE('',*,*,#480,.F.);
#682=ORIENTED_EDGE('',*,*,#481,.F.);
#683=ORIENTED_EDGE('',*,*,#482,.F.);
#684=ORIENTED_EDGE('',*,*,#483,.T.);
#685=ORIENTED_EDGE('',*,*,#484,.T.);
#686=ORIENTED_EDGE('',*,*,#485,.T.);
#687=ORIENTED_EDGE('',*,*,#483,.F.);
#688=ORIENTED_EDGE('',*,*,#485,.F.);
#689=ORIENTED_EDGE('',*,*,#486,.T.);
#690=ORIENTED_EDGE('',*,*,#487,.T.);
#691=ORIENTED_EDGE('',*,*,#486,.F.);
#692=ORIENTED_EDGE('',*,*,#484,.F.);
#693=ORIENTED_EDGE('',*,*,#479,.T.);
#694=ORIENTED_EDGE('',*,*,#487,.F.);
#695=ORIENTED_EDGE('',*,*,#488,.F.);
#696=ORIENTED_EDGE('',*,*,#489,.T.);
#697=ORIENTED_EDGE('',*,*,#490,.T.);
#698=ORIENTED_EDGE('',*,*,#491,.T.);
#699=ORIENTED_EDGE('',*,*,#489,.F.);
#700=ORIENTED_EDGE('',*,*,#490,.F.);
#701=ORIENTED_EDGE('',*,*,#491,.F.);
#702=ORIENTED_EDGE('',*,*,#492,.T.);
#703=ORIENTED_EDGE('',*,*,#493,.T.);
#704=ORIENTED_EDGE('',*,*,#494,.T.);
#705=ORIENTED_EDGE('',*,*,#492,.F.);
#706=ORIENTED_EDGE('',*,*,#494,.F.);
#707=ORIENTED_EDGE('',*,*,#495,.T.);
#708=ORIENTED_EDGE('',*,*,#496,.T.);
#709=ORIENTED_EDGE('',*,*,#495,.F.);
#710=ORIENTED_EDGE('',*,*,#493,.F.);
#711=ORIENTED_EDGE('',*,*,#488,.T.);
#712=ORIENTED_EDGE('',*,*,#496,.F.);
#713=PLANE('',#813);
#714=PLANE('',#816);
#715=PLANE('',#819);
#716=PLANE('',#825);
#717=PLANE('',#827);
#718=PLANE('',#834);
#719=PLANE('',#837);
#720=PLANE('',#838);
#721=PLANE('',#849);
#722=PLANE('',#850);
#723=PLANE('',#861);
#724=PLANE('',#862);
#725=PLANE('',#873);
#726=PLANE('',#874);
#727=PLANE('',#885);
#728=PLANE('',#886);
#729=PLANE('',#897);
#730=PLANE('',#898);
#731=PLANE('',#909);
#732=PLANE('',#910);
#733=PLANE('',#921);
#734=PLANE('',#922);
#735=PLANE('',#933);
#736=PLANE('',#934);
#737=ADVANCED_FACE('',(#61),#713,.T.);
#738=ADVANCED_FACE('',(#62),#714,.F.);
#739=ADVANCED_FACE('',(#63),#715,.F.);
#740=ADVANCED_FACE('',(#64),#39,.T.);
#741=ADVANCED_FACE('',(#65),#40,.T.);
#742=ADVANCED_FACE('',(#66),#716,.T.);
#743=ADVANCED_FACE('',(#67),#717,.T.);
#744=ADVANCED_FACE('',(#68),#41,.T.);
#745=ADVANCED_FACE('',(#69),#42,.T.);
#746=ADVANCED_FACE('',(#70),#43,.T.);
#747=ADVANCED_FACE('',(#71),#718,.T.);
#748=ADVANCED_FACE('',(#72),#44,.T.);
#749=ADVANCED_FACE('',(#73),#719,.T.);
#750=ADVANCED_FACE('',(#74),#720,.F.);
#751=ADVANCED_FACE('',(#75),#45,.T.);
#752=ADVANCED_FACE('',(#76),#13,.T.);
#753=ADVANCED_FACE('',(#77),#46,.T.);
#754=ADVANCED_FACE('',(#78),#721,.T.);
#755=ADVANCED_FACE('',(#79),#722,.F.);
#756=ADVANCED_FACE('',(#80),#47,.T.);
#757=ADVANCED_FACE('',(#81),#14,.T.);
#758=ADVANCED_FACE('',(#82),#48,.T.);
#759=ADVANCED_FACE('',(#83),#723,.T.);
#760=ADVANCED_FACE('',(#84),#724,.F.);
#761=ADVANCED_FACE('',(#85),#49,.T.);
#762=ADVANCED_FACE('',(#86),#15,.T.);
#763=ADVANCED_FACE('',(#87),#50,.T.);
#764=ADVANCED_FACE('',(#88),#725,.T.);
#765=ADVANCED_FACE('',(#89),#726,.F.);
#766=ADVANCED_FACE('',(#90),#51,.T.);
#767=ADVANCED_FACE('',(#91),#16,.T.);
#768=ADVANCED_FACE('',(#92),#52,.T.);
#769=ADVANCED_FACE('',(#93),#727,.T.);
#770=ADVANCED_FACE('',(#94),#728,.F.);
#771=ADVANCED_FACE('',(#95),#53,.T.);
#772=ADVANCED_FACE('',(#96),#17,.T.);
#773=ADVANCED_FACE('',(#97),#54,.T.);
#774=ADVANCED_FACE('',(#98),#729,.T.);
#775=ADVANCED_FACE('',(#99),#730,.F.);
#776=ADVANCED_FACE('',(#100),#55,.T.);
#777=ADVANCED_FACE('',(#101),#18,.T.);
#778=ADVANCED_FACE('',(#102),#56,.T.);
#779=ADVANCED_FACE('',(#103),#731,.T.);
#780=ADVANCED_FACE('',(#104),#732,.F.);
#781=ADVANCED_FACE('',(#105),#57,.T.);
#782=ADVANCED_FACE('',(#106),#19,.T.);
#783=ADVANCED_FACE('',(#107),#58,.T.);
#784=ADVANCED_FACE('',(#108),#733,.T.);
#785=ADVANCED_FACE('',(#109),#734,.F.);
#786=ADVANCED_FACE('',(#110),#59,.T.);
#787=ADVANCED_FACE('',(#111),#20,.T.);
#788=ADVANCED_FACE('',(#112),#60,.T.);
#789=ADVANCED_FACE('',(#113),#735,.T.);
#790=ADVANCED_FACE('',(#114),#736,.F.);
#791=CLOSED_SHELL('',(#737,#738,#739,#740,#741,#742,#743,#744,#745,#746,
#747,#748,#749,#750));
#792=CLOSED_SHELL('',(#751,#752,#753,#754,#755));
#793=CLOSED_SHELL('',(#756,#757,#758,#759,#760));
#794=CLOSED_SHELL('',(#761,#762,#763,#764,#765));
#795=CLOSED_SHELL('',(#766,#767,#768,#769,#770));
#796=CLOSED_SHELL('',(#771,#772,#773,#774,#775));
#797=CLOSED_SHELL('',(#776,#777,#778,#779,#780));
#798=CLOSED_SHELL('',(#781,#782,#783,#784,#785));
#799=CLOSED_SHELL('',(#786,#787,#788,#789,#790));
#800=DERIVED_UNIT_ELEMENT(#802,1.);
#801=DERIVED_UNIT_ELEMENT(#1461,-3.);
#802=(
MASS_UNIT()
NAMED_UNIT(*)
SI_UNIT(.KILO.,.GRAM.)
);
#803=DERIVED_UNIT((#800,#801));
#804=MEASURE_REPRESENTATION_ITEM('density measure',
POSITIVE_RATIO_MEASURE(7850.),#803);
#805=PROPERTY_DEFINITION_REPRESENTATION(#810,#807);
#806=PROPERTY_DEFINITION_REPRESENTATION(#811,#808);
#807=REPRESENTATION('material name',(#809),#1458);
#808=REPRESENTATION('density',(#804),#1458);
#809=DESCRIPTIVE_REPRESENTATION_ITEM('Steel','Steel');
#810=PROPERTY_DEFINITION('material property','material name',#1468);
#811=PROPERTY_DEFINITION('material property','density of part',#1468);
#812=AXIS2_PLACEMENT_3D('',#1221,#935,#936);
#813=AXIS2_PLACEMENT_3D('',#1222,#937,#938);
#814=AXIS2_PLACEMENT_3D('',#1225,#939,#940);
#815=AXIS2_PLACEMENT_3D('',#1229,#942,#943);
#816=AXIS2_PLACEMENT_3D('',#1231,#945,#946);
#817=AXIS2_PLACEMENT_3D('',#1234,#947,#948);
#818=AXIS2_PLACEMENT_3D('',#1238,#950,#951);
#819=AXIS2_PLACEMENT_3D('',#1240,#953,#954);
#820=AXIS2_PLACEMENT_3D('',#1243,#955,#956);
#821=AXIS2_PLACEMENT_3D('',#1247,#958,#959);
#822=AXIS2_PLACEMENT_3D('',#1249,#961,#962);
#823=AXIS2_PLACEMENT_3D('',#1252,#963,#964);
#824=AXIS2_PLACEMENT_3D('',#1255,#967,#968);
#825=AXIS2_PLACEMENT_3D('',#1258,#971,#972);
#826=AXIS2_PLACEMENT_3D('',#1261,#973,#974);
#827=AXIS2_PLACEMENT_3D('',#1264,#977,#978);
#828=AXIS2_PLACEMENT_3D('',#1275,#985,#986);
#829=AXIS2_PLACEMENT_3D('',#1278,#988,#989);
#830=AXIS2_PLACEMENT_3D('',#1279,#990,#991);
#831=AXIS2_PLACEMENT_3D('',#1282,#993,#994);
#832=AXIS2_PLACEMENT_3D('',#1283,#995,#996);
#833=AXIS2_PLACEMENT_3D('',#1285,#997,#998);
#834=AXIS2_PLACEMENT_3D('',#1287,#1000,#1001);
#835=AXIS2_PLACEMENT_3D('',#1292,#1005,#1006);
#836=AXIS2_PLACEMENT_3D('',#1293,#1007,#1008);
#837=AXIS2_PLACEMENT_3D('',#1294,#1009,#1010);
#838=AXIS2_PLACEMENT_3D('',#1295,#1011,#1012);
#839=AXIS2_PLACEMENT_3D('',#1296,#1013,#1014);
#840=AXIS2_PLACEMENT_3D('',#1298,#1015,#1016);
#841=AXIS2_PLACEMENT_3D('',#1302,#1018,#1019);
#842=AXIS2_PLACEMENT_3D('',#1303,#1020,#1021);
#843=AXIS2_PLACEMENT_3D('',#1304,#1022,#1023);
#844=AXIS2_PLACEMENT_3D('',#1306,#1024,#1025);
#845=AXIS2_PLACEMENT_3D('',#1308,#1026,#1027);
#846=AXIS2_PLACEMENT_3D('',#1309,#1028,#1029);
#847=AXIS2_PLACEMENT_3D('',#1310,#1030,#1031);
#848=AXIS2_PLACEMENT_3D('',#1313,#1033,#1034);
#849=AXIS2_PLACEMENT_3D('',#1314,#1035,#1036);
#850=AXIS2_PLACEMENT_3D('',#1315,#1037,#1038);
#851=AXIS2_PLACEMENT_3D('',#1316,#1039,#1040);
#852=AXIS2_PLACEMENT_3D('',#1318,#1041,#1042);
#853=AXIS2_PLACEMENT_3D('',#1322,#1044,#1045);
#854=AXIS2_PLACEMENT_3D('',#1323,#1046,#1047);
#855=AXIS2_PLACEMENT_3D('',#1324,#1048,#1049);
#856=AXIS2_PLACEMENT_3D('',#1326,#1050,#1051);
#857=AXIS2_PLACEMENT_3D('',#1328,#1052,#1053);
#858=AXIS2_PLACEMENT_3D('',#1329,#1054,#1055);
#859=AXIS2_PLACEMENT_3D('',#1330,#1056,#1057);
#860=AXIS2_PLACEMENT_3D('',#1333,#1059,#1060);
#861=AXIS2_PLACEMENT_3D('',#1334,#1061,#1062);
#862=AXIS2_PLACEMENT_3D('',#1335,#1063,#1064);
#863=AXIS2_PLACEMENT_3D('',#1336,#1065,#1066);
#864=AXIS2_PLACEMENT_3D('',#1338,#1067,#1068);
#865=AXIS2_PLACEMENT_3D('',#1342,#1070,#1071);
#866=AXIS2_PLACEMENT_3D('',#1343,#1072,#1073);
#867=AXIS2_PLACEMENT_3D('',#1344,#1074,#1075);
#868=AXIS2_PLACEMENT_3D('',#1346,#1076,#1077);
#869=AXIS2_PLACEMENT_3D('',#1348,#1078,#1079);
#870=AXIS2_PLACEMENT_3D('',#1349,#1080,#1081);
#871=AXIS2_PLACEMENT_3D('',#1350,#1082,#1083);
#872=AXIS2_PLACEMENT_3D('',#1353,#1085,#1086);
#873=AXIS2_PLACEMENT_3D('',#1354,#1087,#1088);
#874=AXIS2_PLACEMENT_3D('',#1355,#1089,#1090);
#875=AXIS2_PLACEMENT_3D('',#1356,#1091,#1092);
#876=AXIS2_PLACEMENT_3D('',#1358,#1093,#1094);
#877=AXIS2_PLACEMENT_3D('',#1362,#1096,#1097);
#878=AXIS2_PLACEMENT_3D('',#1363,#1098,#1099);
#879=AXIS2_PLACEMENT_3D('',#1364,#1100,#1101);
#880=AXIS2_PLACEMENT_3D('',#1366,#1102,#1103);
#881=AXIS2_PLACEMENT_3D('',#1368,#1104,#1105);
#882=AXIS2_PLACEMENT_3D('',#1369,#1106,#1107);
#883=AXIS2_PLACEMENT_3D('',#1370,#1108,#1109);
#884=AXIS2_PLACEMENT_3D('',#1373,#1111,#1112);
#885=AXIS2_PLACEMENT_3D('',#1374,#1113,#1114);
#886=AXIS2_PLACEMENT_3D('',#1375,#1115,#1116);
#887=AXIS2_PLACEMENT_3D('',#1376,#1117,#1118);
#888=AXIS2_PLACEMENT_3D('',#1378,#1119,#1120);
#889=AXIS2_PLACEMENT_3D('',#1382,#1122,#1123);
#890=AXIS2_PLACEMENT_3D('',#1383,#1124,#1125);
#891=AXIS2_PLACEMENT_3D('',#1384,#1126,#1127);
#892=AXIS2_PLACEMENT_3D('',#1386,#1128,#1129);
#893=AXIS2_PLACEMENT_3D('',#1388,#1130,#1131);
#894=AXIS2_PLACEMENT_3D('',#1389,#1132,#1133);
#895=AXIS2_PLACEMENT_3D('',#1390,#1134,#1135);
#896=AXIS2_PLACEMENT_3D('',#1393,#1137,#1138);
#897=AXIS2_PLACEMENT_3D('',#1394,#1139,#1140);
#898=AXIS2_PLACEMENT_3D('',#1395,#1141,#1142);
#899=AXIS2_PLACEMENT_3D('',#1396,#1143,#1144);
#900=AXIS2_PLACEMENT_3D('',#1398,#1145,#1146);
#901=AXIS2_PLACEMENT_3D('',#1402,#1148,#1149);
#902=AXIS2_PLACEMENT_3D('',#1403,#1150,#1151);
#903=AXIS2_PLACEMENT_3D('',#1404,#1152,#1153);
#904=AXIS2_PLACEMENT_3D('',#1406,#1154,#1155);
#905=AXIS2_PLACEMENT_3D('',#1408,#1156,#1157);
#906=AXIS2_PLACEMENT_3D('',#1409,#1158,#1159);
#907=AXIS2_PLACEMENT_3D('',#1410,#1160,#1161);
#908=AXIS2_PLACEMENT_3D('',#1413,#1163,#1164);
#909=AXIS2_PLACEMENT_3D('',#1414,#1165,#1166);
#910=AXIS2_PLACEMENT_3D('',#1415,#1167,#1168);
#911=AXIS2_PLACEMENT_3D('',#1416,#1169,#1170);
#912=AXIS2_PLACEMENT_3D('',#1418,#1171,#1172);
#913=AXIS2_PLACEMENT_3D('',#1422,#1174,#1175);
#914=AXIS2_PLACEMENT_3D('',#1423,#1176,#1177);
#915=AXIS2_PLACEMENT_3D('',#1424,#1178,#1179);
#916=AXIS2_PLACEMENT_3D('',#1426,#1180,#1181);
#917=AXIS2_PLACEMENT_3D('',#1428,#1182,#1183);
#918=AXIS2_PLACEMENT_3D('',#1429,#1184,#1185);
#919=AXIS2_PLACEMENT_3D('',#1430,#1186,#1187);
#920=AXIS2_PLACEMENT_3D('',#1433,#1189,#1190);
#921=AXIS2_PLACEMENT_3D('',#1434,#1191,#1192);
#922=AXIS2_PLACEMENT_3D('',#1435,#1193,#1194);
#923=AXIS2_PLACEMENT_3D('',#1436,#1195,#1196);
#924=AXIS2_PLACEMENT_3D('',#1438,#1197,#1198);
#925=AXIS2_PLACEMENT_3D('',#1442,#1200,#1201);
#926=AXIS2_PLACEMENT_3D('',#1443,#1202,#1203);
#927=AXIS2_PLACEMENT_3D('',#1444,#1204,#1205);
#928=AXIS2_PLACEMENT_3D('',#1446,#1206,#1207);
#929=AXIS2_PLACEMENT_3D('',#1448,#1208,#1209);
#930=AXIS2_PLACEMENT_3D('',#1449,#1210,#1211);
#931=AXIS2_PLACEMENT_3D('',#1450,#1212,#1213);
#932=AXIS2_PLACEMENT_3D('',#1453,#1215,#1216);
#933=AXIS2_PLACEMENT_3D('',#1454,#1217,#1218);
#934=AXIS2_PLACEMENT_3D('',#1455,#1219,#1220);
#935=DIRECTION('axis',(0.,0.,1.));
#936=DIRECTION('refdir',(1.,0.,0.));
#937=DIRECTION('center_axis',(0.,0.,-1.));
#938=DIRECTION('ref_axis',(-1.,0.,0.));
#939=DIRECTION('center_axis',(0.,0.,-1.));
#940=DIRECTION('ref_axis',(1.11022302462516E-15,1.,0.));
#941=DIRECTION('',(-1.,0.,0.));
#942=DIRECTION('center_axis',(0.,0.,-1.));
#943=DIRECTION('ref_axis',(1.11022302462516E-15,-1.,0.));
#944=DIRECTION('',(1.,0.,0.));
#945=DIRECTION('center_axis',(0.,0.,-1.));
#946=DIRECTION('ref_axis',(-1.,0.,0.));
#947=DIRECTION('center_axis',(0.,0.,1.));
#948=DIRECTION('ref_axis',(1.11022302462516E-15,1.,0.));
#949=DIRECTION('',(-1.,0.,0.));
#950=DIRECTION('center_axis',(0.,0.,1.));
#951=DIRECTION('ref_axis',(1.11022302462516E-15,-1.,0.));
#952=DIRECTION('',(1.,0.,0.));
#953=DIRECTION('center_axis',(0.,0.,-1.));
#954=DIRECTION('ref_axis',(-1.,0.,0.));
#955=DIRECTION('center_axis',(0.,0.,1.));
#956=DIRECTION('ref_axis',(-1.11022302462516E-15,-1.,0.));
#957=DIRECTION('',(1.,0.,0.));
#958=DIRECTION('center_axis',(0.,0.,1.));
#959=DIRECTION('ref_axis',(-1.11022302462516E-15,1.,0.));
#960=DIRECTION('',(-1.,0.,0.));
#961=DIRECTION('center_axis',(0.,0.,1.));
#962=DIRECTION('ref_axis',(-1.11022302462516E-15,1.,0.));
#963=DIRECTION('center_axis',(0.,0.,-1.));
#964=DIRECTION('ref_axis',(-1.11022302462516E-15,1.,0.));
#965=DIRECTION('',(0.,0.,1.));
#966=DIRECTION('',(0.,0.,1.));
#967=DIRECTION('center_axis',(0.,0.,1.));
#968=DIRECTION('ref_axis',(1.11022302462516E-15,-1.,0.));
#969=DIRECTION('',(0.,0.,1.));
#970=DIRECTION('',(0.,0.,1.));
#971=DIRECTION('center_axis',(0.,0.,-1.));
#972=DIRECTION('ref_axis',(-1.,0.,0.));
#973=DIRECTION('center_axis',(0.,0.,-1.));
#974=DIRECTION('ref_axis',(-1.11022302462516E-15,-1.,0.));
#975=DIRECTION('',(1.,0.,0.));
#976=DIRECTION('',(-1.,0.,0.));
#977=DIRECTION('center_axis',(0.,1.,0.));
#978=DIRECTION('ref_axis',(-1.,0.,0.));
#979=DIRECTION('',(0.,0.,1.));
#980=DIRECTION('',(-1.,0.,0.));
#981=DIRECTION('',(0.,0.,1.));
#982=DIRECTION('',(0.,0.,1.));
#983=DIRECTION('',(-1.,0.,0.));
#984=DIRECTION('',(0.,0.,1.));
#985=DIRECTION('center_axis',(0.,0.,1.));
#986=DIRECTION('ref_axis',(-1.11022302462516E-15,-1.,0.));
#987=DIRECTION('',(0.,0.,1.));
#988=DIRECTION('center_axis',(0.,0.,1.));
#989=DIRECTION('ref_axis',(-1.11022302462516E-15,-1.,0.));
#990=DIRECTION('center_axis',(0.,0.,1.));
#991=DIRECTION('ref_axis',(1.11022302462516E-15,1.,0.));
#992=DIRECTION('',(0.,0.,1.));
#993=DIRECTION('center_axis',(0.,0.,1.));
#994=DIRECTION('ref_axis',(1.11022302462516E-15,1.,0.));
#995=DIRECTION('center_axis',(0.,0.,1.));
#996=DIRECTION('ref_axis',(-1.11022302462516E-15,-1.,0.));
#997=DIRECTION('center_axis',(0.,0.,1.));
#998=DIRECTION('ref_axis',(-1.11022302462516E-15,-1.,0.));
#999=DIRECTION('',(0.,0.,1.));
#1000=DIRECTION('center_axis',(0.,-1.,0.));
#1001=DIRECTION('ref_axis',(1.,0.,0.));
#1002=DIRECTION('',(1.,0.,0.));
#1003=DIRECTION('',(0.,0.,1.));
#1004=DIRECTION('',(1.,0.,0.));
#1005=DIRECTION('center_axis',(0.,0.,1.));
#1006=DIRECTION('ref_axis',(1.11022302462516E-15,1.,0.));
#1007=DIRECTION('center_axis',(0.,0.,1.));
#1008=DIRECTION('ref_axis',(1.11022302462516E-15,1.,0.));
#1009=DIRECTION('center_axis',(0.,0.,1.));
#1010=DIRECTION('ref_axis',(1.,0.,0.));
#1011=DIRECTION('center_axis',(0.,0.,1.));
#1012=DIRECTION('ref_axis',(1.,0.,0.));
#1013=DIRECTION('center_axis',(0.,-1.,0.));
#1014=DIRECTION('ref_axis',(-1.,0.,0.));
#1015=DIRECTION('center_axis',(0.,-1.,-6.12323399573676E-17));
#1016=DIRECTION('ref_axis',(-1.,0.,0.));
#1017=DIRECTION('',(0.,1.,0.));
#1018=DIRECTION('center_axis',(0.,-1.,-6.12323399573676E-17));
#1019=DIRECTION('ref_axis',(-1.,0.,0.));
#1020=DIRECTION('center_axis',(0.,-1.,-6.12323399573676E-17));
#1021=DIRECTION('ref_axis',(-1.,0.,0.));
#1022=DIRECTION('center_axis',(-1.,0.,0.));
#1023=DIRECTION('ref_axis',(0.,0.,1.));
#1024=DIRECTION('center_axis',(1.,0.,0.));
#1025=DIRECTION('ref_axis',(0.,0.,1.));
#1026=DIRECTION('center_axis',(0.,0.,-1.));
#1027=DIRECTION('ref_axis',(-1.,0.,0.));
#1028=DIRECTION('center_axis',(0.,0.,-1.));
#1029=DIRECTION('ref_axis',(-1.,0.,0.));
#1030=DIRECTION('center_axis',(0.,0.,-1.));
#1031=DIRECTION('ref_axis',(-1.,0.,0.));
#1032=DIRECTION('',(0.,0.,1.));
#1033=DIRECTION('center_axis',(0.,0.,-1.));
#1034=DIRECTION('ref_axis',(-1.,0.,0.));
#1035=DIRECTION('center_axis',(0.,-1.,-6.12323399573676E-17));
#1036=DIRECTION('ref_axis',(-1.,0.,0.));
#1037=DIRECTION('center_axis',(0.,0.,-1.));
#1038=DIRECTION('ref_axis',(-1.,0.,0.));
#1039=DIRECTION('center_axis',(0.,-1.,0.));
#1040=DIRECTION('ref_axis',(-1.,0.,0.));
#1041=DIRECTION('center_axis',(0.,-1.,-6.12323399573676E-17));
#1042=DIRECTION('ref_axis',(-1.,0.,0.));
#1043=DIRECTION('',(0.,1.,0.));
#1044=DIRECTION('center_axis',(0.,-1.,-6.12323399573676E-17));
#1045=DIRECTION('ref_axis',(-1.,0.,0.));
#1046=DIRECTION('center_axis',(0.,-1.,-6.12323399573676E-17));
#1047=DIRECTION('ref_axis',(-1.,0.,0.));
#1048=DIRECTION('center_axis',(-1.,0.,0.));
#1049=DIRECTION('ref_axis',(0.,0.,1.));
#1050=DIRECTION('center_axis',(1.,0.,0.));
#1051=DIRECTION('ref_axis',(0.,0.,1.));
#1052=DIRECTION('center_axis',(0.,0.,-1.));
#1053=DIRECTION('ref_axis',(-1.,0.,0.));
#1054=DIRECTION('center_axis',(0.,0.,-1.));
#1055=DIRECTION('ref_axis',(-1.,0.,0.));
#1056=DIRECTION('center_axis',(0.,0.,-1.));
#1057=DIRECTION('ref_axis',(-1.,0.,0.));
#1058=DIRECTION('',(0.,0.,1.));
#1059=DIRECTION('center_axis',(0.,0.,-1.));
#1060=DIRECTION('ref_axis',(-1.,0.,0.));
#1061=DIRECTION('center_axis',(0.,-1.,-6.12323399573676E-17));
#1062=DIRECTION('ref_axis',(-1.,0.,0.));
#1063=DIRECTION('center_axis',(0.,0.,-1.));
#1064=DIRECTION('ref_axis',(-1.,0.,0.));
#1065=DIRECTION('center_axis',(0.,-1.,0.));
#1066=DIRECTION('ref_axis',(-1.,0.,0.));
#1067=DIRECTION('center_axis',(0.,-1.,-6.12323399573676E-17));
#1068=DIRECTION('ref_axis',(-1.,0.,0.));
#1069=DIRECTION('',(0.,1.,0.));
#1070=DIRECTION('center_axis',(0.,-1.,-6.12323399573676E-17));
#1071=DIRECTION('ref_axis',(-1.,0.,0.));
#1072=DIRECTION('center_axis',(0.,-1.,-6.12323399573676E-17));
#1073=DIRECTION('ref_axis',(-1.,0.,0.));
#1074=DIRECTION('center_axis',(-1.,0.,0.));
#1075=DIRECTION('ref_axis',(0.,0.,1.));
#1076=DIRECTION('center_axis',(1.,0.,0.));
#1077=DIRECTION('ref_axis',(0.,0.,1.));
#1078=DIRECTION('center_axis',(0.,0.,-1.));
#1079=DIRECTION('ref_axis',(-1.,0.,0.));
#1080=DIRECTION('center_axis',(0.,0.,-1.));
#1081=DIRECTION('ref_axis',(-1.,0.,0.));
#1082=DIRECTION('center_axis',(0.,0.,-1.));
#1083=DIRECTION('ref_axis',(-1.,0.,0.));
#1084=DIRECTION('',(0.,0.,1.));
#1085=DIRECTION('center_axis',(0.,0.,-1.));
#1086=DIRECTION('ref_axis',(-1.,0.,0.));
#1087=DIRECTION('center_axis',(0.,-1.,-6.12323399573676E-17));
#1088=DIRECTION('ref_axis',(-1.,0.,0.));
#1089=DIRECTION('center_axis',(0.,0.,-1.));
#1090=DIRECTION('ref_axis',(-1.,0.,0.));
#1091=DIRECTION('center_axis',(0.,-1.,0.));
#1092=DIRECTION('ref_axis',(-1.,0.,0.));
#1093=DIRECTION('center_axis',(0.,-1.,-6.12323399573676E-17));
#1094=DIRECTION('ref_axis',(-1.,0.,0.));
#1095=DIRECTION('',(0.,1.,0.));
#1096=DIRECTION('center_axis',(0.,-1.,-6.12323399573676E-17));
#1097=DIRECTION('ref_axis',(-1.,0.,0.));
#1098=DIRECTION('center_axis',(0.,-1.,-6.12323399573676E-17));
#1099=DIRECTION('ref_axis',(-1.,0.,0.));
#1100=DIRECTION('center_axis',(-1.,0.,0.));
#1101=DIRECTION('ref_axis',(0.,0.,1.));
#1102=DIRECTION('center_axis',(1.,0.,0.));
#1103=DIRECTION('ref_axis',(0.,0.,1.));
#1104=DIRECTION('center_axis',(0.,0.,-1.));
#1105=DIRECTION('ref_axis',(-1.,0.,0.));
#1106=DIRECTION('center_axis',(0.,0.,-1.));
#1107=DIRECTION('ref_axis',(-1.,0.,0.));
#1108=DIRECTION('center_axis',(0.,0.,-1.));
#1109=DIRECTION('ref_axis',(-1.,0.,0.));
#1110=DIRECTION('',(0.,0.,1.));
#1111=DIRECTION('center_axis',(0.,0.,-1.));
#1112=DIRECTION('ref_axis',(-1.,0.,0.));
#1113=DIRECTION('center_axis',(0.,-1.,-6.12323399573676E-17));
#1114=DIRECTION('ref_axis',(-1.,0.,0.));
#1115=DIRECTION('center_axis',(0.,0.,-1.));
#1116=DIRECTION('ref_axis',(-1.,0.,0.));
#1117=DIRECTION('center_axis',(0.,-1.,0.));
#1118=DIRECTION('ref_axis',(-1.,0.,0.));
#1119=DIRECTION('center_axis',(0.,-1.,-6.12323399573676E-17));
#1120=DIRECTION('ref_axis',(-1.,0.,0.));
#1121=DIRECTION('',(0.,1.,0.));
#1122=DIRECTION('center_axis',(0.,-1.,-6.12323399573676E-17));
#1123=DIRECTION('ref_axis',(-1.,0.,0.));
#1124=DIRECTION('center_axis',(0.,-1.,-6.12323399573676E-17));
#1125=DIRECTION('ref_axis',(-1.,0.,0.));
#1126=DIRECTION('center_axis',(-1.,0.,0.));
#1127=DIRECTION('ref_axis',(0.,0.,1.));
#1128=DIRECTION('center_axis',(1.,0.,0.));
#1129=DIRECTION('ref_axis',(0.,0.,1.));
#1130=DIRECTION('center_axis',(0.,0.,-1.));
#1131=DIRECTION('ref_axis',(-1.,0.,0.));
#1132=DIRECTION('center_axis',(0.,0.,-1.));
#1133=DIRECTION('ref_axis',(-1.,0.,0.));
#1134=DIRECTION('center_axis',(0.,0.,-1.));
#1135=DIRECTION('ref_axis',(-1.,0.,0.));
#1136=DIRECTION('',(0.,0.,1.));
#1137=DIRECTION('center_axis',(0.,0.,-1.));
#1138=DIRECTION('ref_axis',(-1.,0.,0.));
#1139=DIRECTION('center_axis',(0.,-1.,-6.12323399573676E-17));
#1140=DIRECTION('ref_axis',(-1.,0.,0.));
#1141=DIRECTION('center_axis',(0.,0.,-1.));
#1142=DIRECTION('ref_axis',(-1.,0.,0.));
#1143=DIRECTION('center_axis',(0.,-1.,0.));
#1144=DIRECTION('ref_axis',(-1.,0.,0.));
#1145=DIRECTION('center_axis',(0.,-1.,-6.12323399573676E-17));
#1146=DIRECTION('ref_axis',(-1.,0.,0.));
#1147=DIRECTION('',(0.,1.,0.));
#1148=DIRECTION('center_axis',(0.,-1.,-6.12323399573676E-17));
#1149=DIRECTION('ref_axis',(-1.,0.,0.));
#1150=DIRECTION('center_axis',(0.,-1.,-6.12323399573676E-17));
#1151=DIRECTION('ref_axis',(-1.,0.,0.));
#1152=DIRECTION('center_axis',(-1.,0.,0.));
#1153=DIRECTION('ref_axis',(0.,0.,1.));
#1154=DIRECTION('center_axis',(1.,0.,0.));
#1155=DIRECTION('ref_axis',(0.,0.,1.));
#1156=DIRECTION('center_axis',(0.,0.,-1.));
#1157=DIRECTION('ref_axis',(-1.,0.,0.));
#1158=DIRECTION('center_axis',(0.,0.,-1.));
#1159=DIRECTION('ref_axis',(-1.,0.,0.));
#1160=DIRECTION('center_axis',(0.,0.,-1.));
#1161=DIRECTION('ref_axis',(-1.,0.,0.));
#1162=DIRECTION('',(0.,0.,1.));
#1163=DIRECTION('center_axis',(0.,0.,-1.));
#1164=DIRECTION('ref_axis',(-1.,0.,0.));
#1165=DIRECTION('center_axis',(0.,-1.,-6.12323399573676E-17));
#1166=DIRECTION('ref_axis',(-1.,0.,0.));
#1167=DIRECTION('center_axis',(0.,0.,-1.));
#1168=DIRECTION('ref_axis',(-1.,0.,0.));
#1169=DIRECTION('center_axis',(0.,-1.,0.));
#1170=DIRECTION('ref_axis',(-1.,0.,0.));
#1171=DIRECTION('center_axis',(0.,-1.,-6.12323399573676E-17));
#1172=DIRECTION('ref_axis',(-1.,0.,0.));
#1173=DIRECTION('',(0.,1.,0.));
#1174=DIRECTION('center_axis',(0.,-1.,-6.12323399573676E-17));
#1175=DIRECTION('ref_axis',(-1.,0.,0.));
#1176=DIRECTION('center_axis',(0.,-1.,-6.12323399573676E-17));
#1177=DIRECTION('ref_axis',(-1.,0.,0.));
#1178=DIRECTION('center_axis',(-1.,0.,0.));
#1179=DIRECTION('ref_axis',(0.,0.,1.));
#1180=DIRECTION('center_axis',(1.,0.,0.));
#1181=DIRECTION('ref_axis',(0.,0.,1.));
#1182=DIRECTION('center_axis',(0.,0.,-1.));
#1183=DIRECTION('ref_axis',(-1.,0.,0.));
#1184=DIRECTION('center_axis',(0.,0.,-1.));
#1185=DIRECTION('ref_axis',(-1.,0.,0.));
#1186=DIRECTION('center_axis',(0.,0.,-1.));
#1187=DIRECTION('ref_axis',(-1.,0.,0.));
#1188=DIRECTION('',(0.,0.,1.));
#1189=DIRECTION('center_axis',(0.,0.,-1.));
#1190=DIRECTION('ref_axis',(-1.,0.,0.));
#1191=DIRECTION('center_axis',(0.,-1.,-6.12323399573676E-17));
#1192=DIRECTION('ref_axis',(-1.,0.,0.));
#1193=DIRECTION('center_axis',(0.,0.,-1.));
#1194=DIRECTION('ref_axis',(-1.,0.,0.));
#1195=DIRECTION('center_axis',(0.,-1.,0.));
#1196=DIRECTION('ref_axis',(-1.,0.,0.));
#1197=DIRECTION('center_axis',(0.,-1.,-6.12323399573676E-17));
#1198=DIRECTION('ref_axis',(-1.,0.,0.));
#1199=DIRECTION('',(0.,1.,0.));
#1200=DIRECTION('center_axis',(0.,-1.,-6.12323399573676E-17));
#1201=DIRECTION('ref_axis',(-1.,0.,0.));
#1202=DIRECTION('center_axis',(0.,-1.,-6.12323399573676E-17));
#1203=DIRECTION('ref_axis',(-1.,0.,0.));
#1204=DIRECTION('center_axis',(-1.,0.,0.));
#1205=DIRECTION('ref_axis',(0.,0.,1.));
#1206=DIRECTION('center_axis',(1.,0.,0.));
#1207=DIRECTION('ref_axis',(0.,0.,1.));
#1208=DIRECTION('center_axis',(0.,0.,-1.));
#1209=DIRECTION('ref_axis',(-1.,0.,0.));
#1210=DIRECTION('center_axis',(0.,0.,-1.));
#1211=DIRECTION('ref_axis',(-1.,0.,0.));
#1212=DIRECTION('center_axis',(0.,0.,-1.));
#1213=DIRECTION('ref_axis',(-1.,0.,0.));
#1214=DIRECTION('',(0.,0.,1.));
#1215=DIRECTION('center_axis',(0.,0.,-1.));
#1216=DIRECTION('ref_axis',(-1.,0.,0.));
#1217=DIRECTION('center_axis',(0.,-1.,-6.12323399573676E-17));
#1218=DIRECTION('ref_axis',(-1.,0.,0.));
#1219=DIRECTION('center_axis',(0.,0.,-1.));
#1220=DIRECTION('ref_axis',(-1.,0.,0.));
#1221=CARTESIAN_POINT('',(0.,0.,0.));
#1222=CARTESIAN_POINT('Origin',(-2.22044604925031E-15,0.,1.));
#1223=CARTESIAN_POINT('',(-12.35,-2.,1.));
#1224=CARTESIAN_POINT('',(-12.35,2.,1.));
#1225=CARTESIAN_POINT('Origin',(-12.35,0.,1.));
#1226=CARTESIAN_POINT('',(-13.35,-2.,1.));
#1227=CARTESIAN_POINT('',(13.35,-2.,1.));
#1228=CARTESIAN_POINT('',(-13.35,2.,1.));
#1229=CARTESIAN_POINT('Origin',(-13.35,0.,1.));
#1230=CARTESIAN_POINT('',(-13.35,2.,1.));
#1231=CARTESIAN_POINT('Origin',(-2.22044604925031E-15,0.,2.));
#1232=CARTESIAN_POINT('',(-12.35,2.,2.));
#1233=CARTESIAN_POINT('',(-12.35,-2.,2.));
#1234=CARTESIAN_POINT('Origin',(-12.35,0.,2.));
#1235=CARTESIAN_POINT('',(-13.35,2.,2.));
#1236=CARTESIAN_POINT('',(-13.35,2.,2.));
#1237=CARTESIAN_POINT('',(-13.35,-2.,2.));
#1238=CARTESIAN_POINT('Origin',(-13.35,0.,2.));
#1239=CARTESIAN_POINT('',(13.35,-2.,2.));
#1240=CARTESIAN_POINT('Origin',(-2.22044604925031E-15,0.,2.));
#1241=CARTESIAN_POINT('',(12.35,-2.,2.));
#1242=CARTESIAN_POINT('',(12.35,2.,2.));
#1243=CARTESIAN_POINT('Origin',(12.35,0.,2.));
#1244=CARTESIAN_POINT('',(13.35,-2.,2.));
#1245=CARTESIAN_POINT('',(13.35,-2.,2.));
#1246=CARTESIAN_POINT('',(13.35,2.,2.));
#1247=CARTESIAN_POINT('Origin',(13.35,0.,2.));
#1248=CARTESIAN_POINT('',(-13.35,2.,2.));
#1249=CARTESIAN_POINT('Origin',(13.35,0.,1.));
#1250=CARTESIAN_POINT('',(13.35,2.,1.));
#1251=CARTESIAN_POINT('',(13.35,-2.,1.));
#1252=CARTESIAN_POINT('Origin',(13.35,0.,1.));
#1253=CARTESIAN_POINT('',(13.35,2.,1.));
#1254=CARTESIAN_POINT('',(13.35,-2.,1.));
#1255=CARTESIAN_POINT('Origin',(-13.35,0.,1.));
#1256=CARTESIAN_POINT('',(-13.35,-2.,1.));
#1257=CARTESIAN_POINT('',(-13.35,2.,1.));
#1258=CARTESIAN_POINT('Origin',(-2.22044604925031E-15,0.,1.));
#1259=CARTESIAN_POINT('',(12.35,2.,1.));
#1260=CARTESIAN_POINT('',(12.35,-2.,1.));
#1261=CARTESIAN_POINT('Origin',(12.35,0.,1.));
#1262=CARTESIAN_POINT('',(-13.35,2.,1.));
#1263=CARTESIAN_POINT('',(13.35,-2.,1.));
#1264=CARTESIAN_POINT('Origin',(12.35,2.,0.));
#1265=CARTESIAN_POINT('',(12.35,2.,0.));
#1266=CARTESIAN_POINT('',(12.35,2.,0.));
#1267=CARTESIAN_POINT('',(-12.35,2.,0.));
#1268=CARTESIAN_POINT('',(12.35,2.,0.));
#1269=CARTESIAN_POINT('',(-12.35,2.,0.));
#1270=CARTESIAN_POINT('',(-12.35,2.,4.));
#1271=CARTESIAN_POINT('',(-12.35,2.,0.));
#1272=CARTESIAN_POINT('',(12.35,2.,4.));
#1273=CARTESIAN_POINT('',(12.35,2.,4.));
#1274=CARTESIAN_POINT('',(12.35,2.,0.));
#1275=CARTESIAN_POINT('Origin',(12.35,0.,0.));
#1276=CARTESIAN_POINT('',(12.35,-2.,0.));
#1277=CARTESIAN_POINT('',(12.35,-2.,0.));
#1278=CARTESIAN_POINT('Origin',(12.35,0.,0.));
#1279=CARTESIAN_POINT('Origin',(-12.35,0.,0.));
#1280=CARTESIAN_POINT('',(-12.35,-2.,4.));
#1281=CARTESIAN_POINT('',(-12.35,-2.,0.));
#1282=CARTESIAN_POINT('Origin',(-12.35,0.,4.));
#1283=CARTESIAN_POINT('Origin',(12.35,0.,0.));
#1284=CARTESIAN_POINT('',(12.35,-2.,4.));
#1285=CARTESIAN_POINT('Origin',(12.35,0.,4.));
#1286=CARTESIAN_POINT('',(12.35,-2.,0.));
#1287=CARTESIAN_POINT('Origin',(-12.35,-2.,0.));
#1288=CARTESIAN_POINT('',(-12.35,-2.,4.));
#1289=CARTESIAN_POINT('',(-12.35,-2.,0.));
#1290=CARTESIAN_POINT('',(-12.35,-2.,0.));
#1291=CARTESIAN_POINT('',(-12.35,-2.,0.));
#1292=CARTESIAN_POINT('Origin',(-12.35,0.,0.));
#1293=CARTESIAN_POINT('Origin',(-12.35,0.,0.));
#1294=CARTESIAN_POINT('Origin',(0.,0.,4.));
#1295=CARTESIAN_POINT('Origin',(0.,0.,0.));
#1296=CARTESIAN_POINT('Origin',(8.89,-0.999999977648258,-1.64999996311963));
#1297=CARTESIAN_POINT('',(9.24,-3.64999997764826,-1.64999996311963));
#1298=CARTESIAN_POINT('Origin',(8.89,-3.64999997764826,-1.64999996311963));
#1299=CARTESIAN_POINT('',(9.24,-0.999999977648258,-1.64999996311963));
#1300=CARTESIAN_POINT('',(9.24,-0.999999977648258,-1.64999996311963));
#1301=CARTESIAN_POINT('',(8.89,-0.999999977648258,-1.29999996311963));
#1302=CARTESIAN_POINT('Origin',(8.89,-0.999999977648258,-1.64999996311963));
#1303=CARTESIAN_POINT('Origin',(8.89,-0.999999977648258,-1.64999996311963));
#1304=CARTESIAN_POINT('Origin',(8.89,-0.999999977648258,-0.649999985471368));
#1305=CARTESIAN_POINT('',(8.89,-0.35,-0.649999985471368));
#1306=CARTESIAN_POINT('Origin',(8.89,-0.999999977648258,-0.649999985471368));
#1307=CARTESIAN_POINT('',(9.24,-4.28626379701574E-17,-0.649999985471368));
#1308=CARTESIAN_POINT('Origin',(8.89,0.,-0.649999985471368));
#1309=CARTESIAN_POINT('Origin',(8.89,0.,-0.649999985471368));
#1310=CARTESIAN_POINT('Origin',(8.89,0.,4.99999991059303));
#1311=CARTESIAN_POINT('',(9.24,-4.28626379701574E-17,4.99999991059303));
#1312=CARTESIAN_POINT('',(9.24,-4.28626379701574E-17,4.99999991059303));
#1313=CARTESIAN_POINT('Origin',(8.89,0.,4.99999991059303));
#1314=CARTESIAN_POINT('Origin',(8.89,-3.64999997764826,-1.64999996311963));
#1315=CARTESIAN_POINT('Origin',(8.89,0.,4.99999991059303));
#1316=CARTESIAN_POINT('Origin',(6.35,-0.999999977648258,-1.64999996311963));
#1317=CARTESIAN_POINT('',(6.7,-3.64999997764826,-1.64999996311963));
#1318=CARTESIAN_POINT('Origin',(6.35,-3.64999997764826,-1.64999996311963));
#1319=CARTESIAN_POINT('',(6.7,-0.999999977648258,-1.64999996311963));
#1320=CARTESIAN_POINT('',(6.7,-0.999999977648258,-1.64999996311963));
#1321=CARTESIAN_POINT('',(6.35,-0.999999977648258,-1.29999996311963));
#1322=CARTESIAN_POINT('Origin',(6.35,-0.999999977648258,-1.64999996311963));
#1323=CARTESIAN_POINT('Origin',(6.35,-0.999999977648258,-1.64999996311963));
#1324=CARTESIAN_POINT('Origin',(6.35,-0.999999977648258,-0.649999985471368));
#1325=CARTESIAN_POINT('',(6.35,-0.35,-0.649999985471368));
#1326=CARTESIAN_POINT('Origin',(6.35,-0.999999977648258,-0.649999985471368));
#1327=CARTESIAN_POINT('',(6.7,-4.28626379701574E-17,-0.649999985471368));
#1328=CARTESIAN_POINT('Origin',(6.35,0.,-0.649999985471368));
#1329=CARTESIAN_POINT('Origin',(6.35,0.,-0.649999985471368));
#1330=CARTESIAN_POINT('Origin',(6.35,0.,4.99999991059303));
#1331=CARTESIAN_POINT('',(6.7,-4.28626379701574E-17,4.99999991059303));
#1332=CARTESIAN_POINT('',(6.7,-4.28626379701574E-17,4.99999991059303));
#1333=CARTESIAN_POINT('Origin',(6.35,0.,4.99999991059303));
#1334=CARTESIAN_POINT('Origin',(6.35,-3.64999997764826,-1.64999996311963));
#1335=CARTESIAN_POINT('Origin',(6.35,0.,4.99999991059303));
#1336=CARTESIAN_POINT('Origin',(3.81,-0.999999977648258,-1.64999996311963));
#1337=CARTESIAN_POINT('',(4.16,-3.64999997764826,-1.64999996311963));
#1338=CARTESIAN_POINT('Origin',(3.81,-3.64999997764826,-1.64999996311963));
#1339=CARTESIAN_POINT('',(4.16,-0.999999977648258,-1.64999996311963));
#1340=CARTESIAN_POINT('',(4.16,-0.999999977648258,-1.64999996311963));
#1341=CARTESIAN_POINT('',(3.81,-0.999999977648258,-1.29999996311963));
#1342=CARTESIAN_POINT('Origin',(3.81,-0.999999977648258,-1.64999996311963));
#1343=CARTESIAN_POINT('Origin',(3.81,-0.999999977648258,-1.64999996311963));
#1344=CARTESIAN_POINT('Origin',(3.81,-0.999999977648258,-0.649999985471368));
#1345=CARTESIAN_POINT('',(3.81,-0.35,-0.649999985471368));
#1346=CARTESIAN_POINT('Origin',(3.81,-0.999999977648258,-0.649999985471368));
#1347=CARTESIAN_POINT('',(4.16,-4.28626379701574E-17,-0.649999985471368));
#1348=CARTESIAN_POINT('Origin',(3.81,0.,-0.649999985471368));
#1349=CARTESIAN_POINT('Origin',(3.81,0.,-0.649999985471368));
#1350=CARTESIAN_POINT('Origin',(3.81,0.,4.99999991059303));
#1351=CARTESIAN_POINT('',(4.16,-4.28626379701574E-17,4.99999991059303));
#1352=CARTESIAN_POINT('',(4.16,-4.28626379701574E-17,4.99999991059303));
#1353=CARTESIAN_POINT('Origin',(3.81,0.,4.99999991059303));
#1354=CARTESIAN_POINT('Origin',(3.81,-3.64999997764826,-1.64999996311963));
#1355=CARTESIAN_POINT('Origin',(3.81,0.,4.99999991059303));
#1356=CARTESIAN_POINT('Origin',(1.27,-0.999999977648258,-1.64999996311963));
#1357=CARTESIAN_POINT('',(1.62,-3.64999997764826,-1.64999996311963));
#1358=CARTESIAN_POINT('Origin',(1.27,-3.64999997764826,-1.64999996311963));
#1359=CARTESIAN_POINT('',(1.62,-0.999999977648258,-1.64999996311963));
#1360=CARTESIAN_POINT('',(1.62,-0.999999977648258,-1.64999996311963));
#1361=CARTESIAN_POINT('',(1.27,-0.999999977648258,-1.29999996311963));
#1362=CARTESIAN_POINT('Origin',(1.27,-0.999999977648258,-1.64999996311963));
#1363=CARTESIAN_POINT('Origin',(1.27,-0.999999977648258,-1.64999996311963));
#1364=CARTESIAN_POINT('Origin',(1.27,-0.999999977648258,-0.649999985471368));
#1365=CARTESIAN_POINT('',(1.27,-0.35,-0.649999985471368));
#1366=CARTESIAN_POINT('Origin',(1.27,-0.999999977648258,-0.649999985471368));
#1367=CARTESIAN_POINT('',(1.62,-4.28626379701574E-17,-0.649999985471368));
#1368=CARTESIAN_POINT('Origin',(1.27,0.,-0.649999985471368));
#1369=CARTESIAN_POINT('Origin',(1.27,0.,-0.649999985471368));
#1370=CARTESIAN_POINT('Origin',(1.27,0.,4.99999991059303));
#1371=CARTESIAN_POINT('',(1.62,-4.28626379701574E-17,4.99999991059303));
#1372=CARTESIAN_POINT('',(1.62,-4.28626379701574E-17,4.99999991059303));
#1373=CARTESIAN_POINT('Origin',(1.27,0.,4.99999991059303));
#1374=CARTESIAN_POINT('Origin',(1.27,-3.64999997764826,-1.64999996311963));
#1375=CARTESIAN_POINT('Origin',(1.27,0.,4.99999991059303));
#1376=CARTESIAN_POINT('Origin',(-1.27,-0.999999977648258,-1.64999996311963));
#1377=CARTESIAN_POINT('',(-0.919999999999999,-3.64999997764826,-1.64999996311963));
#1378=CARTESIAN_POINT('Origin',(-1.27,-3.64999997764826,-1.64999996311963));
#1379=CARTESIAN_POINT('',(-0.919999999999999,-0.999999977648258,-1.64999996311963));
#1380=CARTESIAN_POINT('',(-0.919999999999999,-0.999999977648258,-1.64999996311963));
#1381=CARTESIAN_POINT('',(-1.27,-0.999999977648258,-1.29999996311963));
#1382=CARTESIAN_POINT('Origin',(-1.27,-0.999999977648258,-1.64999996311963));
#1383=CARTESIAN_POINT('Origin',(-1.27,-0.999999977648258,-1.64999996311963));
#1384=CARTESIAN_POINT('Origin',(-1.27,-0.999999977648258,-0.649999985471368));
#1385=CARTESIAN_POINT('',(-1.27,-0.35,-0.649999985471368));
#1386=CARTESIAN_POINT('Origin',(-1.27,-0.999999977648258,-0.649999985471368));
#1387=CARTESIAN_POINT('',(-0.919999999999999,-4.28626379701574E-17,-0.649999985471368));
#1388=CARTESIAN_POINT('Origin',(-1.27,0.,-0.649999985471368));
#1389=CARTESIAN_POINT('Origin',(-1.27,0.,-0.649999985471368));
#1390=CARTESIAN_POINT('Origin',(-1.27,0.,4.99999991059303));
#1391=CARTESIAN_POINT('',(-0.919999999999999,-4.28626379701574E-17,4.99999991059303));
#1392=CARTESIAN_POINT('',(-0.919999999999999,-4.28626379701574E-17,4.99999991059303));
#1393=CARTESIAN_POINT('Origin',(-1.27,0.,4.99999991059303));
#1394=CARTESIAN_POINT('Origin',(-1.27,-3.64999997764826,-1.64999996311963));
#1395=CARTESIAN_POINT('Origin',(-1.27,0.,4.99999991059303));
#1396=CARTESIAN_POINT('Origin',(-3.81,-0.999999977648258,-1.64999996311963));
#1397=CARTESIAN_POINT('',(-3.46,-3.64999997764826,-1.64999996311963));
#1398=CARTESIAN_POINT('Origin',(-3.81,-3.64999997764826,-1.64999996311963));
#1399=CARTESIAN_POINT('',(-3.46,-0.999999977648258,-1.64999996311963));
#1400=CARTESIAN_POINT('',(-3.46,-0.999999977648258,-1.64999996311963));
#1401=CARTESIAN_POINT('',(-3.81,-0.999999977648258,-1.29999996311963));
#1402=CARTESIAN_POINT('Origin',(-3.81,-0.999999977648258,-1.64999996311963));
#1403=CARTESIAN_POINT('Origin',(-3.81,-0.999999977648258,-1.64999996311963));
#1404=CARTESIAN_POINT('Origin',(-3.81,-0.999999977648258,-0.649999985471368));
#1405=CARTESIAN_POINT('',(-3.81,-0.35,-0.649999985471368));
#1406=CARTESIAN_POINT('Origin',(-3.81,-0.999999977648258,-0.649999985471368));
#1407=CARTESIAN_POINT('',(-3.46,-4.28626379701574E-17,-0.649999985471368));
#1408=CARTESIAN_POINT('Origin',(-3.81,0.,-0.649999985471368));
#1409=CARTESIAN_POINT('Origin',(-3.81,0.,-0.649999985471368));
#1410=CARTESIAN_POINT('Origin',(-3.81,0.,4.99999991059303));
#1411=CARTESIAN_POINT('',(-3.46,-4.28626379701574E-17,4.99999991059303));
#1412=CARTESIAN_POINT('',(-3.46,-4.28626379701574E-17,4.99999991059303));
#1413=CARTESIAN_POINT('Origin',(-3.81,0.,4.99999991059303));
#1414=CARTESIAN_POINT('Origin',(-3.81,-3.64999997764826,-1.64999996311963));
#1415=CARTESIAN_POINT('Origin',(-3.81,0.,4.99999991059303));
#1416=CARTESIAN_POINT('Origin',(-6.35,-0.999999977648258,-1.64999996311963));
#1417=CARTESIAN_POINT('',(-6.,-3.64999997764826,-1.64999996311963));
#1418=CARTESIAN_POINT('Origin',(-6.35,-3.64999997764826,-1.64999996311963));
#1419=CARTESIAN_POINT('',(-6.,-0.999999977648258,-1.64999996311963));
#1420=CARTESIAN_POINT('',(-6.,-0.999999977648258,-1.64999996311963));
#1421=CARTESIAN_POINT('',(-6.35,-0.999999977648258,-1.29999996311963));
#1422=CARTESIAN_POINT('Origin',(-6.35,-0.999999977648258,-1.64999996311963));
#1423=CARTESIAN_POINT('Origin',(-6.35,-0.999999977648258,-1.64999996311963));
#1424=CARTESIAN_POINT('Origin',(-6.35,-0.999999977648258,-0.649999985471368));
#1425=CARTESIAN_POINT('',(-6.35,-0.35,-0.649999985471368));
#1426=CARTESIAN_POINT('Origin',(-6.35,-0.999999977648258,-0.649999985471368));
#1427=CARTESIAN_POINT('',(-6.,-4.28626379701574E-17,-0.649999985471368));
#1428=CARTESIAN_POINT('Origin',(-6.35,0.,-0.649999985471368));
#1429=CARTESIAN_POINT('Origin',(-6.35,0.,-0.649999985471368));
#1430=CARTESIAN_POINT('Origin',(-6.35,0.,4.99999991059303));
#1431=CARTESIAN_POINT('',(-6.,-4.28626379701574E-17,4.99999991059303));
#1432=CARTESIAN_POINT('',(-6.,-4.28626379701574E-17,4.99999991059303));
#1433=CARTESIAN_POINT('Origin',(-6.35,0.,4.99999991059303));
#1434=CARTESIAN_POINT('Origin',(-6.35,-3.64999997764826,-1.64999996311963));
#1435=CARTESIAN_POINT('Origin',(-6.35,0.,4.99999991059303));
#1436=CARTESIAN_POINT('Origin',(-8.89,-0.999999977648258,-1.64999996311963));
#1437=CARTESIAN_POINT('',(-8.54,-3.64999997764826,-1.64999996311963));
#1438=CARTESIAN_POINT('Origin',(-8.89,-3.64999997764826,-1.64999996311963));
#1439=CARTESIAN_POINT('',(-8.54,-0.999999977648258,-1.64999996311963));
#1440=CARTESIAN_POINT('',(-8.54,-0.999999977648258,-1.64999996311963));
#1441=CARTESIAN_POINT('',(-8.89,-0.999999977648258,-1.29999996311963));
#1442=CARTESIAN_POINT('Origin',(-8.89,-0.999999977648258,-1.64999996311963));
#1443=CARTESIAN_POINT('Origin',(-8.89,-0.999999977648258,-1.64999996311963));
#1444=CARTESIAN_POINT('Origin',(-8.89,-0.999999977648258,-0.649999985471368));
#1445=CARTESIAN_POINT('',(-8.89,-0.35,-0.649999985471368));
#1446=CARTESIAN_POINT('Origin',(-8.89,-0.999999977648258,-0.649999985471368));
#1447=CARTESIAN_POINT('',(-8.54,-4.28626379701574E-17,-0.649999985471368));
#1448=CARTESIAN_POINT('Origin',(-8.89,0.,-0.649999985471368));
#1449=CARTESIAN_POINT('Origin',(-8.89,0.,-0.649999985471368));
#1450=CARTESIAN_POINT('Origin',(-8.89,0.,4.99999991059303));
#1451=CARTESIAN_POINT('',(-8.54,-4.28626379701574E-17,4.99999991059303));
#1452=CARTESIAN_POINT('',(-8.54,-4.28626379701574E-17,4.99999991059303));
#1453=CARTESIAN_POINT('Origin',(-8.89,0.,4.99999991059303));
#1454=CARTESIAN_POINT('Origin',(-8.89,-3.64999997764826,-1.64999996311963));
#1455=CARTESIAN_POINT('Origin',(-8.89,0.,4.99999991059303));
#1456=UNCERTAINTY_MEASURE_WITH_UNIT(LENGTH_MEASURE(0.01),#1460,
'DISTANCE_ACCURACY_VALUE',
'Maximum model space distance between geometric entities at asserted c
onnectivities');
#1457=UNCERTAINTY_MEASURE_WITH_UNIT(LENGTH_MEASURE(0.01),#1460,
'DISTANCE_ACCURACY_VALUE',
'Maximum model space distance between geometric entities at asserted c
onnectivities');
#1458=(
GEOMETRIC_REPRESENTATION_CONTEXT(3)
GLOBAL_UNCERTAINTY_ASSIGNED_CONTEXT((#1456))
GLOBAL_UNIT_ASSIGNED_CONTEXT((#1460,#1462,#1463))
REPRESENTATION_CONTEXT('','3D')
);
#1459=(
GEOMETRIC_REPRESENTATION_CONTEXT(3)
GLOBAL_UNCERTAINTY_ASSIGNED_CONTEXT((#1457))
GLOBAL_UNIT_ASSIGNED_CONTEXT((#1460,#1462,#1463))
REPRESENTATION_CONTEXT('','3D')
);
#1460=(
LENGTH_UNIT()
NAMED_UNIT(*)
SI_UNIT(.MILLI.,.METRE.)
);
#1461=(
LENGTH_UNIT()
NAMED_UNIT(*)
SI_UNIT($,.METRE.)
);
#1462=(
NAMED_UNIT(*)
PLANE_ANGLE_UNIT()
SI_UNIT($,.RADIAN.)
);
#1463=(
NAMED_UNIT(*)
SI_UNIT($,.STERADIAN.)
SOLID_ANGLE_UNIT()
);
#1464=SHAPE_DEFINITION_REPRESENTATION(#1465,#1466);
#1465=PRODUCT_DEFINITION_SHAPE('',$,#1468);
#1466=SHAPE_REPRESENTATION('',(#812),#1458);
#1467=PRODUCT_DEFINITION_CONTEXT('part definition',#1472,'design');
#1468=PRODUCT_DEFINITION('2025-11-13-16-57-44-902','Pogo pin connector',
#1469,#1467);
#1469=PRODUCT_DEFINITION_FORMATION('',$,#1474);
#1470=PRODUCT_RELATED_PRODUCT_CATEGORY('Pogo pin connector',
'Pogo pin connector',(#1474));
#1471=APPLICATION_PROTOCOL_DEFINITION('international standard',
'automotive_design',2009,#1472);
#1472=APPLICATION_CONTEXT(
'Core Data for Automotive Mechanical Design Process');
#1473=PRODUCT_CONTEXT('part definition',#1472,'mechanical');
#1474=PRODUCT('2025-11-13-16-57-44-902','Pogo pin connector',$,(#1473));
#1475=PRESENTATION_STYLE_ASSIGNMENT((#1476));
#1476=SURFACE_STYLE_USAGE(.BOTH.,#1477);
#1477=SURFACE_SIDE_STYLE('',(#1478));
#1478=SURFACE_STYLE_FILL_AREA(#1479);
#1479=FILL_AREA_STYLE('Steel - Satin',(#1480));
#1480=FILL_AREA_STYLE_COLOUR('Steel - Satin',#1481);
#1481=COLOUR_RGB('Steel - Satin',0.627450980392157,0.627450980392157,0.627450980392157);
ENDSEC;
END-ISO-10303-21;
