ISO-10303-21;
HEADER;
/* Generated by software containing ST-Developer
 * from STEP Tools, Inc. (www.steptools.com) 
 */

FILE_DESCRIPTION(
/* description */ (''),
/* implementation_level */ '2;1');

FILE_NAME(
/* name */ 'Quad light top.step',
/* time_stamp */ '2026-04-27T15:49:43+01:00',
/* author */ (''),
/* organization */ (''),
/* preprocessor_version */ 'ST-DEVELOPER v20.1',
/* originating_system */ 'Autodesk Translation Framework v14.24.0.0',
/* authorisation */ '');

FILE_SCHEMA (('AUTOMOTIVE_DESIGN { 1 0 10303 214 3 1 1 }'));
ENDSEC;

DATA;
#10=MECHANICAL_DESIGN_GEOMETRIC_PRESENTATION_REPRESENTATION('',(#13),#1505);
#11=SHAPE_REPRESENTATION_RELATIONSHIP('SRR','None',#1511,#12);
#12=ADVANCED_BREP_SHAPE_REPRESENTATION('',(#14),#1504);
#13=STYLED_ITEM('',(#1520),#14);
#14=MANIFOLD_SOLID_BREP('Body1',#893);
#15=FACE_BOUND('',#116,.T.);
#16=FACE_BOUND('',#119,.T.);
#17=FACE_BOUND('',#122,.T.);
#18=FACE_BOUND('',#125,.T.);
#19=FACE_BOUND('',#132,.T.);
#20=FACE_BOUND('',#133,.T.);
#21=FACE_BOUND('',#134,.T.);
#22=FACE_BOUND('',#135,.T.);
#23=FACE_BOUND('',#141,.T.);
#24=FACE_BOUND('',#145,.T.);
#25=FACE_BOUND('',#147,.T.);
#26=FACE_BOUND('',#149,.T.);
#27=FACE_BOUND('',#151,.T.);
#28=FACE_BOUND('',#164,.T.);
#29=FACE_BOUND('',#165,.T.);
#30=FACE_BOUND('',#166,.T.);
#31=FACE_BOUND('',#167,.T.);
#32=PLANE('',#898);
#33=PLANE('',#903);
#34=PLANE('',#908);
#35=PLANE('',#913);
#36=PLANE('',#926);
#37=PLANE('',#930);
#38=PLANE('',#935);
#39=PLANE('',#936);
#40=PLANE('',#939);
#41=PLANE('',#940);
#42=PLANE('',#943);
#43=PLANE('',#946);
#44=PLANE('',#949);
#45=PLANE('',#954);
#46=PLANE('',#955);
#47=PLANE('',#956);
#48=PLANE('',#959);
#49=PLANE('',#960);
#50=PLANE('',#961);
#51=PLANE('',#962);
#52=PLANE('',#964);
#53=PLANE('',#966);
#54=PLANE('',#968);
#55=PLANE('',#971);
#56=PLANE('',#974);
#57=PLANE('',#975);
#58=PLANE('',#976);
#59=PLANE('',#978);
#60=PLANE('',#979);
#61=PLANE('',#980);
#62=PLANE('',#985);
#63=FACE_OUTER_BOUND('',#114,.T.);
#64=FACE_OUTER_BOUND('',#115,.T.);
#65=FACE_OUTER_BOUND('',#117,.T.);
#66=FACE_OUTER_BOUND('',#118,.T.);
#67=FACE_OUTER_BOUND('',#120,.T.);
#68=FACE_OUTER_BOUND('',#121,.T.);
#69=FACE_OUTER_BOUND('',#123,.T.);
#70=FACE_OUTER_BOUND('',#124,.T.);
#71=FACE_OUTER_BOUND('',#126,.T.);
#72=FACE_OUTER_BOUND('',#127,.T.);
#73=FACE_OUTER_BOUND('',#128,.T.);
#74=FACE_OUTER_BOUND('',#129,.T.);
#75=FACE_OUTER_BOUND('',#130,.T.);
#76=FACE_OUTER_BOUND('',#131,.T.);
#77=FACE_OUTER_BOUND('',#136,.T.);
#78=FACE_OUTER_BOUND('',#137,.T.);
#79=FACE_OUTER_BOUND('',#138,.T.);
#80=FACE_OUTER_BOUND('',#139,.T.);
#81=FACE_OUTER_BOUND('',#140,.T.);
#82=FACE_OUTER_BOUND('',#142,.T.);
#83=FACE_OUTER_BOUND('',#143,.T.);
#84=FACE_OUTER_BOUND('',#144,.T.);
#85=FACE_OUTER_BOUND('',#146,.T.);
#86=FACE_OUTER_BOUND('',#148,.T.);
#87=FACE_OUTER_BOUND('',#150,.T.);
#88=FACE_OUTER_BOUND('',#152,.T.);
#89=FACE_OUTER_BOUND('',#153,.T.);
#90=FACE_OUTER_BOUND('',#154,.T.);
#91=FACE_OUTER_BOUND('',#155,.T.);
#92=FACE_OUTER_BOUND('',#156,.T.);
#93=FACE_OUTER_BOUND('',#157,.T.);
#94=FACE_OUTER_BOUND('',#158,.T.);
#95=FACE_OUTER_BOUND('',#159,.T.);
#96=FACE_OUTER_BOUND('',#160,.T.);
#97=FACE_OUTER_BOUND('',#161,.T.);
#98=FACE_OUTER_BOUND('',#162,.T.);
#99=FACE_OUTER_BOUND('',#163,.T.);
#100=FACE_OUTER_BOUND('',#168,.T.);
#101=FACE_OUTER_BOUND('',#169,.T.);
#102=FACE_OUTER_BOUND('',#170,.T.);
#103=FACE_OUTER_BOUND('',#171,.T.);
#104=FACE_OUTER_BOUND('',#172,.T.);
#105=FACE_OUTER_BOUND('',#173,.T.);
#106=FACE_OUTER_BOUND('',#174,.T.);
#107=FACE_OUTER_BOUND('',#175,.T.);
#108=FACE_OUTER_BOUND('',#176,.T.);
#109=FACE_OUTER_BOUND('',#177,.T.);
#110=FACE_OUTER_BOUND('',#178,.T.);
#111=FACE_OUTER_BOUND('',#179,.T.);
#112=FACE_OUTER_BOUND('',#180,.T.);
#113=FACE_OUTER_BOUND('',#181,.T.);
#114=EDGE_LOOP('',(#582,#583,#584,#585));
#115=EDGE_LOOP('',(#586));
#116=EDGE_LOOP('',(#587));
#117=EDGE_LOOP('',(#588,#589,#590,#591));
#118=EDGE_LOOP('',(#592));
#119=EDGE_LOOP('',(#593));
#120=EDGE_LOOP('',(#594,#595,#596,#597));
#121=EDGE_LOOP('',(#598));
#122=EDGE_LOOP('',(#599));
#123=EDGE_LOOP('',(#600,#601,#602,#603));
#124=EDGE_LOOP('',(#604));
#125=EDGE_LOOP('',(#605));
#126=EDGE_LOOP('',(#606,#607,#608,#609));
#127=EDGE_LOOP('',(#610,#611,#612,#613));
#128=EDGE_LOOP('',(#614,#615,#616,#617));
#129=EDGE_LOOP('',(#618,#619,#620,#621));
#130=EDGE_LOOP('',(#622,#623,#624,#625));
#131=EDGE_LOOP('',(#626,#627,#628,#629,#630,#631,#632,#633));
#132=EDGE_LOOP('',(#634));
#133=EDGE_LOOP('',(#635));
#134=EDGE_LOOP('',(#636));
#135=EDGE_LOOP('',(#637));
#136=EDGE_LOOP('',(#638,#639,#640,#641));
#137=EDGE_LOOP('',(#642,#643,#644,#645));
#138=EDGE_LOOP('',(#646,#647,#648,#649));
#139=EDGE_LOOP('',(#650,#651,#652,#653));
#140=EDGE_LOOP('',(#654,#655,#656,#657,#658,#659,#660,#661));
#141=EDGE_LOOP('',(#662,#663,#664,#665));
#142=EDGE_LOOP('',(#666,#667,#668,#669));
#143=EDGE_LOOP('',(#670,#671,#672,#673));
#144=EDGE_LOOP('',(#674,#675,#676,#677,#678));
#145=EDGE_LOOP('',(#679));
#146=EDGE_LOOP('',(#680,#681,#682,#683,#684));
#147=EDGE_LOOP('',(#685));
#148=EDGE_LOOP('',(#686,#687,#688,#689,#690));
#149=EDGE_LOOP('',(#691));
#150=EDGE_LOOP('',(#692,#693,#694,#695,#696));
#151=EDGE_LOOP('',(#697));
#152=EDGE_LOOP('',(#698,#699,#700,#701));
#153=EDGE_LOOP('',(#702,#703,#704,#705));
#154=EDGE_LOOP('',(#706,#707,#708,#709,#710,#711,#712,#713));
#155=EDGE_LOOP('',(#714,#715,#716,#717));
#156=EDGE_LOOP('',(#718,#719,#720,#721));
#157=EDGE_LOOP('',(#722,#723,#724,#725));
#158=EDGE_LOOP('',(#726,#727,#728,#729,#730,#731,#732,#733));
#159=EDGE_LOOP('',(#734,#735,#736,#737));
#160=EDGE_LOOP('',(#738));
#161=EDGE_LOOP('',(#739));
#162=EDGE_LOOP('',(#740));
#163=EDGE_LOOP('',(#741,#742,#743,#744,#745,#746,#747,#748,#749,#750,#751,
#752,#753,#754,#755,#756));
#164=EDGE_LOOP('',(#757));
#165=EDGE_LOOP('',(#758));
#166=EDGE_LOOP('',(#759));
#167=EDGE_LOOP('',(#760));
#168=EDGE_LOOP('',(#761));
#169=EDGE_LOOP('',(#762,#763,#764,#765));
#170=EDGE_LOOP('',(#766,#767,#768,#769));
#171=EDGE_LOOP('',(#770,#771,#772,#773,#774,#775,#776,#777));
#172=EDGE_LOOP('',(#778,#779,#780,#781));
#173=EDGE_LOOP('',(#782,#783,#784,#785));
#174=EDGE_LOOP('',(#786,#787,#788,#789));
#175=EDGE_LOOP('',(#790,#791,#792,#793,#794,#795,#796,#797));
#176=EDGE_LOOP('',(#798,#799,#800,#801));
#177=EDGE_LOOP('',(#802,#803,#804,#805));
#178=EDGE_LOOP('',(#806,#807,#808,#809));
#179=EDGE_LOOP('',(#810,#811,#812,#813));
#180=EDGE_LOOP('',(#814,#815,#816,#817));
#181=EDGE_LOOP('',(#818,#819,#820,#821));
#182=LINE('',#1255,#262);
#183=LINE('',#1264,#263);
#184=LINE('',#1273,#264);
#185=LINE('',#1282,#265);
#186=LINE('',#1290,#266);
#187=LINE('',#1294,#267);
#188=LINE('',#1298,#268);
#189=LINE('',#1302,#269);
#190=LINE('',#1308,#270);
#191=LINE('',#1311,#271);
#192=LINE('',#1314,#272);
#193=LINE('',#1318,#273);
#194=LINE('',#1322,#274);
#195=LINE('',#1325,#275);
#196=LINE('',#1328,#276);
#197=LINE('',#1329,#277);
#198=LINE('',#1333,#278);
#199=LINE('',#1336,#279);
#200=LINE('',#1339,#280);
#201=LINE('',#1342,#281);
#202=LINE('',#1343,#282);
#203=LINE('',#1346,#283);
#204=LINE('',#1348,#284);
#205=LINE('',#1351,#285);
#206=LINE('',#1353,#286);
#207=LINE('',#1355,#287);
#208=LINE('',#1356,#288);
#209=LINE('',#1358,#289);
#210=LINE('',#1363,#290);
#211=LINE('',#1365,#291);
#212=LINE('',#1367,#292);
#213=LINE('',#1370,#293);
#214=LINE('',#1376,#294);
#215=LINE('',#1378,#295);
#216=LINE('',#1380,#296);
#217=LINE('',#1383,#297);
#218=LINE('',#1389,#298);
#219=LINE('',#1391,#299);
#220=LINE('',#1395,#300);
#221=LINE('',#1396,#301);
#222=LINE('',#1402,#302);
#223=LINE('',#1404,#303);
#224=LINE('',#1408,#304);
#225=LINE('',#1409,#305);
#226=LINE('',#1414,#306);
#227=LINE('',#1417,#307);
#228=LINE('',#1420,#308);
#229=LINE('',#1421,#309);
#230=LINE('',#1424,#310);
#231=LINE('',#1425,#311);
#232=LINE('',#1426,#312);
#233=LINE('',#1427,#313);
#234=LINE('',#1430,#314);
#235=LINE('',#1431,#315);
#236=LINE('',#1434,#316);
#237=LINE('',#1438,#317);
#238=LINE('',#1439,#318);
#239=LINE('',#1442,#319);
#240=LINE('',#1443,#320);
#241=LINE('',#1444,#321);
#242=LINE('',#1447,#322);
#243=LINE('',#1448,#323);
#244=LINE('',#1462,#324);
#245=LINE('',#1464,#325);
#246=LINE('',#1466,#326);
#247=LINE('',#1470,#327);
#248=LINE('',#1472,#328);
#249=LINE('',#1473,#329);
#250=LINE('',#1478,#330);
#251=LINE('',#1480,#331);
#252=LINE('',#1482,#332);
#253=LINE('',#1483,#333);
#254=LINE('',#1485,#334);
#255=LINE('',#1487,#335);
#256=LINE('',#1489,#336);
#257=LINE('',#1491,#337);
#258=LINE('',#1493,#338);
#259=LINE('',#1496,#339);
#260=LINE('',#1498,#340);
#261=LINE('',#1500,#341);
#262=VECTOR('',#992,8.00000011920928);
#263=VECTOR('',#1003,8.00000011920929);
#264=VECTOR('',#1014,8.0000001192093);
#265=VECTOR('',#1025,8.0000001192093);
#266=VECTOR('',#1036,6.);
#267=VECTOR('',#1041,6.);
#268=VECTOR('',#1046,6.);
#269=VECTOR('',#1051,6.);
#270=VECTOR('',#1056,10.);
#271=VECTOR('',#1059,10.);
#272=VECTOR('',#1062,10.);
#273=VECTOR('',#1065,10.);
#274=VECTOR('',#1068,10.);
#275=VECTOR('',#1071,10.);
#276=VECTOR('',#1074,10.);
#277=VECTOR('',#1075,10.);
#278=VECTOR('',#1080,10.);
#279=VECTOR('',#1083,10.);
#280=VECTOR('',#1086,10.);
#281=VECTOR('',#1089,10.);
#282=VECTOR('',#1090,10.);
#283=VECTOR('',#1093,10.);
#284=VECTOR('',#1096,10.);
#285=VECTOR('',#1097,10.);
#286=VECTOR('',#1098,10.);
#287=VECTOR('',#1099,10.);
#288=VECTOR('',#1100,10.);
#289=VECTOR('',#1103,10.);
#290=VECTOR('',#1108,10.);
#291=VECTOR('',#1109,10.);
#292=VECTOR('',#1110,10.);
#293=VECTOR('',#1113,10.);
#294=VECTOR('',#1118,10.);
#295=VECTOR('',#1119,10.);
#296=VECTOR('',#1120,10.);
#297=VECTOR('',#1123,10.);
#298=VECTOR('',#1128,10.);
#299=VECTOR('',#1129,10.);
#300=VECTOR('',#1132,10.);
#301=VECTOR('',#1133,10.);
#302=VECTOR('',#1138,10.);
#303=VECTOR('',#1139,10.);
#304=VECTOR('',#1142,10.);
#305=VECTOR('',#1143,10.);
#306=VECTOR('',#1148,10.);
#307=VECTOR('',#1151,10.);
#308=VECTOR('',#1154,10.);
#309=VECTOR('',#1155,10.);
#310=VECTOR('',#1158,10.);
#311=VECTOR('',#1159,10.);
#312=VECTOR('',#1160,10.);
#313=VECTOR('',#1161,10.);
#314=VECTOR('',#1164,10.);
#315=VECTOR('',#1165,10.);
#316=VECTOR('',#1168,10.);
#317=VECTOR('',#1173,10.);
#318=VECTOR('',#1174,10.);
#319=VECTOR('',#1177,10.);
#320=VECTOR('',#1178,10.);
#321=VECTOR('',#1179,10.);
#322=VECTOR('',#1182,10.);
#323=VECTOR('',#1183,10.);
#324=VECTOR('',#1200,10.);
#325=VECTOR('',#1201,10.);
#326=VECTOR('',#1202,10.);
#327=VECTOR('',#1205,10.);
#328=VECTOR('',#1206,10.);
#329=VECTOR('',#1207,10.);
#330=VECTOR('',#1214,1.55);
#331=VECTOR('',#1217,10.);
#332=VECTOR('',#1220,10.);
#333=VECTOR('',#1221,10.);
#334=VECTOR('',#1224,10.);
#335=VECTOR('',#1227,10.);
#336=VECTOR('',#1230,10.);
#337=VECTOR('',#1233,10.);
#338=VECTOR('',#1236,10.);
#339=VECTOR('',#1241,1.55);
#340=VECTOR('',#1244,1.55);
#341=VECTOR('',#1247,1.55);
#342=CIRCLE('',#896,8.00000011920928);
#343=CIRCLE('',#897,8.00000011920928);
#344=CIRCLE('',#899,6.);
#345=CIRCLE('',#901,8.00000011920929);
#346=CIRCLE('',#902,8.00000011920929);
#347=CIRCLE('',#904,6.);
#348=CIRCLE('',#906,8.0000001192093);
#349=CIRCLE('',#907,8.0000001192093);
#350=CIRCLE('',#909,6.);
#351=CIRCLE('',#911,8.0000001192093);
#352=CIRCLE('',#912,8.0000001192093);
#353=CIRCLE('',#914,6.);
#354=CIRCLE('',#916,6.);
#355=CIRCLE('',#918,6.);
#356=CIRCLE('',#920,6.);
#357=CIRCLE('',#922,6.);
#358=CIRCLE('',#924,2.);
#359=CIRCLE('',#925,2.);
#360=CIRCLE('',#927,2.);
#361=CIRCLE('',#928,2.);
#362=CIRCLE('',#929,2.);
#363=CIRCLE('',#932,2.);
#364=CIRCLE('',#934,2.);
#365=CIRCLE('',#937,2.);
#366=CIRCLE('',#941,5.00000007450581);
#367=CIRCLE('',#942,1.55);
#368=CIRCLE('',#944,5.00000007450581);
#369=CIRCLE('',#945,1.55);
#370=CIRCLE('',#947,5.00000007450581);
#371=CIRCLE('',#948,1.55);
#372=CIRCLE('',#950,5.00000007450581);
#373=CIRCLE('',#951,1.55);
#374=CIRCLE('',#953,5.00000007450581);
#375=CIRCLE('',#958,5.00000007450581);
#376=CIRCLE('',#963,1.55);
#377=CIRCLE('',#965,1.55);
#378=CIRCLE('',#967,1.55);
#379=CIRCLE('',#969,5.00000007450581);
#380=CIRCLE('',#970,5.00000007450581);
#381=CIRCLE('',#972,1.55);
#382=VERTEX_POINT('',#1252);
#383=VERTEX_POINT('',#1254);
#384=VERTEX_POINT('',#1258);
#385=VERTEX_POINT('',#1261);
#386=VERTEX_POINT('',#1263);
#387=VERTEX_POINT('',#1267);
#388=VERTEX_POINT('',#1270);
#389=VERTEX_POINT('',#1272);
#390=VERTEX_POINT('',#1276);
#391=VERTEX_POINT('',#1279);
#392=VERTEX_POINT('',#1281);
#393=VERTEX_POINT('',#1285);
#394=VERTEX_POINT('',#1288);
#395=VERTEX_POINT('',#1292);
#396=VERTEX_POINT('',#1296);
#397=VERTEX_POINT('',#1300);
#398=VERTEX_POINT('',#1304);
#399=VERTEX_POINT('',#1305);
#400=VERTEX_POINT('',#1307);
#401=VERTEX_POINT('',#1309);
#402=VERTEX_POINT('',#1313);
#403=VERTEX_POINT('',#1315);
#404=VERTEX_POINT('',#1317);
#405=VERTEX_POINT('',#1319);
#406=VERTEX_POINT('',#1321);
#407=VERTEX_POINT('',#1323);
#408=VERTEX_POINT('',#1327);
#409=VERTEX_POINT('',#1331);
#410=VERTEX_POINT('',#1335);
#411=VERTEX_POINT('',#1337);
#412=VERTEX_POINT('',#1341);
#413=VERTEX_POINT('',#1345);
#414=VERTEX_POINT('',#1349);
#415=VERTEX_POINT('',#1350);
#416=VERTEX_POINT('',#1352);
#417=VERTEX_POINT('',#1354);
#418=VERTEX_POINT('',#1361);
#419=VERTEX_POINT('',#1362);
#420=VERTEX_POINT('',#1364);
#421=VERTEX_POINT('',#1366);
#422=VERTEX_POINT('',#1368);
#423=VERTEX_POINT('',#1371);
#424=VERTEX_POINT('',#1374);
#425=VERTEX_POINT('',#1375);
#426=VERTEX_POINT('',#1377);
#427=VERTEX_POINT('',#1379);
#428=VERTEX_POINT('',#1381);
#429=VERTEX_POINT('',#1384);
#430=VERTEX_POINT('',#1387);
#431=VERTEX_POINT('',#1388);
#432=VERTEX_POINT('',#1390);
#433=VERTEX_POINT('',#1392);
#434=VERTEX_POINT('',#1394);
#435=VERTEX_POINT('',#1397);
#436=VERTEX_POINT('',#1400);
#437=VERTEX_POINT('',#1401);
#438=VERTEX_POINT('',#1403);
#439=VERTEX_POINT('',#1405);
#440=VERTEX_POINT('',#1407);
#441=VERTEX_POINT('',#1410);
#442=VERTEX_POINT('',#1413);
#443=VERTEX_POINT('',#1415);
#444=VERTEX_POINT('',#1419);
#445=VERTEX_POINT('',#1423);
#446=VERTEX_POINT('',#1429);
#447=VERTEX_POINT('',#1433);
#448=VERTEX_POINT('',#1437);
#449=VERTEX_POINT('',#1441);
#450=VERTEX_POINT('',#1446);
#451=VERTEX_POINT('',#1450);
#452=VERTEX_POINT('',#1453);
#453=VERTEX_POINT('',#1456);
#454=VERTEX_POINT('',#1459);
#455=VERTEX_POINT('',#1461);
#456=VERTEX_POINT('',#1463);
#457=VERTEX_POINT('',#1465);
#458=VERTEX_POINT('',#1467);
#459=VERTEX_POINT('',#1469);
#460=VERTEX_POINT('',#1471);
#461=VERTEX_POINT('',#1475);
#462=EDGE_CURVE('',#382,#382,#342,.T.);
#463=EDGE_CURVE('',#382,#383,#182,.T.);
#464=EDGE_CURVE('',#383,#383,#343,.T.);
#465=EDGE_CURVE('',#384,#384,#344,.T.);
#466=EDGE_CURVE('',#385,#385,#345,.T.);
#467=EDGE_CURVE('',#385,#386,#183,.T.);
#468=EDGE_CURVE('',#386,#386,#346,.T.);
#469=EDGE_CURVE('',#387,#387,#347,.T.);
#470=EDGE_CURVE('',#388,#388,#348,.T.);
#471=EDGE_CURVE('',#388,#389,#184,.T.);
#472=EDGE_CURVE('',#389,#389,#349,.T.);
#473=EDGE_CURVE('',#390,#390,#350,.T.);
#474=EDGE_CURVE('',#391,#391,#351,.T.);
#475=EDGE_CURVE('',#391,#392,#185,.T.);
#476=EDGE_CURVE('',#392,#392,#352,.T.);
#477=EDGE_CURVE('',#393,#393,#353,.T.);
#478=EDGE_CURVE('',#394,#394,#354,.T.);
#479=EDGE_CURVE('',#394,#390,#186,.T.);
#480=EDGE_CURVE('',#395,#395,#355,.T.);
#481=EDGE_CURVE('',#395,#393,#187,.T.);
#482=EDGE_CURVE('',#396,#396,#356,.T.);
#483=EDGE_CURVE('',#396,#384,#188,.T.);
#484=EDGE_CURVE('',#397,#397,#357,.T.);
#485=EDGE_CURVE('',#397,#387,#189,.T.);
#486=EDGE_CURVE('',#398,#399,#358,.T.);
#487=EDGE_CURVE('',#399,#400,#190,.T.);
#488=EDGE_CURVE('',#400,#401,#359,.T.);
#489=EDGE_CURVE('',#401,#398,#191,.T.);
#490=EDGE_CURVE('',#398,#402,#192,.T.);
#491=EDGE_CURVE('',#403,#402,#360,.T.);
#492=EDGE_CURVE('',#403,#404,#193,.T.);
#493=EDGE_CURVE('',#405,#404,#361,.T.);
#494=EDGE_CURVE('',#405,#406,#194,.T.);
#495=EDGE_CURVE('',#407,#406,#362,.T.);
#496=EDGE_CURVE('',#407,#399,#195,.T.);
#497=EDGE_CURVE('',#408,#401,#196,.T.);
#498=EDGE_CURVE('',#402,#408,#197,.T.);
#499=EDGE_CURVE('',#408,#409,#363,.T.);
#500=EDGE_CURVE('',#409,#403,#198,.T.);
#501=EDGE_CURVE('',#404,#410,#199,.T.);
#502=EDGE_CURVE('',#410,#411,#364,.T.);
#503=EDGE_CURVE('',#411,#405,#200,.T.);
#504=EDGE_CURVE('',#412,#411,#201,.T.);
#505=EDGE_CURVE('',#406,#412,#202,.T.);
#506=EDGE_CURVE('',#400,#413,#203,.T.);
#507=EDGE_CURVE('',#412,#413,#365,.T.);
#508=EDGE_CURVE('',#410,#409,#204,.T.);
#509=EDGE_CURVE('',#414,#415,#205,.T.);
#510=EDGE_CURVE('',#415,#416,#206,.T.);
#511=EDGE_CURVE('',#416,#417,#207,.T.);
#512=EDGE_CURVE('',#417,#414,#208,.T.);
#513=EDGE_CURVE('',#413,#407,#209,.T.);
#514=EDGE_CURVE('',#418,#419,#210,.T.);
#515=EDGE_CURVE('',#419,#420,#211,.T.);
#516=EDGE_CURVE('',#421,#420,#212,.T.);
#517=EDGE_CURVE('',#422,#421,#366,.T.);
#518=EDGE_CURVE('',#418,#422,#213,.T.);
#519=EDGE_CURVE('',#423,#423,#367,.T.);
#520=EDGE_CURVE('',#424,#425,#214,.T.);
#521=EDGE_CURVE('',#425,#426,#215,.T.);
#522=EDGE_CURVE('',#427,#426,#216,.T.);
#523=EDGE_CURVE('',#428,#427,#368,.T.);
#524=EDGE_CURVE('',#424,#428,#217,.T.);
#525=EDGE_CURVE('',#429,#429,#369,.T.);
#526=EDGE_CURVE('',#430,#431,#218,.T.);
#527=EDGE_CURVE('',#432,#431,#219,.T.);
#528=EDGE_CURVE('',#433,#432,#370,.T.);
#529=EDGE_CURVE('',#434,#433,#220,.T.);
#530=EDGE_CURVE('',#434,#430,#221,.T.);
#531=EDGE_CURVE('',#435,#435,#371,.T.);
#532=EDGE_CURVE('',#436,#437,#222,.T.);
#533=EDGE_CURVE('',#438,#437,#223,.T.);
#534=EDGE_CURVE('',#439,#438,#372,.T.);
#535=EDGE_CURVE('',#440,#439,#224,.T.);
#536=EDGE_CURVE('',#440,#436,#225,.T.);
#537=EDGE_CURVE('',#441,#441,#373,.T.);
#538=EDGE_CURVE('',#421,#442,#226,.T.);
#539=EDGE_CURVE('',#443,#442,#374,.T.);
#540=EDGE_CURVE('',#422,#443,#227,.T.);
#541=EDGE_CURVE('',#420,#444,#228,.T.);
#542=EDGE_CURVE('',#442,#444,#229,.T.);
#543=EDGE_CURVE('',#434,#445,#230,.T.);
#544=EDGE_CURVE('',#444,#445,#231,.T.);
#545=EDGE_CURVE('',#419,#414,#232,.T.);
#546=EDGE_CURVE('',#430,#417,#233,.T.);
#547=EDGE_CURVE('',#433,#446,#234,.T.);
#548=EDGE_CURVE('',#445,#446,#235,.T.);
#549=EDGE_CURVE('',#432,#447,#236,.T.);
#550=EDGE_CURVE('',#446,#447,#375,.T.);
#551=EDGE_CURVE('',#431,#448,#237,.T.);
#552=EDGE_CURVE('',#447,#448,#238,.T.);
#553=EDGE_CURVE('',#440,#449,#239,.T.);
#554=EDGE_CURVE('',#448,#449,#240,.T.);
#555=EDGE_CURVE('',#436,#416,#241,.T.);
#556=EDGE_CURVE('',#439,#450,#242,.T.);
#557=EDGE_CURVE('',#449,#450,#243,.T.);
#558=EDGE_CURVE('',#451,#451,#376,.T.);
#559=EDGE_CURVE('',#452,#452,#377,.T.);
#560=EDGE_CURVE('',#453,#453,#378,.T.);
#561=EDGE_CURVE('',#450,#454,#379,.T.);
#562=EDGE_CURVE('',#454,#455,#244,.T.);
#563=EDGE_CURVE('',#455,#456,#245,.T.);
#564=EDGE_CURVE('',#456,#457,#246,.T.);
#565=EDGE_CURVE('',#457,#458,#380,.T.);
#566=EDGE_CURVE('',#458,#459,#247,.T.);
#567=EDGE_CURVE('',#459,#460,#248,.T.);
#568=EDGE_CURVE('',#460,#443,#249,.T.);
#569=EDGE_CURVE('',#461,#461,#381,.T.);
#570=EDGE_CURVE('',#461,#435,#250,.T.);
#571=EDGE_CURVE('',#418,#460,#251,.T.);
#572=EDGE_CURVE('',#426,#459,#252,.T.);
#573=EDGE_CURVE('',#425,#415,#253,.T.);
#574=EDGE_CURVE('',#427,#458,#254,.T.);
#575=EDGE_CURVE('',#428,#457,#255,.T.);
#576=EDGE_CURVE('',#424,#456,#256,.T.);
#577=EDGE_CURVE('',#437,#455,#257,.T.);
#578=EDGE_CURVE('',#438,#454,#258,.T.);
#579=EDGE_CURVE('',#453,#441,#259,.T.);
#580=EDGE_CURVE('',#452,#423,#260,.T.);
#581=EDGE_CURVE('',#451,#429,#261,.T.);
#582=ORIENTED_EDGE('',*,*,#462,.F.);
#583=ORIENTED_EDGE('',*,*,#463,.T.);
#584=ORIENTED_EDGE('',*,*,#464,.F.);
#585=ORIENTED_EDGE('',*,*,#463,.F.);
#586=ORIENTED_EDGE('',*,*,#462,.T.);
#587=ORIENTED_EDGE('',*,*,#465,.T.);
#588=ORIENTED_EDGE('',*,*,#466,.F.);
#589=ORIENTED_EDGE('',*,*,#467,.T.);
#590=ORIENTED_EDGE('',*,*,#468,.F.);
#591=ORIENTED_EDGE('',*,*,#467,.F.);
#592=ORIENTED_EDGE('',*,*,#466,.T.);
#593=ORIENTED_EDGE('',*,*,#469,.T.);
#594=ORIENTED_EDGE('',*,*,#470,.F.);
#595=ORIENTED_EDGE('',*,*,#471,.T.);
#596=ORIENTED_EDGE('',*,*,#472,.F.);
#597=ORIENTED_EDGE('',*,*,#471,.F.);
#598=ORIENTED_EDGE('',*,*,#470,.T.);
#599=ORIENTED_EDGE('',*,*,#473,.T.);
#600=ORIENTED_EDGE('',*,*,#474,.F.);
#601=ORIENTED_EDGE('',*,*,#475,.T.);
#602=ORIENTED_EDGE('',*,*,#476,.F.);
#603=ORIENTED_EDGE('',*,*,#475,.F.);
#604=ORIENTED_EDGE('',*,*,#474,.T.);
#605=ORIENTED_EDGE('',*,*,#477,.T.);
#606=ORIENTED_EDGE('',*,*,#478,.F.);
#607=ORIENTED_EDGE('',*,*,#479,.T.);
#608=ORIENTED_EDGE('',*,*,#473,.F.);
#609=ORIENTED_EDGE('',*,*,#479,.F.);
#610=ORIENTED_EDGE('',*,*,#480,.F.);
#611=ORIENTED_EDGE('',*,*,#481,.T.);
#612=ORIENTED_EDGE('',*,*,#477,.F.);
#613=ORIENTED_EDGE('',*,*,#481,.F.);
#614=ORIENTED_EDGE('',*,*,#482,.F.);
#615=ORIENTED_EDGE('',*,*,#483,.T.);
#616=ORIENTED_EDGE('',*,*,#465,.F.);
#617=ORIENTED_EDGE('',*,*,#483,.F.);
#618=ORIENTED_EDGE('',*,*,#484,.F.);
#619=ORIENTED_EDGE('',*,*,#485,.T.);
#620=ORIENTED_EDGE('',*,*,#469,.F.);
#621=ORIENTED_EDGE('',*,*,#485,.F.);
#622=ORIENTED_EDGE('',*,*,#486,.T.);
#623=ORIENTED_EDGE('',*,*,#487,.T.);
#624=ORIENTED_EDGE('',*,*,#488,.T.);
#625=ORIENTED_EDGE('',*,*,#489,.T.);
#626=ORIENTED_EDGE('',*,*,#486,.F.);
#627=ORIENTED_EDGE('',*,*,#490,.T.);
#628=ORIENTED_EDGE('',*,*,#491,.F.);
#629=ORIENTED_EDGE('',*,*,#492,.T.);
#630=ORIENTED_EDGE('',*,*,#493,.F.);
#631=ORIENTED_EDGE('',*,*,#494,.T.);
#632=ORIENTED_EDGE('',*,*,#495,.F.);
#633=ORIENTED_EDGE('',*,*,#496,.T.);
#634=ORIENTED_EDGE('',*,*,#478,.T.);
#635=ORIENTED_EDGE('',*,*,#480,.T.);
#636=ORIENTED_EDGE('',*,*,#482,.T.);
#637=ORIENTED_EDGE('',*,*,#484,.T.);
#638=ORIENTED_EDGE('',*,*,#489,.F.);
#639=ORIENTED_EDGE('',*,*,#497,.F.);
#640=ORIENTED_EDGE('',*,*,#498,.F.);
#641=ORIENTED_EDGE('',*,*,#490,.F.);
#642=ORIENTED_EDGE('',*,*,#491,.T.);
#643=ORIENTED_EDGE('',*,*,#498,.T.);
#644=ORIENTED_EDGE('',*,*,#499,.T.);
#645=ORIENTED_EDGE('',*,*,#500,.T.);
#646=ORIENTED_EDGE('',*,*,#493,.T.);
#647=ORIENTED_EDGE('',*,*,#501,.T.);
#648=ORIENTED_EDGE('',*,*,#502,.T.);
#649=ORIENTED_EDGE('',*,*,#503,.T.);
#650=ORIENTED_EDGE('',*,*,#503,.F.);
#651=ORIENTED_EDGE('',*,*,#504,.F.);
#652=ORIENTED_EDGE('',*,*,#505,.F.);
#653=ORIENTED_EDGE('',*,*,#494,.F.);
#654=ORIENTED_EDGE('',*,*,#488,.F.);
#655=ORIENTED_EDGE('',*,*,#506,.T.);
#656=ORIENTED_EDGE('',*,*,#507,.F.);
#657=ORIENTED_EDGE('',*,*,#504,.T.);
#658=ORIENTED_EDGE('',*,*,#502,.F.);
#659=ORIENTED_EDGE('',*,*,#508,.T.);
#660=ORIENTED_EDGE('',*,*,#499,.F.);
#661=ORIENTED_EDGE('',*,*,#497,.T.);
#662=ORIENTED_EDGE('',*,*,#509,.T.);
#663=ORIENTED_EDGE('',*,*,#510,.T.);
#664=ORIENTED_EDGE('',*,*,#511,.T.);
#665=ORIENTED_EDGE('',*,*,#512,.T.);
#666=ORIENTED_EDGE('',*,*,#495,.T.);
#667=ORIENTED_EDGE('',*,*,#505,.T.);
#668=ORIENTED_EDGE('',*,*,#507,.T.);
#669=ORIENTED_EDGE('',*,*,#513,.T.);
#670=ORIENTED_EDGE('',*,*,#487,.F.);
#671=ORIENTED_EDGE('',*,*,#496,.F.);
#672=ORIENTED_EDGE('',*,*,#513,.F.);
#673=ORIENTED_EDGE('',*,*,#506,.F.);
#674=ORIENTED_EDGE('',*,*,#514,.T.);
#675=ORIENTED_EDGE('',*,*,#515,.T.);
#676=ORIENTED_EDGE('',*,*,#516,.F.);
#677=ORIENTED_EDGE('',*,*,#517,.F.);
#678=ORIENTED_EDGE('',*,*,#518,.F.);
#679=ORIENTED_EDGE('',*,*,#519,.F.);
#680=ORIENTED_EDGE('',*,*,#520,.T.);
#681=ORIENTED_EDGE('',*,*,#521,.T.);
#682=ORIENTED_EDGE('',*,*,#522,.F.);
#683=ORIENTED_EDGE('',*,*,#523,.F.);
#684=ORIENTED_EDGE('',*,*,#524,.F.);
#685=ORIENTED_EDGE('',*,*,#525,.F.);
#686=ORIENTED_EDGE('',*,*,#526,.T.);
#687=ORIENTED_EDGE('',*,*,#527,.F.);
#688=ORIENTED_EDGE('',*,*,#528,.F.);
#689=ORIENTED_EDGE('',*,*,#529,.F.);
#690=ORIENTED_EDGE('',*,*,#530,.T.);
#691=ORIENTED_EDGE('',*,*,#531,.F.);
#692=ORIENTED_EDGE('',*,*,#532,.T.);
#693=ORIENTED_EDGE('',*,*,#533,.F.);
#694=ORIENTED_EDGE('',*,*,#534,.F.);
#695=ORIENTED_EDGE('',*,*,#535,.F.);
#696=ORIENTED_EDGE('',*,*,#536,.T.);
#697=ORIENTED_EDGE('',*,*,#537,.F.);
#698=ORIENTED_EDGE('',*,*,#517,.T.);
#699=ORIENTED_EDGE('',*,*,#538,.T.);
#700=ORIENTED_EDGE('',*,*,#539,.F.);
#701=ORIENTED_EDGE('',*,*,#540,.F.);
#702=ORIENTED_EDGE('',*,*,#516,.T.);
#703=ORIENTED_EDGE('',*,*,#541,.T.);
#704=ORIENTED_EDGE('',*,*,#542,.F.);
#705=ORIENTED_EDGE('',*,*,#538,.F.);
#706=ORIENTED_EDGE('',*,*,#543,.T.);
#707=ORIENTED_EDGE('',*,*,#544,.F.);
#708=ORIENTED_EDGE('',*,*,#541,.F.);
#709=ORIENTED_EDGE('',*,*,#515,.F.);
#710=ORIENTED_EDGE('',*,*,#545,.T.);
#711=ORIENTED_EDGE('',*,*,#512,.F.);
#712=ORIENTED_EDGE('',*,*,#546,.F.);
#713=ORIENTED_EDGE('',*,*,#530,.F.);
#714=ORIENTED_EDGE('',*,*,#529,.T.);
#715=ORIENTED_EDGE('',*,*,#547,.T.);
#716=ORIENTED_EDGE('',*,*,#548,.F.);
#717=ORIENTED_EDGE('',*,*,#543,.F.);
#718=ORIENTED_EDGE('',*,*,#528,.T.);
#719=ORIENTED_EDGE('',*,*,#549,.T.);
#720=ORIENTED_EDGE('',*,*,#550,.F.);
#721=ORIENTED_EDGE('',*,*,#547,.F.);
#722=ORIENTED_EDGE('',*,*,#527,.T.);
#723=ORIENTED_EDGE('',*,*,#551,.T.);
#724=ORIENTED_EDGE('',*,*,#552,.F.);
#725=ORIENTED_EDGE('',*,*,#549,.F.);
#726=ORIENTED_EDGE('',*,*,#553,.T.);
#727=ORIENTED_EDGE('',*,*,#554,.F.);
#728=ORIENTED_EDGE('',*,*,#551,.F.);
#729=ORIENTED_EDGE('',*,*,#526,.F.);
#730=ORIENTED_EDGE('',*,*,#546,.T.);
#731=ORIENTED_EDGE('',*,*,#511,.F.);
#732=ORIENTED_EDGE('',*,*,#555,.F.);
#733=ORIENTED_EDGE('',*,*,#536,.F.);
#734=ORIENTED_EDGE('',*,*,#535,.T.);
#735=ORIENTED_EDGE('',*,*,#556,.T.);
#736=ORIENTED_EDGE('',*,*,#557,.F.);
#737=ORIENTED_EDGE('',*,*,#553,.F.);
#738=ORIENTED_EDGE('',*,*,#558,.T.);
#739=ORIENTED_EDGE('',*,*,#559,.T.);
#740=ORIENTED_EDGE('',*,*,#560,.T.);
#741=ORIENTED_EDGE('',*,*,#554,.T.);
#742=ORIENTED_EDGE('',*,*,#557,.T.);
#743=ORIENTED_EDGE('',*,*,#561,.T.);
#744=ORIENTED_EDGE('',*,*,#562,.T.);
#745=ORIENTED_EDGE('',*,*,#563,.T.);
#746=ORIENTED_EDGE('',*,*,#564,.T.);
#747=ORIENTED_EDGE('',*,*,#565,.T.);
#748=ORIENTED_EDGE('',*,*,#566,.T.);
#749=ORIENTED_EDGE('',*,*,#567,.T.);
#750=ORIENTED_EDGE('',*,*,#568,.T.);
#751=ORIENTED_EDGE('',*,*,#539,.T.);
#752=ORIENTED_EDGE('',*,*,#542,.T.);
#753=ORIENTED_EDGE('',*,*,#544,.T.);
#754=ORIENTED_EDGE('',*,*,#548,.T.);
#755=ORIENTED_EDGE('',*,*,#550,.T.);
#756=ORIENTED_EDGE('',*,*,#552,.T.);
#757=ORIENTED_EDGE('',*,*,#464,.T.);
#758=ORIENTED_EDGE('',*,*,#468,.T.);
#759=ORIENTED_EDGE('',*,*,#472,.T.);
#760=ORIENTED_EDGE('',*,*,#476,.T.);
#761=ORIENTED_EDGE('',*,*,#569,.T.);
#762=ORIENTED_EDGE('',*,*,#569,.F.);
#763=ORIENTED_EDGE('',*,*,#570,.T.);
#764=ORIENTED_EDGE('',*,*,#531,.T.);
#765=ORIENTED_EDGE('',*,*,#570,.F.);
#766=ORIENTED_EDGE('',*,*,#518,.T.);
#767=ORIENTED_EDGE('',*,*,#540,.T.);
#768=ORIENTED_EDGE('',*,*,#568,.F.);
#769=ORIENTED_EDGE('',*,*,#571,.F.);
#770=ORIENTED_EDGE('',*,*,#571,.T.);
#771=ORIENTED_EDGE('',*,*,#567,.F.);
#772=ORIENTED_EDGE('',*,*,#572,.F.);
#773=ORIENTED_EDGE('',*,*,#521,.F.);
#774=ORIENTED_EDGE('',*,*,#573,.T.);
#775=ORIENTED_EDGE('',*,*,#509,.F.);
#776=ORIENTED_EDGE('',*,*,#545,.F.);
#777=ORIENTED_EDGE('',*,*,#514,.F.);
#778=ORIENTED_EDGE('',*,*,#522,.T.);
#779=ORIENTED_EDGE('',*,*,#572,.T.);
#780=ORIENTED_EDGE('',*,*,#566,.F.);
#781=ORIENTED_EDGE('',*,*,#574,.F.);
#782=ORIENTED_EDGE('',*,*,#523,.T.);
#783=ORIENTED_EDGE('',*,*,#574,.T.);
#784=ORIENTED_EDGE('',*,*,#565,.F.);
#785=ORIENTED_EDGE('',*,*,#575,.F.);
#786=ORIENTED_EDGE('',*,*,#524,.T.);
#787=ORIENTED_EDGE('',*,*,#575,.T.);
#788=ORIENTED_EDGE('',*,*,#564,.F.);
#789=ORIENTED_EDGE('',*,*,#576,.F.);
#790=ORIENTED_EDGE('',*,*,#576,.T.);
#791=ORIENTED_EDGE('',*,*,#563,.F.);
#792=ORIENTED_EDGE('',*,*,#577,.F.);
#793=ORIENTED_EDGE('',*,*,#532,.F.);
#794=ORIENTED_EDGE('',*,*,#555,.T.);
#795=ORIENTED_EDGE('',*,*,#510,.F.);
#796=ORIENTED_EDGE('',*,*,#573,.F.);
#797=ORIENTED_EDGE('',*,*,#520,.F.);
#798=ORIENTED_EDGE('',*,*,#533,.T.);
#799=ORIENTED_EDGE('',*,*,#577,.T.);
#800=ORIENTED_EDGE('',*,*,#562,.F.);
#801=ORIENTED_EDGE('',*,*,#578,.F.);
#802=ORIENTED_EDGE('',*,*,#534,.T.);
#803=ORIENTED_EDGE('',*,*,#578,.T.);
#804=ORIENTED_EDGE('',*,*,#561,.F.);
#805=ORIENTED_EDGE('',*,*,#556,.F.);
#806=ORIENTED_EDGE('',*,*,#560,.F.);
#807=ORIENTED_EDGE('',*,*,#579,.T.);
#808=ORIENTED_EDGE('',*,*,#537,.T.);
#809=ORIENTED_EDGE('',*,*,#579,.F.);
#810=ORIENTED_EDGE('',*,*,#559,.F.);
#811=ORIENTED_EDGE('',*,*,#580,.T.);
#812=ORIENTED_EDGE('',*,*,#519,.T.);
#813=ORIENTED_EDGE('',*,*,#580,.F.);
#814=ORIENTED_EDGE('',*,*,#558,.F.);
#815=ORIENTED_EDGE('',*,*,#581,.T.);
#816=ORIENTED_EDGE('',*,*,#525,.T.);
#817=ORIENTED_EDGE('',*,*,#581,.F.);
#818=ORIENTED_EDGE('',*,*,#500,.F.);
#819=ORIENTED_EDGE('',*,*,#508,.F.);
#820=ORIENTED_EDGE('',*,*,#501,.F.);
#821=ORIENTED_EDGE('',*,*,#492,.F.);
#822=CYLINDRICAL_SURFACE('',#895,8.00000011920928);
#823=CYLINDRICAL_SURFACE('',#900,8.00000011920929);
#824=CYLINDRICAL_SURFACE('',#905,8.0000001192093);
#825=CYLINDRICAL_SURFACE('',#910,8.0000001192093);
#826=CYLINDRICAL_SURFACE('',#915,6.);
#827=CYLINDRICAL_SURFACE('',#917,6.);
#828=CYLINDRICAL_SURFACE('',#919,6.);
#829=CYLINDRICAL_SURFACE('',#921,6.);
#830=CYLINDRICAL_SURFACE('',#923,2.);
#831=CYLINDRICAL_SURFACE('',#931,2.);
#832=CYLINDRICAL_SURFACE('',#933,2.);
#833=CYLINDRICAL_SURFACE('',#938,2.);
#834=CYLINDRICAL_SURFACE('',#952,5.00000007450581);
#835=CYLINDRICAL_SURFACE('',#957,5.00000007450581);
#836=CYLINDRICAL_SURFACE('',#973,1.55);
#837=CYLINDRICAL_SURFACE('',#977,5.00000007450581);
#838=CYLINDRICAL_SURFACE('',#981,5.00000007450581);
#839=CYLINDRICAL_SURFACE('',#982,1.55);
#840=CYLINDRICAL_SURFACE('',#983,1.55);
#841=CYLINDRICAL_SURFACE('',#984,1.55);
#842=ADVANCED_FACE('',(#63),#822,.T.);
#843=ADVANCED_FACE('',(#64,#15),#32,.T.);
#844=ADVANCED_FACE('',(#65),#823,.T.);
#845=ADVANCED_FACE('',(#66,#16),#33,.T.);
#846=ADVANCED_FACE('',(#67),#824,.T.);
#847=ADVANCED_FACE('',(#68,#17),#34,.T.);
#848=ADVANCED_FACE('',(#69),#825,.T.);
#849=ADVANCED_FACE('',(#70,#18),#35,.T.);
#850=ADVANCED_FACE('',(#71),#826,.F.);
#851=ADVANCED_FACE('',(#72),#827,.F.);
#852=ADVANCED_FACE('',(#73),#828,.F.);
#853=ADVANCED_FACE('',(#74),#829,.F.);
#854=ADVANCED_FACE('',(#75),#830,.T.);
#855=ADVANCED_FACE('',(#76,#19,#20,#21,#22),#36,.T.);
#856=ADVANCED_FACE('',(#77),#37,.T.);
#857=ADVANCED_FACE('',(#78),#831,.T.);
#858=ADVANCED_FACE('',(#79),#832,.T.);
#859=ADVANCED_FACE('',(#80),#38,.T.);
#860=ADVANCED_FACE('',(#81,#23),#39,.T.);
#861=ADVANCED_FACE('',(#82),#833,.T.);
#862=ADVANCED_FACE('',(#83),#40,.T.);
#863=ADVANCED_FACE('',(#84,#24),#41,.F.);
#864=ADVANCED_FACE('',(#85,#25),#42,.F.);
#865=ADVANCED_FACE('',(#86,#26),#43,.F.);
#866=ADVANCED_FACE('',(#87,#27),#44,.F.);
#867=ADVANCED_FACE('',(#88),#834,.T.);
#868=ADVANCED_FACE('',(#89),#45,.T.);
#869=ADVANCED_FACE('',(#90),#46,.T.);
#870=ADVANCED_FACE('',(#91),#47,.T.);
#871=ADVANCED_FACE('',(#92),#835,.T.);
#872=ADVANCED_FACE('',(#93),#48,.T.);
#873=ADVANCED_FACE('',(#94),#49,.T.);
#874=ADVANCED_FACE('',(#95),#50,.T.);
#875=ADVANCED_FACE('',(#96),#51,.F.);
#876=ADVANCED_FACE('',(#97),#52,.F.);
#877=ADVANCED_FACE('',(#98),#53,.F.);
#878=ADVANCED_FACE('',(#99,#28,#29,#30,#31),#54,.F.);
#879=ADVANCED_FACE('',(#100),#55,.F.);
#880=ADVANCED_FACE('',(#101),#836,.F.);
#881=ADVANCED_FACE('',(#102),#56,.T.);
#882=ADVANCED_FACE('',(#103),#57,.T.);
#883=ADVANCED_FACE('',(#104),#58,.T.);
#884=ADVANCED_FACE('',(#105),#837,.T.);
#885=ADVANCED_FACE('',(#106),#59,.T.);
#886=ADVANCED_FACE('',(#107),#60,.T.);
#887=ADVANCED_FACE('',(#108),#61,.T.);
#888=ADVANCED_FACE('',(#109),#838,.T.);
#889=ADVANCED_FACE('',(#110),#839,.F.);
#890=ADVANCED_FACE('',(#111),#840,.F.);
#891=ADVANCED_FACE('',(#112),#841,.F.);
#892=ADVANCED_FACE('',(#113),#62,.T.);
#893=CLOSED_SHELL('',(#842,#843,#844,#845,#846,#847,#848,#849,#850,#851,
#852,#853,#854,#855,#856,#857,#858,#859,#860,#861,#862,#863,#864,#865,#866,
#867,#868,#869,#870,#871,#872,#873,#874,#875,#876,#877,#878,#879,#880,#881,
#882,#883,#884,#885,#886,#887,#888,#889,#890,#891,#892));
#894=AXIS2_PLACEMENT_3D('',#1250,#986,#987);
#895=AXIS2_PLACEMENT_3D('',#1251,#988,#989);
#896=AXIS2_PLACEMENT_3D('',#1253,#990,#991);
#897=AXIS2_PLACEMENT_3D('',#1256,#993,#994);
#898=AXIS2_PLACEMENT_3D('',#1257,#995,#996);
#899=AXIS2_PLACEMENT_3D('',#1259,#997,#998);
#900=AXIS2_PLACEMENT_3D('',#1260,#999,#1000);
#901=AXIS2_PLACEMENT_3D('',#1262,#1001,#1002);
#902=AXIS2_PLACEMENT_3D('',#1265,#1004,#1005);
#903=AXIS2_PLACEMENT_3D('',#1266,#1006,#1007);
#904=AXIS2_PLACEMENT_3D('',#1268,#1008,#1009);
#905=AXIS2_PLACEMENT_3D('',#1269,#1010,#1011);
#906=AXIS2_PLACEMENT_3D('',#1271,#1012,#1013);
#907=AXIS2_PLACEMENT_3D('',#1274,#1015,#1016);
#908=AXIS2_PLACEMENT_3D('',#1275,#1017,#1018);
#909=AXIS2_PLACEMENT_3D('',#1277,#1019,#1020);
#910=AXIS2_PLACEMENT_3D('',#1278,#1021,#1022);
#911=AXIS2_PLACEMENT_3D('',#1280,#1023,#1024);
#912=AXIS2_PLACEMENT_3D('',#1283,#1026,#1027);
#913=AXIS2_PLACEMENT_3D('',#1284,#1028,#1029);
#914=AXIS2_PLACEMENT_3D('',#1286,#1030,#1031);
#915=AXIS2_PLACEMENT_3D('',#1287,#1032,#1033);
#916=AXIS2_PLACEMENT_3D('',#1289,#1034,#1035);
#917=AXIS2_PLACEMENT_3D('',#1291,#1037,#1038);
#918=AXIS2_PLACEMENT_3D('',#1293,#1039,#1040);
#919=AXIS2_PLACEMENT_3D('',#1295,#1042,#1043);
#920=AXIS2_PLACEMENT_3D('',#1297,#1044,#1045);
#921=AXIS2_PLACEMENT_3D('',#1299,#1047,#1048);
#922=AXIS2_PLACEMENT_3D('',#1301,#1049,#1050);
#923=AXIS2_PLACEMENT_3D('',#1303,#1052,#1053);
#924=AXIS2_PLACEMENT_3D('',#1306,#1054,#1055);
#925=AXIS2_PLACEMENT_3D('',#1310,#1057,#1058);
#926=AXIS2_PLACEMENT_3D('',#1312,#1060,#1061);
#927=AXIS2_PLACEMENT_3D('',#1316,#1063,#1064);
#928=AXIS2_PLACEMENT_3D('',#1320,#1066,#1067);
#929=AXIS2_PLACEMENT_3D('',#1324,#1069,#1070);
#930=AXIS2_PLACEMENT_3D('',#1326,#1072,#1073);
#931=AXIS2_PLACEMENT_3D('',#1330,#1076,#1077);
#932=AXIS2_PLACEMENT_3D('',#1332,#1078,#1079);
#933=AXIS2_PLACEMENT_3D('',#1334,#1081,#1082);
#934=AXIS2_PLACEMENT_3D('',#1338,#1084,#1085);
#935=AXIS2_PLACEMENT_3D('',#1340,#1087,#1088);
#936=AXIS2_PLACEMENT_3D('',#1344,#1091,#1092);
#937=AXIS2_PLACEMENT_3D('',#1347,#1094,#1095);
#938=AXIS2_PLACEMENT_3D('',#1357,#1101,#1102);
#939=AXIS2_PLACEMENT_3D('',#1359,#1104,#1105);
#940=AXIS2_PLACEMENT_3D('',#1360,#1106,#1107);
#941=AXIS2_PLACEMENT_3D('',#1369,#1111,#1112);
#942=AXIS2_PLACEMENT_3D('',#1372,#1114,#1115);
#943=AXIS2_PLACEMENT_3D('',#1373,#1116,#1117);
#944=AXIS2_PLACEMENT_3D('',#1382,#1121,#1122);
#945=AXIS2_PLACEMENT_3D('',#1385,#1124,#1125);
#946=AXIS2_PLACEMENT_3D('',#1386,#1126,#1127);
#947=AXIS2_PLACEMENT_3D('',#1393,#1130,#1131);
#948=AXIS2_PLACEMENT_3D('',#1398,#1134,#1135);
#949=AXIS2_PLACEMENT_3D('',#1399,#1136,#1137);
#950=AXIS2_PLACEMENT_3D('',#1406,#1140,#1141);
#951=AXIS2_PLACEMENT_3D('',#1411,#1144,#1145);
#952=AXIS2_PLACEMENT_3D('',#1412,#1146,#1147);
#953=AXIS2_PLACEMENT_3D('',#1416,#1149,#1150);
#954=AXIS2_PLACEMENT_3D('',#1418,#1152,#1153);
#955=AXIS2_PLACEMENT_3D('',#1422,#1156,#1157);
#956=AXIS2_PLACEMENT_3D('',#1428,#1162,#1163);
#957=AXIS2_PLACEMENT_3D('',#1432,#1166,#1167);
#958=AXIS2_PLACEMENT_3D('',#1435,#1169,#1170);
#959=AXIS2_PLACEMENT_3D('',#1436,#1171,#1172);
#960=AXIS2_PLACEMENT_3D('',#1440,#1175,#1176);
#961=AXIS2_PLACEMENT_3D('',#1445,#1180,#1181);
#962=AXIS2_PLACEMENT_3D('',#1449,#1184,#1185);
#963=AXIS2_PLACEMENT_3D('',#1451,#1186,#1187);
#964=AXIS2_PLACEMENT_3D('',#1452,#1188,#1189);
#965=AXIS2_PLACEMENT_3D('',#1454,#1190,#1191);
#966=AXIS2_PLACEMENT_3D('',#1455,#1192,#1193);
#967=AXIS2_PLACEMENT_3D('',#1457,#1194,#1195);
#968=AXIS2_PLACEMENT_3D('',#1458,#1196,#1197);
#969=AXIS2_PLACEMENT_3D('',#1460,#1198,#1199);
#970=AXIS2_PLACEMENT_3D('',#1468,#1203,#1204);
#971=AXIS2_PLACEMENT_3D('',#1474,#1208,#1209);
#972=AXIS2_PLACEMENT_3D('',#1476,#1210,#1211);
#973=AXIS2_PLACEMENT_3D('',#1477,#1212,#1213);
#974=AXIS2_PLACEMENT_3D('',#1479,#1215,#1216);
#975=AXIS2_PLACEMENT_3D('',#1481,#1218,#1219);
#976=AXIS2_PLACEMENT_3D('',#1484,#1222,#1223);
#977=AXIS2_PLACEMENT_3D('',#1486,#1225,#1226);
#978=AXIS2_PLACEMENT_3D('',#1488,#1228,#1229);
#979=AXIS2_PLACEMENT_3D('',#1490,#1231,#1232);
#980=AXIS2_PLACEMENT_3D('',#1492,#1234,#1235);
#981=AXIS2_PLACEMENT_3D('',#1494,#1237,#1238);
#982=AXIS2_PLACEMENT_3D('',#1495,#1239,#1240);
#983=AXIS2_PLACEMENT_3D('',#1497,#1242,#1243);
#984=AXIS2_PLACEMENT_3D('',#1499,#1245,#1246);
#985=AXIS2_PLACEMENT_3D('',#1501,#1248,#1249);
#986=DIRECTION('axis',(0.,0.,1.));
#987=DIRECTION('refdir',(1.,0.,0.));
#988=DIRECTION('center_axis',(0.,-1.,0.));
#989=DIRECTION('ref_axis',(1.,0.,0.));
#990=DIRECTION('center_axis',(0.,-1.,0.));
#991=DIRECTION('ref_axis',(1.,0.,0.));
#992=DIRECTION('',(0.,1.,0.));
#993=DIRECTION('center_axis',(0.,1.,0.));
#994=DIRECTION('ref_axis',(1.,0.,0.));
#995=DIRECTION('center_axis',(0.,-1.,0.));
#996=DIRECTION('ref_axis',(1.,0.,0.));
#997=DIRECTION('center_axis',(0.,1.,0.));
#998=DIRECTION('ref_axis',(1.,0.,0.));
#999=DIRECTION('center_axis',(0.,-1.,0.));
#1000=DIRECTION('ref_axis',(1.,0.,0.));
#1001=DIRECTION('center_axis',(0.,-1.,0.));
#1002=DIRECTION('ref_axis',(1.,0.,0.));
#1003=DIRECTION('',(0.,1.,0.));
#1004=DIRECTION('center_axis',(0.,1.,0.));
#1005=DIRECTION('ref_axis',(1.,0.,0.));
#1006=DIRECTION('center_axis',(0.,-1.,0.));
#1007=DIRECTION('ref_axis',(1.,0.,0.));
#1008=DIRECTION('center_axis',(0.,1.,0.));
#1009=DIRECTION('ref_axis',(1.,0.,0.));
#1010=DIRECTION('center_axis',(0.,-1.,0.));
#1011=DIRECTION('ref_axis',(1.,0.,0.));
#1012=DIRECTION('center_axis',(0.,-1.,0.));
#1013=DIRECTION('ref_axis',(1.,0.,0.));
#1014=DIRECTION('',(0.,1.,0.));
#1015=DIRECTION('center_axis',(0.,1.,0.));
#1016=DIRECTION('ref_axis',(1.,0.,0.));
#1017=DIRECTION('center_axis',(0.,-1.,0.));
#1018=DIRECTION('ref_axis',(1.,0.,0.));
#1019=DIRECTION('center_axis',(0.,1.,0.));
#1020=DIRECTION('ref_axis',(1.,0.,0.));
#1021=DIRECTION('center_axis',(0.,-1.,0.));
#1022=DIRECTION('ref_axis',(1.,0.,0.));
#1023=DIRECTION('center_axis',(0.,-1.,0.));
#1024=DIRECTION('ref_axis',(1.,0.,0.));
#1025=DIRECTION('',(0.,1.,0.));
#1026=DIRECTION('center_axis',(0.,1.,0.));
#1027=DIRECTION('ref_axis',(1.,0.,0.));
#1028=DIRECTION('center_axis',(0.,-1.,0.));
#1029=DIRECTION('ref_axis',(1.,0.,0.));
#1030=DIRECTION('center_axis',(0.,1.,0.));
#1031=DIRECTION('ref_axis',(1.,0.,0.));
#1032=DIRECTION('center_axis',(0.,-1.,0.));
#1033=DIRECTION('ref_axis',(1.,0.,0.));
#1034=DIRECTION('center_axis',(0.,-1.,0.));
#1035=DIRECTION('ref_axis',(1.,0.,0.));
#1036=DIRECTION('',(0.,-1.,0.));
#1037=DIRECTION('center_axis',(0.,-1.,0.));
#1038=DIRECTION('ref_axis',(1.,0.,0.));
#1039=DIRECTION('center_axis',(0.,-1.,0.));
#1040=DIRECTION('ref_axis',(1.,0.,0.));
#1041=DIRECTION('',(0.,-1.,0.));
#1042=DIRECTION('center_axis',(0.,-1.,0.));
#1043=DIRECTION('ref_axis',(1.,0.,0.));
#1044=DIRECTION('center_axis',(0.,-1.,0.));
#1045=DIRECTION('ref_axis',(1.,0.,0.));
#1046=DIRECTION('',(0.,-1.,0.));
#1047=DIRECTION('center_axis',(0.,-1.,0.));
#1048=DIRECTION('ref_axis',(1.,0.,0.));
#1049=DIRECTION('center_axis',(0.,-1.,0.));
#1050=DIRECTION('ref_axis',(1.,0.,0.));
#1051=DIRECTION('',(0.,-1.,0.));
#1052=DIRECTION('center_axis',(0.,1.,0.));
#1053=DIRECTION('ref_axis',(0.707106781186549,0.,0.707106781186546));
#1054=DIRECTION('center_axis',(0.,-1.,0.));
#1055=DIRECTION('ref_axis',(0.707106781186549,0.,0.707106781186546));
#1056=DIRECTION('',(0.,-1.,0.));
#1057=DIRECTION('center_axis',(0.,1.,0.));
#1058=DIRECTION('ref_axis',(0.707106781186549,0.,0.707106781186546));
#1059=DIRECTION('',(0.,1.,0.));
#1060=DIRECTION('center_axis',(0.,1.,0.));
#1061=DIRECTION('ref_axis',(0.,0.,1.));
#1062=DIRECTION('',(0.,0.,-1.));
#1063=DIRECTION('center_axis',(0.,-1.,0.));
#1064=DIRECTION('ref_axis',(0.707106781186544,0.,-0.707106781186551));
#1065=DIRECTION('',(-1.,0.,0.));
#1066=DIRECTION('center_axis',(0.,-1.,0.));
#1067=DIRECTION('ref_axis',(-0.707106781186549,0.,-0.707106781186546));
#1068=DIRECTION('',(0.,0.,1.));
#1069=DIRECTION('center_axis',(0.,-1.,0.));
#1070=DIRECTION('ref_axis',(-0.707106781186547,0.,0.707106781186548));
#1071=DIRECTION('',(1.,0.,0.));
#1072=DIRECTION('center_axis',(1.,0.,0.));
#1073=DIRECTION('ref_axis',(0.,0.,-1.));
#1074=DIRECTION('',(0.,0.,1.));
#1075=DIRECTION('',(0.,-1.,0.));
#1076=DIRECTION('center_axis',(0.,1.,0.));
#1077=DIRECTION('ref_axis',(0.707106781186544,0.,-0.707106781186551));
#1078=DIRECTION('center_axis',(0.,1.,0.));
#1079=DIRECTION('ref_axis',(0.707106781186544,0.,-0.707106781186551));
#1080=DIRECTION('',(0.,1.,0.));
#1081=DIRECTION('center_axis',(0.,1.,0.));
#1082=DIRECTION('ref_axis',(-0.707106781186549,0.,-0.707106781186546));
#1083=DIRECTION('',(0.,-1.,0.));
#1084=DIRECTION('center_axis',(0.,1.,0.));
#1085=DIRECTION('ref_axis',(-0.707106781186549,0.,-0.707106781186546));
#1086=DIRECTION('',(0.,1.,0.));
#1087=DIRECTION('center_axis',(-1.,0.,0.));
#1088=DIRECTION('ref_axis',(0.,0.,1.));
#1089=DIRECTION('',(0.,0.,-1.));
#1090=DIRECTION('',(0.,-1.,0.));
#1091=DIRECTION('center_axis',(0.,-1.,0.));
#1092=DIRECTION('ref_axis',(0.,0.,-1.));
#1093=DIRECTION('',(-1.,0.,0.));
#1094=DIRECTION('center_axis',(0.,1.,0.));
#1095=DIRECTION('ref_axis',(-0.707106781186547,0.,0.707106781186548));
#1096=DIRECTION('',(1.,0.,0.));
#1097=DIRECTION('',(0.,0.,-1.));
#1098=DIRECTION('',(-1.,0.,0.));
#1099=DIRECTION('',(0.,0.,1.));
#1100=DIRECTION('',(1.,0.,0.));
#1101=DIRECTION('center_axis',(0.,1.,0.));
#1102=DIRECTION('ref_axis',(-0.707106781186547,0.,0.707106781186548));
#1103=DIRECTION('',(0.,1.,0.));
#1104=DIRECTION('center_axis',(0.,0.,1.));
#1105=DIRECTION('ref_axis',(1.,0.,0.));
#1106=DIRECTION('center_axis',(0.,1.,0.));
#1107=DIRECTION('ref_axis',(1.,0.,0.));
#1108=DIRECTION('',(0.,0.,1.));
#1109=DIRECTION('',(-1.,0.,0.));
#1110=DIRECTION('',(0.,0.,1.));
#1111=DIRECTION('center_axis',(0.,1.,0.));
#1112=DIRECTION('ref_axis',(0.,0.,-1.));
#1113=DIRECTION('',(-1.,0.,3.70074394848921E-16));
#1114=DIRECTION('center_axis',(0.,-1.,0.));
#1115=DIRECTION('ref_axis',(1.,0.,0.));
#1116=DIRECTION('center_axis',(0.,1.,0.));
#1117=DIRECTION('ref_axis',(1.,0.,0.));
#1118=DIRECTION('',(1.,0.,0.));
#1119=DIRECTION('',(0.,0.,1.));
#1120=DIRECTION('',(1.,0.,0.));
#1121=DIRECTION('center_axis',(0.,1.,0.));
#1122=DIRECTION('ref_axis',(-1.,0.,0.));
#1123=DIRECTION('',(0.,0.,1.));
#1124=DIRECTION('center_axis',(0.,-1.,0.));
#1125=DIRECTION('ref_axis',(1.,0.,0.));
#1126=DIRECTION('center_axis',(0.,1.,0.));
#1127=DIRECTION('ref_axis',(1.,0.,0.));
#1128=DIRECTION('',(0.,0.,-1.));
#1129=DIRECTION('',(-1.,0.,0.));
#1130=DIRECTION('center_axis',(0.,1.,0.));
#1131=DIRECTION('ref_axis',(1.,0.,0.));
#1132=DIRECTION('',(0.,0.,-1.));
#1133=DIRECTION('',(-1.,0.,0.));
#1134=DIRECTION('center_axis',(0.,-1.,0.));
#1135=DIRECTION('ref_axis',(1.,0.,0.));
#1136=DIRECTION('center_axis',(0.,1.,0.));
#1137=DIRECTION('ref_axis',(1.,0.,0.));
#1138=DIRECTION('',(1.,0.,0.));
#1139=DIRECTION('',(-3.70074394848921E-16,0.,-1.));
#1140=DIRECTION('center_axis',(0.,1.,0.));
#1141=DIRECTION('ref_axis',(0.,0.,1.));
#1142=DIRECTION('',(1.,0.,0.));
#1143=DIRECTION('',(0.,0.,-1.));
#1144=DIRECTION('center_axis',(0.,-1.,0.));
#1145=DIRECTION('ref_axis',(1.,0.,0.));
#1146=DIRECTION('center_axis',(0.,1.,0.));
#1147=DIRECTION('ref_axis',(0.,0.,-1.));
#1148=DIRECTION('',(0.,1.,0.));
#1149=DIRECTION('center_axis',(0.,1.,0.));
#1150=DIRECTION('ref_axis',(0.,0.,-1.));
#1151=DIRECTION('',(0.,1.,0.));
#1152=DIRECTION('center_axis',(-1.,0.,0.));
#1153=DIRECTION('ref_axis',(0.,0.,1.));
#1154=DIRECTION('',(0.,1.,0.));
#1155=DIRECTION('',(0.,0.,1.));
#1156=DIRECTION('center_axis',(0.,0.,-1.));
#1157=DIRECTION('ref_axis',(-1.,0.,0.));
#1158=DIRECTION('',(0.,1.,0.));
#1159=DIRECTION('',(-1.,0.,0.));
#1160=DIRECTION('',(0.,-1.,0.));
#1161=DIRECTION('',(0.,-1.,0.));
#1162=DIRECTION('center_axis',(1.,0.,0.));
#1163=DIRECTION('ref_axis',(0.,0.,-1.));
#1164=DIRECTION('',(0.,1.,0.));
#1165=DIRECTION('',(0.,0.,-1.));
#1166=DIRECTION('center_axis',(0.,1.,0.));
#1167=DIRECTION('ref_axis',(1.,0.,0.));
#1168=DIRECTION('',(0.,1.,0.));
#1169=DIRECTION('center_axis',(0.,1.,0.));
#1170=DIRECTION('ref_axis',(1.,0.,0.));
#1171=DIRECTION('center_axis',(0.,0.,-1.));
#1172=DIRECTION('ref_axis',(-1.,0.,0.));
#1173=DIRECTION('',(0.,1.,0.));
#1174=DIRECTION('',(-1.,0.,0.));
#1175=DIRECTION('center_axis',(1.,0.,0.));
#1176=DIRECTION('ref_axis',(0.,0.,-1.));
#1177=DIRECTION('',(0.,1.,0.));
#1178=DIRECTION('',(0.,0.,-1.));
#1179=DIRECTION('',(0.,-1.,0.));
#1180=DIRECTION('center_axis',(0.,0.,1.));
#1181=DIRECTION('ref_axis',(1.,0.,0.));
#1182=DIRECTION('',(0.,1.,0.));
#1183=DIRECTION('',(1.,0.,0.));
#1184=DIRECTION('center_axis',(0.,1.,0.));
#1185=DIRECTION('ref_axis',(-1.,0.,0.));
#1186=DIRECTION('center_axis',(0.,-1.,0.));
#1187=DIRECTION('ref_axis',(1.,0.,0.));
#1188=DIRECTION('center_axis',(0.,1.,0.));
#1189=DIRECTION('ref_axis',(-1.,0.,0.));
#1190=DIRECTION('center_axis',(0.,-1.,0.));
#1191=DIRECTION('ref_axis',(1.,0.,0.));
#1192=DIRECTION('center_axis',(0.,1.,0.));
#1193=DIRECTION('ref_axis',(-1.,0.,0.));
#1194=DIRECTION('center_axis',(0.,-1.,0.));
#1195=DIRECTION('ref_axis',(1.,0.,0.));
#1196=DIRECTION('center_axis',(0.,1.,0.));
#1197=DIRECTION('ref_axis',(-1.,0.,0.));
#1198=DIRECTION('center_axis',(0.,1.,0.));
#1199=DIRECTION('ref_axis',(0.,0.,1.));
#1200=DIRECTION('',(-3.70074394848921E-16,0.,-1.));
#1201=DIRECTION('',(1.,0.,0.));
#1202=DIRECTION('',(0.,0.,1.));
#1203=DIRECTION('center_axis',(0.,1.,0.));
#1204=DIRECTION('ref_axis',(-1.,0.,0.));
#1205=DIRECTION('',(1.,0.,0.));
#1206=DIRECTION('',(0.,0.,1.));
#1207=DIRECTION('',(-1.,0.,3.70074394848921E-16));
#1208=DIRECTION('center_axis',(0.,1.,0.));
#1209=DIRECTION('ref_axis',(-1.,0.,0.));
#1210=DIRECTION('center_axis',(0.,-1.,0.));
#1211=DIRECTION('ref_axis',(1.,0.,0.));
#1212=DIRECTION('center_axis',(0.,1.,0.));
#1213=DIRECTION('ref_axis',(1.,0.,0.));
#1214=DIRECTION('',(0.,-1.,0.));
#1215=DIRECTION('center_axis',(-3.70074394848921E-16,0.,-1.));
#1216=DIRECTION('ref_axis',(-1.,0.,3.70074394848921E-16));
#1217=DIRECTION('',(0.,1.,0.));
#1218=DIRECTION('center_axis',(-1.,0.,0.));
#1219=DIRECTION('ref_axis',(0.,0.,1.));
#1220=DIRECTION('',(0.,1.,0.));
#1221=DIRECTION('',(0.,-1.,0.));
#1222=DIRECTION('center_axis',(0.,0.,1.));
#1223=DIRECTION('ref_axis',(1.,0.,0.));
#1224=DIRECTION('',(0.,1.,0.));
#1225=DIRECTION('center_axis',(0.,1.,0.));
#1226=DIRECTION('ref_axis',(-1.,0.,0.));
#1227=DIRECTION('',(0.,1.,0.));
#1228=DIRECTION('center_axis',(-1.,0.,0.));
#1229=DIRECTION('ref_axis',(0.,0.,1.));
#1230=DIRECTION('',(0.,1.,0.));
#1231=DIRECTION('center_axis',(0.,0.,1.));
#1232=DIRECTION('ref_axis',(1.,0.,0.));
#1233=DIRECTION('',(0.,1.,0.));
#1234=DIRECTION('center_axis',(1.,0.,-3.70074394848921E-16));
#1235=DIRECTION('ref_axis',(-3.70074394848921E-16,0.,-1.));
#1236=DIRECTION('',(0.,1.,0.));
#1237=DIRECTION('center_axis',(0.,1.,0.));
#1238=DIRECTION('ref_axis',(0.,0.,1.));
#1239=DIRECTION('center_axis',(0.,1.,0.));
#1240=DIRECTION('ref_axis',(1.,0.,0.));
#1241=DIRECTION('',(0.,-1.,0.));
#1242=DIRECTION('center_axis',(0.,1.,0.));
#1243=DIRECTION('ref_axis',(1.,0.,0.));
#1244=DIRECTION('',(0.,-1.,0.));
#1245=DIRECTION('center_axis',(0.,1.,0.));
#1246=DIRECTION('ref_axis',(1.,0.,0.));
#1247=DIRECTION('',(0.,-1.,0.));
#1248=DIRECTION('center_axis',(0.,0.,-1.));
#1249=DIRECTION('ref_axis',(-1.,0.,0.));
#1250=CARTESIAN_POINT('',(0.,0.,0.));
#1251=CARTESIAN_POINT('Origin',(25.000000372529,20.,-45.0000006705523));
#1252=CARTESIAN_POINT('',(17.0000002533198,16.,-45.0000006705523));
#1253=CARTESIAN_POINT('Origin',(25.000000372529,16.,-45.0000006705523));
#1254=CARTESIAN_POINT('',(17.0000002533198,20.,-45.0000006705523));
#1255=CARTESIAN_POINT('',(17.0000002533198,20.,-45.0000006705523));
#1256=CARTESIAN_POINT('Origin',(25.000000372529,20.,-45.0000006705523));
#1257=CARTESIAN_POINT('Origin',(25.000000372529,16.,-45.0000006705523));
#1258=CARTESIAN_POINT('',(19.000000372529,16.,-45.0000006705523));
#1259=CARTESIAN_POINT('Origin',(25.000000372529,16.,-45.0000006705523));
#1260=CARTESIAN_POINT('Origin',(25.000000372529,20.,-25.0000003725291));
#1261=CARTESIAN_POINT('',(17.0000002533197,16.,-25.0000003725291));
#1262=CARTESIAN_POINT('Origin',(25.000000372529,16.,-25.0000003725291));
#1263=CARTESIAN_POINT('',(17.0000002533197,20.,-25.0000003725291));
#1264=CARTESIAN_POINT('',(17.0000002533197,20.,-25.0000003725291));
#1265=CARTESIAN_POINT('Origin',(25.000000372529,20.,-25.0000003725291));
#1266=CARTESIAN_POINT('Origin',(25.000000372529,16.,-25.0000003725291));
#1267=CARTESIAN_POINT('',(19.000000372529,16.,-25.0000003725291));
#1268=CARTESIAN_POINT('Origin',(25.000000372529,16.,-25.0000003725291));
#1269=CARTESIAN_POINT('Origin',(45.0000006705522,20.,-45.0000006705523));
#1270=CARTESIAN_POINT('',(37.0000005513429,16.,-45.0000006705523));
#1271=CARTESIAN_POINT('Origin',(45.0000006705522,16.,-45.0000006705523));
#1272=CARTESIAN_POINT('',(37.0000005513429,20.,-45.0000006705523));
#1273=CARTESIAN_POINT('',(37.0000005513429,20.,-45.0000006705523));
#1274=CARTESIAN_POINT('Origin',(45.0000006705522,20.,-45.0000006705523));
#1275=CARTESIAN_POINT('Origin',(45.0000006705522,16.,-45.0000006705523));
#1276=CARTESIAN_POINT('',(39.0000006705522,16.,-45.0000006705523));
#1277=CARTESIAN_POINT('Origin',(45.0000006705522,16.,-45.0000006705523));
#1278=CARTESIAN_POINT('Origin',(45.0000006705522,20.,-25.0000003725291));
#1279=CARTESIAN_POINT('',(37.0000005513429,16.,-25.0000003725291));
#1280=CARTESIAN_POINT('Origin',(45.0000006705522,16.,-25.0000003725291));
#1281=CARTESIAN_POINT('',(37.0000005513429,20.,-25.0000003725291));
#1282=CARTESIAN_POINT('',(37.0000005513429,20.,-25.0000003725291));
#1283=CARTESIAN_POINT('Origin',(45.0000006705522,20.,-25.0000003725291));
#1284=CARTESIAN_POINT('Origin',(45.0000006705522,16.,-25.0000003725291));
#1285=CARTESIAN_POINT('',(39.0000006705522,16.,-25.0000003725291));
#1286=CARTESIAN_POINT('Origin',(45.0000006705522,16.,-25.0000003725291));
#1287=CARTESIAN_POINT('Origin',(45.0000006705522,22.,-45.0000006705523));
#1288=CARTESIAN_POINT('',(39.0000006705522,22.,-45.0000006705523));
#1289=CARTESIAN_POINT('Origin',(45.0000006705522,22.,-45.0000006705523));
#1290=CARTESIAN_POINT('',(39.0000006705522,22.,-45.0000006705523));
#1291=CARTESIAN_POINT('Origin',(45.0000006705522,22.,-25.0000003725291));
#1292=CARTESIAN_POINT('',(39.0000006705522,22.,-25.0000003725291));
#1293=CARTESIAN_POINT('Origin',(45.0000006705522,22.,-25.0000003725291));
#1294=CARTESIAN_POINT('',(39.0000006705522,22.,-25.0000003725291));
#1295=CARTESIAN_POINT('Origin',(25.000000372529,22.,-45.0000006705523));
#1296=CARTESIAN_POINT('',(19.000000372529,22.,-45.0000006705523));
#1297=CARTESIAN_POINT('Origin',(25.000000372529,22.,-45.0000006705523));
#1298=CARTESIAN_POINT('',(19.000000372529,22.,-45.0000006705523));
#1299=CARTESIAN_POINT('Origin',(25.000000372529,22.,-25.0000003725291));
#1300=CARTESIAN_POINT('',(19.000000372529,22.,-25.0000003725291));
#1301=CARTESIAN_POINT('Origin',(25.000000372529,22.,-25.0000003725291));
#1302=CARTESIAN_POINT('',(19.000000372529,22.,-25.0000003725291));
#1303=CARTESIAN_POINT('Origin',(66.000001013279,0.,-4.00000002980232));
#1304=CARTESIAN_POINT('',(68.000001013279,22.,-4.00000002980232));
#1305=CARTESIAN_POINT('',(66.000001013279,22.,-2.00000002980232));
#1306=CARTESIAN_POINT('Origin',(66.000001013279,22.,-4.00000002980232));
#1307=CARTESIAN_POINT('',(66.000001013279,11.8,-2.00000002980232));
#1308=CARTESIAN_POINT('',(66.000001013279,0.,-2.00000002980232));
#1309=CARTESIAN_POINT('',(68.000001013279,11.8,-4.00000002980232));
#1310=CARTESIAN_POINT('Origin',(66.000001013279,11.8,-4.00000002980232));
#1311=CARTESIAN_POINT('',(68.000001013279,0.,-4.00000002980232));
#1312=CARTESIAN_POINT('Origin',(35.0000005215406,22.,-35.0000005215406));
#1313=CARTESIAN_POINT('',(68.000001013279,22.,-66.000001013279));
#1314=CARTESIAN_POINT('',(68.000001013279,22.,-2.00000002980232));
#1315=CARTESIAN_POINT('',(66.000001013279,22.,-68.000001013279));
#1316=CARTESIAN_POINT('Origin',(66.000001013279,22.,-66.000001013279));
#1317=CARTESIAN_POINT('',(4.00000002980232,22.,-68.000001013279));
#1318=CARTESIAN_POINT('',(68.000001013279,22.,-68.000001013279));
#1319=CARTESIAN_POINT('',(2.00000002980232,22.,-66.000001013279));
#1320=CARTESIAN_POINT('Origin',(4.00000002980232,22.,-66.000001013279));
#1321=CARTESIAN_POINT('',(2.00000002980232,22.,-4.00000002980232));
#1322=CARTESIAN_POINT('',(2.00000002980232,22.,-68.000001013279));
#1323=CARTESIAN_POINT('',(4.00000002980232,22.,-2.00000002980232));
#1324=CARTESIAN_POINT('Origin',(4.00000002980232,22.,-4.00000002980232));
#1325=CARTESIAN_POINT('',(2.00000002980232,22.,-2.00000002980232));
#1326=CARTESIAN_POINT('Origin',(68.000001013279,0.,-2.00000002980232));
#1327=CARTESIAN_POINT('',(68.000001013279,11.8,-66.000001013279));
#1328=CARTESIAN_POINT('',(68.000001013279,11.8,-68.000001013279));
#1329=CARTESIAN_POINT('',(68.000001013279,0.,-66.000001013279));
#1330=CARTESIAN_POINT('Origin',(66.000001013279,0.,-66.000001013279));
#1331=CARTESIAN_POINT('',(66.000001013279,11.8,-68.000001013279));
#1332=CARTESIAN_POINT('Origin',(66.000001013279,11.8,-66.000001013279));
#1333=CARTESIAN_POINT('',(66.000001013279,0.,-68.000001013279));
#1334=CARTESIAN_POINT('Origin',(4.00000002980232,0.,-66.000001013279));
#1335=CARTESIAN_POINT('',(4.00000002980232,11.8,-68.000001013279));
#1336=CARTESIAN_POINT('',(4.00000002980232,0.,-68.000001013279));
#1337=CARTESIAN_POINT('',(2.00000002980232,11.8,-66.000001013279));
#1338=CARTESIAN_POINT('Origin',(4.00000002980232,11.8,-66.000001013279));
#1339=CARTESIAN_POINT('',(2.00000002980232,0.,-66.000001013279));
#1340=CARTESIAN_POINT('Origin',(2.00000002980232,0.,-68.000001013279));
#1341=CARTESIAN_POINT('',(2.00000002980232,11.8,-4.00000002980232));
#1342=CARTESIAN_POINT('',(2.00000002980232,11.8,-2.00000002980232));
#1343=CARTESIAN_POINT('',(2.00000002980232,0.,-4.00000002980232));
#1344=CARTESIAN_POINT('Origin',(35.0000005215406,11.8,-35.0000005215406));
#1345=CARTESIAN_POINT('',(4.00000002980232,11.8,-2.00000002980232));
#1346=CARTESIAN_POINT('',(68.000001013279,11.8,-2.00000002980232));
#1347=CARTESIAN_POINT('Origin',(4.00000002980232,11.8,-4.00000002980232));
#1348=CARTESIAN_POINT('',(2.00000002980232,11.8,-68.000001013279));
#1349=CARTESIAN_POINT('',(66.0000009834766,11.8,-4.00000005960464));
#1350=CARTESIAN_POINT('',(66.0000009834766,11.8,-66.0000009834766));
#1351=CARTESIAN_POINT('',(66.0000009834766,11.8,-66.0000009834766));
#1352=CARTESIAN_POINT('',(4.00000005960464,11.8,-66.0000009834766));
#1353=CARTESIAN_POINT('',(4.00000005960464,11.8,-66.0000009834766));
#1354=CARTESIAN_POINT('',(4.00000005960464,11.8,-4.00000005960464));
#1355=CARTESIAN_POINT('',(4.00000005960464,11.8,-4.00000005960464));
#1356=CARTESIAN_POINT('',(66.0000009834766,11.8,-4.00000005960464));
#1357=CARTESIAN_POINT('Origin',(4.00000002980232,0.,-4.00000002980232));
#1358=CARTESIAN_POINT('',(4.00000002980232,0.,-2.00000002980232));
#1359=CARTESIAN_POINT('Origin',(2.00000002980232,0.,-2.00000002980232));
#1360=CARTESIAN_POINT('Origin',(35.0000005215406,13.8,-35.0000005215406));
#1361=CARTESIAN_POINT('',(66.0000000298023,13.8,-15.0000002235174));
#1362=CARTESIAN_POINT('',(66.0000009834766,13.8,-4.00000005960464));
#1363=CARTESIAN_POINT('',(66.0000009834766,13.8,-19.5000002905726));
#1364=CARTESIAN_POINT('',(55.0000008195639,13.8,-4.00000002980232));
#1365=CARTESIAN_POINT('',(19.5000002905726,13.8,-4.00000005960464));
#1366=CARTESIAN_POINT('',(55.0000008195639,13.8,-10.0000001490116));
#1367=CARTESIAN_POINT('',(55.0000008195639,13.8,-22.5000003352761));
#1368=CARTESIAN_POINT('',(60.0000008940697,13.8,-15.0000002235174));
#1369=CARTESIAN_POINT('Origin',(60.0000008940697,13.8,-10.0000001490116));
#1370=CARTESIAN_POINT('',(50.5000002756715,13.8,-15.0000002235174));
#1371=CARTESIAN_POINT('',(58.4500008940697,13.8,-10.0000001490116));
#1372=CARTESIAN_POINT('Origin',(60.0000008940697,13.8,-10.0000001490116));
#1373=CARTESIAN_POINT('Origin',(35.0000005215406,13.8,-35.0000005215406));
#1374=CARTESIAN_POINT('',(55.0000008195639,13.8,-66.0000000298023));
#1375=CARTESIAN_POINT('',(66.0000009834766,13.8,-66.0000009834766));
#1376=CARTESIAN_POINT('',(50.5000007525086,13.8,-66.0000009834766));
#1377=CARTESIAN_POINT('',(66.0000000298023,13.8,-55.0000008195639));
#1378=CARTESIAN_POINT('',(66.0000009834766,13.8,-19.5000002905726));
#1379=CARTESIAN_POINT('',(60.0000008940697,13.8,-55.0000008195639));
#1380=CARTESIAN_POINT('',(47.5000007078052,13.8,-55.0000008195639));
#1381=CARTESIAN_POINT('',(55.0000008195639,13.8,-60.0000008940697));
#1382=CARTESIAN_POINT('Origin',(60.0000008940697,13.8,-60.0000008940697));
#1383=CARTESIAN_POINT('',(55.0000008195639,13.8,-50.5000002756715));
#1384=CARTESIAN_POINT('',(58.4500008940697,13.8,-60.0000008940697));
#1385=CARTESIAN_POINT('Origin',(60.0000008940697,13.8,-60.0000008940697));
#1386=CARTESIAN_POINT('Origin',(35.0000005215406,13.8,-35.0000005215406));
#1387=CARTESIAN_POINT('',(4.00000005960464,13.8,-4.00000005960464));
#1388=CARTESIAN_POINT('',(4.00000002980232,13.8,-15.0000002235174));
#1389=CARTESIAN_POINT('',(4.00000005960464,13.8,-50.5000007525086));
#1390=CARTESIAN_POINT('',(10.0000001490116,13.8,-15.0000002235174));
#1391=CARTESIAN_POINT('',(22.5000003352761,13.8,-15.0000002235174));
#1392=CARTESIAN_POINT('',(15.0000002235174,13.8,-10.0000001490116));
#1393=CARTESIAN_POINT('Origin',(10.0000001490116,13.8,-10.0000001490116));
#1394=CARTESIAN_POINT('',(15.0000002235174,13.8,-4.00000002980232));
#1395=CARTESIAN_POINT('',(15.0000002235174,13.8,-19.5000002756715));
#1396=CARTESIAN_POINT('',(19.5000002905726,13.8,-4.00000005960464));
#1397=CARTESIAN_POINT('',(8.45000014901161,13.8,-10.0000001490116));
#1398=CARTESIAN_POINT('Origin',(10.0000001490116,13.8,-10.0000001490116));
#1399=CARTESIAN_POINT('Origin',(35.0000005215406,13.8,-35.0000005215406));
#1400=CARTESIAN_POINT('',(4.00000005960464,13.8,-66.0000009834766));
#1401=CARTESIAN_POINT('',(15.0000002235174,13.8,-66.0000000298023));
#1402=CARTESIAN_POINT('',(50.5000007525086,13.8,-66.0000009834766));
#1403=CARTESIAN_POINT('',(15.0000002235174,13.8,-60.0000008940697));
#1404=CARTESIAN_POINT('',(15.0000002235174,13.8,-47.5000007078052));
#1405=CARTESIAN_POINT('',(10.0000001490116,13.8,-55.0000008195639));
#1406=CARTESIAN_POINT('Origin',(10.0000001490116,13.8,-60.0000008940697));
#1407=CARTESIAN_POINT('',(4.00000002980232,13.8,-55.0000008195639));
#1408=CARTESIAN_POINT('',(19.5000002756715,13.8,-55.0000008195639));
#1409=CARTESIAN_POINT('',(4.00000005960464,13.8,-50.5000007525086));
#1410=CARTESIAN_POINT('',(8.45000014901161,13.8,-60.0000008940697));
#1411=CARTESIAN_POINT('Origin',(10.0000001490116,13.8,-60.0000008940697));
#1412=CARTESIAN_POINT('Origin',(60.0000008940697,0.,-10.0000001490116));
#1413=CARTESIAN_POINT('',(55.0000008195639,20.,-10.0000001490116));
#1414=CARTESIAN_POINT('',(55.0000008195639,0.,-10.0000001490116));
#1415=CARTESIAN_POINT('',(60.0000008940697,20.,-15.0000002235174));
#1416=CARTESIAN_POINT('Origin',(60.0000008940697,20.,-10.0000001490116));
#1417=CARTESIAN_POINT('',(60.0000008940697,0.,-15.0000002235174));
#1418=CARTESIAN_POINT('Origin',(55.0000008195639,0.,-10.0000001490116));
#1419=CARTESIAN_POINT('',(55.0000008195639,20.,-4.00000002980232));
#1420=CARTESIAN_POINT('',(55.0000008195639,0.,-4.00000002980232));
#1421=CARTESIAN_POINT('',(55.0000008195639,20.,-10.0000001490116));
#1422=CARTESIAN_POINT('Origin',(55.0000008195639,0.,-4.00000002980232));
#1423=CARTESIAN_POINT('',(15.0000002235174,20.,-4.00000002980232));
#1424=CARTESIAN_POINT('',(15.0000002235174,0.,-4.00000002980232));
#1425=CARTESIAN_POINT('',(4.00000002980232,20.,-4.00000002980232));
#1426=CARTESIAN_POINT('',(66.0000009834766,13.8,-4.00000005960464));
#1427=CARTESIAN_POINT('',(4.00000005960464,13.8,-4.00000005960464));
#1428=CARTESIAN_POINT('Origin',(15.0000002235174,0.,-4.00000002980232));
#1429=CARTESIAN_POINT('',(15.0000002235174,20.,-10.0000001490116));
#1430=CARTESIAN_POINT('',(15.0000002235174,0.,-10.0000001490116));
#1431=CARTESIAN_POINT('',(15.0000002235174,20.,-10.0000001490116));
#1432=CARTESIAN_POINT('Origin',(10.0000001490116,0.,-10.0000001490116));
#1433=CARTESIAN_POINT('',(10.0000001490116,20.,-15.0000002235174));
#1434=CARTESIAN_POINT('',(10.0000001490116,0.,-15.0000002235174));
#1435=CARTESIAN_POINT('Origin',(10.0000001490116,20.,-10.0000001490116));
#1436=CARTESIAN_POINT('Origin',(10.0000001490116,0.,-15.0000002235174));
#1437=CARTESIAN_POINT('',(4.00000002980232,20.,-15.0000002235174));
#1438=CARTESIAN_POINT('',(4.00000002980232,0.,-15.0000002235174));
#1439=CARTESIAN_POINT('',(10.0000001490116,20.,-15.0000002235174));
#1440=CARTESIAN_POINT('Origin',(4.00000002980232,0.,-15.0000002235174));
#1441=CARTESIAN_POINT('',(4.00000002980232,20.,-55.0000008195639));
#1442=CARTESIAN_POINT('',(4.00000002980232,0.,-55.0000008195639));
#1443=CARTESIAN_POINT('',(4.00000002980232,20.,-66.0000000298023));
#1444=CARTESIAN_POINT('',(4.00000005960464,13.8,-66.0000009834766));
#1445=CARTESIAN_POINT('Origin',(4.00000002980232,0.,-55.0000008195639));
#1446=CARTESIAN_POINT('',(10.0000001490116,20.,-55.0000008195639));
#1447=CARTESIAN_POINT('',(10.0000001490116,0.,-55.0000008195639));
#1448=CARTESIAN_POINT('',(10.0000001490116,20.,-55.0000008195639));
#1449=CARTESIAN_POINT('Origin',(35.0000005215406,20.,-35.0000005215406));
#1450=CARTESIAN_POINT('',(58.4500008940697,20.,-60.0000008940697));
#1451=CARTESIAN_POINT('Origin',(60.0000008940697,20.,-60.0000008940697));
#1452=CARTESIAN_POINT('Origin',(35.0000005215406,20.,-35.0000005215406));
#1453=CARTESIAN_POINT('',(58.4500008940697,20.,-10.0000001490116));
#1454=CARTESIAN_POINT('Origin',(60.0000008940697,20.,-10.0000001490116));
#1455=CARTESIAN_POINT('Origin',(35.0000005215406,20.,-35.0000005215406));
#1456=CARTESIAN_POINT('',(8.45000014901161,20.,-60.0000008940697));
#1457=CARTESIAN_POINT('Origin',(10.0000001490116,20.,-60.0000008940697));
#1458=CARTESIAN_POINT('Origin',(35.0000005215406,20.,-35.0000005215406));
#1459=CARTESIAN_POINT('',(15.0000002235174,20.,-60.0000008940697));
#1460=CARTESIAN_POINT('Origin',(10.0000001490116,20.,-60.0000008940697));
#1461=CARTESIAN_POINT('',(15.0000002235174,20.,-66.0000000298023));
#1462=CARTESIAN_POINT('',(15.0000002235174,20.,-60.0000008940697));
#1463=CARTESIAN_POINT('',(55.0000008195639,20.,-66.0000000298023));
#1464=CARTESIAN_POINT('',(66.0000000298023,20.,-66.0000000298023));
#1465=CARTESIAN_POINT('',(55.0000008195639,20.,-60.0000008940697));
#1466=CARTESIAN_POINT('',(55.0000008195639,20.,-60.0000008940697));
#1467=CARTESIAN_POINT('',(60.0000008940697,20.,-55.0000008195639));
#1468=CARTESIAN_POINT('Origin',(60.0000008940697,20.,-60.0000008940697));
#1469=CARTESIAN_POINT('',(66.0000000298023,20.,-55.0000008195639));
#1470=CARTESIAN_POINT('',(60.0000008940697,20.,-55.0000008195639));
#1471=CARTESIAN_POINT('',(66.0000000298023,20.,-15.0000002235174));
#1472=CARTESIAN_POINT('',(66.0000000298023,20.,-4.00000002980232));
#1473=CARTESIAN_POINT('',(60.0000008940697,20.,-15.0000002235174));
#1474=CARTESIAN_POINT('Origin',(35.0000005215406,20.,-35.0000005215406));
#1475=CARTESIAN_POINT('',(8.45000014901161,20.,-10.0000001490116));
#1476=CARTESIAN_POINT('Origin',(10.0000001490116,20.,-10.0000001490116));
#1477=CARTESIAN_POINT('Origin',(10.0000001490116,0.,-10.0000001490116));
#1478=CARTESIAN_POINT('',(8.45000014901161,0.,-10.0000001490116));
#1479=CARTESIAN_POINT('Origin',(66.0000000298023,0.,-15.0000002235174));
#1480=CARTESIAN_POINT('',(66.0000000298023,0.,-15.0000002235174));
#1481=CARTESIAN_POINT('Origin',(66.0000000298023,0.,-55.0000008195639));
#1482=CARTESIAN_POINT('',(66.0000000298023,0.,-55.0000008195639));
#1483=CARTESIAN_POINT('',(66.0000009834766,13.8,-66.0000009834766));
#1484=CARTESIAN_POINT('Origin',(60.0000008940697,0.,-55.0000008195639));
#1485=CARTESIAN_POINT('',(60.0000008940697,0.,-55.0000008195639));
#1486=CARTESIAN_POINT('Origin',(60.0000008940697,0.,-60.0000008940697));
#1487=CARTESIAN_POINT('',(55.0000008195639,0.,-60.0000008940697));
#1488=CARTESIAN_POINT('Origin',(55.0000008195639,0.,-66.0000000298023));
#1489=CARTESIAN_POINT('',(55.0000008195639,0.,-66.0000000298023));
#1490=CARTESIAN_POINT('Origin',(15.0000002235174,0.,-66.0000000298023));
#1491=CARTESIAN_POINT('',(15.0000002235174,0.,-66.0000000298023));
#1492=CARTESIAN_POINT('Origin',(15.0000002235174,0.,-60.0000008940697));
#1493=CARTESIAN_POINT('',(15.0000002235174,0.,-60.0000008940697));
#1494=CARTESIAN_POINT('Origin',(10.0000001490116,0.,-60.0000008940697));
#1495=CARTESIAN_POINT('Origin',(10.0000001490116,0.,-60.0000008940697));
#1496=CARTESIAN_POINT('',(8.45000014901161,0.,-60.0000008940697));
#1497=CARTESIAN_POINT('Origin',(60.0000008940697,0.,-10.0000001490116));
#1498=CARTESIAN_POINT('',(58.4500008940697,0.,-10.0000001490116));
#1499=CARTESIAN_POINT('Origin',(60.0000008940697,0.,-60.0000008940697));
#1500=CARTESIAN_POINT('',(58.4500008940697,0.,-60.0000008940697));
#1501=CARTESIAN_POINT('Origin',(68.000001013279,0.,-68.000001013279));
#1502=UNCERTAINTY_MEASURE_WITH_UNIT(LENGTH_MEASURE(0.01),#1506,
'DISTANCE_ACCURACY_VALUE',
'Maximum model space distance between geometric entities at asserted c
onnectivities');
#1503=UNCERTAINTY_MEASURE_WITH_UNIT(LENGTH_MEASURE(0.01),#1506,
'DISTANCE_ACCURACY_VALUE',
'Maximum model space distance between geometric entities at asserted c
onnectivities');
#1504=(
GEOMETRIC_REPRESENTATION_CONTEXT(3)
GLOBAL_UNCERTAINTY_ASSIGNED_CONTEXT((#1502))
GLOBAL_UNIT_ASSIGNED_CONTEXT((#1506,#1507,#1508))
REPRESENTATION_CONTEXT('','3D')
);
#1505=(
GEOMETRIC_REPRESENTATION_CONTEXT(3)
GLOBAL_UNCERTAINTY_ASSIGNED_CONTEXT((#1503))
GLOBAL_UNIT_ASSIGNED_CONTEXT((#1506,#1507,#1508))
REPRESENTATION_CONTEXT('','3D')
);
#1506=(
LENGTH_UNIT()
NAMED_UNIT(*)
SI_UNIT(.MILLI.,.METRE.)
);
#1507=(
NAMED_UNIT(*)
PLANE_ANGLE_UNIT()
SI_UNIT($,.RADIAN.)
);
#1508=(
NAMED_UNIT(*)
SI_UNIT($,.STERADIAN.)
SOLID_ANGLE_UNIT()
);
#1509=SHAPE_DEFINITION_REPRESENTATION(#1510,#1511);
#1510=PRODUCT_DEFINITION_SHAPE('',$,#1513);
#1511=SHAPE_REPRESENTATION('',(#894),#1504);
#1512=PRODUCT_DEFINITION_CONTEXT('part definition',#1517,'design');
#1513=PRODUCT_DEFINITION('2025-11-18-15-52-09-945','Quad light top',#1514,
#1512);
#1514=PRODUCT_DEFINITION_FORMATION('',$,#1519);
#1515=PRODUCT_RELATED_PRODUCT_CATEGORY('Quad light top',
'Quad light top',(#1519));
#1516=APPLICATION_PROTOCOL_DEFINITION('international standard',
'automotive_design',2009,#1517);
#1517=APPLICATION_CONTEXT(
'Core Data for Automotive Mechanical Design Process');
#1518=PRODUCT_CONTEXT('part definition',#1517,'mechanical');
#1519=PRODUCT('2025-11-18-15-52-09-945','Quad light top',$,(#1518));
#1520=PRESENTATION_STYLE_ASSIGNMENT((#1521));
#1521=SURFACE_STYLE_USAGE(.BOTH.,#1522);
#1522=SURFACE_SIDE_STYLE('',(#1523));
#1523=SURFACE_STYLE_FILL_AREA(#1524);
#1524=FILL_AREA_STYLE('Steel - Satin',(#1525));
#1525=FILL_AREA_STYLE_COLOUR('Steel - Satin',#1526);
#1526=COLOUR_RGB('Steel - Satin',0.627450980392157,0.627450980392157,0.627450980392157);
ENDSEC;
END-ISO-10303-21;
