ISO-10303-21;
HEADER;
/* Generated by software containing ST-Developer
 * from STEP Tools, Inc. (www.steptools.com) 
 */

FILE_DESCRIPTION(
/* description */ (''),
/* implementation_level */ '2;1');

FILE_NAME(
/* name */ 'Button.step',
/* time_stamp */ '2026-04-27T15:46:28+01:00',
/* author */ (''),
/* organization */ (''),
/* preprocessor_version */ 'ST-DEVELOPER v20.1',
/* originating_system */ 'Autodesk Translation Framework v14.24.0.0',
/* authorisation */ '');

FILE_SCHEMA (('AUTOMOTIVE_DESIGN { 1 0 10303 214 3 1 1 }'));
ENDSEC;

DATA;
#10=MECHANICAL_DESIGN_GEOMETRIC_PRESENTATION_REPRESENTATION('',(#13),#1657);
#11=SHAPE_REPRESENTATION_RELATIONSHIP('SRR','None',#1664,#12);
#12=ADVANCED_BREP_SHAPE_REPRESENTATION('',(#14),#1656);
#13=STYLED_ITEM('',(#1673),#14);
#14=MANIFOLD_SOLID_BREP('Body1',#1029);
#15=CYLINDRICAL_SURFACE('',#1078,7.5);
#16=CYLINDRICAL_SURFACE('',#1099,8.);
#17=FACE_BOUND('',#92,.T.);
#18=FACE_BOUND('',#93,.T.);
#19=FACE_BOUND('',#94,.T.);
#20=FACE_BOUND('',#102,.T.);
#21=FACE_BOUND('',#104,.T.);
#22=FACE_BOUND('',#132,.T.);
#23=FACE_BOUND('',#147,.T.);
#24=FACE_BOUND('',#152,.T.);
#25=CIRCLE('',#1046,7.5);
#26=CIRCLE('',#1047,7.5);
#27=CIRCLE('',#1055,7.5);
#28=CIRCLE('',#1056,7.5);
#29=CIRCLE('',#1058,7.5);
#30=CIRCLE('',#1079,7.5);
#31=CIRCLE('',#1100,8.);
#32=CIRCLE('',#1101,8.);
#33=FACE_OUTER_BOUND('',#89,.T.);
#34=FACE_OUTER_BOUND('',#90,.T.);
#35=FACE_OUTER_BOUND('',#91,.T.);
#36=FACE_OUTER_BOUND('',#95,.T.);
#37=FACE_OUTER_BOUND('',#96,.T.);
#38=FACE_OUTER_BOUND('',#97,.T.);
#39=FACE_OUTER_BOUND('',#98,.T.);
#40=FACE_OUTER_BOUND('',#99,.T.);
#41=FACE_OUTER_BOUND('',#100,.T.);
#42=FACE_OUTER_BOUND('',#101,.T.);
#43=FACE_OUTER_BOUND('',#103,.T.);
#44=FACE_OUTER_BOUND('',#105,.T.);
#45=FACE_OUTER_BOUND('',#106,.T.);
#46=FACE_OUTER_BOUND('',#107,.T.);
#47=FACE_OUTER_BOUND('',#108,.T.);
#48=FACE_OUTER_BOUND('',#109,.T.);
#49=FACE_OUTER_BOUND('',#110,.T.);
#50=FACE_OUTER_BOUND('',#111,.T.);
#51=FACE_OUTER_BOUND('',#112,.T.);
#52=FACE_OUTER_BOUND('',#113,.T.);
#53=FACE_OUTER_BOUND('',#114,.T.);
#54=FACE_OUTER_BOUND('',#115,.T.);
#55=FACE_OUTER_BOUND('',#116,.T.);
#56=FACE_OUTER_BOUND('',#117,.T.);
#57=FACE_OUTER_BOUND('',#118,.T.);
#58=FACE_OUTER_BOUND('',#119,.T.);
#59=FACE_OUTER_BOUND('',#120,.T.);
#60=FACE_OUTER_BOUND('',#121,.T.);
#61=FACE_OUTER_BOUND('',#122,.T.);
#62=FACE_OUTER_BOUND('',#123,.T.);
#63=FACE_OUTER_BOUND('',#124,.T.);
#64=FACE_OUTER_BOUND('',#125,.T.);
#65=FACE_OUTER_BOUND('',#126,.T.);
#66=FACE_OUTER_BOUND('',#127,.T.);
#67=FACE_OUTER_BOUND('',#128,.T.);
#68=FACE_OUTER_BOUND('',#129,.T.);
#69=FACE_OUTER_BOUND('',#130,.T.);
#70=FACE_OUTER_BOUND('',#131,.T.);
#71=FACE_OUTER_BOUND('',#133,.T.);
#72=FACE_OUTER_BOUND('',#134,.T.);
#73=FACE_OUTER_BOUND('',#135,.T.);
#74=FACE_OUTER_BOUND('',#136,.T.);
#75=FACE_OUTER_BOUND('',#137,.T.);
#76=FACE_OUTER_BOUND('',#138,.T.);
#77=FACE_OUTER_BOUND('',#139,.T.);
#78=FACE_OUTER_BOUND('',#140,.T.);
#79=FACE_OUTER_BOUND('',#141,.T.);
#80=FACE_OUTER_BOUND('',#142,.T.);
#81=FACE_OUTER_BOUND('',#143,.T.);
#82=FACE_OUTER_BOUND('',#144,.T.);
#83=FACE_OUTER_BOUND('',#145,.T.);
#84=FACE_OUTER_BOUND('',#146,.T.);
#85=FACE_OUTER_BOUND('',#148,.T.);
#86=FACE_OUTER_BOUND('',#149,.T.);
#87=FACE_OUTER_BOUND('',#150,.T.);
#88=FACE_OUTER_BOUND('',#151,.T.);
#89=EDGE_LOOP('',(#643,#644,#645,#646));
#90=EDGE_LOOP('',(#647,#648,#649,#650));
#91=EDGE_LOOP('',(#651,#652,#653,#654));
#92=EDGE_LOOP('',(#655,#656,#657,#658));
#93=EDGE_LOOP('',(#659,#660,#661,#662));
#94=EDGE_LOOP('',(#663,#664,#665,#666));
#95=EDGE_LOOP('',(#667,#668,#669,#670));
#96=EDGE_LOOP('',(#671,#672,#673,#674));
#97=EDGE_LOOP('',(#675,#676,#677,#678));
#98=EDGE_LOOP('',(#679,#680,#681,#682));
#99=EDGE_LOOP('',(#683,#684,#685,#686));
#100=EDGE_LOOP('',(#687,#688,#689,#690));
#101=EDGE_LOOP('',(#691,#692,#693));
#102=EDGE_LOOP('',(#694,#695,#696,#697));
#103=EDGE_LOOP('',(#698,#699));
#104=EDGE_LOOP('',(#700,#701,#702,#703));
#105=EDGE_LOOP('',(#704,#705,#706,#707));
#106=EDGE_LOOP('',(#708,#709,#710,#711));
#107=EDGE_LOOP('',(#712,#713,#714,#715));
#108=EDGE_LOOP('',(#716,#717,#718,#719));
#109=EDGE_LOOP('',(#720,#721,#722,#723));
#110=EDGE_LOOP('',(#724,#725,#726,#727));
#111=EDGE_LOOP('',(#728,#729,#730,#731));
#112=EDGE_LOOP('',(#732,#733,#734,#735));
#113=EDGE_LOOP('',(#736,#737,#738,#739));
#114=EDGE_LOOP('',(#740,#741,#742,#743));
#115=EDGE_LOOP('',(#744,#745,#746,#747));
#116=EDGE_LOOP('',(#748,#749,#750,#751));
#117=EDGE_LOOP('',(#752,#753,#754,#755));
#118=EDGE_LOOP('',(#756,#757,#758,#759));
#119=EDGE_LOOP('',(#760,#761,#762,#763));
#120=EDGE_LOOP('',(#764,#765,#766,#767));
#121=EDGE_LOOP('',(#768,#769,#770,#771));
#122=EDGE_LOOP('',(#772,#773,#774,#775));
#123=EDGE_LOOP('',(#776,#777,#778,#779));
#124=EDGE_LOOP('',(#780,#781,#782,#783,#784,#785,#786,#787,#788,#789,#790,
#791));
#125=EDGE_LOOP('',(#792,#793,#794,#795,#796,#797));
#126=EDGE_LOOP('',(#798,#799,#800,#801));
#127=EDGE_LOOP('',(#802,#803,#804,#805));
#128=EDGE_LOOP('',(#806,#807,#808,#809));
#129=EDGE_LOOP('',(#810,#811,#812,#813));
#130=EDGE_LOOP('',(#814,#815,#816,#817,#818,#819));
#131=EDGE_LOOP('',(#820,#821,#822,#823));
#132=EDGE_LOOP('',(#824,#825,#826,#827));
#133=EDGE_LOOP('',(#828,#829,#830,#831));
#134=EDGE_LOOP('',(#832,#833,#834,#835));
#135=EDGE_LOOP('',(#836,#837,#838,#839));
#136=EDGE_LOOP('',(#840,#841,#842,#843));
#137=EDGE_LOOP('',(#844,#845,#846,#847));
#138=EDGE_LOOP('',(#848,#849,#850,#851));
#139=EDGE_LOOP('',(#852,#853,#854,#855));
#140=EDGE_LOOP('',(#856,#857,#858,#859));
#141=EDGE_LOOP('',(#860,#861,#862,#863));
#142=EDGE_LOOP('',(#864,#865,#866,#867,#868,#869,#870,#871));
#143=EDGE_LOOP('',(#872,#873,#874,#875,#876,#877,#878,#879));
#144=EDGE_LOOP('',(#880,#881,#882,#883,#884,#885,#886,#887,#888,#889));
#145=EDGE_LOOP('',(#890,#891,#892,#893));
#146=EDGE_LOOP('',(#894));
#147=EDGE_LOOP('',(#895));
#148=EDGE_LOOP('',(#896,#897,#898,#899,#900,#901,#902,#903,#904,#905));
#149=EDGE_LOOP('',(#906,#907,#908,#909));
#150=EDGE_LOOP('',(#910,#911,#912,#913));
#151=EDGE_LOOP('',(#914,#915,#916,#917));
#152=EDGE_LOOP('',(#918));
#153=LINE('',#1371,#283);
#154=LINE('',#1373,#284);
#155=LINE('',#1375,#285);
#156=LINE('',#1376,#286);
#157=LINE('',#1380,#287);
#158=LINE('',#1382,#288);
#159=LINE('',#1384,#289);
#160=LINE('',#1385,#290);
#161=LINE('',#1391,#291);
#162=LINE('',#1393,#292);
#163=LINE('',#1395,#293);
#164=LINE('',#1396,#294);
#165=LINE('',#1399,#295);
#166=LINE('',#1401,#296);
#167=LINE('',#1403,#297);
#168=LINE('',#1404,#298);
#169=LINE('',#1407,#299);
#170=LINE('',#1409,#300);
#171=LINE('',#1411,#301);
#172=LINE('',#1412,#302);
#173=LINE('',#1415,#303);
#174=LINE('',#1417,#304);
#175=LINE('',#1418,#305);
#176=LINE('',#1421,#306);
#177=LINE('',#1422,#307);
#178=LINE('',#1425,#308);
#179=LINE('',#1427,#309);
#180=LINE('',#1428,#310);
#181=LINE('',#1431,#311);
#182=LINE('',#1432,#312);
#183=LINE('',#1435,#313);
#184=LINE('',#1437,#314);
#185=LINE('',#1438,#315);
#186=LINE('',#1441,#316);
#187=LINE('',#1442,#317);
#188=LINE('',#1449,#318);
#189=LINE('',#1451,#319);
#190=LINE('',#1453,#320);
#191=LINE('',#1454,#321);
#192=LINE('',#1459,#322);
#193=LINE('',#1461,#323);
#194=LINE('',#1463,#324);
#195=LINE('',#1464,#325);
#196=LINE('',#1467,#326);
#197=LINE('',#1469,#327);
#198=LINE('',#1470,#328);
#199=LINE('',#1473,#329);
#200=LINE('',#1474,#330);
#201=LINE('',#1477,#331);
#202=LINE('',#1478,#332);
#203=LINE('',#1480,#333);
#204=LINE('',#1484,#334);
#205=LINE('',#1486,#335);
#206=LINE('',#1487,#336);
#207=LINE('',#1490,#337);
#208=LINE('',#1491,#338);
#209=LINE('',#1494,#339);
#210=LINE('',#1495,#340);
#211=LINE('',#1497,#341);
#212=LINE('',#1501,#342);
#213=LINE('',#1502,#343);
#214=LINE('',#1504,#344);
#215=LINE('',#1508,#345);
#216=LINE('',#1509,#346);
#217=LINE('',#1511,#347);
#218=LINE('',#1515,#348);
#219=LINE('',#1516,#349);
#220=LINE('',#1518,#350);
#221=LINE('',#1522,#351);
#222=LINE('',#1527,#352);
#223=LINE('',#1529,#353);
#224=LINE('',#1531,#354);
#225=LINE('',#1533,#355);
#226=LINE('',#1535,#356);
#227=LINE('',#1536,#357);
#228=LINE('',#1540,#358);
#229=LINE('',#1542,#359);
#230=LINE('',#1544,#360);
#231=LINE('',#1545,#361);
#232=LINE('',#1548,#362);
#233=LINE('',#1550,#363);
#234=LINE('',#1551,#364);
#235=LINE('',#1554,#365);
#236=LINE('',#1556,#366);
#237=LINE('',#1557,#367);
#238=LINE('',#1559,#368);
#239=LINE('',#1560,#369);
#240=LINE('',#1564,#370);
#241=LINE('',#1566,#371);
#242=LINE('',#1568,#372);
#243=LINE('',#1570,#373);
#244=LINE('',#1572,#374);
#245=LINE('',#1573,#375);
#246=LINE('',#1575,#376);
#247=LINE('',#1576,#377);
#248=LINE('',#1580,#378);
#249=LINE('',#1582,#379);
#250=LINE('',#1584,#380);
#251=LINE('',#1585,#381);
#252=LINE('',#1590,#382);
#253=LINE('',#1591,#383);
#254=LINE('',#1592,#384);
#255=LINE('',#1595,#385);
#256=LINE('',#1596,#386);
#257=LINE('',#1599,#387);
#258=LINE('',#1600,#388);
#259=LINE('',#1604,#389);
#260=LINE('',#1606,#390);
#261=LINE('',#1608,#391);
#262=LINE('',#1609,#392);
#263=LINE('',#1613,#393);
#264=LINE('',#1614,#394);
#265=LINE('',#1615,#395);
#266=LINE('',#1618,#396);
#267=LINE('',#1619,#397);
#268=LINE('',#1622,#398);
#269=LINE('',#1623,#399);
#270=LINE('',#1625,#400);
#271=LINE('',#1626,#401);
#272=LINE('',#1628,#402);
#273=LINE('',#1629,#403);
#274=LINE('',#1632,#404);
#275=LINE('',#1634,#405);
#276=LINE('',#1635,#406);
#277=LINE('',#1640,#407);
#278=LINE('',#1645,#408);
#279=LINE('',#1647,#409);
#280=LINE('',#1648,#410);
#281=LINE('',#1650,#411);
#282=LINE('',#1652,#412);
#283=VECTOR('',#1111,10.);
#284=VECTOR('',#1112,10.);
#285=VECTOR('',#1113,10.);
#286=VECTOR('',#1114,10.);
#287=VECTOR('',#1117,10.);
#288=VECTOR('',#1118,10.);
#289=VECTOR('',#1119,10.);
#290=VECTOR('',#1120,10.);
#291=VECTOR('',#1127,10.);
#292=VECTOR('',#1128,10.);
#293=VECTOR('',#1129,10.);
#294=VECTOR('',#1130,10.);
#295=VECTOR('',#1131,10.);
#296=VECTOR('',#1132,10.);
#297=VECTOR('',#1133,10.);
#298=VECTOR('',#1134,10.);
#299=VECTOR('',#1135,10.);
#300=VECTOR('',#1136,10.);
#301=VECTOR('',#1137,10.);
#302=VECTOR('',#1138,10.);
#303=VECTOR('',#1141,10.);
#304=VECTOR('',#1142,10.);
#305=VECTOR('',#1143,10.);
#306=VECTOR('',#1146,10.);
#307=VECTOR('',#1147,10.);
#308=VECTOR('',#1150,10.);
#309=VECTOR('',#1151,10.);
#310=VECTOR('',#1152,10.);
#311=VECTOR('',#1155,10.);
#312=VECTOR('',#1156,10.);
#313=VECTOR('',#1159,10.);
#314=VECTOR('',#1160,10.);
#315=VECTOR('',#1161,10.);
#316=VECTOR('',#1164,10.);
#317=VECTOR('',#1165,10.);
#318=VECTOR('',#1172,10.);
#319=VECTOR('',#1173,10.);
#320=VECTOR('',#1174,10.);
#321=VECTOR('',#1175,10.);
#322=VECTOR('',#1180,10.);
#323=VECTOR('',#1181,10.);
#324=VECTOR('',#1182,10.);
#325=VECTOR('',#1183,10.);
#326=VECTOR('',#1186,10.);
#327=VECTOR('',#1187,10.);
#328=VECTOR('',#1188,10.);
#329=VECTOR('',#1191,10.);
#330=VECTOR('',#1192,10.);
#331=VECTOR('',#1195,10.);
#332=VECTOR('',#1196,10.);
#333=VECTOR('',#1199,10.);
#334=VECTOR('',#1204,10.);
#335=VECTOR('',#1205,10.);
#336=VECTOR('',#1206,10.);
#337=VECTOR('',#1209,10.);
#338=VECTOR('',#1210,10.);
#339=VECTOR('',#1213,10.);
#340=VECTOR('',#1214,10.);
#341=VECTOR('',#1217,10.);
#342=VECTOR('',#1222,10.);
#343=VECTOR('',#1223,10.);
#344=VECTOR('',#1226,10.);
#345=VECTOR('',#1231,10.);
#346=VECTOR('',#1232,10.);
#347=VECTOR('',#1235,10.);
#348=VECTOR('',#1240,10.);
#349=VECTOR('',#1241,10.);
#350=VECTOR('',#1244,10.);
#351=VECTOR('',#1249,7.5);
#352=VECTOR('',#1254,10.);
#353=VECTOR('',#1255,10.);
#354=VECTOR('',#1256,10.);
#355=VECTOR('',#1257,10.);
#356=VECTOR('',#1258,10.);
#357=VECTOR('',#1259,10.);
#358=VECTOR('',#1262,10.);
#359=VECTOR('',#1263,10.);
#360=VECTOR('',#1264,10.);
#361=VECTOR('',#1265,10.);
#362=VECTOR('',#1268,10.);
#363=VECTOR('',#1269,10.);
#364=VECTOR('',#1270,10.);
#365=VECTOR('',#1273,10.);
#366=VECTOR('',#1274,10.);
#367=VECTOR('',#1275,10.);
#368=VECTOR('',#1278,10.);
#369=VECTOR('',#1279,10.);
#370=VECTOR('',#1282,10.);
#371=VECTOR('',#1283,10.);
#372=VECTOR('',#1284,10.);
#373=VECTOR('',#1285,10.);
#374=VECTOR('',#1286,10.);
#375=VECTOR('',#1287,10.);
#376=VECTOR('',#1290,10.);
#377=VECTOR('',#1291,10.);
#378=VECTOR('',#1294,10.);
#379=VECTOR('',#1295,10.);
#380=VECTOR('',#1296,10.);
#381=VECTOR('',#1297,10.);
#382=VECTOR('',#1302,10.);
#383=VECTOR('',#1303,10.);
#384=VECTOR('',#1304,10.);
#385=VECTOR('',#1307,10.);
#386=VECTOR('',#1308,10.);
#387=VECTOR('',#1311,10.);
#388=VECTOR('',#1312,10.);
#389=VECTOR('',#1315,10.);
#390=VECTOR('',#1316,10.);
#391=VECTOR('',#1317,10.);
#392=VECTOR('',#1318,10.);
#393=VECTOR('',#1321,10.);
#394=VECTOR('',#1322,10.);
#395=VECTOR('',#1323,10.);
#396=VECTOR('',#1326,10.);
#397=VECTOR('',#1327,10.);
#398=VECTOR('',#1330,10.);
#399=VECTOR('',#1331,10.);
#400=VECTOR('',#1334,10.);
#401=VECTOR('',#1335,10.);
#402=VECTOR('',#1338,10.);
#403=VECTOR('',#1339,10.);
#404=VECTOR('',#1342,10.);
#405=VECTOR('',#1343,10.);
#406=VECTOR('',#1344,10.);
#407=VECTOR('',#1349,8.);
#408=VECTOR('',#1356,10.);
#409=VECTOR('',#1357,10.);
#410=VECTOR('',#1358,10.);
#411=VECTOR('',#1361,10.);
#412=VECTOR('',#1364,10.);
#413=VERTEX_POINT('',#1369);
#414=VERTEX_POINT('',#1370);
#415=VERTEX_POINT('',#1372);
#416=VERTEX_POINT('',#1374);
#417=VERTEX_POINT('',#1378);
#418=VERTEX_POINT('',#1379);
#419=VERTEX_POINT('',#1381);
#420=VERTEX_POINT('',#1383);
#421=VERTEX_POINT('',#1389);
#422=VERTEX_POINT('',#1390);
#423=VERTEX_POINT('',#1392);
#424=VERTEX_POINT('',#1394);
#425=VERTEX_POINT('',#1397);
#426=VERTEX_POINT('',#1398);
#427=VERTEX_POINT('',#1400);
#428=VERTEX_POINT('',#1402);
#429=VERTEX_POINT('',#1405);
#430=VERTEX_POINT('',#1406);
#431=VERTEX_POINT('',#1408);
#432=VERTEX_POINT('',#1410);
#433=VERTEX_POINT('',#1414);
#434=VERTEX_POINT('',#1416);
#435=VERTEX_POINT('',#1420);
#436=VERTEX_POINT('',#1424);
#437=VERTEX_POINT('',#1426);
#438=VERTEX_POINT('',#1430);
#439=VERTEX_POINT('',#1434);
#440=VERTEX_POINT('',#1436);
#441=VERTEX_POINT('',#1440);
#442=VERTEX_POINT('',#1444);
#443=VERTEX_POINT('',#1447);
#444=VERTEX_POINT('',#1448);
#445=VERTEX_POINT('',#1450);
#446=VERTEX_POINT('',#1452);
#447=VERTEX_POINT('',#1457);
#448=VERTEX_POINT('',#1458);
#449=VERTEX_POINT('',#1460);
#450=VERTEX_POINT('',#1462);
#451=VERTEX_POINT('',#1466);
#452=VERTEX_POINT('',#1468);
#453=VERTEX_POINT('',#1472);
#454=VERTEX_POINT('',#1476);
#455=VERTEX_POINT('',#1483);
#456=VERTEX_POINT('',#1485);
#457=VERTEX_POINT('',#1489);
#458=VERTEX_POINT('',#1493);
#459=VERTEX_POINT('',#1500);
#460=VERTEX_POINT('',#1507);
#461=VERTEX_POINT('',#1514);
#462=VERTEX_POINT('',#1521);
#463=VERTEX_POINT('',#1525);
#464=VERTEX_POINT('',#1526);
#465=VERTEX_POINT('',#1528);
#466=VERTEX_POINT('',#1530);
#467=VERTEX_POINT('',#1532);
#468=VERTEX_POINT('',#1534);
#469=VERTEX_POINT('',#1538);
#470=VERTEX_POINT('',#1539);
#471=VERTEX_POINT('',#1541);
#472=VERTEX_POINT('',#1543);
#473=VERTEX_POINT('',#1547);
#474=VERTEX_POINT('',#1549);
#475=VERTEX_POINT('',#1553);
#476=VERTEX_POINT('',#1555);
#477=VERTEX_POINT('',#1562);
#478=VERTEX_POINT('',#1563);
#479=VERTEX_POINT('',#1565);
#480=VERTEX_POINT('',#1567);
#481=VERTEX_POINT('',#1569);
#482=VERTEX_POINT('',#1571);
#483=VERTEX_POINT('',#1578);
#484=VERTEX_POINT('',#1579);
#485=VERTEX_POINT('',#1581);
#486=VERTEX_POINT('',#1583);
#487=VERTEX_POINT('',#1588);
#488=VERTEX_POINT('',#1589);
#489=VERTEX_POINT('',#1594);
#490=VERTEX_POINT('',#1598);
#491=VERTEX_POINT('',#1602);
#492=VERTEX_POINT('',#1603);
#493=VERTEX_POINT('',#1605);
#494=VERTEX_POINT('',#1607);
#495=VERTEX_POINT('',#1611);
#496=VERTEX_POINT('',#1612);
#497=VERTEX_POINT('',#1617);
#498=VERTEX_POINT('',#1621);
#499=VERTEX_POINT('',#1631);
#500=VERTEX_POINT('',#1633);
#501=VERTEX_POINT('',#1637);
#502=VERTEX_POINT('',#1639);
#503=VERTEX_POINT('',#1644);
#504=VERTEX_POINT('',#1646);
#505=EDGE_CURVE('',#413,#414,#153,.T.);
#506=EDGE_CURVE('',#413,#415,#154,.T.);
#507=EDGE_CURVE('',#416,#415,#155,.T.);
#508=EDGE_CURVE('',#414,#416,#156,.T.);
#509=EDGE_CURVE('',#417,#418,#157,.T.);
#510=EDGE_CURVE('',#417,#419,#158,.T.);
#511=EDGE_CURVE('',#420,#419,#159,.T.);
#512=EDGE_CURVE('',#418,#420,#160,.T.);
#513=EDGE_CURVE('',#415,#420,#25,.T.);
#514=EDGE_CURVE('',#419,#416,#26,.T.);
#515=EDGE_CURVE('',#421,#422,#161,.T.);
#516=EDGE_CURVE('',#423,#421,#162,.T.);
#517=EDGE_CURVE('',#424,#423,#163,.T.);
#518=EDGE_CURVE('',#422,#424,#164,.T.);
#519=EDGE_CURVE('',#425,#426,#165,.T.);
#520=EDGE_CURVE('',#427,#425,#166,.T.);
#521=EDGE_CURVE('',#428,#427,#167,.T.);
#522=EDGE_CURVE('',#426,#428,#168,.T.);
#523=EDGE_CURVE('',#429,#430,#169,.T.);
#524=EDGE_CURVE('',#431,#429,#170,.T.);
#525=EDGE_CURVE('',#432,#431,#171,.T.);
#526=EDGE_CURVE('',#430,#432,#172,.T.);
#527=EDGE_CURVE('',#431,#433,#173,.T.);
#528=EDGE_CURVE('',#434,#433,#174,.T.);
#529=EDGE_CURVE('',#432,#434,#175,.T.);
#530=EDGE_CURVE('',#429,#435,#176,.T.);
#531=EDGE_CURVE('',#433,#435,#177,.T.);
#532=EDGE_CURVE('',#427,#436,#178,.T.);
#533=EDGE_CURVE('',#437,#436,#179,.T.);
#534=EDGE_CURVE('',#428,#437,#180,.T.);
#535=EDGE_CURVE('',#425,#438,#181,.T.);
#536=EDGE_CURVE('',#436,#438,#182,.T.);
#537=EDGE_CURVE('',#423,#439,#183,.T.);
#538=EDGE_CURVE('',#440,#439,#184,.T.);
#539=EDGE_CURVE('',#424,#440,#185,.T.);
#540=EDGE_CURVE('',#421,#441,#186,.T.);
#541=EDGE_CURVE('',#439,#441,#187,.T.);
#542=EDGE_CURVE('',#414,#442,#27,.T.);
#543=EDGE_CURVE('',#442,#413,#28,.T.);
#544=EDGE_CURVE('',#443,#444,#188,.T.);
#545=EDGE_CURVE('',#444,#445,#189,.T.);
#546=EDGE_CURVE('',#445,#446,#190,.T.);
#547=EDGE_CURVE('',#446,#443,#191,.T.);
#548=EDGE_CURVE('',#418,#417,#29,.T.);
#549=EDGE_CURVE('',#447,#448,#192,.T.);
#550=EDGE_CURVE('',#448,#449,#193,.T.);
#551=EDGE_CURVE('',#449,#450,#194,.T.);
#552=EDGE_CURVE('',#450,#447,#195,.T.);
#553=EDGE_CURVE('',#447,#451,#196,.T.);
#554=EDGE_CURVE('',#452,#451,#197,.T.);
#555=EDGE_CURVE('',#448,#452,#198,.T.);
#556=EDGE_CURVE('',#453,#452,#199,.T.);
#557=EDGE_CURVE('',#449,#453,#200,.T.);
#558=EDGE_CURVE('',#454,#453,#201,.T.);
#559=EDGE_CURVE('',#450,#454,#202,.T.);
#560=EDGE_CURVE('',#451,#454,#203,.T.);
#561=EDGE_CURVE('',#443,#455,#204,.T.);
#562=EDGE_CURVE('',#456,#455,#205,.T.);
#563=EDGE_CURVE('',#444,#456,#206,.T.);
#564=EDGE_CURVE('',#457,#456,#207,.T.);
#565=EDGE_CURVE('',#445,#457,#208,.T.);
#566=EDGE_CURVE('',#458,#457,#209,.T.);
#567=EDGE_CURVE('',#446,#458,#210,.T.);
#568=EDGE_CURVE('',#455,#458,#211,.T.);
#569=EDGE_CURVE('',#459,#434,#212,.T.);
#570=EDGE_CURVE('',#430,#459,#213,.T.);
#571=EDGE_CURVE('',#435,#459,#214,.T.);
#572=EDGE_CURVE('',#460,#437,#215,.T.);
#573=EDGE_CURVE('',#426,#460,#216,.T.);
#574=EDGE_CURVE('',#438,#460,#217,.T.);
#575=EDGE_CURVE('',#461,#440,#218,.T.);
#576=EDGE_CURVE('',#422,#461,#219,.T.);
#577=EDGE_CURVE('',#441,#461,#220,.T.);
#578=EDGE_CURVE('',#442,#462,#221,.T.);
#579=EDGE_CURVE('',#462,#462,#30,.T.);
#580=EDGE_CURVE('',#463,#464,#222,.T.);
#581=EDGE_CURVE('',#463,#465,#223,.T.);
#582=EDGE_CURVE('',#465,#466,#224,.T.);
#583=EDGE_CURVE('',#467,#466,#225,.T.);
#584=EDGE_CURVE('',#468,#467,#226,.T.);
#585=EDGE_CURVE('',#464,#468,#227,.T.);
#586=EDGE_CURVE('',#469,#470,#228,.T.);
#587=EDGE_CURVE('',#469,#471,#229,.T.);
#588=EDGE_CURVE('',#471,#472,#230,.T.);
#589=EDGE_CURVE('',#470,#472,#231,.T.);
#590=EDGE_CURVE('',#473,#469,#232,.T.);
#591=EDGE_CURVE('',#473,#474,#233,.T.);
#592=EDGE_CURVE('',#474,#471,#234,.T.);
#593=EDGE_CURVE('',#475,#473,#235,.T.);
#594=EDGE_CURVE('',#475,#476,#236,.T.);
#595=EDGE_CURVE('',#476,#474,#237,.T.);
#596=EDGE_CURVE('',#470,#475,#238,.T.);
#597=EDGE_CURVE('',#472,#476,#239,.T.);
#598=EDGE_CURVE('',#477,#478,#240,.T.);
#599=EDGE_CURVE('',#479,#477,#241,.T.);
#600=EDGE_CURVE('',#480,#479,#242,.T.);
#601=EDGE_CURVE('',#480,#481,#243,.T.);
#602=EDGE_CURVE('',#481,#482,#244,.T.);
#603=EDGE_CURVE('',#478,#482,#245,.T.);
#604=EDGE_CURVE('',#482,#465,#246,.T.);
#605=EDGE_CURVE('',#466,#481,#247,.T.);
#606=EDGE_CURVE('',#483,#484,#248,.T.);
#607=EDGE_CURVE('',#484,#485,#249,.T.);
#608=EDGE_CURVE('',#485,#486,#250,.T.);
#609=EDGE_CURVE('',#486,#483,#251,.T.);
#610=EDGE_CURVE('',#487,#488,#252,.T.);
#611=EDGE_CURVE('',#487,#479,#253,.T.);
#612=EDGE_CURVE('',#488,#477,#254,.T.);
#613=EDGE_CURVE('',#489,#487,#255,.T.);
#614=EDGE_CURVE('',#489,#480,#256,.T.);
#615=EDGE_CURVE('',#488,#490,#257,.T.);
#616=EDGE_CURVE('',#490,#478,#258,.T.);
#617=EDGE_CURVE('',#491,#492,#259,.T.);
#618=EDGE_CURVE('',#492,#493,#260,.T.);
#619=EDGE_CURVE('',#493,#494,#261,.T.);
#620=EDGE_CURVE('',#494,#491,#262,.T.);
#621=EDGE_CURVE('',#495,#496,#263,.T.);
#622=EDGE_CURVE('',#495,#468,#264,.T.);
#623=EDGE_CURVE('',#496,#467,#265,.T.);
#624=EDGE_CURVE('',#497,#495,#266,.T.);
#625=EDGE_CURVE('',#497,#464,#267,.T.);
#626=EDGE_CURVE('',#498,#497,#268,.T.);
#627=EDGE_CURVE('',#498,#463,#269,.T.);
#628=EDGE_CURVE('',#492,#498,#270,.T.);
#629=EDGE_CURVE('',#490,#491,#271,.T.);
#630=EDGE_CURVE('',#496,#483,#272,.T.);
#631=EDGE_CURVE('',#484,#489,#273,.T.);
#632=EDGE_CURVE('',#499,#486,#274,.T.);
#633=EDGE_CURVE('',#499,#500,#275,.T.);
#634=EDGE_CURVE('',#500,#493,#276,.T.);
#635=EDGE_CURVE('',#501,#501,#31,.T.);
#636=EDGE_CURVE('',#501,#502,#277,.T.);
#637=EDGE_CURVE('',#502,#502,#32,.T.);
#638=EDGE_CURVE('',#503,#494,#278,.T.);
#639=EDGE_CURVE('',#503,#504,#279,.T.);
#640=EDGE_CURVE('',#504,#485,#280,.T.);
#641=EDGE_CURVE('',#500,#503,#281,.T.);
#642=EDGE_CURVE('',#504,#499,#282,.T.);
#643=ORIENTED_EDGE('',*,*,#505,.F.);
#644=ORIENTED_EDGE('',*,*,#506,.T.);
#645=ORIENTED_EDGE('',*,*,#507,.F.);
#646=ORIENTED_EDGE('',*,*,#508,.F.);
#647=ORIENTED_EDGE('',*,*,#509,.F.);
#648=ORIENTED_EDGE('',*,*,#510,.T.);
#649=ORIENTED_EDGE('',*,*,#511,.F.);
#650=ORIENTED_EDGE('',*,*,#512,.F.);
#651=ORIENTED_EDGE('',*,*,#513,.T.);
#652=ORIENTED_EDGE('',*,*,#511,.T.);
#653=ORIENTED_EDGE('',*,*,#514,.T.);
#654=ORIENTED_EDGE('',*,*,#507,.T.);
#655=ORIENTED_EDGE('',*,*,#515,.F.);
#656=ORIENTED_EDGE('',*,*,#516,.F.);
#657=ORIENTED_EDGE('',*,*,#517,.F.);
#658=ORIENTED_EDGE('',*,*,#518,.F.);
#659=ORIENTED_EDGE('',*,*,#519,.F.);
#660=ORIENTED_EDGE('',*,*,#520,.F.);
#661=ORIENTED_EDGE('',*,*,#521,.F.);
#662=ORIENTED_EDGE('',*,*,#522,.F.);
#663=ORIENTED_EDGE('',*,*,#523,.F.);
#664=ORIENTED_EDGE('',*,*,#524,.F.);
#665=ORIENTED_EDGE('',*,*,#525,.F.);
#666=ORIENTED_EDGE('',*,*,#526,.F.);
#667=ORIENTED_EDGE('',*,*,#525,.T.);
#668=ORIENTED_EDGE('',*,*,#527,.T.);
#669=ORIENTED_EDGE('',*,*,#528,.F.);
#670=ORIENTED_EDGE('',*,*,#529,.F.);
#671=ORIENTED_EDGE('',*,*,#524,.T.);
#672=ORIENTED_EDGE('',*,*,#530,.T.);
#673=ORIENTED_EDGE('',*,*,#531,.F.);
#674=ORIENTED_EDGE('',*,*,#527,.F.);
#675=ORIENTED_EDGE('',*,*,#521,.T.);
#676=ORIENTED_EDGE('',*,*,#532,.T.);
#677=ORIENTED_EDGE('',*,*,#533,.F.);
#678=ORIENTED_EDGE('',*,*,#534,.F.);
#679=ORIENTED_EDGE('',*,*,#520,.T.);
#680=ORIENTED_EDGE('',*,*,#535,.T.);
#681=ORIENTED_EDGE('',*,*,#536,.F.);
#682=ORIENTED_EDGE('',*,*,#532,.F.);
#683=ORIENTED_EDGE('',*,*,#517,.T.);
#684=ORIENTED_EDGE('',*,*,#537,.T.);
#685=ORIENTED_EDGE('',*,*,#538,.F.);
#686=ORIENTED_EDGE('',*,*,#539,.F.);
#687=ORIENTED_EDGE('',*,*,#516,.T.);
#688=ORIENTED_EDGE('',*,*,#540,.T.);
#689=ORIENTED_EDGE('',*,*,#541,.F.);
#690=ORIENTED_EDGE('',*,*,#537,.F.);
#691=ORIENTED_EDGE('',*,*,#505,.T.);
#692=ORIENTED_EDGE('',*,*,#542,.T.);
#693=ORIENTED_EDGE('',*,*,#543,.T.);
#694=ORIENTED_EDGE('',*,*,#544,.T.);
#695=ORIENTED_EDGE('',*,*,#545,.T.);
#696=ORIENTED_EDGE('',*,*,#546,.T.);
#697=ORIENTED_EDGE('',*,*,#547,.T.);
#698=ORIENTED_EDGE('',*,*,#509,.T.);
#699=ORIENTED_EDGE('',*,*,#548,.T.);
#700=ORIENTED_EDGE('',*,*,#549,.T.);
#701=ORIENTED_EDGE('',*,*,#550,.T.);
#702=ORIENTED_EDGE('',*,*,#551,.T.);
#703=ORIENTED_EDGE('',*,*,#552,.T.);
#704=ORIENTED_EDGE('',*,*,#549,.F.);
#705=ORIENTED_EDGE('',*,*,#553,.T.);
#706=ORIENTED_EDGE('',*,*,#554,.F.);
#707=ORIENTED_EDGE('',*,*,#555,.F.);
#708=ORIENTED_EDGE('',*,*,#550,.F.);
#709=ORIENTED_EDGE('',*,*,#555,.T.);
#710=ORIENTED_EDGE('',*,*,#556,.F.);
#711=ORIENTED_EDGE('',*,*,#557,.F.);
#712=ORIENTED_EDGE('',*,*,#551,.F.);
#713=ORIENTED_EDGE('',*,*,#557,.T.);
#714=ORIENTED_EDGE('',*,*,#558,.F.);
#715=ORIENTED_EDGE('',*,*,#559,.F.);
#716=ORIENTED_EDGE('',*,*,#552,.F.);
#717=ORIENTED_EDGE('',*,*,#559,.T.);
#718=ORIENTED_EDGE('',*,*,#560,.F.);
#719=ORIENTED_EDGE('',*,*,#553,.F.);
#720=ORIENTED_EDGE('',*,*,#560,.T.);
#721=ORIENTED_EDGE('',*,*,#558,.T.);
#722=ORIENTED_EDGE('',*,*,#556,.T.);
#723=ORIENTED_EDGE('',*,*,#554,.T.);
#724=ORIENTED_EDGE('',*,*,#544,.F.);
#725=ORIENTED_EDGE('',*,*,#561,.T.);
#726=ORIENTED_EDGE('',*,*,#562,.F.);
#727=ORIENTED_EDGE('',*,*,#563,.F.);
#728=ORIENTED_EDGE('',*,*,#545,.F.);
#729=ORIENTED_EDGE('',*,*,#563,.T.);
#730=ORIENTED_EDGE('',*,*,#564,.F.);
#731=ORIENTED_EDGE('',*,*,#565,.F.);
#732=ORIENTED_EDGE('',*,*,#546,.F.);
#733=ORIENTED_EDGE('',*,*,#565,.T.);
#734=ORIENTED_EDGE('',*,*,#566,.F.);
#735=ORIENTED_EDGE('',*,*,#567,.F.);
#736=ORIENTED_EDGE('',*,*,#547,.F.);
#737=ORIENTED_EDGE('',*,*,#567,.T.);
#738=ORIENTED_EDGE('',*,*,#568,.F.);
#739=ORIENTED_EDGE('',*,*,#561,.F.);
#740=ORIENTED_EDGE('',*,*,#568,.T.);
#741=ORIENTED_EDGE('',*,*,#566,.T.);
#742=ORIENTED_EDGE('',*,*,#564,.T.);
#743=ORIENTED_EDGE('',*,*,#562,.T.);
#744=ORIENTED_EDGE('',*,*,#526,.T.);
#745=ORIENTED_EDGE('',*,*,#529,.T.);
#746=ORIENTED_EDGE('',*,*,#569,.F.);
#747=ORIENTED_EDGE('',*,*,#570,.F.);
#748=ORIENTED_EDGE('',*,*,#523,.T.);
#749=ORIENTED_EDGE('',*,*,#570,.T.);
#750=ORIENTED_EDGE('',*,*,#571,.F.);
#751=ORIENTED_EDGE('',*,*,#530,.F.);
#752=ORIENTED_EDGE('',*,*,#571,.T.);
#753=ORIENTED_EDGE('',*,*,#569,.T.);
#754=ORIENTED_EDGE('',*,*,#528,.T.);
#755=ORIENTED_EDGE('',*,*,#531,.T.);
#756=ORIENTED_EDGE('',*,*,#522,.T.);
#757=ORIENTED_EDGE('',*,*,#534,.T.);
#758=ORIENTED_EDGE('',*,*,#572,.F.);
#759=ORIENTED_EDGE('',*,*,#573,.F.);
#760=ORIENTED_EDGE('',*,*,#519,.T.);
#761=ORIENTED_EDGE('',*,*,#573,.T.);
#762=ORIENTED_EDGE('',*,*,#574,.F.);
#763=ORIENTED_EDGE('',*,*,#535,.F.);
#764=ORIENTED_EDGE('',*,*,#574,.T.);
#765=ORIENTED_EDGE('',*,*,#572,.T.);
#766=ORIENTED_EDGE('',*,*,#533,.T.);
#767=ORIENTED_EDGE('',*,*,#536,.T.);
#768=ORIENTED_EDGE('',*,*,#518,.T.);
#769=ORIENTED_EDGE('',*,*,#539,.T.);
#770=ORIENTED_EDGE('',*,*,#575,.F.);
#771=ORIENTED_EDGE('',*,*,#576,.F.);
#772=ORIENTED_EDGE('',*,*,#515,.T.);
#773=ORIENTED_EDGE('',*,*,#576,.T.);
#774=ORIENTED_EDGE('',*,*,#577,.F.);
#775=ORIENTED_EDGE('',*,*,#540,.F.);
#776=ORIENTED_EDGE('',*,*,#577,.T.);
#777=ORIENTED_EDGE('',*,*,#575,.T.);
#778=ORIENTED_EDGE('',*,*,#538,.T.);
#779=ORIENTED_EDGE('',*,*,#541,.T.);
#780=ORIENTED_EDGE('',*,*,#542,.F.);
#781=ORIENTED_EDGE('',*,*,#508,.T.);
#782=ORIENTED_EDGE('',*,*,#514,.F.);
#783=ORIENTED_EDGE('',*,*,#510,.F.);
#784=ORIENTED_EDGE('',*,*,#548,.F.);
#785=ORIENTED_EDGE('',*,*,#512,.T.);
#786=ORIENTED_EDGE('',*,*,#513,.F.);
#787=ORIENTED_EDGE('',*,*,#506,.F.);
#788=ORIENTED_EDGE('',*,*,#543,.F.);
#789=ORIENTED_EDGE('',*,*,#578,.T.);
#790=ORIENTED_EDGE('',*,*,#579,.F.);
#791=ORIENTED_EDGE('',*,*,#578,.F.);
#792=ORIENTED_EDGE('',*,*,#580,.F.);
#793=ORIENTED_EDGE('',*,*,#581,.T.);
#794=ORIENTED_EDGE('',*,*,#582,.T.);
#795=ORIENTED_EDGE('',*,*,#583,.F.);
#796=ORIENTED_EDGE('',*,*,#584,.F.);
#797=ORIENTED_EDGE('',*,*,#585,.F.);
#798=ORIENTED_EDGE('',*,*,#586,.F.);
#799=ORIENTED_EDGE('',*,*,#587,.T.);
#800=ORIENTED_EDGE('',*,*,#588,.T.);
#801=ORIENTED_EDGE('',*,*,#589,.F.);
#802=ORIENTED_EDGE('',*,*,#590,.F.);
#803=ORIENTED_EDGE('',*,*,#591,.T.);
#804=ORIENTED_EDGE('',*,*,#592,.T.);
#805=ORIENTED_EDGE('',*,*,#587,.F.);
#806=ORIENTED_EDGE('',*,*,#593,.F.);
#807=ORIENTED_EDGE('',*,*,#594,.T.);
#808=ORIENTED_EDGE('',*,*,#595,.T.);
#809=ORIENTED_EDGE('',*,*,#591,.F.);
#810=ORIENTED_EDGE('',*,*,#596,.F.);
#811=ORIENTED_EDGE('',*,*,#589,.T.);
#812=ORIENTED_EDGE('',*,*,#597,.T.);
#813=ORIENTED_EDGE('',*,*,#594,.F.);
#814=ORIENTED_EDGE('',*,*,#598,.F.);
#815=ORIENTED_EDGE('',*,*,#599,.F.);
#816=ORIENTED_EDGE('',*,*,#600,.F.);
#817=ORIENTED_EDGE('',*,*,#601,.T.);
#818=ORIENTED_EDGE('',*,*,#602,.T.);
#819=ORIENTED_EDGE('',*,*,#603,.F.);
#820=ORIENTED_EDGE('',*,*,#582,.F.);
#821=ORIENTED_EDGE('',*,*,#604,.F.);
#822=ORIENTED_EDGE('',*,*,#602,.F.);
#823=ORIENTED_EDGE('',*,*,#605,.F.);
#824=ORIENTED_EDGE('',*,*,#597,.F.);
#825=ORIENTED_EDGE('',*,*,#588,.F.);
#826=ORIENTED_EDGE('',*,*,#592,.F.);
#827=ORIENTED_EDGE('',*,*,#595,.F.);
#828=ORIENTED_EDGE('',*,*,#606,.T.);
#829=ORIENTED_EDGE('',*,*,#607,.T.);
#830=ORIENTED_EDGE('',*,*,#608,.T.);
#831=ORIENTED_EDGE('',*,*,#609,.T.);
#832=ORIENTED_EDGE('',*,*,#586,.T.);
#833=ORIENTED_EDGE('',*,*,#596,.T.);
#834=ORIENTED_EDGE('',*,*,#593,.T.);
#835=ORIENTED_EDGE('',*,*,#590,.T.);
#836=ORIENTED_EDGE('',*,*,#610,.F.);
#837=ORIENTED_EDGE('',*,*,#611,.T.);
#838=ORIENTED_EDGE('',*,*,#599,.T.);
#839=ORIENTED_EDGE('',*,*,#612,.F.);
#840=ORIENTED_EDGE('',*,*,#613,.F.);
#841=ORIENTED_EDGE('',*,*,#614,.T.);
#842=ORIENTED_EDGE('',*,*,#600,.T.);
#843=ORIENTED_EDGE('',*,*,#611,.F.);
#844=ORIENTED_EDGE('',*,*,#615,.F.);
#845=ORIENTED_EDGE('',*,*,#612,.T.);
#846=ORIENTED_EDGE('',*,*,#598,.T.);
#847=ORIENTED_EDGE('',*,*,#616,.F.);
#848=ORIENTED_EDGE('',*,*,#617,.T.);
#849=ORIENTED_EDGE('',*,*,#618,.T.);
#850=ORIENTED_EDGE('',*,*,#619,.T.);
#851=ORIENTED_EDGE('',*,*,#620,.T.);
#852=ORIENTED_EDGE('',*,*,#621,.F.);
#853=ORIENTED_EDGE('',*,*,#622,.T.);
#854=ORIENTED_EDGE('',*,*,#584,.T.);
#855=ORIENTED_EDGE('',*,*,#623,.F.);
#856=ORIENTED_EDGE('',*,*,#624,.F.);
#857=ORIENTED_EDGE('',*,*,#625,.T.);
#858=ORIENTED_EDGE('',*,*,#585,.T.);
#859=ORIENTED_EDGE('',*,*,#622,.F.);
#860=ORIENTED_EDGE('',*,*,#626,.F.);
#861=ORIENTED_EDGE('',*,*,#627,.T.);
#862=ORIENTED_EDGE('',*,*,#580,.T.);
#863=ORIENTED_EDGE('',*,*,#625,.F.);
#864=ORIENTED_EDGE('',*,*,#628,.F.);
#865=ORIENTED_EDGE('',*,*,#617,.F.);
#866=ORIENTED_EDGE('',*,*,#629,.F.);
#867=ORIENTED_EDGE('',*,*,#616,.T.);
#868=ORIENTED_EDGE('',*,*,#603,.T.);
#869=ORIENTED_EDGE('',*,*,#604,.T.);
#870=ORIENTED_EDGE('',*,*,#581,.F.);
#871=ORIENTED_EDGE('',*,*,#627,.F.);
#872=ORIENTED_EDGE('',*,*,#630,.F.);
#873=ORIENTED_EDGE('',*,*,#623,.T.);
#874=ORIENTED_EDGE('',*,*,#583,.T.);
#875=ORIENTED_EDGE('',*,*,#605,.T.);
#876=ORIENTED_EDGE('',*,*,#601,.F.);
#877=ORIENTED_EDGE('',*,*,#614,.F.);
#878=ORIENTED_EDGE('',*,*,#631,.F.);
#879=ORIENTED_EDGE('',*,*,#606,.F.);
#880=ORIENTED_EDGE('',*,*,#628,.T.);
#881=ORIENTED_EDGE('',*,*,#626,.T.);
#882=ORIENTED_EDGE('',*,*,#624,.T.);
#883=ORIENTED_EDGE('',*,*,#621,.T.);
#884=ORIENTED_EDGE('',*,*,#630,.T.);
#885=ORIENTED_EDGE('',*,*,#609,.F.);
#886=ORIENTED_EDGE('',*,*,#632,.F.);
#887=ORIENTED_EDGE('',*,*,#633,.T.);
#888=ORIENTED_EDGE('',*,*,#634,.T.);
#889=ORIENTED_EDGE('',*,*,#618,.F.);
#890=ORIENTED_EDGE('',*,*,#635,.F.);
#891=ORIENTED_EDGE('',*,*,#636,.T.);
#892=ORIENTED_EDGE('',*,*,#637,.F.);
#893=ORIENTED_EDGE('',*,*,#636,.F.);
#894=ORIENTED_EDGE('',*,*,#635,.T.);
#895=ORIENTED_EDGE('',*,*,#579,.T.);
#896=ORIENTED_EDGE('',*,*,#629,.T.);
#897=ORIENTED_EDGE('',*,*,#620,.F.);
#898=ORIENTED_EDGE('',*,*,#638,.F.);
#899=ORIENTED_EDGE('',*,*,#639,.T.);
#900=ORIENTED_EDGE('',*,*,#640,.T.);
#901=ORIENTED_EDGE('',*,*,#607,.F.);
#902=ORIENTED_EDGE('',*,*,#631,.T.);
#903=ORIENTED_EDGE('',*,*,#613,.T.);
#904=ORIENTED_EDGE('',*,*,#610,.T.);
#905=ORIENTED_EDGE('',*,*,#615,.T.);
#906=ORIENTED_EDGE('',*,*,#641,.T.);
#907=ORIENTED_EDGE('',*,*,#638,.T.);
#908=ORIENTED_EDGE('',*,*,#619,.F.);
#909=ORIENTED_EDGE('',*,*,#634,.F.);
#910=ORIENTED_EDGE('',*,*,#642,.T.);
#911=ORIENTED_EDGE('',*,*,#632,.T.);
#912=ORIENTED_EDGE('',*,*,#608,.F.);
#913=ORIENTED_EDGE('',*,*,#640,.F.);
#914=ORIENTED_EDGE('',*,*,#642,.F.);
#915=ORIENTED_EDGE('',*,*,#639,.F.);
#916=ORIENTED_EDGE('',*,*,#641,.F.);
#917=ORIENTED_EDGE('',*,*,#633,.F.);
#918=ORIENTED_EDGE('',*,*,#637,.T.);
#919=PLANE('',#1043);
#920=PLANE('',#1044);
#921=PLANE('',#1045);
#922=PLANE('',#1048);
#923=PLANE('',#1049);
#924=PLANE('',#1050);
#925=PLANE('',#1051);
#926=PLANE('',#1052);
#927=PLANE('',#1053);
#928=PLANE('',#1054);
#929=PLANE('',#1057);
#930=PLANE('',#1059);
#931=PLANE('',#1060);
#932=PLANE('',#1061);
#933=PLANE('',#1062);
#934=PLANE('',#1063);
#935=PLANE('',#1064);
#936=PLANE('',#1065);
#937=PLANE('',#1066);
#938=PLANE('',#1067);
#939=PLANE('',#1068);
#940=PLANE('',#1069);
#941=PLANE('',#1070);
#942=PLANE('',#1071);
#943=PLANE('',#1072);
#944=PLANE('',#1073);
#945=PLANE('',#1074);
#946=PLANE('',#1075);
#947=PLANE('',#1076);
#948=PLANE('',#1077);
#949=PLANE('',#1080);
#950=PLANE('',#1081);
#951=PLANE('',#1082);
#952=PLANE('',#1083);
#953=PLANE('',#1084);
#954=PLANE('',#1085);
#955=PLANE('',#1086);
#956=PLANE('',#1087);
#957=PLANE('',#1088);
#958=PLANE('',#1089);
#959=PLANE('',#1090);
#960=PLANE('',#1091);
#961=PLANE('',#1092);
#962=PLANE('',#1093);
#963=PLANE('',#1094);
#964=PLANE('',#1095);
#965=PLANE('',#1096);
#966=PLANE('',#1097);
#967=PLANE('',#1098);
#968=PLANE('',#1102);
#969=PLANE('',#1103);
#970=PLANE('',#1104);
#971=PLANE('',#1105);
#972=PLANE('',#1106);
#973=ADVANCED_FACE('',(#33),#919,.T.);
#974=ADVANCED_FACE('',(#34),#920,.T.);
#975=ADVANCED_FACE('',(#35,#17,#18,#19),#921,.T.);
#976=ADVANCED_FACE('',(#36),#922,.T.);
#977=ADVANCED_FACE('',(#37),#923,.T.);
#978=ADVANCED_FACE('',(#38),#924,.T.);
#979=ADVANCED_FACE('',(#39),#925,.T.);
#980=ADVANCED_FACE('',(#40),#926,.T.);
#981=ADVANCED_FACE('',(#41),#927,.T.);
#982=ADVANCED_FACE('',(#42,#20),#928,.T.);
#983=ADVANCED_FACE('',(#43,#21),#929,.T.);
#984=ADVANCED_FACE('',(#44),#930,.T.);
#985=ADVANCED_FACE('',(#45),#931,.T.);
#986=ADVANCED_FACE('',(#46),#932,.T.);
#987=ADVANCED_FACE('',(#47),#933,.T.);
#988=ADVANCED_FACE('',(#48),#934,.T.);
#989=ADVANCED_FACE('',(#49),#935,.T.);
#990=ADVANCED_FACE('',(#50),#936,.T.);
#991=ADVANCED_FACE('',(#51),#937,.T.);
#992=ADVANCED_FACE('',(#52),#938,.T.);
#993=ADVANCED_FACE('',(#53),#939,.T.);
#994=ADVANCED_FACE('',(#54),#940,.T.);
#995=ADVANCED_FACE('',(#55),#941,.T.);
#996=ADVANCED_FACE('',(#56),#942,.T.);
#997=ADVANCED_FACE('',(#57),#943,.T.);
#998=ADVANCED_FACE('',(#58),#944,.T.);
#999=ADVANCED_FACE('',(#59),#945,.T.);
#1000=ADVANCED_FACE('',(#60),#946,.T.);
#1001=ADVANCED_FACE('',(#61),#947,.T.);
#1002=ADVANCED_FACE('',(#62),#948,.T.);
#1003=ADVANCED_FACE('',(#63),#15,.T.);
#1004=ADVANCED_FACE('',(#64),#949,.F.);
#1005=ADVANCED_FACE('',(#65),#950,.F.);
#1006=ADVANCED_FACE('',(#66),#951,.F.);
#1007=ADVANCED_FACE('',(#67),#952,.F.);
#1008=ADVANCED_FACE('',(#68),#953,.F.);
#1009=ADVANCED_FACE('',(#69),#954,.F.);
#1010=ADVANCED_FACE('',(#70,#22),#955,.F.);
#1011=ADVANCED_FACE('',(#71),#956,.T.);
#1012=ADVANCED_FACE('',(#72),#957,.T.);
#1013=ADVANCED_FACE('',(#73),#958,.F.);
#1014=ADVANCED_FACE('',(#74),#959,.F.);
#1015=ADVANCED_FACE('',(#75),#960,.F.);
#1016=ADVANCED_FACE('',(#76),#961,.T.);
#1017=ADVANCED_FACE('',(#77),#962,.F.);
#1018=ADVANCED_FACE('',(#78),#963,.F.);
#1019=ADVANCED_FACE('',(#79),#964,.F.);
#1020=ADVANCED_FACE('',(#80),#965,.F.);
#1021=ADVANCED_FACE('',(#81),#966,.F.);
#1022=ADVANCED_FACE('',(#82),#967,.T.);
#1023=ADVANCED_FACE('',(#83),#16,.T.);
#1024=ADVANCED_FACE('',(#84,#23),#968,.F.);
#1025=ADVANCED_FACE('',(#85),#969,.T.);
#1026=ADVANCED_FACE('',(#86),#970,.T.);
#1027=ADVANCED_FACE('',(#87),#971,.T.);
#1028=ADVANCED_FACE('',(#88,#24),#972,.F.);
#1029=CLOSED_SHELL('',(#973,#974,#975,#976,#977,#978,#979,#980,#981,#982,
#983,#984,#985,#986,#987,#988,#989,#990,#991,#992,#993,#994,#995,#996,#997,
#998,#999,#1000,#1001,#1002,#1003,#1004,#1005,#1006,#1007,#1008,#1009,#1010,
#1011,#1012,#1013,#1014,#1015,#1016,#1017,#1018,#1019,#1020,#1021,#1022,
#1023,#1024,#1025,#1026,#1027,#1028));
#1030=DERIVED_UNIT_ELEMENT(#1032,1.);
#1031=DERIVED_UNIT_ELEMENT(#1659,-3.);
#1032=(
MASS_UNIT()
NAMED_UNIT(*)
SI_UNIT(.KILO.,.GRAM.)
);
#1033=DERIVED_UNIT((#1030,#1031));
#1034=MEASURE_REPRESENTATION_ITEM('density measure',
POSITIVE_RATIO_MEASURE(7850.),#1033);
#1035=PROPERTY_DEFINITION_REPRESENTATION(#1040,#1037);
#1036=PROPERTY_DEFINITION_REPRESENTATION(#1041,#1038);
#1037=REPRESENTATION('material name',(#1039),#1656);
#1038=REPRESENTATION('density',(#1034),#1656);
#1039=DESCRIPTIVE_REPRESENTATION_ITEM('Steel','Steel');
#1040=PROPERTY_DEFINITION('material property','material name',#1666);
#1041=PROPERTY_DEFINITION('material property','density of part',#1666);
#1042=AXIS2_PLACEMENT_3D('',#1367,#1107,#1108);
#1043=AXIS2_PLACEMENT_3D('',#1368,#1109,#1110);
#1044=AXIS2_PLACEMENT_3D('',#1377,#1115,#1116);
#1045=AXIS2_PLACEMENT_3D('',#1386,#1121,#1122);
#1046=AXIS2_PLACEMENT_3D('',#1387,#1123,#1124);
#1047=AXIS2_PLACEMENT_3D('',#1388,#1125,#1126);
#1048=AXIS2_PLACEMENT_3D('',#1413,#1139,#1140);
#1049=AXIS2_PLACEMENT_3D('',#1419,#1144,#1145);
#1050=AXIS2_PLACEMENT_3D('',#1423,#1148,#1149);
#1051=AXIS2_PLACEMENT_3D('',#1429,#1153,#1154);
#1052=AXIS2_PLACEMENT_3D('',#1433,#1157,#1158);
#1053=AXIS2_PLACEMENT_3D('',#1439,#1162,#1163);
#1054=AXIS2_PLACEMENT_3D('',#1443,#1166,#1167);
#1055=AXIS2_PLACEMENT_3D('',#1445,#1168,#1169);
#1056=AXIS2_PLACEMENT_3D('',#1446,#1170,#1171);
#1057=AXIS2_PLACEMENT_3D('',#1455,#1176,#1177);
#1058=AXIS2_PLACEMENT_3D('',#1456,#1178,#1179);
#1059=AXIS2_PLACEMENT_3D('',#1465,#1184,#1185);
#1060=AXIS2_PLACEMENT_3D('',#1471,#1189,#1190);
#1061=AXIS2_PLACEMENT_3D('',#1475,#1193,#1194);
#1062=AXIS2_PLACEMENT_3D('',#1479,#1197,#1198);
#1063=AXIS2_PLACEMENT_3D('',#1481,#1200,#1201);
#1064=AXIS2_PLACEMENT_3D('',#1482,#1202,#1203);
#1065=AXIS2_PLACEMENT_3D('',#1488,#1207,#1208);
#1066=AXIS2_PLACEMENT_3D('',#1492,#1211,#1212);
#1067=AXIS2_PLACEMENT_3D('',#1496,#1215,#1216);
#1068=AXIS2_PLACEMENT_3D('',#1498,#1218,#1219);
#1069=AXIS2_PLACEMENT_3D('',#1499,#1220,#1221);
#1070=AXIS2_PLACEMENT_3D('',#1503,#1224,#1225);
#1071=AXIS2_PLACEMENT_3D('',#1505,#1227,#1228);
#1072=AXIS2_PLACEMENT_3D('',#1506,#1229,#1230);
#1073=AXIS2_PLACEMENT_3D('',#1510,#1233,#1234);
#1074=AXIS2_PLACEMENT_3D('',#1512,#1236,#1237);
#1075=AXIS2_PLACEMENT_3D('',#1513,#1238,#1239);
#1076=AXIS2_PLACEMENT_3D('',#1517,#1242,#1243);
#1077=AXIS2_PLACEMENT_3D('',#1519,#1245,#1246);
#1078=AXIS2_PLACEMENT_3D('',#1520,#1247,#1248);
#1079=AXIS2_PLACEMENT_3D('',#1523,#1250,#1251);
#1080=AXIS2_PLACEMENT_3D('',#1524,#1252,#1253);
#1081=AXIS2_PLACEMENT_3D('',#1537,#1260,#1261);
#1082=AXIS2_PLACEMENT_3D('',#1546,#1266,#1267);
#1083=AXIS2_PLACEMENT_3D('',#1552,#1271,#1272);
#1084=AXIS2_PLACEMENT_3D('',#1558,#1276,#1277);
#1085=AXIS2_PLACEMENT_3D('',#1561,#1280,#1281);
#1086=AXIS2_PLACEMENT_3D('',#1574,#1288,#1289);
#1087=AXIS2_PLACEMENT_3D('',#1577,#1292,#1293);
#1088=AXIS2_PLACEMENT_3D('',#1586,#1298,#1299);
#1089=AXIS2_PLACEMENT_3D('',#1587,#1300,#1301);
#1090=AXIS2_PLACEMENT_3D('',#1593,#1305,#1306);
#1091=AXIS2_PLACEMENT_3D('',#1597,#1309,#1310);
#1092=AXIS2_PLACEMENT_3D('',#1601,#1313,#1314);
#1093=AXIS2_PLACEMENT_3D('',#1610,#1319,#1320);
#1094=AXIS2_PLACEMENT_3D('',#1616,#1324,#1325);
#1095=AXIS2_PLACEMENT_3D('',#1620,#1328,#1329);
#1096=AXIS2_PLACEMENT_3D('',#1624,#1332,#1333);
#1097=AXIS2_PLACEMENT_3D('',#1627,#1336,#1337);
#1098=AXIS2_PLACEMENT_3D('',#1630,#1340,#1341);
#1099=AXIS2_PLACEMENT_3D('',#1636,#1345,#1346);
#1100=AXIS2_PLACEMENT_3D('',#1638,#1347,#1348);
#1101=AXIS2_PLACEMENT_3D('',#1641,#1350,#1351);
#1102=AXIS2_PLACEMENT_3D('',#1642,#1352,#1353);
#1103=AXIS2_PLACEMENT_3D('',#1643,#1354,#1355);
#1104=AXIS2_PLACEMENT_3D('',#1649,#1359,#1360);
#1105=AXIS2_PLACEMENT_3D('',#1651,#1362,#1363);
#1106=AXIS2_PLACEMENT_3D('',#1653,#1365,#1366);
#1107=DIRECTION('axis',(0.,0.,1.));
#1108=DIRECTION('refdir',(1.,0.,0.));
#1109=DIRECTION('center_axis',(-1.,0.,0.));
#1110=DIRECTION('ref_axis',(0.,0.,-1.));
#1111=DIRECTION('',(0.,0.,1.));
#1112=DIRECTION('',(0.,-1.,0.));
#1113=DIRECTION('',(0.,0.,-1.));
#1114=DIRECTION('',(0.,-1.,0.));
#1115=DIRECTION('center_axis',(1.,0.,0.));
#1116=DIRECTION('ref_axis',(0.,0.,1.));
#1117=DIRECTION('',(0.,0.,-1.));
#1118=DIRECTION('',(0.,-1.,0.));
#1119=DIRECTION('',(0.,0.,1.));
#1120=DIRECTION('',(0.,-1.,0.));
#1121=DIRECTION('center_axis',(0.,-1.,0.));
#1122=DIRECTION('ref_axis',(1.,0.,0.));
#1123=DIRECTION('center_axis',(0.,-1.,0.));
#1124=DIRECTION('ref_axis',(1.,0.,0.));
#1125=DIRECTION('center_axis',(0.,-1.,0.));
#1126=DIRECTION('ref_axis',(1.,0.,0.));
#1127=DIRECTION('',(0.,0.,-1.));
#1128=DIRECTION('',(-1.,0.,0.));
#1129=DIRECTION('',(0.,0.,1.));
#1130=DIRECTION('',(1.,0.,0.));
#1131=DIRECTION('',(0.,0.,1.));
#1132=DIRECTION('',(1.,0.,0.));
#1133=DIRECTION('',(0.,0.,-1.));
#1134=DIRECTION('',(-1.,0.,0.));
#1135=DIRECTION('',(1.,0.,0.));
#1136=DIRECTION('',(0.,0.,-1.));
#1137=DIRECTION('',(-1.,0.,0.));
#1138=DIRECTION('',(0.,0.,1.));
#1139=DIRECTION('center_axis',(0.,0.,1.));
#1140=DIRECTION('ref_axis',(-1.,0.,0.));
#1141=DIRECTION('',(0.,-1.,0.));
#1142=DIRECTION('',(-1.,0.,0.));
#1143=DIRECTION('',(0.,-1.,0.));
#1144=DIRECTION('center_axis',(-1.,0.,0.));
#1145=DIRECTION('ref_axis',(0.,0.,-1.));
#1146=DIRECTION('',(0.,-1.,0.));
#1147=DIRECTION('',(0.,0.,-1.));
#1148=DIRECTION('center_axis',(-1.,0.,0.));
#1149=DIRECTION('ref_axis',(0.,0.,-1.));
#1150=DIRECTION('',(0.,-1.,0.));
#1151=DIRECTION('',(0.,0.,-1.));
#1152=DIRECTION('',(0.,-1.,0.));
#1153=DIRECTION('center_axis',(0.,0.,-1.));
#1154=DIRECTION('ref_axis',(1.,0.,0.));
#1155=DIRECTION('',(0.,-1.,0.));
#1156=DIRECTION('',(1.,0.,0.));
#1157=DIRECTION('center_axis',(1.,0.,0.));
#1158=DIRECTION('ref_axis',(0.,0.,1.));
#1159=DIRECTION('',(0.,-1.,0.));
#1160=DIRECTION('',(0.,0.,1.));
#1161=DIRECTION('',(0.,-1.,0.));
#1162=DIRECTION('center_axis',(0.,0.,1.));
#1163=DIRECTION('ref_axis',(-1.,0.,0.));
#1164=DIRECTION('',(0.,-1.,0.));
#1165=DIRECTION('',(-1.,0.,0.));
#1166=DIRECTION('center_axis',(0.,-1.,0.));
#1167=DIRECTION('ref_axis',(1.,0.,0.));
#1168=DIRECTION('center_axis',(0.,-1.,0.));
#1169=DIRECTION('ref_axis',(1.,0.,0.));
#1170=DIRECTION('center_axis',(0.,-1.,0.));
#1171=DIRECTION('ref_axis',(1.,0.,0.));
#1172=DIRECTION('',(-1.,0.,0.));
#1173=DIRECTION('',(0.,0.,1.));
#1174=DIRECTION('',(1.,0.,0.));
#1175=DIRECTION('',(0.,0.,-1.));
#1176=DIRECTION('center_axis',(0.,-1.,0.));
#1177=DIRECTION('ref_axis',(1.,0.,0.));
#1178=DIRECTION('center_axis',(0.,-1.,0.));
#1179=DIRECTION('ref_axis',(1.,0.,0.));
#1180=DIRECTION('',(-1.,0.,0.));
#1181=DIRECTION('',(0.,0.,1.));
#1182=DIRECTION('',(1.,0.,2.77555756156289E-15));
#1183=DIRECTION('',(0.,0.,-1.));
#1184=DIRECTION('center_axis',(0.,0.,-1.));
#1185=DIRECTION('ref_axis',(1.,0.,0.));
#1186=DIRECTION('',(0.,-1.,0.));
#1187=DIRECTION('',(1.,0.,0.));
#1188=DIRECTION('',(0.,-1.,0.));
#1189=DIRECTION('center_axis',(-1.,0.,0.));
#1190=DIRECTION('ref_axis',(0.,0.,-1.));
#1191=DIRECTION('',(0.,0.,-1.));
#1192=DIRECTION('',(0.,-1.,0.));
#1193=DIRECTION('center_axis',(-2.77555756156289E-15,0.,1.));
#1194=DIRECTION('ref_axis',(-1.,0.,-2.77555756156289E-15));
#1195=DIRECTION('',(-1.,0.,-2.77555756156289E-15));
#1196=DIRECTION('',(0.,-1.,0.));
#1197=DIRECTION('center_axis',(1.,0.,0.));
#1198=DIRECTION('ref_axis',(0.,0.,1.));
#1199=DIRECTION('',(0.,0.,1.));
#1200=DIRECTION('center_axis',(0.,-1.,0.));
#1201=DIRECTION('ref_axis',(0.,0.,-1.));
#1202=DIRECTION('center_axis',(0.,0.,-1.));
#1203=DIRECTION('ref_axis',(1.,0.,0.));
#1204=DIRECTION('',(0.,-1.,0.));
#1205=DIRECTION('',(1.,0.,0.));
#1206=DIRECTION('',(0.,-1.,0.));
#1207=DIRECTION('center_axis',(-1.,0.,0.));
#1208=DIRECTION('ref_axis',(0.,0.,-1.));
#1209=DIRECTION('',(0.,0.,-1.));
#1210=DIRECTION('',(0.,-1.,0.));
#1211=DIRECTION('center_axis',(0.,0.,1.));
#1212=DIRECTION('ref_axis',(-1.,0.,0.));
#1213=DIRECTION('',(-1.,0.,0.));
#1214=DIRECTION('',(0.,-1.,0.));
#1215=DIRECTION('center_axis',(1.,0.,0.));
#1216=DIRECTION('ref_axis',(0.,0.,1.));
#1217=DIRECTION('',(0.,0.,1.));
#1218=DIRECTION('center_axis',(0.,-1.,0.));
#1219=DIRECTION('ref_axis',(0.,0.,-1.));
#1220=DIRECTION('center_axis',(1.,0.,0.));
#1221=DIRECTION('ref_axis',(0.,0.,1.));
#1222=DIRECTION('',(0.,0.,1.));
#1223=DIRECTION('',(0.,-1.,0.));
#1224=DIRECTION('center_axis',(0.,0.,-1.));
#1225=DIRECTION('ref_axis',(1.,0.,0.));
#1226=DIRECTION('',(1.,0.,0.));
#1227=DIRECTION('center_axis',(0.,-1.,0.));
#1228=DIRECTION('ref_axis',(0.,0.,-1.));
#1229=DIRECTION('center_axis',(0.,0.,1.));
#1230=DIRECTION('ref_axis',(-1.,0.,0.));
#1231=DIRECTION('',(-1.,0.,0.));
#1232=DIRECTION('',(0.,-1.,0.));
#1233=DIRECTION('center_axis',(1.,0.,0.));
#1234=DIRECTION('ref_axis',(0.,0.,1.));
#1235=DIRECTION('',(0.,0.,1.));
#1236=DIRECTION('center_axis',(0.,-1.,0.));
#1237=DIRECTION('ref_axis',(0.,0.,-1.));
#1238=DIRECTION('center_axis',(0.,0.,-1.));
#1239=DIRECTION('ref_axis',(1.,0.,0.));
#1240=DIRECTION('',(1.,0.,0.));
#1241=DIRECTION('',(0.,-1.,0.));
#1242=DIRECTION('center_axis',(-1.,0.,0.));
#1243=DIRECTION('ref_axis',(0.,0.,-1.));
#1244=DIRECTION('',(0.,0.,-1.));
#1245=DIRECTION('center_axis',(0.,-1.,0.));
#1246=DIRECTION('ref_axis',(0.,0.,-1.));
#1247=DIRECTION('center_axis',(0.,-1.,0.));
#1248=DIRECTION('ref_axis',(1.,0.,0.));
#1249=DIRECTION('',(0.,1.,0.));
#1250=DIRECTION('center_axis',(0.,1.,0.));
#1251=DIRECTION('ref_axis',(1.,0.,0.));
#1252=DIRECTION('center_axis',(0.,0.,1.));
#1253=DIRECTION('ref_axis',(-1.,0.,0.));
#1254=DIRECTION('',(-0.707106781186547,-0.707106781186547,0.));
#1255=DIRECTION('',(0.,-1.,0.));
#1256=DIRECTION('',(-1.,0.,0.));
#1257=DIRECTION('',(0.,-1.,0.));
#1258=DIRECTION('',(-0.707106781186547,0.707106781186547,0.));
#1259=DIRECTION('',(-1.,0.,0.));
#1260=DIRECTION('center_axis',(1.,0.,0.));
#1261=DIRECTION('ref_axis',(0.,0.,1.));
#1262=DIRECTION('',(0.,0.,1.));
#1263=DIRECTION('',(0.,-1.,0.));
#1264=DIRECTION('',(0.,0.,1.));
#1265=DIRECTION('',(0.,-1.,0.));
#1266=DIRECTION('center_axis',(0.,0.,1.));
#1267=DIRECTION('ref_axis',(-1.,0.,0.));
#1268=DIRECTION('',(-1.,0.,0.));
#1269=DIRECTION('',(0.,-1.,0.));
#1270=DIRECTION('',(-1.,0.,0.));
#1271=DIRECTION('center_axis',(-1.,0.,0.));
#1272=DIRECTION('ref_axis',(0.,0.,-1.));
#1273=DIRECTION('',(0.,0.,-1.));
#1274=DIRECTION('',(0.,-1.,0.));
#1275=DIRECTION('',(0.,0.,-1.));
#1276=DIRECTION('center_axis',(0.,0.,-1.));
#1277=DIRECTION('ref_axis',(1.,0.,0.));
#1278=DIRECTION('',(1.,0.,0.));
#1279=DIRECTION('',(1.,0.,0.));
#1280=DIRECTION('center_axis',(0.,0.,-1.));
#1281=DIRECTION('ref_axis',(1.,0.,0.));
#1282=DIRECTION('',(0.707106781186547,0.707106781186547,0.));
#1283=DIRECTION('',(1.,0.,0.));
#1284=DIRECTION('',(0.707106781186547,-0.707106781186547,0.));
#1285=DIRECTION('',(0.,-1.,0.));
#1286=DIRECTION('',(1.,0.,0.));
#1287=DIRECTION('',(0.,-1.,0.));
#1288=DIRECTION('center_axis',(0.,-1.,0.));
#1289=DIRECTION('ref_axis',(0.,0.,-1.));
#1290=DIRECTION('',(0.,0.,1.));
#1291=DIRECTION('',(0.,0.,-1.));
#1292=DIRECTION('center_axis',(0.,1.,0.));
#1293=DIRECTION('ref_axis',(0.,0.,1.));
#1294=DIRECTION('',(0.,0.,-1.));
#1295=DIRECTION('',(-1.,0.,0.));
#1296=DIRECTION('',(0.,0.,1.));
#1297=DIRECTION('',(1.,0.,0.));
#1298=DIRECTION('center_axis',(0.,1.,0.));
#1299=DIRECTION('ref_axis',(0.,0.,1.));
#1300=DIRECTION('center_axis',(0.,-1.,0.));
#1301=DIRECTION('ref_axis',(1.,0.,0.));
#1302=DIRECTION('',(1.,0.,0.));
#1303=DIRECTION('',(0.,0.,1.));
#1304=DIRECTION('',(0.,0.,1.));
#1305=DIRECTION('center_axis',(-0.707106781186548,-0.707106781186548,0.));
#1306=DIRECTION('ref_axis',(0.707106781186548,-0.707106781186548,0.));
#1307=DIRECTION('',(0.707106781186548,-0.707106781186548,0.));
#1308=DIRECTION('',(0.,0.,1.));
#1309=DIRECTION('center_axis',(0.707106781186548,-0.707106781186548,0.));
#1310=DIRECTION('ref_axis',(0.707106781186548,0.707106781186548,0.));
#1311=DIRECTION('',(0.707106781186548,0.707106781186548,0.));
#1312=DIRECTION('',(0.,0.,1.));
#1313=DIRECTION('center_axis',(0.,1.,0.));
#1314=DIRECTION('ref_axis',(0.,0.,1.));
#1315=DIRECTION('',(0.,0.,1.));
#1316=DIRECTION('',(1.,0.,0.));
#1317=DIRECTION('',(0.,0.,-1.));
#1318=DIRECTION('',(-1.,0.,0.));
#1319=DIRECTION('center_axis',(-0.707106781186548,-0.707106781186548,0.));
#1320=DIRECTION('ref_axis',(-0.707106781186548,0.707106781186548,0.));
#1321=DIRECTION('',(-0.707106781186548,0.707106781186548,0.));
#1322=DIRECTION('',(0.,0.,-1.));
#1323=DIRECTION('',(0.,0.,-1.));
#1324=DIRECTION('center_axis',(0.,-1.,0.));
#1325=DIRECTION('ref_axis',(-1.,0.,0.));
#1326=DIRECTION('',(-1.,0.,0.));
#1327=DIRECTION('',(0.,0.,-1.));
#1328=DIRECTION('center_axis',(0.707106781186548,-0.707106781186548,0.));
#1329=DIRECTION('ref_axis',(-0.707106781186548,-0.707106781186548,0.));
#1330=DIRECTION('',(-0.707106781186548,-0.707106781186548,0.));
#1331=DIRECTION('',(0.,0.,-1.));
#1332=DIRECTION('center_axis',(1.,0.,0.));
#1333=DIRECTION('ref_axis',(0.,-1.,0.));
#1334=DIRECTION('',(0.,-1.,0.));
#1335=DIRECTION('',(0.,1.,0.));
#1336=DIRECTION('center_axis',(-1.,0.,0.));
#1337=DIRECTION('ref_axis',(0.,1.,0.));
#1338=DIRECTION('',(0.,1.,0.));
#1339=DIRECTION('',(0.,-1.,0.));
#1340=DIRECTION('center_axis',(0.,0.,1.));
#1341=DIRECTION('ref_axis',(1.,0.,0.));
#1342=DIRECTION('',(0.,1.,0.));
#1343=DIRECTION('',(1.,0.,0.));
#1344=DIRECTION('',(0.,1.,0.));
#1345=DIRECTION('center_axis',(0.,-1.,0.));
#1346=DIRECTION('ref_axis',(1.,0.,0.));
#1347=DIRECTION('center_axis',(0.,-1.,0.));
#1348=DIRECTION('ref_axis',(1.,0.,0.));
#1349=DIRECTION('',(0.,1.,0.));
#1350=DIRECTION('center_axis',(0.,1.,0.));
#1351=DIRECTION('ref_axis',(1.,0.,0.));
#1352=DIRECTION('center_axis',(0.,1.,0.));
#1353=DIRECTION('ref_axis',(1.,0.,0.));
#1354=DIRECTION('center_axis',(0.,0.,-1.));
#1355=DIRECTION('ref_axis',(-1.,0.,0.));
#1356=DIRECTION('',(0.,1.,0.));
#1357=DIRECTION('',(-1.,0.,0.));
#1358=DIRECTION('',(0.,1.,0.));
#1359=DIRECTION('center_axis',(1.,0.,0.));
#1360=DIRECTION('ref_axis',(0.,0.,-1.));
#1361=DIRECTION('',(0.,0.,-1.));
#1362=DIRECTION('center_axis',(-1.,0.,0.));
#1363=DIRECTION('ref_axis',(0.,0.,1.));
#1364=DIRECTION('',(0.,0.,1.));
#1365=DIRECTION('center_axis',(0.,1.,0.));
#1366=DIRECTION('ref_axis',(1.,0.,0.));
#1367=CARTESIAN_POINT('',(0.,0.,0.));
#1368=CARTESIAN_POINT('Origin',(4.60000002235174,-22.,-2.92628635944809));
#1369=CARTESIAN_POINT('',(4.60000002235174,-22.,-15.0737139087728));
#1370=CARTESIAN_POINT('',(4.60000002235174,-22.,-2.92628635944809));
#1371=CARTESIAN_POINT('',(4.60000002235174,-22.,-5.96314324677927));
#1372=CARTESIAN_POINT('',(4.60000002235174,-22.7,-15.0737139087728));
#1373=CARTESIAN_POINT('',(4.60000002235174,-22.,-15.0737139087728));
#1374=CARTESIAN_POINT('',(4.60000002235174,-22.7,-2.92628635944809));
#1375=CARTESIAN_POINT('',(4.60000002235174,-22.7,-16.5000001341105));
#1376=CARTESIAN_POINT('',(4.60000002235174,-22.,-2.92628635944809));
#1377=CARTESIAN_POINT('Origin',(7.60000002235174,-22.,-16.368174920791));
#1378=CARTESIAN_POINT('',(7.60000002235174,-22.,-1.63182534742986));
#1379=CARTESIAN_POINT('',(7.60000002235174,-22.,-16.368174920791));
#1380=CARTESIAN_POINT('',(7.60000002235174,-22.,-12.6840875274507));
#1381=CARTESIAN_POINT('',(7.60000002235174,-22.7,-1.63182534742986));
#1382=CARTESIAN_POINT('',(7.60000002235174,-22.,-1.63182534742986));
#1383=CARTESIAN_POINT('',(7.60000002235174,-22.7,-16.368174920791));
#1384=CARTESIAN_POINT('',(7.60000002235174,-22.7,-1.50000013411045));
#1385=CARTESIAN_POINT('',(7.60000002235174,-22.,-16.368174920791));
#1386=CARTESIAN_POINT('Origin',(6.10000002235174,-22.7,-9.00000013411045));
#1387=CARTESIAN_POINT('Origin',(9.00000013411045,-22.7,-9.00000013411045));
#1388=CARTESIAN_POINT('Origin',(9.00000013411045,-22.7,-9.00000013411045));
#1389=CARTESIAN_POINT('',(5.90000002235174,-22.7,-2.75000013411045));
#1390=CARTESIAN_POINT('',(5.90000002235174,-22.7,-5.45000013411045));
#1391=CARTESIAN_POINT('',(5.90000002235174,-22.7,-5.87500013411045));
#1392=CARTESIAN_POINT('',(6.30000002235174,-22.7,-2.75000013411045));
#1393=CARTESIAN_POINT('',(6.20000002235174,-22.7,-2.75000013411045));
#1394=CARTESIAN_POINT('',(6.30000002235174,-22.7,-5.45000013411045));
#1395=CARTESIAN_POINT('',(6.30000002235174,-22.7,-7.22500013411045));
#1396=CARTESIAN_POINT('',(6.00000002235174,-22.7,-5.45000013411045));
#1397=CARTESIAN_POINT('',(6.30000002235174,-22.7,-10.3500001341105));
#1398=CARTESIAN_POINT('',(6.30000002235174,-22.7,-7.65000013411045));
#1399=CARTESIAN_POINT('',(6.30000002235174,-22.7,-9.67500013411045));
#1400=CARTESIAN_POINT('',(5.90000002235174,-22.7,-10.3500001341105));
#1401=CARTESIAN_POINT('',(6.00000002235174,-22.7,-10.3500001341105));
#1402=CARTESIAN_POINT('',(5.90000002235174,-22.7,-7.65000013411045));
#1403=CARTESIAN_POINT('',(5.90000002235174,-22.7,-8.32500013411045));
#1404=CARTESIAN_POINT('',(6.20000002235174,-22.7,-7.65000013411045));
#1405=CARTESIAN_POINT('',(5.90000002235174,-22.7,-15.2500001341105));
#1406=CARTESIAN_POINT('',(6.30000002235174,-22.7,-15.2500001341105));
#1407=CARTESIAN_POINT('',(6.00000002235174,-22.7,-15.2500001341105));
#1408=CARTESIAN_POINT('',(5.90000002235174,-22.7,-12.5500001341105));
#1409=CARTESIAN_POINT('',(5.90000002235174,-22.7,-10.7750001341105));
#1410=CARTESIAN_POINT('',(6.30000002235174,-22.7,-12.5500001341105));
#1411=CARTESIAN_POINT('',(6.20000002235174,-22.7,-12.5500001341105));
#1412=CARTESIAN_POINT('',(6.30000002235174,-22.7,-12.1250001341105));
#1413=CARTESIAN_POINT('Origin',(6.30000002235174,-22.,-12.5500001341105));
#1414=CARTESIAN_POINT('',(5.90000002235174,-30.,-12.5500001341105));
#1415=CARTESIAN_POINT('',(5.90000002235174,-22.,-12.5500001341105));
#1416=CARTESIAN_POINT('',(6.30000002235174,-30.,-12.5500001341105));
#1417=CARTESIAN_POINT('',(5.90000002235174,-30.,-12.5500001341105));
#1418=CARTESIAN_POINT('',(6.30000002235174,-22.,-12.5500001341105));
#1419=CARTESIAN_POINT('Origin',(5.90000002235174,-22.,-12.5500001341105));
#1420=CARTESIAN_POINT('',(5.90000002235174,-30.,-15.2500001341105));
#1421=CARTESIAN_POINT('',(5.90000002235174,-22.,-15.2500001341105));
#1422=CARTESIAN_POINT('',(5.90000002235174,-30.,-15.2500001341105));
#1423=CARTESIAN_POINT('Origin',(5.90000002235174,-22.,-7.65000013411045));
#1424=CARTESIAN_POINT('',(5.90000002235174,-30.,-10.3500001341105));
#1425=CARTESIAN_POINT('',(5.90000002235174,-22.,-10.3500001341105));
#1426=CARTESIAN_POINT('',(5.90000002235174,-30.,-7.65000013411045));
#1427=CARTESIAN_POINT('',(5.90000002235174,-30.,-7.65000013411045));
#1428=CARTESIAN_POINT('',(5.90000002235174,-22.,-7.65000013411045));
#1429=CARTESIAN_POINT('Origin',(5.90000002235174,-22.,-10.3500001341105));
#1430=CARTESIAN_POINT('',(6.30000002235174,-30.,-10.3500001341105));
#1431=CARTESIAN_POINT('',(6.30000002235174,-22.,-10.3500001341105));
#1432=CARTESIAN_POINT('',(5.90000002235174,-30.,-10.3500001341105));
#1433=CARTESIAN_POINT('Origin',(6.30000002235174,-22.,-5.45000013411045));
#1434=CARTESIAN_POINT('',(6.30000002235174,-30.,-2.75000013411045));
#1435=CARTESIAN_POINT('',(6.30000002235174,-22.,-2.75000013411045));
#1436=CARTESIAN_POINT('',(6.30000002235174,-30.,-5.45000013411045));
#1437=CARTESIAN_POINT('',(6.30000002235174,-30.,-5.45000013411045));
#1438=CARTESIAN_POINT('',(6.30000002235174,-22.,-5.45000013411045));
#1439=CARTESIAN_POINT('Origin',(6.30000002235174,-22.,-2.75000013411045));
#1440=CARTESIAN_POINT('',(5.90000002235174,-30.,-2.75000013411045));
#1441=CARTESIAN_POINT('',(5.90000002235174,-22.,-2.75000013411045));
#1442=CARTESIAN_POINT('',(6.30000002235174,-30.,-2.75000013411045));
#1443=CARTESIAN_POINT('Origin',(9.00000013411045,-22.,-9.00000013411045));
#1444=CARTESIAN_POINT('',(1.50000013411045,-22.,-9.00000013411045));
#1445=CARTESIAN_POINT('Origin',(9.00000013411045,-22.,-9.00000013411045));
#1446=CARTESIAN_POINT('Origin',(9.00000013411045,-22.,-9.00000013411045));
#1447=CARTESIAN_POINT('',(2.90000002235174,-22.,-10.3500001341105));
#1448=CARTESIAN_POINT('',(2.50000002235174,-22.,-10.3500001341105));
#1449=CARTESIAN_POINT('',(5.7500000782311,-22.,-10.3500001341105));
#1450=CARTESIAN_POINT('',(2.50000002235174,-22.,-7.65000013411045));
#1451=CARTESIAN_POINT('',(2.50000002235174,-22.,-8.32500013411045));
#1452=CARTESIAN_POINT('',(2.90000002235174,-22.,-7.65000013411045));
#1453=CARTESIAN_POINT('',(5.9500000782311,-22.,-7.65000013411045));
#1454=CARTESIAN_POINT('',(2.90000002235174,-22.,-9.67500013411045));
#1455=CARTESIAN_POINT('Origin',(9.00000013411045,-22.,-9.00000013411045));
#1456=CARTESIAN_POINT('Origin',(9.00000013411045,-22.,-9.00000013411045));
#1457=CARTESIAN_POINT('',(15.5000002458692,-22.,-10.3500001341105));
#1458=CARTESIAN_POINT('',(15.1000002458692,-22.,-10.3500001341105));
#1459=CARTESIAN_POINT('',(12.0500001899898,-22.,-10.3500001341105));
#1460=CARTESIAN_POINT('',(15.1000002458692,-22.,-7.65000013411045));
#1461=CARTESIAN_POINT('',(15.1000002458692,-22.,-8.32500013411045));
#1462=CARTESIAN_POINT('',(15.5000002458692,-22.,-7.65000013411045));
#1463=CARTESIAN_POINT('',(12.2500001899898,-22.,-7.65000013411046));
#1464=CARTESIAN_POINT('',(15.5000002458692,-22.,-9.67500013411045));
#1465=CARTESIAN_POINT('Origin',(15.1000002458692,-22.,-10.3500001341105));
#1466=CARTESIAN_POINT('',(15.5000002458692,-30.,-10.3500001341105));
#1467=CARTESIAN_POINT('',(15.5000002458692,-22.,-10.3500001341105));
#1468=CARTESIAN_POINT('',(15.1000002458692,-30.,-10.3500001341105));
#1469=CARTESIAN_POINT('',(15.1000002458692,-30.,-10.3500001341105));
#1470=CARTESIAN_POINT('',(15.1000002458692,-22.,-10.3500001341105));
#1471=CARTESIAN_POINT('Origin',(15.1000002458692,-22.,-7.65000013411045));
#1472=CARTESIAN_POINT('',(15.1000002458692,-30.,-7.65000013411045));
#1473=CARTESIAN_POINT('',(15.1000002458692,-30.,-7.65000013411045));
#1474=CARTESIAN_POINT('',(15.1000002458692,-22.,-7.65000013411045));
#1475=CARTESIAN_POINT('Origin',(15.5000002458692,-22.,-7.65000013411045));
#1476=CARTESIAN_POINT('',(15.5000002458692,-30.,-7.65000013411045));
#1477=CARTESIAN_POINT('',(15.5000002458692,-30.,-7.65000013411045));
#1478=CARTESIAN_POINT('',(15.5000002458692,-22.,-7.65000013411045));
#1479=CARTESIAN_POINT('Origin',(15.5000002458692,-22.,-10.3500001341105));
#1480=CARTESIAN_POINT('',(15.5000002458692,-30.,-10.3500001341105));
#1481=CARTESIAN_POINT('Origin',(15.3000002458692,-30.,-9.00000013411045));
#1482=CARTESIAN_POINT('Origin',(2.50000002235174,-22.,-10.3500001341105));
#1483=CARTESIAN_POINT('',(2.90000002235174,-30.,-10.3500001341105));
#1484=CARTESIAN_POINT('',(2.90000002235174,-22.,-10.3500001341105));
#1485=CARTESIAN_POINT('',(2.50000002235174,-30.,-10.3500001341105));
#1486=CARTESIAN_POINT('',(2.50000002235174,-30.,-10.3500001341105));
#1487=CARTESIAN_POINT('',(2.50000002235174,-22.,-10.3500001341105));
#1488=CARTESIAN_POINT('Origin',(2.50000002235174,-22.,-7.65000013411045));
#1489=CARTESIAN_POINT('',(2.50000002235174,-30.,-7.65000013411045));
#1490=CARTESIAN_POINT('',(2.50000002235174,-30.,-7.65000013411045));
#1491=CARTESIAN_POINT('',(2.50000002235174,-22.,-7.65000013411045));
#1492=CARTESIAN_POINT('Origin',(2.90000002235174,-22.,-7.65000013411045));
#1493=CARTESIAN_POINT('',(2.90000002235174,-30.,-7.65000013411045));
#1494=CARTESIAN_POINT('',(2.90000002235174,-30.,-7.65000013411045));
#1495=CARTESIAN_POINT('',(2.90000002235174,-22.,-7.65000013411045));
#1496=CARTESIAN_POINT('Origin',(2.90000002235174,-22.,-10.3500001341105));
#1497=CARTESIAN_POINT('',(2.90000002235174,-30.,-10.3500001341105));
#1498=CARTESIAN_POINT('Origin',(2.70000002235174,-30.,-9.00000013411045));
#1499=CARTESIAN_POINT('Origin',(6.30000002235174,-22.,-15.2500001341105));
#1500=CARTESIAN_POINT('',(6.30000002235174,-30.,-15.2500001341105));
#1501=CARTESIAN_POINT('',(6.30000002235174,-30.,-12.5500001341105));
#1502=CARTESIAN_POINT('',(6.30000002235174,-22.,-15.2500001341105));
#1503=CARTESIAN_POINT('Origin',(5.90000002235174,-22.,-15.2500001341105));
#1504=CARTESIAN_POINT('',(6.30000002235174,-30.,-15.2500001341105));
#1505=CARTESIAN_POINT('Origin',(6.10000002235174,-30.,-13.9000001341105));
#1506=CARTESIAN_POINT('Origin',(6.30000002235174,-22.,-7.65000013411045));
#1507=CARTESIAN_POINT('',(6.30000002235174,-30.,-7.65000013411045));
#1508=CARTESIAN_POINT('',(6.30000002235174,-30.,-7.65000013411045));
#1509=CARTESIAN_POINT('',(6.30000002235174,-22.,-7.65000013411045));
#1510=CARTESIAN_POINT('Origin',(6.30000002235174,-22.,-10.3500001341105));
#1511=CARTESIAN_POINT('',(6.30000002235174,-30.,-10.3500001341105));
#1512=CARTESIAN_POINT('Origin',(6.10000002235174,-30.,-9.00000013411045));
#1513=CARTESIAN_POINT('Origin',(5.90000002235174,-22.,-5.45000013411045));
#1514=CARTESIAN_POINT('',(5.90000002235174,-30.,-5.45000013411045));
#1515=CARTESIAN_POINT('',(5.90000002235174,-30.,-5.45000013411045));
#1516=CARTESIAN_POINT('',(5.90000002235174,-22.,-5.45000013411045));
#1517=CARTESIAN_POINT('Origin',(5.90000002235174,-22.,-2.75000013411045));
#1518=CARTESIAN_POINT('',(5.90000002235174,-30.,-2.75000013411045));
#1519=CARTESIAN_POINT('Origin',(6.10000002235174,-30.,-4.10000013411045));
#1520=CARTESIAN_POINT('Origin',(9.00000013411045,-12.,-9.00000013411045));
#1521=CARTESIAN_POINT('',(1.50000013411045,-12.,-9.00000013411045));
#1522=CARTESIAN_POINT('',(1.50000013411045,-12.,-9.00000013411045));
#1523=CARTESIAN_POINT('Origin',(9.00000013411045,-12.,-9.00000013411045));
#1524=CARTESIAN_POINT('Origin',(17.0000002533197,9.5,-1.00000001490116));
#1525=CARTESIAN_POINT('',(17.0000002533197,7.50000011175871,-1.));
#1526=CARTESIAN_POINT('',(15.0000002235174,5.50000008195639,-1.));
#1527=CARTESIAN_POINT('',(17.0000002533197,7.50000011175871,-1.));
#1528=CARTESIAN_POINT('',(17.0000002533197,4.5,-1.00000001490116));
#1529=CARTESIAN_POINT('',(17.0000002533197,9.5,-1.00000001490116));
#1530=CARTESIAN_POINT('',(1.00000001490116,4.5,-1.00000001490116));
#1531=CARTESIAN_POINT('',(17.0000002533197,4.5,-1.00000001490116));
#1532=CARTESIAN_POINT('',(1.00000001490116,7.50000011175871,-1.));
#1533=CARTESIAN_POINT('',(1.00000001490116,9.5,-1.00000001490116));
#1534=CARTESIAN_POINT('',(3.00000004470348,5.50000008195639,-1.));
#1535=CARTESIAN_POINT('',(1.00000001490116,7.50000011175871,-1.));
#1536=CARTESIAN_POINT('',(15.0000002235174,5.50000008195639,-1.));
#1537=CARTESIAN_POINT('Origin',(1.50000002235174,9.5,-16.5000002458692));
#1538=CARTESIAN_POINT('',(1.50000002235174,9.5,-16.5000002458692));
#1539=CARTESIAN_POINT('',(1.50000002235174,9.5,-1.50000002235174));
#1540=CARTESIAN_POINT('',(1.50000002235174,9.5,-12.7500001229346));
#1541=CARTESIAN_POINT('',(1.50000002235174,4.5,-16.5000002458692));
#1542=CARTESIAN_POINT('',(1.50000002235174,9.5,-16.5000002458692));
#1543=CARTESIAN_POINT('',(1.50000002235174,4.5,-1.50000002235174));
#1544=CARTESIAN_POINT('',(1.50000002235174,4.5,-1.50000002235174));
#1545=CARTESIAN_POINT('',(1.50000002235174,9.5,-1.50000002235174));
#1546=CARTESIAN_POINT('Origin',(16.5000002458692,9.5,-16.5000002458692));
#1547=CARTESIAN_POINT('',(16.5000002458692,9.5,-16.5000002458692));
#1548=CARTESIAN_POINT('',(12.7500001229346,9.5,-16.5000002458692));
#1549=CARTESIAN_POINT('',(16.5000002458692,4.5,-16.5000002458692));
#1550=CARTESIAN_POINT('',(16.5000002458692,9.5,-16.5000002458692));
#1551=CARTESIAN_POINT('',(1.50000002235174,4.5,-16.5000002458692));
#1552=CARTESIAN_POINT('Origin',(16.5000002458692,9.5,-1.50000002235174));
#1553=CARTESIAN_POINT('',(16.5000002458692,9.5,-1.50000002235174));
#1554=CARTESIAN_POINT('',(16.5000002458692,9.5,-5.25000001117587));
#1555=CARTESIAN_POINT('',(16.5000002458692,4.5,-1.50000002235174));
#1556=CARTESIAN_POINT('',(16.5000002458692,9.5,-1.50000002235174));
#1557=CARTESIAN_POINT('',(16.5000002458692,4.5,-16.5000002458692));
#1558=CARTESIAN_POINT('Origin',(1.50000002235174,9.5,-1.50000002235174));
#1559=CARTESIAN_POINT('',(5.25000001117587,9.5,-1.50000002235174));
#1560=CARTESIAN_POINT('',(16.5000002458692,4.5,-1.50000002235174));
#1561=CARTESIAN_POINT('Origin',(1.00000001490116,9.5,-17.0000002533197));
#1562=CARTESIAN_POINT('',(15.0000002235174,5.50000008195639,-17.));
#1563=CARTESIAN_POINT('',(17.0000002533197,7.50000011175871,-17.));
#1564=CARTESIAN_POINT('',(17.0000002533197,7.50000011175871,-17.));
#1565=CARTESIAN_POINT('',(3.00000004470348,5.50000008195639,-17.));
#1566=CARTESIAN_POINT('',(15.0000002235174,5.50000008195639,-17.));
#1567=CARTESIAN_POINT('',(1.00000001490116,7.50000011175871,-17.));
#1568=CARTESIAN_POINT('',(3.00000004470348,5.50000008195639,-17.));
#1569=CARTESIAN_POINT('',(1.00000001490116,4.5,-17.0000002533197));
#1570=CARTESIAN_POINT('',(1.00000001490116,9.5,-17.0000002533197));
#1571=CARTESIAN_POINT('',(17.0000002533197,4.5,-17.0000002533197));
#1572=CARTESIAN_POINT('',(1.00000001490116,4.5,-17.0000002533197));
#1573=CARTESIAN_POINT('',(17.0000002533197,9.5,-17.0000002533197));
#1574=CARTESIAN_POINT('Origin',(9.00000013411045,4.5,-9.00000013411045));
#1575=CARTESIAN_POINT('',(17.0000002533197,4.5,-17.0000002533197));
#1576=CARTESIAN_POINT('',(1.00000001490116,4.5,-1.00000001490116));
#1577=CARTESIAN_POINT('Origin',(9.,9.5,-9.));
#1578=CARTESIAN_POINT('',(1.00000001490116,9.50000014156103,0.));
#1579=CARTESIAN_POINT('',(1.00000001490116,9.5,-18.));
#1580=CARTESIAN_POINT('',(1.00000001490116,9.5,-13.5));
#1581=CARTESIAN_POINT('',(0.,9.5,-18.));
#1582=CARTESIAN_POINT('',(18.,9.5,-18.));
#1583=CARTESIAN_POINT('',(0.,9.5,0.));
#1584=CARTESIAN_POINT('',(0.,9.5,-18.));
#1585=CARTESIAN_POINT('',(0.,9.5,0.));
#1586=CARTESIAN_POINT('Origin',(9.,9.5,-9.));
#1587=CARTESIAN_POINT('Origin',(3.00000004470348,5.50000008195639,-18.));
#1588=CARTESIAN_POINT('',(3.00000004470348,5.50000008195639,-18.));
#1589=CARTESIAN_POINT('',(15.0000002235174,5.50000008195639,-18.));
#1590=CARTESIAN_POINT('',(10.5000000223517,5.50000008195639,-18.));
#1591=CARTESIAN_POINT('',(3.00000004470348,5.50000008195639,-18.));
#1592=CARTESIAN_POINT('',(15.0000002235174,5.50000008195639,-18.));
#1593=CARTESIAN_POINT('Origin',(1.00000001490116,7.50000011175871,-18.));
#1594=CARTESIAN_POINT('',(1.00000001490116,7.50000011175871,-18.));
#1595=CARTESIAN_POINT('',(7.12500003911555,1.37500008754432,-18.));
#1596=CARTESIAN_POINT('',(1.00000001490116,7.50000011175871,-18.));
#1597=CARTESIAN_POINT('Origin',(15.0000002235174,5.50000008195639,-18.));
#1598=CARTESIAN_POINT('',(17.0000002533197,7.50000011175871,-18.));
#1599=CARTESIAN_POINT('',(14.375000147149,4.87500000558794,-18.));
#1600=CARTESIAN_POINT('',(17.0000002533197,7.50000011175871,-18.));
#1601=CARTESIAN_POINT('Origin',(9.,9.5,-9.));
#1602=CARTESIAN_POINT('',(17.0000002533197,9.50000014156103,-18.));
#1603=CARTESIAN_POINT('',(17.0000002533197,9.50000014156103,0.));
#1604=CARTESIAN_POINT('',(17.0000002533197,9.5,-4.5));
#1605=CARTESIAN_POINT('',(18.,9.5,0.));
#1606=CARTESIAN_POINT('',(0.,9.5,0.));
#1607=CARTESIAN_POINT('',(18.,9.5,-18.));
#1608=CARTESIAN_POINT('',(18.,9.5,0.));
#1609=CARTESIAN_POINT('',(18.,9.5,-18.));
#1610=CARTESIAN_POINT('Origin',(3.00000004470348,5.50000008195639,0.));
#1611=CARTESIAN_POINT('',(3.00000004470348,5.50000008195639,0.));
#1612=CARTESIAN_POINT('',(1.00000001490116,7.50000011175871,0.));
#1613=CARTESIAN_POINT('',(3.62500005401671,4.87500007264316,0.));
#1614=CARTESIAN_POINT('',(3.00000004470348,5.50000008195639,0.));
#1615=CARTESIAN_POINT('',(1.00000001490116,7.50000011175871,0.));
#1616=CARTESIAN_POINT('Origin',(15.0000002235174,5.50000008195639,0.));
#1617=CARTESIAN_POINT('',(15.0000002235174,5.50000008195639,0.));
#1618=CARTESIAN_POINT('',(7.50000011175871,5.50000008195639,0.));
#1619=CARTESIAN_POINT('',(15.0000002235174,5.50000008195639,0.));
#1620=CARTESIAN_POINT('Origin',(17.0000002533197,7.50000011175871,0.));
#1621=CARTESIAN_POINT('',(17.0000002533197,7.50000011175871,0.));
#1622=CARTESIAN_POINT('',(10.8750001620501,1.3750000204891,0.));
#1623=CARTESIAN_POINT('',(17.0000002533197,7.50000011175871,0.));
#1624=CARTESIAN_POINT('Origin',(17.0000002533197,9.50000014156103,0.));
#1625=CARTESIAN_POINT('',(17.0000002533197,4.75000007078052,0.));
#1626=CARTESIAN_POINT('',(17.0000002533197,3.75000005587935,-18.));
#1627=CARTESIAN_POINT('Origin',(1.00000001490116,7.50000011175871,0.));
#1628=CARTESIAN_POINT('',(1.00000001490116,3.75000005587935,0.));
#1629=CARTESIAN_POINT('',(1.00000001490116,4.75,-18.));
#1630=CARTESIAN_POINT('Origin',(0.,0.,0.));
#1631=CARTESIAN_POINT('',(0.,0.,0.));
#1632=CARTESIAN_POINT('',(0.,0.,0.));
#1633=CARTESIAN_POINT('',(18.,0.,0.));
#1634=CARTESIAN_POINT('',(0.,0.,0.));
#1635=CARTESIAN_POINT('',(18.,0.,0.));
#1636=CARTESIAN_POINT('Origin',(9.00000013411045,0.,-9.00000013411045));
#1637=CARTESIAN_POINT('',(1.00000013411045,-12.,-9.00000013411045));
#1638=CARTESIAN_POINT('Origin',(9.00000013411045,-12.,-9.00000013411045));
#1639=CARTESIAN_POINT('',(1.00000013411045,0.,-9.00000013411045));
#1640=CARTESIAN_POINT('',(1.00000013411045,0.,-9.00000013411045));
#1641=CARTESIAN_POINT('Origin',(9.00000013411045,0.,-9.00000013411045));
#1642=CARTESIAN_POINT('Origin',(9.00000013411045,-12.,-9.00000013411045));
#1643=CARTESIAN_POINT('Origin',(18.,0.,-18.));
#1644=CARTESIAN_POINT('',(18.,0.,-18.));
#1645=CARTESIAN_POINT('',(18.,0.,-18.));
#1646=CARTESIAN_POINT('',(0.,0.,-18.));
#1647=CARTESIAN_POINT('',(18.,0.,-18.));
#1648=CARTESIAN_POINT('',(0.,0.,-18.));
#1649=CARTESIAN_POINT('Origin',(18.,0.,0.));
#1650=CARTESIAN_POINT('',(18.,0.,0.));
#1651=CARTESIAN_POINT('Origin',(0.,0.,-18.));
#1652=CARTESIAN_POINT('',(0.,0.,-18.));
#1653=CARTESIAN_POINT('Origin',(9.,0.,-9.));
#1654=UNCERTAINTY_MEASURE_WITH_UNIT(LENGTH_MEASURE(0.01),#1658,
'DISTANCE_ACCURACY_VALUE',
'Maximum model space distance between geometric entities at asserted c
onnectivities');
#1655=UNCERTAINTY_MEASURE_WITH_UNIT(LENGTH_MEASURE(0.01),#1658,
'DISTANCE_ACCURACY_VALUE',
'Maximum model space distance between geometric entities at asserted c
onnectivities');
#1656=(
GEOMETRIC_REPRESENTATION_CONTEXT(3)
GLOBAL_UNCERTAINTY_ASSIGNED_CONTEXT((#1654))
GLOBAL_UNIT_ASSIGNED_CONTEXT((#1658,#1660,#1661))
REPRESENTATION_CONTEXT('','3D')
);
#1657=(
GEOMETRIC_REPRESENTATION_CONTEXT(3)
GLOBAL_UNCERTAINTY_ASSIGNED_CONTEXT((#1655))
GLOBAL_UNIT_ASSIGNED_CONTEXT((#1658,#1660,#1661))
REPRESENTATION_CONTEXT('','3D')
);
#1658=(
LENGTH_UNIT()
NAMED_UNIT(*)
SI_UNIT(.MILLI.,.METRE.)
);
#1659=(
LENGTH_UNIT()
NAMED_UNIT(*)
SI_UNIT($,.METRE.)
);
#1660=(
NAMED_UNIT(*)
PLANE_ANGLE_UNIT()
SI_UNIT($,.RADIAN.)
);
#1661=(
NAMED_UNIT(*)
SI_UNIT($,.STERADIAN.)
SOLID_ANGLE_UNIT()
);
#1662=SHAPE_DEFINITION_REPRESENTATION(#1663,#1664);
#1663=PRODUCT_DEFINITION_SHAPE('',$,#1666);
#1664=SHAPE_REPRESENTATION('',(#1042),#1656);
#1665=PRODUCT_DEFINITION_CONTEXT('part definition',#1670,'design');
#1666=PRODUCT_DEFINITION('2025-11-17-12-36-53-970','Button',#1667,#1665);
#1667=PRODUCT_DEFINITION_FORMATION('',$,#1672);
#1668=PRODUCT_RELATED_PRODUCT_CATEGORY('Button','Button',(#1672));
#1669=APPLICATION_PROTOCOL_DEFINITION('international standard',
'automotive_design',2009,#1670);
#1670=APPLICATION_CONTEXT(
'Core Data for Automotive Mechanical Design Process');
#1671=PRODUCT_CONTEXT('part definition',#1670,'mechanical');
#1672=PRODUCT('2025-11-17-12-36-53-970','Button',$,(#1671));
#1673=PRESENTATION_STYLE_ASSIGNMENT((#1674));
#1674=SURFACE_STYLE_USAGE(.BOTH.,#1675);
#1675=SURFACE_SIDE_STYLE('',(#1676));
#1676=SURFACE_STYLE_FILL_AREA(#1677);
#1677=FILL_AREA_STYLE('Steel - Satin',(#1678));
#1678=FILL_AREA_STYLE_COLOUR('Steel - Satin',#1679);
#1679=COLOUR_RGB('Steel - Satin',0.627450980392157,0.627450980392157,0.627450980392157);
ENDSEC;
END-ISO-10303-21;
