ISO-10303-21;
HEADER;
/* Generated by software containing ST-Developer
 * from STEP Tools, Inc. (www.steptools.com) 
 */

FILE_DESCRIPTION(
/* description */ (''),
/* implementation_level */ '2;1');

FILE_NAME(
/* name */ 'Seven segment display.step',
/* time_stamp */ '2026-04-27T15:50:55+01:00',
/* author */ (''),
/* organization */ (''),
/* preprocessor_version */ 'ST-DEVELOPER v20.1',
/* originating_system */ 'Autodesk Translation Framework v14.24.0.0',
/* authorisation */ '');

FILE_SCHEMA (('AUTOMOTIVE_DESIGN { 1 0 10303 214 3 1 1 }'));
ENDSEC;

DATA;
#10=MECHANICAL_DESIGN_GEOMETRIC_PRESENTATION_REPRESENTATION('',(#61,#62,
#63,#64,#65,#66,#67,#68,#69,#70,#71,#72,#73,#74,#75,#76,#77),#1179);
#11=SHAPE_REPRESENTATION_RELATIONSHIP('SRR','None',#1186,#12);
#12=ADVANCED_BREP_SHAPE_REPRESENTATION('',(#78,#79,#80,#81,#82,#83,#84,
#85,#86,#87,#88,#89,#90,#91,#92,#93,#94),#1178);
#13=CIRCLE('',#696,0.25);
#14=CIRCLE('',#697,0.25);
#15=CIRCLE('',#701,0.25);
#16=CIRCLE('',#702,0.25);
#17=CIRCLE('',#706,0.25);
#18=CIRCLE('',#707,0.25);
#19=CIRCLE('',#711,0.25);
#20=CIRCLE('',#712,0.25);
#21=CIRCLE('',#716,0.25);
#22=CIRCLE('',#717,0.25);
#23=CIRCLE('',#721,0.25);
#24=CIRCLE('',#722,0.25);
#25=CIRCLE('',#726,0.25);
#26=CIRCLE('',#727,0.25);
#27=CIRCLE('',#731,0.25);
#28=CIRCLE('',#732,0.25);
#29=CIRCLE('',#736,0.25);
#30=CIRCLE('',#737,0.25);
#31=CIRCLE('',#741,0.25);
#32=CIRCLE('',#742,0.25);
#33=CIRCLE('',#746,0.25);
#34=CIRCLE('',#747,0.25);
#35=CIRCLE('',#751,0.25);
#36=CIRCLE('',#752,0.25);
#37=CIRCLE('',#756,0.25);
#38=CIRCLE('',#757,0.25);
#39=CIRCLE('',#761,0.25);
#40=CIRCLE('',#762,0.25);
#41=CIRCLE('',#766,0.25);
#42=CIRCLE('',#767,0.25);
#43=CIRCLE('',#771,0.25);
#44=CIRCLE('',#772,0.25);
#45=CYLINDRICAL_SURFACE('',#695,0.25);
#46=CYLINDRICAL_SURFACE('',#700,0.25);
#47=CYLINDRICAL_SURFACE('',#705,0.25);
#48=CYLINDRICAL_SURFACE('',#710,0.25);
#49=CYLINDRICAL_SURFACE('',#715,0.25);
#50=CYLINDRICAL_SURFACE('',#720,0.25);
#51=CYLINDRICAL_SURFACE('',#725,0.25);
#52=CYLINDRICAL_SURFACE('',#730,0.25);
#53=CYLINDRICAL_SURFACE('',#735,0.25);
#54=CYLINDRICAL_SURFACE('',#740,0.25);
#55=CYLINDRICAL_SURFACE('',#745,0.25);
#56=CYLINDRICAL_SURFACE('',#750,0.25);
#57=CYLINDRICAL_SURFACE('',#755,0.25);
#58=CYLINDRICAL_SURFACE('',#760,0.25);
#59=CYLINDRICAL_SURFACE('',#765,0.25);
#60=CYLINDRICAL_SURFACE('',#770,0.25);
#61=STYLED_ITEM('',(#1195),#78);
#62=STYLED_ITEM('',(#1195),#79);
#63=STYLED_ITEM('',(#1195),#80);
#64=STYLED_ITEM('',(#1195),#81);
#65=STYLED_ITEM('',(#1195),#82);
#66=STYLED_ITEM('',(#1195),#83);
#67=STYLED_ITEM('',(#1195),#84);
#68=STYLED_ITEM('',(#1195),#85);
#69=STYLED_ITEM('',(#1195),#86);
#70=STYLED_ITEM('',(#1195),#87);
#71=STYLED_ITEM('',(#1195),#88);
#72=STYLED_ITEM('',(#1195),#89);
#73=STYLED_ITEM('',(#1195),#90);
#74=STYLED_ITEM('',(#1195),#91);
#75=STYLED_ITEM('',(#1195),#92);
#76=STYLED_ITEM('',(#1195),#93);
#77=STYLED_ITEM('',(#1195),#94);
#78=MANIFOLD_SOLID_BREP('Body1',#655);
#79=MANIFOLD_SOLID_BREP('Body2',#656);
#80=MANIFOLD_SOLID_BREP('Body3',#657);
#81=MANIFOLD_SOLID_BREP('Body4',#658);
#82=MANIFOLD_SOLID_BREP('Body5',#659);
#83=MANIFOLD_SOLID_BREP('Body6',#660);
#84=MANIFOLD_SOLID_BREP('Body7',#661);
#85=MANIFOLD_SOLID_BREP('Body8',#662);
#86=MANIFOLD_SOLID_BREP('Body9',#663);
#87=MANIFOLD_SOLID_BREP('Body10',#664);
#88=MANIFOLD_SOLID_BREP('Body11',#665);
#89=MANIFOLD_SOLID_BREP('Body12',#666);
#90=MANIFOLD_SOLID_BREP('Body13',#667);
#91=MANIFOLD_SOLID_BREP('Body14',#668);
#92=MANIFOLD_SOLID_BREP('Body15',#669);
#93=MANIFOLD_SOLID_BREP('Body16',#670);
#94=MANIFOLD_SOLID_BREP('Body17',#671);
#95=FACE_OUTER_BOUND('',#153,.T.);
#96=FACE_OUTER_BOUND('',#154,.T.);
#97=FACE_OUTER_BOUND('',#155,.T.);
#98=FACE_OUTER_BOUND('',#156,.T.);
#99=FACE_OUTER_BOUND('',#157,.T.);
#100=FACE_OUTER_BOUND('',#158,.T.);
#101=FACE_OUTER_BOUND('',#159,.T.);
#102=FACE_OUTER_BOUND('',#160,.T.);
#103=FACE_OUTER_BOUND('',#161,.T.);
#104=FACE_OUTER_BOUND('',#162,.T.);
#105=FACE_OUTER_BOUND('',#163,.T.);
#106=FACE_OUTER_BOUND('',#164,.T.);
#107=FACE_OUTER_BOUND('',#165,.T.);
#108=FACE_OUTER_BOUND('',#166,.T.);
#109=FACE_OUTER_BOUND('',#167,.T.);
#110=FACE_OUTER_BOUND('',#168,.T.);
#111=FACE_OUTER_BOUND('',#169,.T.);
#112=FACE_OUTER_BOUND('',#170,.T.);
#113=FACE_OUTER_BOUND('',#171,.T.);
#114=FACE_OUTER_BOUND('',#172,.T.);
#115=FACE_OUTER_BOUND('',#173,.T.);
#116=FACE_OUTER_BOUND('',#174,.T.);
#117=FACE_OUTER_BOUND('',#175,.T.);
#118=FACE_OUTER_BOUND('',#176,.T.);
#119=FACE_OUTER_BOUND('',#177,.T.);
#120=FACE_OUTER_BOUND('',#178,.T.);
#121=FACE_OUTER_BOUND('',#179,.T.);
#122=FACE_OUTER_BOUND('',#180,.T.);
#123=FACE_OUTER_BOUND('',#181,.T.);
#124=FACE_OUTER_BOUND('',#182,.T.);
#125=FACE_OUTER_BOUND('',#183,.T.);
#126=FACE_OUTER_BOUND('',#184,.T.);
#127=FACE_OUTER_BOUND('',#185,.T.);
#128=FACE_OUTER_BOUND('',#186,.T.);
#129=FACE_OUTER_BOUND('',#187,.T.);
#130=FACE_OUTER_BOUND('',#188,.T.);
#131=FACE_OUTER_BOUND('',#189,.T.);
#132=FACE_OUTER_BOUND('',#190,.T.);
#133=FACE_OUTER_BOUND('',#191,.T.);
#134=FACE_OUTER_BOUND('',#192,.T.);
#135=FACE_OUTER_BOUND('',#193,.T.);
#136=FACE_OUTER_BOUND('',#194,.T.);
#137=FACE_OUTER_BOUND('',#195,.T.);
#138=FACE_OUTER_BOUND('',#196,.T.);
#139=FACE_OUTER_BOUND('',#197,.T.);
#140=FACE_OUTER_BOUND('',#198,.T.);
#141=FACE_OUTER_BOUND('',#199,.T.);
#142=FACE_OUTER_BOUND('',#200,.T.);
#143=FACE_OUTER_BOUND('',#201,.T.);
#144=FACE_OUTER_BOUND('',#202,.T.);
#145=FACE_OUTER_BOUND('',#203,.T.);
#146=FACE_OUTER_BOUND('',#204,.T.);
#147=FACE_OUTER_BOUND('',#205,.T.);
#148=FACE_OUTER_BOUND('',#206,.T.);
#149=FACE_OUTER_BOUND('',#207,.T.);
#150=FACE_OUTER_BOUND('',#208,.T.);
#151=FACE_OUTER_BOUND('',#209,.T.);
#152=FACE_OUTER_BOUND('',#210,.T.);
#153=EDGE_LOOP('',(#411,#412,#413,#414));
#154=EDGE_LOOP('',(#415,#416,#417,#418));
#155=EDGE_LOOP('',(#419,#420,#421,#422));
#156=EDGE_LOOP('',(#423,#424,#425,#426));
#157=EDGE_LOOP('',(#427,#428,#429,#430));
#158=EDGE_LOOP('',(#431,#432,#433,#434,#435,#436,#437,#438));
#159=EDGE_LOOP('',(#439,#440,#441,#442,#443,#444,#445,#446));
#160=EDGE_LOOP('',(#447,#448,#449,#450));
#161=EDGE_LOOP('',(#451,#452,#453,#454));
#162=EDGE_LOOP('',(#455,#456,#457,#458));
#163=EDGE_LOOP('',(#459,#460,#461,#462));
#164=EDGE_LOOP('',(#463));
#165=EDGE_LOOP('',(#464));
#166=EDGE_LOOP('',(#465,#466,#467,#468));
#167=EDGE_LOOP('',(#469));
#168=EDGE_LOOP('',(#470));
#169=EDGE_LOOP('',(#471,#472,#473,#474));
#170=EDGE_LOOP('',(#475));
#171=EDGE_LOOP('',(#476));
#172=EDGE_LOOP('',(#477,#478,#479,#480));
#173=EDGE_LOOP('',(#481));
#174=EDGE_LOOP('',(#482));
#175=EDGE_LOOP('',(#483,#484,#485,#486));
#176=EDGE_LOOP('',(#487));
#177=EDGE_LOOP('',(#488));
#178=EDGE_LOOP('',(#489,#490,#491,#492));
#179=EDGE_LOOP('',(#493));
#180=EDGE_LOOP('',(#494));
#181=EDGE_LOOP('',(#495,#496,#497,#498));
#182=EDGE_LOOP('',(#499));
#183=EDGE_LOOP('',(#500));
#184=EDGE_LOOP('',(#501,#502,#503,#504));
#185=EDGE_LOOP('',(#505));
#186=EDGE_LOOP('',(#506));
#187=EDGE_LOOP('',(#507,#508,#509,#510));
#188=EDGE_LOOP('',(#511));
#189=EDGE_LOOP('',(#512));
#190=EDGE_LOOP('',(#513,#514,#515,#516));
#191=EDGE_LOOP('',(#517));
#192=EDGE_LOOP('',(#518));
#193=EDGE_LOOP('',(#519,#520,#521,#522));
#194=EDGE_LOOP('',(#523));
#195=EDGE_LOOP('',(#524));
#196=EDGE_LOOP('',(#525,#526,#527,#528));
#197=EDGE_LOOP('',(#529));
#198=EDGE_LOOP('',(#530));
#199=EDGE_LOOP('',(#531,#532,#533,#534));
#200=EDGE_LOOP('',(#535));
#201=EDGE_LOOP('',(#536));
#202=EDGE_LOOP('',(#537,#538,#539,#540));
#203=EDGE_LOOP('',(#541));
#204=EDGE_LOOP('',(#542));
#205=EDGE_LOOP('',(#543,#544,#545,#546));
#206=EDGE_LOOP('',(#547));
#207=EDGE_LOOP('',(#548));
#208=EDGE_LOOP('',(#549,#550,#551,#552));
#209=EDGE_LOOP('',(#553));
#210=EDGE_LOOP('',(#554));
#211=LINE('',#1001,#251);
#212=LINE('',#1003,#252);
#213=LINE('',#1005,#253);
#214=LINE('',#1006,#254);
#215=LINE('',#1009,#255);
#216=LINE('',#1011,#256);
#217=LINE('',#1012,#257);
#218=LINE('',#1015,#258);
#219=LINE('',#1017,#259);
#220=LINE('',#1018,#260);
#221=LINE('',#1021,#261);
#222=LINE('',#1023,#262);
#223=LINE('',#1024,#263);
#224=LINE('',#1027,#264);
#225=LINE('',#1029,#265);
#226=LINE('',#1030,#266);
#227=LINE('',#1033,#267);
#228=LINE('',#1035,#268);
#229=LINE('',#1036,#269);
#230=LINE('',#1039,#270);
#231=LINE('',#1041,#271);
#232=LINE('',#1042,#272);
#233=LINE('',#1044,#273);
#234=LINE('',#1046,#274);
#235=LINE('',#1052,#275);
#236=LINE('',#1060,#276);
#237=LINE('',#1068,#277);
#238=LINE('',#1076,#278);
#239=LINE('',#1084,#279);
#240=LINE('',#1092,#280);
#241=LINE('',#1100,#281);
#242=LINE('',#1108,#282);
#243=LINE('',#1116,#283);
#244=LINE('',#1124,#284);
#245=LINE('',#1132,#285);
#246=LINE('',#1140,#286);
#247=LINE('',#1148,#287);
#248=LINE('',#1156,#288);
#249=LINE('',#1164,#289);
#250=LINE('',#1172,#290);
#251=VECTOR('',#779,10.);
#252=VECTOR('',#780,10.);
#253=VECTOR('',#781,10.);
#254=VECTOR('',#782,10.);
#255=VECTOR('',#785,10.);
#256=VECTOR('',#786,10.);
#257=VECTOR('',#787,10.);
#258=VECTOR('',#790,10.);
#259=VECTOR('',#791,10.);
#260=VECTOR('',#792,10.);
#261=VECTOR('',#795,10.);
#262=VECTOR('',#796,10.);
#263=VECTOR('',#797,10.);
#264=VECTOR('',#800,10.);
#265=VECTOR('',#801,10.);
#266=VECTOR('',#802,10.);
#267=VECTOR('',#805,10.);
#268=VECTOR('',#806,10.);
#269=VECTOR('',#807,10.);
#270=VECTOR('',#810,10.);
#271=VECTOR('',#811,10.);
#272=VECTOR('',#812,10.);
#273=VECTOR('',#815,10.);
#274=VECTOR('',#818,10.);
#275=VECTOR('',#825,0.25);
#276=VECTOR('',#836,0.25);
#277=VECTOR('',#847,0.25);
#278=VECTOR('',#858,0.25);
#279=VECTOR('',#869,0.25);
#280=VECTOR('',#880,0.25);
#281=VECTOR('',#891,0.25);
#282=VECTOR('',#902,0.25);
#283=VECTOR('',#913,0.25);
#284=VECTOR('',#924,0.25);
#285=VECTOR('',#935,0.25);
#286=VECTOR('',#946,0.25);
#287=VECTOR('',#957,0.25);
#288=VECTOR('',#968,0.25);
#289=VECTOR('',#979,0.25);
#290=VECTOR('',#990,0.25);
#291=VERTEX_POINT('',#999);
#292=VERTEX_POINT('',#1000);
#293=VERTEX_POINT('',#1002);
#294=VERTEX_POINT('',#1004);
#295=VERTEX_POINT('',#1008);
#296=VERTEX_POINT('',#1010);
#297=VERTEX_POINT('',#1014);
#298=VERTEX_POINT('',#1016);
#299=VERTEX_POINT('',#1020);
#300=VERTEX_POINT('',#1022);
#301=VERTEX_POINT('',#1026);
#302=VERTEX_POINT('',#1028);
#303=VERTEX_POINT('',#1032);
#304=VERTEX_POINT('',#1034);
#305=VERTEX_POINT('',#1038);
#306=VERTEX_POINT('',#1040);
#307=VERTEX_POINT('',#1049);
#308=VERTEX_POINT('',#1051);
#309=VERTEX_POINT('',#1057);
#310=VERTEX_POINT('',#1059);
#311=VERTEX_POINT('',#1065);
#312=VERTEX_POINT('',#1067);
#313=VERTEX_POINT('',#1073);
#314=VERTEX_POINT('',#1075);
#315=VERTEX_POINT('',#1081);
#316=VERTEX_POINT('',#1083);
#317=VERTEX_POINT('',#1089);
#318=VERTEX_POINT('',#1091);
#319=VERTEX_POINT('',#1097);
#320=VERTEX_POINT('',#1099);
#321=VERTEX_POINT('',#1105);
#322=VERTEX_POINT('',#1107);
#323=VERTEX_POINT('',#1113);
#324=VERTEX_POINT('',#1115);
#325=VERTEX_POINT('',#1121);
#326=VERTEX_POINT('',#1123);
#327=VERTEX_POINT('',#1129);
#328=VERTEX_POINT('',#1131);
#329=VERTEX_POINT('',#1137);
#330=VERTEX_POINT('',#1139);
#331=VERTEX_POINT('',#1145);
#332=VERTEX_POINT('',#1147);
#333=VERTEX_POINT('',#1153);
#334=VERTEX_POINT('',#1155);
#335=VERTEX_POINT('',#1161);
#336=VERTEX_POINT('',#1163);
#337=VERTEX_POINT('',#1169);
#338=VERTEX_POINT('',#1171);
#339=EDGE_CURVE('',#291,#292,#211,.T.);
#340=EDGE_CURVE('',#291,#293,#212,.T.);
#341=EDGE_CURVE('',#294,#293,#213,.T.);
#342=EDGE_CURVE('',#292,#294,#214,.T.);
#343=EDGE_CURVE('',#295,#291,#215,.T.);
#344=EDGE_CURVE('',#295,#296,#216,.T.);
#345=EDGE_CURVE('',#293,#296,#217,.T.);
#346=EDGE_CURVE('',#297,#295,#218,.T.);
#347=EDGE_CURVE('',#298,#297,#219,.T.);
#348=EDGE_CURVE('',#296,#298,#220,.T.);
#349=EDGE_CURVE('',#299,#294,#221,.T.);
#350=EDGE_CURVE('',#300,#299,#222,.T.);
#351=EDGE_CURVE('',#292,#300,#223,.T.);
#352=EDGE_CURVE('',#301,#297,#224,.T.);
#353=EDGE_CURVE('',#302,#301,#225,.T.);
#354=EDGE_CURVE('',#298,#302,#226,.T.);
#355=EDGE_CURVE('',#300,#303,#227,.T.);
#356=EDGE_CURVE('',#304,#303,#228,.T.);
#357=EDGE_CURVE('',#301,#304,#229,.T.);
#358=EDGE_CURVE('',#302,#305,#230,.T.);
#359=EDGE_CURVE('',#306,#305,#231,.T.);
#360=EDGE_CURVE('',#299,#306,#232,.T.);
#361=EDGE_CURVE('',#303,#306,#233,.T.);
#362=EDGE_CURVE('',#305,#304,#234,.T.);
#363=EDGE_CURVE('',#307,#307,#13,.T.);
#364=EDGE_CURVE('',#307,#308,#235,.T.);
#365=EDGE_CURVE('',#308,#308,#14,.T.);
#366=EDGE_CURVE('',#309,#309,#15,.T.);
#367=EDGE_CURVE('',#309,#310,#236,.T.);
#368=EDGE_CURVE('',#310,#310,#16,.T.);
#369=EDGE_CURVE('',#311,#311,#17,.T.);
#370=EDGE_CURVE('',#311,#312,#237,.T.);
#371=EDGE_CURVE('',#312,#312,#18,.T.);
#372=EDGE_CURVE('',#313,#313,#19,.T.);
#373=EDGE_CURVE('',#313,#314,#238,.T.);
#374=EDGE_CURVE('',#314,#314,#20,.T.);
#375=EDGE_CURVE('',#315,#315,#21,.T.);
#376=EDGE_CURVE('',#315,#316,#239,.T.);
#377=EDGE_CURVE('',#316,#316,#22,.T.);
#378=EDGE_CURVE('',#317,#317,#23,.T.);
#379=EDGE_CURVE('',#317,#318,#240,.T.);
#380=EDGE_CURVE('',#318,#318,#24,.T.);
#381=EDGE_CURVE('',#319,#319,#25,.T.);
#382=EDGE_CURVE('',#319,#320,#241,.T.);
#383=EDGE_CURVE('',#320,#320,#26,.T.);
#384=EDGE_CURVE('',#321,#321,#27,.T.);
#385=EDGE_CURVE('',#321,#322,#242,.T.);
#386=EDGE_CURVE('',#322,#322,#28,.T.);
#387=EDGE_CURVE('',#323,#323,#29,.T.);
#388=EDGE_CURVE('',#323,#324,#243,.T.);
#389=EDGE_CURVE('',#324,#324,#30,.T.);
#390=EDGE_CURVE('',#325,#325,#31,.T.);
#391=EDGE_CURVE('',#325,#326,#244,.T.);
#392=EDGE_CURVE('',#326,#326,#32,.T.);
#393=EDGE_CURVE('',#327,#327,#33,.T.);
#394=EDGE_CURVE('',#327,#328,#245,.T.);
#395=EDGE_CURVE('',#328,#328,#34,.T.);
#396=EDGE_CURVE('',#329,#329,#35,.T.);
#397=EDGE_CURVE('',#329,#330,#246,.T.);
#398=EDGE_CURVE('',#330,#330,#36,.T.);
#399=EDGE_CURVE('',#331,#331,#37,.T.);
#400=EDGE_CURVE('',#331,#332,#247,.T.);
#401=EDGE_CURVE('',#332,#332,#38,.T.);
#402=EDGE_CURVE('',#333,#333,#39,.T.);
#403=EDGE_CURVE('',#333,#334,#248,.T.);
#404=EDGE_CURVE('',#334,#334,#40,.T.);
#405=EDGE_CURVE('',#335,#335,#41,.T.);
#406=EDGE_CURVE('',#335,#336,#249,.T.);
#407=EDGE_CURVE('',#336,#336,#42,.T.);
#408=EDGE_CURVE('',#337,#337,#43,.T.);
#409=EDGE_CURVE('',#337,#338,#250,.T.);
#410=EDGE_CURVE('',#338,#338,#44,.T.);
#411=ORIENTED_EDGE('',*,*,#339,.F.);
#412=ORIENTED_EDGE('',*,*,#340,.T.);
#413=ORIENTED_EDGE('',*,*,#341,.F.);
#414=ORIENTED_EDGE('',*,*,#342,.F.);
#415=ORIENTED_EDGE('',*,*,#343,.F.);
#416=ORIENTED_EDGE('',*,*,#344,.T.);
#417=ORIENTED_EDGE('',*,*,#345,.F.);
#418=ORIENTED_EDGE('',*,*,#340,.F.);
#419=ORIENTED_EDGE('',*,*,#346,.F.);
#420=ORIENTED_EDGE('',*,*,#347,.F.);
#421=ORIENTED_EDGE('',*,*,#348,.F.);
#422=ORIENTED_EDGE('',*,*,#344,.F.);
#423=ORIENTED_EDGE('',*,*,#342,.T.);
#424=ORIENTED_EDGE('',*,*,#349,.F.);
#425=ORIENTED_EDGE('',*,*,#350,.F.);
#426=ORIENTED_EDGE('',*,*,#351,.F.);
#427=ORIENTED_EDGE('',*,*,#347,.T.);
#428=ORIENTED_EDGE('',*,*,#352,.F.);
#429=ORIENTED_EDGE('',*,*,#353,.F.);
#430=ORIENTED_EDGE('',*,*,#354,.F.);
#431=ORIENTED_EDGE('',*,*,#346,.T.);
#432=ORIENTED_EDGE('',*,*,#343,.T.);
#433=ORIENTED_EDGE('',*,*,#339,.T.);
#434=ORIENTED_EDGE('',*,*,#351,.T.);
#435=ORIENTED_EDGE('',*,*,#355,.T.);
#436=ORIENTED_EDGE('',*,*,#356,.F.);
#437=ORIENTED_EDGE('',*,*,#357,.F.);
#438=ORIENTED_EDGE('',*,*,#352,.T.);
#439=ORIENTED_EDGE('',*,*,#348,.T.);
#440=ORIENTED_EDGE('',*,*,#354,.T.);
#441=ORIENTED_EDGE('',*,*,#358,.T.);
#442=ORIENTED_EDGE('',*,*,#359,.F.);
#443=ORIENTED_EDGE('',*,*,#360,.F.);
#444=ORIENTED_EDGE('',*,*,#349,.T.);
#445=ORIENTED_EDGE('',*,*,#341,.T.);
#446=ORIENTED_EDGE('',*,*,#345,.T.);
#447=ORIENTED_EDGE('',*,*,#350,.T.);
#448=ORIENTED_EDGE('',*,*,#360,.T.);
#449=ORIENTED_EDGE('',*,*,#361,.F.);
#450=ORIENTED_EDGE('',*,*,#355,.F.);
#451=ORIENTED_EDGE('',*,*,#353,.T.);
#452=ORIENTED_EDGE('',*,*,#357,.T.);
#453=ORIENTED_EDGE('',*,*,#362,.F.);
#454=ORIENTED_EDGE('',*,*,#358,.F.);
#455=ORIENTED_EDGE('',*,*,#362,.T.);
#456=ORIENTED_EDGE('',*,*,#356,.T.);
#457=ORIENTED_EDGE('',*,*,#361,.T.);
#458=ORIENTED_EDGE('',*,*,#359,.T.);
#459=ORIENTED_EDGE('',*,*,#363,.F.);
#460=ORIENTED_EDGE('',*,*,#364,.T.);
#461=ORIENTED_EDGE('',*,*,#365,.T.);
#462=ORIENTED_EDGE('',*,*,#364,.F.);
#463=ORIENTED_EDGE('',*,*,#363,.T.);
#464=ORIENTED_EDGE('',*,*,#365,.F.);
#465=ORIENTED_EDGE('',*,*,#366,.F.);
#466=ORIENTED_EDGE('',*,*,#367,.T.);
#467=ORIENTED_EDGE('',*,*,#368,.T.);
#468=ORIENTED_EDGE('',*,*,#367,.F.);
#469=ORIENTED_EDGE('',*,*,#366,.T.);
#470=ORIENTED_EDGE('',*,*,#368,.F.);
#471=ORIENTED_EDGE('',*,*,#369,.F.);
#472=ORIENTED_EDGE('',*,*,#370,.T.);
#473=ORIENTED_EDGE('',*,*,#371,.T.);
#474=ORIENTED_EDGE('',*,*,#370,.F.);
#475=ORIENTED_EDGE('',*,*,#369,.T.);
#476=ORIENTED_EDGE('',*,*,#371,.F.);
#477=ORIENTED_EDGE('',*,*,#372,.F.);
#478=ORIENTED_EDGE('',*,*,#373,.T.);
#479=ORIENTED_EDGE('',*,*,#374,.T.);
#480=ORIENTED_EDGE('',*,*,#373,.F.);
#481=ORIENTED_EDGE('',*,*,#372,.T.);
#482=ORIENTED_EDGE('',*,*,#374,.F.);
#483=ORIENTED_EDGE('',*,*,#375,.F.);
#484=ORIENTED_EDGE('',*,*,#376,.T.);
#485=ORIENTED_EDGE('',*,*,#377,.T.);
#486=ORIENTED_EDGE('',*,*,#376,.F.);
#487=ORIENTED_EDGE('',*,*,#375,.T.);
#488=ORIENTED_EDGE('',*,*,#377,.F.);
#489=ORIENTED_EDGE('',*,*,#378,.F.);
#490=ORIENTED_EDGE('',*,*,#379,.T.);
#491=ORIENTED_EDGE('',*,*,#380,.T.);
#492=ORIENTED_EDGE('',*,*,#379,.F.);
#493=ORIENTED_EDGE('',*,*,#378,.T.);
#494=ORIENTED_EDGE('',*,*,#380,.F.);
#495=ORIENTED_EDGE('',*,*,#381,.F.);
#496=ORIENTED_EDGE('',*,*,#382,.T.);
#497=ORIENTED_EDGE('',*,*,#383,.T.);
#498=ORIENTED_EDGE('',*,*,#382,.F.);
#499=ORIENTED_EDGE('',*,*,#381,.T.);
#500=ORIENTED_EDGE('',*,*,#383,.F.);
#501=ORIENTED_EDGE('',*,*,#384,.F.);
#502=ORIENTED_EDGE('',*,*,#385,.T.);
#503=ORIENTED_EDGE('',*,*,#386,.T.);
#504=ORIENTED_EDGE('',*,*,#385,.F.);
#505=ORIENTED_EDGE('',*,*,#384,.T.);
#506=ORIENTED_EDGE('',*,*,#386,.F.);
#507=ORIENTED_EDGE('',*,*,#387,.F.);
#508=ORIENTED_EDGE('',*,*,#388,.T.);
#509=ORIENTED_EDGE('',*,*,#389,.T.);
#510=ORIENTED_EDGE('',*,*,#388,.F.);
#511=ORIENTED_EDGE('',*,*,#387,.T.);
#512=ORIENTED_EDGE('',*,*,#389,.F.);
#513=ORIENTED_EDGE('',*,*,#390,.F.);
#514=ORIENTED_EDGE('',*,*,#391,.T.);
#515=ORIENTED_EDGE('',*,*,#392,.T.);
#516=ORIENTED_EDGE('',*,*,#391,.F.);
#517=ORIENTED_EDGE('',*,*,#390,.T.);
#518=ORIENTED_EDGE('',*,*,#392,.F.);
#519=ORIENTED_EDGE('',*,*,#393,.F.);
#520=ORIENTED_EDGE('',*,*,#394,.T.);
#521=ORIENTED_EDGE('',*,*,#395,.T.);
#522=ORIENTED_EDGE('',*,*,#394,.F.);
#523=ORIENTED_EDGE('',*,*,#393,.T.);
#524=ORIENTED_EDGE('',*,*,#395,.F.);
#525=ORIENTED_EDGE('',*,*,#396,.F.);
#526=ORIENTED_EDGE('',*,*,#397,.T.);
#527=ORIENTED_EDGE('',*,*,#398,.T.);
#528=ORIENTED_EDGE('',*,*,#397,.F.);
#529=ORIENTED_EDGE('',*,*,#396,.T.);
#530=ORIENTED_EDGE('',*,*,#398,.F.);
#531=ORIENTED_EDGE('',*,*,#399,.F.);
#532=ORIENTED_EDGE('',*,*,#400,.T.);
#533=ORIENTED_EDGE('',*,*,#401,.T.);
#534=ORIENTED_EDGE('',*,*,#400,.F.);
#535=ORIENTED_EDGE('',*,*,#399,.T.);
#536=ORIENTED_EDGE('',*,*,#401,.F.);
#537=ORIENTED_EDGE('',*,*,#402,.F.);
#538=ORIENTED_EDGE('',*,*,#403,.T.);
#539=ORIENTED_EDGE('',*,*,#404,.T.);
#540=ORIENTED_EDGE('',*,*,#403,.F.);
#541=ORIENTED_EDGE('',*,*,#402,.T.);
#542=ORIENTED_EDGE('',*,*,#404,.F.);
#543=ORIENTED_EDGE('',*,*,#405,.F.);
#544=ORIENTED_EDGE('',*,*,#406,.T.);
#545=ORIENTED_EDGE('',*,*,#407,.T.);
#546=ORIENTED_EDGE('',*,*,#406,.F.);
#547=ORIENTED_EDGE('',*,*,#405,.T.);
#548=ORIENTED_EDGE('',*,*,#407,.F.);
#549=ORIENTED_EDGE('',*,*,#408,.F.);
#550=ORIENTED_EDGE('',*,*,#409,.T.);
#551=ORIENTED_EDGE('',*,*,#410,.T.);
#552=ORIENTED_EDGE('',*,*,#409,.F.);
#553=ORIENTED_EDGE('',*,*,#408,.T.);
#554=ORIENTED_EDGE('',*,*,#410,.F.);
#555=PLANE('',#685);
#556=PLANE('',#686);
#557=PLANE('',#687);
#558=PLANE('',#688);
#559=PLANE('',#689);
#560=PLANE('',#690);
#561=PLANE('',#691);
#562=PLANE('',#692);
#563=PLANE('',#693);
#564=PLANE('',#694);
#565=PLANE('',#698);
#566=PLANE('',#699);
#567=PLANE('',#703);
#568=PLANE('',#704);
#569=PLANE('',#708);
#570=PLANE('',#709);
#571=PLANE('',#713);
#572=PLANE('',#714);
#573=PLANE('',#718);
#574=PLANE('',#719);
#575=PLANE('',#723);
#576=PLANE('',#724);
#577=PLANE('',#728);
#578=PLANE('',#729);
#579=PLANE('',#733);
#580=PLANE('',#734);
#581=PLANE('',#738);
#582=PLANE('',#739);
#583=PLANE('',#743);
#584=PLANE('',#744);
#585=PLANE('',#748);
#586=PLANE('',#749);
#587=PLANE('',#753);
#588=PLANE('',#754);
#589=PLANE('',#758);
#590=PLANE('',#759);
#591=PLANE('',#763);
#592=PLANE('',#764);
#593=PLANE('',#768);
#594=PLANE('',#769);
#595=PLANE('',#773);
#596=PLANE('',#774);
#597=ADVANCED_FACE('',(#95),#555,.F.);
#598=ADVANCED_FACE('',(#96),#556,.F.);
#599=ADVANCED_FACE('',(#97),#557,.F.);
#600=ADVANCED_FACE('',(#98),#558,.F.);
#601=ADVANCED_FACE('',(#99),#559,.F.);
#602=ADVANCED_FACE('',(#100),#560,.T.);
#603=ADVANCED_FACE('',(#101),#561,.T.);
#604=ADVANCED_FACE('',(#102),#562,.T.);
#605=ADVANCED_FACE('',(#103),#563,.T.);
#606=ADVANCED_FACE('',(#104),#564,.T.);
#607=ADVANCED_FACE('',(#105),#45,.T.);
#608=ADVANCED_FACE('',(#106),#565,.T.);
#609=ADVANCED_FACE('',(#107),#566,.F.);
#610=ADVANCED_FACE('',(#108),#46,.T.);
#611=ADVANCED_FACE('',(#109),#567,.T.);
#612=ADVANCED_FACE('',(#110),#568,.F.);
#613=ADVANCED_FACE('',(#111),#47,.T.);
#614=ADVANCED_FACE('',(#112),#569,.T.);
#615=ADVANCED_FACE('',(#113),#570,.F.);
#616=ADVANCED_FACE('',(#114),#48,.T.);
#617=ADVANCED_FACE('',(#115),#571,.T.);
#618=ADVANCED_FACE('',(#116),#572,.F.);
#619=ADVANCED_FACE('',(#117),#49,.T.);
#620=ADVANCED_FACE('',(#118),#573,.T.);
#621=ADVANCED_FACE('',(#119),#574,.F.);
#622=ADVANCED_FACE('',(#120),#50,.T.);
#623=ADVANCED_FACE('',(#121),#575,.T.);
#624=ADVANCED_FACE('',(#122),#576,.F.);
#625=ADVANCED_FACE('',(#123),#51,.T.);
#626=ADVANCED_FACE('',(#124),#577,.T.);
#627=ADVANCED_FACE('',(#125),#578,.F.);
#628=ADVANCED_FACE('',(#126),#52,.T.);
#629=ADVANCED_FACE('',(#127),#579,.T.);
#630=ADVANCED_FACE('',(#128),#580,.F.);
#631=ADVANCED_FACE('',(#129),#53,.T.);
#632=ADVANCED_FACE('',(#130),#581,.T.);
#633=ADVANCED_FACE('',(#131),#582,.F.);
#634=ADVANCED_FACE('',(#132),#54,.T.);
#635=ADVANCED_FACE('',(#133),#583,.T.);
#636=ADVANCED_FACE('',(#134),#584,.F.);
#637=ADVANCED_FACE('',(#135),#55,.T.);
#638=ADVANCED_FACE('',(#136),#585,.T.);
#639=ADVANCED_FACE('',(#137),#586,.F.);
#640=ADVANCED_FACE('',(#138),#56,.T.);
#641=ADVANCED_FACE('',(#139),#587,.T.);
#642=ADVANCED_FACE('',(#140),#588,.F.);
#643=ADVANCED_FACE('',(#141),#57,.T.);
#644=ADVANCED_FACE('',(#142),#589,.T.);
#645=ADVANCED_FACE('',(#143),#590,.F.);
#646=ADVANCED_FACE('',(#144),#58,.T.);
#647=ADVANCED_FACE('',(#145),#591,.T.);
#648=ADVANCED_FACE('',(#146),#592,.F.);
#649=ADVANCED_FACE('',(#147),#59,.T.);
#650=ADVANCED_FACE('',(#148),#593,.T.);
#651=ADVANCED_FACE('',(#149),#594,.F.);
#652=ADVANCED_FACE('',(#150),#60,.T.);
#653=ADVANCED_FACE('',(#151),#595,.T.);
#654=ADVANCED_FACE('',(#152),#596,.F.);
#655=CLOSED_SHELL('',(#597,#598,#599,#600,#601,#602,#603,#604,#605,#606));
#656=CLOSED_SHELL('',(#607,#608,#609));
#657=CLOSED_SHELL('',(#610,#611,#612));
#658=CLOSED_SHELL('',(#613,#614,#615));
#659=CLOSED_SHELL('',(#616,#617,#618));
#660=CLOSED_SHELL('',(#619,#620,#621));
#661=CLOSED_SHELL('',(#622,#623,#624));
#662=CLOSED_SHELL('',(#625,#626,#627));
#663=CLOSED_SHELL('',(#628,#629,#630));
#664=CLOSED_SHELL('',(#631,#632,#633));
#665=CLOSED_SHELL('',(#634,#635,#636));
#666=CLOSED_SHELL('',(#637,#638,#639));
#667=CLOSED_SHELL('',(#640,#641,#642));
#668=CLOSED_SHELL('',(#643,#644,#645));
#669=CLOSED_SHELL('',(#646,#647,#648));
#670=CLOSED_SHELL('',(#649,#650,#651));
#671=CLOSED_SHELL('',(#652,#653,#654));
#672=DERIVED_UNIT_ELEMENT(#674,1.);
#673=DERIVED_UNIT_ELEMENT(#1181,-3.);
#674=(
MASS_UNIT()
NAMED_UNIT(*)
SI_UNIT(.KILO.,.GRAM.)
);
#675=DERIVED_UNIT((#672,#673));
#676=MEASURE_REPRESENTATION_ITEM('density measure',
POSITIVE_RATIO_MEASURE(7850.),#675);
#677=PROPERTY_DEFINITION_REPRESENTATION(#682,#679);
#678=PROPERTY_DEFINITION_REPRESENTATION(#683,#680);
#679=REPRESENTATION('material name',(#681),#1178);
#680=REPRESENTATION('density',(#676),#1178);
#681=DESCRIPTIVE_REPRESENTATION_ITEM('Steel','Steel');
#682=PROPERTY_DEFINITION('material property','material name',#1188);
#683=PROPERTY_DEFINITION('material property','density of part',#1188);
#684=AXIS2_PLACEMENT_3D('',#997,#775,#776);
#685=AXIS2_PLACEMENT_3D('',#998,#777,#778);
#686=AXIS2_PLACEMENT_3D('',#1007,#783,#784);
#687=AXIS2_PLACEMENT_3D('',#1013,#788,#789);
#688=AXIS2_PLACEMENT_3D('',#1019,#793,#794);
#689=AXIS2_PLACEMENT_3D('',#1025,#798,#799);
#690=AXIS2_PLACEMENT_3D('',#1031,#803,#804);
#691=AXIS2_PLACEMENT_3D('',#1037,#808,#809);
#692=AXIS2_PLACEMENT_3D('',#1043,#813,#814);
#693=AXIS2_PLACEMENT_3D('',#1045,#816,#817);
#694=AXIS2_PLACEMENT_3D('',#1047,#819,#820);
#695=AXIS2_PLACEMENT_3D('',#1048,#821,#822);
#696=AXIS2_PLACEMENT_3D('',#1050,#823,#824);
#697=AXIS2_PLACEMENT_3D('',#1053,#826,#827);
#698=AXIS2_PLACEMENT_3D('',#1054,#828,#829);
#699=AXIS2_PLACEMENT_3D('',#1055,#830,#831);
#700=AXIS2_PLACEMENT_3D('',#1056,#832,#833);
#701=AXIS2_PLACEMENT_3D('',#1058,#834,#835);
#702=AXIS2_PLACEMENT_3D('',#1061,#837,#838);
#703=AXIS2_PLACEMENT_3D('',#1062,#839,#840);
#704=AXIS2_PLACEMENT_3D('',#1063,#841,#842);
#705=AXIS2_PLACEMENT_3D('',#1064,#843,#844);
#706=AXIS2_PLACEMENT_3D('',#1066,#845,#846);
#707=AXIS2_PLACEMENT_3D('',#1069,#848,#849);
#708=AXIS2_PLACEMENT_3D('',#1070,#850,#851);
#709=AXIS2_PLACEMENT_3D('',#1071,#852,#853);
#710=AXIS2_PLACEMENT_3D('',#1072,#854,#855);
#711=AXIS2_PLACEMENT_3D('',#1074,#856,#857);
#712=AXIS2_PLACEMENT_3D('',#1077,#859,#860);
#713=AXIS2_PLACEMENT_3D('',#1078,#861,#862);
#714=AXIS2_PLACEMENT_3D('',#1079,#863,#864);
#715=AXIS2_PLACEMENT_3D('',#1080,#865,#866);
#716=AXIS2_PLACEMENT_3D('',#1082,#867,#868);
#717=AXIS2_PLACEMENT_3D('',#1085,#870,#871);
#718=AXIS2_PLACEMENT_3D('',#1086,#872,#873);
#719=AXIS2_PLACEMENT_3D('',#1087,#874,#875);
#720=AXIS2_PLACEMENT_3D('',#1088,#876,#877);
#721=AXIS2_PLACEMENT_3D('',#1090,#878,#879);
#722=AXIS2_PLACEMENT_3D('',#1093,#881,#882);
#723=AXIS2_PLACEMENT_3D('',#1094,#883,#884);
#724=AXIS2_PLACEMENT_3D('',#1095,#885,#886);
#725=AXIS2_PLACEMENT_3D('',#1096,#887,#888);
#726=AXIS2_PLACEMENT_3D('',#1098,#889,#890);
#727=AXIS2_PLACEMENT_3D('',#1101,#892,#893);
#728=AXIS2_PLACEMENT_3D('',#1102,#894,#895);
#729=AXIS2_PLACEMENT_3D('',#1103,#896,#897);
#730=AXIS2_PLACEMENT_3D('',#1104,#898,#899);
#731=AXIS2_PLACEMENT_3D('',#1106,#900,#901);
#732=AXIS2_PLACEMENT_3D('',#1109,#903,#904);
#733=AXIS2_PLACEMENT_3D('',#1110,#905,#906);
#734=AXIS2_PLACEMENT_3D('',#1111,#907,#908);
#735=AXIS2_PLACEMENT_3D('',#1112,#909,#910);
#736=AXIS2_PLACEMENT_3D('',#1114,#911,#912);
#737=AXIS2_PLACEMENT_3D('',#1117,#914,#915);
#738=AXIS2_PLACEMENT_3D('',#1118,#916,#917);
#739=AXIS2_PLACEMENT_3D('',#1119,#918,#919);
#740=AXIS2_PLACEMENT_3D('',#1120,#920,#921);
#741=AXIS2_PLACEMENT_3D('',#1122,#922,#923);
#742=AXIS2_PLACEMENT_3D('',#1125,#925,#926);
#743=AXIS2_PLACEMENT_3D('',#1126,#927,#928);
#744=AXIS2_PLACEMENT_3D('',#1127,#929,#930);
#745=AXIS2_PLACEMENT_3D('',#1128,#931,#932);
#746=AXIS2_PLACEMENT_3D('',#1130,#933,#934);
#747=AXIS2_PLACEMENT_3D('',#1133,#936,#937);
#748=AXIS2_PLACEMENT_3D('',#1134,#938,#939);
#749=AXIS2_PLACEMENT_3D('',#1135,#940,#941);
#750=AXIS2_PLACEMENT_3D('',#1136,#942,#943);
#751=AXIS2_PLACEMENT_3D('',#1138,#944,#945);
#752=AXIS2_PLACEMENT_3D('',#1141,#947,#948);
#753=AXIS2_PLACEMENT_3D('',#1142,#949,#950);
#754=AXIS2_PLACEMENT_3D('',#1143,#951,#952);
#755=AXIS2_PLACEMENT_3D('',#1144,#953,#954);
#756=AXIS2_PLACEMENT_3D('',#1146,#955,#956);
#757=AXIS2_PLACEMENT_3D('',#1149,#958,#959);
#758=AXIS2_PLACEMENT_3D('',#1150,#960,#961);
#759=AXIS2_PLACEMENT_3D('',#1151,#962,#963);
#760=AXIS2_PLACEMENT_3D('',#1152,#964,#965);
#761=AXIS2_PLACEMENT_3D('',#1154,#966,#967);
#762=AXIS2_PLACEMENT_3D('',#1157,#969,#970);
#763=AXIS2_PLACEMENT_3D('',#1158,#971,#972);
#764=AXIS2_PLACEMENT_3D('',#1159,#973,#974);
#765=AXIS2_PLACEMENT_3D('',#1160,#975,#976);
#766=AXIS2_PLACEMENT_3D('',#1162,#977,#978);
#767=AXIS2_PLACEMENT_3D('',#1165,#980,#981);
#768=AXIS2_PLACEMENT_3D('',#1166,#982,#983);
#769=AXIS2_PLACEMENT_3D('',#1167,#984,#985);
#770=AXIS2_PLACEMENT_3D('',#1168,#986,#987);
#771=AXIS2_PLACEMENT_3D('',#1170,#988,#989);
#772=AXIS2_PLACEMENT_3D('',#1173,#991,#992);
#773=AXIS2_PLACEMENT_3D('',#1174,#993,#994);
#774=AXIS2_PLACEMENT_3D('',#1175,#995,#996);
#775=DIRECTION('axis',(0.,0.,1.));
#776=DIRECTION('refdir',(1.,0.,0.));
#777=DIRECTION('center_axis',(1.,0.,0.));
#778=DIRECTION('ref_axis',(0.,-1.,0.));
#779=DIRECTION('',(0.,-1.,0.));
#780=DIRECTION('',(0.,0.,-1.));
#781=DIRECTION('',(0.,1.,0.));
#782=DIRECTION('',(0.,0.,-1.));
#783=DIRECTION('center_axis',(0.,1.,0.));
#784=DIRECTION('ref_axis',(1.,0.,0.));
#785=DIRECTION('',(1.,0.,0.));
#786=DIRECTION('',(0.,0.,-1.));
#787=DIRECTION('',(-1.,0.,0.));
#788=DIRECTION('center_axis',(-1.,0.,0.));
#789=DIRECTION('ref_axis',(0.,1.,0.));
#790=DIRECTION('',(0.,1.,0.));
#791=DIRECTION('',(0.,0.,1.));
#792=DIRECTION('',(0.,-1.,0.));
#793=DIRECTION('center_axis',(0.,1.,0.));
#794=DIRECTION('ref_axis',(1.,0.,0.));
#795=DIRECTION('',(-1.,0.,0.));
#796=DIRECTION('',(0.,0.,-1.));
#797=DIRECTION('',(1.,0.,0.));
#798=DIRECTION('center_axis',(0.,1.,0.));
#799=DIRECTION('ref_axis',(1.,0.,0.));
#800=DIRECTION('',(1.,0.,0.));
#801=DIRECTION('',(0.,0.,1.));
#802=DIRECTION('',(-1.,0.,0.));
#803=DIRECTION('center_axis',(0.,0.,1.));
#804=DIRECTION('ref_axis',(1.,0.,0.));
#805=DIRECTION('',(0.,1.,0.));
#806=DIRECTION('',(1.,0.,0.));
#807=DIRECTION('',(0.,1.,0.));
#808=DIRECTION('center_axis',(0.,0.,-1.));
#809=DIRECTION('ref_axis',(-1.,0.,0.));
#810=DIRECTION('',(0.,1.,0.));
#811=DIRECTION('',(-1.,0.,0.));
#812=DIRECTION('',(0.,1.,0.));
#813=DIRECTION('center_axis',(1.,0.,0.));
#814=DIRECTION('ref_axis',(0.,0.,-1.));
#815=DIRECTION('',(0.,0.,-1.));
#816=DIRECTION('center_axis',(-1.,0.,0.));
#817=DIRECTION('ref_axis',(0.,0.,1.));
#818=DIRECTION('',(0.,0.,1.));
#819=DIRECTION('center_axis',(0.,1.,0.));
#820=DIRECTION('ref_axis',(0.,0.,1.));
#821=DIRECTION('center_axis',(0.,-1.,0.));
#822=DIRECTION('ref_axis',(1.,0.,0.));
#823=DIRECTION('center_axis',(0.,-1.,0.));
#824=DIRECTION('ref_axis',(1.,0.,0.));
#825=DIRECTION('',(0.,1.,0.));
#826=DIRECTION('center_axis',(0.,-1.,0.));
#827=DIRECTION('ref_axis',(1.,0.,0.));
#828=DIRECTION('center_axis',(0.,-1.,0.));
#829=DIRECTION('ref_axis',(1.,0.,0.));
#830=DIRECTION('center_axis',(0.,-1.,0.));
#831=DIRECTION('ref_axis',(1.,0.,0.));
#832=DIRECTION('center_axis',(0.,-1.,0.));
#833=DIRECTION('ref_axis',(1.,0.,0.));
#834=DIRECTION('center_axis',(0.,-1.,0.));
#835=DIRECTION('ref_axis',(1.,0.,0.));
#836=DIRECTION('',(0.,1.,0.));
#837=DIRECTION('center_axis',(0.,-1.,0.));
#838=DIRECTION('ref_axis',(1.,0.,0.));
#839=DIRECTION('center_axis',(0.,-1.,0.));
#840=DIRECTION('ref_axis',(1.,0.,0.));
#841=DIRECTION('center_axis',(0.,-1.,0.));
#842=DIRECTION('ref_axis',(1.,0.,0.));
#843=DIRECTION('center_axis',(0.,-1.,0.));
#844=DIRECTION('ref_axis',(1.,0.,0.));
#845=DIRECTION('center_axis',(0.,-1.,0.));
#846=DIRECTION('ref_axis',(1.,0.,0.));
#847=DIRECTION('',(0.,1.,0.));
#848=DIRECTION('center_axis',(0.,-1.,0.));
#849=DIRECTION('ref_axis',(1.,0.,0.));
#850=DIRECTION('center_axis',(0.,-1.,0.));
#851=DIRECTION('ref_axis',(1.,0.,0.));
#852=DIRECTION('center_axis',(0.,-1.,0.));
#853=DIRECTION('ref_axis',(1.,0.,0.));
#854=DIRECTION('center_axis',(0.,-1.,0.));
#855=DIRECTION('ref_axis',(1.,0.,0.));
#856=DIRECTION('center_axis',(0.,-1.,0.));
#857=DIRECTION('ref_axis',(1.,0.,0.));
#858=DIRECTION('',(0.,1.,0.));
#859=DIRECTION('center_axis',(0.,-1.,0.));
#860=DIRECTION('ref_axis',(1.,0.,0.));
#861=DIRECTION('center_axis',(0.,-1.,0.));
#862=DIRECTION('ref_axis',(1.,0.,0.));
#863=DIRECTION('center_axis',(0.,-1.,0.));
#864=DIRECTION('ref_axis',(1.,0.,0.));
#865=DIRECTION('center_axis',(0.,-1.,0.));
#866=DIRECTION('ref_axis',(1.,0.,0.));
#867=DIRECTION('center_axis',(0.,-1.,0.));
#868=DIRECTION('ref_axis',(1.,0.,0.));
#869=DIRECTION('',(0.,1.,0.));
#870=DIRECTION('center_axis',(0.,-1.,0.));
#871=DIRECTION('ref_axis',(1.,0.,0.));
#872=DIRECTION('center_axis',(0.,-1.,0.));
#873=DIRECTION('ref_axis',(1.,0.,0.));
#874=DIRECTION('center_axis',(0.,-1.,0.));
#875=DIRECTION('ref_axis',(1.,0.,0.));
#876=DIRECTION('center_axis',(0.,-1.,0.));
#877=DIRECTION('ref_axis',(1.,0.,0.));
#878=DIRECTION('center_axis',(0.,-1.,0.));
#879=DIRECTION('ref_axis',(1.,0.,0.));
#880=DIRECTION('',(0.,1.,0.));
#881=DIRECTION('center_axis',(0.,-1.,0.));
#882=DIRECTION('ref_axis',(1.,0.,0.));
#883=DIRECTION('center_axis',(0.,-1.,0.));
#884=DIRECTION('ref_axis',(1.,0.,0.));
#885=DIRECTION('center_axis',(0.,-1.,0.));
#886=DIRECTION('ref_axis',(1.,0.,0.));
#887=DIRECTION('center_axis',(0.,-1.,0.));
#888=DIRECTION('ref_axis',(1.,0.,0.));
#889=DIRECTION('center_axis',(0.,-1.,0.));
#890=DIRECTION('ref_axis',(1.,0.,0.));
#891=DIRECTION('',(0.,1.,0.));
#892=DIRECTION('center_axis',(0.,-1.,0.));
#893=DIRECTION('ref_axis',(1.,0.,0.));
#894=DIRECTION('center_axis',(0.,-1.,0.));
#895=DIRECTION('ref_axis',(1.,0.,0.));
#896=DIRECTION('center_axis',(0.,-1.,0.));
#897=DIRECTION('ref_axis',(1.,0.,0.));
#898=DIRECTION('center_axis',(0.,-1.,0.));
#899=DIRECTION('ref_axis',(1.,0.,0.));
#900=DIRECTION('center_axis',(0.,-1.,0.));
#901=DIRECTION('ref_axis',(1.,0.,0.));
#902=DIRECTION('',(0.,1.,0.));
#903=DIRECTION('center_axis',(0.,-1.,0.));
#904=DIRECTION('ref_axis',(1.,0.,0.));
#905=DIRECTION('center_axis',(0.,-1.,0.));
#906=DIRECTION('ref_axis',(1.,0.,0.));
#907=DIRECTION('center_axis',(0.,-1.,0.));
#908=DIRECTION('ref_axis',(1.,0.,0.));
#909=DIRECTION('center_axis',(0.,-1.,0.));
#910=DIRECTION('ref_axis',(1.,0.,0.));
#911=DIRECTION('center_axis',(0.,-1.,0.));
#912=DIRECTION('ref_axis',(1.,0.,0.));
#913=DIRECTION('',(0.,1.,0.));
#914=DIRECTION('center_axis',(0.,-1.,0.));
#915=DIRECTION('ref_axis',(1.,0.,0.));
#916=DIRECTION('center_axis',(0.,-1.,0.));
#917=DIRECTION('ref_axis',(1.,0.,0.));
#918=DIRECTION('center_axis',(0.,-1.,0.));
#919=DIRECTION('ref_axis',(1.,0.,0.));
#920=DIRECTION('center_axis',(0.,-1.,0.));
#921=DIRECTION('ref_axis',(1.,0.,0.));
#922=DIRECTION('center_axis',(0.,-1.,0.));
#923=DIRECTION('ref_axis',(1.,0.,0.));
#924=DIRECTION('',(0.,1.,0.));
#925=DIRECTION('center_axis',(0.,-1.,0.));
#926=DIRECTION('ref_axis',(1.,0.,0.));
#927=DIRECTION('center_axis',(0.,-1.,0.));
#928=DIRECTION('ref_axis',(1.,0.,0.));
#929=DIRECTION('center_axis',(0.,-1.,0.));
#930=DIRECTION('ref_axis',(1.,0.,0.));
#931=DIRECTION('center_axis',(0.,-1.,0.));
#932=DIRECTION('ref_axis',(1.,0.,0.));
#933=DIRECTION('center_axis',(0.,-1.,0.));
#934=DIRECTION('ref_axis',(1.,0.,0.));
#935=DIRECTION('',(0.,1.,0.));
#936=DIRECTION('center_axis',(0.,-1.,0.));
#937=DIRECTION('ref_axis',(1.,0.,0.));
#938=DIRECTION('center_axis',(0.,-1.,0.));
#939=DIRECTION('ref_axis',(1.,0.,0.));
#940=DIRECTION('center_axis',(0.,-1.,0.));
#941=DIRECTION('ref_axis',(1.,0.,0.));
#942=DIRECTION('center_axis',(0.,-1.,0.));
#943=DIRECTION('ref_axis',(1.,0.,0.));
#944=DIRECTION('center_axis',(0.,-1.,0.));
#945=DIRECTION('ref_axis',(1.,0.,0.));
#946=DIRECTION('',(0.,1.,0.));
#947=DIRECTION('center_axis',(0.,-1.,0.));
#948=DIRECTION('ref_axis',(1.,0.,0.));
#949=DIRECTION('center_axis',(0.,-1.,0.));
#950=DIRECTION('ref_axis',(1.,0.,0.));
#951=DIRECTION('center_axis',(0.,-1.,0.));
#952=DIRECTION('ref_axis',(1.,0.,0.));
#953=DIRECTION('center_axis',(0.,-1.,0.));
#954=DIRECTION('ref_axis',(1.,0.,0.));
#955=DIRECTION('center_axis',(0.,-1.,0.));
#956=DIRECTION('ref_axis',(1.,0.,0.));
#957=DIRECTION('',(0.,1.,0.));
#958=DIRECTION('center_axis',(0.,-1.,0.));
#959=DIRECTION('ref_axis',(1.,0.,0.));
#960=DIRECTION('center_axis',(0.,-1.,0.));
#961=DIRECTION('ref_axis',(1.,0.,0.));
#962=DIRECTION('center_axis',(0.,-1.,0.));
#963=DIRECTION('ref_axis',(1.,0.,0.));
#964=DIRECTION('center_axis',(0.,-1.,0.));
#965=DIRECTION('ref_axis',(1.,0.,0.));
#966=DIRECTION('center_axis',(0.,-1.,0.));
#967=DIRECTION('ref_axis',(1.,0.,0.));
#968=DIRECTION('',(0.,1.,0.));
#969=DIRECTION('center_axis',(0.,-1.,0.));
#970=DIRECTION('ref_axis',(1.,0.,0.));
#971=DIRECTION('center_axis',(0.,-1.,0.));
#972=DIRECTION('ref_axis',(1.,0.,0.));
#973=DIRECTION('center_axis',(0.,-1.,0.));
#974=DIRECTION('ref_axis',(1.,0.,0.));
#975=DIRECTION('center_axis',(0.,-1.,0.));
#976=DIRECTION('ref_axis',(1.,0.,0.));
#977=DIRECTION('center_axis',(0.,-1.,0.));
#978=DIRECTION('ref_axis',(1.,0.,0.));
#979=DIRECTION('',(0.,1.,0.));
#980=DIRECTION('center_axis',(0.,-1.,0.));
#981=DIRECTION('ref_axis',(1.,0.,0.));
#982=DIRECTION('center_axis',(0.,-1.,0.));
#983=DIRECTION('ref_axis',(1.,0.,0.));
#984=DIRECTION('center_axis',(0.,-1.,0.));
#985=DIRECTION('ref_axis',(1.,0.,0.));
#986=DIRECTION('center_axis',(0.,-1.,0.));
#987=DIRECTION('ref_axis',(1.,0.,0.));
#988=DIRECTION('center_axis',(0.,-1.,0.));
#989=DIRECTION('ref_axis',(1.,0.,0.));
#990=DIRECTION('',(0.,1.,0.));
#991=DIRECTION('center_axis',(0.,-1.,0.));
#992=DIRECTION('ref_axis',(1.,0.,0.));
#993=DIRECTION('center_axis',(0.,-1.,0.));
#994=DIRECTION('ref_axis',(1.,0.,0.));
#995=DIRECTION('center_axis',(0.,-1.,0.));
#996=DIRECTION('ref_axis',(1.,0.,0.));
#997=CARTESIAN_POINT('',(0.,0.,0.));
#998=CARTESIAN_POINT('Origin',(18.0000002682209,1.00000001490116,0.));
#999=CARTESIAN_POINT('',(18.0000002682209,1.00000001490116,0.));
#1000=CARTESIAN_POINT('',(18.0000002682209,0.,0.));
#1001=CARTESIAN_POINT('',(18.0000002682209,0.500000007450581,0.));
#1002=CARTESIAN_POINT('',(18.0000002682209,1.00000001490116,-27.7));
#1003=CARTESIAN_POINT('',(18.0000002682209,1.00000001490116,0.));
#1004=CARTESIAN_POINT('',(18.0000002682209,0.,-27.7));
#1005=CARTESIAN_POINT('',(18.0000002682209,0.500000007450581,-27.7));
#1006=CARTESIAN_POINT('',(18.0000002682209,0.,-6.925));
#1007=CARTESIAN_POINT('Origin',(2.00000002980232,1.00000001490116,0.));
#1008=CARTESIAN_POINT('',(2.00000002980232,1.00000001490116,0.));
#1009=CARTESIAN_POINT('',(1.00000001490116,1.00000001490116,0.));
#1010=CARTESIAN_POINT('',(2.00000002980232,1.00000001490116,-27.7));
#1011=CARTESIAN_POINT('',(2.00000002980232,1.00000001490116,0.));
#1012=CARTESIAN_POINT('',(11.0000000149012,1.00000001490116,-27.7));
#1013=CARTESIAN_POINT('Origin',(2.00000002980232,0.,0.));
#1014=CARTESIAN_POINT('',(2.00000002980232,0.,0.));
#1015=CARTESIAN_POINT('',(2.00000002980232,0.,0.));
#1016=CARTESIAN_POINT('',(2.00000002980232,0.,-27.7));
#1017=CARTESIAN_POINT('',(2.00000002980232,0.,-6.925));
#1018=CARTESIAN_POINT('',(2.00000002980232,0.,-27.7));
#1019=CARTESIAN_POINT('Origin',(10.,0.,-13.85));
#1020=CARTESIAN_POINT('',(20.,0.,-27.7));
#1021=CARTESIAN_POINT('',(20.,0.,-27.7));
#1022=CARTESIAN_POINT('',(20.,0.,0.));
#1023=CARTESIAN_POINT('',(20.,0.,0.));
#1024=CARTESIAN_POINT('',(0.,0.,0.));
#1025=CARTESIAN_POINT('Origin',(10.,0.,-13.85));
#1026=CARTESIAN_POINT('',(0.,0.,0.));
#1027=CARTESIAN_POINT('',(0.,0.,0.));
#1028=CARTESIAN_POINT('',(0.,0.,-27.7));
#1029=CARTESIAN_POINT('',(0.,0.,-27.7));
#1030=CARTESIAN_POINT('',(20.,0.,-27.7));
#1031=CARTESIAN_POINT('Origin',(0.,0.,0.));
#1032=CARTESIAN_POINT('',(20.,8.4,0.));
#1033=CARTESIAN_POINT('',(20.,0.,0.));
#1034=CARTESIAN_POINT('',(0.,8.4,0.));
#1035=CARTESIAN_POINT('',(0.,8.4,0.));
#1036=CARTESIAN_POINT('',(0.,0.,0.));
#1037=CARTESIAN_POINT('Origin',(20.,0.,-27.7));
#1038=CARTESIAN_POINT('',(0.,8.4,-27.7));
#1039=CARTESIAN_POINT('',(0.,0.,-27.7));
#1040=CARTESIAN_POINT('',(20.,8.4,-27.7));
#1041=CARTESIAN_POINT('',(20.,8.4,-27.7));
#1042=CARTESIAN_POINT('',(20.,0.,-27.7));
#1043=CARTESIAN_POINT('Origin',(20.,0.,0.));
#1044=CARTESIAN_POINT('',(20.,8.4,0.));
#1045=CARTESIAN_POINT('Origin',(0.,0.,-27.7));
#1046=CARTESIAN_POINT('',(0.,8.4,-27.7));
#1047=CARTESIAN_POINT('Origin',(10.,8.4,-13.85));
#1048=CARTESIAN_POINT('Origin',(2.38,1.,-4.96));
#1049=CARTESIAN_POINT('',(2.13,-4.,-4.96));
#1050=CARTESIAN_POINT('Origin',(2.38,-4.,-4.96));
#1051=CARTESIAN_POINT('',(2.13,1.,-4.96));
#1052=CARTESIAN_POINT('',(2.13,1.,-4.96));
#1053=CARTESIAN_POINT('Origin',(2.38,1.,-4.96));
#1054=CARTESIAN_POINT('Origin',(2.38,-4.,-4.96));
#1055=CARTESIAN_POINT('Origin',(2.38,1.,-4.96));
#1056=CARTESIAN_POINT('Origin',(2.38,1.,-7.5));
#1057=CARTESIAN_POINT('',(2.13,-4.,-7.5));
#1058=CARTESIAN_POINT('Origin',(2.38,-4.,-7.5));
#1059=CARTESIAN_POINT('',(2.13,1.,-7.5));
#1060=CARTESIAN_POINT('',(2.13,1.,-7.5));
#1061=CARTESIAN_POINT('Origin',(2.38,1.,-7.5));
#1062=CARTESIAN_POINT('Origin',(2.38,-4.,-7.5));
#1063=CARTESIAN_POINT('Origin',(2.38,1.,-7.5));
#1064=CARTESIAN_POINT('Origin',(2.38,1.,-10.04));
#1065=CARTESIAN_POINT('',(2.13,-4.,-10.04));
#1066=CARTESIAN_POINT('Origin',(2.38,-4.,-10.04));
#1067=CARTESIAN_POINT('',(2.13,1.,-10.04));
#1068=CARTESIAN_POINT('',(2.13,1.,-10.04));
#1069=CARTESIAN_POINT('Origin',(2.38,1.,-10.04));
#1070=CARTESIAN_POINT('Origin',(2.38,-4.,-10.04));
#1071=CARTESIAN_POINT('Origin',(2.38,1.,-10.04));
#1072=CARTESIAN_POINT('Origin',(2.38,1.,-12.58));
#1073=CARTESIAN_POINT('',(2.13,-4.,-12.58));
#1074=CARTESIAN_POINT('Origin',(2.38,-4.,-12.58));
#1075=CARTESIAN_POINT('',(2.13,1.,-12.58));
#1076=CARTESIAN_POINT('',(2.13,1.,-12.58));
#1077=CARTESIAN_POINT('Origin',(2.38,1.,-12.58));
#1078=CARTESIAN_POINT('Origin',(2.38,-4.,-12.58));
#1079=CARTESIAN_POINT('Origin',(2.38,1.,-12.58));
#1080=CARTESIAN_POINT('Origin',(2.38,1.,-15.12));
#1081=CARTESIAN_POINT('',(2.13,-4.,-15.12));
#1082=CARTESIAN_POINT('Origin',(2.38,-4.,-15.12));
#1083=CARTESIAN_POINT('',(2.13,1.,-15.12));
#1084=CARTESIAN_POINT('',(2.13,1.,-15.12));
#1085=CARTESIAN_POINT('Origin',(2.38,1.,-15.12));
#1086=CARTESIAN_POINT('Origin',(2.38,-4.,-15.12));
#1087=CARTESIAN_POINT('Origin',(2.38,1.,-15.12));
#1088=CARTESIAN_POINT('Origin',(2.38,1.,-17.66));
#1089=CARTESIAN_POINT('',(2.13,-4.,-17.66));
#1090=CARTESIAN_POINT('Origin',(2.38,-4.,-17.66));
#1091=CARTESIAN_POINT('',(2.13,1.,-17.66));
#1092=CARTESIAN_POINT('',(2.13,1.,-17.66));
#1093=CARTESIAN_POINT('Origin',(2.38,1.,-17.66));
#1094=CARTESIAN_POINT('Origin',(2.38,-4.,-17.66));
#1095=CARTESIAN_POINT('Origin',(2.38,1.,-17.66));
#1096=CARTESIAN_POINT('Origin',(2.38,1.,-20.2));
#1097=CARTESIAN_POINT('',(2.13,-4.,-20.2));
#1098=CARTESIAN_POINT('Origin',(2.38,-4.,-20.2));
#1099=CARTESIAN_POINT('',(2.13,1.,-20.2));
#1100=CARTESIAN_POINT('',(2.13,1.,-20.2));
#1101=CARTESIAN_POINT('Origin',(2.38,1.,-20.2));
#1102=CARTESIAN_POINT('Origin',(2.38,-4.,-20.2));
#1103=CARTESIAN_POINT('Origin',(2.38,1.,-20.2));
#1104=CARTESIAN_POINT('Origin',(2.38,1.,-22.74));
#1105=CARTESIAN_POINT('',(2.13,-4.,-22.74));
#1106=CARTESIAN_POINT('Origin',(2.38,-4.,-22.74));
#1107=CARTESIAN_POINT('',(2.13,1.,-22.74));
#1108=CARTESIAN_POINT('',(2.13,1.,-22.74));
#1109=CARTESIAN_POINT('Origin',(2.38,1.,-22.74));
#1110=CARTESIAN_POINT('Origin',(2.38,-4.,-22.74));
#1111=CARTESIAN_POINT('Origin',(2.38,1.,-22.74));
#1112=CARTESIAN_POINT('Origin',(17.62,1.,-4.96));
#1113=CARTESIAN_POINT('',(17.37,-4.,-4.96));
#1114=CARTESIAN_POINT('Origin',(17.62,-4.,-4.96));
#1115=CARTESIAN_POINT('',(17.37,1.,-4.96));
#1116=CARTESIAN_POINT('',(17.37,1.,-4.96));
#1117=CARTESIAN_POINT('Origin',(17.62,1.,-4.96));
#1118=CARTESIAN_POINT('Origin',(17.62,-4.,-4.96));
#1119=CARTESIAN_POINT('Origin',(17.62,1.,-4.96));
#1120=CARTESIAN_POINT('Origin',(17.62,1.,-7.5));
#1121=CARTESIAN_POINT('',(17.37,-4.,-7.5));
#1122=CARTESIAN_POINT('Origin',(17.62,-4.,-7.5));
#1123=CARTESIAN_POINT('',(17.37,1.,-7.5));
#1124=CARTESIAN_POINT('',(17.37,1.,-7.5));
#1125=CARTESIAN_POINT('Origin',(17.62,1.,-7.5));
#1126=CARTESIAN_POINT('Origin',(17.62,-4.,-7.5));
#1127=CARTESIAN_POINT('Origin',(17.62,1.,-7.5));
#1128=CARTESIAN_POINT('Origin',(17.62,1.,-10.04));
#1129=CARTESIAN_POINT('',(17.37,-4.,-10.04));
#1130=CARTESIAN_POINT('Origin',(17.62,-4.,-10.04));
#1131=CARTESIAN_POINT('',(17.37,1.,-10.04));
#1132=CARTESIAN_POINT('',(17.37,1.,-10.04));
#1133=CARTESIAN_POINT('Origin',(17.62,1.,-10.04));
#1134=CARTESIAN_POINT('Origin',(17.62,-4.,-10.04));
#1135=CARTESIAN_POINT('Origin',(17.62,1.,-10.04));
#1136=CARTESIAN_POINT('Origin',(17.62,1.,-12.58));
#1137=CARTESIAN_POINT('',(17.37,-4.,-12.58));
#1138=CARTESIAN_POINT('Origin',(17.62,-4.,-12.58));
#1139=CARTESIAN_POINT('',(17.37,1.,-12.58));
#1140=CARTESIAN_POINT('',(17.37,1.,-12.58));
#1141=CARTESIAN_POINT('Origin',(17.62,1.,-12.58));
#1142=CARTESIAN_POINT('Origin',(17.62,-4.,-12.58));
#1143=CARTESIAN_POINT('Origin',(17.62,1.,-12.58));
#1144=CARTESIAN_POINT('Origin',(17.62,1.,-15.12));
#1145=CARTESIAN_POINT('',(17.37,-4.,-15.12));
#1146=CARTESIAN_POINT('Origin',(17.62,-4.,-15.12));
#1147=CARTESIAN_POINT('',(17.37,1.,-15.12));
#1148=CARTESIAN_POINT('',(17.37,1.,-15.12));
#1149=CARTESIAN_POINT('Origin',(17.62,1.,-15.12));
#1150=CARTESIAN_POINT('Origin',(17.62,-4.,-15.12));
#1151=CARTESIAN_POINT('Origin',(17.62,1.,-15.12));
#1152=CARTESIAN_POINT('Origin',(17.62,1.,-17.66));
#1153=CARTESIAN_POINT('',(17.37,-4.,-17.66));
#1154=CARTESIAN_POINT('Origin',(17.62,-4.,-17.66));
#1155=CARTESIAN_POINT('',(17.37,1.,-17.66));
#1156=CARTESIAN_POINT('',(17.37,1.,-17.66));
#1157=CARTESIAN_POINT('Origin',(17.62,1.,-17.66));
#1158=CARTESIAN_POINT('Origin',(17.62,-4.,-17.66));
#1159=CARTESIAN_POINT('Origin',(17.62,1.,-17.66));
#1160=CARTESIAN_POINT('Origin',(17.62,1.,-20.2));
#1161=CARTESIAN_POINT('',(17.37,-4.,-20.2));
#1162=CARTESIAN_POINT('Origin',(17.62,-4.,-20.2));
#1163=CARTESIAN_POINT('',(17.37,1.,-20.2));
#1164=CARTESIAN_POINT('',(17.37,1.,-20.2));
#1165=CARTESIAN_POINT('Origin',(17.62,1.,-20.2));
#1166=CARTESIAN_POINT('Origin',(17.62,-4.,-20.2));
#1167=CARTESIAN_POINT('Origin',(17.62,1.,-20.2));
#1168=CARTESIAN_POINT('Origin',(17.62,1.,-22.74));
#1169=CARTESIAN_POINT('',(17.37,-4.,-22.74));
#1170=CARTESIAN_POINT('Origin',(17.62,-4.,-22.74));
#1171=CARTESIAN_POINT('',(17.37,1.,-22.74));
#1172=CARTESIAN_POINT('',(17.37,1.,-22.74));
#1173=CARTESIAN_POINT('Origin',(17.62,1.,-22.74));
#1174=CARTESIAN_POINT('Origin',(17.62,-4.,-22.74));
#1175=CARTESIAN_POINT('Origin',(17.62,1.,-22.74));
#1176=UNCERTAINTY_MEASURE_WITH_UNIT(LENGTH_MEASURE(0.01),#1180,
'DISTANCE_ACCURACY_VALUE',
'Maximum model space distance between geometric entities at asserted c
onnectivities');
#1177=UNCERTAINTY_MEASURE_WITH_UNIT(LENGTH_MEASURE(0.01),#1180,
'DISTANCE_ACCURACY_VALUE',
'Maximum model space distance between geometric entities at asserted c
onnectivities');
#1178=(
GEOMETRIC_REPRESENTATION_CONTEXT(3)
GLOBAL_UNCERTAINTY_ASSIGNED_CONTEXT((#1176))
GLOBAL_UNIT_ASSIGNED_CONTEXT((#1180,#1182,#1183))
REPRESENTATION_CONTEXT('','3D')
);
#1179=(
GEOMETRIC_REPRESENTATION_CONTEXT(3)
GLOBAL_UNCERTAINTY_ASSIGNED_CONTEXT((#1177))
GLOBAL_UNIT_ASSIGNED_CONTEXT((#1180,#1182,#1183))
REPRESENTATION_CONTEXT('','3D')
);
#1180=(
LENGTH_UNIT()
NAMED_UNIT(*)
SI_UNIT(.MILLI.,.METRE.)
);
#1181=(
LENGTH_UNIT()
NAMED_UNIT(*)
SI_UNIT($,.METRE.)
);
#1182=(
NAMED_UNIT(*)
PLANE_ANGLE_UNIT()
SI_UNIT($,.RADIAN.)
);
#1183=(
NAMED_UNIT(*)
SI_UNIT($,.STERADIAN.)
SOLID_ANGLE_UNIT()
);
#1184=SHAPE_DEFINITION_REPRESENTATION(#1185,#1186);
#1185=PRODUCT_DEFINITION_SHAPE('',$,#1188);
#1186=SHAPE_REPRESENTATION('',(#684),#1178);
#1187=PRODUCT_DEFINITION_CONTEXT('part definition',#1192,'design');
#1188=PRODUCT_DEFINITION('2025-11-18-15-33-44-547',
'Seven segment display',#1189,#1187);
#1189=PRODUCT_DEFINITION_FORMATION('',$,#1194);
#1190=PRODUCT_RELATED_PRODUCT_CATEGORY('Seven segment display',
'Seven segment display',(#1194));
#1191=APPLICATION_PROTOCOL_DEFINITION('international standard',
'automotive_design',2009,#1192);
#1192=APPLICATION_CONTEXT(
'Core Data for Automotive Mechanical Design Process');
#1193=PRODUCT_CONTEXT('part definition',#1192,'mechanical');
#1194=PRODUCT('2025-11-18-15-33-44-547','Seven segment display',$,(#1193));
#1195=PRESENTATION_STYLE_ASSIGNMENT((#1196));
#1196=SURFACE_STYLE_USAGE(.BOTH.,#1197);
#1197=SURFACE_SIDE_STYLE('',(#1198));
#1198=SURFACE_STYLE_FILL_AREA(#1199);
#1199=FILL_AREA_STYLE('Steel - Satin',(#1200));
#1200=FILL_AREA_STYLE_COLOUR('Steel - Satin',#1201);
#1201=COLOUR_RGB('Steel - Satin',0.627450980392157,0.627450980392157,0.627450980392157);
ENDSEC;
END-ISO-10303-21;
