ISO-10303-21;
HEADER;
/* Generated by software containing ST-Developer
 * from STEP Tools, Inc. (www.steptools.com) 
 */

FILE_DESCRIPTION(
/* description */ (''),
/* implementation_level */ '2;1');

FILE_NAME(
/* name */ 'Seven segment display PCB.step',
/* time_stamp */ '2026-04-27T15:51:11+01:00',
/* author */ (''),
/* organization */ (''),
/* preprocessor_version */ 'ST-DEVELOPER v20.1',
/* originating_system */ 'Autodesk Translation Framework v14.24.0.0',
/* authorisation */ '');

FILE_SCHEMA (('AUTOMOTIVE_DESIGN { 1 0 10303 214 3 1 1 }'));
ENDSEC;

DATA;
#10=MECHANICAL_DESIGN_GEOMETRIC_PRESENTATION_REPRESENTATION('',(#91,#92,
#93,#94,#95,#96,#97,#98,#99,#100,#101,#102,#103,#104,#105,#106,#107,#108),
#1510);
#11=ITEM_DEFINED_TRANSFORMATION($,$,#882,#991);
#12=ITEM_DEFINED_TRANSFORMATION($,$,#882,#992);
#13=(
REPRESENTATION_RELATIONSHIP($,$,#1522,#1521)
REPRESENTATION_RELATIONSHIP_WITH_TRANSFORMATION(#11)
SHAPE_REPRESENTATION_RELATIONSHIP()
);
#14=(
REPRESENTATION_RELATIONSHIP($,$,#1522,#1521)
REPRESENTATION_RELATIONSHIP_WITH_TRANSFORMATION(#12)
SHAPE_REPRESENTATION_RELATIONSHIP()
);
#15=CONTEXT_DEPENDENT_SHAPE_REPRESENTATION(#13,#1519);
#16=CONTEXT_DEPENDENT_SHAPE_REPRESENTATION(#14,#1520);
#17=NEXT_ASSEMBLY_USAGE_OCCURRENCE('Seven segment display:1',
'Seven segment display:1','Seven segment display:1',#1524,#1525,
'Seven segment display:1');
#18=NEXT_ASSEMBLY_USAGE_OCCURRENCE('Seven segment display:2',
'Seven segment display:2','Seven segment display:2',#1524,#1525,
'Seven segment display:2');
#19=FACE_BOUND('',#262,.T.);
#20=FACE_BOUND('',#263,.T.);
#21=FACE_BOUND('',#264,.T.);
#22=FACE_BOUND('',#265,.T.);
#23=FACE_BOUND('',#267,.T.);
#24=FACE_BOUND('',#268,.T.);
#25=FACE_BOUND('',#269,.T.);
#26=FACE_BOUND('',#270,.T.);
#27=SHAPE_REPRESENTATION_RELATIONSHIP('SRR','None',#1522,#29);
#28=SHAPE_REPRESENTATION_RELATIONSHIP('SRR','None',#1521,#30);
#29=ADVANCED_BREP_SHAPE_REPRESENTATION('',(#109,#110,#111,#112,#113,#114,
#115,#116,#117,#118,#119,#120,#121,#122,#123,#124,#125),#1509);
#30=ADVANCED_BREP_SHAPE_REPRESENTATION('',(#126),#1508);
#31=CIRCLE('',#894,0.25);
#32=CIRCLE('',#895,0.25);
#33=CIRCLE('',#899,0.25);
#34=CIRCLE('',#900,0.25);
#35=CIRCLE('',#904,0.25);
#36=CIRCLE('',#905,0.25);
#37=CIRCLE('',#909,0.25);
#38=CIRCLE('',#910,0.25);
#39=CIRCLE('',#914,0.25);
#40=CIRCLE('',#915,0.25);
#41=CIRCLE('',#919,0.25);
#42=CIRCLE('',#920,0.25);
#43=CIRCLE('',#924,0.25);
#44=CIRCLE('',#925,0.25);
#45=CIRCLE('',#929,0.25);
#46=CIRCLE('',#930,0.25);
#47=CIRCLE('',#934,0.25);
#48=CIRCLE('',#935,0.25);
#49=CIRCLE('',#939,0.25);
#50=CIRCLE('',#940,0.25);
#51=CIRCLE('',#944,0.25);
#52=CIRCLE('',#945,0.25);
#53=CIRCLE('',#949,0.25);
#54=CIRCLE('',#950,0.25);
#55=CIRCLE('',#954,0.25);
#56=CIRCLE('',#955,0.25);
#57=CIRCLE('',#959,0.25);
#58=CIRCLE('',#960,0.25);
#59=CIRCLE('',#964,0.25);
#60=CIRCLE('',#965,0.25);
#61=CIRCLE('',#969,0.25);
#62=CIRCLE('',#970,0.25);
#63=CIRCLE('',#974,1.8);
#64=CIRCLE('',#975,1.8);
#65=CIRCLE('',#977,1.8);
#66=CIRCLE('',#978,1.8);
#67=CIRCLE('',#980,1.8);
#68=CIRCLE('',#981,1.8);
#69=CIRCLE('',#983,1.8);
#70=CIRCLE('',#984,1.8);
#71=CYLINDRICAL_SURFACE('',#893,0.25);
#72=CYLINDRICAL_SURFACE('',#898,0.25);
#73=CYLINDRICAL_SURFACE('',#903,0.25);
#74=CYLINDRICAL_SURFACE('',#908,0.25);
#75=CYLINDRICAL_SURFACE('',#913,0.25);
#76=CYLINDRICAL_SURFACE('',#918,0.25);
#77=CYLINDRICAL_SURFACE('',#923,0.25);
#78=CYLINDRICAL_SURFACE('',#928,0.25);
#79=CYLINDRICAL_SURFACE('',#933,0.25);
#80=CYLINDRICAL_SURFACE('',#938,0.25);
#81=CYLINDRICAL_SURFACE('',#943,0.25);
#82=CYLINDRICAL_SURFACE('',#948,0.25);
#83=CYLINDRICAL_SURFACE('',#953,0.25);
#84=CYLINDRICAL_SURFACE('',#958,0.25);
#85=CYLINDRICAL_SURFACE('',#963,0.25);
#86=CYLINDRICAL_SURFACE('',#968,0.25);
#87=CYLINDRICAL_SURFACE('',#973,1.8);
#88=CYLINDRICAL_SURFACE('',#976,1.8);
#89=CYLINDRICAL_SURFACE('',#979,1.8);
#90=CYLINDRICAL_SURFACE('',#982,1.8);
#91=STYLED_ITEM('',(#1535),#109);
#92=STYLED_ITEM('',(#1535),#110);
#93=STYLED_ITEM('',(#1535),#111);
#94=STYLED_ITEM('',(#1535),#112);
#95=STYLED_ITEM('',(#1535),#113);
#96=STYLED_ITEM('',(#1535),#114);
#97=STYLED_ITEM('',(#1535),#115);
#98=STYLED_ITEM('',(#1535),#116);
#99=STYLED_ITEM('',(#1535),#117);
#100=STYLED_ITEM('',(#1535),#118);
#101=STYLED_ITEM('',(#1535),#119);
#102=STYLED_ITEM('',(#1535),#120);
#103=STYLED_ITEM('',(#1535),#121);
#104=STYLED_ITEM('',(#1535),#122);
#105=STYLED_ITEM('',(#1535),#123);
#106=STYLED_ITEM('',(#1535),#124);
#107=STYLED_ITEM('',(#1535),#125);
#108=STYLED_ITEM('',(#1535),#126);
#109=MANIFOLD_SOLID_BREP('Body1',#851);
#110=MANIFOLD_SOLID_BREP('Body2',#852);
#111=MANIFOLD_SOLID_BREP('Body3',#853);
#112=MANIFOLD_SOLID_BREP('Body4',#854);
#113=MANIFOLD_SOLID_BREP('Body5',#855);
#114=MANIFOLD_SOLID_BREP('Body6',#856);
#115=MANIFOLD_SOLID_BREP('Body7',#857);
#116=MANIFOLD_SOLID_BREP('Body8',#858);
#117=MANIFOLD_SOLID_BREP('Body9',#859);
#118=MANIFOLD_SOLID_BREP('Body10',#860);
#119=MANIFOLD_SOLID_BREP('Body11',#861);
#120=MANIFOLD_SOLID_BREP('Body12',#862);
#121=MANIFOLD_SOLID_BREP('Body13',#863);
#122=MANIFOLD_SOLID_BREP('Body14',#864);
#123=MANIFOLD_SOLID_BREP('Body15',#865);
#124=MANIFOLD_SOLID_BREP('Body16',#866);
#125=MANIFOLD_SOLID_BREP('Body17',#867);
#126=MANIFOLD_SOLID_BREP('Body1',#868);
#127=FACE_OUTER_BOUND('',#195,.T.);
#128=FACE_OUTER_BOUND('',#196,.T.);
#129=FACE_OUTER_BOUND('',#197,.T.);
#130=FACE_OUTER_BOUND('',#198,.T.);
#131=FACE_OUTER_BOUND('',#199,.T.);
#132=FACE_OUTER_BOUND('',#200,.T.);
#133=FACE_OUTER_BOUND('',#201,.T.);
#134=FACE_OUTER_BOUND('',#202,.T.);
#135=FACE_OUTER_BOUND('',#203,.T.);
#136=FACE_OUTER_BOUND('',#204,.T.);
#137=FACE_OUTER_BOUND('',#205,.T.);
#138=FACE_OUTER_BOUND('',#206,.T.);
#139=FACE_OUTER_BOUND('',#207,.T.);
#140=FACE_OUTER_BOUND('',#208,.T.);
#141=FACE_OUTER_BOUND('',#209,.T.);
#142=FACE_OUTER_BOUND('',#210,.T.);
#143=FACE_OUTER_BOUND('',#211,.T.);
#144=FACE_OUTER_BOUND('',#212,.T.);
#145=FACE_OUTER_BOUND('',#213,.T.);
#146=FACE_OUTER_BOUND('',#214,.T.);
#147=FACE_OUTER_BOUND('',#215,.T.);
#148=FACE_OUTER_BOUND('',#216,.T.);
#149=FACE_OUTER_BOUND('',#217,.T.);
#150=FACE_OUTER_BOUND('',#218,.T.);
#151=FACE_OUTER_BOUND('',#219,.T.);
#152=FACE_OUTER_BOUND('',#220,.T.);
#153=FACE_OUTER_BOUND('',#221,.T.);
#154=FACE_OUTER_BOUND('',#222,.T.);
#155=FACE_OUTER_BOUND('',#223,.T.);
#156=FACE_OUTER_BOUND('',#224,.T.);
#157=FACE_OUTER_BOUND('',#225,.T.);
#158=FACE_OUTER_BOUND('',#226,.T.);
#159=FACE_OUTER_BOUND('',#227,.T.);
#160=FACE_OUTER_BOUND('',#228,.T.);
#161=FACE_OUTER_BOUND('',#229,.T.);
#162=FACE_OUTER_BOUND('',#230,.T.);
#163=FACE_OUTER_BOUND('',#231,.T.);
#164=FACE_OUTER_BOUND('',#232,.T.);
#165=FACE_OUTER_BOUND('',#233,.T.);
#166=FACE_OUTER_BOUND('',#234,.T.);
#167=FACE_OUTER_BOUND('',#235,.T.);
#168=FACE_OUTER_BOUND('',#236,.T.);
#169=FACE_OUTER_BOUND('',#237,.T.);
#170=FACE_OUTER_BOUND('',#238,.T.);
#171=FACE_OUTER_BOUND('',#239,.T.);
#172=FACE_OUTER_BOUND('',#240,.T.);
#173=FACE_OUTER_BOUND('',#241,.T.);
#174=FACE_OUTER_BOUND('',#242,.T.);
#175=FACE_OUTER_BOUND('',#243,.T.);
#176=FACE_OUTER_BOUND('',#244,.T.);
#177=FACE_OUTER_BOUND('',#245,.T.);
#178=FACE_OUTER_BOUND('',#246,.T.);
#179=FACE_OUTER_BOUND('',#247,.T.);
#180=FACE_OUTER_BOUND('',#248,.T.);
#181=FACE_OUTER_BOUND('',#249,.T.);
#182=FACE_OUTER_BOUND('',#250,.T.);
#183=FACE_OUTER_BOUND('',#251,.T.);
#184=FACE_OUTER_BOUND('',#252,.T.);
#185=FACE_OUTER_BOUND('',#253,.T.);
#186=FACE_OUTER_BOUND('',#254,.T.);
#187=FACE_OUTER_BOUND('',#255,.T.);
#188=FACE_OUTER_BOUND('',#256,.T.);
#189=FACE_OUTER_BOUND('',#257,.T.);
#190=FACE_OUTER_BOUND('',#258,.T.);
#191=FACE_OUTER_BOUND('',#259,.T.);
#192=FACE_OUTER_BOUND('',#260,.T.);
#193=FACE_OUTER_BOUND('',#261,.T.);
#194=FACE_OUTER_BOUND('',#266,.T.);
#195=EDGE_LOOP('',(#543,#544,#545,#546));
#196=EDGE_LOOP('',(#547,#548,#549,#550));
#197=EDGE_LOOP('',(#551,#552,#553,#554));
#198=EDGE_LOOP('',(#555,#556,#557,#558));
#199=EDGE_LOOP('',(#559,#560,#561,#562));
#200=EDGE_LOOP('',(#563,#564,#565,#566,#567,#568,#569,#570));
#201=EDGE_LOOP('',(#571,#572,#573,#574,#575,#576,#577,#578));
#202=EDGE_LOOP('',(#579,#580,#581,#582));
#203=EDGE_LOOP('',(#583,#584,#585,#586));
#204=EDGE_LOOP('',(#587,#588,#589,#590));
#205=EDGE_LOOP('',(#591,#592,#593,#594));
#206=EDGE_LOOP('',(#595));
#207=EDGE_LOOP('',(#596));
#208=EDGE_LOOP('',(#597,#598,#599,#600));
#209=EDGE_LOOP('',(#601));
#210=EDGE_LOOP('',(#602));
#211=EDGE_LOOP('',(#603,#604,#605,#606));
#212=EDGE_LOOP('',(#607));
#213=EDGE_LOOP('',(#608));
#214=EDGE_LOOP('',(#609,#610,#611,#612));
#215=EDGE_LOOP('',(#613));
#216=EDGE_LOOP('',(#614));
#217=EDGE_LOOP('',(#615,#616,#617,#618));
#218=EDGE_LOOP('',(#619));
#219=EDGE_LOOP('',(#620));
#220=EDGE_LOOP('',(#621,#622,#623,#624));
#221=EDGE_LOOP('',(#625));
#222=EDGE_LOOP('',(#626));
#223=EDGE_LOOP('',(#627,#628,#629,#630));
#224=EDGE_LOOP('',(#631));
#225=EDGE_LOOP('',(#632));
#226=EDGE_LOOP('',(#633,#634,#635,#636));
#227=EDGE_LOOP('',(#637));
#228=EDGE_LOOP('',(#638));
#229=EDGE_LOOP('',(#639,#640,#641,#642));
#230=EDGE_LOOP('',(#643));
#231=EDGE_LOOP('',(#644));
#232=EDGE_LOOP('',(#645,#646,#647,#648));
#233=EDGE_LOOP('',(#649));
#234=EDGE_LOOP('',(#650));
#235=EDGE_LOOP('',(#651,#652,#653,#654));
#236=EDGE_LOOP('',(#655));
#237=EDGE_LOOP('',(#656));
#238=EDGE_LOOP('',(#657,#658,#659,#660));
#239=EDGE_LOOP('',(#661));
#240=EDGE_LOOP('',(#662));
#241=EDGE_LOOP('',(#663,#664,#665,#666));
#242=EDGE_LOOP('',(#667));
#243=EDGE_LOOP('',(#668));
#244=EDGE_LOOP('',(#669,#670,#671,#672));
#245=EDGE_LOOP('',(#673));
#246=EDGE_LOOP('',(#674));
#247=EDGE_LOOP('',(#675,#676,#677,#678));
#248=EDGE_LOOP('',(#679));
#249=EDGE_LOOP('',(#680));
#250=EDGE_LOOP('',(#681,#682,#683,#684));
#251=EDGE_LOOP('',(#685));
#252=EDGE_LOOP('',(#686));
#253=EDGE_LOOP('',(#687,#688,#689,#690));
#254=EDGE_LOOP('',(#691,#692,#693,#694));
#255=EDGE_LOOP('',(#695,#696,#697,#698));
#256=EDGE_LOOP('',(#699,#700,#701,#702));
#257=EDGE_LOOP('',(#703,#704,#705,#706));
#258=EDGE_LOOP('',(#707,#708,#709,#710));
#259=EDGE_LOOP('',(#711,#712,#713,#714));
#260=EDGE_LOOP('',(#715,#716,#717,#718));
#261=EDGE_LOOP('',(#719,#720,#721,#722));
#262=EDGE_LOOP('',(#723));
#263=EDGE_LOOP('',(#724));
#264=EDGE_LOOP('',(#725));
#265=EDGE_LOOP('',(#726));
#266=EDGE_LOOP('',(#727,#728,#729,#730));
#267=EDGE_LOOP('',(#731));
#268=EDGE_LOOP('',(#732));
#269=EDGE_LOOP('',(#733));
#270=EDGE_LOOP('',(#734));
#271=LINE('',#1278,#327);
#272=LINE('',#1280,#328);
#273=LINE('',#1282,#329);
#274=LINE('',#1283,#330);
#275=LINE('',#1286,#331);
#276=LINE('',#1288,#332);
#277=LINE('',#1289,#333);
#278=LINE('',#1292,#334);
#279=LINE('',#1294,#335);
#280=LINE('',#1295,#336);
#281=LINE('',#1298,#337);
#282=LINE('',#1300,#338);
#283=LINE('',#1301,#339);
#284=LINE('',#1304,#340);
#285=LINE('',#1306,#341);
#286=LINE('',#1307,#342);
#287=LINE('',#1310,#343);
#288=LINE('',#1312,#344);
#289=LINE('',#1313,#345);
#290=LINE('',#1316,#346);
#291=LINE('',#1318,#347);
#292=LINE('',#1319,#348);
#293=LINE('',#1321,#349);
#294=LINE('',#1323,#350);
#295=LINE('',#1329,#351);
#296=LINE('',#1337,#352);
#297=LINE('',#1345,#353);
#298=LINE('',#1353,#354);
#299=LINE('',#1361,#355);
#300=LINE('',#1369,#356);
#301=LINE('',#1377,#357);
#302=LINE('',#1385,#358);
#303=LINE('',#1393,#359);
#304=LINE('',#1401,#360);
#305=LINE('',#1409,#361);
#306=LINE('',#1417,#362);
#307=LINE('',#1425,#363);
#308=LINE('',#1433,#364);
#309=LINE('',#1441,#365);
#310=LINE('',#1449,#366);
#311=LINE('',#1457,#367);
#312=LINE('',#1463,#368);
#313=LINE('',#1469,#369);
#314=LINE('',#1475,#370);
#315=LINE('',#1480,#371);
#316=LINE('',#1482,#372);
#317=LINE('',#1484,#373);
#318=LINE('',#1485,#374);
#319=LINE('',#1488,#375);
#320=LINE('',#1490,#376);
#321=LINE('',#1491,#377);
#322=LINE('',#1494,#378);
#323=LINE('',#1496,#379);
#324=LINE('',#1497,#380);
#325=LINE('',#1499,#381);
#326=LINE('',#1500,#382);
#327=VECTOR('',#999,10.);
#328=VECTOR('',#1000,10.);
#329=VECTOR('',#1001,10.);
#330=VECTOR('',#1002,10.);
#331=VECTOR('',#1005,10.);
#332=VECTOR('',#1006,10.);
#333=VECTOR('',#1007,10.);
#334=VECTOR('',#1010,10.);
#335=VECTOR('',#1011,10.);
#336=VECTOR('',#1012,10.);
#337=VECTOR('',#1015,10.);
#338=VECTOR('',#1016,10.);
#339=VECTOR('',#1017,10.);
#340=VECTOR('',#1020,10.);
#341=VECTOR('',#1021,10.);
#342=VECTOR('',#1022,10.);
#343=VECTOR('',#1025,10.);
#344=VECTOR('',#1026,10.);
#345=VECTOR('',#1027,10.);
#346=VECTOR('',#1030,10.);
#347=VECTOR('',#1031,10.);
#348=VECTOR('',#1032,10.);
#349=VECTOR('',#1035,10.);
#350=VECTOR('',#1038,10.);
#351=VECTOR('',#1045,0.25);
#352=VECTOR('',#1056,0.25);
#353=VECTOR('',#1067,0.25);
#354=VECTOR('',#1078,0.25);
#355=VECTOR('',#1089,0.25);
#356=VECTOR('',#1100,0.25);
#357=VECTOR('',#1111,0.25);
#358=VECTOR('',#1122,0.25);
#359=VECTOR('',#1133,0.25);
#360=VECTOR('',#1144,0.25);
#361=VECTOR('',#1155,0.25);
#362=VECTOR('',#1166,0.25);
#363=VECTOR('',#1177,0.25);
#364=VECTOR('',#1188,0.25);
#365=VECTOR('',#1199,0.25);
#366=VECTOR('',#1210,0.25);
#367=VECTOR('',#1221,1.8);
#368=VECTOR('',#1228,1.8);
#369=VECTOR('',#1235,1.8);
#370=VECTOR('',#1242,1.8);
#371=VECTOR('',#1247,10.);
#372=VECTOR('',#1248,10.);
#373=VECTOR('',#1249,10.);
#374=VECTOR('',#1250,10.);
#375=VECTOR('',#1253,10.);
#376=VECTOR('',#1254,10.);
#377=VECTOR('',#1255,10.);
#378=VECTOR('',#1258,10.);
#379=VECTOR('',#1259,10.);
#380=VECTOR('',#1260,10.);
#381=VECTOR('',#1263,10.);
#382=VECTOR('',#1264,10.);
#383=VERTEX_POINT('',#1276);
#384=VERTEX_POINT('',#1277);
#385=VERTEX_POINT('',#1279);
#386=VERTEX_POINT('',#1281);
#387=VERTEX_POINT('',#1285);
#388=VERTEX_POINT('',#1287);
#389=VERTEX_POINT('',#1291);
#390=VERTEX_POINT('',#1293);
#391=VERTEX_POINT('',#1297);
#392=VERTEX_POINT('',#1299);
#393=VERTEX_POINT('',#1303);
#394=VERTEX_POINT('',#1305);
#395=VERTEX_POINT('',#1309);
#396=VERTEX_POINT('',#1311);
#397=VERTEX_POINT('',#1315);
#398=VERTEX_POINT('',#1317);
#399=VERTEX_POINT('',#1326);
#400=VERTEX_POINT('',#1328);
#401=VERTEX_POINT('',#1334);
#402=VERTEX_POINT('',#1336);
#403=VERTEX_POINT('',#1342);
#404=VERTEX_POINT('',#1344);
#405=VERTEX_POINT('',#1350);
#406=VERTEX_POINT('',#1352);
#407=VERTEX_POINT('',#1358);
#408=VERTEX_POINT('',#1360);
#409=VERTEX_POINT('',#1366);
#410=VERTEX_POINT('',#1368);
#411=VERTEX_POINT('',#1374);
#412=VERTEX_POINT('',#1376);
#413=VERTEX_POINT('',#1382);
#414=VERTEX_POINT('',#1384);
#415=VERTEX_POINT('',#1390);
#416=VERTEX_POINT('',#1392);
#417=VERTEX_POINT('',#1398);
#418=VERTEX_POINT('',#1400);
#419=VERTEX_POINT('',#1406);
#420=VERTEX_POINT('',#1408);
#421=VERTEX_POINT('',#1414);
#422=VERTEX_POINT('',#1416);
#423=VERTEX_POINT('',#1422);
#424=VERTEX_POINT('',#1424);
#425=VERTEX_POINT('',#1430);
#426=VERTEX_POINT('',#1432);
#427=VERTEX_POINT('',#1438);
#428=VERTEX_POINT('',#1440);
#429=VERTEX_POINT('',#1446);
#430=VERTEX_POINT('',#1448);
#431=VERTEX_POINT('',#1454);
#432=VERTEX_POINT('',#1456);
#433=VERTEX_POINT('',#1460);
#434=VERTEX_POINT('',#1462);
#435=VERTEX_POINT('',#1466);
#436=VERTEX_POINT('',#1468);
#437=VERTEX_POINT('',#1472);
#438=VERTEX_POINT('',#1474);
#439=VERTEX_POINT('',#1478);
#440=VERTEX_POINT('',#1479);
#441=VERTEX_POINT('',#1481);
#442=VERTEX_POINT('',#1483);
#443=VERTEX_POINT('',#1487);
#444=VERTEX_POINT('',#1489);
#445=VERTEX_POINT('',#1493);
#446=VERTEX_POINT('',#1495);
#447=EDGE_CURVE('',#383,#384,#271,.T.);
#448=EDGE_CURVE('',#383,#385,#272,.T.);
#449=EDGE_CURVE('',#386,#385,#273,.T.);
#450=EDGE_CURVE('',#384,#386,#274,.T.);
#451=EDGE_CURVE('',#387,#383,#275,.T.);
#452=EDGE_CURVE('',#387,#388,#276,.T.);
#453=EDGE_CURVE('',#385,#388,#277,.T.);
#454=EDGE_CURVE('',#389,#387,#278,.T.);
#455=EDGE_CURVE('',#390,#389,#279,.T.);
#456=EDGE_CURVE('',#388,#390,#280,.T.);
#457=EDGE_CURVE('',#391,#386,#281,.T.);
#458=EDGE_CURVE('',#392,#391,#282,.T.);
#459=EDGE_CURVE('',#384,#392,#283,.T.);
#460=EDGE_CURVE('',#393,#389,#284,.T.);
#461=EDGE_CURVE('',#394,#393,#285,.T.);
#462=EDGE_CURVE('',#390,#394,#286,.T.);
#463=EDGE_CURVE('',#392,#395,#287,.T.);
#464=EDGE_CURVE('',#396,#395,#288,.T.);
#465=EDGE_CURVE('',#393,#396,#289,.T.);
#466=EDGE_CURVE('',#394,#397,#290,.T.);
#467=EDGE_CURVE('',#398,#397,#291,.T.);
#468=EDGE_CURVE('',#391,#398,#292,.T.);
#469=EDGE_CURVE('',#395,#398,#293,.T.);
#470=EDGE_CURVE('',#397,#396,#294,.T.);
#471=EDGE_CURVE('',#399,#399,#31,.T.);
#472=EDGE_CURVE('',#399,#400,#295,.T.);
#473=EDGE_CURVE('',#400,#400,#32,.T.);
#474=EDGE_CURVE('',#401,#401,#33,.T.);
#475=EDGE_CURVE('',#401,#402,#296,.T.);
#476=EDGE_CURVE('',#402,#402,#34,.T.);
#477=EDGE_CURVE('',#403,#403,#35,.T.);
#478=EDGE_CURVE('',#403,#404,#297,.T.);
#479=EDGE_CURVE('',#404,#404,#36,.T.);
#480=EDGE_CURVE('',#405,#405,#37,.T.);
#481=EDGE_CURVE('',#405,#406,#298,.T.);
#482=EDGE_CURVE('',#406,#406,#38,.T.);
#483=EDGE_CURVE('',#407,#407,#39,.T.);
#484=EDGE_CURVE('',#407,#408,#299,.T.);
#485=EDGE_CURVE('',#408,#408,#40,.T.);
#486=EDGE_CURVE('',#409,#409,#41,.T.);
#487=EDGE_CURVE('',#409,#410,#300,.T.);
#488=EDGE_CURVE('',#410,#410,#42,.T.);
#489=EDGE_CURVE('',#411,#411,#43,.T.);
#490=EDGE_CURVE('',#411,#412,#301,.T.);
#491=EDGE_CURVE('',#412,#412,#44,.T.);
#492=EDGE_CURVE('',#413,#413,#45,.T.);
#493=EDGE_CURVE('',#413,#414,#302,.T.);
#494=EDGE_CURVE('',#414,#414,#46,.T.);
#495=EDGE_CURVE('',#415,#415,#47,.T.);
#496=EDGE_CURVE('',#415,#416,#303,.T.);
#497=EDGE_CURVE('',#416,#416,#48,.T.);
#498=EDGE_CURVE('',#417,#417,#49,.T.);
#499=EDGE_CURVE('',#417,#418,#304,.T.);
#500=EDGE_CURVE('',#418,#418,#50,.T.);
#501=EDGE_CURVE('',#419,#419,#51,.T.);
#502=EDGE_CURVE('',#419,#420,#305,.T.);
#503=EDGE_CURVE('',#420,#420,#52,.T.);
#504=EDGE_CURVE('',#421,#421,#53,.T.);
#505=EDGE_CURVE('',#421,#422,#306,.T.);
#506=EDGE_CURVE('',#422,#422,#54,.T.);
#507=EDGE_CURVE('',#423,#423,#55,.T.);
#508=EDGE_CURVE('',#423,#424,#307,.T.);
#509=EDGE_CURVE('',#424,#424,#56,.T.);
#510=EDGE_CURVE('',#425,#425,#57,.T.);
#511=EDGE_CURVE('',#425,#426,#308,.T.);
#512=EDGE_CURVE('',#426,#426,#58,.T.);
#513=EDGE_CURVE('',#427,#427,#59,.T.);
#514=EDGE_CURVE('',#427,#428,#309,.T.);
#515=EDGE_CURVE('',#428,#428,#60,.T.);
#516=EDGE_CURVE('',#429,#429,#61,.T.);
#517=EDGE_CURVE('',#429,#430,#310,.T.);
#518=EDGE_CURVE('',#430,#430,#62,.T.);
#519=EDGE_CURVE('',#431,#431,#63,.T.);
#520=EDGE_CURVE('',#431,#432,#311,.T.);
#521=EDGE_CURVE('',#432,#432,#64,.T.);
#522=EDGE_CURVE('',#433,#433,#65,.T.);
#523=EDGE_CURVE('',#433,#434,#312,.T.);
#524=EDGE_CURVE('',#434,#434,#66,.T.);
#525=EDGE_CURVE('',#435,#435,#67,.T.);
#526=EDGE_CURVE('',#435,#436,#313,.T.);
#527=EDGE_CURVE('',#436,#436,#68,.T.);
#528=EDGE_CURVE('',#437,#437,#69,.T.);
#529=EDGE_CURVE('',#437,#438,#314,.T.);
#530=EDGE_CURVE('',#438,#438,#70,.T.);
#531=EDGE_CURVE('',#439,#440,#315,.T.);
#532=EDGE_CURVE('',#440,#441,#316,.T.);
#533=EDGE_CURVE('',#442,#441,#317,.T.);
#534=EDGE_CURVE('',#439,#442,#318,.T.);
#535=EDGE_CURVE('',#443,#439,#319,.T.);
#536=EDGE_CURVE('',#444,#442,#320,.T.);
#537=EDGE_CURVE('',#443,#444,#321,.T.);
#538=EDGE_CURVE('',#445,#443,#322,.T.);
#539=EDGE_CURVE('',#446,#444,#323,.T.);
#540=EDGE_CURVE('',#445,#446,#324,.T.);
#541=EDGE_CURVE('',#440,#445,#325,.T.);
#542=EDGE_CURVE('',#441,#446,#326,.T.);
#543=ORIENTED_EDGE('',*,*,#447,.F.);
#544=ORIENTED_EDGE('',*,*,#448,.T.);
#545=ORIENTED_EDGE('',*,*,#449,.F.);
#546=ORIENTED_EDGE('',*,*,#450,.F.);
#547=ORIENTED_EDGE('',*,*,#451,.F.);
#548=ORIENTED_EDGE('',*,*,#452,.T.);
#549=ORIENTED_EDGE('',*,*,#453,.F.);
#550=ORIENTED_EDGE('',*,*,#448,.F.);
#551=ORIENTED_EDGE('',*,*,#454,.F.);
#552=ORIENTED_EDGE('',*,*,#455,.F.);
#553=ORIENTED_EDGE('',*,*,#456,.F.);
#554=ORIENTED_EDGE('',*,*,#452,.F.);
#555=ORIENTED_EDGE('',*,*,#450,.T.);
#556=ORIENTED_EDGE('',*,*,#457,.F.);
#557=ORIENTED_EDGE('',*,*,#458,.F.);
#558=ORIENTED_EDGE('',*,*,#459,.F.);
#559=ORIENTED_EDGE('',*,*,#455,.T.);
#560=ORIENTED_EDGE('',*,*,#460,.F.);
#561=ORIENTED_EDGE('',*,*,#461,.F.);
#562=ORIENTED_EDGE('',*,*,#462,.F.);
#563=ORIENTED_EDGE('',*,*,#454,.T.);
#564=ORIENTED_EDGE('',*,*,#451,.T.);
#565=ORIENTED_EDGE('',*,*,#447,.T.);
#566=ORIENTED_EDGE('',*,*,#459,.T.);
#567=ORIENTED_EDGE('',*,*,#463,.T.);
#568=ORIENTED_EDGE('',*,*,#464,.F.);
#569=ORIENTED_EDGE('',*,*,#465,.F.);
#570=ORIENTED_EDGE('',*,*,#460,.T.);
#571=ORIENTED_EDGE('',*,*,#456,.T.);
#572=ORIENTED_EDGE('',*,*,#462,.T.);
#573=ORIENTED_EDGE('',*,*,#466,.T.);
#574=ORIENTED_EDGE('',*,*,#467,.F.);
#575=ORIENTED_EDGE('',*,*,#468,.F.);
#576=ORIENTED_EDGE('',*,*,#457,.T.);
#577=ORIENTED_EDGE('',*,*,#449,.T.);
#578=ORIENTED_EDGE('',*,*,#453,.T.);
#579=ORIENTED_EDGE('',*,*,#458,.T.);
#580=ORIENTED_EDGE('',*,*,#468,.T.);
#581=ORIENTED_EDGE('',*,*,#469,.F.);
#582=ORIENTED_EDGE('',*,*,#463,.F.);
#583=ORIENTED_EDGE('',*,*,#461,.T.);
#584=ORIENTED_EDGE('',*,*,#465,.T.);
#585=ORIENTED_EDGE('',*,*,#470,.F.);
#586=ORIENTED_EDGE('',*,*,#466,.F.);
#587=ORIENTED_EDGE('',*,*,#470,.T.);
#588=ORIENTED_EDGE('',*,*,#464,.T.);
#589=ORIENTED_EDGE('',*,*,#469,.T.);
#590=ORIENTED_EDGE('',*,*,#467,.T.);
#591=ORIENTED_EDGE('',*,*,#471,.F.);
#592=ORIENTED_EDGE('',*,*,#472,.T.);
#593=ORIENTED_EDGE('',*,*,#473,.T.);
#594=ORIENTED_EDGE('',*,*,#472,.F.);
#595=ORIENTED_EDGE('',*,*,#471,.T.);
#596=ORIENTED_EDGE('',*,*,#473,.F.);
#597=ORIENTED_EDGE('',*,*,#474,.F.);
#598=ORIENTED_EDGE('',*,*,#475,.T.);
#599=ORIENTED_EDGE('',*,*,#476,.T.);
#600=ORIENTED_EDGE('',*,*,#475,.F.);
#601=ORIENTED_EDGE('',*,*,#474,.T.);
#602=ORIENTED_EDGE('',*,*,#476,.F.);
#603=ORIENTED_EDGE('',*,*,#477,.F.);
#604=ORIENTED_EDGE('',*,*,#478,.T.);
#605=ORIENTED_EDGE('',*,*,#479,.T.);
#606=ORIENTED_EDGE('',*,*,#478,.F.);
#607=ORIENTED_EDGE('',*,*,#477,.T.);
#608=ORIENTED_EDGE('',*,*,#479,.F.);
#609=ORIENTED_EDGE('',*,*,#480,.F.);
#610=ORIENTED_EDGE('',*,*,#481,.T.);
#611=ORIENTED_EDGE('',*,*,#482,.T.);
#612=ORIENTED_EDGE('',*,*,#481,.F.);
#613=ORIENTED_EDGE('',*,*,#480,.T.);
#614=ORIENTED_EDGE('',*,*,#482,.F.);
#615=ORIENTED_EDGE('',*,*,#483,.F.);
#616=ORIENTED_EDGE('',*,*,#484,.T.);
#617=ORIENTED_EDGE('',*,*,#485,.T.);
#618=ORIENTED_EDGE('',*,*,#484,.F.);
#619=ORIENTED_EDGE('',*,*,#483,.T.);
#620=ORIENTED_EDGE('',*,*,#485,.F.);
#621=ORIENTED_EDGE('',*,*,#486,.F.);
#622=ORIENTED_EDGE('',*,*,#487,.T.);
#623=ORIENTED_EDGE('',*,*,#488,.T.);
#624=ORIENTED_EDGE('',*,*,#487,.F.);
#625=ORIENTED_EDGE('',*,*,#486,.T.);
#626=ORIENTED_EDGE('',*,*,#488,.F.);
#627=ORIENTED_EDGE('',*,*,#489,.F.);
#628=ORIENTED_EDGE('',*,*,#490,.T.);
#629=ORIENTED_EDGE('',*,*,#491,.T.);
#630=ORIENTED_EDGE('',*,*,#490,.F.);
#631=ORIENTED_EDGE('',*,*,#489,.T.);
#632=ORIENTED_EDGE('',*,*,#491,.F.);
#633=ORIENTED_EDGE('',*,*,#492,.F.);
#634=ORIENTED_EDGE('',*,*,#493,.T.);
#635=ORIENTED_EDGE('',*,*,#494,.T.);
#636=ORIENTED_EDGE('',*,*,#493,.F.);
#637=ORIENTED_EDGE('',*,*,#492,.T.);
#638=ORIENTED_EDGE('',*,*,#494,.F.);
#639=ORIENTED_EDGE('',*,*,#495,.F.);
#640=ORIENTED_EDGE('',*,*,#496,.T.);
#641=ORIENTED_EDGE('',*,*,#497,.T.);
#642=ORIENTED_EDGE('',*,*,#496,.F.);
#643=ORIENTED_EDGE('',*,*,#495,.T.);
#644=ORIENTED_EDGE('',*,*,#497,.F.);
#645=ORIENTED_EDGE('',*,*,#498,.F.);
#646=ORIENTED_EDGE('',*,*,#499,.T.);
#647=ORIENTED_EDGE('',*,*,#500,.T.);
#648=ORIENTED_EDGE('',*,*,#499,.F.);
#649=ORIENTED_EDGE('',*,*,#498,.T.);
#650=ORIENTED_EDGE('',*,*,#500,.F.);
#651=ORIENTED_EDGE('',*,*,#501,.F.);
#652=ORIENTED_EDGE('',*,*,#502,.T.);
#653=ORIENTED_EDGE('',*,*,#503,.T.);
#654=ORIENTED_EDGE('',*,*,#502,.F.);
#655=ORIENTED_EDGE('',*,*,#501,.T.);
#656=ORIENTED_EDGE('',*,*,#503,.F.);
#657=ORIENTED_EDGE('',*,*,#504,.F.);
#658=ORIENTED_EDGE('',*,*,#505,.T.);
#659=ORIENTED_EDGE('',*,*,#506,.T.);
#660=ORIENTED_EDGE('',*,*,#505,.F.);
#661=ORIENTED_EDGE('',*,*,#504,.T.);
#662=ORIENTED_EDGE('',*,*,#506,.F.);
#663=ORIENTED_EDGE('',*,*,#507,.F.);
#664=ORIENTED_EDGE('',*,*,#508,.T.);
#665=ORIENTED_EDGE('',*,*,#509,.T.);
#666=ORIENTED_EDGE('',*,*,#508,.F.);
#667=ORIENTED_EDGE('',*,*,#507,.T.);
#668=ORIENTED_EDGE('',*,*,#509,.F.);
#669=ORIENTED_EDGE('',*,*,#510,.F.);
#670=ORIENTED_EDGE('',*,*,#511,.T.);
#671=ORIENTED_EDGE('',*,*,#512,.T.);
#672=ORIENTED_EDGE('',*,*,#511,.F.);
#673=ORIENTED_EDGE('',*,*,#510,.T.);
#674=ORIENTED_EDGE('',*,*,#512,.F.);
#675=ORIENTED_EDGE('',*,*,#513,.F.);
#676=ORIENTED_EDGE('',*,*,#514,.T.);
#677=ORIENTED_EDGE('',*,*,#515,.T.);
#678=ORIENTED_EDGE('',*,*,#514,.F.);
#679=ORIENTED_EDGE('',*,*,#513,.T.);
#680=ORIENTED_EDGE('',*,*,#515,.F.);
#681=ORIENTED_EDGE('',*,*,#516,.F.);
#682=ORIENTED_EDGE('',*,*,#517,.T.);
#683=ORIENTED_EDGE('',*,*,#518,.T.);
#684=ORIENTED_EDGE('',*,*,#517,.F.);
#685=ORIENTED_EDGE('',*,*,#516,.T.);
#686=ORIENTED_EDGE('',*,*,#518,.F.);
#687=ORIENTED_EDGE('',*,*,#519,.F.);
#688=ORIENTED_EDGE('',*,*,#520,.T.);
#689=ORIENTED_EDGE('',*,*,#521,.T.);
#690=ORIENTED_EDGE('',*,*,#520,.F.);
#691=ORIENTED_EDGE('',*,*,#522,.F.);
#692=ORIENTED_EDGE('',*,*,#523,.T.);
#693=ORIENTED_EDGE('',*,*,#524,.T.);
#694=ORIENTED_EDGE('',*,*,#523,.F.);
#695=ORIENTED_EDGE('',*,*,#525,.F.);
#696=ORIENTED_EDGE('',*,*,#526,.T.);
#697=ORIENTED_EDGE('',*,*,#527,.T.);
#698=ORIENTED_EDGE('',*,*,#526,.F.);
#699=ORIENTED_EDGE('',*,*,#528,.F.);
#700=ORIENTED_EDGE('',*,*,#529,.T.);
#701=ORIENTED_EDGE('',*,*,#530,.T.);
#702=ORIENTED_EDGE('',*,*,#529,.F.);
#703=ORIENTED_EDGE('',*,*,#531,.T.);
#704=ORIENTED_EDGE('',*,*,#532,.T.);
#705=ORIENTED_EDGE('',*,*,#533,.F.);
#706=ORIENTED_EDGE('',*,*,#534,.F.);
#707=ORIENTED_EDGE('',*,*,#535,.T.);
#708=ORIENTED_EDGE('',*,*,#534,.T.);
#709=ORIENTED_EDGE('',*,*,#536,.F.);
#710=ORIENTED_EDGE('',*,*,#537,.F.);
#711=ORIENTED_EDGE('',*,*,#538,.T.);
#712=ORIENTED_EDGE('',*,*,#537,.T.);
#713=ORIENTED_EDGE('',*,*,#539,.F.);
#714=ORIENTED_EDGE('',*,*,#540,.F.);
#715=ORIENTED_EDGE('',*,*,#541,.T.);
#716=ORIENTED_EDGE('',*,*,#540,.T.);
#717=ORIENTED_EDGE('',*,*,#542,.F.);
#718=ORIENTED_EDGE('',*,*,#532,.F.);
#719=ORIENTED_EDGE('',*,*,#542,.T.);
#720=ORIENTED_EDGE('',*,*,#539,.T.);
#721=ORIENTED_EDGE('',*,*,#536,.T.);
#722=ORIENTED_EDGE('',*,*,#533,.T.);
#723=ORIENTED_EDGE('',*,*,#528,.T.);
#724=ORIENTED_EDGE('',*,*,#525,.T.);
#725=ORIENTED_EDGE('',*,*,#522,.T.);
#726=ORIENTED_EDGE('',*,*,#519,.T.);
#727=ORIENTED_EDGE('',*,*,#541,.F.);
#728=ORIENTED_EDGE('',*,*,#531,.F.);
#729=ORIENTED_EDGE('',*,*,#535,.F.);
#730=ORIENTED_EDGE('',*,*,#538,.F.);
#731=ORIENTED_EDGE('',*,*,#530,.F.);
#732=ORIENTED_EDGE('',*,*,#527,.F.);
#733=ORIENTED_EDGE('',*,*,#524,.F.);
#734=ORIENTED_EDGE('',*,*,#521,.F.);
#735=PLANE('',#883);
#736=PLANE('',#884);
#737=PLANE('',#885);
#738=PLANE('',#886);
#739=PLANE('',#887);
#740=PLANE('',#888);
#741=PLANE('',#889);
#742=PLANE('',#890);
#743=PLANE('',#891);
#744=PLANE('',#892);
#745=PLANE('',#896);
#746=PLANE('',#897);
#747=PLANE('',#901);
#748=PLANE('',#902);
#749=PLANE('',#906);
#750=PLANE('',#907);
#751=PLANE('',#911);
#752=PLANE('',#912);
#753=PLANE('',#916);
#754=PLANE('',#917);
#755=PLANE('',#921);
#756=PLANE('',#922);
#757=PLANE('',#926);
#758=PLANE('',#927);
#759=PLANE('',#931);
#760=PLANE('',#932);
#761=PLANE('',#936);
#762=PLANE('',#937);
#763=PLANE('',#941);
#764=PLANE('',#942);
#765=PLANE('',#946);
#766=PLANE('',#947);
#767=PLANE('',#951);
#768=PLANE('',#952);
#769=PLANE('',#956);
#770=PLANE('',#957);
#771=PLANE('',#961);
#772=PLANE('',#962);
#773=PLANE('',#966);
#774=PLANE('',#967);
#775=PLANE('',#971);
#776=PLANE('',#972);
#777=PLANE('',#985);
#778=PLANE('',#986);
#779=PLANE('',#987);
#780=PLANE('',#988);
#781=PLANE('',#989);
#782=PLANE('',#990);
#783=ADVANCED_FACE('',(#127),#735,.F.);
#784=ADVANCED_FACE('',(#128),#736,.F.);
#785=ADVANCED_FACE('',(#129),#737,.F.);
#786=ADVANCED_FACE('',(#130),#738,.F.);
#787=ADVANCED_FACE('',(#131),#739,.F.);
#788=ADVANCED_FACE('',(#132),#740,.T.);
#789=ADVANCED_FACE('',(#133),#741,.T.);
#790=ADVANCED_FACE('',(#134),#742,.T.);
#791=ADVANCED_FACE('',(#135),#743,.T.);
#792=ADVANCED_FACE('',(#136),#744,.T.);
#793=ADVANCED_FACE('',(#137),#71,.T.);
#794=ADVANCED_FACE('',(#138),#745,.T.);
#795=ADVANCED_FACE('',(#139),#746,.F.);
#796=ADVANCED_FACE('',(#140),#72,.T.);
#797=ADVANCED_FACE('',(#141),#747,.T.);
#798=ADVANCED_FACE('',(#142),#748,.F.);
#799=ADVANCED_FACE('',(#143),#73,.T.);
#800=ADVANCED_FACE('',(#144),#749,.T.);
#801=ADVANCED_FACE('',(#145),#750,.F.);
#802=ADVANCED_FACE('',(#146),#74,.T.);
#803=ADVANCED_FACE('',(#147),#751,.T.);
#804=ADVANCED_FACE('',(#148),#752,.F.);
#805=ADVANCED_FACE('',(#149),#75,.T.);
#806=ADVANCED_FACE('',(#150),#753,.T.);
#807=ADVANCED_FACE('',(#151),#754,.F.);
#808=ADVANCED_FACE('',(#152),#76,.T.);
#809=ADVANCED_FACE('',(#153),#755,.T.);
#810=ADVANCED_FACE('',(#154),#756,.F.);
#811=ADVANCED_FACE('',(#155),#77,.T.);
#812=ADVANCED_FACE('',(#156),#757,.T.);
#813=ADVANCED_FACE('',(#157),#758,.F.);
#814=ADVANCED_FACE('',(#158),#78,.T.);
#815=ADVANCED_FACE('',(#159),#759,.T.);
#816=ADVANCED_FACE('',(#160),#760,.F.);
#817=ADVANCED_FACE('',(#161),#79,.T.);
#818=ADVANCED_FACE('',(#162),#761,.T.);
#819=ADVANCED_FACE('',(#163),#762,.F.);
#820=ADVANCED_FACE('',(#164),#80,.T.);
#821=ADVANCED_FACE('',(#165),#763,.T.);
#822=ADVANCED_FACE('',(#166),#764,.F.);
#823=ADVANCED_FACE('',(#167),#81,.T.);
#824=ADVANCED_FACE('',(#168),#765,.T.);
#825=ADVANCED_FACE('',(#169),#766,.F.);
#826=ADVANCED_FACE('',(#170),#82,.T.);
#827=ADVANCED_FACE('',(#171),#767,.T.);
#828=ADVANCED_FACE('',(#172),#768,.F.);
#829=ADVANCED_FACE('',(#173),#83,.T.);
#830=ADVANCED_FACE('',(#174),#769,.T.);
#831=ADVANCED_FACE('',(#175),#770,.F.);
#832=ADVANCED_FACE('',(#176),#84,.T.);
#833=ADVANCED_FACE('',(#177),#771,.T.);
#834=ADVANCED_FACE('',(#178),#772,.F.);
#835=ADVANCED_FACE('',(#179),#85,.T.);
#836=ADVANCED_FACE('',(#180),#773,.T.);
#837=ADVANCED_FACE('',(#181),#774,.F.);
#838=ADVANCED_FACE('',(#182),#86,.T.);
#839=ADVANCED_FACE('',(#183),#775,.T.);
#840=ADVANCED_FACE('',(#184),#776,.F.);
#841=ADVANCED_FACE('',(#185),#87,.F.);
#842=ADVANCED_FACE('',(#186),#88,.F.);
#843=ADVANCED_FACE('',(#187),#89,.F.);
#844=ADVANCED_FACE('',(#188),#90,.F.);
#845=ADVANCED_FACE('',(#189),#777,.T.);
#846=ADVANCED_FACE('',(#190),#778,.T.);
#847=ADVANCED_FACE('',(#191),#779,.T.);
#848=ADVANCED_FACE('',(#192),#780,.T.);
#849=ADVANCED_FACE('',(#193,#19,#20,#21,#22),#781,.T.);
#850=ADVANCED_FACE('',(#194,#23,#24,#25,#26),#782,.F.);
#851=CLOSED_SHELL('',(#783,#784,#785,#786,#787,#788,#789,#790,#791,#792));
#852=CLOSED_SHELL('',(#793,#794,#795));
#853=CLOSED_SHELL('',(#796,#797,#798));
#854=CLOSED_SHELL('',(#799,#800,#801));
#855=CLOSED_SHELL('',(#802,#803,#804));
#856=CLOSED_SHELL('',(#805,#806,#807));
#857=CLOSED_SHELL('',(#808,#809,#810));
#858=CLOSED_SHELL('',(#811,#812,#813));
#859=CLOSED_SHELL('',(#814,#815,#816));
#860=CLOSED_SHELL('',(#817,#818,#819));
#861=CLOSED_SHELL('',(#820,#821,#822));
#862=CLOSED_SHELL('',(#823,#824,#825));
#863=CLOSED_SHELL('',(#826,#827,#828));
#864=CLOSED_SHELL('',(#829,#830,#831));
#865=CLOSED_SHELL('',(#832,#833,#834));
#866=CLOSED_SHELL('',(#835,#836,#837));
#867=CLOSED_SHELL('',(#838,#839,#840));
#868=CLOSED_SHELL('',(#841,#842,#843,#844,#845,#846,#847,#848,#849,#850));
#869=DERIVED_UNIT_ELEMENT(#871,1.);
#870=DERIVED_UNIT_ELEMENT(#1512,-3.);
#871=(
MASS_UNIT()
NAMED_UNIT(*)
SI_UNIT(.KILO.,.GRAM.)
);
#872=DERIVED_UNIT((#869,#870));
#873=MEASURE_REPRESENTATION_ITEM('density measure',
POSITIVE_RATIO_MEASURE(7850.),#872);
#874=PROPERTY_DEFINITION_REPRESENTATION(#879,#876);
#875=PROPERTY_DEFINITION_REPRESENTATION(#880,#877);
#876=REPRESENTATION('material name',(#878),#1509);
#877=REPRESENTATION('density',(#873),#1509);
#878=DESCRIPTIVE_REPRESENTATION_ITEM('Steel','Steel');
#879=PROPERTY_DEFINITION('material property','material name',#1525);
#880=PROPERTY_DEFINITION('material property','density of part',#1525);
#881=AXIS2_PLACEMENT_3D('',#1273,#993,#994);
#882=AXIS2_PLACEMENT_3D('',#1274,#995,#996);
#883=AXIS2_PLACEMENT_3D('',#1275,#997,#998);
#884=AXIS2_PLACEMENT_3D('',#1284,#1003,#1004);
#885=AXIS2_PLACEMENT_3D('',#1290,#1008,#1009);
#886=AXIS2_PLACEMENT_3D('',#1296,#1013,#1014);
#887=AXIS2_PLACEMENT_3D('',#1302,#1018,#1019);
#888=AXIS2_PLACEMENT_3D('',#1308,#1023,#1024);
#889=AXIS2_PLACEMENT_3D('',#1314,#1028,#1029);
#890=AXIS2_PLACEMENT_3D('',#1320,#1033,#1034);
#891=AXIS2_PLACEMENT_3D('',#1322,#1036,#1037);
#892=AXIS2_PLACEMENT_3D('',#1324,#1039,#1040);
#893=AXIS2_PLACEMENT_3D('',#1325,#1041,#1042);
#894=AXIS2_PLACEMENT_3D('',#1327,#1043,#1044);
#895=AXIS2_PLACEMENT_3D('',#1330,#1046,#1047);
#896=AXIS2_PLACEMENT_3D('',#1331,#1048,#1049);
#897=AXIS2_PLACEMENT_3D('',#1332,#1050,#1051);
#898=AXIS2_PLACEMENT_3D('',#1333,#1052,#1053);
#899=AXIS2_PLACEMENT_3D('',#1335,#1054,#1055);
#900=AXIS2_PLACEMENT_3D('',#1338,#1057,#1058);
#901=AXIS2_PLACEMENT_3D('',#1339,#1059,#1060);
#902=AXIS2_PLACEMENT_3D('',#1340,#1061,#1062);
#903=AXIS2_PLACEMENT_3D('',#1341,#1063,#1064);
#904=AXIS2_PLACEMENT_3D('',#1343,#1065,#1066);
#905=AXIS2_PLACEMENT_3D('',#1346,#1068,#1069);
#906=AXIS2_PLACEMENT_3D('',#1347,#1070,#1071);
#907=AXIS2_PLACEMENT_3D('',#1348,#1072,#1073);
#908=AXIS2_PLACEMENT_3D('',#1349,#1074,#1075);
#909=AXIS2_PLACEMENT_3D('',#1351,#1076,#1077);
#910=AXIS2_PLACEMENT_3D('',#1354,#1079,#1080);
#911=AXIS2_PLACEMENT_3D('',#1355,#1081,#1082);
#912=AXIS2_PLACEMENT_3D('',#1356,#1083,#1084);
#913=AXIS2_PLACEMENT_3D('',#1357,#1085,#1086);
#914=AXIS2_PLACEMENT_3D('',#1359,#1087,#1088);
#915=AXIS2_PLACEMENT_3D('',#1362,#1090,#1091);
#916=AXIS2_PLACEMENT_3D('',#1363,#1092,#1093);
#917=AXIS2_PLACEMENT_3D('',#1364,#1094,#1095);
#918=AXIS2_PLACEMENT_3D('',#1365,#1096,#1097);
#919=AXIS2_PLACEMENT_3D('',#1367,#1098,#1099);
#920=AXIS2_PLACEMENT_3D('',#1370,#1101,#1102);
#921=AXIS2_PLACEMENT_3D('',#1371,#1103,#1104);
#922=AXIS2_PLACEMENT_3D('',#1372,#1105,#1106);
#923=AXIS2_PLACEMENT_3D('',#1373,#1107,#1108);
#924=AXIS2_PLACEMENT_3D('',#1375,#1109,#1110);
#925=AXIS2_PLACEMENT_3D('',#1378,#1112,#1113);
#926=AXIS2_PLACEMENT_3D('',#1379,#1114,#1115);
#927=AXIS2_PLACEMENT_3D('',#1380,#1116,#1117);
#928=AXIS2_PLACEMENT_3D('',#1381,#1118,#1119);
#929=AXIS2_PLACEMENT_3D('',#1383,#1120,#1121);
#930=AXIS2_PLACEMENT_3D('',#1386,#1123,#1124);
#931=AXIS2_PLACEMENT_3D('',#1387,#1125,#1126);
#932=AXIS2_PLACEMENT_3D('',#1388,#1127,#1128);
#933=AXIS2_PLACEMENT_3D('',#1389,#1129,#1130);
#934=AXIS2_PLACEMENT_3D('',#1391,#1131,#1132);
#935=AXIS2_PLACEMENT_3D('',#1394,#1134,#1135);
#936=AXIS2_PLACEMENT_3D('',#1395,#1136,#1137);
#937=AXIS2_PLACEMENT_3D('',#1396,#1138,#1139);
#938=AXIS2_PLACEMENT_3D('',#1397,#1140,#1141);
#939=AXIS2_PLACEMENT_3D('',#1399,#1142,#1143);
#940=AXIS2_PLACEMENT_3D('',#1402,#1145,#1146);
#941=AXIS2_PLACEMENT_3D('',#1403,#1147,#1148);
#942=AXIS2_PLACEMENT_3D('',#1404,#1149,#1150);
#943=AXIS2_PLACEMENT_3D('',#1405,#1151,#1152);
#944=AXIS2_PLACEMENT_3D('',#1407,#1153,#1154);
#945=AXIS2_PLACEMENT_3D('',#1410,#1156,#1157);
#946=AXIS2_PLACEMENT_3D('',#1411,#1158,#1159);
#947=AXIS2_PLACEMENT_3D('',#1412,#1160,#1161);
#948=AXIS2_PLACEMENT_3D('',#1413,#1162,#1163);
#949=AXIS2_PLACEMENT_3D('',#1415,#1164,#1165);
#950=AXIS2_PLACEMENT_3D('',#1418,#1167,#1168);
#951=AXIS2_PLACEMENT_3D('',#1419,#1169,#1170);
#952=AXIS2_PLACEMENT_3D('',#1420,#1171,#1172);
#953=AXIS2_PLACEMENT_3D('',#1421,#1173,#1174);
#954=AXIS2_PLACEMENT_3D('',#1423,#1175,#1176);
#955=AXIS2_PLACEMENT_3D('',#1426,#1178,#1179);
#956=AXIS2_PLACEMENT_3D('',#1427,#1180,#1181);
#957=AXIS2_PLACEMENT_3D('',#1428,#1182,#1183);
#958=AXIS2_PLACEMENT_3D('',#1429,#1184,#1185);
#959=AXIS2_PLACEMENT_3D('',#1431,#1186,#1187);
#960=AXIS2_PLACEMENT_3D('',#1434,#1189,#1190);
#961=AXIS2_PLACEMENT_3D('',#1435,#1191,#1192);
#962=AXIS2_PLACEMENT_3D('',#1436,#1193,#1194);
#963=AXIS2_PLACEMENT_3D('',#1437,#1195,#1196);
#964=AXIS2_PLACEMENT_3D('',#1439,#1197,#1198);
#965=AXIS2_PLACEMENT_3D('',#1442,#1200,#1201);
#966=AXIS2_PLACEMENT_3D('',#1443,#1202,#1203);
#967=AXIS2_PLACEMENT_3D('',#1444,#1204,#1205);
#968=AXIS2_PLACEMENT_3D('',#1445,#1206,#1207);
#969=AXIS2_PLACEMENT_3D('',#1447,#1208,#1209);
#970=AXIS2_PLACEMENT_3D('',#1450,#1211,#1212);
#971=AXIS2_PLACEMENT_3D('',#1451,#1213,#1214);
#972=AXIS2_PLACEMENT_3D('',#1452,#1215,#1216);
#973=AXIS2_PLACEMENT_3D('',#1453,#1217,#1218);
#974=AXIS2_PLACEMENT_3D('',#1455,#1219,#1220);
#975=AXIS2_PLACEMENT_3D('',#1458,#1222,#1223);
#976=AXIS2_PLACEMENT_3D('',#1459,#1224,#1225);
#977=AXIS2_PLACEMENT_3D('',#1461,#1226,#1227);
#978=AXIS2_PLACEMENT_3D('',#1464,#1229,#1230);
#979=AXIS2_PLACEMENT_3D('',#1465,#1231,#1232);
#980=AXIS2_PLACEMENT_3D('',#1467,#1233,#1234);
#981=AXIS2_PLACEMENT_3D('',#1470,#1236,#1237);
#982=AXIS2_PLACEMENT_3D('',#1471,#1238,#1239);
#983=AXIS2_PLACEMENT_3D('',#1473,#1240,#1241);
#984=AXIS2_PLACEMENT_3D('',#1476,#1243,#1244);
#985=AXIS2_PLACEMENT_3D('',#1477,#1245,#1246);
#986=AXIS2_PLACEMENT_3D('',#1486,#1251,#1252);
#987=AXIS2_PLACEMENT_3D('',#1492,#1256,#1257);
#988=AXIS2_PLACEMENT_3D('',#1498,#1261,#1262);
#989=AXIS2_PLACEMENT_3D('',#1501,#1265,#1266);
#990=AXIS2_PLACEMENT_3D('',#1502,#1267,#1268);
#991=AXIS2_PLACEMENT_3D('',#1503,#1269,#1270);
#992=AXIS2_PLACEMENT_3D('',#1504,#1271,#1272);
#993=DIRECTION('axis',(0.,0.,1.));
#994=DIRECTION('refdir',(1.,0.,0.));
#995=DIRECTION('axis',(0.,0.,1.));
#996=DIRECTION('refdir',(1.,0.,0.));
#997=DIRECTION('center_axis',(1.,0.,0.));
#998=DIRECTION('ref_axis',(0.,-1.,0.));
#999=DIRECTION('',(0.,-1.,0.));
#1000=DIRECTION('',(0.,0.,-1.));
#1001=DIRECTION('',(0.,1.,0.));
#1002=DIRECTION('',(0.,0.,-1.));
#1003=DIRECTION('center_axis',(0.,1.,0.));
#1004=DIRECTION('ref_axis',(1.,0.,0.));
#1005=DIRECTION('',(1.,0.,0.));
#1006=DIRECTION('',(0.,0.,-1.));
#1007=DIRECTION('',(-1.,0.,0.));
#1008=DIRECTION('center_axis',(-1.,0.,0.));
#1009=DIRECTION('ref_axis',(0.,1.,0.));
#1010=DIRECTION('',(0.,1.,0.));
#1011=DIRECTION('',(0.,0.,1.));
#1012=DIRECTION('',(0.,-1.,0.));
#1013=DIRECTION('center_axis',(0.,1.,0.));
#1014=DIRECTION('ref_axis',(1.,0.,0.));
#1015=DIRECTION('',(-1.,0.,0.));
#1016=DIRECTION('',(0.,0.,-1.));
#1017=DIRECTION('',(1.,0.,0.));
#1018=DIRECTION('center_axis',(0.,1.,0.));
#1019=DIRECTION('ref_axis',(1.,0.,0.));
#1020=DIRECTION('',(1.,0.,0.));
#1021=DIRECTION('',(0.,0.,1.));
#1022=DIRECTION('',(-1.,0.,0.));
#1023=DIRECTION('center_axis',(0.,0.,1.));
#1024=DIRECTION('ref_axis',(1.,0.,0.));
#1025=DIRECTION('',(0.,1.,0.));
#1026=DIRECTION('',(1.,0.,0.));
#1027=DIRECTION('',(0.,1.,0.));
#1028=DIRECTION('center_axis',(0.,0.,-1.));
#1029=DIRECTION('ref_axis',(-1.,0.,0.));
#1030=DIRECTION('',(0.,1.,0.));
#1031=DIRECTION('',(-1.,0.,0.));
#1032=DIRECTION('',(0.,1.,0.));
#1033=DIRECTION('center_axis',(1.,0.,0.));
#1034=DIRECTION('ref_axis',(0.,0.,-1.));
#1035=DIRECTION('',(0.,0.,-1.));
#1036=DIRECTION('center_axis',(-1.,0.,0.));
#1037=DIRECTION('ref_axis',(0.,0.,1.));
#1038=DIRECTION('',(0.,0.,1.));
#1039=DIRECTION('center_axis',(0.,1.,0.));
#1040=DIRECTION('ref_axis',(0.,0.,1.));
#1041=DIRECTION('center_axis',(0.,-1.,0.));
#1042=DIRECTION('ref_axis',(1.,0.,0.));
#1043=DIRECTION('center_axis',(0.,-1.,0.));
#1044=DIRECTION('ref_axis',(1.,0.,0.));
#1045=DIRECTION('',(0.,1.,0.));
#1046=DIRECTION('center_axis',(0.,-1.,0.));
#1047=DIRECTION('ref_axis',(1.,0.,0.));
#1048=DIRECTION('center_axis',(0.,-1.,0.));
#1049=DIRECTION('ref_axis',(1.,0.,0.));
#1050=DIRECTION('center_axis',(0.,-1.,0.));
#1051=DIRECTION('ref_axis',(1.,0.,0.));
#1052=DIRECTION('center_axis',(0.,-1.,0.));
#1053=DIRECTION('ref_axis',(1.,0.,0.));
#1054=DIRECTION('center_axis',(0.,-1.,0.));
#1055=DIRECTION('ref_axis',(1.,0.,0.));
#1056=DIRECTION('',(0.,1.,0.));
#1057=DIRECTION('center_axis',(0.,-1.,0.));
#1058=DIRECTION('ref_axis',(1.,0.,0.));
#1059=DIRECTION('center_axis',(0.,-1.,0.));
#1060=DIRECTION('ref_axis',(1.,0.,0.));
#1061=DIRECTION('center_axis',(0.,-1.,0.));
#1062=DIRECTION('ref_axis',(1.,0.,0.));
#1063=DIRECTION('center_axis',(0.,-1.,0.));
#1064=DIRECTION('ref_axis',(1.,0.,0.));
#1065=DIRECTION('center_axis',(0.,-1.,0.));
#1066=DIRECTION('ref_axis',(1.,0.,0.));
#1067=DIRECTION('',(0.,1.,0.));
#1068=DIRECTION('center_axis',(0.,-1.,0.));
#1069=DIRECTION('ref_axis',(1.,0.,0.));
#1070=DIRECTION('center_axis',(0.,-1.,0.));
#1071=DIRECTION('ref_axis',(1.,0.,0.));
#1072=DIRECTION('center_axis',(0.,-1.,0.));
#1073=DIRECTION('ref_axis',(1.,0.,0.));
#1074=DIRECTION('center_axis',(0.,-1.,0.));
#1075=DIRECTION('ref_axis',(1.,0.,0.));
#1076=DIRECTION('center_axis',(0.,-1.,0.));
#1077=DIRECTION('ref_axis',(1.,0.,0.));
#1078=DIRECTION('',(0.,1.,0.));
#1079=DIRECTION('center_axis',(0.,-1.,0.));
#1080=DIRECTION('ref_axis',(1.,0.,0.));
#1081=DIRECTION('center_axis',(0.,-1.,0.));
#1082=DIRECTION('ref_axis',(1.,0.,0.));
#1083=DIRECTION('center_axis',(0.,-1.,0.));
#1084=DIRECTION('ref_axis',(1.,0.,0.));
#1085=DIRECTION('center_axis',(0.,-1.,0.));
#1086=DIRECTION('ref_axis',(1.,0.,0.));
#1087=DIRECTION('center_axis',(0.,-1.,0.));
#1088=DIRECTION('ref_axis',(1.,0.,0.));
#1089=DIRECTION('',(0.,1.,0.));
#1090=DIRECTION('center_axis',(0.,-1.,0.));
#1091=DIRECTION('ref_axis',(1.,0.,0.));
#1092=DIRECTION('center_axis',(0.,-1.,0.));
#1093=DIRECTION('ref_axis',(1.,0.,0.));
#1094=DIRECTION('center_axis',(0.,-1.,0.));
#1095=DIRECTION('ref_axis',(1.,0.,0.));
#1096=DIRECTION('center_axis',(0.,-1.,0.));
#1097=DIRECTION('ref_axis',(1.,0.,0.));
#1098=DIRECTION('center_axis',(0.,-1.,0.));
#1099=DIRECTION('ref_axis',(1.,0.,0.));
#1100=DIRECTION('',(0.,1.,0.));
#1101=DIRECTION('center_axis',(0.,-1.,0.));
#1102=DIRECTION('ref_axis',(1.,0.,0.));
#1103=DIRECTION('center_axis',(0.,-1.,0.));
#1104=DIRECTION('ref_axis',(1.,0.,0.));
#1105=DIRECTION('center_axis',(0.,-1.,0.));
#1106=DIRECTION('ref_axis',(1.,0.,0.));
#1107=DIRECTION('center_axis',(0.,-1.,0.));
#1108=DIRECTION('ref_axis',(1.,0.,0.));
#1109=DIRECTION('center_axis',(0.,-1.,0.));
#1110=DIRECTION('ref_axis',(1.,0.,0.));
#1111=DIRECTION('',(0.,1.,0.));
#1112=DIRECTION('center_axis',(0.,-1.,0.));
#1113=DIRECTION('ref_axis',(1.,0.,0.));
#1114=DIRECTION('center_axis',(0.,-1.,0.));
#1115=DIRECTION('ref_axis',(1.,0.,0.));
#1116=DIRECTION('center_axis',(0.,-1.,0.));
#1117=DIRECTION('ref_axis',(1.,0.,0.));
#1118=DIRECTION('center_axis',(0.,-1.,0.));
#1119=DIRECTION('ref_axis',(1.,0.,0.));
#1120=DIRECTION('center_axis',(0.,-1.,0.));
#1121=DIRECTION('ref_axis',(1.,0.,0.));
#1122=DIRECTION('',(0.,1.,0.));
#1123=DIRECTION('center_axis',(0.,-1.,0.));
#1124=DIRECTION('ref_axis',(1.,0.,0.));
#1125=DIRECTION('center_axis',(0.,-1.,0.));
#1126=DIRECTION('ref_axis',(1.,0.,0.));
#1127=DIRECTION('center_axis',(0.,-1.,0.));
#1128=DIRECTION('ref_axis',(1.,0.,0.));
#1129=DIRECTION('center_axis',(0.,-1.,0.));
#1130=DIRECTION('ref_axis',(1.,0.,0.));
#1131=DIRECTION('center_axis',(0.,-1.,0.));
#1132=DIRECTION('ref_axis',(1.,0.,0.));
#1133=DIRECTION('',(0.,1.,0.));
#1134=DIRECTION('center_axis',(0.,-1.,0.));
#1135=DIRECTION('ref_axis',(1.,0.,0.));
#1136=DIRECTION('center_axis',(0.,-1.,0.));
#1137=DIRECTION('ref_axis',(1.,0.,0.));
#1138=DIRECTION('center_axis',(0.,-1.,0.));
#1139=DIRECTION('ref_axis',(1.,0.,0.));
#1140=DIRECTION('center_axis',(0.,-1.,0.));
#1141=DIRECTION('ref_axis',(1.,0.,0.));
#1142=DIRECTION('center_axis',(0.,-1.,0.));
#1143=DIRECTION('ref_axis',(1.,0.,0.));
#1144=DIRECTION('',(0.,1.,0.));
#1145=DIRECTION('center_axis',(0.,-1.,0.));
#1146=DIRECTION('ref_axis',(1.,0.,0.));
#1147=DIRECTION('center_axis',(0.,-1.,0.));
#1148=DIRECTION('ref_axis',(1.,0.,0.));
#1149=DIRECTION('center_axis',(0.,-1.,0.));
#1150=DIRECTION('ref_axis',(1.,0.,0.));
#1151=DIRECTION('center_axis',(0.,-1.,0.));
#1152=DIRECTION('ref_axis',(1.,0.,0.));
#1153=DIRECTION('center_axis',(0.,-1.,0.));
#1154=DIRECTION('ref_axis',(1.,0.,0.));
#1155=DIRECTION('',(0.,1.,0.));
#1156=DIRECTION('center_axis',(0.,-1.,0.));
#1157=DIRECTION('ref_axis',(1.,0.,0.));
#1158=DIRECTION('center_axis',(0.,-1.,0.));
#1159=DIRECTION('ref_axis',(1.,0.,0.));
#1160=DIRECTION('center_axis',(0.,-1.,0.));
#1161=DIRECTION('ref_axis',(1.,0.,0.));
#1162=DIRECTION('center_axis',(0.,-1.,0.));
#1163=DIRECTION('ref_axis',(1.,0.,0.));
#1164=DIRECTION('center_axis',(0.,-1.,0.));
#1165=DIRECTION('ref_axis',(1.,0.,0.));
#1166=DIRECTION('',(0.,1.,0.));
#1167=DIRECTION('center_axis',(0.,-1.,0.));
#1168=DIRECTION('ref_axis',(1.,0.,0.));
#1169=DIRECTION('center_axis',(0.,-1.,0.));
#1170=DIRECTION('ref_axis',(1.,0.,0.));
#1171=DIRECTION('center_axis',(0.,-1.,0.));
#1172=DIRECTION('ref_axis',(1.,0.,0.));
#1173=DIRECTION('center_axis',(0.,-1.,0.));
#1174=DIRECTION('ref_axis',(1.,0.,0.));
#1175=DIRECTION('center_axis',(0.,-1.,0.));
#1176=DIRECTION('ref_axis',(1.,0.,0.));
#1177=DIRECTION('',(0.,1.,0.));
#1178=DIRECTION('center_axis',(0.,-1.,0.));
#1179=DIRECTION('ref_axis',(1.,0.,0.));
#1180=DIRECTION('center_axis',(0.,-1.,0.));
#1181=DIRECTION('ref_axis',(1.,0.,0.));
#1182=DIRECTION('center_axis',(0.,-1.,0.));
#1183=DIRECTION('ref_axis',(1.,0.,0.));
#1184=DIRECTION('center_axis',(0.,-1.,0.));
#1185=DIRECTION('ref_axis',(1.,0.,0.));
#1186=DIRECTION('center_axis',(0.,-1.,0.));
#1187=DIRECTION('ref_axis',(1.,0.,0.));
#1188=DIRECTION('',(0.,1.,0.));
#1189=DIRECTION('center_axis',(0.,-1.,0.));
#1190=DIRECTION('ref_axis',(1.,0.,0.));
#1191=DIRECTION('center_axis',(0.,-1.,0.));
#1192=DIRECTION('ref_axis',(1.,0.,0.));
#1193=DIRECTION('center_axis',(0.,-1.,0.));
#1194=DIRECTION('ref_axis',(1.,0.,0.));
#1195=DIRECTION('center_axis',(0.,-1.,0.));
#1196=DIRECTION('ref_axis',(1.,0.,0.));
#1197=DIRECTION('center_axis',(0.,-1.,0.));
#1198=DIRECTION('ref_axis',(1.,0.,0.));
#1199=DIRECTION('',(0.,1.,0.));
#1200=DIRECTION('center_axis',(0.,-1.,0.));
#1201=DIRECTION('ref_axis',(1.,0.,0.));
#1202=DIRECTION('center_axis',(0.,-1.,0.));
#1203=DIRECTION('ref_axis',(1.,0.,0.));
#1204=DIRECTION('center_axis',(0.,-1.,0.));
#1205=DIRECTION('ref_axis',(1.,0.,0.));
#1206=DIRECTION('center_axis',(0.,-1.,0.));
#1207=DIRECTION('ref_axis',(1.,0.,0.));
#1208=DIRECTION('center_axis',(0.,-1.,0.));
#1209=DIRECTION('ref_axis',(1.,0.,0.));
#1210=DIRECTION('',(0.,1.,0.));
#1211=DIRECTION('center_axis',(0.,-1.,0.));
#1212=DIRECTION('ref_axis',(1.,0.,0.));
#1213=DIRECTION('center_axis',(0.,-1.,0.));
#1214=DIRECTION('ref_axis',(1.,0.,0.));
#1215=DIRECTION('center_axis',(0.,-1.,0.));
#1216=DIRECTION('ref_axis',(1.,0.,0.));
#1217=DIRECTION('center_axis',(0.,1.,0.));
#1218=DIRECTION('ref_axis',(1.,0.,0.));
#1219=DIRECTION('center_axis',(0.,-1.,0.));
#1220=DIRECTION('ref_axis',(1.,0.,0.));
#1221=DIRECTION('',(0.,-1.,0.));
#1222=DIRECTION('center_axis',(0.,-1.,0.));
#1223=DIRECTION('ref_axis',(1.,0.,0.));
#1224=DIRECTION('center_axis',(0.,1.,0.));
#1225=DIRECTION('ref_axis',(1.,0.,0.));
#1226=DIRECTION('center_axis',(0.,-1.,0.));
#1227=DIRECTION('ref_axis',(1.,0.,0.));
#1228=DIRECTION('',(0.,-1.,0.));
#1229=DIRECTION('center_axis',(0.,-1.,0.));
#1230=DIRECTION('ref_axis',(1.,0.,0.));
#1231=DIRECTION('center_axis',(0.,1.,0.));
#1232=DIRECTION('ref_axis',(1.,0.,0.));
#1233=DIRECTION('center_axis',(0.,-1.,0.));
#1234=DIRECTION('ref_axis',(1.,0.,0.));
#1235=DIRECTION('',(0.,-1.,0.));
#1236=DIRECTION('center_axis',(0.,-1.,0.));
#1237=DIRECTION('ref_axis',(1.,0.,0.));
#1238=DIRECTION('center_axis',(0.,1.,0.));
#1239=DIRECTION('ref_axis',(1.,0.,0.));
#1240=DIRECTION('center_axis',(0.,-1.,0.));
#1241=DIRECTION('ref_axis',(1.,0.,0.));
#1242=DIRECTION('',(0.,-1.,0.));
#1243=DIRECTION('center_axis',(0.,-1.,0.));
#1244=DIRECTION('ref_axis',(1.,0.,0.));
#1245=DIRECTION('center_axis',(0.,0.,-1.));
#1246=DIRECTION('ref_axis',(-1.,0.,0.));
#1247=DIRECTION('',(-1.,0.,0.));
#1248=DIRECTION('',(0.,1.,0.));
#1249=DIRECTION('',(-1.,0.,0.));
#1250=DIRECTION('',(0.,1.,0.));
#1251=DIRECTION('center_axis',(1.,0.,0.));
#1252=DIRECTION('ref_axis',(0.,0.,-1.));
#1253=DIRECTION('',(0.,0.,-1.));
#1254=DIRECTION('',(0.,0.,-1.));
#1255=DIRECTION('',(0.,1.,0.));
#1256=DIRECTION('center_axis',(0.,0.,1.));
#1257=DIRECTION('ref_axis',(1.,0.,0.));
#1258=DIRECTION('',(1.,0.,0.));
#1259=DIRECTION('',(1.,0.,0.));
#1260=DIRECTION('',(0.,1.,0.));
#1261=DIRECTION('center_axis',(-1.,0.,0.));
#1262=DIRECTION('ref_axis',(0.,0.,1.));
#1263=DIRECTION('',(0.,0.,1.));
#1264=DIRECTION('',(0.,0.,1.));
#1265=DIRECTION('center_axis',(0.,1.,0.));
#1266=DIRECTION('ref_axis',(1.,0.,0.));
#1267=DIRECTION('center_axis',(0.,1.,0.));
#1268=DIRECTION('ref_axis',(1.,0.,0.));
#1269=DIRECTION('',(2.22044604925031E-16,0.,1.));
#1270=DIRECTION('',(1.,0.,-2.22044604925031E-16));
#1271=DIRECTION('',(-4.44089209850063E-16,0.,1.));
#1272=DIRECTION('',(1.,0.,4.44089209850063E-16));
#1273=CARTESIAN_POINT('',(0.,0.,0.));
#1274=CARTESIAN_POINT('',(0.,0.,0.));
#1275=CARTESIAN_POINT('Origin',(18.0000002682209,1.00000001490116,0.));
#1276=CARTESIAN_POINT('',(18.0000002682209,1.00000001490116,0.));
#1277=CARTESIAN_POINT('',(18.0000002682209,0.,0.));
#1278=CARTESIAN_POINT('',(18.0000002682209,0.500000007450581,0.));
#1279=CARTESIAN_POINT('',(18.0000002682209,1.00000001490116,-27.7));
#1280=CARTESIAN_POINT('',(18.0000002682209,1.00000001490116,0.));
#1281=CARTESIAN_POINT('',(18.0000002682209,0.,-27.7));
#1282=CARTESIAN_POINT('',(18.0000002682209,0.500000007450581,-27.7));
#1283=CARTESIAN_POINT('',(18.0000002682209,0.,-6.925));
#1284=CARTESIAN_POINT('Origin',(2.00000002980232,1.00000001490116,0.));
#1285=CARTESIAN_POINT('',(2.00000002980232,1.00000001490116,0.));
#1286=CARTESIAN_POINT('',(1.00000001490116,1.00000001490116,0.));
#1287=CARTESIAN_POINT('',(2.00000002980232,1.00000001490116,-27.7));
#1288=CARTESIAN_POINT('',(2.00000002980232,1.00000001490116,0.));
#1289=CARTESIAN_POINT('',(11.0000000149012,1.00000001490116,-27.7));
#1290=CARTESIAN_POINT('Origin',(2.00000002980232,0.,0.));
#1291=CARTESIAN_POINT('',(2.00000002980232,0.,0.));
#1292=CARTESIAN_POINT('',(2.00000002980232,0.,0.));
#1293=CARTESIAN_POINT('',(2.00000002980232,0.,-27.7));
#1294=CARTESIAN_POINT('',(2.00000002980232,0.,-6.925));
#1295=CARTESIAN_POINT('',(2.00000002980232,0.,-27.7));
#1296=CARTESIAN_POINT('Origin',(10.,0.,-13.85));
#1297=CARTESIAN_POINT('',(20.,0.,-27.7));
#1298=CARTESIAN_POINT('',(20.,0.,-27.7));
#1299=CARTESIAN_POINT('',(20.,0.,0.));
#1300=CARTESIAN_POINT('',(20.,0.,0.));
#1301=CARTESIAN_POINT('',(0.,0.,0.));
#1302=CARTESIAN_POINT('Origin',(10.,0.,-13.85));
#1303=CARTESIAN_POINT('',(0.,0.,0.));
#1304=CARTESIAN_POINT('',(0.,0.,0.));
#1305=CARTESIAN_POINT('',(0.,0.,-27.7));
#1306=CARTESIAN_POINT('',(0.,0.,-27.7));
#1307=CARTESIAN_POINT('',(20.,0.,-27.7));
#1308=CARTESIAN_POINT('Origin',(0.,0.,0.));
#1309=CARTESIAN_POINT('',(20.,8.4,0.));
#1310=CARTESIAN_POINT('',(20.,0.,0.));
#1311=CARTESIAN_POINT('',(0.,8.4,0.));
#1312=CARTESIAN_POINT('',(0.,8.4,0.));
#1313=CARTESIAN_POINT('',(0.,0.,0.));
#1314=CARTESIAN_POINT('Origin',(20.,0.,-27.7));
#1315=CARTESIAN_POINT('',(0.,8.4,-27.7));
#1316=CARTESIAN_POINT('',(0.,0.,-27.7));
#1317=CARTESIAN_POINT('',(20.,8.4,-27.7));
#1318=CARTESIAN_POINT('',(20.,8.4,-27.7));
#1319=CARTESIAN_POINT('',(20.,0.,-27.7));
#1320=CARTESIAN_POINT('Origin',(20.,0.,0.));
#1321=CARTESIAN_POINT('',(20.,8.4,0.));
#1322=CARTESIAN_POINT('Origin',(0.,0.,-27.7));
#1323=CARTESIAN_POINT('',(0.,8.4,-27.7));
#1324=CARTESIAN_POINT('Origin',(10.,8.4,-13.85));
#1325=CARTESIAN_POINT('Origin',(2.38,1.,-4.96));
#1326=CARTESIAN_POINT('',(2.13,-4.,-4.96));
#1327=CARTESIAN_POINT('Origin',(2.38,-4.,-4.96));
#1328=CARTESIAN_POINT('',(2.13,1.,-4.96));
#1329=CARTESIAN_POINT('',(2.13,1.,-4.96));
#1330=CARTESIAN_POINT('Origin',(2.38,1.,-4.96));
#1331=CARTESIAN_POINT('Origin',(2.38,-4.,-4.96));
#1332=CARTESIAN_POINT('Origin',(2.38,1.,-4.96));
#1333=CARTESIAN_POINT('Origin',(2.38,1.,-7.5));
#1334=CARTESIAN_POINT('',(2.13,-4.,-7.5));
#1335=CARTESIAN_POINT('Origin',(2.38,-4.,-7.5));
#1336=CARTESIAN_POINT('',(2.13,1.,-7.5));
#1337=CARTESIAN_POINT('',(2.13,1.,-7.5));
#1338=CARTESIAN_POINT('Origin',(2.38,1.,-7.5));
#1339=CARTESIAN_POINT('Origin',(2.38,-4.,-7.5));
#1340=CARTESIAN_POINT('Origin',(2.38,1.,-7.5));
#1341=CARTESIAN_POINT('Origin',(2.38,1.,-10.04));
#1342=CARTESIAN_POINT('',(2.13,-4.,-10.04));
#1343=CARTESIAN_POINT('Origin',(2.38,-4.,-10.04));
#1344=CARTESIAN_POINT('',(2.13,1.,-10.04));
#1345=CARTESIAN_POINT('',(2.13,1.,-10.04));
#1346=CARTESIAN_POINT('Origin',(2.38,1.,-10.04));
#1347=CARTESIAN_POINT('Origin',(2.38,-4.,-10.04));
#1348=CARTESIAN_POINT('Origin',(2.38,1.,-10.04));
#1349=CARTESIAN_POINT('Origin',(2.38,1.,-12.58));
#1350=CARTESIAN_POINT('',(2.13,-4.,-12.58));
#1351=CARTESIAN_POINT('Origin',(2.38,-4.,-12.58));
#1352=CARTESIAN_POINT('',(2.13,1.,-12.58));
#1353=CARTESIAN_POINT('',(2.13,1.,-12.58));
#1354=CARTESIAN_POINT('Origin',(2.38,1.,-12.58));
#1355=CARTESIAN_POINT('Origin',(2.38,-4.,-12.58));
#1356=CARTESIAN_POINT('Origin',(2.38,1.,-12.58));
#1357=CARTESIAN_POINT('Origin',(2.38,1.,-15.12));
#1358=CARTESIAN_POINT('',(2.13,-4.,-15.12));
#1359=CARTESIAN_POINT('Origin',(2.38,-4.,-15.12));
#1360=CARTESIAN_POINT('',(2.13,1.,-15.12));
#1361=CARTESIAN_POINT('',(2.13,1.,-15.12));
#1362=CARTESIAN_POINT('Origin',(2.38,1.,-15.12));
#1363=CARTESIAN_POINT('Origin',(2.38,-4.,-15.12));
#1364=CARTESIAN_POINT('Origin',(2.38,1.,-15.12));
#1365=CARTESIAN_POINT('Origin',(2.38,1.,-17.66));
#1366=CARTESIAN_POINT('',(2.13,-4.,-17.66));
#1367=CARTESIAN_POINT('Origin',(2.38,-4.,-17.66));
#1368=CARTESIAN_POINT('',(2.13,1.,-17.66));
#1369=CARTESIAN_POINT('',(2.13,1.,-17.66));
#1370=CARTESIAN_POINT('Origin',(2.38,1.,-17.66));
#1371=CARTESIAN_POINT('Origin',(2.38,-4.,-17.66));
#1372=CARTESIAN_POINT('Origin',(2.38,1.,-17.66));
#1373=CARTESIAN_POINT('Origin',(2.38,1.,-20.2));
#1374=CARTESIAN_POINT('',(2.13,-4.,-20.2));
#1375=CARTESIAN_POINT('Origin',(2.38,-4.,-20.2));
#1376=CARTESIAN_POINT('',(2.13,1.,-20.2));
#1377=CARTESIAN_POINT('',(2.13,1.,-20.2));
#1378=CARTESIAN_POINT('Origin',(2.38,1.,-20.2));
#1379=CARTESIAN_POINT('Origin',(2.38,-4.,-20.2));
#1380=CARTESIAN_POINT('Origin',(2.38,1.,-20.2));
#1381=CARTESIAN_POINT('Origin',(2.38,1.,-22.74));
#1382=CARTESIAN_POINT('',(2.13,-4.,-22.74));
#1383=CARTESIAN_POINT('Origin',(2.38,-4.,-22.74));
#1384=CARTESIAN_POINT('',(2.13,1.,-22.74));
#1385=CARTESIAN_POINT('',(2.13,1.,-22.74));
#1386=CARTESIAN_POINT('Origin',(2.38,1.,-22.74));
#1387=CARTESIAN_POINT('Origin',(2.38,-4.,-22.74));
#1388=CARTESIAN_POINT('Origin',(2.38,1.,-22.74));
#1389=CARTESIAN_POINT('Origin',(17.62,1.,-4.96));
#1390=CARTESIAN_POINT('',(17.37,-4.,-4.96));
#1391=CARTESIAN_POINT('Origin',(17.62,-4.,-4.96));
#1392=CARTESIAN_POINT('',(17.37,1.,-4.96));
#1393=CARTESIAN_POINT('',(17.37,1.,-4.96));
#1394=CARTESIAN_POINT('Origin',(17.62,1.,-4.96));
#1395=CARTESIAN_POINT('Origin',(17.62,-4.,-4.96));
#1396=CARTESIAN_POINT('Origin',(17.62,1.,-4.96));
#1397=CARTESIAN_POINT('Origin',(17.62,1.,-7.5));
#1398=CARTESIAN_POINT('',(17.37,-4.,-7.5));
#1399=CARTESIAN_POINT('Origin',(17.62,-4.,-7.5));
#1400=CARTESIAN_POINT('',(17.37,1.,-7.5));
#1401=CARTESIAN_POINT('',(17.37,1.,-7.5));
#1402=CARTESIAN_POINT('Origin',(17.62,1.,-7.5));
#1403=CARTESIAN_POINT('Origin',(17.62,-4.,-7.5));
#1404=CARTESIAN_POINT('Origin',(17.62,1.,-7.5));
#1405=CARTESIAN_POINT('Origin',(17.62,1.,-10.04));
#1406=CARTESIAN_POINT('',(17.37,-4.,-10.04));
#1407=CARTESIAN_POINT('Origin',(17.62,-4.,-10.04));
#1408=CARTESIAN_POINT('',(17.37,1.,-10.04));
#1409=CARTESIAN_POINT('',(17.37,1.,-10.04));
#1410=CARTESIAN_POINT('Origin',(17.62,1.,-10.04));
#1411=CARTESIAN_POINT('Origin',(17.62,-4.,-10.04));
#1412=CARTESIAN_POINT('Origin',(17.62,1.,-10.04));
#1413=CARTESIAN_POINT('Origin',(17.62,1.,-12.58));
#1414=CARTESIAN_POINT('',(17.37,-4.,-12.58));
#1415=CARTESIAN_POINT('Origin',(17.62,-4.,-12.58));
#1416=CARTESIAN_POINT('',(17.37,1.,-12.58));
#1417=CARTESIAN_POINT('',(17.37,1.,-12.58));
#1418=CARTESIAN_POINT('Origin',(17.62,1.,-12.58));
#1419=CARTESIAN_POINT('Origin',(17.62,-4.,-12.58));
#1420=CARTESIAN_POINT('Origin',(17.62,1.,-12.58));
#1421=CARTESIAN_POINT('Origin',(17.62,1.,-15.12));
#1422=CARTESIAN_POINT('',(17.37,-4.,-15.12));
#1423=CARTESIAN_POINT('Origin',(17.62,-4.,-15.12));
#1424=CARTESIAN_POINT('',(17.37,1.,-15.12));
#1425=CARTESIAN_POINT('',(17.37,1.,-15.12));
#1426=CARTESIAN_POINT('Origin',(17.62,1.,-15.12));
#1427=CARTESIAN_POINT('Origin',(17.62,-4.,-15.12));
#1428=CARTESIAN_POINT('Origin',(17.62,1.,-15.12));
#1429=CARTESIAN_POINT('Origin',(17.62,1.,-17.66));
#1430=CARTESIAN_POINT('',(17.37,-4.,-17.66));
#1431=CARTESIAN_POINT('Origin',(17.62,-4.,-17.66));
#1432=CARTESIAN_POINT('',(17.37,1.,-17.66));
#1433=CARTESIAN_POINT('',(17.37,1.,-17.66));
#1434=CARTESIAN_POINT('Origin',(17.62,1.,-17.66));
#1435=CARTESIAN_POINT('Origin',(17.62,-4.,-17.66));
#1436=CARTESIAN_POINT('Origin',(17.62,1.,-17.66));
#1437=CARTESIAN_POINT('Origin',(17.62,1.,-20.2));
#1438=CARTESIAN_POINT('',(17.37,-4.,-20.2));
#1439=CARTESIAN_POINT('Origin',(17.62,-4.,-20.2));
#1440=CARTESIAN_POINT('',(17.37,1.,-20.2));
#1441=CARTESIAN_POINT('',(17.37,1.,-20.2));
#1442=CARTESIAN_POINT('Origin',(17.62,1.,-20.2));
#1443=CARTESIAN_POINT('Origin',(17.62,-4.,-20.2));
#1444=CARTESIAN_POINT('Origin',(17.62,1.,-20.2));
#1445=CARTESIAN_POINT('Origin',(17.62,1.,-22.74));
#1446=CARTESIAN_POINT('',(17.37,-4.,-22.74));
#1447=CARTESIAN_POINT('Origin',(17.62,-4.,-22.74));
#1448=CARTESIAN_POINT('',(17.37,1.,-22.74));
#1449=CARTESIAN_POINT('',(17.37,1.,-22.74));
#1450=CARTESIAN_POINT('Origin',(17.62,1.,-22.74));
#1451=CARTESIAN_POINT('Origin',(17.62,-4.,-22.74));
#1452=CARTESIAN_POINT('Origin',(17.62,1.,-22.74));
#1453=CARTESIAN_POINT('Origin',(5.00000007450581,0.,-5.00000007450581));
#1454=CARTESIAN_POINT('',(3.20000007450581,1.6,-5.00000007450581));
#1455=CARTESIAN_POINT('Origin',(5.00000007450581,1.6,-5.00000007450581));
#1456=CARTESIAN_POINT('',(3.20000007450581,0.,-5.00000007450581));
#1457=CARTESIAN_POINT('',(3.20000007450581,0.,-5.00000007450581));
#1458=CARTESIAN_POINT('Origin',(5.00000007450581,0.,-5.00000007450581));
#1459=CARTESIAN_POINT('Origin',(5.00000007450581,0.,-55.0000008195639));
#1460=CARTESIAN_POINT('',(3.20000007450581,1.6,-55.0000008195639));
#1461=CARTESIAN_POINT('Origin',(5.00000007450581,1.6,-55.0000008195639));
#1462=CARTESIAN_POINT('',(3.20000007450581,0.,-55.0000008195639));
#1463=CARTESIAN_POINT('',(3.20000007450581,0.,-55.0000008195639));
#1464=CARTESIAN_POINT('Origin',(5.00000007450581,0.,-55.0000008195639));
#1465=CARTESIAN_POINT('Origin',(55.0000008195639,0.,-5.00000007450581));
#1466=CARTESIAN_POINT('',(53.2000008195639,1.6,-5.00000007450581));
#1467=CARTESIAN_POINT('Origin',(55.0000008195639,1.6,-5.00000007450581));
#1468=CARTESIAN_POINT('',(53.2000008195639,0.,-5.00000007450581));
#1469=CARTESIAN_POINT('',(53.2000008195639,0.,-5.00000007450581));
#1470=CARTESIAN_POINT('Origin',(55.0000008195639,0.,-5.00000007450581));
#1471=CARTESIAN_POINT('Origin',(55.0000008195639,0.,-55.0000008195639));
#1472=CARTESIAN_POINT('',(53.2000008195639,1.6,-55.0000008195639));
#1473=CARTESIAN_POINT('Origin',(55.0000008195639,1.6,-55.0000008195639));
#1474=CARTESIAN_POINT('',(53.2000008195639,0.,-55.0000008195639));
#1475=CARTESIAN_POINT('',(53.2000008195639,0.,-55.0000008195639));
#1476=CARTESIAN_POINT('Origin',(55.0000008195639,0.,-55.0000008195639));
#1477=CARTESIAN_POINT('Origin',(60.,0.,-60.));
#1478=CARTESIAN_POINT('',(60.,0.,-60.));
#1479=CARTESIAN_POINT('',(0.,0.,-60.));
#1480=CARTESIAN_POINT('',(60.,0.,-60.));
#1481=CARTESIAN_POINT('',(0.,1.6,-60.));
#1482=CARTESIAN_POINT('',(0.,0.,-60.));
#1483=CARTESIAN_POINT('',(60.,1.6,-60.));
#1484=CARTESIAN_POINT('',(60.,1.6,-60.));
#1485=CARTESIAN_POINT('',(60.,0.,-60.));
#1486=CARTESIAN_POINT('Origin',(60.,0.,0.));
#1487=CARTESIAN_POINT('',(60.,0.,0.));
#1488=CARTESIAN_POINT('',(60.,0.,0.));
#1489=CARTESIAN_POINT('',(60.,1.6,0.));
#1490=CARTESIAN_POINT('',(60.,1.6,0.));
#1491=CARTESIAN_POINT('',(60.,0.,0.));
#1492=CARTESIAN_POINT('Origin',(0.,0.,0.));
#1493=CARTESIAN_POINT('',(0.,0.,0.));
#1494=CARTESIAN_POINT('',(0.,0.,0.));
#1495=CARTESIAN_POINT('',(0.,1.6,0.));
#1496=CARTESIAN_POINT('',(0.,1.6,0.));
#1497=CARTESIAN_POINT('',(0.,0.,0.));
#1498=CARTESIAN_POINT('Origin',(0.,0.,-60.));
#1499=CARTESIAN_POINT('',(0.,0.,-60.));
#1500=CARTESIAN_POINT('',(0.,1.6,-60.));
#1501=CARTESIAN_POINT('Origin',(30.,1.6,-30.));
#1502=CARTESIAN_POINT('Origin',(30.,0.,-30.));
#1503=CARTESIAN_POINT('',(10.,1.6,-16.15));
#1504=CARTESIAN_POINT('',(30.,1.6,-16.15));
#1505=UNCERTAINTY_MEASURE_WITH_UNIT(LENGTH_MEASURE(0.01),#1511,
'DISTANCE_ACCURACY_VALUE',
'Maximum model space distance between geometric entities at asserted c
onnectivities');
#1506=UNCERTAINTY_MEASURE_WITH_UNIT(LENGTH_MEASURE(0.01),#1511,
'DISTANCE_ACCURACY_VALUE',
'Maximum model space distance between geometric entities at asserted c
onnectivities');
#1507=UNCERTAINTY_MEASURE_WITH_UNIT(LENGTH_MEASURE(0.01),#1511,
'DISTANCE_ACCURACY_VALUE',
'Maximum model space distance between geometric entities at asserted c
onnectivities');
#1508=(
GEOMETRIC_REPRESENTATION_CONTEXT(3)
GLOBAL_UNCERTAINTY_ASSIGNED_CONTEXT((#1505))
GLOBAL_UNIT_ASSIGNED_CONTEXT((#1511,#1513,#1514))
REPRESENTATION_CONTEXT('','3D')
);
#1509=(
GEOMETRIC_REPRESENTATION_CONTEXT(3)
GLOBAL_UNCERTAINTY_ASSIGNED_CONTEXT((#1506))
GLOBAL_UNIT_ASSIGNED_CONTEXT((#1511,#1513,#1514))
REPRESENTATION_CONTEXT('','3D')
);
#1510=(
GEOMETRIC_REPRESENTATION_CONTEXT(3)
GLOBAL_UNCERTAINTY_ASSIGNED_CONTEXT((#1507))
GLOBAL_UNIT_ASSIGNED_CONTEXT((#1511,#1513,#1514))
REPRESENTATION_CONTEXT('','3D')
);
#1511=(
LENGTH_UNIT()
NAMED_UNIT(*)
SI_UNIT(.MILLI.,.METRE.)
);
#1512=(
LENGTH_UNIT()
NAMED_UNIT(*)
SI_UNIT($,.METRE.)
);
#1513=(
NAMED_UNIT(*)
PLANE_ANGLE_UNIT()
SI_UNIT($,.RADIAN.)
);
#1514=(
NAMED_UNIT(*)
SI_UNIT($,.STERADIAN.)
SOLID_ANGLE_UNIT()
);
#1515=SHAPE_DEFINITION_REPRESENTATION(#1517,#1521);
#1516=SHAPE_DEFINITION_REPRESENTATION(#1518,#1522);
#1517=PRODUCT_DEFINITION_SHAPE('',$,#1524);
#1518=PRODUCT_DEFINITION_SHAPE('',$,#1525);
#1519=PRODUCT_DEFINITION_SHAPE($,$,#17);
#1520=PRODUCT_DEFINITION_SHAPE($,$,#18);
#1521=SHAPE_REPRESENTATION('',(#881,#991,#992),#1508);
#1522=SHAPE_REPRESENTATION('',(#882),#1509);
#1523=PRODUCT_DEFINITION_CONTEXT('part definition',#1531,'design');
#1524=PRODUCT_DEFINITION('2025-11-18-15-42-41-360',
'Seven segment display PCB',#1526,#1523);
#1525=PRODUCT_DEFINITION('2025-11-18-15-33-44-547',
'Seven segment display',#1527,#1523);
#1526=PRODUCT_DEFINITION_FORMATION('',$,#1533);
#1527=PRODUCT_DEFINITION_FORMATION('',$,#1534);
#1528=PRODUCT_RELATED_PRODUCT_CATEGORY('Seven segment display PCB',
'Seven segment display PCB',(#1533));
#1529=PRODUCT_RELATED_PRODUCT_CATEGORY('Seven segment display',
'Seven segment display',(#1534));
#1530=APPLICATION_PROTOCOL_DEFINITION('international standard',
'automotive_design',2009,#1531);
#1531=APPLICATION_CONTEXT(
'Core Data for Automotive Mechanical Design Process');
#1532=PRODUCT_CONTEXT('part definition',#1531,'mechanical');
#1533=PRODUCT('2025-11-18-15-42-41-360','Seven segment display PCB',$,(#1532));
#1534=PRODUCT('2025-11-18-15-33-44-547','Seven segment display',$,(#1532));
#1535=PRESENTATION_STYLE_ASSIGNMENT((#1536));
#1536=SURFACE_STYLE_USAGE(.BOTH.,#1537);
#1537=SURFACE_SIDE_STYLE('',(#1538));
#1538=SURFACE_STYLE_FILL_AREA(#1539);
#1539=FILL_AREA_STYLE('Steel - Satin',(#1540));
#1540=FILL_AREA_STYLE_COLOUR('Steel - Satin',#1541);
#1541=COLOUR_RGB('Steel - Satin',0.627450980392157,0.627450980392157,0.627450980392157);
ENDSEC;
END-ISO-10303-21;
