ISO-10303-21;
HEADER;
/* Generated by software containing ST-Developer
 * from STEP Tools, Inc. (www.steptools.com) 
 */

FILE_DESCRIPTION(
/* description */ (''),
/* implementation_level */ '2;1');

FILE_NAME(
/* name */ 'Seven segment top.step',
/* time_stamp */ '2026-04-27T15:51:27+01:00',
/* author */ (''),
/* organization */ (''),
/* preprocessor_version */ 'ST-DEVELOPER v20.1',
/* originating_system */ 'Autodesk Translation Framework v14.24.0.0',
/* authorisation */ '');

FILE_SCHEMA (('AUTOMOTIVE_DESIGN { 1 0 10303 214 3 1 1 }'));
ENDSEC;

DATA;
#10=MECHANICAL_DESIGN_GEOMETRIC_PRESENTATION_REPRESENTATION('',(#13),#1447);
#11=SHAPE_REPRESENTATION_RELATIONSHIP('SRR','None',#1453,#12);
#12=ADVANCED_BREP_SHAPE_REPRESENTATION('',(#14),#1446);
#13=STYLED_ITEM('',(#1462),#14);
#14=MANIFOLD_SOLID_BREP('Body1',#879);
#15=CIRCLE('',#887,2.);
#16=CIRCLE('',#888,2.);
#17=CIRCLE('',#890,2.);
#18=CIRCLE('',#891,2.);
#19=CIRCLE('',#892,2.);
#20=CIRCLE('',#895,2.);
#21=CIRCLE('',#897,2.);
#22=CIRCLE('',#900,2.);
#23=CIRCLE('',#904,5.00000007450581);
#24=CIRCLE('',#905,1.55);
#25=CIRCLE('',#907,5.00000007450581);
#26=CIRCLE('',#908,1.55);
#27=CIRCLE('',#910,5.00000007450581);
#28=CIRCLE('',#911,1.55);
#29=CIRCLE('',#913,5.00000007450581);
#30=CIRCLE('',#914,1.55);
#31=CIRCLE('',#916,5.00000007450581);
#32=CIRCLE('',#921,5.00000007450581);
#33=CIRCLE('',#930,1.55);
#34=CIRCLE('',#932,1.55);
#35=CIRCLE('',#934,1.55);
#36=CIRCLE('',#936,5.00000007450581);
#37=CIRCLE('',#937,5.00000007450581);
#38=CIRCLE('',#939,1.55);
#39=CYLINDRICAL_SURFACE('',#886,2.);
#40=CYLINDRICAL_SURFACE('',#894,2.);
#41=CYLINDRICAL_SURFACE('',#896,2.);
#42=CYLINDRICAL_SURFACE('',#901,2.);
#43=CYLINDRICAL_SURFACE('',#915,5.00000007450581);
#44=CYLINDRICAL_SURFACE('',#920,5.00000007450581);
#45=CYLINDRICAL_SURFACE('',#940,1.55);
#46=CYLINDRICAL_SURFACE('',#944,5.00000007450581);
#47=CYLINDRICAL_SURFACE('',#948,5.00000007450581);
#48=CYLINDRICAL_SURFACE('',#949,1.55);
#49=CYLINDRICAL_SURFACE('',#950,1.55);
#50=CYLINDRICAL_SURFACE('',#951,1.55);
#51=FACE_BOUND('',#112,.T.);
#52=FACE_BOUND('',#115,.T.);
#53=FACE_BOUND('',#121,.T.);
#54=FACE_BOUND('',#125,.T.);
#55=FACE_BOUND('',#127,.T.);
#56=FACE_BOUND('',#129,.T.);
#57=FACE_BOUND('',#131,.T.);
#58=FACE_BOUND('',#148,.T.);
#59=FACE_OUTER_BOUND('',#107,.T.);
#60=FACE_OUTER_BOUND('',#108,.T.);
#61=FACE_OUTER_BOUND('',#109,.T.);
#62=FACE_OUTER_BOUND('',#110,.T.);
#63=FACE_OUTER_BOUND('',#111,.T.);
#64=FACE_OUTER_BOUND('',#113,.T.);
#65=FACE_OUTER_BOUND('',#114,.T.);
#66=FACE_OUTER_BOUND('',#116,.T.);
#67=FACE_OUTER_BOUND('',#117,.T.);
#68=FACE_OUTER_BOUND('',#118,.T.);
#69=FACE_OUTER_BOUND('',#119,.T.);
#70=FACE_OUTER_BOUND('',#120,.T.);
#71=FACE_OUTER_BOUND('',#122,.T.);
#72=FACE_OUTER_BOUND('',#123,.T.);
#73=FACE_OUTER_BOUND('',#124,.T.);
#74=FACE_OUTER_BOUND('',#126,.T.);
#75=FACE_OUTER_BOUND('',#128,.T.);
#76=FACE_OUTER_BOUND('',#130,.T.);
#77=FACE_OUTER_BOUND('',#132,.T.);
#78=FACE_OUTER_BOUND('',#133,.T.);
#79=FACE_OUTER_BOUND('',#134,.T.);
#80=FACE_OUTER_BOUND('',#135,.T.);
#81=FACE_OUTER_BOUND('',#136,.T.);
#82=FACE_OUTER_BOUND('',#137,.T.);
#83=FACE_OUTER_BOUND('',#138,.T.);
#84=FACE_OUTER_BOUND('',#139,.T.);
#85=FACE_OUTER_BOUND('',#140,.T.);
#86=FACE_OUTER_BOUND('',#141,.T.);
#87=FACE_OUTER_BOUND('',#142,.T.);
#88=FACE_OUTER_BOUND('',#143,.T.);
#89=FACE_OUTER_BOUND('',#144,.T.);
#90=FACE_OUTER_BOUND('',#145,.T.);
#91=FACE_OUTER_BOUND('',#146,.T.);
#92=FACE_OUTER_BOUND('',#147,.T.);
#93=FACE_OUTER_BOUND('',#149,.T.);
#94=FACE_OUTER_BOUND('',#150,.T.);
#95=FACE_OUTER_BOUND('',#151,.T.);
#96=FACE_OUTER_BOUND('',#152,.T.);
#97=FACE_OUTER_BOUND('',#153,.T.);
#98=FACE_OUTER_BOUND('',#154,.T.);
#99=FACE_OUTER_BOUND('',#155,.T.);
#100=FACE_OUTER_BOUND('',#156,.T.);
#101=FACE_OUTER_BOUND('',#157,.T.);
#102=FACE_OUTER_BOUND('',#158,.T.);
#103=FACE_OUTER_BOUND('',#159,.T.);
#104=FACE_OUTER_BOUND('',#160,.T.);
#105=FACE_OUTER_BOUND('',#161,.T.);
#106=FACE_OUTER_BOUND('',#162,.T.);
#107=EDGE_LOOP('',(#555,#556,#557,#558));
#108=EDGE_LOOP('',(#559,#560,#561,#562));
#109=EDGE_LOOP('',(#563,#564,#565,#566));
#110=EDGE_LOOP('',(#567,#568,#569,#570));
#111=EDGE_LOOP('',(#571,#572,#573,#574));
#112=EDGE_LOOP('',(#575,#576,#577,#578));
#113=EDGE_LOOP('',(#579,#580,#581,#582));
#114=EDGE_LOOP('',(#583,#584,#585,#586,#587,#588,#589,#590));
#115=EDGE_LOOP('',(#591,#592,#593,#594));
#116=EDGE_LOOP('',(#595,#596,#597,#598));
#117=EDGE_LOOP('',(#599,#600,#601,#602));
#118=EDGE_LOOP('',(#603,#604,#605,#606));
#119=EDGE_LOOP('',(#607,#608,#609,#610));
#120=EDGE_LOOP('',(#611,#612,#613,#614,#615,#616,#617,#618));
#121=EDGE_LOOP('',(#619,#620,#621,#622));
#122=EDGE_LOOP('',(#623,#624,#625,#626));
#123=EDGE_LOOP('',(#627,#628,#629,#630));
#124=EDGE_LOOP('',(#631,#632,#633,#634,#635));
#125=EDGE_LOOP('',(#636));
#126=EDGE_LOOP('',(#637,#638,#639,#640,#641));
#127=EDGE_LOOP('',(#642));
#128=EDGE_LOOP('',(#643,#644,#645,#646,#647));
#129=EDGE_LOOP('',(#648));
#130=EDGE_LOOP('',(#649,#650,#651,#652,#653));
#131=EDGE_LOOP('',(#654));
#132=EDGE_LOOP('',(#655,#656,#657,#658));
#133=EDGE_LOOP('',(#659,#660,#661,#662));
#134=EDGE_LOOP('',(#663,#664,#665,#666,#667,#668,#669,#670));
#135=EDGE_LOOP('',(#671,#672,#673,#674));
#136=EDGE_LOOP('',(#675,#676,#677,#678));
#137=EDGE_LOOP('',(#679,#680,#681,#682));
#138=EDGE_LOOP('',(#683,#684,#685,#686,#687,#688,#689,#690));
#139=EDGE_LOOP('',(#691,#692,#693,#694));
#140=EDGE_LOOP('',(#695,#696,#697,#698));
#141=EDGE_LOOP('',(#699,#700,#701,#702));
#142=EDGE_LOOP('',(#703,#704,#705,#706));
#143=EDGE_LOOP('',(#707,#708,#709,#710));
#144=EDGE_LOOP('',(#711));
#145=EDGE_LOOP('',(#712));
#146=EDGE_LOOP('',(#713));
#147=EDGE_LOOP('',(#714,#715,#716,#717,#718,#719,#720,#721,#722,#723,#724,
#725,#726,#727,#728,#729));
#148=EDGE_LOOP('',(#730,#731,#732,#733));
#149=EDGE_LOOP('',(#734));
#150=EDGE_LOOP('',(#735,#736,#737,#738));
#151=EDGE_LOOP('',(#739,#740,#741,#742));
#152=EDGE_LOOP('',(#743,#744,#745,#746,#747,#748,#749,#750));
#153=EDGE_LOOP('',(#751,#752,#753,#754));
#154=EDGE_LOOP('',(#755,#756,#757,#758));
#155=EDGE_LOOP('',(#759,#760,#761,#762));
#156=EDGE_LOOP('',(#763,#764,#765,#766,#767,#768,#769,#770));
#157=EDGE_LOOP('',(#771,#772,#773,#774));
#158=EDGE_LOOP('',(#775,#776,#777,#778));
#159=EDGE_LOOP('',(#779,#780,#781,#782));
#160=EDGE_LOOP('',(#783,#784,#785,#786));
#161=EDGE_LOOP('',(#787,#788,#789,#790));
#162=EDGE_LOOP('',(#791,#792,#793,#794));
#163=LINE('',#1199,#259);
#164=LINE('',#1201,#260);
#165=LINE('',#1203,#261);
#166=LINE('',#1204,#262);
#167=LINE('',#1207,#263);
#168=LINE('',#1209,#264);
#169=LINE('',#1210,#265);
#170=LINE('',#1213,#266);
#171=LINE('',#1215,#267);
#172=LINE('',#1216,#268);
#173=LINE('',#1218,#269);
#174=LINE('',#1219,#270);
#175=LINE('',#1223,#271);
#176=LINE('',#1225,#272);
#177=LINE('',#1227,#273);
#178=LINE('',#1228,#274);
#179=LINE('',#1234,#275);
#180=LINE('',#1237,#276);
#181=LINE('',#1240,#277);
#182=LINE('',#1244,#278);
#183=LINE('',#1248,#279);
#184=LINE('',#1251,#280);
#185=LINE('',#1254,#281);
#186=LINE('',#1256,#282);
#187=LINE('',#1258,#283);
#188=LINE('',#1259,#284);
#189=LINE('',#1262,#285);
#190=LINE('',#1263,#286);
#191=LINE('',#1267,#287);
#192=LINE('',#1270,#288);
#193=LINE('',#1273,#289);
#194=LINE('',#1276,#290);
#195=LINE('',#1277,#291);
#196=LINE('',#1280,#292);
#197=LINE('',#1282,#293);
#198=LINE('',#1285,#294);
#199=LINE('',#1287,#295);
#200=LINE('',#1289,#296);
#201=LINE('',#1290,#297);
#202=LINE('',#1292,#298);
#203=LINE('',#1297,#299);
#204=LINE('',#1299,#300);
#205=LINE('',#1301,#301);
#206=LINE('',#1304,#302);
#207=LINE('',#1310,#303);
#208=LINE('',#1312,#304);
#209=LINE('',#1314,#305);
#210=LINE('',#1317,#306);
#211=LINE('',#1323,#307);
#212=LINE('',#1325,#308);
#213=LINE('',#1329,#309);
#214=LINE('',#1330,#310);
#215=LINE('',#1336,#311);
#216=LINE('',#1338,#312);
#217=LINE('',#1342,#313);
#218=LINE('',#1343,#314);
#219=LINE('',#1348,#315);
#220=LINE('',#1351,#316);
#221=LINE('',#1354,#317);
#222=LINE('',#1355,#318);
#223=LINE('',#1358,#319);
#224=LINE('',#1359,#320);
#225=LINE('',#1360,#321);
#226=LINE('',#1361,#322);
#227=LINE('',#1364,#323);
#228=LINE('',#1365,#324);
#229=LINE('',#1368,#325);
#230=LINE('',#1372,#326);
#231=LINE('',#1373,#327);
#232=LINE('',#1376,#328);
#233=LINE('',#1377,#329);
#234=LINE('',#1378,#330);
#235=LINE('',#1381,#331);
#236=LINE('',#1382,#332);
#237=LINE('',#1384,#333);
#238=LINE('',#1385,#334);
#239=LINE('',#1387,#335);
#240=LINE('',#1389,#336);
#241=LINE('',#1404,#337);
#242=LINE('',#1406,#338);
#243=LINE('',#1408,#339);
#244=LINE('',#1412,#340);
#245=LINE('',#1414,#341);
#246=LINE('',#1415,#342);
#247=LINE('',#1420,#343);
#248=LINE('',#1422,#344);
#249=LINE('',#1424,#345);
#250=LINE('',#1425,#346);
#251=LINE('',#1427,#347);
#252=LINE('',#1429,#348);
#253=LINE('',#1431,#349);
#254=LINE('',#1433,#350);
#255=LINE('',#1435,#351);
#256=LINE('',#1438,#352);
#257=LINE('',#1440,#353);
#258=LINE('',#1442,#354);
#259=VECTOR('',#957,10.);
#260=VECTOR('',#958,10.);
#261=VECTOR('',#959,10.);
#262=VECTOR('',#960,10.);
#263=VECTOR('',#963,10.);
#264=VECTOR('',#964,10.);
#265=VECTOR('',#965,10.);
#266=VECTOR('',#968,10.);
#267=VECTOR('',#969,10.);
#268=VECTOR('',#970,10.);
#269=VECTOR('',#973,10.);
#270=VECTOR('',#974,10.);
#271=VECTOR('',#977,10.);
#272=VECTOR('',#978,10.);
#273=VECTOR('',#979,10.);
#274=VECTOR('',#980,10.);
#275=VECTOR('',#985,10.);
#276=VECTOR('',#988,10.);
#277=VECTOR('',#991,10.);
#278=VECTOR('',#994,10.);
#279=VECTOR('',#997,10.);
#280=VECTOR('',#1000,10.);
#281=VECTOR('',#1001,10.);
#282=VECTOR('',#1002,10.);
#283=VECTOR('',#1003,10.);
#284=VECTOR('',#1004,10.);
#285=VECTOR('',#1007,10.);
#286=VECTOR('',#1008,10.);
#287=VECTOR('',#1013,10.);
#288=VECTOR('',#1016,10.);
#289=VECTOR('',#1019,10.);
#290=VECTOR('',#1022,10.);
#291=VECTOR('',#1023,10.);
#292=VECTOR('',#1026,10.);
#293=VECTOR('',#1029,10.);
#294=VECTOR('',#1030,10.);
#295=VECTOR('',#1031,10.);
#296=VECTOR('',#1032,10.);
#297=VECTOR('',#1033,10.);
#298=VECTOR('',#1036,10.);
#299=VECTOR('',#1041,10.);
#300=VECTOR('',#1042,10.);
#301=VECTOR('',#1043,10.);
#302=VECTOR('',#1046,10.);
#303=VECTOR('',#1051,10.);
#304=VECTOR('',#1052,10.);
#305=VECTOR('',#1053,10.);
#306=VECTOR('',#1056,10.);
#307=VECTOR('',#1061,10.);
#308=VECTOR('',#1062,10.);
#309=VECTOR('',#1065,10.);
#310=VECTOR('',#1066,10.);
#311=VECTOR('',#1071,10.);
#312=VECTOR('',#1072,10.);
#313=VECTOR('',#1075,10.);
#314=VECTOR('',#1076,10.);
#315=VECTOR('',#1081,10.);
#316=VECTOR('',#1084,10.);
#317=VECTOR('',#1087,10.);
#318=VECTOR('',#1088,10.);
#319=VECTOR('',#1091,10.);
#320=VECTOR('',#1092,10.);
#321=VECTOR('',#1093,10.);
#322=VECTOR('',#1094,10.);
#323=VECTOR('',#1097,10.);
#324=VECTOR('',#1098,10.);
#325=VECTOR('',#1101,10.);
#326=VECTOR('',#1106,10.);
#327=VECTOR('',#1107,10.);
#328=VECTOR('',#1110,10.);
#329=VECTOR('',#1111,10.);
#330=VECTOR('',#1112,10.);
#331=VECTOR('',#1115,10.);
#332=VECTOR('',#1116,10.);
#333=VECTOR('',#1119,10.);
#334=VECTOR('',#1120,10.);
#335=VECTOR('',#1123,10.);
#336=VECTOR('',#1126,10.);
#337=VECTOR('',#1145,10.);
#338=VECTOR('',#1146,10.);
#339=VECTOR('',#1147,10.);
#340=VECTOR('',#1150,10.);
#341=VECTOR('',#1151,10.);
#342=VECTOR('',#1152,10.);
#343=VECTOR('',#1159,1.55);
#344=VECTOR('',#1162,10.);
#345=VECTOR('',#1165,10.);
#346=VECTOR('',#1166,10.);
#347=VECTOR('',#1169,10.);
#348=VECTOR('',#1172,10.);
#349=VECTOR('',#1175,10.);
#350=VECTOR('',#1178,10.);
#351=VECTOR('',#1181,10.);
#352=VECTOR('',#1186,1.55);
#353=VECTOR('',#1189,1.55);
#354=VECTOR('',#1192,1.55);
#355=VERTEX_POINT('',#1197);
#356=VERTEX_POINT('',#1198);
#357=VERTEX_POINT('',#1200);
#358=VERTEX_POINT('',#1202);
#359=VERTEX_POINT('',#1206);
#360=VERTEX_POINT('',#1208);
#361=VERTEX_POINT('',#1212);
#362=VERTEX_POINT('',#1214);
#363=VERTEX_POINT('',#1221);
#364=VERTEX_POINT('',#1222);
#365=VERTEX_POINT('',#1224);
#366=VERTEX_POINT('',#1226);
#367=VERTEX_POINT('',#1230);
#368=VERTEX_POINT('',#1231);
#369=VERTEX_POINT('',#1233);
#370=VERTEX_POINT('',#1235);
#371=VERTEX_POINT('',#1239);
#372=VERTEX_POINT('',#1241);
#373=VERTEX_POINT('',#1243);
#374=VERTEX_POINT('',#1245);
#375=VERTEX_POINT('',#1247);
#376=VERTEX_POINT('',#1249);
#377=VERTEX_POINT('',#1252);
#378=VERTEX_POINT('',#1253);
#379=VERTEX_POINT('',#1255);
#380=VERTEX_POINT('',#1257);
#381=VERTEX_POINT('',#1261);
#382=VERTEX_POINT('',#1265);
#383=VERTEX_POINT('',#1269);
#384=VERTEX_POINT('',#1271);
#385=VERTEX_POINT('',#1275);
#386=VERTEX_POINT('',#1279);
#387=VERTEX_POINT('',#1283);
#388=VERTEX_POINT('',#1284);
#389=VERTEX_POINT('',#1286);
#390=VERTEX_POINT('',#1288);
#391=VERTEX_POINT('',#1295);
#392=VERTEX_POINT('',#1296);
#393=VERTEX_POINT('',#1298);
#394=VERTEX_POINT('',#1300);
#395=VERTEX_POINT('',#1302);
#396=VERTEX_POINT('',#1305);
#397=VERTEX_POINT('',#1308);
#398=VERTEX_POINT('',#1309);
#399=VERTEX_POINT('',#1311);
#400=VERTEX_POINT('',#1313);
#401=VERTEX_POINT('',#1315);
#402=VERTEX_POINT('',#1318);
#403=VERTEX_POINT('',#1321);
#404=VERTEX_POINT('',#1322);
#405=VERTEX_POINT('',#1324);
#406=VERTEX_POINT('',#1326);
#407=VERTEX_POINT('',#1328);
#408=VERTEX_POINT('',#1331);
#409=VERTEX_POINT('',#1334);
#410=VERTEX_POINT('',#1335);
#411=VERTEX_POINT('',#1337);
#412=VERTEX_POINT('',#1339);
#413=VERTEX_POINT('',#1341);
#414=VERTEX_POINT('',#1344);
#415=VERTEX_POINT('',#1347);
#416=VERTEX_POINT('',#1349);
#417=VERTEX_POINT('',#1353);
#418=VERTEX_POINT('',#1357);
#419=VERTEX_POINT('',#1363);
#420=VERTEX_POINT('',#1367);
#421=VERTEX_POINT('',#1371);
#422=VERTEX_POINT('',#1375);
#423=VERTEX_POINT('',#1380);
#424=VERTEX_POINT('',#1392);
#425=VERTEX_POINT('',#1395);
#426=VERTEX_POINT('',#1398);
#427=VERTEX_POINT('',#1401);
#428=VERTEX_POINT('',#1403);
#429=VERTEX_POINT('',#1405);
#430=VERTEX_POINT('',#1407);
#431=VERTEX_POINT('',#1409);
#432=VERTEX_POINT('',#1411);
#433=VERTEX_POINT('',#1413);
#434=VERTEX_POINT('',#1417);
#435=EDGE_CURVE('',#355,#356,#163,.T.);
#436=EDGE_CURVE('',#355,#357,#164,.T.);
#437=EDGE_CURVE('',#358,#357,#165,.T.);
#438=EDGE_CURVE('',#356,#358,#166,.T.);
#439=EDGE_CURVE('',#356,#359,#167,.T.);
#440=EDGE_CURVE('',#360,#358,#168,.T.);
#441=EDGE_CURVE('',#359,#360,#169,.T.);
#442=EDGE_CURVE('',#359,#361,#170,.T.);
#443=EDGE_CURVE('',#362,#360,#171,.T.);
#444=EDGE_CURVE('',#361,#362,#172,.T.);
#445=EDGE_CURVE('',#361,#355,#173,.T.);
#446=EDGE_CURVE('',#357,#362,#174,.T.);
#447=EDGE_CURVE('',#363,#364,#175,.T.);
#448=EDGE_CURVE('',#364,#365,#176,.T.);
#449=EDGE_CURVE('',#365,#366,#177,.T.);
#450=EDGE_CURVE('',#366,#363,#178,.T.);
#451=EDGE_CURVE('',#367,#368,#15,.T.);
#452=EDGE_CURVE('',#368,#369,#179,.T.);
#453=EDGE_CURVE('',#369,#370,#16,.T.);
#454=EDGE_CURVE('',#370,#367,#180,.T.);
#455=EDGE_CURVE('',#367,#371,#181,.T.);
#456=EDGE_CURVE('',#372,#371,#17,.T.);
#457=EDGE_CURVE('',#372,#373,#182,.T.);
#458=EDGE_CURVE('',#374,#373,#18,.T.);
#459=EDGE_CURVE('',#374,#375,#183,.T.);
#460=EDGE_CURVE('',#376,#375,#19,.T.);
#461=EDGE_CURVE('',#376,#368,#184,.T.);
#462=EDGE_CURVE('',#377,#378,#185,.T.);
#463=EDGE_CURVE('',#378,#379,#186,.T.);
#464=EDGE_CURVE('',#379,#380,#187,.T.);
#465=EDGE_CURVE('',#380,#377,#188,.T.);
#466=EDGE_CURVE('',#381,#370,#189,.T.);
#467=EDGE_CURVE('',#371,#381,#190,.T.);
#468=EDGE_CURVE('',#381,#382,#20,.T.);
#469=EDGE_CURVE('',#382,#372,#191,.T.);
#470=EDGE_CURVE('',#373,#383,#192,.T.);
#471=EDGE_CURVE('',#383,#384,#21,.T.);
#472=EDGE_CURVE('',#384,#374,#193,.T.);
#473=EDGE_CURVE('',#385,#384,#194,.T.);
#474=EDGE_CURVE('',#375,#385,#195,.T.);
#475=EDGE_CURVE('',#369,#386,#196,.T.);
#476=EDGE_CURVE('',#385,#386,#22,.T.);
#477=EDGE_CURVE('',#383,#382,#197,.T.);
#478=EDGE_CURVE('',#387,#388,#198,.T.);
#479=EDGE_CURVE('',#388,#389,#199,.T.);
#480=EDGE_CURVE('',#389,#390,#200,.T.);
#481=EDGE_CURVE('',#390,#387,#201,.T.);
#482=EDGE_CURVE('',#386,#376,#202,.T.);
#483=EDGE_CURVE('',#391,#392,#203,.T.);
#484=EDGE_CURVE('',#392,#393,#204,.T.);
#485=EDGE_CURVE('',#394,#393,#205,.T.);
#486=EDGE_CURVE('',#395,#394,#23,.T.);
#487=EDGE_CURVE('',#391,#395,#206,.T.);
#488=EDGE_CURVE('',#396,#396,#24,.T.);
#489=EDGE_CURVE('',#397,#398,#207,.T.);
#490=EDGE_CURVE('',#398,#399,#208,.T.);
#491=EDGE_CURVE('',#400,#399,#209,.T.);
#492=EDGE_CURVE('',#401,#400,#25,.T.);
#493=EDGE_CURVE('',#397,#401,#210,.T.);
#494=EDGE_CURVE('',#402,#402,#26,.T.);
#495=EDGE_CURVE('',#403,#404,#211,.T.);
#496=EDGE_CURVE('',#405,#404,#212,.T.);
#497=EDGE_CURVE('',#406,#405,#27,.T.);
#498=EDGE_CURVE('',#407,#406,#213,.T.);
#499=EDGE_CURVE('',#407,#403,#214,.T.);
#500=EDGE_CURVE('',#408,#408,#28,.T.);
#501=EDGE_CURVE('',#409,#410,#215,.T.);
#502=EDGE_CURVE('',#411,#410,#216,.T.);
#503=EDGE_CURVE('',#412,#411,#29,.T.);
#504=EDGE_CURVE('',#413,#412,#217,.T.);
#505=EDGE_CURVE('',#413,#409,#218,.T.);
#506=EDGE_CURVE('',#414,#414,#30,.T.);
#507=EDGE_CURVE('',#394,#415,#219,.T.);
#508=EDGE_CURVE('',#416,#415,#31,.T.);
#509=EDGE_CURVE('',#395,#416,#220,.T.);
#510=EDGE_CURVE('',#393,#417,#221,.T.);
#511=EDGE_CURVE('',#415,#417,#222,.T.);
#512=EDGE_CURVE('',#407,#418,#223,.T.);
#513=EDGE_CURVE('',#417,#418,#224,.T.);
#514=EDGE_CURVE('',#392,#387,#225,.T.);
#515=EDGE_CURVE('',#403,#390,#226,.T.);
#516=EDGE_CURVE('',#406,#419,#227,.T.);
#517=EDGE_CURVE('',#418,#419,#228,.T.);
#518=EDGE_CURVE('',#405,#420,#229,.T.);
#519=EDGE_CURVE('',#419,#420,#32,.T.);
#520=EDGE_CURVE('',#404,#421,#230,.T.);
#521=EDGE_CURVE('',#420,#421,#231,.T.);
#522=EDGE_CURVE('',#413,#422,#232,.T.);
#523=EDGE_CURVE('',#421,#422,#233,.T.);
#524=EDGE_CURVE('',#409,#389,#234,.T.);
#525=EDGE_CURVE('',#412,#423,#235,.T.);
#526=EDGE_CURVE('',#422,#423,#236,.T.);
#527=EDGE_CURVE('',#377,#366,#237,.T.);
#528=EDGE_CURVE('',#378,#365,#238,.T.);
#529=EDGE_CURVE('',#380,#363,#239,.T.);
#530=EDGE_CURVE('',#379,#364,#240,.T.);
#531=EDGE_CURVE('',#424,#424,#33,.T.);
#532=EDGE_CURVE('',#425,#425,#34,.T.);
#533=EDGE_CURVE('',#426,#426,#35,.T.);
#534=EDGE_CURVE('',#423,#427,#36,.T.);
#535=EDGE_CURVE('',#427,#428,#241,.T.);
#536=EDGE_CURVE('',#428,#429,#242,.T.);
#537=EDGE_CURVE('',#429,#430,#243,.T.);
#538=EDGE_CURVE('',#430,#431,#37,.T.);
#539=EDGE_CURVE('',#431,#432,#244,.T.);
#540=EDGE_CURVE('',#432,#433,#245,.T.);
#541=EDGE_CURVE('',#433,#416,#246,.T.);
#542=EDGE_CURVE('',#434,#434,#38,.T.);
#543=EDGE_CURVE('',#434,#408,#247,.T.);
#544=EDGE_CURVE('',#391,#433,#248,.T.);
#545=EDGE_CURVE('',#399,#432,#249,.T.);
#546=EDGE_CURVE('',#398,#388,#250,.T.);
#547=EDGE_CURVE('',#400,#431,#251,.T.);
#548=EDGE_CURVE('',#401,#430,#252,.T.);
#549=EDGE_CURVE('',#397,#429,#253,.T.);
#550=EDGE_CURVE('',#410,#428,#254,.T.);
#551=EDGE_CURVE('',#411,#427,#255,.T.);
#552=EDGE_CURVE('',#426,#414,#256,.T.);
#553=EDGE_CURVE('',#425,#396,#257,.T.);
#554=EDGE_CURVE('',#424,#402,#258,.T.);
#555=ORIENTED_EDGE('',*,*,#435,.F.);
#556=ORIENTED_EDGE('',*,*,#436,.T.);
#557=ORIENTED_EDGE('',*,*,#437,.F.);
#558=ORIENTED_EDGE('',*,*,#438,.F.);
#559=ORIENTED_EDGE('',*,*,#439,.F.);
#560=ORIENTED_EDGE('',*,*,#438,.T.);
#561=ORIENTED_EDGE('',*,*,#440,.F.);
#562=ORIENTED_EDGE('',*,*,#441,.F.);
#563=ORIENTED_EDGE('',*,*,#442,.F.);
#564=ORIENTED_EDGE('',*,*,#441,.T.);
#565=ORIENTED_EDGE('',*,*,#443,.F.);
#566=ORIENTED_EDGE('',*,*,#444,.F.);
#567=ORIENTED_EDGE('',*,*,#445,.F.);
#568=ORIENTED_EDGE('',*,*,#444,.T.);
#569=ORIENTED_EDGE('',*,*,#446,.F.);
#570=ORIENTED_EDGE('',*,*,#436,.F.);
#571=ORIENTED_EDGE('',*,*,#446,.T.);
#572=ORIENTED_EDGE('',*,*,#443,.T.);
#573=ORIENTED_EDGE('',*,*,#440,.T.);
#574=ORIENTED_EDGE('',*,*,#437,.T.);
#575=ORIENTED_EDGE('',*,*,#447,.T.);
#576=ORIENTED_EDGE('',*,*,#448,.T.);
#577=ORIENTED_EDGE('',*,*,#449,.T.);
#578=ORIENTED_EDGE('',*,*,#450,.T.);
#579=ORIENTED_EDGE('',*,*,#451,.T.);
#580=ORIENTED_EDGE('',*,*,#452,.T.);
#581=ORIENTED_EDGE('',*,*,#453,.T.);
#582=ORIENTED_EDGE('',*,*,#454,.T.);
#583=ORIENTED_EDGE('',*,*,#451,.F.);
#584=ORIENTED_EDGE('',*,*,#455,.T.);
#585=ORIENTED_EDGE('',*,*,#456,.F.);
#586=ORIENTED_EDGE('',*,*,#457,.T.);
#587=ORIENTED_EDGE('',*,*,#458,.F.);
#588=ORIENTED_EDGE('',*,*,#459,.T.);
#589=ORIENTED_EDGE('',*,*,#460,.F.);
#590=ORIENTED_EDGE('',*,*,#461,.T.);
#591=ORIENTED_EDGE('',*,*,#462,.T.);
#592=ORIENTED_EDGE('',*,*,#463,.T.);
#593=ORIENTED_EDGE('',*,*,#464,.T.);
#594=ORIENTED_EDGE('',*,*,#465,.T.);
#595=ORIENTED_EDGE('',*,*,#454,.F.);
#596=ORIENTED_EDGE('',*,*,#466,.F.);
#597=ORIENTED_EDGE('',*,*,#467,.F.);
#598=ORIENTED_EDGE('',*,*,#455,.F.);
#599=ORIENTED_EDGE('',*,*,#456,.T.);
#600=ORIENTED_EDGE('',*,*,#467,.T.);
#601=ORIENTED_EDGE('',*,*,#468,.T.);
#602=ORIENTED_EDGE('',*,*,#469,.T.);
#603=ORIENTED_EDGE('',*,*,#458,.T.);
#604=ORIENTED_EDGE('',*,*,#470,.T.);
#605=ORIENTED_EDGE('',*,*,#471,.T.);
#606=ORIENTED_EDGE('',*,*,#472,.T.);
#607=ORIENTED_EDGE('',*,*,#472,.F.);
#608=ORIENTED_EDGE('',*,*,#473,.F.);
#609=ORIENTED_EDGE('',*,*,#474,.F.);
#610=ORIENTED_EDGE('',*,*,#459,.F.);
#611=ORIENTED_EDGE('',*,*,#453,.F.);
#612=ORIENTED_EDGE('',*,*,#475,.T.);
#613=ORIENTED_EDGE('',*,*,#476,.F.);
#614=ORIENTED_EDGE('',*,*,#473,.T.);
#615=ORIENTED_EDGE('',*,*,#471,.F.);
#616=ORIENTED_EDGE('',*,*,#477,.T.);
#617=ORIENTED_EDGE('',*,*,#468,.F.);
#618=ORIENTED_EDGE('',*,*,#466,.T.);
#619=ORIENTED_EDGE('',*,*,#478,.T.);
#620=ORIENTED_EDGE('',*,*,#479,.T.);
#621=ORIENTED_EDGE('',*,*,#480,.T.);
#622=ORIENTED_EDGE('',*,*,#481,.T.);
#623=ORIENTED_EDGE('',*,*,#460,.T.);
#624=ORIENTED_EDGE('',*,*,#474,.T.);
#625=ORIENTED_EDGE('',*,*,#476,.T.);
#626=ORIENTED_EDGE('',*,*,#482,.T.);
#627=ORIENTED_EDGE('',*,*,#452,.F.);
#628=ORIENTED_EDGE('',*,*,#461,.F.);
#629=ORIENTED_EDGE('',*,*,#482,.F.);
#630=ORIENTED_EDGE('',*,*,#475,.F.);
#631=ORIENTED_EDGE('',*,*,#483,.T.);
#632=ORIENTED_EDGE('',*,*,#484,.T.);
#633=ORIENTED_EDGE('',*,*,#485,.F.);
#634=ORIENTED_EDGE('',*,*,#486,.F.);
#635=ORIENTED_EDGE('',*,*,#487,.F.);
#636=ORIENTED_EDGE('',*,*,#488,.F.);
#637=ORIENTED_EDGE('',*,*,#489,.T.);
#638=ORIENTED_EDGE('',*,*,#490,.T.);
#639=ORIENTED_EDGE('',*,*,#491,.F.);
#640=ORIENTED_EDGE('',*,*,#492,.F.);
#641=ORIENTED_EDGE('',*,*,#493,.F.);
#642=ORIENTED_EDGE('',*,*,#494,.F.);
#643=ORIENTED_EDGE('',*,*,#495,.T.);
#644=ORIENTED_EDGE('',*,*,#496,.F.);
#645=ORIENTED_EDGE('',*,*,#497,.F.);
#646=ORIENTED_EDGE('',*,*,#498,.F.);
#647=ORIENTED_EDGE('',*,*,#499,.T.);
#648=ORIENTED_EDGE('',*,*,#500,.F.);
#649=ORIENTED_EDGE('',*,*,#501,.T.);
#650=ORIENTED_EDGE('',*,*,#502,.F.);
#651=ORIENTED_EDGE('',*,*,#503,.F.);
#652=ORIENTED_EDGE('',*,*,#504,.F.);
#653=ORIENTED_EDGE('',*,*,#505,.T.);
#654=ORIENTED_EDGE('',*,*,#506,.F.);
#655=ORIENTED_EDGE('',*,*,#486,.T.);
#656=ORIENTED_EDGE('',*,*,#507,.T.);
#657=ORIENTED_EDGE('',*,*,#508,.F.);
#658=ORIENTED_EDGE('',*,*,#509,.F.);
#659=ORIENTED_EDGE('',*,*,#485,.T.);
#660=ORIENTED_EDGE('',*,*,#510,.T.);
#661=ORIENTED_EDGE('',*,*,#511,.F.);
#662=ORIENTED_EDGE('',*,*,#507,.F.);
#663=ORIENTED_EDGE('',*,*,#512,.T.);
#664=ORIENTED_EDGE('',*,*,#513,.F.);
#665=ORIENTED_EDGE('',*,*,#510,.F.);
#666=ORIENTED_EDGE('',*,*,#484,.F.);
#667=ORIENTED_EDGE('',*,*,#514,.T.);
#668=ORIENTED_EDGE('',*,*,#481,.F.);
#669=ORIENTED_EDGE('',*,*,#515,.F.);
#670=ORIENTED_EDGE('',*,*,#499,.F.);
#671=ORIENTED_EDGE('',*,*,#498,.T.);
#672=ORIENTED_EDGE('',*,*,#516,.T.);
#673=ORIENTED_EDGE('',*,*,#517,.F.);
#674=ORIENTED_EDGE('',*,*,#512,.F.);
#675=ORIENTED_EDGE('',*,*,#497,.T.);
#676=ORIENTED_EDGE('',*,*,#518,.T.);
#677=ORIENTED_EDGE('',*,*,#519,.F.);
#678=ORIENTED_EDGE('',*,*,#516,.F.);
#679=ORIENTED_EDGE('',*,*,#496,.T.);
#680=ORIENTED_EDGE('',*,*,#520,.T.);
#681=ORIENTED_EDGE('',*,*,#521,.F.);
#682=ORIENTED_EDGE('',*,*,#518,.F.);
#683=ORIENTED_EDGE('',*,*,#522,.T.);
#684=ORIENTED_EDGE('',*,*,#523,.F.);
#685=ORIENTED_EDGE('',*,*,#520,.F.);
#686=ORIENTED_EDGE('',*,*,#495,.F.);
#687=ORIENTED_EDGE('',*,*,#515,.T.);
#688=ORIENTED_EDGE('',*,*,#480,.F.);
#689=ORIENTED_EDGE('',*,*,#524,.F.);
#690=ORIENTED_EDGE('',*,*,#505,.F.);
#691=ORIENTED_EDGE('',*,*,#504,.T.);
#692=ORIENTED_EDGE('',*,*,#525,.T.);
#693=ORIENTED_EDGE('',*,*,#526,.F.);
#694=ORIENTED_EDGE('',*,*,#522,.F.);
#695=ORIENTED_EDGE('',*,*,#462,.F.);
#696=ORIENTED_EDGE('',*,*,#527,.T.);
#697=ORIENTED_EDGE('',*,*,#449,.F.);
#698=ORIENTED_EDGE('',*,*,#528,.F.);
#699=ORIENTED_EDGE('',*,*,#465,.F.);
#700=ORIENTED_EDGE('',*,*,#529,.T.);
#701=ORIENTED_EDGE('',*,*,#450,.F.);
#702=ORIENTED_EDGE('',*,*,#527,.F.);
#703=ORIENTED_EDGE('',*,*,#464,.F.);
#704=ORIENTED_EDGE('',*,*,#530,.T.);
#705=ORIENTED_EDGE('',*,*,#447,.F.);
#706=ORIENTED_EDGE('',*,*,#529,.F.);
#707=ORIENTED_EDGE('',*,*,#463,.F.);
#708=ORIENTED_EDGE('',*,*,#528,.T.);
#709=ORIENTED_EDGE('',*,*,#448,.F.);
#710=ORIENTED_EDGE('',*,*,#530,.F.);
#711=ORIENTED_EDGE('',*,*,#531,.T.);
#712=ORIENTED_EDGE('',*,*,#532,.T.);
#713=ORIENTED_EDGE('',*,*,#533,.T.);
#714=ORIENTED_EDGE('',*,*,#523,.T.);
#715=ORIENTED_EDGE('',*,*,#526,.T.);
#716=ORIENTED_EDGE('',*,*,#534,.T.);
#717=ORIENTED_EDGE('',*,*,#535,.T.);
#718=ORIENTED_EDGE('',*,*,#536,.T.);
#719=ORIENTED_EDGE('',*,*,#537,.T.);
#720=ORIENTED_EDGE('',*,*,#538,.T.);
#721=ORIENTED_EDGE('',*,*,#539,.T.);
#722=ORIENTED_EDGE('',*,*,#540,.T.);
#723=ORIENTED_EDGE('',*,*,#541,.T.);
#724=ORIENTED_EDGE('',*,*,#508,.T.);
#725=ORIENTED_EDGE('',*,*,#511,.T.);
#726=ORIENTED_EDGE('',*,*,#513,.T.);
#727=ORIENTED_EDGE('',*,*,#517,.T.);
#728=ORIENTED_EDGE('',*,*,#519,.T.);
#729=ORIENTED_EDGE('',*,*,#521,.T.);
#730=ORIENTED_EDGE('',*,*,#435,.T.);
#731=ORIENTED_EDGE('',*,*,#439,.T.);
#732=ORIENTED_EDGE('',*,*,#442,.T.);
#733=ORIENTED_EDGE('',*,*,#445,.T.);
#734=ORIENTED_EDGE('',*,*,#542,.T.);
#735=ORIENTED_EDGE('',*,*,#542,.F.);
#736=ORIENTED_EDGE('',*,*,#543,.T.);
#737=ORIENTED_EDGE('',*,*,#500,.T.);
#738=ORIENTED_EDGE('',*,*,#543,.F.);
#739=ORIENTED_EDGE('',*,*,#487,.T.);
#740=ORIENTED_EDGE('',*,*,#509,.T.);
#741=ORIENTED_EDGE('',*,*,#541,.F.);
#742=ORIENTED_EDGE('',*,*,#544,.F.);
#743=ORIENTED_EDGE('',*,*,#544,.T.);
#744=ORIENTED_EDGE('',*,*,#540,.F.);
#745=ORIENTED_EDGE('',*,*,#545,.F.);
#746=ORIENTED_EDGE('',*,*,#490,.F.);
#747=ORIENTED_EDGE('',*,*,#546,.T.);
#748=ORIENTED_EDGE('',*,*,#478,.F.);
#749=ORIENTED_EDGE('',*,*,#514,.F.);
#750=ORIENTED_EDGE('',*,*,#483,.F.);
#751=ORIENTED_EDGE('',*,*,#491,.T.);
#752=ORIENTED_EDGE('',*,*,#545,.T.);
#753=ORIENTED_EDGE('',*,*,#539,.F.);
#754=ORIENTED_EDGE('',*,*,#547,.F.);
#755=ORIENTED_EDGE('',*,*,#492,.T.);
#756=ORIENTED_EDGE('',*,*,#547,.T.);
#757=ORIENTED_EDGE('',*,*,#538,.F.);
#758=ORIENTED_EDGE('',*,*,#548,.F.);
#759=ORIENTED_EDGE('',*,*,#493,.T.);
#760=ORIENTED_EDGE('',*,*,#548,.T.);
#761=ORIENTED_EDGE('',*,*,#537,.F.);
#762=ORIENTED_EDGE('',*,*,#549,.F.);
#763=ORIENTED_EDGE('',*,*,#549,.T.);
#764=ORIENTED_EDGE('',*,*,#536,.F.);
#765=ORIENTED_EDGE('',*,*,#550,.F.);
#766=ORIENTED_EDGE('',*,*,#501,.F.);
#767=ORIENTED_EDGE('',*,*,#524,.T.);
#768=ORIENTED_EDGE('',*,*,#479,.F.);
#769=ORIENTED_EDGE('',*,*,#546,.F.);
#770=ORIENTED_EDGE('',*,*,#489,.F.);
#771=ORIENTED_EDGE('',*,*,#502,.T.);
#772=ORIENTED_EDGE('',*,*,#550,.T.);
#773=ORIENTED_EDGE('',*,*,#535,.F.);
#774=ORIENTED_EDGE('',*,*,#551,.F.);
#775=ORIENTED_EDGE('',*,*,#503,.T.);
#776=ORIENTED_EDGE('',*,*,#551,.T.);
#777=ORIENTED_EDGE('',*,*,#534,.F.);
#778=ORIENTED_EDGE('',*,*,#525,.F.);
#779=ORIENTED_EDGE('',*,*,#533,.F.);
#780=ORIENTED_EDGE('',*,*,#552,.T.);
#781=ORIENTED_EDGE('',*,*,#506,.T.);
#782=ORIENTED_EDGE('',*,*,#552,.F.);
#783=ORIENTED_EDGE('',*,*,#532,.F.);
#784=ORIENTED_EDGE('',*,*,#553,.T.);
#785=ORIENTED_EDGE('',*,*,#488,.T.);
#786=ORIENTED_EDGE('',*,*,#553,.F.);
#787=ORIENTED_EDGE('',*,*,#531,.F.);
#788=ORIENTED_EDGE('',*,*,#554,.T.);
#789=ORIENTED_EDGE('',*,*,#494,.T.);
#790=ORIENTED_EDGE('',*,*,#554,.F.);
#791=ORIENTED_EDGE('',*,*,#469,.F.);
#792=ORIENTED_EDGE('',*,*,#477,.F.);
#793=ORIENTED_EDGE('',*,*,#470,.F.);
#794=ORIENTED_EDGE('',*,*,#457,.F.);
#795=PLANE('',#881);
#796=PLANE('',#882);
#797=PLANE('',#883);
#798=PLANE('',#884);
#799=PLANE('',#885);
#800=PLANE('',#889);
#801=PLANE('',#893);
#802=PLANE('',#898);
#803=PLANE('',#899);
#804=PLANE('',#902);
#805=PLANE('',#903);
#806=PLANE('',#906);
#807=PLANE('',#909);
#808=PLANE('',#912);
#809=PLANE('',#917);
#810=PLANE('',#918);
#811=PLANE('',#919);
#812=PLANE('',#922);
#813=PLANE('',#923);
#814=PLANE('',#924);
#815=PLANE('',#925);
#816=PLANE('',#926);
#817=PLANE('',#927);
#818=PLANE('',#928);
#819=PLANE('',#929);
#820=PLANE('',#931);
#821=PLANE('',#933);
#822=PLANE('',#935);
#823=PLANE('',#938);
#824=PLANE('',#941);
#825=PLANE('',#942);
#826=PLANE('',#943);
#827=PLANE('',#945);
#828=PLANE('',#946);
#829=PLANE('',#947);
#830=PLANE('',#952);
#831=ADVANCED_FACE('',(#59),#795,.T.);
#832=ADVANCED_FACE('',(#60),#796,.T.);
#833=ADVANCED_FACE('',(#61),#797,.T.);
#834=ADVANCED_FACE('',(#62),#798,.T.);
#835=ADVANCED_FACE('',(#63,#51),#799,.T.);
#836=ADVANCED_FACE('',(#64),#39,.T.);
#837=ADVANCED_FACE('',(#65,#52),#800,.T.);
#838=ADVANCED_FACE('',(#66),#801,.T.);
#839=ADVANCED_FACE('',(#67),#40,.T.);
#840=ADVANCED_FACE('',(#68),#41,.T.);
#841=ADVANCED_FACE('',(#69),#802,.T.);
#842=ADVANCED_FACE('',(#70,#53),#803,.T.);
#843=ADVANCED_FACE('',(#71),#42,.T.);
#844=ADVANCED_FACE('',(#72),#804,.T.);
#845=ADVANCED_FACE('',(#73,#54),#805,.F.);
#846=ADVANCED_FACE('',(#74,#55),#806,.F.);
#847=ADVANCED_FACE('',(#75,#56),#807,.F.);
#848=ADVANCED_FACE('',(#76,#57),#808,.F.);
#849=ADVANCED_FACE('',(#77),#43,.T.);
#850=ADVANCED_FACE('',(#78),#809,.T.);
#851=ADVANCED_FACE('',(#79),#810,.T.);
#852=ADVANCED_FACE('',(#80),#811,.T.);
#853=ADVANCED_FACE('',(#81),#44,.T.);
#854=ADVANCED_FACE('',(#82),#812,.T.);
#855=ADVANCED_FACE('',(#83),#813,.T.);
#856=ADVANCED_FACE('',(#84),#814,.T.);
#857=ADVANCED_FACE('',(#85),#815,.F.);
#858=ADVANCED_FACE('',(#86),#816,.F.);
#859=ADVANCED_FACE('',(#87),#817,.F.);
#860=ADVANCED_FACE('',(#88),#818,.F.);
#861=ADVANCED_FACE('',(#89),#819,.F.);
#862=ADVANCED_FACE('',(#90),#820,.F.);
#863=ADVANCED_FACE('',(#91),#821,.F.);
#864=ADVANCED_FACE('',(#92,#58),#822,.F.);
#865=ADVANCED_FACE('',(#93),#823,.F.);
#866=ADVANCED_FACE('',(#94),#45,.F.);
#867=ADVANCED_FACE('',(#95),#824,.T.);
#868=ADVANCED_FACE('',(#96),#825,.T.);
#869=ADVANCED_FACE('',(#97),#826,.T.);
#870=ADVANCED_FACE('',(#98),#46,.T.);
#871=ADVANCED_FACE('',(#99),#827,.T.);
#872=ADVANCED_FACE('',(#100),#828,.T.);
#873=ADVANCED_FACE('',(#101),#829,.T.);
#874=ADVANCED_FACE('',(#102),#47,.T.);
#875=ADVANCED_FACE('',(#103),#48,.F.);
#876=ADVANCED_FACE('',(#104),#49,.F.);
#877=ADVANCED_FACE('',(#105),#50,.F.);
#878=ADVANCED_FACE('',(#106),#830,.T.);
#879=CLOSED_SHELL('',(#831,#832,#833,#834,#835,#836,#837,#838,#839,#840,
#841,#842,#843,#844,#845,#846,#847,#848,#849,#850,#851,#852,#853,#854,#855,
#856,#857,#858,#859,#860,#861,#862,#863,#864,#865,#866,#867,#868,#869,#870,
#871,#872,#873,#874,#875,#876,#877,#878));
#880=AXIS2_PLACEMENT_3D('',#1195,#953,#954);
#881=AXIS2_PLACEMENT_3D('',#1196,#955,#956);
#882=AXIS2_PLACEMENT_3D('',#1205,#961,#962);
#883=AXIS2_PLACEMENT_3D('',#1211,#966,#967);
#884=AXIS2_PLACEMENT_3D('',#1217,#971,#972);
#885=AXIS2_PLACEMENT_3D('',#1220,#975,#976);
#886=AXIS2_PLACEMENT_3D('',#1229,#981,#982);
#887=AXIS2_PLACEMENT_3D('',#1232,#983,#984);
#888=AXIS2_PLACEMENT_3D('',#1236,#986,#987);
#889=AXIS2_PLACEMENT_3D('',#1238,#989,#990);
#890=AXIS2_PLACEMENT_3D('',#1242,#992,#993);
#891=AXIS2_PLACEMENT_3D('',#1246,#995,#996);
#892=AXIS2_PLACEMENT_3D('',#1250,#998,#999);
#893=AXIS2_PLACEMENT_3D('',#1260,#1005,#1006);
#894=AXIS2_PLACEMENT_3D('',#1264,#1009,#1010);
#895=AXIS2_PLACEMENT_3D('',#1266,#1011,#1012);
#896=AXIS2_PLACEMENT_3D('',#1268,#1014,#1015);
#897=AXIS2_PLACEMENT_3D('',#1272,#1017,#1018);
#898=AXIS2_PLACEMENT_3D('',#1274,#1020,#1021);
#899=AXIS2_PLACEMENT_3D('',#1278,#1024,#1025);
#900=AXIS2_PLACEMENT_3D('',#1281,#1027,#1028);
#901=AXIS2_PLACEMENT_3D('',#1291,#1034,#1035);
#902=AXIS2_PLACEMENT_3D('',#1293,#1037,#1038);
#903=AXIS2_PLACEMENT_3D('',#1294,#1039,#1040);
#904=AXIS2_PLACEMENT_3D('',#1303,#1044,#1045);
#905=AXIS2_PLACEMENT_3D('',#1306,#1047,#1048);
#906=AXIS2_PLACEMENT_3D('',#1307,#1049,#1050);
#907=AXIS2_PLACEMENT_3D('',#1316,#1054,#1055);
#908=AXIS2_PLACEMENT_3D('',#1319,#1057,#1058);
#909=AXIS2_PLACEMENT_3D('',#1320,#1059,#1060);
#910=AXIS2_PLACEMENT_3D('',#1327,#1063,#1064);
#911=AXIS2_PLACEMENT_3D('',#1332,#1067,#1068);
#912=AXIS2_PLACEMENT_3D('',#1333,#1069,#1070);
#913=AXIS2_PLACEMENT_3D('',#1340,#1073,#1074);
#914=AXIS2_PLACEMENT_3D('',#1345,#1077,#1078);
#915=AXIS2_PLACEMENT_3D('',#1346,#1079,#1080);
#916=AXIS2_PLACEMENT_3D('',#1350,#1082,#1083);
#917=AXIS2_PLACEMENT_3D('',#1352,#1085,#1086);
#918=AXIS2_PLACEMENT_3D('',#1356,#1089,#1090);
#919=AXIS2_PLACEMENT_3D('',#1362,#1095,#1096);
#920=AXIS2_PLACEMENT_3D('',#1366,#1099,#1100);
#921=AXIS2_PLACEMENT_3D('',#1369,#1102,#1103);
#922=AXIS2_PLACEMENT_3D('',#1370,#1104,#1105);
#923=AXIS2_PLACEMENT_3D('',#1374,#1108,#1109);
#924=AXIS2_PLACEMENT_3D('',#1379,#1113,#1114);
#925=AXIS2_PLACEMENT_3D('',#1383,#1117,#1118);
#926=AXIS2_PLACEMENT_3D('',#1386,#1121,#1122);
#927=AXIS2_PLACEMENT_3D('',#1388,#1124,#1125);
#928=AXIS2_PLACEMENT_3D('',#1390,#1127,#1128);
#929=AXIS2_PLACEMENT_3D('',#1391,#1129,#1130);
#930=AXIS2_PLACEMENT_3D('',#1393,#1131,#1132);
#931=AXIS2_PLACEMENT_3D('',#1394,#1133,#1134);
#932=AXIS2_PLACEMENT_3D('',#1396,#1135,#1136);
#933=AXIS2_PLACEMENT_3D('',#1397,#1137,#1138);
#934=AXIS2_PLACEMENT_3D('',#1399,#1139,#1140);
#935=AXIS2_PLACEMENT_3D('',#1400,#1141,#1142);
#936=AXIS2_PLACEMENT_3D('',#1402,#1143,#1144);
#937=AXIS2_PLACEMENT_3D('',#1410,#1148,#1149);
#938=AXIS2_PLACEMENT_3D('',#1416,#1153,#1154);
#939=AXIS2_PLACEMENT_3D('',#1418,#1155,#1156);
#940=AXIS2_PLACEMENT_3D('',#1419,#1157,#1158);
#941=AXIS2_PLACEMENT_3D('',#1421,#1160,#1161);
#942=AXIS2_PLACEMENT_3D('',#1423,#1163,#1164);
#943=AXIS2_PLACEMENT_3D('',#1426,#1167,#1168);
#944=AXIS2_PLACEMENT_3D('',#1428,#1170,#1171);
#945=AXIS2_PLACEMENT_3D('',#1430,#1173,#1174);
#946=AXIS2_PLACEMENT_3D('',#1432,#1176,#1177);
#947=AXIS2_PLACEMENT_3D('',#1434,#1179,#1180);
#948=AXIS2_PLACEMENT_3D('',#1436,#1182,#1183);
#949=AXIS2_PLACEMENT_3D('',#1437,#1184,#1185);
#950=AXIS2_PLACEMENT_3D('',#1439,#1187,#1188);
#951=AXIS2_PLACEMENT_3D('',#1441,#1190,#1191);
#952=AXIS2_PLACEMENT_3D('',#1443,#1193,#1194);
#953=DIRECTION('axis',(0.,0.,1.));
#954=DIRECTION('refdir',(1.,0.,0.));
#955=DIRECTION('center_axis',(-1.,0.,0.));
#956=DIRECTION('ref_axis',(0.,0.,-1.));
#957=DIRECTION('',(0.,0.,1.));
#958=DIRECTION('',(0.,-1.,0.));
#959=DIRECTION('',(0.,0.,-1.));
#960=DIRECTION('',(0.,-1.,0.));
#961=DIRECTION('center_axis',(0.,0.,1.));
#962=DIRECTION('ref_axis',(-1.,0.,0.));
#963=DIRECTION('',(1.,0.,0.));
#964=DIRECTION('',(-1.,0.,0.));
#965=DIRECTION('',(0.,-1.,0.));
#966=DIRECTION('center_axis',(1.,0.,0.));
#967=DIRECTION('ref_axis',(0.,0.,1.));
#968=DIRECTION('',(0.,0.,-1.));
#969=DIRECTION('',(0.,0.,1.));
#970=DIRECTION('',(0.,-1.,0.));
#971=DIRECTION('center_axis',(0.,0.,-1.));
#972=DIRECTION('ref_axis',(1.,0.,0.));
#973=DIRECTION('',(-1.,0.,0.));
#974=DIRECTION('',(1.,0.,0.));
#975=DIRECTION('center_axis',(0.,-1.,0.));
#976=DIRECTION('ref_axis',(0.,0.,-1.));
#977=DIRECTION('',(0.,0.,1.));
#978=DIRECTION('',(1.,0.,0.));
#979=DIRECTION('',(0.,0.,-1.));
#980=DIRECTION('',(-1.,0.,0.));
#981=DIRECTION('center_axis',(0.,1.,0.));
#982=DIRECTION('ref_axis',(0.707106781186549,0.,0.707106781186546));
#983=DIRECTION('center_axis',(0.,-1.,0.));
#984=DIRECTION('ref_axis',(0.707106781186549,0.,0.707106781186546));
#985=DIRECTION('',(0.,-1.,0.));
#986=DIRECTION('center_axis',(0.,1.,0.));
#987=DIRECTION('ref_axis',(0.707106781186549,0.,0.707106781186546));
#988=DIRECTION('',(0.,1.,0.));
#989=DIRECTION('center_axis',(0.,1.,0.));
#990=DIRECTION('ref_axis',(0.,0.,1.));
#991=DIRECTION('',(0.,0.,-1.));
#992=DIRECTION('center_axis',(0.,-1.,0.));
#993=DIRECTION('ref_axis',(0.707106781186544,0.,-0.707106781186551));
#994=DIRECTION('',(-1.,0.,0.));
#995=DIRECTION('center_axis',(0.,-1.,0.));
#996=DIRECTION('ref_axis',(-0.707106781186549,0.,-0.707106781186546));
#997=DIRECTION('',(0.,0.,1.));
#998=DIRECTION('center_axis',(0.,-1.,0.));
#999=DIRECTION('ref_axis',(-0.707106781186547,0.,0.707106781186548));
#1000=DIRECTION('',(1.,0.,0.));
#1001=DIRECTION('',(0.,0.,1.));
#1002=DIRECTION('',(-1.,0.,0.));
#1003=DIRECTION('',(0.,0.,-1.));
#1004=DIRECTION('',(1.,0.,0.));
#1005=DIRECTION('center_axis',(1.,0.,0.));
#1006=DIRECTION('ref_axis',(0.,0.,-1.));
#1007=DIRECTION('',(0.,0.,1.));
#1008=DIRECTION('',(0.,-1.,0.));
#1009=DIRECTION('center_axis',(0.,1.,0.));
#1010=DIRECTION('ref_axis',(0.707106781186544,0.,-0.707106781186551));
#1011=DIRECTION('center_axis',(0.,1.,0.));
#1012=DIRECTION('ref_axis',(0.707106781186544,0.,-0.707106781186551));
#1013=DIRECTION('',(0.,1.,0.));
#1014=DIRECTION('center_axis',(0.,1.,0.));
#1015=DIRECTION('ref_axis',(-0.707106781186549,0.,-0.707106781186546));
#1016=DIRECTION('',(0.,-1.,0.));
#1017=DIRECTION('center_axis',(0.,1.,0.));
#1018=DIRECTION('ref_axis',(-0.707106781186549,0.,-0.707106781186546));
#1019=DIRECTION('',(0.,1.,0.));
#1020=DIRECTION('center_axis',(-1.,0.,0.));
#1021=DIRECTION('ref_axis',(0.,0.,1.));
#1022=DIRECTION('',(0.,0.,-1.));
#1023=DIRECTION('',(0.,-1.,0.));
#1024=DIRECTION('center_axis',(0.,-1.,0.));
#1025=DIRECTION('ref_axis',(0.,0.,-1.));
#1026=DIRECTION('',(-1.,0.,0.));
#1027=DIRECTION('center_axis',(0.,1.,0.));
#1028=DIRECTION('ref_axis',(-0.707106781186547,0.,0.707106781186548));
#1029=DIRECTION('',(1.,0.,0.));
#1030=DIRECTION('',(0.,0.,-1.));
#1031=DIRECTION('',(-1.,0.,0.));
#1032=DIRECTION('',(0.,0.,1.));
#1033=DIRECTION('',(1.,0.,0.));
#1034=DIRECTION('center_axis',(0.,1.,0.));
#1035=DIRECTION('ref_axis',(-0.707106781186547,0.,0.707106781186548));
#1036=DIRECTION('',(0.,1.,0.));
#1037=DIRECTION('center_axis',(0.,0.,1.));
#1038=DIRECTION('ref_axis',(1.,0.,0.));
#1039=DIRECTION('center_axis',(0.,1.,0.));
#1040=DIRECTION('ref_axis',(1.,0.,0.));
#1041=DIRECTION('',(0.,0.,1.));
#1042=DIRECTION('',(-1.,0.,0.));
#1043=DIRECTION('',(0.,0.,1.));
#1044=DIRECTION('center_axis',(0.,1.,0.));
#1045=DIRECTION('ref_axis',(0.,0.,-1.));
#1046=DIRECTION('',(-1.,0.,3.70074394848921E-16));
#1047=DIRECTION('center_axis',(0.,-1.,0.));
#1048=DIRECTION('ref_axis',(1.,0.,0.));
#1049=DIRECTION('center_axis',(0.,1.,0.));
#1050=DIRECTION('ref_axis',(1.,0.,0.));
#1051=DIRECTION('',(1.,0.,0.));
#1052=DIRECTION('',(0.,0.,1.));
#1053=DIRECTION('',(1.,0.,0.));
#1054=DIRECTION('center_axis',(0.,1.,0.));
#1055=DIRECTION('ref_axis',(-1.,0.,0.));
#1056=DIRECTION('',(0.,0.,1.));
#1057=DIRECTION('center_axis',(0.,-1.,0.));
#1058=DIRECTION('ref_axis',(1.,0.,0.));
#1059=DIRECTION('center_axis',(0.,1.,0.));
#1060=DIRECTION('ref_axis',(1.,0.,0.));
#1061=DIRECTION('',(0.,0.,-1.));
#1062=DIRECTION('',(-1.,0.,0.));
#1063=DIRECTION('center_axis',(0.,1.,0.));
#1064=DIRECTION('ref_axis',(1.,0.,0.));
#1065=DIRECTION('',(0.,0.,-1.));
#1066=DIRECTION('',(-1.,0.,0.));
#1067=DIRECTION('center_axis',(0.,-1.,0.));
#1068=DIRECTION('ref_axis',(1.,0.,0.));
#1069=DIRECTION('center_axis',(0.,1.,0.));
#1070=DIRECTION('ref_axis',(1.,0.,0.));
#1071=DIRECTION('',(1.,0.,0.));
#1072=DIRECTION('',(-3.70074394848921E-16,0.,-1.));
#1073=DIRECTION('center_axis',(0.,1.,0.));
#1074=DIRECTION('ref_axis',(0.,0.,1.));
#1075=DIRECTION('',(1.,0.,0.));
#1076=DIRECTION('',(0.,0.,-1.));
#1077=DIRECTION('center_axis',(0.,-1.,0.));
#1078=DIRECTION('ref_axis',(1.,0.,0.));
#1079=DIRECTION('center_axis',(0.,1.,0.));
#1080=DIRECTION('ref_axis',(0.,0.,-1.));
#1081=DIRECTION('',(0.,1.,0.));
#1082=DIRECTION('center_axis',(0.,1.,0.));
#1083=DIRECTION('ref_axis',(0.,0.,-1.));
#1084=DIRECTION('',(0.,1.,0.));
#1085=DIRECTION('center_axis',(-1.,0.,0.));
#1086=DIRECTION('ref_axis',(0.,0.,1.));
#1087=DIRECTION('',(0.,1.,0.));
#1088=DIRECTION('',(0.,0.,1.));
#1089=DIRECTION('center_axis',(0.,0.,-1.));
#1090=DIRECTION('ref_axis',(-1.,0.,0.));
#1091=DIRECTION('',(0.,1.,0.));
#1092=DIRECTION('',(-1.,0.,0.));
#1093=DIRECTION('',(0.,-1.,0.));
#1094=DIRECTION('',(0.,-1.,0.));
#1095=DIRECTION('center_axis',(1.,0.,0.));
#1096=DIRECTION('ref_axis',(0.,0.,-1.));
#1097=DIRECTION('',(0.,1.,0.));
#1098=DIRECTION('',(0.,0.,-1.));
#1099=DIRECTION('center_axis',(0.,1.,0.));
#1100=DIRECTION('ref_axis',(1.,0.,0.));
#1101=DIRECTION('',(0.,1.,0.));
#1102=DIRECTION('center_axis',(0.,1.,0.));
#1103=DIRECTION('ref_axis',(1.,0.,0.));
#1104=DIRECTION('center_axis',(0.,0.,-1.));
#1105=DIRECTION('ref_axis',(-1.,0.,0.));
#1106=DIRECTION('',(0.,1.,0.));
#1107=DIRECTION('',(-1.,0.,0.));
#1108=DIRECTION('center_axis',(1.,0.,0.));
#1109=DIRECTION('ref_axis',(0.,0.,-1.));
#1110=DIRECTION('',(0.,1.,0.));
#1111=DIRECTION('',(0.,0.,-1.));
#1112=DIRECTION('',(0.,-1.,0.));
#1113=DIRECTION('center_axis',(0.,0.,1.));
#1114=DIRECTION('ref_axis',(1.,0.,0.));
#1115=DIRECTION('',(0.,1.,0.));
#1116=DIRECTION('',(1.,0.,0.));
#1117=DIRECTION('center_axis',(1.,0.,0.));
#1118=DIRECTION('ref_axis',(0.,0.,1.));
#1119=DIRECTION('',(0.,-1.,0.));
#1120=DIRECTION('',(0.,-1.,0.));
#1121=DIRECTION('center_axis',(0.,0.,-1.));
#1122=DIRECTION('ref_axis',(1.,0.,0.));
#1123=DIRECTION('',(0.,-1.,0.));
#1124=DIRECTION('center_axis',(-1.,0.,0.));
#1125=DIRECTION('ref_axis',(0.,0.,-1.));
#1126=DIRECTION('',(0.,-1.,0.));
#1127=DIRECTION('center_axis',(0.,0.,1.));
#1128=DIRECTION('ref_axis',(-1.,0.,0.));
#1129=DIRECTION('center_axis',(0.,1.,0.));
#1130=DIRECTION('ref_axis',(-1.,0.,0.));
#1131=DIRECTION('center_axis',(0.,-1.,0.));
#1132=DIRECTION('ref_axis',(1.,0.,0.));
#1133=DIRECTION('center_axis',(0.,1.,0.));
#1134=DIRECTION('ref_axis',(-1.,0.,0.));
#1135=DIRECTION('center_axis',(0.,-1.,0.));
#1136=DIRECTION('ref_axis',(1.,0.,0.));
#1137=DIRECTION('center_axis',(0.,1.,0.));
#1138=DIRECTION('ref_axis',(-1.,0.,0.));
#1139=DIRECTION('center_axis',(0.,-1.,0.));
#1140=DIRECTION('ref_axis',(1.,0.,0.));
#1141=DIRECTION('center_axis',(0.,1.,0.));
#1142=DIRECTION('ref_axis',(-1.,0.,0.));
#1143=DIRECTION('center_axis',(0.,1.,0.));
#1144=DIRECTION('ref_axis',(0.,0.,1.));
#1145=DIRECTION('',(-3.70074394848921E-16,0.,-1.));
#1146=DIRECTION('',(1.,0.,0.));
#1147=DIRECTION('',(0.,0.,1.));
#1148=DIRECTION('center_axis',(0.,1.,0.));
#1149=DIRECTION('ref_axis',(-1.,0.,0.));
#1150=DIRECTION('',(1.,0.,0.));
#1151=DIRECTION('',(0.,0.,1.));
#1152=DIRECTION('',(-1.,0.,3.70074394848921E-16));
#1153=DIRECTION('center_axis',(0.,1.,0.));
#1154=DIRECTION('ref_axis',(-1.,0.,0.));
#1155=DIRECTION('center_axis',(0.,-1.,0.));
#1156=DIRECTION('ref_axis',(1.,0.,0.));
#1157=DIRECTION('center_axis',(0.,1.,0.));
#1158=DIRECTION('ref_axis',(1.,0.,0.));
#1159=DIRECTION('',(0.,-1.,0.));
#1160=DIRECTION('center_axis',(-3.70074394848921E-16,0.,-1.));
#1161=DIRECTION('ref_axis',(-1.,0.,3.70074394848921E-16));
#1162=DIRECTION('',(0.,1.,0.));
#1163=DIRECTION('center_axis',(-1.,0.,0.));
#1164=DIRECTION('ref_axis',(0.,0.,1.));
#1165=DIRECTION('',(0.,1.,0.));
#1166=DIRECTION('',(0.,-1.,0.));
#1167=DIRECTION('center_axis',(0.,0.,1.));
#1168=DIRECTION('ref_axis',(1.,0.,0.));
#1169=DIRECTION('',(0.,1.,0.));
#1170=DIRECTION('center_axis',(0.,1.,0.));
#1171=DIRECTION('ref_axis',(-1.,0.,0.));
#1172=DIRECTION('',(0.,1.,0.));
#1173=DIRECTION('center_axis',(-1.,0.,0.));
#1174=DIRECTION('ref_axis',(0.,0.,1.));
#1175=DIRECTION('',(0.,1.,0.));
#1176=DIRECTION('center_axis',(0.,0.,1.));
#1177=DIRECTION('ref_axis',(1.,0.,0.));
#1178=DIRECTION('',(0.,1.,0.));
#1179=DIRECTION('center_axis',(1.,0.,-3.70074394848921E-16));
#1180=DIRECTION('ref_axis',(-3.70074394848921E-16,0.,-1.));
#1181=DIRECTION('',(0.,1.,0.));
#1182=DIRECTION('center_axis',(0.,1.,0.));
#1183=DIRECTION('ref_axis',(0.,0.,1.));
#1184=DIRECTION('center_axis',(0.,1.,0.));
#1185=DIRECTION('ref_axis',(1.,0.,0.));
#1186=DIRECTION('',(0.,-1.,0.));
#1187=DIRECTION('center_axis',(0.,1.,0.));
#1188=DIRECTION('ref_axis',(1.,0.,0.));
#1189=DIRECTION('',(0.,-1.,0.));
#1190=DIRECTION('center_axis',(0.,1.,0.));
#1191=DIRECTION('ref_axis',(1.,0.,0.));
#1192=DIRECTION('',(0.,-1.,0.));
#1193=DIRECTION('center_axis',(0.,0.,-1.));
#1194=DIRECTION('ref_axis',(-1.,0.,0.));
#1195=CARTESIAN_POINT('',(0.,0.,0.));
#1196=CARTESIAN_POINT('Origin',(11.5000001862645,20.,-18.6499988969415));
#1197=CARTESIAN_POINT('',(11.5000001862645,20.,-51.3499988969415));
#1198=CARTESIAN_POINT('',(11.5000001862645,20.,-18.6499988969415));
#1199=CARTESIAN_POINT('',(11.5000001862645,20.,-26.8249997092411));
#1200=CARTESIAN_POINT('',(11.5000001862645,16.,-51.3499988969415));
#1201=CARTESIAN_POINT('',(11.5000001862645,20.,-51.3499988969415));
#1202=CARTESIAN_POINT('',(11.5000001862645,16.,-18.6499988969415));
#1203=CARTESIAN_POINT('',(11.5000001862645,16.,-51.3499988969415));
#1204=CARTESIAN_POINT('',(11.5000001862645,20.,-18.6499988969415));
#1205=CARTESIAN_POINT('Origin',(58.5000001862645,20.,-18.6499988969415));
#1206=CARTESIAN_POINT('',(58.5000001862645,20.,-18.6499988969415));
#1207=CARTESIAN_POINT('',(46.7500003539026,20.,-18.6499988969415));
#1208=CARTESIAN_POINT('',(58.5000001862645,16.,-18.6499988969415));
#1209=CARTESIAN_POINT('',(11.5000001862645,16.,-18.6499988969415));
#1210=CARTESIAN_POINT('',(58.5000001862645,20.,-18.6499988969415));
#1211=CARTESIAN_POINT('Origin',(58.5000001862645,20.,-51.3499988969415));
#1212=CARTESIAN_POINT('',(58.5000001862645,20.,-51.3499988969415));
#1213=CARTESIAN_POINT('',(58.5000001862645,20.,-43.1749997092411));
#1214=CARTESIAN_POINT('',(58.5000001862645,16.,-51.3499988969415));
#1215=CARTESIAN_POINT('',(58.5000001862645,16.,-18.6499988969415));
#1216=CARTESIAN_POINT('',(58.5000001862645,20.,-51.3499988969415));
#1217=CARTESIAN_POINT('Origin',(11.5000001862645,20.,-51.3499988969415));
#1218=CARTESIAN_POINT('',(23.2500003539026,20.,-51.3499988969415));
#1219=CARTESIAN_POINT('',(58.5000001862645,16.,-51.3499988969415));
#1220=CARTESIAN_POINT('Origin',(35.0000001862645,16.,-34.9999988969415));
#1221=CARTESIAN_POINT('',(13.4999996758997,16.,-49.3499988969415));
#1222=CARTESIAN_POINT('',(13.4999996758997,16.,-20.6499988969415));
#1223=CARTESIAN_POINT('',(13.4999996758997,16.,-49.3499988969415));
#1224=CARTESIAN_POINT('',(56.4999996758997,16.,-20.6499988969415));
#1225=CARTESIAN_POINT('',(13.4999996758997,16.,-20.6499988969415));
#1226=CARTESIAN_POINT('',(56.4999996758997,16.,-49.3499988969415));
#1227=CARTESIAN_POINT('',(56.4999996758997,16.,-20.6499988969415));
#1228=CARTESIAN_POINT('',(56.4999996758997,16.,-49.3499988969415));
#1229=CARTESIAN_POINT('Origin',(66.000001013279,0.,-4.00000002980232));
#1230=CARTESIAN_POINT('',(68.000001013279,22.,-4.00000002980232));
#1231=CARTESIAN_POINT('',(66.000001013279,22.,-2.00000002980232));
#1232=CARTESIAN_POINT('Origin',(66.000001013279,22.,-4.00000002980232));
#1233=CARTESIAN_POINT('',(66.000001013279,11.8,-2.00000002980232));
#1234=CARTESIAN_POINT('',(66.000001013279,0.,-2.00000002980232));
#1235=CARTESIAN_POINT('',(68.000001013279,11.8,-4.00000002980232));
#1236=CARTESIAN_POINT('Origin',(66.000001013279,11.8,-4.00000002980232));
#1237=CARTESIAN_POINT('',(68.000001013279,0.,-4.00000002980232));
#1238=CARTESIAN_POINT('Origin',(35.0000005215406,22.,-35.0000005215406));
#1239=CARTESIAN_POINT('',(68.000001013279,22.,-66.000001013279));
#1240=CARTESIAN_POINT('',(68.000001013279,22.,-2.00000002980232));
#1241=CARTESIAN_POINT('',(66.000001013279,22.,-68.000001013279));
#1242=CARTESIAN_POINT('Origin',(66.000001013279,22.,-66.000001013279));
#1243=CARTESIAN_POINT('',(4.00000002980232,22.,-68.000001013279));
#1244=CARTESIAN_POINT('',(68.000001013279,22.,-68.000001013279));
#1245=CARTESIAN_POINT('',(2.00000002980232,22.,-66.000001013279));
#1246=CARTESIAN_POINT('Origin',(4.00000002980232,22.,-66.000001013279));
#1247=CARTESIAN_POINT('',(2.00000002980232,22.,-4.00000002980232));
#1248=CARTESIAN_POINT('',(2.00000002980232,22.,-68.000001013279));
#1249=CARTESIAN_POINT('',(4.00000002980232,22.,-2.00000002980232));
#1250=CARTESIAN_POINT('Origin',(4.00000002980232,22.,-4.00000002980232));
#1251=CARTESIAN_POINT('',(2.00000002980232,22.,-2.00000002980232));
#1252=CARTESIAN_POINT('',(56.4999996758997,22.,-49.3499988969415));
#1253=CARTESIAN_POINT('',(56.4999996758997,22.,-20.6499988969415));
#1254=CARTESIAN_POINT('',(56.4999996758997,22.,-42.1749997092411));
#1255=CARTESIAN_POINT('',(13.4999996758997,22.,-20.6499988969415));
#1256=CARTESIAN_POINT('',(45.7500000987202,22.,-20.6499988969415));
#1257=CARTESIAN_POINT('',(13.4999996758997,22.,-49.3499988969415));
#1258=CARTESIAN_POINT('',(13.4999996758997,22.,-27.8249997092411));
#1259=CARTESIAN_POINT('',(24.2500000987202,22.,-49.3499988969415));
#1260=CARTESIAN_POINT('Origin',(68.000001013279,0.,-2.00000002980232));
#1261=CARTESIAN_POINT('',(68.000001013279,11.8,-66.000001013279));
#1262=CARTESIAN_POINT('',(68.000001013279,11.8,-68.000001013279));
#1263=CARTESIAN_POINT('',(68.000001013279,0.,-66.000001013279));
#1264=CARTESIAN_POINT('Origin',(66.000001013279,0.,-66.000001013279));
#1265=CARTESIAN_POINT('',(66.000001013279,11.8,-68.000001013279));
#1266=CARTESIAN_POINT('Origin',(66.000001013279,11.8,-66.000001013279));
#1267=CARTESIAN_POINT('',(66.000001013279,0.,-68.000001013279));
#1268=CARTESIAN_POINT('Origin',(4.00000002980232,0.,-66.000001013279));
#1269=CARTESIAN_POINT('',(4.00000002980232,11.8,-68.000001013279));
#1270=CARTESIAN_POINT('',(4.00000002980232,0.,-68.000001013279));
#1271=CARTESIAN_POINT('',(2.00000002980232,11.8,-66.000001013279));
#1272=CARTESIAN_POINT('Origin',(4.00000002980232,11.8,-66.000001013279));
#1273=CARTESIAN_POINT('',(2.00000002980232,0.,-66.000001013279));
#1274=CARTESIAN_POINT('Origin',(2.00000002980232,0.,-68.000001013279));
#1275=CARTESIAN_POINT('',(2.00000002980232,11.8,-4.00000002980232));
#1276=CARTESIAN_POINT('',(2.00000002980232,11.8,-2.00000002980232));
#1277=CARTESIAN_POINT('',(2.00000002980232,0.,-4.00000002980232));
#1278=CARTESIAN_POINT('Origin',(35.0000005215406,11.8,-35.0000005215406));
#1279=CARTESIAN_POINT('',(4.00000002980232,11.8,-2.00000002980232));
#1280=CARTESIAN_POINT('',(68.000001013279,11.8,-2.00000002980232));
#1281=CARTESIAN_POINT('Origin',(4.00000002980232,11.8,-4.00000002980232));
#1282=CARTESIAN_POINT('',(2.00000002980232,11.8,-68.000001013279));
#1283=CARTESIAN_POINT('',(66.0000009834766,11.8,-4.00000005960464));
#1284=CARTESIAN_POINT('',(66.0000009834766,11.8,-66.0000009834766));
#1285=CARTESIAN_POINT('',(66.0000009834766,11.8,-66.0000009834766));
#1286=CARTESIAN_POINT('',(4.00000005960464,11.8,-66.0000009834766));
#1287=CARTESIAN_POINT('',(4.00000005960464,11.8,-66.0000009834766));
#1288=CARTESIAN_POINT('',(4.00000005960464,11.8,-4.00000005960464));
#1289=CARTESIAN_POINT('',(4.00000005960464,11.8,-4.00000005960464));
#1290=CARTESIAN_POINT('',(66.0000009834766,11.8,-4.00000005960464));
#1291=CARTESIAN_POINT('Origin',(4.00000002980232,0.,-4.00000002980232));
#1292=CARTESIAN_POINT('',(4.00000002980232,0.,-2.00000002980232));
#1293=CARTESIAN_POINT('Origin',(2.00000002980232,0.,-2.00000002980232));
#1294=CARTESIAN_POINT('Origin',(35.0000005215406,13.8,-35.0000005215406));
#1295=CARTESIAN_POINT('',(66.0000000298023,13.8,-15.0000002235174));
#1296=CARTESIAN_POINT('',(66.0000009834766,13.8,-4.00000005960464));
#1297=CARTESIAN_POINT('',(66.0000009834766,13.8,-19.5000002905726));
#1298=CARTESIAN_POINT('',(55.0000008195639,13.8,-4.00000002980232));
#1299=CARTESIAN_POINT('',(19.5000002905726,13.8,-4.00000005960464));
#1300=CARTESIAN_POINT('',(55.0000008195639,13.8,-10.0000001490116));
#1301=CARTESIAN_POINT('',(55.0000008195639,13.8,-22.5000003352761));
#1302=CARTESIAN_POINT('',(60.0000008940697,13.8,-15.0000002235174));
#1303=CARTESIAN_POINT('Origin',(60.0000008940697,13.8,-10.0000001490116));
#1304=CARTESIAN_POINT('',(50.5000002756715,13.8,-15.0000002235174));
#1305=CARTESIAN_POINT('',(58.4500008940697,13.8,-10.0000001490116));
#1306=CARTESIAN_POINT('Origin',(60.0000008940697,13.8,-10.0000001490116));
#1307=CARTESIAN_POINT('Origin',(35.0000005215406,13.8,-35.0000005215406));
#1308=CARTESIAN_POINT('',(55.0000008195639,13.8,-66.0000000298023));
#1309=CARTESIAN_POINT('',(66.0000009834766,13.8,-66.0000009834766));
#1310=CARTESIAN_POINT('',(50.5000007525086,13.8,-66.0000009834766));
#1311=CARTESIAN_POINT('',(66.0000000298023,13.8,-55.0000008195639));
#1312=CARTESIAN_POINT('',(66.0000009834766,13.8,-19.5000002905726));
#1313=CARTESIAN_POINT('',(60.0000008940697,13.8,-55.0000008195639));
#1314=CARTESIAN_POINT('',(47.5000007078052,13.8,-55.0000008195639));
#1315=CARTESIAN_POINT('',(55.0000008195639,13.8,-60.0000008940697));
#1316=CARTESIAN_POINT('Origin',(60.0000008940697,13.8,-60.0000008940697));
#1317=CARTESIAN_POINT('',(55.0000008195639,13.8,-50.5000002756715));
#1318=CARTESIAN_POINT('',(58.4500008940697,13.8,-60.0000008940697));
#1319=CARTESIAN_POINT('Origin',(60.0000008940697,13.8,-60.0000008940697));
#1320=CARTESIAN_POINT('Origin',(35.0000005215406,13.8,-35.0000005215406));
#1321=CARTESIAN_POINT('',(4.00000005960464,13.8,-4.00000005960464));
#1322=CARTESIAN_POINT('',(4.00000002980232,13.8,-15.0000002235174));
#1323=CARTESIAN_POINT('',(4.00000005960464,13.8,-50.5000007525086));
#1324=CARTESIAN_POINT('',(10.0000001490116,13.8,-15.0000002235174));
#1325=CARTESIAN_POINT('',(22.5000003352761,13.8,-15.0000002235174));
#1326=CARTESIAN_POINT('',(15.0000002235174,13.8,-10.0000001490116));
#1327=CARTESIAN_POINT('Origin',(10.0000001490116,13.8,-10.0000001490116));
#1328=CARTESIAN_POINT('',(15.0000002235174,13.8,-4.00000002980232));
#1329=CARTESIAN_POINT('',(15.0000002235174,13.8,-19.5000002756715));
#1330=CARTESIAN_POINT('',(19.5000002905726,13.8,-4.00000005960464));
#1331=CARTESIAN_POINT('',(8.45000014901161,13.8,-10.0000001490116));
#1332=CARTESIAN_POINT('Origin',(10.0000001490116,13.8,-10.0000001490116));
#1333=CARTESIAN_POINT('Origin',(35.0000005215406,13.8,-35.0000005215406));
#1334=CARTESIAN_POINT('',(4.00000005960464,13.8,-66.0000009834766));
#1335=CARTESIAN_POINT('',(15.0000002235174,13.8,-66.0000000298023));
#1336=CARTESIAN_POINT('',(50.5000007525086,13.8,-66.0000009834766));
#1337=CARTESIAN_POINT('',(15.0000002235174,13.8,-60.0000008940697));
#1338=CARTESIAN_POINT('',(15.0000002235174,13.8,-47.5000007078052));
#1339=CARTESIAN_POINT('',(10.0000001490116,13.8,-55.0000008195639));
#1340=CARTESIAN_POINT('Origin',(10.0000001490116,13.8,-60.0000008940697));
#1341=CARTESIAN_POINT('',(4.00000002980232,13.8,-55.0000008195639));
#1342=CARTESIAN_POINT('',(19.5000002756715,13.8,-55.0000008195639));
#1343=CARTESIAN_POINT('',(4.00000005960464,13.8,-50.5000007525086));
#1344=CARTESIAN_POINT('',(8.45000014901161,13.8,-60.0000008940697));
#1345=CARTESIAN_POINT('Origin',(10.0000001490116,13.8,-60.0000008940697));
#1346=CARTESIAN_POINT('Origin',(60.0000008940697,0.,-10.0000001490116));
#1347=CARTESIAN_POINT('',(55.0000008195639,20.,-10.0000001490116));
#1348=CARTESIAN_POINT('',(55.0000008195639,0.,-10.0000001490116));
#1349=CARTESIAN_POINT('',(60.0000008940697,20.,-15.0000002235174));
#1350=CARTESIAN_POINT('Origin',(60.0000008940697,20.,-10.0000001490116));
#1351=CARTESIAN_POINT('',(60.0000008940697,0.,-15.0000002235174));
#1352=CARTESIAN_POINT('Origin',(55.0000008195639,0.,-10.0000001490116));
#1353=CARTESIAN_POINT('',(55.0000008195639,20.,-4.00000002980232));
#1354=CARTESIAN_POINT('',(55.0000008195639,0.,-4.00000002980232));
#1355=CARTESIAN_POINT('',(55.0000008195639,20.,-10.0000001490116));
#1356=CARTESIAN_POINT('Origin',(55.0000008195639,0.,-4.00000002980232));
#1357=CARTESIAN_POINT('',(15.0000002235174,20.,-4.00000002980232));
#1358=CARTESIAN_POINT('',(15.0000002235174,0.,-4.00000002980232));
#1359=CARTESIAN_POINT('',(4.00000002980232,20.,-4.00000002980232));
#1360=CARTESIAN_POINT('',(66.0000009834766,13.8,-4.00000005960464));
#1361=CARTESIAN_POINT('',(4.00000005960464,13.8,-4.00000005960464));
#1362=CARTESIAN_POINT('Origin',(15.0000002235174,0.,-4.00000002980232));
#1363=CARTESIAN_POINT('',(15.0000002235174,20.,-10.0000001490116));
#1364=CARTESIAN_POINT('',(15.0000002235174,0.,-10.0000001490116));
#1365=CARTESIAN_POINT('',(15.0000002235174,20.,-10.0000001490116));
#1366=CARTESIAN_POINT('Origin',(10.0000001490116,0.,-10.0000001490116));
#1367=CARTESIAN_POINT('',(10.0000001490116,20.,-15.0000002235174));
#1368=CARTESIAN_POINT('',(10.0000001490116,0.,-15.0000002235174));
#1369=CARTESIAN_POINT('Origin',(10.0000001490116,20.,-10.0000001490116));
#1370=CARTESIAN_POINT('Origin',(10.0000001490116,0.,-15.0000002235174));
#1371=CARTESIAN_POINT('',(4.00000002980232,20.,-15.0000002235174));
#1372=CARTESIAN_POINT('',(4.00000002980232,0.,-15.0000002235174));
#1373=CARTESIAN_POINT('',(10.0000001490116,20.,-15.0000002235174));
#1374=CARTESIAN_POINT('Origin',(4.00000002980232,0.,-15.0000002235174));
#1375=CARTESIAN_POINT('',(4.00000002980232,20.,-55.0000008195639));
#1376=CARTESIAN_POINT('',(4.00000002980232,0.,-55.0000008195639));
#1377=CARTESIAN_POINT('',(4.00000002980232,20.,-66.0000000298023));
#1378=CARTESIAN_POINT('',(4.00000005960464,13.8,-66.0000009834766));
#1379=CARTESIAN_POINT('Origin',(4.00000002980232,0.,-55.0000008195639));
#1380=CARTESIAN_POINT('',(10.0000001490116,20.,-55.0000008195639));
#1381=CARTESIAN_POINT('',(10.0000001490116,0.,-55.0000008195639));
#1382=CARTESIAN_POINT('',(10.0000001490116,20.,-55.0000008195639));
#1383=CARTESIAN_POINT('Origin',(56.4999996758997,22.,-49.3499988969415));
#1384=CARTESIAN_POINT('',(56.4999996758997,20.,-49.3499988969415));
#1385=CARTESIAN_POINT('',(56.4999996758997,22.,-20.6499988969415));
#1386=CARTESIAN_POINT('Origin',(13.4999996758997,22.,-49.3499988969415));
#1387=CARTESIAN_POINT('',(13.4999996758997,20.,-49.3499988969415));
#1388=CARTESIAN_POINT('Origin',(13.4999996758997,22.,-20.6499988969415));
#1389=CARTESIAN_POINT('',(13.4999996758997,20.,-20.6499988969415));
#1390=CARTESIAN_POINT('Origin',(56.4999996758997,22.,-20.6499988969415));
#1391=CARTESIAN_POINT('Origin',(35.0000005215406,20.,-35.0000005215406));
#1392=CARTESIAN_POINT('',(58.4500008940697,20.,-60.0000008940697));
#1393=CARTESIAN_POINT('Origin',(60.0000008940697,20.,-60.0000008940697));
#1394=CARTESIAN_POINT('Origin',(35.0000005215406,20.,-35.0000005215406));
#1395=CARTESIAN_POINT('',(58.4500008940697,20.,-10.0000001490116));
#1396=CARTESIAN_POINT('Origin',(60.0000008940697,20.,-10.0000001490116));
#1397=CARTESIAN_POINT('Origin',(35.0000005215406,20.,-35.0000005215406));
#1398=CARTESIAN_POINT('',(8.45000014901161,20.,-60.0000008940697));
#1399=CARTESIAN_POINT('Origin',(10.0000001490116,20.,-60.0000008940697));
#1400=CARTESIAN_POINT('Origin',(35.0000005215406,20.,-35.0000005215406));
#1401=CARTESIAN_POINT('',(15.0000002235174,20.,-60.0000008940697));
#1402=CARTESIAN_POINT('Origin',(10.0000001490116,20.,-60.0000008940697));
#1403=CARTESIAN_POINT('',(15.0000002235174,20.,-66.0000000298023));
#1404=CARTESIAN_POINT('',(15.0000002235174,20.,-60.0000008940697));
#1405=CARTESIAN_POINT('',(55.0000008195639,20.,-66.0000000298023));
#1406=CARTESIAN_POINT('',(66.0000000298023,20.,-66.0000000298023));
#1407=CARTESIAN_POINT('',(55.0000008195639,20.,-60.0000008940697));
#1408=CARTESIAN_POINT('',(55.0000008195639,20.,-60.0000008940697));
#1409=CARTESIAN_POINT('',(60.0000008940697,20.,-55.0000008195639));
#1410=CARTESIAN_POINT('Origin',(60.0000008940697,20.,-60.0000008940697));
#1411=CARTESIAN_POINT('',(66.0000000298023,20.,-55.0000008195639));
#1412=CARTESIAN_POINT('',(60.0000008940697,20.,-55.0000008195639));
#1413=CARTESIAN_POINT('',(66.0000000298023,20.,-15.0000002235174));
#1414=CARTESIAN_POINT('',(66.0000000298023,20.,-4.00000002980232));
#1415=CARTESIAN_POINT('',(60.0000008940697,20.,-15.0000002235174));
#1416=CARTESIAN_POINT('Origin',(35.0000005215406,20.,-35.0000005215406));
#1417=CARTESIAN_POINT('',(8.45000014901161,20.,-10.0000001490116));
#1418=CARTESIAN_POINT('Origin',(10.0000001490116,20.,-10.0000001490116));
#1419=CARTESIAN_POINT('Origin',(10.0000001490116,0.,-10.0000001490116));
#1420=CARTESIAN_POINT('',(8.45000014901161,0.,-10.0000001490116));
#1421=CARTESIAN_POINT('Origin',(66.0000000298023,0.,-15.0000002235174));
#1422=CARTESIAN_POINT('',(66.0000000298023,0.,-15.0000002235174));
#1423=CARTESIAN_POINT('Origin',(66.0000000298023,0.,-55.0000008195639));
#1424=CARTESIAN_POINT('',(66.0000000298023,0.,-55.0000008195639));
#1425=CARTESIAN_POINT('',(66.0000009834766,13.8,-66.0000009834766));
#1426=CARTESIAN_POINT('Origin',(60.0000008940697,0.,-55.0000008195639));
#1427=CARTESIAN_POINT('',(60.0000008940697,0.,-55.0000008195639));
#1428=CARTESIAN_POINT('Origin',(60.0000008940697,0.,-60.0000008940697));
#1429=CARTESIAN_POINT('',(55.0000008195639,0.,-60.0000008940697));
#1430=CARTESIAN_POINT('Origin',(55.0000008195639,0.,-66.0000000298023));
#1431=CARTESIAN_POINT('',(55.0000008195639,0.,-66.0000000298023));
#1432=CARTESIAN_POINT('Origin',(15.0000002235174,0.,-66.0000000298023));
#1433=CARTESIAN_POINT('',(15.0000002235174,0.,-66.0000000298023));
#1434=CARTESIAN_POINT('Origin',(15.0000002235174,0.,-60.0000008940697));
#1435=CARTESIAN_POINT('',(15.0000002235174,0.,-60.0000008940697));
#1436=CARTESIAN_POINT('Origin',(10.0000001490116,0.,-60.0000008940697));
#1437=CARTESIAN_POINT('Origin',(10.0000001490116,0.,-60.0000008940697));
#1438=CARTESIAN_POINT('',(8.45000014901161,0.,-60.0000008940697));
#1439=CARTESIAN_POINT('Origin',(60.0000008940697,0.,-10.0000001490116));
#1440=CARTESIAN_POINT('',(58.4500008940697,0.,-10.0000001490116));
#1441=CARTESIAN_POINT('Origin',(60.0000008940697,0.,-60.0000008940697));
#1442=CARTESIAN_POINT('',(58.4500008940697,0.,-60.0000008940697));
#1443=CARTESIAN_POINT('Origin',(68.000001013279,0.,-68.000001013279));
#1444=UNCERTAINTY_MEASURE_WITH_UNIT(LENGTH_MEASURE(0.01),#1448,
'DISTANCE_ACCURACY_VALUE',
'Maximum model space distance between geometric entities at asserted c
onnectivities');
#1445=UNCERTAINTY_MEASURE_WITH_UNIT(LENGTH_MEASURE(0.01),#1448,
'DISTANCE_ACCURACY_VALUE',
'Maximum model space distance between geometric entities at asserted c
onnectivities');
#1446=(
GEOMETRIC_REPRESENTATION_CONTEXT(3)
GLOBAL_UNCERTAINTY_ASSIGNED_CONTEXT((#1444))
GLOBAL_UNIT_ASSIGNED_CONTEXT((#1448,#1449,#1450))
REPRESENTATION_CONTEXT('','3D')
);
#1447=(
GEOMETRIC_REPRESENTATION_CONTEXT(3)
GLOBAL_UNCERTAINTY_ASSIGNED_CONTEXT((#1445))
GLOBAL_UNIT_ASSIGNED_CONTEXT((#1448,#1449,#1450))
REPRESENTATION_CONTEXT('','3D')
);
#1448=(
LENGTH_UNIT()
NAMED_UNIT(*)
SI_UNIT(.MILLI.,.METRE.)
);
#1449=(
NAMED_UNIT(*)
PLANE_ANGLE_UNIT()
SI_UNIT($,.RADIAN.)
);
#1450=(
NAMED_UNIT(*)
SI_UNIT($,.STERADIAN.)
SOLID_ANGLE_UNIT()
);
#1451=SHAPE_DEFINITION_REPRESENTATION(#1452,#1453);
#1452=PRODUCT_DEFINITION_SHAPE('',$,#1455);
#1453=SHAPE_REPRESENTATION('',(#880),#1446);
#1454=PRODUCT_DEFINITION_CONTEXT('part definition',#1459,'design');
#1455=PRODUCT_DEFINITION('2025-11-18-15-52-09-945','Seven segment top',
#1456,#1454);
#1456=PRODUCT_DEFINITION_FORMATION('',$,#1461);
#1457=PRODUCT_RELATED_PRODUCT_CATEGORY('Seven segment top',
'Seven segment top',(#1461));
#1458=APPLICATION_PROTOCOL_DEFINITION('international standard',
'automotive_design',2009,#1459);
#1459=APPLICATION_CONTEXT(
'Core Data for Automotive Mechanical Design Process');
#1460=PRODUCT_CONTEXT('part definition',#1459,'mechanical');
#1461=PRODUCT('2025-11-18-15-52-09-945','Seven segment top',$,(#1460));
#1462=PRESENTATION_STYLE_ASSIGNMENT((#1463));
#1463=SURFACE_STYLE_USAGE(.BOTH.,#1464);
#1464=SURFACE_SIDE_STYLE('',(#1465));
#1465=SURFACE_STYLE_FILL_AREA(#1466);
#1466=FILL_AREA_STYLE('Steel - Satin',(#1467));
#1467=FILL_AREA_STYLE_COLOUR('Steel - Satin',#1468);
#1468=COLOUR_RGB('Steel - Satin',0.627450980392157,0.627450980392157,0.627450980392157);
ENDSEC;
END-ISO-10303-21;
