ISO-10303-21;
HEADER;
/* Generated by software containing ST-Developer
 * from STEP Tools, Inc. (www.steptools.com) 
 */

FILE_DESCRIPTION(
/* description */ (''),
/* implementation_level */ '2;1');

FILE_NAME(
/* name */ 'Seven segment top spacer.step',
/* time_stamp */ '2026-04-27T15:51:51+01:00',
/* author */ (''),
/* organization */ (''),
/* preprocessor_version */ 'ST-DEVELOPER v20.1',
/* originating_system */ 'Autodesk Translation Framework v14.24.0.0',
/* authorisation */ '');

FILE_SCHEMA (('AUTOMOTIVE_DESIGN { 1 0 10303 214 3 1 1 }'));
ENDSEC;

DATA;
#10=MECHANICAL_DESIGN_GEOMETRIC_PRESENTATION_REPRESENTATION('',(#13),#1019);
#11=SHAPE_REPRESENTATION_RELATIONSHIP('SRR','None',#1026,#12);
#12=ADVANCED_BREP_SHAPE_REPRESENTATION('',(#14),#1018);
#13=STYLED_ITEM('',(#1035),#14);
#14=MANIFOLD_SOLID_BREP('Body1',#607);
#15=FACE_BOUND('',#76,.T.);
#16=FACE_BOUND('',#77,.T.);
#17=FACE_BOUND('',#78,.T.);
#18=FACE_BOUND('',#79,.T.);
#19=FACE_BOUND('',#80,.T.);
#20=FACE_BOUND('',#108,.T.);
#21=FACE_BOUND('',#109,.T.);
#22=FACE_BOUND('',#110,.T.);
#23=FACE_BOUND('',#111,.T.);
#24=FACE_BOUND('',#112,.T.);
#25=PLANE('',#624);
#26=PLANE('',#625);
#27=PLANE('',#639);
#28=PLANE('',#642);
#29=PLANE('',#653);
#30=PLANE('',#656);
#31=PLANE('',#657);
#32=PLANE('',#658);
#33=PLANE('',#661);
#34=PLANE('',#662);
#35=PLANE('',#663);
#36=PLANE('',#666);
#37=PLANE('',#667);
#38=PLANE('',#668);
#39=PLANE('',#671);
#40=PLANE('',#672);
#41=PLANE('',#673);
#42=PLANE('',#674);
#43=FACE_OUTER_BOUND('',#73,.T.);
#44=FACE_OUTER_BOUND('',#74,.T.);
#45=FACE_OUTER_BOUND('',#75,.T.);
#46=FACE_OUTER_BOUND('',#81,.T.);
#47=FACE_OUTER_BOUND('',#82,.T.);
#48=FACE_OUTER_BOUND('',#83,.T.);
#49=FACE_OUTER_BOUND('',#84,.T.);
#50=FACE_OUTER_BOUND('',#85,.T.);
#51=FACE_OUTER_BOUND('',#86,.T.);
#52=FACE_OUTER_BOUND('',#87,.T.);
#53=FACE_OUTER_BOUND('',#88,.T.);
#54=FACE_OUTER_BOUND('',#89,.T.);
#55=FACE_OUTER_BOUND('',#90,.T.);
#56=FACE_OUTER_BOUND('',#91,.T.);
#57=FACE_OUTER_BOUND('',#92,.T.);
#58=FACE_OUTER_BOUND('',#93,.T.);
#59=FACE_OUTER_BOUND('',#94,.T.);
#60=FACE_OUTER_BOUND('',#95,.T.);
#61=FACE_OUTER_BOUND('',#96,.T.);
#62=FACE_OUTER_BOUND('',#97,.T.);
#63=FACE_OUTER_BOUND('',#98,.T.);
#64=FACE_OUTER_BOUND('',#99,.T.);
#65=FACE_OUTER_BOUND('',#100,.T.);
#66=FACE_OUTER_BOUND('',#101,.T.);
#67=FACE_OUTER_BOUND('',#102,.T.);
#68=FACE_OUTER_BOUND('',#103,.T.);
#69=FACE_OUTER_BOUND('',#104,.T.);
#70=FACE_OUTER_BOUND('',#105,.T.);
#71=FACE_OUTER_BOUND('',#106,.T.);
#72=FACE_OUTER_BOUND('',#107,.T.);
#73=EDGE_LOOP('',(#397,#398,#399,#400));
#74=EDGE_LOOP('',(#401,#402,#403,#404));
#75=EDGE_LOOP('',(#405,#406,#407,#408,#409,#410,#411,#412));
#76=EDGE_LOOP('',(#413,#414,#415,#416,#417,#418,#419,#420,#421,#422,#423,
#424,#425,#426,#427,#428));
#77=EDGE_LOOP('',(#429));
#78=EDGE_LOOP('',(#430));
#79=EDGE_LOOP('',(#431));
#80=EDGE_LOOP('',(#432));
#81=EDGE_LOOP('',(#433,#434,#435,#436));
#82=EDGE_LOOP('',(#437,#438,#439,#440));
#83=EDGE_LOOP('',(#441,#442,#443,#444));
#84=EDGE_LOOP('',(#445,#446,#447,#448));
#85=EDGE_LOOP('',(#449,#450,#451,#452));
#86=EDGE_LOOP('',(#453,#454,#455,#456));
#87=EDGE_LOOP('',(#457,#458,#459,#460));
#88=EDGE_LOOP('',(#461,#462,#463,#464));
#89=EDGE_LOOP('',(#465,#466,#467,#468));
#90=EDGE_LOOP('',(#469,#470,#471,#472));
#91=EDGE_LOOP('',(#473,#474,#475,#476));
#92=EDGE_LOOP('',(#477,#478,#479,#480));
#93=EDGE_LOOP('',(#481,#482,#483,#484));
#94=EDGE_LOOP('',(#485,#486,#487,#488));
#95=EDGE_LOOP('',(#489,#490,#491,#492));
#96=EDGE_LOOP('',(#493,#494,#495,#496));
#97=EDGE_LOOP('',(#497,#498,#499,#500));
#98=EDGE_LOOP('',(#501,#502,#503,#504));
#99=EDGE_LOOP('',(#505,#506,#507,#508));
#100=EDGE_LOOP('',(#509,#510,#511,#512));
#101=EDGE_LOOP('',(#513,#514,#515,#516));
#102=EDGE_LOOP('',(#517,#518,#519,#520));
#103=EDGE_LOOP('',(#521,#522,#523,#524));
#104=EDGE_LOOP('',(#525,#526,#527,#528));
#105=EDGE_LOOP('',(#529,#530,#531,#532));
#106=EDGE_LOOP('',(#533,#534,#535,#536));
#107=EDGE_LOOP('',(#537,#538,#539,#540,#541,#542,#543,#544));
#108=EDGE_LOOP('',(#545,#546,#547,#548,#549,#550,#551,#552,#553,#554,#555,
#556,#557,#558,#559,#560));
#109=EDGE_LOOP('',(#561));
#110=EDGE_LOOP('',(#562));
#111=EDGE_LOOP('',(#563));
#112=EDGE_LOOP('',(#564));
#113=LINE('',#851,#173);
#114=LINE('',#854,#174);
#115=LINE('',#857,#175);
#116=LINE('',#859,#176);
#117=LINE('',#860,#177);
#118=LINE('',#863,#178);
#119=LINE('',#867,#179);
#120=LINE('',#871,#180);
#121=LINE('',#875,#181);
#122=LINE('',#877,#182);
#123=LINE('',#881,#183);
#124=LINE('',#883,#184);
#125=LINE('',#885,#185);
#126=LINE('',#889,#186);
#127=LINE('',#891,#187);
#128=LINE('',#893,#188);
#129=LINE('',#897,#189);
#130=LINE('',#899,#190);
#131=LINE('',#901,#191);
#132=LINE('',#904,#192);
#133=LINE('',#916,#193);
#134=LINE('',#919,#194);
#135=LINE('',#920,#195);
#136=LINE('',#924,#196);
#137=LINE('',#927,#197);
#138=LINE('',#928,#198);
#139=LINE('',#932,#199);
#140=LINE('',#936,#200);
#141=LINE('',#940,#201);
#142=LINE('',#944,#202);
#143=LINE('',#948,#203);
#144=LINE('',#951,#204);
#145=LINE('',#953,#205);
#146=LINE('',#954,#206);
#147=LINE('',#958,#207);
#148=LINE('',#961,#208);
#149=LINE('',#962,#209);
#150=LINE('',#965,#210);
#151=LINE('',#966,#211);
#152=LINE('',#969,#212);
#153=LINE('',#970,#213);
#154=LINE('',#974,#214);
#155=LINE('',#977,#215);
#156=LINE('',#978,#216);
#157=LINE('',#981,#217);
#158=LINE('',#982,#218);
#159=LINE('',#985,#219);
#160=LINE('',#986,#220);
#161=LINE('',#990,#221);
#162=LINE('',#993,#222);
#163=LINE('',#994,#223);
#164=LINE('',#997,#224);
#165=LINE('',#998,#225);
#166=LINE('',#1001,#226);
#167=LINE('',#1002,#227);
#168=LINE('',#1006,#228);
#169=LINE('',#1009,#229);
#170=LINE('',#1010,#230);
#171=LINE('',#1012,#231);
#172=LINE('',#1014,#232);
#173=VECTOR('',#681,10.);
#174=VECTOR('',#684,10.);
#175=VECTOR('',#687,10.);
#176=VECTOR('',#688,10.);
#177=VECTOR('',#689,10.);
#178=VECTOR('',#692,10.);
#179=VECTOR('',#695,10.);
#180=VECTOR('',#698,10.);
#181=VECTOR('',#701,10.);
#182=VECTOR('',#702,10.);
#183=VECTOR('',#705,10.);
#184=VECTOR('',#706,10.);
#185=VECTOR('',#707,10.);
#186=VECTOR('',#710,10.);
#187=VECTOR('',#711,10.);
#188=VECTOR('',#712,10.);
#189=VECTOR('',#715,10.);
#190=VECTOR('',#716,10.);
#191=VECTOR('',#717,10.);
#192=VECTOR('',#720,10.);
#193=VECTOR('',#733,10.);
#194=VECTOR('',#736,10.);
#195=VECTOR('',#737,10.);
#196=VECTOR('',#742,10.);
#197=VECTOR('',#745,10.);
#198=VECTOR('',#746,10.);
#199=VECTOR('',#751,10.);
#200=VECTOR('',#756,1.8);
#201=VECTOR('',#761,1.8);
#202=VECTOR('',#766,1.8);
#203=VECTOR('',#771,1.8);
#204=VECTOR('',#774,10.);
#205=VECTOR('',#775,10.);
#206=VECTOR('',#776,10.);
#207=VECTOR('',#781,10.);
#208=VECTOR('',#784,10.);
#209=VECTOR('',#785,10.);
#210=VECTOR('',#788,10.);
#211=VECTOR('',#789,10.);
#212=VECTOR('',#792,10.);
#213=VECTOR('',#793,10.);
#214=VECTOR('',#798,10.);
#215=VECTOR('',#801,10.);
#216=VECTOR('',#802,10.);
#217=VECTOR('',#805,10.);
#218=VECTOR('',#806,10.);
#219=VECTOR('',#809,10.);
#220=VECTOR('',#810,10.);
#221=VECTOR('',#815,10.);
#222=VECTOR('',#818,10.);
#223=VECTOR('',#819,10.);
#224=VECTOR('',#822,10.);
#225=VECTOR('',#823,10.);
#226=VECTOR('',#826,10.);
#227=VECTOR('',#827,10.);
#228=VECTOR('',#832,10.);
#229=VECTOR('',#835,10.);
#230=VECTOR('',#836,10.);
#231=VECTOR('',#839,10.);
#232=VECTOR('',#842,10.);
#233=CIRCLE('',#622,2.);
#234=CIRCLE('',#623,2.);
#235=CIRCLE('',#626,2.);
#236=CIRCLE('',#627,2.);
#237=CIRCLE('',#628,2.);
#238=CIRCLE('',#629,5.00000007450581);
#239=CIRCLE('',#630,5.00000007450581);
#240=CIRCLE('',#631,5.00000007450581);
#241=CIRCLE('',#632,5.00000007450581);
#242=CIRCLE('',#633,1.8);
#243=CIRCLE('',#634,1.8);
#244=CIRCLE('',#635,1.8);
#245=CIRCLE('',#636,1.8);
#246=CIRCLE('',#638,2.);
#247=CIRCLE('',#641,2.);
#248=CIRCLE('',#644,2.);
#249=CIRCLE('',#646,1.8);
#250=CIRCLE('',#648,1.8);
#251=CIRCLE('',#650,1.8);
#252=CIRCLE('',#652,1.8);
#253=CIRCLE('',#655,5.00000007450581);
#254=CIRCLE('',#660,5.00000007450581);
#255=CIRCLE('',#665,5.00000007450581);
#256=CIRCLE('',#670,5.00000007450581);
#257=VERTEX_POINT('',#847);
#258=VERTEX_POINT('',#848);
#259=VERTEX_POINT('',#850);
#260=VERTEX_POINT('',#852);
#261=VERTEX_POINT('',#856);
#262=VERTEX_POINT('',#858);
#263=VERTEX_POINT('',#862);
#264=VERTEX_POINT('',#864);
#265=VERTEX_POINT('',#866);
#266=VERTEX_POINT('',#868);
#267=VERTEX_POINT('',#870);
#268=VERTEX_POINT('',#873);
#269=VERTEX_POINT('',#874);
#270=VERTEX_POINT('',#876);
#271=VERTEX_POINT('',#878);
#272=VERTEX_POINT('',#880);
#273=VERTEX_POINT('',#882);
#274=VERTEX_POINT('',#884);
#275=VERTEX_POINT('',#886);
#276=VERTEX_POINT('',#888);
#277=VERTEX_POINT('',#890);
#278=VERTEX_POINT('',#892);
#279=VERTEX_POINT('',#894);
#280=VERTEX_POINT('',#896);
#281=VERTEX_POINT('',#898);
#282=VERTEX_POINT('',#900);
#283=VERTEX_POINT('',#902);
#284=VERTEX_POINT('',#905);
#285=VERTEX_POINT('',#907);
#286=VERTEX_POINT('',#909);
#287=VERTEX_POINT('',#911);
#288=VERTEX_POINT('',#914);
#289=VERTEX_POINT('',#918);
#290=VERTEX_POINT('',#922);
#291=VERTEX_POINT('',#926);
#292=VERTEX_POINT('',#930);
#293=VERTEX_POINT('',#934);
#294=VERTEX_POINT('',#938);
#295=VERTEX_POINT('',#942);
#296=VERTEX_POINT('',#946);
#297=VERTEX_POINT('',#950);
#298=VERTEX_POINT('',#952);
#299=VERTEX_POINT('',#956);
#300=VERTEX_POINT('',#960);
#301=VERTEX_POINT('',#964);
#302=VERTEX_POINT('',#968);
#303=VERTEX_POINT('',#972);
#304=VERTEX_POINT('',#976);
#305=VERTEX_POINT('',#980);
#306=VERTEX_POINT('',#984);
#307=VERTEX_POINT('',#988);
#308=VERTEX_POINT('',#992);
#309=VERTEX_POINT('',#996);
#310=VERTEX_POINT('',#1000);
#311=VERTEX_POINT('',#1004);
#312=VERTEX_POINT('',#1008);
#313=EDGE_CURVE('',#257,#258,#233,.T.);
#314=EDGE_CURVE('',#258,#259,#113,.T.);
#315=EDGE_CURVE('',#259,#260,#234,.T.);
#316=EDGE_CURVE('',#260,#257,#114,.T.);
#317=EDGE_CURVE('',#261,#260,#115,.T.);
#318=EDGE_CURVE('',#262,#261,#116,.T.);
#319=EDGE_CURVE('',#257,#262,#117,.T.);
#320=EDGE_CURVE('',#259,#263,#118,.T.);
#321=EDGE_CURVE('',#264,#263,#235,.T.);
#322=EDGE_CURVE('',#264,#265,#119,.T.);
#323=EDGE_CURVE('',#266,#265,#236,.T.);
#324=EDGE_CURVE('',#266,#267,#120,.T.);
#325=EDGE_CURVE('',#261,#267,#237,.T.);
#326=EDGE_CURVE('',#268,#269,#121,.T.);
#327=EDGE_CURVE('',#270,#268,#122,.T.);
#328=EDGE_CURVE('',#271,#270,#238,.T.);
#329=EDGE_CURVE('',#272,#271,#123,.T.);
#330=EDGE_CURVE('',#273,#272,#124,.T.);
#331=EDGE_CURVE('',#274,#273,#125,.T.);
#332=EDGE_CURVE('',#275,#274,#239,.T.);
#333=EDGE_CURVE('',#276,#275,#126,.T.);
#334=EDGE_CURVE('',#277,#276,#127,.T.);
#335=EDGE_CURVE('',#278,#277,#128,.T.);
#336=EDGE_CURVE('',#279,#278,#240,.T.);
#337=EDGE_CURVE('',#280,#279,#129,.T.);
#338=EDGE_CURVE('',#281,#280,#130,.T.);
#339=EDGE_CURVE('',#282,#281,#131,.T.);
#340=EDGE_CURVE('',#283,#282,#241,.T.);
#341=EDGE_CURVE('',#269,#283,#132,.T.);
#342=EDGE_CURVE('',#284,#284,#242,.T.);
#343=EDGE_CURVE('',#285,#285,#243,.T.);
#344=EDGE_CURVE('',#286,#286,#244,.T.);
#345=EDGE_CURVE('',#287,#287,#245,.T.);
#346=EDGE_CURVE('',#288,#262,#246,.T.);
#347=EDGE_CURVE('',#267,#288,#133,.T.);
#348=EDGE_CURVE('',#289,#266,#134,.T.);
#349=EDGE_CURVE('',#288,#289,#135,.T.);
#350=EDGE_CURVE('',#290,#289,#247,.T.);
#351=EDGE_CURVE('',#265,#290,#136,.T.);
#352=EDGE_CURVE('',#291,#264,#137,.T.);
#353=EDGE_CURVE('',#290,#291,#138,.T.);
#354=EDGE_CURVE('',#292,#291,#248,.T.);
#355=EDGE_CURVE('',#263,#292,#139,.T.);
#356=EDGE_CURVE('',#293,#293,#249,.T.);
#357=EDGE_CURVE('',#293,#287,#140,.T.);
#358=EDGE_CURVE('',#294,#294,#250,.T.);
#359=EDGE_CURVE('',#294,#286,#141,.T.);
#360=EDGE_CURVE('',#295,#295,#251,.T.);
#361=EDGE_CURVE('',#295,#285,#142,.T.);
#362=EDGE_CURVE('',#296,#296,#252,.T.);
#363=EDGE_CURVE('',#296,#284,#143,.T.);
#364=EDGE_CURVE('',#268,#297,#144,.T.);
#365=EDGE_CURVE('',#298,#297,#145,.T.);
#366=EDGE_CURVE('',#270,#298,#146,.T.);
#367=EDGE_CURVE('',#299,#298,#253,.T.);
#368=EDGE_CURVE('',#271,#299,#147,.T.);
#369=EDGE_CURVE('',#300,#299,#148,.T.);
#370=EDGE_CURVE('',#272,#300,#149,.T.);
#371=EDGE_CURVE('',#301,#300,#150,.T.);
#372=EDGE_CURVE('',#273,#301,#151,.T.);
#373=EDGE_CURVE('',#302,#301,#152,.T.);
#374=EDGE_CURVE('',#274,#302,#153,.T.);
#375=EDGE_CURVE('',#303,#302,#254,.T.);
#376=EDGE_CURVE('',#275,#303,#154,.T.);
#377=EDGE_CURVE('',#304,#303,#155,.T.);
#378=EDGE_CURVE('',#276,#304,#156,.T.);
#379=EDGE_CURVE('',#305,#304,#157,.T.);
#380=EDGE_CURVE('',#277,#305,#158,.T.);
#381=EDGE_CURVE('',#306,#305,#159,.T.);
#382=EDGE_CURVE('',#278,#306,#160,.T.);
#383=EDGE_CURVE('',#307,#306,#255,.T.);
#384=EDGE_CURVE('',#279,#307,#161,.T.);
#385=EDGE_CURVE('',#308,#307,#162,.T.);
#386=EDGE_CURVE('',#280,#308,#163,.T.);
#387=EDGE_CURVE('',#309,#308,#164,.T.);
#388=EDGE_CURVE('',#281,#309,#165,.T.);
#389=EDGE_CURVE('',#310,#309,#166,.T.);
#390=EDGE_CURVE('',#282,#310,#167,.T.);
#391=EDGE_CURVE('',#311,#310,#256,.T.);
#392=EDGE_CURVE('',#283,#311,#168,.T.);
#393=EDGE_CURVE('',#312,#311,#169,.T.);
#394=EDGE_CURVE('',#269,#312,#170,.T.);
#395=EDGE_CURVE('',#297,#312,#171,.T.);
#396=EDGE_CURVE('',#292,#258,#172,.T.);
#397=ORIENTED_EDGE('',*,*,#313,.T.);
#398=ORIENTED_EDGE('',*,*,#314,.T.);
#399=ORIENTED_EDGE('',*,*,#315,.T.);
#400=ORIENTED_EDGE('',*,*,#316,.T.);
#401=ORIENTED_EDGE('',*,*,#316,.F.);
#402=ORIENTED_EDGE('',*,*,#317,.F.);
#403=ORIENTED_EDGE('',*,*,#318,.F.);
#404=ORIENTED_EDGE('',*,*,#319,.F.);
#405=ORIENTED_EDGE('',*,*,#315,.F.);
#406=ORIENTED_EDGE('',*,*,#320,.T.);
#407=ORIENTED_EDGE('',*,*,#321,.F.);
#408=ORIENTED_EDGE('',*,*,#322,.T.);
#409=ORIENTED_EDGE('',*,*,#323,.F.);
#410=ORIENTED_EDGE('',*,*,#324,.T.);
#411=ORIENTED_EDGE('',*,*,#325,.F.);
#412=ORIENTED_EDGE('',*,*,#317,.T.);
#413=ORIENTED_EDGE('',*,*,#326,.F.);
#414=ORIENTED_EDGE('',*,*,#327,.F.);
#415=ORIENTED_EDGE('',*,*,#328,.F.);
#416=ORIENTED_EDGE('',*,*,#329,.F.);
#417=ORIENTED_EDGE('',*,*,#330,.F.);
#418=ORIENTED_EDGE('',*,*,#331,.F.);
#419=ORIENTED_EDGE('',*,*,#332,.F.);
#420=ORIENTED_EDGE('',*,*,#333,.F.);
#421=ORIENTED_EDGE('',*,*,#334,.F.);
#422=ORIENTED_EDGE('',*,*,#335,.F.);
#423=ORIENTED_EDGE('',*,*,#336,.F.);
#424=ORIENTED_EDGE('',*,*,#337,.F.);
#425=ORIENTED_EDGE('',*,*,#338,.F.);
#426=ORIENTED_EDGE('',*,*,#339,.F.);
#427=ORIENTED_EDGE('',*,*,#340,.F.);
#428=ORIENTED_EDGE('',*,*,#341,.F.);
#429=ORIENTED_EDGE('',*,*,#342,.F.);
#430=ORIENTED_EDGE('',*,*,#343,.F.);
#431=ORIENTED_EDGE('',*,*,#344,.F.);
#432=ORIENTED_EDGE('',*,*,#345,.F.);
#433=ORIENTED_EDGE('',*,*,#346,.T.);
#434=ORIENTED_EDGE('',*,*,#318,.T.);
#435=ORIENTED_EDGE('',*,*,#325,.T.);
#436=ORIENTED_EDGE('',*,*,#347,.T.);
#437=ORIENTED_EDGE('',*,*,#347,.F.);
#438=ORIENTED_EDGE('',*,*,#324,.F.);
#439=ORIENTED_EDGE('',*,*,#348,.F.);
#440=ORIENTED_EDGE('',*,*,#349,.F.);
#441=ORIENTED_EDGE('',*,*,#350,.T.);
#442=ORIENTED_EDGE('',*,*,#348,.T.);
#443=ORIENTED_EDGE('',*,*,#323,.T.);
#444=ORIENTED_EDGE('',*,*,#351,.T.);
#445=ORIENTED_EDGE('',*,*,#351,.F.);
#446=ORIENTED_EDGE('',*,*,#322,.F.);
#447=ORIENTED_EDGE('',*,*,#352,.F.);
#448=ORIENTED_EDGE('',*,*,#353,.F.);
#449=ORIENTED_EDGE('',*,*,#354,.T.);
#450=ORIENTED_EDGE('',*,*,#352,.T.);
#451=ORIENTED_EDGE('',*,*,#321,.T.);
#452=ORIENTED_EDGE('',*,*,#355,.T.);
#453=ORIENTED_EDGE('',*,*,#356,.F.);
#454=ORIENTED_EDGE('',*,*,#357,.T.);
#455=ORIENTED_EDGE('',*,*,#345,.T.);
#456=ORIENTED_EDGE('',*,*,#357,.F.);
#457=ORIENTED_EDGE('',*,*,#358,.F.);
#458=ORIENTED_EDGE('',*,*,#359,.T.);
#459=ORIENTED_EDGE('',*,*,#344,.T.);
#460=ORIENTED_EDGE('',*,*,#359,.F.);
#461=ORIENTED_EDGE('',*,*,#360,.F.);
#462=ORIENTED_EDGE('',*,*,#361,.T.);
#463=ORIENTED_EDGE('',*,*,#343,.T.);
#464=ORIENTED_EDGE('',*,*,#361,.F.);
#465=ORIENTED_EDGE('',*,*,#362,.F.);
#466=ORIENTED_EDGE('',*,*,#363,.T.);
#467=ORIENTED_EDGE('',*,*,#342,.T.);
#468=ORIENTED_EDGE('',*,*,#363,.F.);
#469=ORIENTED_EDGE('',*,*,#327,.T.);
#470=ORIENTED_EDGE('',*,*,#364,.T.);
#471=ORIENTED_EDGE('',*,*,#365,.F.);
#472=ORIENTED_EDGE('',*,*,#366,.F.);
#473=ORIENTED_EDGE('',*,*,#328,.T.);
#474=ORIENTED_EDGE('',*,*,#366,.T.);
#475=ORIENTED_EDGE('',*,*,#367,.F.);
#476=ORIENTED_EDGE('',*,*,#368,.F.);
#477=ORIENTED_EDGE('',*,*,#329,.T.);
#478=ORIENTED_EDGE('',*,*,#368,.T.);
#479=ORIENTED_EDGE('',*,*,#369,.F.);
#480=ORIENTED_EDGE('',*,*,#370,.F.);
#481=ORIENTED_EDGE('',*,*,#330,.T.);
#482=ORIENTED_EDGE('',*,*,#370,.T.);
#483=ORIENTED_EDGE('',*,*,#371,.F.);
#484=ORIENTED_EDGE('',*,*,#372,.F.);
#485=ORIENTED_EDGE('',*,*,#331,.T.);
#486=ORIENTED_EDGE('',*,*,#372,.T.);
#487=ORIENTED_EDGE('',*,*,#373,.F.);
#488=ORIENTED_EDGE('',*,*,#374,.F.);
#489=ORIENTED_EDGE('',*,*,#332,.T.);
#490=ORIENTED_EDGE('',*,*,#374,.T.);
#491=ORIENTED_EDGE('',*,*,#375,.F.);
#492=ORIENTED_EDGE('',*,*,#376,.F.);
#493=ORIENTED_EDGE('',*,*,#333,.T.);
#494=ORIENTED_EDGE('',*,*,#376,.T.);
#495=ORIENTED_EDGE('',*,*,#377,.F.);
#496=ORIENTED_EDGE('',*,*,#378,.F.);
#497=ORIENTED_EDGE('',*,*,#334,.T.);
#498=ORIENTED_EDGE('',*,*,#378,.T.);
#499=ORIENTED_EDGE('',*,*,#379,.F.);
#500=ORIENTED_EDGE('',*,*,#380,.F.);
#501=ORIENTED_EDGE('',*,*,#335,.T.);
#502=ORIENTED_EDGE('',*,*,#380,.T.);
#503=ORIENTED_EDGE('',*,*,#381,.F.);
#504=ORIENTED_EDGE('',*,*,#382,.F.);
#505=ORIENTED_EDGE('',*,*,#336,.T.);
#506=ORIENTED_EDGE('',*,*,#382,.T.);
#507=ORIENTED_EDGE('',*,*,#383,.F.);
#508=ORIENTED_EDGE('',*,*,#384,.F.);
#509=ORIENTED_EDGE('',*,*,#337,.T.);
#510=ORIENTED_EDGE('',*,*,#384,.T.);
#511=ORIENTED_EDGE('',*,*,#385,.F.);
#512=ORIENTED_EDGE('',*,*,#386,.F.);
#513=ORIENTED_EDGE('',*,*,#338,.T.);
#514=ORIENTED_EDGE('',*,*,#386,.T.);
#515=ORIENTED_EDGE('',*,*,#387,.F.);
#516=ORIENTED_EDGE('',*,*,#388,.F.);
#517=ORIENTED_EDGE('',*,*,#339,.T.);
#518=ORIENTED_EDGE('',*,*,#388,.T.);
#519=ORIENTED_EDGE('',*,*,#389,.F.);
#520=ORIENTED_EDGE('',*,*,#390,.F.);
#521=ORIENTED_EDGE('',*,*,#340,.T.);
#522=ORIENTED_EDGE('',*,*,#390,.T.);
#523=ORIENTED_EDGE('',*,*,#391,.F.);
#524=ORIENTED_EDGE('',*,*,#392,.F.);
#525=ORIENTED_EDGE('',*,*,#341,.T.);
#526=ORIENTED_EDGE('',*,*,#392,.T.);
#527=ORIENTED_EDGE('',*,*,#393,.F.);
#528=ORIENTED_EDGE('',*,*,#394,.F.);
#529=ORIENTED_EDGE('',*,*,#326,.T.);
#530=ORIENTED_EDGE('',*,*,#394,.T.);
#531=ORIENTED_EDGE('',*,*,#395,.F.);
#532=ORIENTED_EDGE('',*,*,#364,.F.);
#533=ORIENTED_EDGE('',*,*,#314,.F.);
#534=ORIENTED_EDGE('',*,*,#396,.F.);
#535=ORIENTED_EDGE('',*,*,#355,.F.);
#536=ORIENTED_EDGE('',*,*,#320,.F.);
#537=ORIENTED_EDGE('',*,*,#313,.F.);
#538=ORIENTED_EDGE('',*,*,#319,.T.);
#539=ORIENTED_EDGE('',*,*,#346,.F.);
#540=ORIENTED_EDGE('',*,*,#349,.T.);
#541=ORIENTED_EDGE('',*,*,#350,.F.);
#542=ORIENTED_EDGE('',*,*,#353,.T.);
#543=ORIENTED_EDGE('',*,*,#354,.F.);
#544=ORIENTED_EDGE('',*,*,#396,.T.);
#545=ORIENTED_EDGE('',*,*,#395,.T.);
#546=ORIENTED_EDGE('',*,*,#393,.T.);
#547=ORIENTED_EDGE('',*,*,#391,.T.);
#548=ORIENTED_EDGE('',*,*,#389,.T.);
#549=ORIENTED_EDGE('',*,*,#387,.T.);
#550=ORIENTED_EDGE('',*,*,#385,.T.);
#551=ORIENTED_EDGE('',*,*,#383,.T.);
#552=ORIENTED_EDGE('',*,*,#381,.T.);
#553=ORIENTED_EDGE('',*,*,#379,.T.);
#554=ORIENTED_EDGE('',*,*,#377,.T.);
#555=ORIENTED_EDGE('',*,*,#375,.T.);
#556=ORIENTED_EDGE('',*,*,#373,.T.);
#557=ORIENTED_EDGE('',*,*,#371,.T.);
#558=ORIENTED_EDGE('',*,*,#369,.T.);
#559=ORIENTED_EDGE('',*,*,#367,.T.);
#560=ORIENTED_EDGE('',*,*,#365,.T.);
#561=ORIENTED_EDGE('',*,*,#362,.T.);
#562=ORIENTED_EDGE('',*,*,#360,.T.);
#563=ORIENTED_EDGE('',*,*,#358,.T.);
#564=ORIENTED_EDGE('',*,*,#356,.T.);
#565=CYLINDRICAL_SURFACE('',#621,2.);
#566=CYLINDRICAL_SURFACE('',#637,2.);
#567=CYLINDRICAL_SURFACE('',#640,2.);
#568=CYLINDRICAL_SURFACE('',#643,2.);
#569=CYLINDRICAL_SURFACE('',#645,1.8);
#570=CYLINDRICAL_SURFACE('',#647,1.8);
#571=CYLINDRICAL_SURFACE('',#649,1.8);
#572=CYLINDRICAL_SURFACE('',#651,1.8);
#573=CYLINDRICAL_SURFACE('',#654,5.00000007450581);
#574=CYLINDRICAL_SURFACE('',#659,5.00000007450581);
#575=CYLINDRICAL_SURFACE('',#664,5.00000007450581);
#576=CYLINDRICAL_SURFACE('',#669,5.00000007450581);
#577=ADVANCED_FACE('',(#43),#565,.T.);
#578=ADVANCED_FACE('',(#44),#25,.T.);
#579=ADVANCED_FACE('',(#45,#15,#16,#17,#18,#19),#26,.F.);
#580=ADVANCED_FACE('',(#46),#566,.T.);
#581=ADVANCED_FACE('',(#47),#27,.T.);
#582=ADVANCED_FACE('',(#48),#567,.T.);
#583=ADVANCED_FACE('',(#49),#28,.T.);
#584=ADVANCED_FACE('',(#50),#568,.T.);
#585=ADVANCED_FACE('',(#51),#569,.F.);
#586=ADVANCED_FACE('',(#52),#570,.F.);
#587=ADVANCED_FACE('',(#53),#571,.F.);
#588=ADVANCED_FACE('',(#54),#572,.F.);
#589=ADVANCED_FACE('',(#55),#29,.T.);
#590=ADVANCED_FACE('',(#56),#573,.T.);
#591=ADVANCED_FACE('',(#57),#30,.T.);
#592=ADVANCED_FACE('',(#58),#31,.T.);
#593=ADVANCED_FACE('',(#59),#32,.T.);
#594=ADVANCED_FACE('',(#60),#574,.T.);
#595=ADVANCED_FACE('',(#61),#33,.T.);
#596=ADVANCED_FACE('',(#62),#34,.T.);
#597=ADVANCED_FACE('',(#63),#35,.T.);
#598=ADVANCED_FACE('',(#64),#575,.T.);
#599=ADVANCED_FACE('',(#65),#36,.T.);
#600=ADVANCED_FACE('',(#66),#37,.T.);
#601=ADVANCED_FACE('',(#67),#38,.T.);
#602=ADVANCED_FACE('',(#68),#576,.T.);
#603=ADVANCED_FACE('',(#69),#39,.T.);
#604=ADVANCED_FACE('',(#70),#40,.T.);
#605=ADVANCED_FACE('',(#71),#41,.T.);
#606=ADVANCED_FACE('',(#72,#20,#21,#22,#23,#24),#42,.T.);
#607=CLOSED_SHELL('',(#577,#578,#579,#580,#581,#582,#583,#584,#585,#586,
#587,#588,#589,#590,#591,#592,#593,#594,#595,#596,#597,#598,#599,#600,#601,
#602,#603,#604,#605,#606));
#608=DERIVED_UNIT_ELEMENT(#610,1.);
#609=DERIVED_UNIT_ELEMENT(#1021,-3.);
#610=(
MASS_UNIT()
NAMED_UNIT(*)
SI_UNIT(.KILO.,.GRAM.)
);
#611=DERIVED_UNIT((#608,#609));
#612=MEASURE_REPRESENTATION_ITEM('density measure',
POSITIVE_RATIO_MEASURE(7850.),#611);
#613=PROPERTY_DEFINITION_REPRESENTATION(#618,#615);
#614=PROPERTY_DEFINITION_REPRESENTATION(#619,#616);
#615=REPRESENTATION('material name',(#617),#1018);
#616=REPRESENTATION('density',(#612),#1018);
#617=DESCRIPTIVE_REPRESENTATION_ITEM('Steel','Steel');
#618=PROPERTY_DEFINITION('material property','material name',#1028);
#619=PROPERTY_DEFINITION('material property','density of part',#1028);
#620=AXIS2_PLACEMENT_3D('',#845,#675,#676);
#621=AXIS2_PLACEMENT_3D('',#846,#677,#678);
#622=AXIS2_PLACEMENT_3D('',#849,#679,#680);
#623=AXIS2_PLACEMENT_3D('',#853,#682,#683);
#624=AXIS2_PLACEMENT_3D('',#855,#685,#686);
#625=AXIS2_PLACEMENT_3D('',#861,#690,#691);
#626=AXIS2_PLACEMENT_3D('',#865,#693,#694);
#627=AXIS2_PLACEMENT_3D('',#869,#696,#697);
#628=AXIS2_PLACEMENT_3D('',#872,#699,#700);
#629=AXIS2_PLACEMENT_3D('',#879,#703,#704);
#630=AXIS2_PLACEMENT_3D('',#887,#708,#709);
#631=AXIS2_PLACEMENT_3D('',#895,#713,#714);
#632=AXIS2_PLACEMENT_3D('',#903,#718,#719);
#633=AXIS2_PLACEMENT_3D('',#906,#721,#722);
#634=AXIS2_PLACEMENT_3D('',#908,#723,#724);
#635=AXIS2_PLACEMENT_3D('',#910,#725,#726);
#636=AXIS2_PLACEMENT_3D('',#912,#727,#728);
#637=AXIS2_PLACEMENT_3D('',#913,#729,#730);
#638=AXIS2_PLACEMENT_3D('',#915,#731,#732);
#639=AXIS2_PLACEMENT_3D('',#917,#734,#735);
#640=AXIS2_PLACEMENT_3D('',#921,#738,#739);
#641=AXIS2_PLACEMENT_3D('',#923,#740,#741);
#642=AXIS2_PLACEMENT_3D('',#925,#743,#744);
#643=AXIS2_PLACEMENT_3D('',#929,#747,#748);
#644=AXIS2_PLACEMENT_3D('',#931,#749,#750);
#645=AXIS2_PLACEMENT_3D('',#933,#752,#753);
#646=AXIS2_PLACEMENT_3D('',#935,#754,#755);
#647=AXIS2_PLACEMENT_3D('',#937,#757,#758);
#648=AXIS2_PLACEMENT_3D('',#939,#759,#760);
#649=AXIS2_PLACEMENT_3D('',#941,#762,#763);
#650=AXIS2_PLACEMENT_3D('',#943,#764,#765);
#651=AXIS2_PLACEMENT_3D('',#945,#767,#768);
#652=AXIS2_PLACEMENT_3D('',#947,#769,#770);
#653=AXIS2_PLACEMENT_3D('',#949,#772,#773);
#654=AXIS2_PLACEMENT_3D('',#955,#777,#778);
#655=AXIS2_PLACEMENT_3D('',#957,#779,#780);
#656=AXIS2_PLACEMENT_3D('',#959,#782,#783);
#657=AXIS2_PLACEMENT_3D('',#963,#786,#787);
#658=AXIS2_PLACEMENT_3D('',#967,#790,#791);
#659=AXIS2_PLACEMENT_3D('',#971,#794,#795);
#660=AXIS2_PLACEMENT_3D('',#973,#796,#797);
#661=AXIS2_PLACEMENT_3D('',#975,#799,#800);
#662=AXIS2_PLACEMENT_3D('',#979,#803,#804);
#663=AXIS2_PLACEMENT_3D('',#983,#807,#808);
#664=AXIS2_PLACEMENT_3D('',#987,#811,#812);
#665=AXIS2_PLACEMENT_3D('',#989,#813,#814);
#666=AXIS2_PLACEMENT_3D('',#991,#816,#817);
#667=AXIS2_PLACEMENT_3D('',#995,#820,#821);
#668=AXIS2_PLACEMENT_3D('',#999,#824,#825);
#669=AXIS2_PLACEMENT_3D('',#1003,#828,#829);
#670=AXIS2_PLACEMENT_3D('',#1005,#830,#831);
#671=AXIS2_PLACEMENT_3D('',#1007,#833,#834);
#672=AXIS2_PLACEMENT_3D('',#1011,#837,#838);
#673=AXIS2_PLACEMENT_3D('',#1013,#840,#841);
#674=AXIS2_PLACEMENT_3D('',#1015,#843,#844);
#675=DIRECTION('axis',(0.,0.,1.));
#676=DIRECTION('refdir',(1.,0.,0.));
#677=DIRECTION('center_axis',(0.,1.,0.));
#678=DIRECTION('ref_axis',(0.707106781186544,0.,-0.707106781186551));
#679=DIRECTION('center_axis',(0.,-1.,0.));
#680=DIRECTION('ref_axis',(0.707106781186544,0.,-0.707106781186551));
#681=DIRECTION('',(0.,-1.,0.));
#682=DIRECTION('center_axis',(0.,1.,0.));
#683=DIRECTION('ref_axis',(0.707106781186544,0.,-0.707106781186551));
#684=DIRECTION('',(0.,1.,0.));
#685=DIRECTION('center_axis',(0.,0.,-1.));
#686=DIRECTION('ref_axis',(-1.,0.,0.));
#687=DIRECTION('',(1.,0.,0.));
#688=DIRECTION('',(0.,-1.,0.));
#689=DIRECTION('',(-1.,0.,0.));
#690=DIRECTION('center_axis',(0.,1.,0.));
#691=DIRECTION('ref_axis',(1.,0.,0.));
#692=DIRECTION('',(0.,0.,1.));
#693=DIRECTION('center_axis',(0.,1.,0.));
#694=DIRECTION('ref_axis',(0.707106781186549,0.,0.707106781186546));
#695=DIRECTION('',(-1.,0.,0.));
#696=DIRECTION('center_axis',(0.,1.,0.));
#697=DIRECTION('ref_axis',(-0.707106781186547,0.,0.707106781186548));
#698=DIRECTION('',(0.,0.,-1.));
#699=DIRECTION('center_axis',(0.,1.,0.));
#700=DIRECTION('ref_axis',(-0.707106781186549,0.,-0.707106781186546));
#701=DIRECTION('',(-1.,0.,0.));
#702=DIRECTION('',(0.,0.,1.));
#703=DIRECTION('center_axis',(0.,1.,0.));
#704=DIRECTION('ref_axis',(0.,0.,-1.));
#705=DIRECTION('',(-1.,0.,3.70074394848921E-16));
#706=DIRECTION('',(0.,0.,1.));
#707=DIRECTION('',(1.,0.,0.));
#708=DIRECTION('center_axis',(0.,1.,0.));
#709=DIRECTION('ref_axis',(-1.,0.,0.));
#710=DIRECTION('',(0.,0.,1.));
#711=DIRECTION('',(1.,0.,0.));
#712=DIRECTION('',(-3.70074394848921E-16,0.,-1.));
#713=DIRECTION('center_axis',(0.,1.,0.));
#714=DIRECTION('ref_axis',(0.,0.,1.));
#715=DIRECTION('',(1.,0.,0.));
#716=DIRECTION('',(0.,0.,-1.));
#717=DIRECTION('',(-1.,0.,0.));
#718=DIRECTION('center_axis',(0.,1.,0.));
#719=DIRECTION('ref_axis',(1.,0.,0.));
#720=DIRECTION('',(0.,0.,-1.));
#721=DIRECTION('center_axis',(0.,-1.,0.));
#722=DIRECTION('ref_axis',(1.,0.,0.));
#723=DIRECTION('center_axis',(0.,-1.,0.));
#724=DIRECTION('ref_axis',(1.,0.,0.));
#725=DIRECTION('center_axis',(0.,-1.,0.));
#726=DIRECTION('ref_axis',(1.,0.,0.));
#727=DIRECTION('center_axis',(0.,-1.,0.));
#728=DIRECTION('ref_axis',(1.,0.,0.));
#729=DIRECTION('center_axis',(0.,1.,0.));
#730=DIRECTION('ref_axis',(-0.707106781186549,0.,-0.707106781186546));
#731=DIRECTION('center_axis',(0.,-1.,0.));
#732=DIRECTION('ref_axis',(-0.707106781186549,0.,-0.707106781186546));
#733=DIRECTION('',(0.,1.,0.));
#734=DIRECTION('center_axis',(-1.,0.,0.));
#735=DIRECTION('ref_axis',(0.,0.,1.));
#736=DIRECTION('',(0.,-1.,0.));
#737=DIRECTION('',(0.,0.,1.));
#738=DIRECTION('center_axis',(0.,1.,0.));
#739=DIRECTION('ref_axis',(-0.707106781186547,0.,0.707106781186548));
#740=DIRECTION('center_axis',(0.,-1.,0.));
#741=DIRECTION('ref_axis',(-0.707106781186547,0.,0.707106781186548));
#742=DIRECTION('',(0.,1.,0.));
#743=DIRECTION('center_axis',(0.,0.,1.));
#744=DIRECTION('ref_axis',(1.,0.,0.));
#745=DIRECTION('',(0.,-1.,0.));
#746=DIRECTION('',(1.,0.,0.));
#747=DIRECTION('center_axis',(0.,1.,0.));
#748=DIRECTION('ref_axis',(0.707106781186549,0.,0.707106781186546));
#749=DIRECTION('center_axis',(0.,-1.,0.));
#750=DIRECTION('ref_axis',(0.707106781186549,0.,0.707106781186546));
#751=DIRECTION('',(0.,1.,0.));
#752=DIRECTION('center_axis',(0.,1.,0.));
#753=DIRECTION('ref_axis',(1.,0.,0.));
#754=DIRECTION('center_axis',(0.,-1.,0.));
#755=DIRECTION('ref_axis',(1.,0.,0.));
#756=DIRECTION('',(0.,-1.,0.));
#757=DIRECTION('center_axis',(0.,1.,0.));
#758=DIRECTION('ref_axis',(1.,0.,0.));
#759=DIRECTION('center_axis',(0.,-1.,0.));
#760=DIRECTION('ref_axis',(1.,0.,0.));
#761=DIRECTION('',(0.,-1.,0.));
#762=DIRECTION('center_axis',(0.,1.,0.));
#763=DIRECTION('ref_axis',(1.,0.,0.));
#764=DIRECTION('center_axis',(0.,-1.,0.));
#765=DIRECTION('ref_axis',(1.,0.,0.));
#766=DIRECTION('',(0.,-1.,0.));
#767=DIRECTION('center_axis',(0.,1.,0.));
#768=DIRECTION('ref_axis',(1.,0.,0.));
#769=DIRECTION('center_axis',(0.,-1.,0.));
#770=DIRECTION('ref_axis',(1.,0.,0.));
#771=DIRECTION('',(0.,-1.,0.));
#772=DIRECTION('center_axis',(-1.,0.,0.));
#773=DIRECTION('ref_axis',(0.,0.,1.));
#774=DIRECTION('',(0.,1.,0.));
#775=DIRECTION('',(0.,0.,1.));
#776=DIRECTION('',(0.,1.,0.));
#777=DIRECTION('center_axis',(0.,1.,0.));
#778=DIRECTION('ref_axis',(0.,0.,-1.));
#779=DIRECTION('center_axis',(0.,1.,0.));
#780=DIRECTION('ref_axis',(0.,0.,-1.));
#781=DIRECTION('',(0.,1.,0.));
#782=DIRECTION('center_axis',(-3.70074394848921E-16,0.,-1.));
#783=DIRECTION('ref_axis',(-1.,0.,3.70074394848921E-16));
#784=DIRECTION('',(-1.,0.,3.70074394848921E-16));
#785=DIRECTION('',(0.,1.,0.));
#786=DIRECTION('center_axis',(-1.,0.,0.));
#787=DIRECTION('ref_axis',(0.,0.,1.));
#788=DIRECTION('',(0.,0.,1.));
#789=DIRECTION('',(0.,1.,0.));
#790=DIRECTION('center_axis',(0.,0.,1.));
#791=DIRECTION('ref_axis',(1.,0.,0.));
#792=DIRECTION('',(1.,0.,0.));
#793=DIRECTION('',(0.,1.,0.));
#794=DIRECTION('center_axis',(0.,1.,0.));
#795=DIRECTION('ref_axis',(-1.,0.,0.));
#796=DIRECTION('center_axis',(0.,1.,0.));
#797=DIRECTION('ref_axis',(-1.,0.,0.));
#798=DIRECTION('',(0.,1.,0.));
#799=DIRECTION('center_axis',(-1.,0.,0.));
#800=DIRECTION('ref_axis',(0.,0.,1.));
#801=DIRECTION('',(0.,0.,1.));
#802=DIRECTION('',(0.,1.,0.));
#803=DIRECTION('center_axis',(0.,0.,1.));
#804=DIRECTION('ref_axis',(1.,0.,0.));
#805=DIRECTION('',(1.,0.,0.));
#806=DIRECTION('',(0.,1.,0.));
#807=DIRECTION('center_axis',(1.,0.,-3.70074394848921E-16));
#808=DIRECTION('ref_axis',(-3.70074394848921E-16,0.,-1.));
#809=DIRECTION('',(-3.70074394848921E-16,0.,-1.));
#810=DIRECTION('',(0.,1.,0.));
#811=DIRECTION('center_axis',(0.,1.,0.));
#812=DIRECTION('ref_axis',(0.,0.,1.));
#813=DIRECTION('center_axis',(0.,1.,0.));
#814=DIRECTION('ref_axis',(0.,0.,1.));
#815=DIRECTION('',(0.,1.,0.));
#816=DIRECTION('center_axis',(0.,0.,1.));
#817=DIRECTION('ref_axis',(1.,0.,0.));
#818=DIRECTION('',(1.,0.,0.));
#819=DIRECTION('',(0.,1.,0.));
#820=DIRECTION('center_axis',(1.,0.,0.));
#821=DIRECTION('ref_axis',(0.,0.,-1.));
#822=DIRECTION('',(0.,0.,-1.));
#823=DIRECTION('',(0.,1.,0.));
#824=DIRECTION('center_axis',(0.,0.,-1.));
#825=DIRECTION('ref_axis',(-1.,0.,0.));
#826=DIRECTION('',(-1.,0.,0.));
#827=DIRECTION('',(0.,1.,0.));
#828=DIRECTION('center_axis',(0.,1.,0.));
#829=DIRECTION('ref_axis',(1.,0.,0.));
#830=DIRECTION('center_axis',(0.,1.,0.));
#831=DIRECTION('ref_axis',(1.,0.,0.));
#832=DIRECTION('',(0.,1.,0.));
#833=DIRECTION('center_axis',(1.,0.,0.));
#834=DIRECTION('ref_axis',(0.,0.,-1.));
#835=DIRECTION('',(0.,0.,-1.));
#836=DIRECTION('',(0.,1.,0.));
#837=DIRECTION('center_axis',(0.,0.,-1.));
#838=DIRECTION('ref_axis',(-1.,0.,0.));
#839=DIRECTION('',(-1.,0.,0.));
#840=DIRECTION('center_axis',(1.,0.,0.));
#841=DIRECTION('ref_axis',(0.,0.,-1.));
#842=DIRECTION('',(0.,0.,-1.));
#843=DIRECTION('center_axis',(0.,1.,0.));
#844=DIRECTION('ref_axis',(1.,0.,0.));
#845=CARTESIAN_POINT('',(0.,0.,0.));
#846=CARTESIAN_POINT('Origin',(66.000001013279,0.,-66.000001013279));
#847=CARTESIAN_POINT('',(66.000001013279,11.8,-68.000001013279));
#848=CARTESIAN_POINT('',(68.000001013279,11.8,-66.000001013279));
#849=CARTESIAN_POINT('Origin',(66.000001013279,11.8,-66.000001013279));
#850=CARTESIAN_POINT('',(68.000001013279,0.,-66.000001013279));
#851=CARTESIAN_POINT('',(68.000001013279,0.,-66.000001013279));
#852=CARTESIAN_POINT('',(66.000001013279,0.,-68.000001013279));
#853=CARTESIAN_POINT('Origin',(66.000001013279,0.,-66.000001013279));
#854=CARTESIAN_POINT('',(66.000001013279,0.,-68.000001013279));
#855=CARTESIAN_POINT('Origin',(68.000001013279,0.,-68.000001013279));
#856=CARTESIAN_POINT('',(4.00000002980232,0.,-68.000001013279));
#857=CARTESIAN_POINT('',(2.00000002980232,0.,-68.000001013279));
#858=CARTESIAN_POINT('',(4.00000002980232,11.8,-68.000001013279));
#859=CARTESIAN_POINT('',(4.00000002980232,0.,-68.000001013279));
#860=CARTESIAN_POINT('',(2.00000002980232,11.8,-68.000001013279));
#861=CARTESIAN_POINT('Origin',(35.0000005215406,0.,-35.0000005215406));
#862=CARTESIAN_POINT('',(68.000001013279,0.,-4.00000002980232));
#863=CARTESIAN_POINT('',(68.000001013279,0.,-68.000001013279));
#864=CARTESIAN_POINT('',(66.000001013279,0.,-2.00000002980232));
#865=CARTESIAN_POINT('Origin',(66.000001013279,0.,-4.00000002980232));
#866=CARTESIAN_POINT('',(4.00000002980232,0.,-2.00000002980232));
#867=CARTESIAN_POINT('',(68.000001013279,0.,-2.00000002980232));
#868=CARTESIAN_POINT('',(2.00000002980232,0.,-4.00000002980232));
#869=CARTESIAN_POINT('Origin',(4.00000002980232,0.,-4.00000002980232));
#870=CARTESIAN_POINT('',(2.00000002980232,0.,-66.000001013279));
#871=CARTESIAN_POINT('',(2.00000002980232,0.,-2.00000002980232));
#872=CARTESIAN_POINT('Origin',(4.00000002980232,0.,-66.000001013279));
#873=CARTESIAN_POINT('',(55.0000008195639,0.,-4.00000002980232));
#874=CARTESIAN_POINT('',(15.0000002235174,0.,-4.00000002980232));
#875=CARTESIAN_POINT('',(4.00000002980232,0.,-4.00000002980232));
#876=CARTESIAN_POINT('',(55.0000008195639,0.,-10.0000001490116));
#877=CARTESIAN_POINT('',(55.0000008195639,0.,-10.0000001490116));
#878=CARTESIAN_POINT('',(60.0000008940697,0.,-15.0000002235174));
#879=CARTESIAN_POINT('Origin',(60.0000008940697,0.,-10.0000001490116));
#880=CARTESIAN_POINT('',(66.0000000298023,0.,-15.0000002235174));
#881=CARTESIAN_POINT('',(60.0000008940697,0.,-15.0000002235174));
#882=CARTESIAN_POINT('',(66.0000000298023,0.,-55.0000008195639));
#883=CARTESIAN_POINT('',(66.0000000298023,0.,-4.00000002980232));
#884=CARTESIAN_POINT('',(60.0000008940697,0.,-55.0000008195639));
#885=CARTESIAN_POINT('',(60.0000008940697,0.,-55.0000008195639));
#886=CARTESIAN_POINT('',(55.0000008195639,0.,-60.0000008940697));
#887=CARTESIAN_POINT('Origin',(60.0000008940697,0.,-60.0000008940697));
#888=CARTESIAN_POINT('',(55.0000008195639,0.,-66.0000000298023));
#889=CARTESIAN_POINT('',(55.0000008195639,0.,-60.0000008940697));
#890=CARTESIAN_POINT('',(15.0000002235174,0.,-66.0000000298023));
#891=CARTESIAN_POINT('',(66.0000000298023,0.,-66.0000000298023));
#892=CARTESIAN_POINT('',(15.0000002235174,0.,-60.0000008940697));
#893=CARTESIAN_POINT('',(15.0000002235174,0.,-60.0000008940697));
#894=CARTESIAN_POINT('',(10.0000001490116,0.,-55.0000008195639));
#895=CARTESIAN_POINT('Origin',(10.0000001490116,0.,-60.0000008940697));
#896=CARTESIAN_POINT('',(4.00000002980232,0.,-55.0000008195639));
#897=CARTESIAN_POINT('',(10.0000001490116,0.,-55.0000008195639));
#898=CARTESIAN_POINT('',(4.00000002980232,0.,-15.0000002235174));
#899=CARTESIAN_POINT('',(4.00000002980232,0.,-66.0000000298023));
#900=CARTESIAN_POINT('',(10.0000001490116,0.,-15.0000002235174));
#901=CARTESIAN_POINT('',(10.0000001490116,0.,-15.0000002235174));
#902=CARTESIAN_POINT('',(15.0000002235174,0.,-10.0000001490116));
#903=CARTESIAN_POINT('Origin',(10.0000001490116,0.,-10.0000001490116));
#904=CARTESIAN_POINT('',(15.0000002235174,0.,-10.0000001490116));
#905=CARTESIAN_POINT('',(58.2000008940697,0.,-60.0000008940697));
#906=CARTESIAN_POINT('Origin',(60.0000008940697,0.,-60.0000008940697));
#907=CARTESIAN_POINT('',(8.20000014901161,0.,-10.0000001490116));
#908=CARTESIAN_POINT('Origin',(10.0000001490116,0.,-10.0000001490116));
#909=CARTESIAN_POINT('',(58.2000008940697,0.,-10.0000001490116));
#910=CARTESIAN_POINT('Origin',(60.0000008940697,0.,-10.0000001490116));
#911=CARTESIAN_POINT('',(8.20000014901161,0.,-60.0000008940697));
#912=CARTESIAN_POINT('Origin',(10.0000001490116,0.,-60.0000008940697));
#913=CARTESIAN_POINT('Origin',(4.00000002980232,0.,-66.000001013279));
#914=CARTESIAN_POINT('',(2.00000002980232,11.8,-66.000001013279));
#915=CARTESIAN_POINT('Origin',(4.00000002980232,11.8,-66.000001013279));
#916=CARTESIAN_POINT('',(2.00000002980232,0.,-66.000001013279));
#917=CARTESIAN_POINT('Origin',(2.00000002980232,0.,-68.000001013279));
#918=CARTESIAN_POINT('',(2.00000002980232,11.8,-4.00000002980232));
#919=CARTESIAN_POINT('',(2.00000002980232,0.,-4.00000002980232));
#920=CARTESIAN_POINT('',(2.00000002980232,11.8,-2.00000002980232));
#921=CARTESIAN_POINT('Origin',(4.00000002980232,0.,-4.00000002980232));
#922=CARTESIAN_POINT('',(4.00000002980232,11.8,-2.00000002980232));
#923=CARTESIAN_POINT('Origin',(4.00000002980232,11.8,-4.00000002980232));
#924=CARTESIAN_POINT('',(4.00000002980232,0.,-2.00000002980232));
#925=CARTESIAN_POINT('Origin',(2.00000002980232,0.,-2.00000002980232));
#926=CARTESIAN_POINT('',(66.000001013279,11.8,-2.00000002980232));
#927=CARTESIAN_POINT('',(66.000001013279,0.,-2.00000002980232));
#928=CARTESIAN_POINT('',(68.000001013279,11.8,-2.00000002980232));
#929=CARTESIAN_POINT('Origin',(66.000001013279,0.,-4.00000002980232));
#930=CARTESIAN_POINT('',(68.000001013279,11.8,-4.00000002980232));
#931=CARTESIAN_POINT('Origin',(66.000001013279,11.8,-4.00000002980232));
#932=CARTESIAN_POINT('',(68.000001013279,0.,-4.00000002980232));
#933=CARTESIAN_POINT('Origin',(10.0000001490116,0.,-60.0000008940697));
#934=CARTESIAN_POINT('',(8.20000014901161,11.8,-60.0000008940697));
#935=CARTESIAN_POINT('Origin',(10.0000001490116,11.8,-60.0000008940697));
#936=CARTESIAN_POINT('',(8.20000014901161,0.,-60.0000008940697));
#937=CARTESIAN_POINT('Origin',(60.0000008940697,0.,-10.0000001490116));
#938=CARTESIAN_POINT('',(58.2000008940697,11.8,-10.0000001490116));
#939=CARTESIAN_POINT('Origin',(60.0000008940697,11.8,-10.0000001490116));
#940=CARTESIAN_POINT('',(58.2000008940697,0.,-10.0000001490116));
#941=CARTESIAN_POINT('Origin',(10.0000001490116,0.,-10.0000001490116));
#942=CARTESIAN_POINT('',(8.20000014901161,11.8,-10.0000001490116));
#943=CARTESIAN_POINT('Origin',(10.0000001490116,11.8,-10.0000001490116));
#944=CARTESIAN_POINT('',(8.20000014901161,0.,-10.0000001490116));
#945=CARTESIAN_POINT('Origin',(60.0000008940697,0.,-60.0000008940697));
#946=CARTESIAN_POINT('',(58.2000008940697,11.8,-60.0000008940697));
#947=CARTESIAN_POINT('Origin',(60.0000008940697,11.8,-60.0000008940697));
#948=CARTESIAN_POINT('',(58.2000008940697,0.,-60.0000008940697));
#949=CARTESIAN_POINT('Origin',(55.0000008195639,0.,-10.0000001490116));
#950=CARTESIAN_POINT('',(55.0000008195639,11.8,-4.00000002980232));
#951=CARTESIAN_POINT('',(55.0000008195639,0.,-4.00000002980232));
#952=CARTESIAN_POINT('',(55.0000008195639,11.8,-10.0000001490116));
#953=CARTESIAN_POINT('',(55.0000008195639,11.8,-10.0000001490116));
#954=CARTESIAN_POINT('',(55.0000008195639,0.,-10.0000001490116));
#955=CARTESIAN_POINT('Origin',(60.0000008940697,0.,-10.0000001490116));
#956=CARTESIAN_POINT('',(60.0000008940697,11.8,-15.0000002235174));
#957=CARTESIAN_POINT('Origin',(60.0000008940697,11.8,-10.0000001490116));
#958=CARTESIAN_POINT('',(60.0000008940697,0.,-15.0000002235174));
#959=CARTESIAN_POINT('Origin',(66.0000000298023,0.,-15.0000002235174));
#960=CARTESIAN_POINT('',(66.0000000298023,11.8,-15.0000002235174));
#961=CARTESIAN_POINT('',(60.0000008940697,11.8,-15.0000002235174));
#962=CARTESIAN_POINT('',(66.0000000298023,0.,-15.0000002235174));
#963=CARTESIAN_POINT('Origin',(66.0000000298023,0.,-55.0000008195639));
#964=CARTESIAN_POINT('',(66.0000000298023,11.8,-55.0000008195639));
#965=CARTESIAN_POINT('',(66.0000000298023,11.8,-4.00000002980232));
#966=CARTESIAN_POINT('',(66.0000000298023,0.,-55.0000008195639));
#967=CARTESIAN_POINT('Origin',(60.0000008940697,0.,-55.0000008195639));
#968=CARTESIAN_POINT('',(60.0000008940697,11.8,-55.0000008195639));
#969=CARTESIAN_POINT('',(60.0000008940697,11.8,-55.0000008195639));
#970=CARTESIAN_POINT('',(60.0000008940697,0.,-55.0000008195639));
#971=CARTESIAN_POINT('Origin',(60.0000008940697,0.,-60.0000008940697));
#972=CARTESIAN_POINT('',(55.0000008195639,11.8,-60.0000008940697));
#973=CARTESIAN_POINT('Origin',(60.0000008940697,11.8,-60.0000008940697));
#974=CARTESIAN_POINT('',(55.0000008195639,0.,-60.0000008940697));
#975=CARTESIAN_POINT('Origin',(55.0000008195639,0.,-66.0000000298023));
#976=CARTESIAN_POINT('',(55.0000008195639,11.8,-66.0000000298023));
#977=CARTESIAN_POINT('',(55.0000008195639,11.8,-60.0000008940697));
#978=CARTESIAN_POINT('',(55.0000008195639,0.,-66.0000000298023));
#979=CARTESIAN_POINT('Origin',(15.0000002235174,0.,-66.0000000298023));
#980=CARTESIAN_POINT('',(15.0000002235174,11.8,-66.0000000298023));
#981=CARTESIAN_POINT('',(66.0000000298023,11.8,-66.0000000298023));
#982=CARTESIAN_POINT('',(15.0000002235174,0.,-66.0000000298023));
#983=CARTESIAN_POINT('Origin',(15.0000002235174,0.,-60.0000008940697));
#984=CARTESIAN_POINT('',(15.0000002235174,11.8,-60.0000008940697));
#985=CARTESIAN_POINT('',(15.0000002235174,11.8,-60.0000008940697));
#986=CARTESIAN_POINT('',(15.0000002235174,0.,-60.0000008940697));
#987=CARTESIAN_POINT('Origin',(10.0000001490116,0.,-60.0000008940697));
#988=CARTESIAN_POINT('',(10.0000001490116,11.8,-55.0000008195639));
#989=CARTESIAN_POINT('Origin',(10.0000001490116,11.8,-60.0000008940697));
#990=CARTESIAN_POINT('',(10.0000001490116,0.,-55.0000008195639));
#991=CARTESIAN_POINT('Origin',(4.00000002980232,0.,-55.0000008195639));
#992=CARTESIAN_POINT('',(4.00000002980232,11.8,-55.0000008195639));
#993=CARTESIAN_POINT('',(10.0000001490116,11.8,-55.0000008195639));
#994=CARTESIAN_POINT('',(4.00000002980232,0.,-55.0000008195639));
#995=CARTESIAN_POINT('Origin',(4.00000002980232,0.,-15.0000002235174));
#996=CARTESIAN_POINT('',(4.00000002980232,11.8,-15.0000002235174));
#997=CARTESIAN_POINT('',(4.00000002980232,11.8,-66.0000000298023));
#998=CARTESIAN_POINT('',(4.00000002980232,0.,-15.0000002235174));
#999=CARTESIAN_POINT('Origin',(10.0000001490116,0.,-15.0000002235174));
#1000=CARTESIAN_POINT('',(10.0000001490116,11.8,-15.0000002235174));
#1001=CARTESIAN_POINT('',(10.0000001490116,11.8,-15.0000002235174));
#1002=CARTESIAN_POINT('',(10.0000001490116,0.,-15.0000002235174));
#1003=CARTESIAN_POINT('Origin',(10.0000001490116,0.,-10.0000001490116));
#1004=CARTESIAN_POINT('',(15.0000002235174,11.8,-10.0000001490116));
#1005=CARTESIAN_POINT('Origin',(10.0000001490116,11.8,-10.0000001490116));
#1006=CARTESIAN_POINT('',(15.0000002235174,0.,-10.0000001490116));
#1007=CARTESIAN_POINT('Origin',(15.0000002235174,0.,-4.00000002980232));
#1008=CARTESIAN_POINT('',(15.0000002235174,11.8,-4.00000002980232));
#1009=CARTESIAN_POINT('',(15.0000002235174,11.8,-10.0000001490116));
#1010=CARTESIAN_POINT('',(15.0000002235174,0.,-4.00000002980232));
#1011=CARTESIAN_POINT('Origin',(55.0000008195639,0.,-4.00000002980232));
#1012=CARTESIAN_POINT('',(4.00000002980232,11.8,-4.00000002980232));
#1013=CARTESIAN_POINT('Origin',(68.000001013279,0.,-2.00000002980232));
#1014=CARTESIAN_POINT('',(68.000001013279,11.8,-68.000001013279));
#1015=CARTESIAN_POINT('Origin',(35.0000005215406,11.8,-35.0000005215406));
#1016=UNCERTAINTY_MEASURE_WITH_UNIT(LENGTH_MEASURE(0.01),#1020,
'DISTANCE_ACCURACY_VALUE',
'Maximum model space distance between geometric entities at asserted c
onnectivities');
#1017=UNCERTAINTY_MEASURE_WITH_UNIT(LENGTH_MEASURE(0.01),#1020,
'DISTANCE_ACCURACY_VALUE',
'Maximum model space distance between geometric entities at asserted c
onnectivities');
#1018=(
GEOMETRIC_REPRESENTATION_CONTEXT(3)
GLOBAL_UNCERTAINTY_ASSIGNED_CONTEXT((#1016))
GLOBAL_UNIT_ASSIGNED_CONTEXT((#1020,#1022,#1023))
REPRESENTATION_CONTEXT('','3D')
);
#1019=(
GEOMETRIC_REPRESENTATION_CONTEXT(3)
GLOBAL_UNCERTAINTY_ASSIGNED_CONTEXT((#1017))
GLOBAL_UNIT_ASSIGNED_CONTEXT((#1020,#1022,#1023))
REPRESENTATION_CONTEXT('','3D')
);
#1020=(
LENGTH_UNIT()
NAMED_UNIT(*)
SI_UNIT(.MILLI.,.METRE.)
);
#1021=(
LENGTH_UNIT()
NAMED_UNIT(*)
SI_UNIT($,.METRE.)
);
#1022=(
NAMED_UNIT(*)
PLANE_ANGLE_UNIT()
SI_UNIT($,.RADIAN.)
);
#1023=(
NAMED_UNIT(*)
SI_UNIT($,.STERADIAN.)
SOLID_ANGLE_UNIT()
);
#1024=SHAPE_DEFINITION_REPRESENTATION(#1025,#1026);
#1025=PRODUCT_DEFINITION_SHAPE('',$,#1028);
#1026=SHAPE_REPRESENTATION('',(#620),#1018);
#1027=PRODUCT_DEFINITION_CONTEXT('part definition',#1032,'design');
#1028=PRODUCT_DEFINITION('2025-11-18-17-22-49-464',
'Seven segment top spacer',#1029,#1027);
#1029=PRODUCT_DEFINITION_FORMATION('',$,#1034);
#1030=PRODUCT_RELATED_PRODUCT_CATEGORY('Seven segment top spacer',
'Seven segment top spacer',(#1034));
#1031=APPLICATION_PROTOCOL_DEFINITION('international standard',
'automotive_design',2009,#1032);
#1032=APPLICATION_CONTEXT(
'Core Data for Automotive Mechanical Design Process');
#1033=PRODUCT_CONTEXT('part definition',#1032,'mechanical');
#1034=PRODUCT('2025-11-18-17-22-49-464','Seven segment top spacer',$,(#1033));
#1035=PRESENTATION_STYLE_ASSIGNMENT((#1036));
#1036=SURFACE_STYLE_USAGE(.BOTH.,#1037);
#1037=SURFACE_SIDE_STYLE('',(#1038));
#1038=SURFACE_STYLE_FILL_AREA(#1039);
#1039=FILL_AREA_STYLE('Steel - Satin',(#1040));
#1040=FILL_AREA_STYLE_COLOUR('Steel - Satin',#1041);
#1041=COLOUR_RGB('Steel - Satin',0.627450980392157,0.627450980392157,0.627450980392157);
ENDSEC;
END-ISO-10303-21;
