ISO-10303-21;
HEADER;
/* Generated by software containing ST-Developer
 * from STEP Tools, Inc. (www.steptools.com) 
 */

FILE_DESCRIPTION(
/* description */ (''),
/* implementation_level */ '2;1');

FILE_NAME(
/* name */ 'Adaptor.step',
/* time_stamp */ '2026-04-27T15:52:23+01:00',
/* author */ (''),
/* organization */ (''),
/* preprocessor_version */ 'ST-DEVELOPER v20.1',
/* originating_system */ 'Autodesk Translation Framework v14.24.0.0',
/* authorisation */ '');

FILE_SCHEMA (('AUTOMOTIVE_DESIGN { 1 0 10303 214 3 1 1 }'));
ENDSEC;

DATA;
#10=MECHANICAL_DESIGN_GEOMETRIC_PRESENTATION_REPRESENTATION('',(#15,#16),
#634);
#11=SHAPE_REPRESENTATION_RELATIONSHIP('SRR','None',#641,#12);
#12=ADVANCED_BREP_SHAPE_REPRESENTATION('',(#17,#18),#633);
#13=FACE_BOUND('',#88,.T.);
#14=CONICAL_SURFACE('',#397,8.25,0.785398163397448);
#15=STYLED_ITEM('',(#650),#17);
#16=STYLED_ITEM('',(#650),#18);
#17=MANIFOLD_SOLID_BREP('Body1',#358);
#18=MANIFOLD_SOLID_BREP('Body2',#359);
#19=CYLINDRICAL_SURFACE('',#379,3.);
#20=CYLINDRICAL_SURFACE('',#382,1.5);
#21=CYLINDRICAL_SURFACE('',#386,1.5);
#22=CYLINDRICAL_SURFACE('',#393,10.);
#23=CYLINDRICAL_SURFACE('',#399,6.5);
#24=CYLINDRICAL_SURFACE('',#411,3.50000005215406);
#25=CIRCLE('',#375,3.);
#26=CIRCLE('',#376,3.);
#27=CIRCLE('',#378,3.);
#28=CIRCLE('',#380,3.);
#29=CIRCLE('',#383,1.5);
#30=CIRCLE('',#384,1.5);
#31=CIRCLE('',#387,1.5);
#32=CIRCLE('',#388,1.5);
#33=CIRCLE('',#392,10.);
#34=CIRCLE('',#394,10.);
#35=CIRCLE('',#395,10.);
#36=CIRCLE('',#396,10.);
#37=CIRCLE('',#398,6.5);
#38=CIRCLE('',#400,6.5);
#39=CIRCLE('',#404,3.50000005215406);
#40=CIRCLE('',#405,3.50000005215406);
#41=CIRCLE('',#406,3.50000005215406);
#42=CIRCLE('',#408,3.50000005215406);
#43=CIRCLE('',#410,3.50000005215406);
#44=CIRCLE('',#412,3.50000005215406);
#45=FACE_OUTER_BOUND('',#67,.T.);
#46=FACE_OUTER_BOUND('',#68,.T.);
#47=FACE_OUTER_BOUND('',#69,.T.);
#48=FACE_OUTER_BOUND('',#70,.T.);
#49=FACE_OUTER_BOUND('',#71,.T.);
#50=FACE_OUTER_BOUND('',#72,.T.);
#51=FACE_OUTER_BOUND('',#73,.T.);
#52=FACE_OUTER_BOUND('',#74,.T.);
#53=FACE_OUTER_BOUND('',#75,.T.);
#54=FACE_OUTER_BOUND('',#76,.T.);
#55=FACE_OUTER_BOUND('',#77,.T.);
#56=FACE_OUTER_BOUND('',#78,.T.);
#57=FACE_OUTER_BOUND('',#79,.T.);
#58=FACE_OUTER_BOUND('',#80,.T.);
#59=FACE_OUTER_BOUND('',#81,.T.);
#60=FACE_OUTER_BOUND('',#82,.T.);
#61=FACE_OUTER_BOUND('',#83,.T.);
#62=FACE_OUTER_BOUND('',#84,.T.);
#63=FACE_OUTER_BOUND('',#85,.T.);
#64=FACE_OUTER_BOUND('',#86,.T.);
#65=FACE_OUTER_BOUND('',#87,.T.);
#66=FACE_OUTER_BOUND('',#89,.T.);
#67=EDGE_LOOP('',(#225,#226,#227,#228));
#68=EDGE_LOOP('',(#229,#230,#231));
#69=EDGE_LOOP('',(#232,#233));
#70=EDGE_LOOP('',(#234,#235,#236,#237,#238,#239,#240,#241));
#71=EDGE_LOOP('',(#242));
#72=EDGE_LOOP('',(#243,#244,#245,#246));
#73=EDGE_LOOP('',(#247,#248,#249,#250));
#74=EDGE_LOOP('',(#251,#252,#253,#254));
#75=EDGE_LOOP('',(#255,#256,#257,#258));
#76=EDGE_LOOP('',(#259,#260,#261,#262));
#77=EDGE_LOOP('',(#263,#264,#265,#266,#267,#268));
#78=EDGE_LOOP('',(#269,#270,#271,#272,#273));
#79=EDGE_LOOP('',(#274,#275,#276,#277,#278,#279));
#80=EDGE_LOOP('',(#280,#281,#282,#283));
#81=EDGE_LOOP('',(#284,#285,#286,#287));
#82=EDGE_LOOP('',(#288,#289,#290,#291));
#83=EDGE_LOOP('',(#292,#293,#294,#295,#296));
#84=EDGE_LOOP('',(#297,#298));
#85=EDGE_LOOP('',(#299,#300));
#86=EDGE_LOOP('',(#301,#302,#303,#304,#305,#306,#307,#308,#309,#310,#311,
#312));
#87=EDGE_LOOP('',(#313));
#88=EDGE_LOOP('',(#314));
#89=EDGE_LOOP('',(#315,#316,#317,#318,#319,#320));
#90=LINE('',#533,#118);
#91=LINE('',#535,#119);
#92=LINE('',#537,#120);
#93=LINE('',#538,#121);
#94=LINE('',#548,#122);
#95=LINE('',#555,#123);
#96=LINE('',#558,#124);
#97=LINE('',#561,#125);
#98=LINE('',#563,#126);
#99=LINE('',#564,#127);
#100=LINE('',#570,#128);
#101=LINE('',#573,#129);
#102=LINE('',#576,#130);
#103=LINE('',#578,#131);
#104=LINE('',#579,#132);
#105=LINE('',#581,#133);
#106=LINE('',#582,#134);
#107=LINE('',#592,#135);
#108=LINE('',#597,#136);
#109=LINE('',#601,#137);
#110=LINE('',#603,#138);
#111=LINE('',#605,#139);
#112=LINE('',#606,#140);
#113=LINE('',#610,#141);
#114=LINE('',#612,#142);
#115=LINE('',#614,#143);
#116=LINE('',#615,#144);
#117=LINE('',#628,#145);
#118=VECTOR('',#419,10.);
#119=VECTOR('',#420,10.);
#120=VECTOR('',#421,10.);
#121=VECTOR('',#422,10.);
#122=VECTOR('',#437,3.);
#123=VECTOR('',#444,10.);
#124=VECTOR('',#447,10.);
#125=VECTOR('',#450,10.);
#126=VECTOR('',#451,10.);
#127=VECTOR('',#452,10.);
#128=VECTOR('',#457,10.);
#129=VECTOR('',#460,10.);
#130=VECTOR('',#463,10.);
#131=VECTOR('',#464,10.);
#132=VECTOR('',#465,10.);
#133=VECTOR('',#468,10.);
#134=VECTOR('',#469,10.);
#135=VECTOR('',#484,8.25);
#136=VECTOR('',#491,6.5);
#137=VECTOR('',#494,10.);
#138=VECTOR('',#495,10.);
#139=VECTOR('',#496,10.);
#140=VECTOR('',#497,10.);
#141=VECTOR('',#500,10.);
#142=VECTOR('',#501,10.);
#143=VECTOR('',#502,10.);
#144=VECTOR('',#503,10.);
#145=VECTOR('',#524,3.50000005215406);
#146=VERTEX_POINT('',#531);
#147=VERTEX_POINT('',#532);
#148=VERTEX_POINT('',#534);
#149=VERTEX_POINT('',#536);
#150=VERTEX_POINT('',#540);
#151=VERTEX_POINT('',#546);
#152=VERTEX_POINT('',#551);
#153=VERTEX_POINT('',#552);
#154=VERTEX_POINT('',#554);
#155=VERTEX_POINT('',#556);
#156=VERTEX_POINT('',#560);
#157=VERTEX_POINT('',#562);
#158=VERTEX_POINT('',#566);
#159=VERTEX_POINT('',#567);
#160=VERTEX_POINT('',#569);
#161=VERTEX_POINT('',#571);
#162=VERTEX_POINT('',#575);
#163=VERTEX_POINT('',#577);
#164=VERTEX_POINT('',#586);
#165=VERTEX_POINT('',#591);
#166=VERTEX_POINT('',#595);
#167=VERTEX_POINT('',#599);
#168=VERTEX_POINT('',#600);
#169=VERTEX_POINT('',#602);
#170=VERTEX_POINT('',#604);
#171=VERTEX_POINT('',#608);
#172=VERTEX_POINT('',#609);
#173=VERTEX_POINT('',#611);
#174=VERTEX_POINT('',#613);
#175=VERTEX_POINT('',#617);
#176=VERTEX_POINT('',#626);
#177=EDGE_CURVE('',#146,#147,#90,.T.);
#178=EDGE_CURVE('',#146,#148,#91,.T.);
#179=EDGE_CURVE('',#149,#148,#92,.T.);
#180=EDGE_CURVE('',#147,#149,#93,.T.);
#181=EDGE_CURVE('',#148,#150,#25,.T.);
#182=EDGE_CURVE('',#150,#149,#26,.T.);
#183=EDGE_CURVE('',#147,#146,#27,.T.);
#184=EDGE_CURVE('',#151,#151,#28,.T.);
#185=EDGE_CURVE('',#151,#150,#94,.T.);
#186=EDGE_CURVE('',#152,#153,#29,.T.);
#187=EDGE_CURVE('',#153,#154,#95,.T.);
#188=EDGE_CURVE('',#154,#155,#30,.T.);
#189=EDGE_CURVE('',#155,#152,#96,.T.);
#190=EDGE_CURVE('',#155,#156,#97,.T.);
#191=EDGE_CURVE('',#156,#157,#98,.T.);
#192=EDGE_CURVE('',#152,#157,#99,.T.);
#193=EDGE_CURVE('',#158,#159,#31,.F.);
#194=EDGE_CURVE('',#158,#160,#100,.T.);
#195=EDGE_CURVE('',#160,#161,#32,.T.);
#196=EDGE_CURVE('',#161,#159,#101,.T.);
#197=EDGE_CURVE('',#162,#158,#102,.T.);
#198=EDGE_CURVE('',#163,#162,#103,.T.);
#199=EDGE_CURVE('',#163,#160,#104,.T.);
#200=EDGE_CURVE('',#156,#163,#105,.T.);
#201=EDGE_CURVE('',#157,#162,#106,.T.);
#202=EDGE_CURVE('',#153,#159,#33,.T.);
#203=EDGE_CURVE('',#164,#153,#34,.T.);
#204=EDGE_CURVE('',#159,#164,#35,.T.);
#205=EDGE_CURVE('',#161,#154,#36,.T.);
#206=EDGE_CURVE('',#164,#165,#107,.T.);
#207=EDGE_CURVE('',#165,#165,#37,.T.);
#208=EDGE_CURVE('',#166,#166,#38,.T.);
#209=EDGE_CURVE('',#166,#165,#108,.T.);
#210=EDGE_CURVE('',#167,#168,#109,.T.);
#211=EDGE_CURVE('',#169,#167,#110,.T.);
#212=EDGE_CURVE('',#170,#169,#111,.T.);
#213=EDGE_CURVE('',#168,#170,#112,.T.);
#214=EDGE_CURVE('',#171,#172,#113,.T.);
#215=EDGE_CURVE('',#173,#171,#114,.T.);
#216=EDGE_CURVE('',#174,#173,#115,.T.);
#217=EDGE_CURVE('',#172,#174,#116,.T.);
#218=EDGE_CURVE('',#174,#175,#39,.T.);
#219=EDGE_CURVE('',#170,#173,#40,.T.);
#220=EDGE_CURVE('',#175,#169,#41,.T.);
#221=EDGE_CURVE('',#172,#171,#42,.T.);
#222=EDGE_CURVE('',#168,#167,#43,.T.);
#223=EDGE_CURVE('',#176,#176,#44,.T.);
#224=EDGE_CURVE('',#176,#175,#117,.T.);
#225=ORIENTED_EDGE('',*,*,#177,.F.);
#226=ORIENTED_EDGE('',*,*,#178,.T.);
#227=ORIENTED_EDGE('',*,*,#179,.F.);
#228=ORIENTED_EDGE('',*,*,#180,.F.);
#229=ORIENTED_EDGE('',*,*,#179,.T.);
#230=ORIENTED_EDGE('',*,*,#181,.T.);
#231=ORIENTED_EDGE('',*,*,#182,.T.);
#232=ORIENTED_EDGE('',*,*,#177,.T.);
#233=ORIENTED_EDGE('',*,*,#183,.T.);
#234=ORIENTED_EDGE('',*,*,#184,.F.);
#235=ORIENTED_EDGE('',*,*,#185,.T.);
#236=ORIENTED_EDGE('',*,*,#181,.F.);
#237=ORIENTED_EDGE('',*,*,#178,.F.);
#238=ORIENTED_EDGE('',*,*,#183,.F.);
#239=ORIENTED_EDGE('',*,*,#180,.T.);
#240=ORIENTED_EDGE('',*,*,#182,.F.);
#241=ORIENTED_EDGE('',*,*,#185,.F.);
#242=ORIENTED_EDGE('',*,*,#184,.T.);
#243=ORIENTED_EDGE('',*,*,#186,.T.);
#244=ORIENTED_EDGE('',*,*,#187,.T.);
#245=ORIENTED_EDGE('',*,*,#188,.T.);
#246=ORIENTED_EDGE('',*,*,#189,.T.);
#247=ORIENTED_EDGE('',*,*,#189,.F.);
#248=ORIENTED_EDGE('',*,*,#190,.T.);
#249=ORIENTED_EDGE('',*,*,#191,.T.);
#250=ORIENTED_EDGE('',*,*,#192,.F.);
#251=ORIENTED_EDGE('',*,*,#193,.F.);
#252=ORIENTED_EDGE('',*,*,#194,.T.);
#253=ORIENTED_EDGE('',*,*,#195,.T.);
#254=ORIENTED_EDGE('',*,*,#196,.T.);
#255=ORIENTED_EDGE('',*,*,#194,.F.);
#256=ORIENTED_EDGE('',*,*,#197,.F.);
#257=ORIENTED_EDGE('',*,*,#198,.F.);
#258=ORIENTED_EDGE('',*,*,#199,.T.);
#259=ORIENTED_EDGE('',*,*,#200,.T.);
#260=ORIENTED_EDGE('',*,*,#198,.T.);
#261=ORIENTED_EDGE('',*,*,#201,.F.);
#262=ORIENTED_EDGE('',*,*,#191,.F.);
#263=ORIENTED_EDGE('',*,*,#201,.T.);
#264=ORIENTED_EDGE('',*,*,#197,.T.);
#265=ORIENTED_EDGE('',*,*,#193,.T.);
#266=ORIENTED_EDGE('',*,*,#202,.F.);
#267=ORIENTED_EDGE('',*,*,#186,.F.);
#268=ORIENTED_EDGE('',*,*,#192,.T.);
#269=ORIENTED_EDGE('',*,*,#187,.F.);
#270=ORIENTED_EDGE('',*,*,#203,.F.);
#271=ORIENTED_EDGE('',*,*,#204,.F.);
#272=ORIENTED_EDGE('',*,*,#196,.F.);
#273=ORIENTED_EDGE('',*,*,#205,.T.);
#274=ORIENTED_EDGE('',*,*,#202,.T.);
#275=ORIENTED_EDGE('',*,*,#204,.T.);
#276=ORIENTED_EDGE('',*,*,#206,.T.);
#277=ORIENTED_EDGE('',*,*,#207,.T.);
#278=ORIENTED_EDGE('',*,*,#206,.F.);
#279=ORIENTED_EDGE('',*,*,#203,.T.);
#280=ORIENTED_EDGE('',*,*,#208,.F.);
#281=ORIENTED_EDGE('',*,*,#209,.T.);
#282=ORIENTED_EDGE('',*,*,#207,.F.);
#283=ORIENTED_EDGE('',*,*,#209,.F.);
#284=ORIENTED_EDGE('',*,*,#210,.F.);
#285=ORIENTED_EDGE('',*,*,#211,.F.);
#286=ORIENTED_EDGE('',*,*,#212,.F.);
#287=ORIENTED_EDGE('',*,*,#213,.F.);
#288=ORIENTED_EDGE('',*,*,#214,.F.);
#289=ORIENTED_EDGE('',*,*,#215,.F.);
#290=ORIENTED_EDGE('',*,*,#216,.F.);
#291=ORIENTED_EDGE('',*,*,#217,.F.);
#292=ORIENTED_EDGE('',*,*,#218,.F.);
#293=ORIENTED_EDGE('',*,*,#216,.T.);
#294=ORIENTED_EDGE('',*,*,#219,.F.);
#295=ORIENTED_EDGE('',*,*,#212,.T.);
#296=ORIENTED_EDGE('',*,*,#220,.F.);
#297=ORIENTED_EDGE('',*,*,#214,.T.);
#298=ORIENTED_EDGE('',*,*,#221,.T.);
#299=ORIENTED_EDGE('',*,*,#210,.T.);
#300=ORIENTED_EDGE('',*,*,#222,.T.);
#301=ORIENTED_EDGE('',*,*,#223,.F.);
#302=ORIENTED_EDGE('',*,*,#224,.T.);
#303=ORIENTED_EDGE('',*,*,#220,.T.);
#304=ORIENTED_EDGE('',*,*,#211,.T.);
#305=ORIENTED_EDGE('',*,*,#222,.F.);
#306=ORIENTED_EDGE('',*,*,#213,.T.);
#307=ORIENTED_EDGE('',*,*,#219,.T.);
#308=ORIENTED_EDGE('',*,*,#215,.T.);
#309=ORIENTED_EDGE('',*,*,#221,.F.);
#310=ORIENTED_EDGE('',*,*,#217,.T.);
#311=ORIENTED_EDGE('',*,*,#218,.T.);
#312=ORIENTED_EDGE('',*,*,#224,.F.);
#313=ORIENTED_EDGE('',*,*,#208,.T.);
#314=ORIENTED_EDGE('',*,*,#223,.T.);
#315=ORIENTED_EDGE('',*,*,#195,.F.);
#316=ORIENTED_EDGE('',*,*,#199,.F.);
#317=ORIENTED_EDGE('',*,*,#200,.F.);
#318=ORIENTED_EDGE('',*,*,#190,.F.);
#319=ORIENTED_EDGE('',*,*,#188,.F.);
#320=ORIENTED_EDGE('',*,*,#205,.F.);
#321=PLANE('',#373);
#322=PLANE('',#374);
#323=PLANE('',#377);
#324=PLANE('',#381);
#325=PLANE('',#385);
#326=PLANE('',#389);
#327=PLANE('',#390);
#328=PLANE('',#391);
#329=PLANE('',#401);
#330=PLANE('',#402);
#331=PLANE('',#403);
#332=PLANE('',#407);
#333=PLANE('',#409);
#334=PLANE('',#413);
#335=PLANE('',#414);
#336=ADVANCED_FACE('',(#45),#321,.T.);
#337=ADVANCED_FACE('',(#46),#322,.T.);
#338=ADVANCED_FACE('',(#47),#323,.T.);
#339=ADVANCED_FACE('',(#48),#19,.T.);
#340=ADVANCED_FACE('',(#49),#324,.F.);
#341=ADVANCED_FACE('',(#50),#20,.F.);
#342=ADVANCED_FACE('',(#51),#325,.T.);
#343=ADVANCED_FACE('',(#52),#21,.F.);
#344=ADVANCED_FACE('',(#53),#326,.T.);
#345=ADVANCED_FACE('',(#54),#327,.T.);
#346=ADVANCED_FACE('',(#55),#328,.F.);
#347=ADVANCED_FACE('',(#56),#22,.T.);
#348=ADVANCED_FACE('',(#57),#14,.T.);
#349=ADVANCED_FACE('',(#58),#23,.T.);
#350=ADVANCED_FACE('',(#59),#329,.T.);
#351=ADVANCED_FACE('',(#60),#330,.T.);
#352=ADVANCED_FACE('',(#61),#331,.T.);
#353=ADVANCED_FACE('',(#62),#332,.T.);
#354=ADVANCED_FACE('',(#63),#333,.T.);
#355=ADVANCED_FACE('',(#64),#24,.F.);
#356=ADVANCED_FACE('',(#65,#13),#334,.T.);
#357=ADVANCED_FACE('',(#66),#335,.F.);
#358=CLOSED_SHELL('',(#336,#337,#338,#339,#340));
#359=CLOSED_SHELL('',(#341,#342,#343,#344,#345,#346,#347,#348,#349,#350,
#351,#352,#353,#354,#355,#356,#357));
#360=DERIVED_UNIT_ELEMENT(#362,1.);
#361=DERIVED_UNIT_ELEMENT(#636,-3.);
#362=(
MASS_UNIT()
NAMED_UNIT(*)
SI_UNIT(.KILO.,.GRAM.)
);
#363=DERIVED_UNIT((#360,#361));
#364=MEASURE_REPRESENTATION_ITEM('density measure',
POSITIVE_RATIO_MEASURE(7850.),#363);
#365=PROPERTY_DEFINITION_REPRESENTATION(#370,#367);
#366=PROPERTY_DEFINITION_REPRESENTATION(#371,#368);
#367=REPRESENTATION('material name',(#369),#633);
#368=REPRESENTATION('density',(#364),#633);
#369=DESCRIPTIVE_REPRESENTATION_ITEM('Steel','Steel');
#370=PROPERTY_DEFINITION('material property','material name',#643);
#371=PROPERTY_DEFINITION('material property','density of part',#643);
#372=AXIS2_PLACEMENT_3D('',#529,#415,#416);
#373=AXIS2_PLACEMENT_3D('',#530,#417,#418);
#374=AXIS2_PLACEMENT_3D('',#539,#423,#424);
#375=AXIS2_PLACEMENT_3D('',#541,#425,#426);
#376=AXIS2_PLACEMENT_3D('',#542,#427,#428);
#377=AXIS2_PLACEMENT_3D('',#543,#429,#430);
#378=AXIS2_PLACEMENT_3D('',#544,#431,#432);
#379=AXIS2_PLACEMENT_3D('',#545,#433,#434);
#380=AXIS2_PLACEMENT_3D('',#547,#435,#436);
#381=AXIS2_PLACEMENT_3D('',#549,#438,#439);
#382=AXIS2_PLACEMENT_3D('',#550,#440,#441);
#383=AXIS2_PLACEMENT_3D('',#553,#442,#443);
#384=AXIS2_PLACEMENT_3D('',#557,#445,#446);
#385=AXIS2_PLACEMENT_3D('',#559,#448,#449);
#386=AXIS2_PLACEMENT_3D('',#565,#453,#454);
#387=AXIS2_PLACEMENT_3D('',#568,#455,#456);
#388=AXIS2_PLACEMENT_3D('',#572,#458,#459);
#389=AXIS2_PLACEMENT_3D('',#574,#461,#462);
#390=AXIS2_PLACEMENT_3D('',#580,#466,#467);
#391=AXIS2_PLACEMENT_3D('',#583,#470,#471);
#392=AXIS2_PLACEMENT_3D('',#584,#472,#473);
#393=AXIS2_PLACEMENT_3D('',#585,#474,#475);
#394=AXIS2_PLACEMENT_3D('',#587,#476,#477);
#395=AXIS2_PLACEMENT_3D('',#588,#478,#479);
#396=AXIS2_PLACEMENT_3D('',#589,#480,#481);
#397=AXIS2_PLACEMENT_3D('',#590,#482,#483);
#398=AXIS2_PLACEMENT_3D('',#593,#485,#486);
#399=AXIS2_PLACEMENT_3D('',#594,#487,#488);
#400=AXIS2_PLACEMENT_3D('',#596,#489,#490);
#401=AXIS2_PLACEMENT_3D('',#598,#492,#493);
#402=AXIS2_PLACEMENT_3D('',#607,#498,#499);
#403=AXIS2_PLACEMENT_3D('',#616,#504,#505);
#404=AXIS2_PLACEMENT_3D('',#618,#506,#507);
#405=AXIS2_PLACEMENT_3D('',#619,#508,#509);
#406=AXIS2_PLACEMENT_3D('',#620,#510,#511);
#407=AXIS2_PLACEMENT_3D('',#621,#512,#513);
#408=AXIS2_PLACEMENT_3D('',#622,#514,#515);
#409=AXIS2_PLACEMENT_3D('',#623,#516,#517);
#410=AXIS2_PLACEMENT_3D('',#624,#518,#519);
#411=AXIS2_PLACEMENT_3D('',#625,#520,#521);
#412=AXIS2_PLACEMENT_3D('',#627,#522,#523);
#413=AXIS2_PLACEMENT_3D('',#629,#525,#526);
#414=AXIS2_PLACEMENT_3D('',#630,#527,#528);
#415=DIRECTION('axis',(0.,0.,1.));
#416=DIRECTION('refdir',(1.,0.,0.));
#417=DIRECTION('center_axis',(-1.00356312502567E-16,0.,1.));
#418=DIRECTION('ref_axis',(1.,0.,1.00356312502567E-16));
#419=DIRECTION('',(-1.,0.,-1.00356312502567E-16));
#420=DIRECTION('',(0.,1.,0.));
#421=DIRECTION('',(1.,0.,1.00356312502567E-16));
#422=DIRECTION('',(0.,1.,0.));
#423=DIRECTION('center_axis',(0.,1.,0.));
#424=DIRECTION('ref_axis',(1.,0.,0.));
#425=DIRECTION('center_axis',(0.,1.,0.));
#426=DIRECTION('ref_axis',(1.,0.,0.));
#427=DIRECTION('center_axis',(0.,1.,0.));
#428=DIRECTION('ref_axis',(1.,0.,0.));
#429=DIRECTION('center_axis',(0.,1.,0.));
#430=DIRECTION('ref_axis',(1.,0.,0.));
#431=DIRECTION('center_axis',(0.,1.,0.));
#432=DIRECTION('ref_axis',(1.,0.,0.));
#433=DIRECTION('center_axis',(0.,-1.,0.));
#434=DIRECTION('ref_axis',(1.,0.,0.));
#435=DIRECTION('center_axis',(0.,-1.,0.));
#436=DIRECTION('ref_axis',(1.,0.,0.));
#437=DIRECTION('',(0.,1.,0.));
#438=DIRECTION('center_axis',(0.,1.,0.));
#439=DIRECTION('ref_axis',(1.,0.,0.));
#440=DIRECTION('center_axis',(0.,-1.,0.));
#441=DIRECTION('ref_axis',(0.780189498020699,0.,0.625543241653372));
#442=DIRECTION('center_axis',(0.,-1.,0.));
#443=DIRECTION('ref_axis',(0.780189498020699,0.,0.625543241653372));
#444=DIRECTION('',(0.,1.,0.));
#445=DIRECTION('center_axis',(0.,1.,0.));
#446=DIRECTION('ref_axis',(0.780189498020699,0.,0.625543241653372));
#447=DIRECTION('',(0.,-1.,0.));
#448=DIRECTION('center_axis',(-1.,0.,0.));
#449=DIRECTION('ref_axis',(0.,0.,-1.));
#450=DIRECTION('',(0.,0.,-1.));
#451=DIRECTION('',(0.,-1.,0.));
#452=DIRECTION('',(0.,0.,-1.));
#453=DIRECTION('center_axis',(0.,1.,0.));
#454=DIRECTION('ref_axis',(-0.780189498020699,0.,0.625543241653372));
#455=DIRECTION('center_axis',(0.,-1.,0.));
#456=DIRECTION('ref_axis',(-0.780189498020699,0.,0.625543241653372));
#457=DIRECTION('',(0.,1.,0.));
#458=DIRECTION('center_axis',(0.,1.,0.));
#459=DIRECTION('ref_axis',(-0.780189498020699,0.,0.625543241653372));
#460=DIRECTION('',(0.,-1.,0.));
#461=DIRECTION('center_axis',(1.,0.,0.));
#462=DIRECTION('ref_axis',(0.,0.,1.));
#463=DIRECTION('',(0.,0.,1.));
#464=DIRECTION('',(0.,-1.,0.));
#465=DIRECTION('',(0.,0.,1.));
#466=DIRECTION('center_axis',(0.,0.,-1.));
#467=DIRECTION('ref_axis',(1.,0.,0.));
#468=DIRECTION('',(1.,0.,0.));
#469=DIRECTION('',(1.,0.,0.));
#470=DIRECTION('center_axis',(0.,1.,0.));
#471=DIRECTION('ref_axis',(-1.,0.,0.));
#472=DIRECTION('center_axis',(0.,-1.,0.));
#473=DIRECTION('ref_axis',(1.,0.,0.));
#474=DIRECTION('center_axis',(0.,-1.,0.));
#475=DIRECTION('ref_axis',(-1.83697019872103E-16,0.,1.));
#476=DIRECTION('center_axis',(0.,-1.,0.));
#477=DIRECTION('ref_axis',(1.,0.,0.));
#478=DIRECTION('center_axis',(0.,-1.,0.));
#479=DIRECTION('ref_axis',(1.,0.,0.));
#480=DIRECTION('center_axis',(0.,-1.,0.));
#481=DIRECTION('ref_axis',(1.,0.,0.));
#482=DIRECTION('center_axis',(0.,1.,0.));
#483=DIRECTION('ref_axis',(1.,0.,0.));
#484=DIRECTION('',(0.707106781186547,-0.707106781186547,-8.65956056235493E-17));
#485=DIRECTION('center_axis',(0.,1.,0.));
#486=DIRECTION('ref_axis',(1.,0.,0.));
#487=DIRECTION('center_axis',(0.,-1.,0.));
#488=DIRECTION('ref_axis',(1.,0.,0.));
#489=DIRECTION('center_axis',(0.,-1.,0.));
#490=DIRECTION('ref_axis',(1.,0.,0.));
#491=DIRECTION('',(0.,1.,0.));
#492=DIRECTION('center_axis',(0.,0.,1.));
#493=DIRECTION('ref_axis',(-1.,0.,0.));
#494=DIRECTION('',(1.,0.,0.));
#495=DIRECTION('',(0.,1.,0.));
#496=DIRECTION('',(-1.,0.,0.));
#497=DIRECTION('',(0.,-1.,0.));
#498=DIRECTION('center_axis',(0.,0.,-1.));
#499=DIRECTION('ref_axis',(1.,0.,0.));
#500=DIRECTION('',(-1.,0.,0.));
#501=DIRECTION('',(0.,1.,0.));
#502=DIRECTION('',(1.,0.,0.));
#503=DIRECTION('',(0.,-1.,0.));
#504=DIRECTION('center_axis',(0.,-1.,0.));
#505=DIRECTION('ref_axis',(1.,0.,0.));
#506=DIRECTION('center_axis',(0.,1.,0.));
#507=DIRECTION('ref_axis',(1.,0.,0.));
#508=DIRECTION('center_axis',(0.,1.,0.));
#509=DIRECTION('ref_axis',(1.,0.,0.));
#510=DIRECTION('center_axis',(0.,1.,0.));
#511=DIRECTION('ref_axis',(1.,0.,0.));
#512=DIRECTION('center_axis',(0.,-1.,0.));
#513=DIRECTION('ref_axis',(1.,0.,0.));
#514=DIRECTION('center_axis',(0.,-1.,0.));
#515=DIRECTION('ref_axis',(1.,0.,0.));
#516=DIRECTION('center_axis',(0.,-1.,0.));
#517=DIRECTION('ref_axis',(1.,0.,0.));
#518=DIRECTION('center_axis',(0.,-1.,0.));
#519=DIRECTION('ref_axis',(1.,0.,0.));
#520=DIRECTION('center_axis',(0.,-1.,0.));
#521=DIRECTION('ref_axis',(1.,0.,0.));
#522=DIRECTION('center_axis',(0.,1.,0.));
#523=DIRECTION('ref_axis',(1.,0.,0.));
#524=DIRECTION('',(0.,1.,0.));
#525=DIRECTION('center_axis',(0.,-1.,0.));
#526=DIRECTION('ref_axis',(1.,0.,0.));
#527=DIRECTION('center_axis',(0.,-1.,0.));
#528=DIRECTION('ref_axis',(1.,0.,0.));
#529=CARTESIAN_POINT('',(0.,0.,0.));
#530=CARTESIAN_POINT('Origin',(-2.75768808155295,0.,1.1811674076391));
#531=CARTESIAN_POINT('',(2.75768808155295,0.,1.1811674076391));
#532=CARTESIAN_POINT('',(-2.75768808155295,0.,1.1811674076391));
#533=CARTESIAN_POINT('',(-1.37884404077648,0.,1.1811674076391));
#534=CARTESIAN_POINT('',(2.75768808155295,10.,1.1811674076391));
#535=CARTESIAN_POINT('',(2.75768808155295,0.,1.1811674076391));
#536=CARTESIAN_POINT('',(-2.75768808155295,10.,1.1811674076391));
#537=CARTESIAN_POINT('',(-0.00801493438030475,10.,1.1811674076391));
#538=CARTESIAN_POINT('',(-2.75768808155295,0.,1.1811674076391));
#539=CARTESIAN_POINT('Origin',(0.,10.,-0.909416296180451));
#540=CARTESIAN_POINT('',(-3.,10.,-3.67394039744206E-16));
#541=CARTESIAN_POINT('Origin',(0.,10.,0.));
#542=CARTESIAN_POINT('Origin',(0.,10.,0.));
#543=CARTESIAN_POINT('Origin',(0.,0.,0.));
#544=CARTESIAN_POINT('Origin',(0.,0.,0.));
#545=CARTESIAN_POINT('Origin',(0.,0.,0.));
#546=CARTESIAN_POINT('',(-3.,-2.,3.67394039744206E-16));
#547=CARTESIAN_POINT('Origin',(0.,-2.,0.));
#548=CARTESIAN_POINT('',(-3.,0.,-3.67394039744206E-16));
#549=CARTESIAN_POINT('Origin',(0.,-2.,0.));
#550=CARTESIAN_POINT('Origin',(-2.50000001490116,-2.,-11.2249721570031));
#551=CARTESIAN_POINT('',(-1.00000001490116,-4.,-11.2249721570031));
#552=CARTESIAN_POINT('',(-2.17391305643579,-4.,-9.76084535391571));
#553=CARTESIAN_POINT('Origin',(-2.50000001490116,-4.,-11.2249721570031));
#554=CARTESIAN_POINT('',(-2.17391305643579,-2.,-9.76084535391571));
#555=CARTESIAN_POINT('',(-2.17391305643579,-2.,-9.76084535391571));
#556=CARTESIAN_POINT('',(-1.00000001490116,-2.,-11.2249721570031));
#557=CARTESIAN_POINT('Origin',(-2.50000001490116,-2.,-11.2249721570031));
#558=CARTESIAN_POINT('',(-1.00000001490116,-2.,-11.2249721570031));
#559=CARTESIAN_POINT('Origin',(-1.00000001490116,-2.,-9.94987436956858));
#560=CARTESIAN_POINT('',(-1.00000001490116,-2.,-13.5000002011657));
#561=CARTESIAN_POINT('',(-1.00000001490116,-2.,-9.50000014156103));
#562=CARTESIAN_POINT('',(-1.00000001490116,-4.,-13.5000002011657));
#563=CARTESIAN_POINT('',(-1.00000001490116,-2.,-13.5000002011657));
#564=CARTESIAN_POINT('',(-1.00000001490116,-4.,-9.50000014156103));
#565=CARTESIAN_POINT('Origin',(2.50000001490116,-2.,-11.2249721570031));
#566=CARTESIAN_POINT('',(1.00000001490116,-4.,-11.2249721570031));
#567=CARTESIAN_POINT('',(2.17391305643579,-4.,-9.76084535391571));
#568=CARTESIAN_POINT('Origin',(2.50000001490116,-4.,-11.2249721570031));
#569=CARTESIAN_POINT('',(1.00000001490116,-2.,-11.2249721570031));
#570=CARTESIAN_POINT('',(1.00000001490116,-2.,-11.2249721570031));
#571=CARTESIAN_POINT('',(2.17391305643579,-2.,-9.76084535391571));
#572=CARTESIAN_POINT('Origin',(2.50000001490116,-2.,-11.2249721570031));
#573=CARTESIAN_POINT('',(2.17391305643579,-2.,-9.76084535391571));
#574=CARTESIAN_POINT('Origin',(1.00000001490116,-2.,-13.5000002011657));
#575=CARTESIAN_POINT('',(1.00000001490116,-4.,-13.5000002011657));
#576=CARTESIAN_POINT('',(1.00000001490116,-4.,-13.5000002011657));
#577=CARTESIAN_POINT('',(1.00000001490116,-2.,-13.5000002011657));
#578=CARTESIAN_POINT('',(1.00000001490116,-2.,-13.5000002011657));
#579=CARTESIAN_POINT('',(1.00000001490116,-2.,-13.5000002011657));
#580=CARTESIAN_POINT('Origin',(-1.00000001490116,-2.,-13.5000002011657));
#581=CARTESIAN_POINT('',(-1.00000001490116,-2.,-13.5000002011657));
#582=CARTESIAN_POINT('',(-1.00000001490116,-4.,-13.5000002011657));
#583=CARTESIAN_POINT('Origin',(-4.16333634234434E-16,-4.,-11.7249372853671));
#584=CARTESIAN_POINT('Origin',(0.,-4.,0.));
#585=CARTESIAN_POINT('Origin',(0.,-2.,0.));
#586=CARTESIAN_POINT('',(-10.,-4.,1.22464679914735E-15));
#587=CARTESIAN_POINT('Origin',(0.,-4.,0.));
#588=CARTESIAN_POINT('Origin',(0.,-4.,0.));
#589=CARTESIAN_POINT('Origin',(0.,-2.,0.));
#590=CARTESIAN_POINT('Origin',(0.,-5.75,0.));
#591=CARTESIAN_POINT('',(-6.5,-7.5,7.9602041944578E-16));
#592=CARTESIAN_POINT('',(-8.25,-5.75,1.01033360929657E-15));
#593=CARTESIAN_POINT('Origin',(0.,-7.5,0.));
#594=CARTESIAN_POINT('Origin',(0.,-4.,0.));
#595=CARTESIAN_POINT('',(-6.5,-14.,-7.9602041944578E-16));
#596=CARTESIAN_POINT('Origin',(0.,-14.,0.));
#597=CARTESIAN_POINT('',(-6.5,-4.,-7.9602041944578E-16));
#598=CARTESIAN_POINT('Origin',(3.46410166783229,-4.,0.5));
#599=CARTESIAN_POINT('',(-3.46410166783229,-4.,0.5));
#600=CARTESIAN_POINT('',(3.46410166783229,-4.,0.5));
#601=CARTESIAN_POINT('',(1.73205083391615,-4.,0.5));
#602=CARTESIAN_POINT('',(-3.46410166783229,-5.5,0.5));
#603=CARTESIAN_POINT('',(-3.46410166783229,-4.,0.5));
#604=CARTESIAN_POINT('',(3.46410166783229,-5.5,0.5));
#605=CARTESIAN_POINT('',(3.5,-5.5,0.5));
#606=CARTESIAN_POINT('',(3.46410166783229,-4.,0.5));
#607=CARTESIAN_POINT('Origin',(-3.46410166783229,-4.,-0.5));
#608=CARTESIAN_POINT('',(3.46410166783229,-4.,-0.5));
#609=CARTESIAN_POINT('',(-3.46410166783229,-4.,-0.5));
#610=CARTESIAN_POINT('',(-1.73205083391615,-4.,-0.5));
#611=CARTESIAN_POINT('',(3.46410166783229,-5.5,-0.5));
#612=CARTESIAN_POINT('',(3.46410166783229,-4.,-0.5));
#613=CARTESIAN_POINT('',(-3.46410166783229,-5.5,-0.5));
#614=CARTESIAN_POINT('',(-3.5,-5.5,-0.5));
#615=CARTESIAN_POINT('',(-3.46410166783229,-4.,-0.5));
#616=CARTESIAN_POINT('Origin',(0.,-5.5,2.08166817117217E-16));
#617=CARTESIAN_POINT('',(-3.50000005215406,-5.5,-4.28626386088604E-16));
#618=CARTESIAN_POINT('Origin',(0.,-5.5,0.));
#619=CARTESIAN_POINT('Origin',(0.,-5.5,0.));
#620=CARTESIAN_POINT('Origin',(0.,-5.5,0.));
#621=CARTESIAN_POINT('Origin',(0.,-4.,0.));
#622=CARTESIAN_POINT('Origin',(0.,-4.,0.));
#623=CARTESIAN_POINT('Origin',(0.,-4.,0.));
#624=CARTESIAN_POINT('Origin',(0.,-4.,0.));
#625=CARTESIAN_POINT('Origin',(0.,-4.,0.));
#626=CARTESIAN_POINT('',(-3.50000005215406,-14.,-4.28626386088604E-16));
#627=CARTESIAN_POINT('Origin',(0.,-14.,0.));
#628=CARTESIAN_POINT('',(-3.50000005215406,-4.,-4.28626386088604E-16));
#629=CARTESIAN_POINT('Origin',(0.,-14.,0.));
#630=CARTESIAN_POINT('Origin',(0.,-2.,0.));
#631=UNCERTAINTY_MEASURE_WITH_UNIT(LENGTH_MEASURE(0.01),#635,
'DISTANCE_ACCURACY_VALUE',
'Maximum model space distance between geometric entities at asserted c
onnectivities');
#632=UNCERTAINTY_MEASURE_WITH_UNIT(LENGTH_MEASURE(0.01),#635,
'DISTANCE_ACCURACY_VALUE',
'Maximum model space distance between geometric entities at asserted c
onnectivities');
#633=(
GEOMETRIC_REPRESENTATION_CONTEXT(3)
GLOBAL_UNCERTAINTY_ASSIGNED_CONTEXT((#631))
GLOBAL_UNIT_ASSIGNED_CONTEXT((#635,#637,#638))
REPRESENTATION_CONTEXT('','3D')
);
#634=(
GEOMETRIC_REPRESENTATION_CONTEXT(3)
GLOBAL_UNCERTAINTY_ASSIGNED_CONTEXT((#632))
GLOBAL_UNIT_ASSIGNED_CONTEXT((#635,#637,#638))
REPRESENTATION_CONTEXT('','3D')
);
#635=(
LENGTH_UNIT()
NAMED_UNIT(*)
SI_UNIT(.MILLI.,.METRE.)
);
#636=(
LENGTH_UNIT()
NAMED_UNIT(*)
SI_UNIT($,.METRE.)
);
#637=(
NAMED_UNIT(*)
PLANE_ANGLE_UNIT()
SI_UNIT($,.RADIAN.)
);
#638=(
NAMED_UNIT(*)
SI_UNIT($,.STERADIAN.)
SOLID_ANGLE_UNIT()
);
#639=SHAPE_DEFINITION_REPRESENTATION(#640,#641);
#640=PRODUCT_DEFINITION_SHAPE('',$,#643);
#641=SHAPE_REPRESENTATION('',(#372),#633);
#642=PRODUCT_DEFINITION_CONTEXT('part definition',#647,'design');
#643=PRODUCT_DEFINITION('2026-01-25-18-25-19-019','Adaptor',#644,#642);
#644=PRODUCT_DEFINITION_FORMATION('',$,#649);
#645=PRODUCT_RELATED_PRODUCT_CATEGORY('Adaptor','Adaptor',(#649));
#646=APPLICATION_PROTOCOL_DEFINITION('international standard',
'automotive_design',2009,#647);
#647=APPLICATION_CONTEXT(
'Core Data for Automotive Mechanical Design Process');
#648=PRODUCT_CONTEXT('part definition',#647,'mechanical');
#649=PRODUCT('2026-01-25-18-25-19-019','Adaptor',$,(#648));
#650=PRESENTATION_STYLE_ASSIGNMENT((#651));
#651=SURFACE_STYLE_USAGE(.BOTH.,#652);
#652=SURFACE_SIDE_STYLE('',(#653));
#653=SURFACE_STYLE_FILL_AREA(#654);
#654=FILL_AREA_STYLE('Steel - Satin',(#655));
#655=FILL_AREA_STYLE_COLOUR('Steel - Satin',#656);
#656=COLOUR_RGB('Steel - Satin',0.627450980392157,0.627450980392157,0.627450980392157);
ENDSEC;
END-ISO-10303-21;
