ISO-10303-21;
HEADER;
/* Generated by software containing ST-Developer
 * from STEP Tools, Inc. (www.steptools.com) 
 */

FILE_DESCRIPTION(
/* description */ (''),
/* implementation_level */ '2;1');

FILE_NAME(
/* name */ 'Rotary encoder.step',
/* time_stamp */ '2026-04-27T15:52:34+01:00',
/* author */ (''),
/* organization */ (''),
/* preprocessor_version */ 'ST-DEVELOPER v20.1',
/* originating_system */ 'Autodesk Translation Framework v14.24.0.0',
/* authorisation */ '');

FILE_SCHEMA (('AUTOMOTIVE_DESIGN { 1 0 10303 214 3 1 1 }'));
ENDSEC;

DATA;
#10=MECHANICAL_DESIGN_GEOMETRIC_PRESENTATION_REPRESENTATION('',(#13,#14,
#15,#16,#17,#18,#19,#20,#21,#22,#23),#1213);
#11=SHAPE_REPRESENTATION_RELATIONSHIP('SRR','None',#1220,#12);
#12=ADVANCED_BREP_SHAPE_REPRESENTATION('',(#24,#25,#26,#27,#28,#29,#30,
#31,#32,#33,#34),#1212);
#13=STYLED_ITEM('',(#1229),#24);
#14=STYLED_ITEM('',(#1229),#25);
#15=STYLED_ITEM('',(#1229),#26);
#16=STYLED_ITEM('',(#1229),#27);
#17=STYLED_ITEM('',(#1229),#28);
#18=STYLED_ITEM('',(#1229),#29);
#19=STYLED_ITEM('',(#1229),#30);
#20=STYLED_ITEM('',(#1229),#31);
#21=STYLED_ITEM('',(#1229),#32);
#22=STYLED_ITEM('',(#1229),#33);
#23=STYLED_ITEM('',(#1229),#34);
#24=MANIFOLD_SOLID_BREP('Body1',#695);
#25=MANIFOLD_SOLID_BREP('Body2',#696);
#26=MANIFOLD_SOLID_BREP('Body3',#697);
#27=MANIFOLD_SOLID_BREP('Body4',#698);
#28=MANIFOLD_SOLID_BREP('Body5',#699);
#29=MANIFOLD_SOLID_BREP('Body6',#700);
#30=MANIFOLD_SOLID_BREP('Body7',#701);
#31=MANIFOLD_SOLID_BREP('Body8',#702);
#32=MANIFOLD_SOLID_BREP('Body9',#703);
#33=MANIFOLD_SOLID_BREP('Body10',#704);
#34=MANIFOLD_SOLID_BREP('Body11',#705);
#35=FACE_BOUND('',#137,.T.);
#36=FACE_BOUND('',#151,.T.);
#37=CYLINDRICAL_SURFACE('',#726,3.16);
#38=CYLINDRICAL_SURFACE('',#731,4.5);
#39=CYLINDRICAL_SURFACE('',#749,0.32);
#40=CYLINDRICAL_SURFACE('',#754,0.32);
#41=CYLINDRICAL_SURFACE('',#759,0.32);
#42=CYLINDRICAL_SURFACE('',#764,0.32);
#43=CYLINDRICAL_SURFACE('',#769,0.32);
#44=CYLINDRICAL_SURFACE('',#774,0.32);
#45=CYLINDRICAL_SURFACE('',#779,0.32);
#46=CYLINDRICAL_SURFACE('',#784,0.32);
#47=CYLINDRICAL_SURFACE('',#789,0.32);
#48=CYLINDRICAL_SURFACE('',#794,0.32);
#49=CIRCLE('',#721,3.16);
#50=CIRCLE('',#724,3.16);
#51=CIRCLE('',#725,3.16);
#52=CIRCLE('',#727,3.16);
#53=CIRCLE('',#728,3.16);
#54=CIRCLE('',#729,3.16);
#55=CIRCLE('',#732,4.5);
#56=CIRCLE('',#733,4.5);
#57=CIRCLE('',#750,0.32);
#58=CIRCLE('',#751,0.32);
#59=CIRCLE('',#755,0.32);
#60=CIRCLE('',#756,0.32);
#61=CIRCLE('',#760,0.32);
#62=CIRCLE('',#761,0.32);
#63=CIRCLE('',#765,0.32);
#64=CIRCLE('',#766,0.32);
#65=CIRCLE('',#770,0.32);
#66=CIRCLE('',#771,0.32);
#67=CIRCLE('',#775,0.32);
#68=CIRCLE('',#776,0.32);
#69=CIRCLE('',#780,0.32);
#70=CIRCLE('',#781,0.32);
#71=CIRCLE('',#785,0.32);
#72=CIRCLE('',#786,0.32);
#73=CIRCLE('',#790,0.32);
#74=CIRCLE('',#791,0.32);
#75=CIRCLE('',#795,0.32);
#76=CIRCLE('',#796,0.32);
#77=FACE_OUTER_BOUND('',#129,.T.);
#78=FACE_OUTER_BOUND('',#130,.T.);
#79=FACE_OUTER_BOUND('',#131,.T.);
#80=FACE_OUTER_BOUND('',#132,.T.);
#81=FACE_OUTER_BOUND('',#133,.T.);
#82=FACE_OUTER_BOUND('',#134,.T.);
#83=FACE_OUTER_BOUND('',#135,.T.);
#84=FACE_OUTER_BOUND('',#136,.T.);
#85=FACE_OUTER_BOUND('',#138,.T.);
#86=FACE_OUTER_BOUND('',#139,.T.);
#87=FACE_OUTER_BOUND('',#140,.T.);
#88=FACE_OUTER_BOUND('',#141,.T.);
#89=FACE_OUTER_BOUND('',#142,.T.);
#90=FACE_OUTER_BOUND('',#143,.T.);
#91=FACE_OUTER_BOUND('',#144,.T.);
#92=FACE_OUTER_BOUND('',#145,.T.);
#93=FACE_OUTER_BOUND('',#146,.T.);
#94=FACE_OUTER_BOUND('',#147,.T.);
#95=FACE_OUTER_BOUND('',#148,.T.);
#96=FACE_OUTER_BOUND('',#149,.T.);
#97=FACE_OUTER_BOUND('',#150,.T.);
#98=FACE_OUTER_BOUND('',#152,.T.);
#99=FACE_OUTER_BOUND('',#153,.T.);
#100=FACE_OUTER_BOUND('',#154,.T.);
#101=FACE_OUTER_BOUND('',#155,.T.);
#102=FACE_OUTER_BOUND('',#156,.T.);
#103=FACE_OUTER_BOUND('',#157,.T.);
#104=FACE_OUTER_BOUND('',#158,.T.);
#105=FACE_OUTER_BOUND('',#159,.T.);
#106=FACE_OUTER_BOUND('',#160,.T.);
#107=FACE_OUTER_BOUND('',#161,.T.);
#108=FACE_OUTER_BOUND('',#162,.T.);
#109=FACE_OUTER_BOUND('',#163,.T.);
#110=FACE_OUTER_BOUND('',#164,.T.);
#111=FACE_OUTER_BOUND('',#165,.T.);
#112=FACE_OUTER_BOUND('',#166,.T.);
#113=FACE_OUTER_BOUND('',#167,.T.);
#114=FACE_OUTER_BOUND('',#168,.T.);
#115=FACE_OUTER_BOUND('',#169,.T.);
#116=FACE_OUTER_BOUND('',#170,.T.);
#117=FACE_OUTER_BOUND('',#171,.T.);
#118=FACE_OUTER_BOUND('',#172,.T.);
#119=FACE_OUTER_BOUND('',#173,.T.);
#120=FACE_OUTER_BOUND('',#174,.T.);
#121=FACE_OUTER_BOUND('',#175,.T.);
#122=FACE_OUTER_BOUND('',#176,.T.);
#123=FACE_OUTER_BOUND('',#177,.T.);
#124=FACE_OUTER_BOUND('',#178,.T.);
#125=FACE_OUTER_BOUND('',#179,.T.);
#126=FACE_OUTER_BOUND('',#180,.T.);
#127=FACE_OUTER_BOUND('',#181,.T.);
#128=FACE_OUTER_BOUND('',#182,.T.);
#129=EDGE_LOOP('',(#435,#436,#437,#438));
#130=EDGE_LOOP('',(#439,#440));
#131=EDGE_LOOP('',(#441,#442,#443,#444));
#132=EDGE_LOOP('',(#445,#446,#447));
#133=EDGE_LOOP('',(#448,#449,#450,#451,#452,#453,#454,#455,#456,#457,#458,
#459));
#134=EDGE_LOOP('',(#460,#461,#462,#463));
#135=EDGE_LOOP('',(#464,#465,#466,#467));
#136=EDGE_LOOP('',(#468));
#137=EDGE_LOOP('',(#469));
#138=EDGE_LOOP('',(#470,#471,#472,#473));
#139=EDGE_LOOP('',(#474,#475,#476,#477));
#140=EDGE_LOOP('',(#478,#479,#480,#481));
#141=EDGE_LOOP('',(#482,#483,#484,#485));
#142=EDGE_LOOP('',(#486,#487,#488,#489));
#143=EDGE_LOOP('',(#490,#491,#492,#493));
#144=EDGE_LOOP('',(#494,#495,#496,#497));
#145=EDGE_LOOP('',(#498,#499,#500,#501));
#146=EDGE_LOOP('',(#502,#503,#504,#505));
#147=EDGE_LOOP('',(#506,#507,#508,#509,#510,#511,#512,#513));
#148=EDGE_LOOP('',(#514,#515,#516,#517));
#149=EDGE_LOOP('',(#518,#519,#520,#521,#522,#523,#524,#525));
#150=EDGE_LOOP('',(#526,#527,#528,#529));
#151=EDGE_LOOP('',(#530));
#152=EDGE_LOOP('',(#531,#532,#533,#534,#535,#536,#537,#538,#539,#540,#541,
#542));
#153=EDGE_LOOP('',(#543,#544,#545,#546));
#154=EDGE_LOOP('',(#547));
#155=EDGE_LOOP('',(#548));
#156=EDGE_LOOP('',(#549,#550,#551,#552));
#157=EDGE_LOOP('',(#553));
#158=EDGE_LOOP('',(#554));
#159=EDGE_LOOP('',(#555,#556,#557,#558));
#160=EDGE_LOOP('',(#559));
#161=EDGE_LOOP('',(#560));
#162=EDGE_LOOP('',(#561,#562,#563,#564));
#163=EDGE_LOOP('',(#565));
#164=EDGE_LOOP('',(#566));
#165=EDGE_LOOP('',(#567,#568,#569,#570));
#166=EDGE_LOOP('',(#571));
#167=EDGE_LOOP('',(#572));
#168=EDGE_LOOP('',(#573,#574,#575,#576));
#169=EDGE_LOOP('',(#577));
#170=EDGE_LOOP('',(#578));
#171=EDGE_LOOP('',(#579,#580,#581,#582));
#172=EDGE_LOOP('',(#583));
#173=EDGE_LOOP('',(#584));
#174=EDGE_LOOP('',(#585,#586,#587,#588));
#175=EDGE_LOOP('',(#589));
#176=EDGE_LOOP('',(#590));
#177=EDGE_LOOP('',(#591,#592,#593,#594));
#178=EDGE_LOOP('',(#595));
#179=EDGE_LOOP('',(#596));
#180=EDGE_LOOP('',(#597,#598,#599,#600));
#181=EDGE_LOOP('',(#601));
#182=EDGE_LOOP('',(#602));
#183=LINE('',#1021,#239);
#184=LINE('',#1023,#240);
#185=LINE('',#1025,#241);
#186=LINE('',#1026,#242);
#187=LINE('',#1032,#243);
#188=LINE('',#1034,#244);
#189=LINE('',#1036,#245);
#190=LINE('',#1037,#246);
#191=LINE('',#1044,#247);
#192=LINE('',#1053,#248);
#193=LINE('',#1059,#249);
#194=LINE('',#1061,#250);
#195=LINE('',#1063,#251);
#196=LINE('',#1064,#252);
#197=LINE('',#1068,#253);
#198=LINE('',#1070,#254);
#199=LINE('',#1072,#255);
#200=LINE('',#1073,#256);
#201=LINE('',#1075,#257);
#202=LINE('',#1076,#258);
#203=LINE('',#1078,#259);
#204=LINE('',#1082,#260);
#205=LINE('',#1084,#261);
#206=LINE('',#1086,#262);
#207=LINE('',#1087,#263);
#208=LINE('',#1090,#264);
#209=LINE('',#1092,#265);
#210=LINE('',#1093,#266);
#211=LINE('',#1096,#267);
#212=LINE('',#1098,#268);
#213=LINE('',#1099,#269);
#214=LINE('',#1101,#270);
#215=LINE('',#1105,#271);
#216=LINE('',#1107,#272);
#217=LINE('',#1109,#273);
#218=LINE('',#1110,#274);
#219=LINE('',#1112,#275);
#220=LINE('',#1114,#276);
#221=LINE('',#1116,#277);
#222=LINE('',#1117,#278);
#223=LINE('',#1120,#279);
#224=LINE('',#1122,#280);
#225=LINE('',#1123,#281);
#226=LINE('',#1125,#282);
#227=LINE('',#1126,#283);
#228=LINE('',#1127,#284);
#229=LINE('',#1134,#285);
#230=LINE('',#1142,#286);
#231=LINE('',#1150,#287);
#232=LINE('',#1158,#288);
#233=LINE('',#1166,#289);
#234=LINE('',#1174,#290);
#235=LINE('',#1182,#291);
#236=LINE('',#1190,#292);
#237=LINE('',#1198,#293);
#238=LINE('',#1206,#294);
#239=VECTOR('',#803,10.);
#240=VECTOR('',#804,10.);
#241=VECTOR('',#805,10.);
#242=VECTOR('',#806,10.);
#243=VECTOR('',#813,10.);
#244=VECTOR('',#814,10.);
#245=VECTOR('',#815,10.);
#246=VECTOR('',#816,10.);
#247=VECTOR('',#825,3.16);
#248=VECTOR('',#838,4.5);
#249=VECTOR('',#845,10.);
#250=VECTOR('',#846,10.);
#251=VECTOR('',#847,10.);
#252=VECTOR('',#848,10.);
#253=VECTOR('',#851,10.);
#254=VECTOR('',#852,10.);
#255=VECTOR('',#853,10.);
#256=VECTOR('',#854,10.);
#257=VECTOR('',#857,10.);
#258=VECTOR('',#858,10.);
#259=VECTOR('',#861,10.);
#260=VECTOR('',#864,10.);
#261=VECTOR('',#865,10.);
#262=VECTOR('',#866,10.);
#263=VECTOR('',#867,10.);
#264=VECTOR('',#870,10.);
#265=VECTOR('',#871,10.);
#266=VECTOR('',#872,10.);
#267=VECTOR('',#875,10.);
#268=VECTOR('',#876,10.);
#269=VECTOR('',#877,10.);
#270=VECTOR('',#880,10.);
#271=VECTOR('',#883,10.);
#272=VECTOR('',#884,10.);
#273=VECTOR('',#885,10.);
#274=VECTOR('',#886,10.);
#275=VECTOR('',#889,10.);
#276=VECTOR('',#890,10.);
#277=VECTOR('',#891,10.);
#278=VECTOR('',#892,10.);
#279=VECTOR('',#895,10.);
#280=VECTOR('',#896,10.);
#281=VECTOR('',#897,10.);
#282=VECTOR('',#900,10.);
#283=VECTOR('',#901,10.);
#284=VECTOR('',#902,10.);
#285=VECTOR('',#911,0.32);
#286=VECTOR('',#922,0.32);
#287=VECTOR('',#933,0.32);
#288=VECTOR('',#944,0.32);
#289=VECTOR('',#955,0.32);
#290=VECTOR('',#966,0.32);
#291=VECTOR('',#977,0.32);
#292=VECTOR('',#988,0.32);
#293=VECTOR('',#999,0.32);
#294=VECTOR('',#1010,0.32);
#295=VERTEX_POINT('',#1019);
#296=VERTEX_POINT('',#1020);
#297=VERTEX_POINT('',#1022);
#298=VERTEX_POINT('',#1024);
#299=VERTEX_POINT('',#1030);
#300=VERTEX_POINT('',#1031);
#301=VERTEX_POINT('',#1033);
#302=VERTEX_POINT('',#1035);
#303=VERTEX_POINT('',#1039);
#304=VERTEX_POINT('',#1043);
#305=VERTEX_POINT('',#1050);
#306=VERTEX_POINT('',#1052);
#307=VERTEX_POINT('',#1057);
#308=VERTEX_POINT('',#1058);
#309=VERTEX_POINT('',#1060);
#310=VERTEX_POINT('',#1062);
#311=VERTEX_POINT('',#1066);
#312=VERTEX_POINT('',#1067);
#313=VERTEX_POINT('',#1069);
#314=VERTEX_POINT('',#1071);
#315=VERTEX_POINT('',#1080);
#316=VERTEX_POINT('',#1081);
#317=VERTEX_POINT('',#1083);
#318=VERTEX_POINT('',#1085);
#319=VERTEX_POINT('',#1089);
#320=VERTEX_POINT('',#1091);
#321=VERTEX_POINT('',#1095);
#322=VERTEX_POINT('',#1097);
#323=VERTEX_POINT('',#1103);
#324=VERTEX_POINT('',#1104);
#325=VERTEX_POINT('',#1106);
#326=VERTEX_POINT('',#1108);
#327=VERTEX_POINT('',#1113);
#328=VERTEX_POINT('',#1115);
#329=VERTEX_POINT('',#1119);
#330=VERTEX_POINT('',#1121);
#331=VERTEX_POINT('',#1131);
#332=VERTEX_POINT('',#1133);
#333=VERTEX_POINT('',#1139);
#334=VERTEX_POINT('',#1141);
#335=VERTEX_POINT('',#1147);
#336=VERTEX_POINT('',#1149);
#337=VERTEX_POINT('',#1155);
#338=VERTEX_POINT('',#1157);
#339=VERTEX_POINT('',#1163);
#340=VERTEX_POINT('',#1165);
#341=VERTEX_POINT('',#1171);
#342=VERTEX_POINT('',#1173);
#343=VERTEX_POINT('',#1179);
#344=VERTEX_POINT('',#1181);
#345=VERTEX_POINT('',#1187);
#346=VERTEX_POINT('',#1189);
#347=VERTEX_POINT('',#1195);
#348=VERTEX_POINT('',#1197);
#349=VERTEX_POINT('',#1203);
#350=VERTEX_POINT('',#1205);
#351=EDGE_CURVE('',#295,#296,#183,.T.);
#352=EDGE_CURVE('',#295,#297,#184,.T.);
#353=EDGE_CURVE('',#298,#297,#185,.T.);
#354=EDGE_CURVE('',#296,#298,#186,.T.);
#355=EDGE_CURVE('',#297,#298,#49,.T.);
#356=EDGE_CURVE('',#299,#300,#187,.T.);
#357=EDGE_CURVE('',#299,#301,#188,.T.);
#358=EDGE_CURVE('',#302,#301,#189,.T.);
#359=EDGE_CURVE('',#300,#302,#190,.T.);
#360=EDGE_CURVE('',#301,#303,#50,.T.);
#361=EDGE_CURVE('',#303,#302,#51,.T.);
#362=EDGE_CURVE('',#303,#304,#191,.T.);
#363=EDGE_CURVE('',#304,#304,#52,.T.);
#364=EDGE_CURVE('',#296,#299,#53,.T.);
#365=EDGE_CURVE('',#300,#295,#54,.T.);
#366=EDGE_CURVE('',#305,#305,#55,.T.);
#367=EDGE_CURVE('',#305,#306,#192,.T.);
#368=EDGE_CURVE('',#306,#306,#56,.T.);
#369=EDGE_CURVE('',#307,#308,#193,.T.);
#370=EDGE_CURVE('',#307,#309,#194,.T.);
#371=EDGE_CURVE('',#310,#309,#195,.T.);
#372=EDGE_CURVE('',#308,#310,#196,.T.);
#373=EDGE_CURVE('',#311,#312,#197,.T.);
#374=EDGE_CURVE('',#313,#311,#198,.T.);
#375=EDGE_CURVE('',#314,#313,#199,.T.);
#376=EDGE_CURVE('',#312,#314,#200,.T.);
#377=EDGE_CURVE('',#312,#307,#201,.T.);
#378=EDGE_CURVE('',#309,#314,#202,.T.);
#379=EDGE_CURVE('',#310,#313,#203,.T.);
#380=EDGE_CURVE('',#315,#316,#204,.T.);
#381=EDGE_CURVE('',#315,#317,#205,.T.);
#382=EDGE_CURVE('',#318,#317,#206,.T.);
#383=EDGE_CURVE('',#316,#318,#207,.T.);
#384=EDGE_CURVE('',#316,#319,#208,.T.);
#385=EDGE_CURVE('',#320,#318,#209,.T.);
#386=EDGE_CURVE('',#319,#320,#210,.T.);
#387=EDGE_CURVE('',#321,#315,#211,.T.);
#388=EDGE_CURVE('',#322,#321,#212,.T.);
#389=EDGE_CURVE('',#317,#322,#213,.T.);
#390=EDGE_CURVE('',#320,#322,#214,.T.);
#391=EDGE_CURVE('',#323,#324,#215,.T.);
#392=EDGE_CURVE('',#324,#325,#216,.T.);
#393=EDGE_CURVE('',#326,#325,#217,.T.);
#394=EDGE_CURVE('',#323,#326,#218,.T.);
#395=EDGE_CURVE('',#311,#323,#219,.T.);
#396=EDGE_CURVE('',#327,#326,#220,.T.);
#397=EDGE_CURVE('',#328,#327,#221,.T.);
#398=EDGE_CURVE('',#328,#308,#222,.T.);
#399=EDGE_CURVE('',#329,#328,#223,.T.);
#400=EDGE_CURVE('',#330,#327,#224,.T.);
#401=EDGE_CURVE('',#329,#330,#225,.T.);
#402=EDGE_CURVE('',#321,#329,#226,.T.);
#403=EDGE_CURVE('',#325,#330,#227,.T.);
#404=EDGE_CURVE('',#324,#319,#228,.T.);
#405=EDGE_CURVE('',#331,#331,#57,.T.);
#406=EDGE_CURVE('',#331,#332,#229,.T.);
#407=EDGE_CURVE('',#332,#332,#58,.T.);
#408=EDGE_CURVE('',#333,#333,#59,.T.);
#409=EDGE_CURVE('',#333,#334,#230,.T.);
#410=EDGE_CURVE('',#334,#334,#60,.T.);
#411=EDGE_CURVE('',#335,#335,#61,.T.);
#412=EDGE_CURVE('',#335,#336,#231,.T.);
#413=EDGE_CURVE('',#336,#336,#62,.T.);
#414=EDGE_CURVE('',#337,#337,#63,.T.);
#415=EDGE_CURVE('',#337,#338,#232,.T.);
#416=EDGE_CURVE('',#338,#338,#64,.T.);
#417=EDGE_CURVE('',#339,#339,#65,.T.);
#418=EDGE_CURVE('',#339,#340,#233,.T.);
#419=EDGE_CURVE('',#340,#340,#66,.T.);
#420=EDGE_CURVE('',#341,#341,#67,.T.);
#421=EDGE_CURVE('',#341,#342,#234,.T.);
#422=EDGE_CURVE('',#342,#342,#68,.T.);
#423=EDGE_CURVE('',#343,#343,#69,.T.);
#424=EDGE_CURVE('',#343,#344,#235,.T.);
#425=EDGE_CURVE('',#344,#344,#70,.T.);
#426=EDGE_CURVE('',#345,#345,#71,.T.);
#427=EDGE_CURVE('',#345,#346,#236,.T.);
#428=EDGE_CURVE('',#346,#346,#72,.T.);
#429=EDGE_CURVE('',#347,#347,#73,.T.);
#430=EDGE_CURVE('',#347,#348,#237,.T.);
#431=EDGE_CURVE('',#348,#348,#74,.T.);
#432=EDGE_CURVE('',#349,#349,#75,.T.);
#433=EDGE_CURVE('',#349,#350,#238,.T.);
#434=EDGE_CURVE('',#350,#350,#76,.T.);
#435=ORIENTED_EDGE('',*,*,#351,.F.);
#436=ORIENTED_EDGE('',*,*,#352,.T.);
#437=ORIENTED_EDGE('',*,*,#353,.F.);
#438=ORIENTED_EDGE('',*,*,#354,.F.);
#439=ORIENTED_EDGE('',*,*,#355,.T.);
#440=ORIENTED_EDGE('',*,*,#353,.T.);
#441=ORIENTED_EDGE('',*,*,#356,.F.);
#442=ORIENTED_EDGE('',*,*,#357,.T.);
#443=ORIENTED_EDGE('',*,*,#358,.F.);
#444=ORIENTED_EDGE('',*,*,#359,.F.);
#445=ORIENTED_EDGE('',*,*,#360,.T.);
#446=ORIENTED_EDGE('',*,*,#361,.T.);
#447=ORIENTED_EDGE('',*,*,#358,.T.);
#448=ORIENTED_EDGE('',*,*,#359,.T.);
#449=ORIENTED_EDGE('',*,*,#361,.F.);
#450=ORIENTED_EDGE('',*,*,#362,.T.);
#451=ORIENTED_EDGE('',*,*,#363,.F.);
#452=ORIENTED_EDGE('',*,*,#362,.F.);
#453=ORIENTED_EDGE('',*,*,#360,.F.);
#454=ORIENTED_EDGE('',*,*,#357,.F.);
#455=ORIENTED_EDGE('',*,*,#364,.F.);
#456=ORIENTED_EDGE('',*,*,#354,.T.);
#457=ORIENTED_EDGE('',*,*,#355,.F.);
#458=ORIENTED_EDGE('',*,*,#352,.F.);
#459=ORIENTED_EDGE('',*,*,#365,.F.);
#460=ORIENTED_EDGE('',*,*,#351,.T.);
#461=ORIENTED_EDGE('',*,*,#364,.T.);
#462=ORIENTED_EDGE('',*,*,#356,.T.);
#463=ORIENTED_EDGE('',*,*,#365,.T.);
#464=ORIENTED_EDGE('',*,*,#366,.F.);
#465=ORIENTED_EDGE('',*,*,#367,.T.);
#466=ORIENTED_EDGE('',*,*,#368,.F.);
#467=ORIENTED_EDGE('',*,*,#367,.F.);
#468=ORIENTED_EDGE('',*,*,#366,.T.);
#469=ORIENTED_EDGE('',*,*,#363,.T.);
#470=ORIENTED_EDGE('',*,*,#369,.F.);
#471=ORIENTED_EDGE('',*,*,#370,.T.);
#472=ORIENTED_EDGE('',*,*,#371,.F.);
#473=ORIENTED_EDGE('',*,*,#372,.F.);
#474=ORIENTED_EDGE('',*,*,#373,.F.);
#475=ORIENTED_EDGE('',*,*,#374,.F.);
#476=ORIENTED_EDGE('',*,*,#375,.F.);
#477=ORIENTED_EDGE('',*,*,#376,.F.);
#478=ORIENTED_EDGE('',*,*,#377,.F.);
#479=ORIENTED_EDGE('',*,*,#376,.T.);
#480=ORIENTED_EDGE('',*,*,#378,.F.);
#481=ORIENTED_EDGE('',*,*,#370,.F.);
#482=ORIENTED_EDGE('',*,*,#378,.T.);
#483=ORIENTED_EDGE('',*,*,#375,.T.);
#484=ORIENTED_EDGE('',*,*,#379,.F.);
#485=ORIENTED_EDGE('',*,*,#371,.T.);
#486=ORIENTED_EDGE('',*,*,#380,.F.);
#487=ORIENTED_EDGE('',*,*,#381,.T.);
#488=ORIENTED_EDGE('',*,*,#382,.F.);
#489=ORIENTED_EDGE('',*,*,#383,.F.);
#490=ORIENTED_EDGE('',*,*,#384,.F.);
#491=ORIENTED_EDGE('',*,*,#383,.T.);
#492=ORIENTED_EDGE('',*,*,#385,.F.);
#493=ORIENTED_EDGE('',*,*,#386,.F.);
#494=ORIENTED_EDGE('',*,*,#387,.F.);
#495=ORIENTED_EDGE('',*,*,#388,.F.);
#496=ORIENTED_EDGE('',*,*,#389,.F.);
#497=ORIENTED_EDGE('',*,*,#381,.F.);
#498=ORIENTED_EDGE('',*,*,#389,.T.);
#499=ORIENTED_EDGE('',*,*,#390,.F.);
#500=ORIENTED_EDGE('',*,*,#385,.T.);
#501=ORIENTED_EDGE('',*,*,#382,.T.);
#502=ORIENTED_EDGE('',*,*,#391,.T.);
#503=ORIENTED_EDGE('',*,*,#392,.T.);
#504=ORIENTED_EDGE('',*,*,#393,.F.);
#505=ORIENTED_EDGE('',*,*,#394,.F.);
#506=ORIENTED_EDGE('',*,*,#374,.T.);
#507=ORIENTED_EDGE('',*,*,#395,.T.);
#508=ORIENTED_EDGE('',*,*,#394,.T.);
#509=ORIENTED_EDGE('',*,*,#396,.F.);
#510=ORIENTED_EDGE('',*,*,#397,.F.);
#511=ORIENTED_EDGE('',*,*,#398,.T.);
#512=ORIENTED_EDGE('',*,*,#372,.T.);
#513=ORIENTED_EDGE('',*,*,#379,.T.);
#514=ORIENTED_EDGE('',*,*,#399,.T.);
#515=ORIENTED_EDGE('',*,*,#397,.T.);
#516=ORIENTED_EDGE('',*,*,#400,.F.);
#517=ORIENTED_EDGE('',*,*,#401,.F.);
#518=ORIENTED_EDGE('',*,*,#388,.T.);
#519=ORIENTED_EDGE('',*,*,#402,.T.);
#520=ORIENTED_EDGE('',*,*,#401,.T.);
#521=ORIENTED_EDGE('',*,*,#403,.F.);
#522=ORIENTED_EDGE('',*,*,#392,.F.);
#523=ORIENTED_EDGE('',*,*,#404,.T.);
#524=ORIENTED_EDGE('',*,*,#386,.T.);
#525=ORIENTED_EDGE('',*,*,#390,.T.);
#526=ORIENTED_EDGE('',*,*,#403,.T.);
#527=ORIENTED_EDGE('',*,*,#400,.T.);
#528=ORIENTED_EDGE('',*,*,#396,.T.);
#529=ORIENTED_EDGE('',*,*,#393,.T.);
#530=ORIENTED_EDGE('',*,*,#368,.T.);
#531=ORIENTED_EDGE('',*,*,#404,.F.);
#532=ORIENTED_EDGE('',*,*,#391,.F.);
#533=ORIENTED_EDGE('',*,*,#395,.F.);
#534=ORIENTED_EDGE('',*,*,#373,.T.);
#535=ORIENTED_EDGE('',*,*,#377,.T.);
#536=ORIENTED_EDGE('',*,*,#369,.T.);
#537=ORIENTED_EDGE('',*,*,#398,.F.);
#538=ORIENTED_EDGE('',*,*,#399,.F.);
#539=ORIENTED_EDGE('',*,*,#402,.F.);
#540=ORIENTED_EDGE('',*,*,#387,.T.);
#541=ORIENTED_EDGE('',*,*,#380,.T.);
#542=ORIENTED_EDGE('',*,*,#384,.T.);
#543=ORIENTED_EDGE('',*,*,#405,.F.);
#544=ORIENTED_EDGE('',*,*,#406,.T.);
#545=ORIENTED_EDGE('',*,*,#407,.T.);
#546=ORIENTED_EDGE('',*,*,#406,.F.);
#547=ORIENTED_EDGE('',*,*,#405,.T.);
#548=ORIENTED_EDGE('',*,*,#407,.F.);
#549=ORIENTED_EDGE('',*,*,#408,.F.);
#550=ORIENTED_EDGE('',*,*,#409,.T.);
#551=ORIENTED_EDGE('',*,*,#410,.T.);
#552=ORIENTED_EDGE('',*,*,#409,.F.);
#553=ORIENTED_EDGE('',*,*,#408,.T.);
#554=ORIENTED_EDGE('',*,*,#410,.F.);
#555=ORIENTED_EDGE('',*,*,#411,.F.);
#556=ORIENTED_EDGE('',*,*,#412,.T.);
#557=ORIENTED_EDGE('',*,*,#413,.T.);
#558=ORIENTED_EDGE('',*,*,#412,.F.);
#559=ORIENTED_EDGE('',*,*,#411,.T.);
#560=ORIENTED_EDGE('',*,*,#413,.F.);
#561=ORIENTED_EDGE('',*,*,#414,.F.);
#562=ORIENTED_EDGE('',*,*,#415,.T.);
#563=ORIENTED_EDGE('',*,*,#416,.T.);
#564=ORIENTED_EDGE('',*,*,#415,.F.);
#565=ORIENTED_EDGE('',*,*,#414,.T.);
#566=ORIENTED_EDGE('',*,*,#416,.F.);
#567=ORIENTED_EDGE('',*,*,#417,.F.);
#568=ORIENTED_EDGE('',*,*,#418,.T.);
#569=ORIENTED_EDGE('',*,*,#419,.T.);
#570=ORIENTED_EDGE('',*,*,#418,.F.);
#571=ORIENTED_EDGE('',*,*,#417,.T.);
#572=ORIENTED_EDGE('',*,*,#419,.F.);
#573=ORIENTED_EDGE('',*,*,#420,.F.);
#574=ORIENTED_EDGE('',*,*,#421,.T.);
#575=ORIENTED_EDGE('',*,*,#422,.T.);
#576=ORIENTED_EDGE('',*,*,#421,.F.);
#577=ORIENTED_EDGE('',*,*,#420,.T.);
#578=ORIENTED_EDGE('',*,*,#422,.F.);
#579=ORIENTED_EDGE('',*,*,#423,.F.);
#580=ORIENTED_EDGE('',*,*,#424,.T.);
#581=ORIENTED_EDGE('',*,*,#425,.T.);
#582=ORIENTED_EDGE('',*,*,#424,.F.);
#583=ORIENTED_EDGE('',*,*,#423,.T.);
#584=ORIENTED_EDGE('',*,*,#425,.F.);
#585=ORIENTED_EDGE('',*,*,#426,.F.);
#586=ORIENTED_EDGE('',*,*,#427,.T.);
#587=ORIENTED_EDGE('',*,*,#428,.T.);
#588=ORIENTED_EDGE('',*,*,#427,.F.);
#589=ORIENTED_EDGE('',*,*,#426,.T.);
#590=ORIENTED_EDGE('',*,*,#428,.F.);
#591=ORIENTED_EDGE('',*,*,#429,.F.);
#592=ORIENTED_EDGE('',*,*,#430,.T.);
#593=ORIENTED_EDGE('',*,*,#431,.T.);
#594=ORIENTED_EDGE('',*,*,#430,.F.);
#595=ORIENTED_EDGE('',*,*,#429,.T.);
#596=ORIENTED_EDGE('',*,*,#431,.F.);
#597=ORIENTED_EDGE('',*,*,#432,.F.);
#598=ORIENTED_EDGE('',*,*,#433,.T.);
#599=ORIENTED_EDGE('',*,*,#434,.T.);
#600=ORIENTED_EDGE('',*,*,#433,.F.);
#601=ORIENTED_EDGE('',*,*,#432,.T.);
#602=ORIENTED_EDGE('',*,*,#434,.F.);
#603=PLANE('',#719);
#604=PLANE('',#720);
#605=PLANE('',#722);
#606=PLANE('',#723);
#607=PLANE('',#730);
#608=PLANE('',#734);
#609=PLANE('',#735);
#610=PLANE('',#736);
#611=PLANE('',#737);
#612=PLANE('',#738);
#613=PLANE('',#739);
#614=PLANE('',#740);
#615=PLANE('',#741);
#616=PLANE('',#742);
#617=PLANE('',#743);
#618=PLANE('',#744);
#619=PLANE('',#745);
#620=PLANE('',#746);
#621=PLANE('',#747);
#622=PLANE('',#748);
#623=PLANE('',#752);
#624=PLANE('',#753);
#625=PLANE('',#757);
#626=PLANE('',#758);
#627=PLANE('',#762);
#628=PLANE('',#763);
#629=PLANE('',#767);
#630=PLANE('',#768);
#631=PLANE('',#772);
#632=PLANE('',#773);
#633=PLANE('',#777);
#634=PLANE('',#778);
#635=PLANE('',#782);
#636=PLANE('',#783);
#637=PLANE('',#787);
#638=PLANE('',#788);
#639=PLANE('',#792);
#640=PLANE('',#793);
#641=PLANE('',#797);
#642=PLANE('',#798);
#643=ADVANCED_FACE('',(#77),#603,.T.);
#644=ADVANCED_FACE('',(#78),#604,.T.);
#645=ADVANCED_FACE('',(#79),#605,.T.);
#646=ADVANCED_FACE('',(#80),#606,.T.);
#647=ADVANCED_FACE('',(#81),#37,.T.);
#648=ADVANCED_FACE('',(#82),#607,.T.);
#649=ADVANCED_FACE('',(#83),#38,.T.);
#650=ADVANCED_FACE('',(#84,#35),#608,.T.);
#651=ADVANCED_FACE('',(#85),#609,.T.);
#652=ADVANCED_FACE('',(#86),#610,.T.);
#653=ADVANCED_FACE('',(#87),#611,.T.);
#654=ADVANCED_FACE('',(#88),#612,.T.);
#655=ADVANCED_FACE('',(#89),#613,.T.);
#656=ADVANCED_FACE('',(#90),#614,.T.);
#657=ADVANCED_FACE('',(#91),#615,.T.);
#658=ADVANCED_FACE('',(#92),#616,.T.);
#659=ADVANCED_FACE('',(#93),#617,.T.);
#660=ADVANCED_FACE('',(#94),#618,.T.);
#661=ADVANCED_FACE('',(#95),#619,.T.);
#662=ADVANCED_FACE('',(#96),#620,.T.);
#663=ADVANCED_FACE('',(#97,#36),#621,.T.);
#664=ADVANCED_FACE('',(#98),#622,.F.);
#665=ADVANCED_FACE('',(#99),#39,.T.);
#666=ADVANCED_FACE('',(#100),#623,.T.);
#667=ADVANCED_FACE('',(#101),#624,.F.);
#668=ADVANCED_FACE('',(#102),#40,.T.);
#669=ADVANCED_FACE('',(#103),#625,.T.);
#670=ADVANCED_FACE('',(#104),#626,.F.);
#671=ADVANCED_FACE('',(#105),#41,.T.);
#672=ADVANCED_FACE('',(#106),#627,.T.);
#673=ADVANCED_FACE('',(#107),#628,.F.);
#674=ADVANCED_FACE('',(#108),#42,.T.);
#675=ADVANCED_FACE('',(#109),#629,.T.);
#676=ADVANCED_FACE('',(#110),#630,.F.);
#677=ADVANCED_FACE('',(#111),#43,.T.);
#678=ADVANCED_FACE('',(#112),#631,.T.);
#679=ADVANCED_FACE('',(#113),#632,.F.);
#680=ADVANCED_FACE('',(#114),#44,.T.);
#681=ADVANCED_FACE('',(#115),#633,.T.);
#682=ADVANCED_FACE('',(#116),#634,.F.);
#683=ADVANCED_FACE('',(#117),#45,.T.);
#684=ADVANCED_FACE('',(#118),#635,.T.);
#685=ADVANCED_FACE('',(#119),#636,.F.);
#686=ADVANCED_FACE('',(#120),#46,.T.);
#687=ADVANCED_FACE('',(#121),#637,.T.);
#688=ADVANCED_FACE('',(#122),#638,.F.);
#689=ADVANCED_FACE('',(#123),#47,.T.);
#690=ADVANCED_FACE('',(#124),#639,.T.);
#691=ADVANCED_FACE('',(#125),#640,.F.);
#692=ADVANCED_FACE('',(#126),#48,.T.);
#693=ADVANCED_FACE('',(#127),#641,.T.);
#694=ADVANCED_FACE('',(#128),#642,.F.);
#695=CLOSED_SHELL('',(#643,#644,#645,#646,#647,#648,#649,#650,#651,#652,
#653,#654,#655,#656,#657,#658,#659,#660,#661,#662,#663,#664));
#696=CLOSED_SHELL('',(#665,#666,#667));
#697=CLOSED_SHELL('',(#668,#669,#670));
#698=CLOSED_SHELL('',(#671,#672,#673));
#699=CLOSED_SHELL('',(#674,#675,#676));
#700=CLOSED_SHELL('',(#677,#678,#679));
#701=CLOSED_SHELL('',(#680,#681,#682));
#702=CLOSED_SHELL('',(#683,#684,#685));
#703=CLOSED_SHELL('',(#686,#687,#688));
#704=CLOSED_SHELL('',(#689,#690,#691));
#705=CLOSED_SHELL('',(#692,#693,#694));
#706=DERIVED_UNIT_ELEMENT(#708,1.);
#707=DERIVED_UNIT_ELEMENT(#1215,-3.);
#708=(
MASS_UNIT()
NAMED_UNIT(*)
SI_UNIT(.KILO.,.GRAM.)
);
#709=DERIVED_UNIT((#706,#707));
#710=MEASURE_REPRESENTATION_ITEM('density measure',
POSITIVE_RATIO_MEASURE(7850.),#709);
#711=PROPERTY_DEFINITION_REPRESENTATION(#716,#713);
#712=PROPERTY_DEFINITION_REPRESENTATION(#717,#714);
#713=REPRESENTATION('material name',(#715),#1212);
#714=REPRESENTATION('density',(#710),#1212);
#715=DESCRIPTIVE_REPRESENTATION_ITEM('Steel','Steel');
#716=PROPERTY_DEFINITION('material property','material name',#1222);
#717=PROPERTY_DEFINITION('material property','density of part',#1222);
#718=AXIS2_PLACEMENT_3D('',#1017,#799,#800);
#719=AXIS2_PLACEMENT_3D('',#1018,#801,#802);
#720=AXIS2_PLACEMENT_3D('',#1027,#807,#808);
#721=AXIS2_PLACEMENT_3D('',#1028,#809,#810);
#722=AXIS2_PLACEMENT_3D('',#1029,#811,#812);
#723=AXIS2_PLACEMENT_3D('',#1038,#817,#818);
#724=AXIS2_PLACEMENT_3D('',#1040,#819,#820);
#725=AXIS2_PLACEMENT_3D('',#1041,#821,#822);
#726=AXIS2_PLACEMENT_3D('',#1042,#823,#824);
#727=AXIS2_PLACEMENT_3D('',#1045,#826,#827);
#728=AXIS2_PLACEMENT_3D('',#1046,#828,#829);
#729=AXIS2_PLACEMENT_3D('',#1047,#830,#831);
#730=AXIS2_PLACEMENT_3D('',#1048,#832,#833);
#731=AXIS2_PLACEMENT_3D('',#1049,#834,#835);
#732=AXIS2_PLACEMENT_3D('',#1051,#836,#837);
#733=AXIS2_PLACEMENT_3D('',#1054,#839,#840);
#734=AXIS2_PLACEMENT_3D('',#1055,#841,#842);
#735=AXIS2_PLACEMENT_3D('',#1056,#843,#844);
#736=AXIS2_PLACEMENT_3D('',#1065,#849,#850);
#737=AXIS2_PLACEMENT_3D('',#1074,#855,#856);
#738=AXIS2_PLACEMENT_3D('',#1077,#859,#860);
#739=AXIS2_PLACEMENT_3D('',#1079,#862,#863);
#740=AXIS2_PLACEMENT_3D('',#1088,#868,#869);
#741=AXIS2_PLACEMENT_3D('',#1094,#873,#874);
#742=AXIS2_PLACEMENT_3D('',#1100,#878,#879);
#743=AXIS2_PLACEMENT_3D('',#1102,#881,#882);
#744=AXIS2_PLACEMENT_3D('',#1111,#887,#888);
#745=AXIS2_PLACEMENT_3D('',#1118,#893,#894);
#746=AXIS2_PLACEMENT_3D('',#1124,#898,#899);
#747=AXIS2_PLACEMENT_3D('',#1128,#903,#904);
#748=AXIS2_PLACEMENT_3D('',#1129,#905,#906);
#749=AXIS2_PLACEMENT_3D('',#1130,#907,#908);
#750=AXIS2_PLACEMENT_3D('',#1132,#909,#910);
#751=AXIS2_PLACEMENT_3D('',#1135,#912,#913);
#752=AXIS2_PLACEMENT_3D('',#1136,#914,#915);
#753=AXIS2_PLACEMENT_3D('',#1137,#916,#917);
#754=AXIS2_PLACEMENT_3D('',#1138,#918,#919);
#755=AXIS2_PLACEMENT_3D('',#1140,#920,#921);
#756=AXIS2_PLACEMENT_3D('',#1143,#923,#924);
#757=AXIS2_PLACEMENT_3D('',#1144,#925,#926);
#758=AXIS2_PLACEMENT_3D('',#1145,#927,#928);
#759=AXIS2_PLACEMENT_3D('',#1146,#929,#930);
#760=AXIS2_PLACEMENT_3D('',#1148,#931,#932);
#761=AXIS2_PLACEMENT_3D('',#1151,#934,#935);
#762=AXIS2_PLACEMENT_3D('',#1152,#936,#937);
#763=AXIS2_PLACEMENT_3D('',#1153,#938,#939);
#764=AXIS2_PLACEMENT_3D('',#1154,#940,#941);
#765=AXIS2_PLACEMENT_3D('',#1156,#942,#943);
#766=AXIS2_PLACEMENT_3D('',#1159,#945,#946);
#767=AXIS2_PLACEMENT_3D('',#1160,#947,#948);
#768=AXIS2_PLACEMENT_3D('',#1161,#949,#950);
#769=AXIS2_PLACEMENT_3D('',#1162,#951,#952);
#770=AXIS2_PLACEMENT_3D('',#1164,#953,#954);
#771=AXIS2_PLACEMENT_3D('',#1167,#956,#957);
#772=AXIS2_PLACEMENT_3D('',#1168,#958,#959);
#773=AXIS2_PLACEMENT_3D('',#1169,#960,#961);
#774=AXIS2_PLACEMENT_3D('',#1170,#962,#963);
#775=AXIS2_PLACEMENT_3D('',#1172,#964,#965);
#776=AXIS2_PLACEMENT_3D('',#1175,#967,#968);
#777=AXIS2_PLACEMENT_3D('',#1176,#969,#970);
#778=AXIS2_PLACEMENT_3D('',#1177,#971,#972);
#779=AXIS2_PLACEMENT_3D('',#1178,#973,#974);
#780=AXIS2_PLACEMENT_3D('',#1180,#975,#976);
#781=AXIS2_PLACEMENT_3D('',#1183,#978,#979);
#782=AXIS2_PLACEMENT_3D('',#1184,#980,#981);
#783=AXIS2_PLACEMENT_3D('',#1185,#982,#983);
#784=AXIS2_PLACEMENT_3D('',#1186,#984,#985);
#785=AXIS2_PLACEMENT_3D('',#1188,#986,#987);
#786=AXIS2_PLACEMENT_3D('',#1191,#989,#990);
#787=AXIS2_PLACEMENT_3D('',#1192,#991,#992);
#788=AXIS2_PLACEMENT_3D('',#1193,#993,#994);
#789=AXIS2_PLACEMENT_3D('',#1194,#995,#996);
#790=AXIS2_PLACEMENT_3D('',#1196,#997,#998);
#791=AXIS2_PLACEMENT_3D('',#1199,#1000,#1001);
#792=AXIS2_PLACEMENT_3D('',#1200,#1002,#1003);
#793=AXIS2_PLACEMENT_3D('',#1201,#1004,#1005);
#794=AXIS2_PLACEMENT_3D('',#1202,#1006,#1007);
#795=AXIS2_PLACEMENT_3D('',#1204,#1008,#1009);
#796=AXIS2_PLACEMENT_3D('',#1207,#1011,#1012);
#797=AXIS2_PLACEMENT_3D('',#1208,#1013,#1014);
#798=AXIS2_PLACEMENT_3D('',#1209,#1015,#1016);
#799=DIRECTION('axis',(0.,0.,1.));
#800=DIRECTION('refdir',(1.,0.,0.));
#801=DIRECTION('center_axis',(1.,0.,0.));
#802=DIRECTION('ref_axis',(0.,0.,-1.));
#803=DIRECTION('',(0.,0.,1.));
#804=DIRECTION('',(0.,1.,0.));
#805=DIRECTION('',(0.,0.,-1.));
#806=DIRECTION('',(0.,1.,0.));
#807=DIRECTION('center_axis',(0.,1.,0.));
#808=DIRECTION('ref_axis',(-1.,0.,0.));
#809=DIRECTION('center_axis',(0.,1.,0.));
#810=DIRECTION('ref_axis',(-1.,0.,0.));
#811=DIRECTION('center_axis',(-1.,0.,0.));
#812=DIRECTION('ref_axis',(0.,0.,1.));
#813=DIRECTION('',(0.,0.,-1.));
#814=DIRECTION('',(0.,1.,0.));
#815=DIRECTION('',(0.,0.,1.));
#816=DIRECTION('',(0.,1.,0.));
#817=DIRECTION('center_axis',(0.,1.,0.));
#818=DIRECTION('ref_axis',(-1.,0.,0.));
#819=DIRECTION('center_axis',(0.,1.,0.));
#820=DIRECTION('ref_axis',(-1.,0.,0.));
#821=DIRECTION('center_axis',(0.,1.,0.));
#822=DIRECTION('ref_axis',(-1.,0.,0.));
#823=DIRECTION('center_axis',(0.,1.,0.));
#824=DIRECTION('ref_axis',(-1.,0.,0.));
#825=DIRECTION('',(0.,-1.,0.));
#826=DIRECTION('center_axis',(0.,-1.,0.));
#827=DIRECTION('ref_axis',(-1.,0.,0.));
#828=DIRECTION('center_axis',(0.,1.,0.));
#829=DIRECTION('ref_axis',(-1.,0.,0.));
#830=DIRECTION('center_axis',(0.,1.,0.));
#831=DIRECTION('ref_axis',(-1.,0.,0.));
#832=DIRECTION('center_axis',(0.,1.,0.));
#833=DIRECTION('ref_axis',(-1.,0.,0.));
#834=DIRECTION('center_axis',(0.,1.,0.));
#835=DIRECTION('ref_axis',(-1.,0.,0.));
#836=DIRECTION('center_axis',(0.,1.,0.));
#837=DIRECTION('ref_axis',(-1.,0.,0.));
#838=DIRECTION('',(0.,-1.,0.));
#839=DIRECTION('center_axis',(0.,-1.,0.));
#840=DIRECTION('ref_axis',(-1.,0.,0.));
#841=DIRECTION('center_axis',(0.,1.,0.));
#842=DIRECTION('ref_axis',(-1.,0.,0.));
#843=DIRECTION('center_axis',(0.,0.,1.));
#844=DIRECTION('ref_axis',(1.,0.,0.));
#845=DIRECTION('',(-1.,0.,0.));
#846=DIRECTION('',(0.,1.,0.));
#847=DIRECTION('',(1.,0.,0.));
#848=DIRECTION('',(0.,1.,0.));
#849=DIRECTION('center_axis',(0.,0.,-1.));
#850=DIRECTION('ref_axis',(-1.,0.,0.));
#851=DIRECTION('',(1.,0.,0.));
#852=DIRECTION('',(0.,-1.,0.));
#853=DIRECTION('',(-1.,0.,0.));
#854=DIRECTION('',(0.,1.,0.));
#855=DIRECTION('center_axis',(1.,0.,0.));
#856=DIRECTION('ref_axis',(0.,0.,-1.));
#857=DIRECTION('',(0.,0.,1.));
#858=DIRECTION('',(0.,0.,-1.));
#859=DIRECTION('center_axis',(0.,1.,0.));
#860=DIRECTION('ref_axis',(0.,0.,1.));
#861=DIRECTION('',(0.,0.,-1.));
#862=DIRECTION('center_axis',(-1.,0.,0.));
#863=DIRECTION('ref_axis',(0.,0.,1.));
#864=DIRECTION('',(0.,0.,-1.));
#865=DIRECTION('',(0.,1.,0.));
#866=DIRECTION('',(0.,0.,1.));
#867=DIRECTION('',(0.,1.,0.));
#868=DIRECTION('center_axis',(0.,0.,-1.));
#869=DIRECTION('ref_axis',(-1.,0.,0.));
#870=DIRECTION('',(1.,0.,0.));
#871=DIRECTION('',(-1.,0.,0.));
#872=DIRECTION('',(0.,1.,0.));
#873=DIRECTION('center_axis',(0.,0.,1.));
#874=DIRECTION('ref_axis',(1.,0.,0.));
#875=DIRECTION('',(-1.,0.,0.));
#876=DIRECTION('',(0.,-1.,0.));
#877=DIRECTION('',(1.,0.,0.));
#878=DIRECTION('center_axis',(0.,1.,0.));
#879=DIRECTION('ref_axis',(0.,0.,1.));
#880=DIRECTION('',(0.,0.,1.));
#881=DIRECTION('center_axis',(0.,0.,-1.));
#882=DIRECTION('ref_axis',(-1.,0.,0.));
#883=DIRECTION('',(-1.,0.,0.));
#884=DIRECTION('',(0.,1.,0.));
#885=DIRECTION('',(-1.,0.,0.));
#886=DIRECTION('',(0.,1.,0.));
#887=DIRECTION('center_axis',(1.,0.,0.));
#888=DIRECTION('ref_axis',(0.,0.,-1.));
#889=DIRECTION('',(0.,0.,-1.));
#890=DIRECTION('',(0.,0.,-1.));
#891=DIRECTION('',(0.,1.,0.));
#892=DIRECTION('',(0.,0.,-1.));
#893=DIRECTION('center_axis',(0.,0.,1.));
#894=DIRECTION('ref_axis',(1.,0.,0.));
#895=DIRECTION('',(1.,0.,0.));
#896=DIRECTION('',(1.,0.,0.));
#897=DIRECTION('',(0.,1.,0.));
#898=DIRECTION('center_axis',(-1.,0.,0.));
#899=DIRECTION('ref_axis',(0.,0.,1.));
#900=DIRECTION('',(0.,0.,1.));
#901=DIRECTION('',(0.,0.,1.));
#902=DIRECTION('',(0.,0.,1.));
#903=DIRECTION('center_axis',(0.,1.,0.));
#904=DIRECTION('ref_axis',(0.,0.,1.));
#905=DIRECTION('center_axis',(0.,1.,0.));
#906=DIRECTION('ref_axis',(1.,0.,0.));
#907=DIRECTION('center_axis',(0.,-1.,0.));
#908=DIRECTION('ref_axis',(1.,0.,0.));
#909=DIRECTION('center_axis',(0.,-1.,0.));
#910=DIRECTION('ref_axis',(1.,0.,0.));
#911=DIRECTION('',(0.,1.,0.));
#912=DIRECTION('center_axis',(0.,-1.,0.));
#913=DIRECTION('ref_axis',(1.,0.,0.));
#914=DIRECTION('center_axis',(0.,-1.,0.));
#915=DIRECTION('ref_axis',(1.,0.,0.));
#916=DIRECTION('center_axis',(0.,-1.,0.));
#917=DIRECTION('ref_axis',(1.,0.,0.));
#918=DIRECTION('center_axis',(0.,-1.,0.));
#919=DIRECTION('ref_axis',(1.,0.,0.));
#920=DIRECTION('center_axis',(0.,-1.,0.));
#921=DIRECTION('ref_axis',(1.,0.,0.));
#922=DIRECTION('',(0.,1.,0.));
#923=DIRECTION('center_axis',(0.,-1.,0.));
#924=DIRECTION('ref_axis',(1.,0.,0.));
#925=DIRECTION('center_axis',(0.,-1.,0.));
#926=DIRECTION('ref_axis',(1.,0.,0.));
#927=DIRECTION('center_axis',(0.,-1.,0.));
#928=DIRECTION('ref_axis',(1.,0.,0.));
#929=DIRECTION('center_axis',(0.,-1.,0.));
#930=DIRECTION('ref_axis',(1.,0.,0.));
#931=DIRECTION('center_axis',(0.,-1.,0.));
#932=DIRECTION('ref_axis',(1.,0.,0.));
#933=DIRECTION('',(0.,1.,0.));
#934=DIRECTION('center_axis',(0.,-1.,0.));
#935=DIRECTION('ref_axis',(1.,0.,0.));
#936=DIRECTION('center_axis',(0.,-1.,0.));
#937=DIRECTION('ref_axis',(1.,0.,0.));
#938=DIRECTION('center_axis',(0.,-1.,0.));
#939=DIRECTION('ref_axis',(1.,0.,0.));
#940=DIRECTION('center_axis',(0.,-1.,0.));
#941=DIRECTION('ref_axis',(1.,0.,0.));
#942=DIRECTION('center_axis',(0.,-1.,0.));
#943=DIRECTION('ref_axis',(1.,0.,0.));
#944=DIRECTION('',(0.,1.,0.));
#945=DIRECTION('center_axis',(0.,-1.,0.));
#946=DIRECTION('ref_axis',(1.,0.,0.));
#947=DIRECTION('center_axis',(0.,-1.,0.));
#948=DIRECTION('ref_axis',(1.,0.,0.));
#949=DIRECTION('center_axis',(0.,-1.,0.));
#950=DIRECTION('ref_axis',(1.,0.,0.));
#951=DIRECTION('center_axis',(0.,-1.,0.));
#952=DIRECTION('ref_axis',(1.,0.,0.));
#953=DIRECTION('center_axis',(0.,-1.,0.));
#954=DIRECTION('ref_axis',(1.,0.,0.));
#955=DIRECTION('',(0.,1.,0.));
#956=DIRECTION('center_axis',(0.,-1.,0.));
#957=DIRECTION('ref_axis',(1.,0.,0.));
#958=DIRECTION('center_axis',(0.,-1.,0.));
#959=DIRECTION('ref_axis',(1.,0.,0.));
#960=DIRECTION('center_axis',(0.,-1.,0.));
#961=DIRECTION('ref_axis',(1.,0.,0.));
#962=DIRECTION('center_axis',(0.,-1.,0.));
#963=DIRECTION('ref_axis',(1.,0.,0.));
#964=DIRECTION('center_axis',(0.,-1.,0.));
#965=DIRECTION('ref_axis',(1.,0.,0.));
#966=DIRECTION('',(0.,1.,0.));
#967=DIRECTION('center_axis',(0.,-1.,0.));
#968=DIRECTION('ref_axis',(1.,0.,0.));
#969=DIRECTION('center_axis',(0.,-1.,0.));
#970=DIRECTION('ref_axis',(1.,0.,0.));
#971=DIRECTION('center_axis',(0.,-1.,0.));
#972=DIRECTION('ref_axis',(1.,0.,0.));
#973=DIRECTION('center_axis',(0.,-1.,0.));
#974=DIRECTION('ref_axis',(1.,0.,0.));
#975=DIRECTION('center_axis',(0.,-1.,0.));
#976=DIRECTION('ref_axis',(1.,0.,0.));
#977=DIRECTION('',(0.,1.,0.));
#978=DIRECTION('center_axis',(0.,-1.,0.));
#979=DIRECTION('ref_axis',(1.,0.,0.));
#980=DIRECTION('center_axis',(0.,-1.,0.));
#981=DIRECTION('ref_axis',(1.,0.,0.));
#982=DIRECTION('center_axis',(0.,-1.,0.));
#983=DIRECTION('ref_axis',(1.,0.,0.));
#984=DIRECTION('center_axis',(0.,-1.,0.));
#985=DIRECTION('ref_axis',(1.,0.,0.));
#986=DIRECTION('center_axis',(0.,-1.,0.));
#987=DIRECTION('ref_axis',(1.,0.,0.));
#988=DIRECTION('',(0.,1.,0.));
#989=DIRECTION('center_axis',(0.,-1.,0.));
#990=DIRECTION('ref_axis',(1.,0.,0.));
#991=DIRECTION('center_axis',(0.,-1.,0.));
#992=DIRECTION('ref_axis',(1.,0.,0.));
#993=DIRECTION('center_axis',(0.,-1.,0.));
#994=DIRECTION('ref_axis',(1.,0.,0.));
#995=DIRECTION('center_axis',(0.,-1.,0.));
#996=DIRECTION('ref_axis',(1.,0.,0.));
#997=DIRECTION('center_axis',(0.,-1.,0.));
#998=DIRECTION('ref_axis',(1.,0.,0.));
#999=DIRECTION('',(0.,1.,0.));
#1000=DIRECTION('center_axis',(0.,-1.,0.));
#1001=DIRECTION('ref_axis',(1.,0.,0.));
#1002=DIRECTION('center_axis',(0.,-1.,0.));
#1003=DIRECTION('ref_axis',(1.,0.,0.));
#1004=DIRECTION('center_axis',(0.,-1.,0.));
#1005=DIRECTION('ref_axis',(1.,0.,0.));
#1006=DIRECTION('center_axis',(0.,-1.,0.));
#1007=DIRECTION('ref_axis',(1.,0.,0.));
#1008=DIRECTION('center_axis',(0.,-1.,0.));
#1009=DIRECTION('ref_axis',(1.,0.,0.));
#1010=DIRECTION('',(0.,1.,0.));
#1011=DIRECTION('center_axis',(0.,-1.,0.));
#1012=DIRECTION('ref_axis',(1.,0.,0.));
#1013=DIRECTION('center_axis',(0.,-1.,0.));
#1014=DIRECTION('ref_axis',(1.,0.,0.));
#1015=DIRECTION('center_axis',(0.,-1.,0.));
#1016=DIRECTION('ref_axis',(1.,0.,0.));
#1017=CARTESIAN_POINT('',(0.,0.,0.));
#1018=CARTESIAN_POINT('Origin',(10.5049997518957,25.96,-7.9965218641059));
#1019=CARTESIAN_POINT('',(10.5049997518957,25.96,-14.2034776396854));
#1020=CARTESIAN_POINT('',(10.5049997518957,25.96,-7.9965218641059));
#1021=CARTESIAN_POINT('',(10.5049997518957,25.96,-9.54826080800079));
#1022=CARTESIAN_POINT('',(10.5049997518957,27.56,-14.2034776396854));
#1023=CARTESIAN_POINT('',(10.5049997518957,25.96,-14.2034776396854));
#1024=CARTESIAN_POINT('',(10.5049997518957,27.56,-7.9965218641059));
#1025=CARTESIAN_POINT('',(10.5049997518957,27.56,-14.5999997518957));
#1026=CARTESIAN_POINT('',(10.5049997518957,25.96,-7.9965218641059));
#1027=CARTESIAN_POINT('Origin',(9.22249975189567,27.56,-11.0999997518957));
#1028=CARTESIAN_POINT('Origin',(11.0999997518957,27.56,-11.0999997518957));
#1029=CARTESIAN_POINT('Origin',(11.6949997518957,25.96,-14.2034776396854));
#1030=CARTESIAN_POINT('',(11.6949997518957,25.96,-7.9965218641059));
#1031=CARTESIAN_POINT('',(11.6949997518957,25.96,-14.2034776396854));
#1032=CARTESIAN_POINT('',(11.6949997518957,25.96,-12.6517386957905));
#1033=CARTESIAN_POINT('',(11.6949997518957,27.56,-7.9965218641059));
#1034=CARTESIAN_POINT('',(11.6949997518957,25.96,-7.9965218641059));
#1035=CARTESIAN_POINT('',(11.6949997518957,27.56,-14.2034776396854));
#1036=CARTESIAN_POINT('',(11.6949997518957,27.56,-7.59999975189567));
#1037=CARTESIAN_POINT('',(11.6949997518957,25.96,-14.2034776396854));
#1038=CARTESIAN_POINT('Origin',(12.9774997518957,27.56,-11.0999997518957));
#1039=CARTESIAN_POINT('',(14.2599997518957,27.56,-11.0999997518957));
#1040=CARTESIAN_POINT('Origin',(11.0999997518957,27.56,-11.0999997518957));
#1041=CARTESIAN_POINT('Origin',(11.0999997518957,27.56,-11.0999997518957));
#1042=CARTESIAN_POINT('Origin',(11.0999997518957,14.86,-11.0999997518957));
#1043=CARTESIAN_POINT('',(14.2599997518957,14.86,-11.0999997518957));
#1044=CARTESIAN_POINT('',(14.2599997518957,14.86,-11.0999997518957));
#1045=CARTESIAN_POINT('Origin',(11.0999997518957,14.86,-11.0999997518957));
#1046=CARTESIAN_POINT('Origin',(11.0999997518957,25.96,-11.0999997518957));
#1047=CARTESIAN_POINT('Origin',(11.0999997518957,25.96,-11.0999997518957));
#1048=CARTESIAN_POINT('Origin',(11.0999997518957,25.96,-11.0999997518957));
#1049=CARTESIAN_POINT('Origin',(11.0999997518957,8.51,-11.0999997518957));
#1050=CARTESIAN_POINT('',(15.5999997518957,14.86,-11.0999997518957));
#1051=CARTESIAN_POINT('Origin',(11.0999997518957,14.86,-11.0999997518957));
#1052=CARTESIAN_POINT('',(15.5999997518957,8.51,-11.0999997518957));
#1053=CARTESIAN_POINT('',(15.5999997518957,8.51,-11.0999997518957));
#1054=CARTESIAN_POINT('Origin',(11.0999997518957,8.51,-11.0999997518957));
#1055=CARTESIAN_POINT('Origin',(11.0999997518957,14.86,-11.0999997518957));
#1056=CARTESIAN_POINT('Origin',(22.2,0.,-2.08));
#1057=CARTESIAN_POINT('',(25.07,0.,-2.08));
#1058=CARTESIAN_POINT('',(22.2,0.,-2.08));
#1059=CARTESIAN_POINT('',(25.07,0.,-2.08));
#1060=CARTESIAN_POINT('',(25.07,5.,-2.08));
#1061=CARTESIAN_POINT('',(25.07,0.,-2.08));
#1062=CARTESIAN_POINT('',(22.2,5.,-2.08));
#1063=CARTESIAN_POINT('',(25.07,5.,-2.08));
#1064=CARTESIAN_POINT('',(22.2,0.,-2.08));
#1065=CARTESIAN_POINT('Origin',(25.07,0.,-20.12));
#1066=CARTESIAN_POINT('',(22.2,0.,-20.12));
#1067=CARTESIAN_POINT('',(25.07,0.,-20.12));
#1068=CARTESIAN_POINT('',(-2.87,0.,-20.12));
#1069=CARTESIAN_POINT('',(22.2,5.,-20.12));
#1070=CARTESIAN_POINT('',(22.2,0.,-20.12));
#1071=CARTESIAN_POINT('',(25.07,5.,-20.12));
#1072=CARTESIAN_POINT('',(-2.87,5.,-20.12));
#1073=CARTESIAN_POINT('',(25.07,0.,-20.12));
#1074=CARTESIAN_POINT('Origin',(25.07,0.,-2.08));
#1075=CARTESIAN_POINT('',(25.07,0.,-20.12));
#1076=CARTESIAN_POINT('',(25.07,5.,-20.12));
#1077=CARTESIAN_POINT('Origin',(23.635,5.,-11.1));
#1078=CARTESIAN_POINT('',(22.2,5.,-5.55));
#1079=CARTESIAN_POINT('Origin',(-2.87,0.,-20.12));
#1080=CARTESIAN_POINT('',(-2.87,0.,-2.08));
#1081=CARTESIAN_POINT('',(-2.87,0.,-20.12));
#1082=CARTESIAN_POINT('',(-2.87,0.,-2.08));
#1083=CARTESIAN_POINT('',(-2.87,5.,-2.08));
#1084=CARTESIAN_POINT('',(-2.87,0.,-2.08));
#1085=CARTESIAN_POINT('',(-2.87,5.,-20.12));
#1086=CARTESIAN_POINT('',(-2.87,5.,-2.08));
#1087=CARTESIAN_POINT('',(-2.87,0.,-20.12));
#1088=CARTESIAN_POINT('Origin',(0.,0.,-20.12));
#1089=CARTESIAN_POINT('',(0.,0.,-20.12));
#1090=CARTESIAN_POINT('',(-2.87,0.,-20.12));
#1091=CARTESIAN_POINT('',(0.,5.,-20.12));
#1092=CARTESIAN_POINT('',(-2.87,5.,-20.12));
#1093=CARTESIAN_POINT('',(0.,0.,-20.12));
#1094=CARTESIAN_POINT('Origin',(-2.87,0.,-2.08));
#1095=CARTESIAN_POINT('',(0.,0.,-2.08));
#1096=CARTESIAN_POINT('',(25.07,0.,-2.08));
#1097=CARTESIAN_POINT('',(0.,5.,-2.08));
#1098=CARTESIAN_POINT('',(0.,0.,-2.08));
#1099=CARTESIAN_POINT('',(25.07,5.,-2.08));
#1100=CARTESIAN_POINT('Origin',(-1.435,5.,-11.1));
#1101=CARTESIAN_POINT('',(0.,5.,-16.65));
#1102=CARTESIAN_POINT('Origin',(22.2,0.,-22.2));
#1103=CARTESIAN_POINT('',(22.2,0.,-22.2));
#1104=CARTESIAN_POINT('',(0.,0.,-22.2));
#1105=CARTESIAN_POINT('',(22.2,0.,-22.2));
#1106=CARTESIAN_POINT('',(0.,8.51,-22.2));
#1107=CARTESIAN_POINT('',(0.,0.,-22.2));
#1108=CARTESIAN_POINT('',(22.2,8.51,-22.2));
#1109=CARTESIAN_POINT('',(22.2,8.51,-22.2));
#1110=CARTESIAN_POINT('',(22.2,0.,-22.2));
#1111=CARTESIAN_POINT('Origin',(22.2,0.,0.));
#1112=CARTESIAN_POINT('',(22.2,0.,0.));
#1113=CARTESIAN_POINT('',(22.2,8.51,0.));
#1114=CARTESIAN_POINT('',(22.2,8.51,0.));
#1115=CARTESIAN_POINT('',(22.2,0.,0.));
#1116=CARTESIAN_POINT('',(22.2,0.,0.));
#1117=CARTESIAN_POINT('',(22.2,0.,0.));
#1118=CARTESIAN_POINT('Origin',(0.,0.,0.));
#1119=CARTESIAN_POINT('',(0.,0.,0.));
#1120=CARTESIAN_POINT('',(0.,0.,0.));
#1121=CARTESIAN_POINT('',(0.,8.51,0.));
#1122=CARTESIAN_POINT('',(0.,8.51,0.));
#1123=CARTESIAN_POINT('',(0.,0.,0.));
#1124=CARTESIAN_POINT('Origin',(0.,0.,-22.2));
#1125=CARTESIAN_POINT('',(0.,0.,-22.2));
#1126=CARTESIAN_POINT('',(0.,8.51,-22.2));
#1127=CARTESIAN_POINT('',(0.,0.,-22.2));
#1128=CARTESIAN_POINT('Origin',(11.1,8.51,-11.1));
#1129=CARTESIAN_POINT('Origin',(11.1,0.,-11.1));
#1130=CARTESIAN_POINT('Origin',(23.8,0.,-6.02));
#1131=CARTESIAN_POINT('',(23.48,-3.68,-6.02));
#1132=CARTESIAN_POINT('Origin',(23.8,-3.68,-6.02));
#1133=CARTESIAN_POINT('',(23.48,0.,-6.02));
#1134=CARTESIAN_POINT('',(23.48,0.,-6.02));
#1135=CARTESIAN_POINT('Origin',(23.8,0.,-6.02));
#1136=CARTESIAN_POINT('Origin',(23.8,-3.68,-6.02));
#1137=CARTESIAN_POINT('Origin',(23.8,0.,-6.02));
#1138=CARTESIAN_POINT('Origin',(-1.6,0.,-6.02));
#1139=CARTESIAN_POINT('',(-1.92,-3.68,-6.02));
#1140=CARTESIAN_POINT('Origin',(-1.6,-3.68,-6.02));
#1141=CARTESIAN_POINT('',(-1.92,0.,-6.02));
#1142=CARTESIAN_POINT('',(-1.92,0.,-6.02));
#1143=CARTESIAN_POINT('Origin',(-1.6,0.,-6.02));
#1144=CARTESIAN_POINT('Origin',(-1.6,-3.68,-6.02));
#1145=CARTESIAN_POINT('Origin',(-1.6,0.,-6.02));
#1146=CARTESIAN_POINT('Origin',(23.8,0.,-8.56));
#1147=CARTESIAN_POINT('',(23.48,-3.68,-8.56));
#1148=CARTESIAN_POINT('Origin',(23.8,-3.68,-8.56));
#1149=CARTESIAN_POINT('',(23.48,0.,-8.56));
#1150=CARTESIAN_POINT('',(23.48,0.,-8.56));
#1151=CARTESIAN_POINT('Origin',(23.8,0.,-8.56));
#1152=CARTESIAN_POINT('Origin',(23.8,-3.68,-8.56));
#1153=CARTESIAN_POINT('Origin',(23.8,0.,-8.56));
#1154=CARTESIAN_POINT('Origin',(-1.6,0.,-8.56));
#1155=CARTESIAN_POINT('',(-1.92,-3.68,-8.56));
#1156=CARTESIAN_POINT('Origin',(-1.6,-3.68,-8.56));
#1157=CARTESIAN_POINT('',(-1.92,0.,-8.56));
#1158=CARTESIAN_POINT('',(-1.92,0.,-8.56));
#1159=CARTESIAN_POINT('Origin',(-1.6,0.,-8.56));
#1160=CARTESIAN_POINT('Origin',(-1.6,-3.68,-8.56));
#1161=CARTESIAN_POINT('Origin',(-1.6,0.,-8.56));
#1162=CARTESIAN_POINT('Origin',(23.8,0.,-11.1));
#1163=CARTESIAN_POINT('',(23.48,-3.68,-11.1));
#1164=CARTESIAN_POINT('Origin',(23.8,-3.68,-11.1));
#1165=CARTESIAN_POINT('',(23.48,0.,-11.1));
#1166=CARTESIAN_POINT('',(23.48,0.,-11.1));
#1167=CARTESIAN_POINT('Origin',(23.8,0.,-11.1));
#1168=CARTESIAN_POINT('Origin',(23.8,-3.68,-11.1));
#1169=CARTESIAN_POINT('Origin',(23.8,0.,-11.1));
#1170=CARTESIAN_POINT('Origin',(-1.6,0.,-11.1));
#1171=CARTESIAN_POINT('',(-1.92,-3.68,-11.1));
#1172=CARTESIAN_POINT('Origin',(-1.6,-3.68,-11.1));
#1173=CARTESIAN_POINT('',(-1.92,0.,-11.1));
#1174=CARTESIAN_POINT('',(-1.92,0.,-11.1));
#1175=CARTESIAN_POINT('Origin',(-1.6,0.,-11.1));
#1176=CARTESIAN_POINT('Origin',(-1.6,-3.68,-11.1));
#1177=CARTESIAN_POINT('Origin',(-1.6,0.,-11.1));
#1178=CARTESIAN_POINT('Origin',(23.8,0.,-13.64));
#1179=CARTESIAN_POINT('',(23.48,-3.68,-13.64));
#1180=CARTESIAN_POINT('Origin',(23.8,-3.68,-13.64));
#1181=CARTESIAN_POINT('',(23.48,0.,-13.64));
#1182=CARTESIAN_POINT('',(23.48,0.,-13.64));
#1183=CARTESIAN_POINT('Origin',(23.8,0.,-13.64));
#1184=CARTESIAN_POINT('Origin',(23.8,-3.68,-13.64));
#1185=CARTESIAN_POINT('Origin',(23.8,0.,-13.64));
#1186=CARTESIAN_POINT('Origin',(-1.6,0.,-13.64));
#1187=CARTESIAN_POINT('',(-1.92,-3.68,-13.64));
#1188=CARTESIAN_POINT('Origin',(-1.6,-3.68,-13.64));
#1189=CARTESIAN_POINT('',(-1.92,0.,-13.64));
#1190=CARTESIAN_POINT('',(-1.92,0.,-13.64));
#1191=CARTESIAN_POINT('Origin',(-1.6,0.,-13.64));
#1192=CARTESIAN_POINT('Origin',(-1.6,-3.68,-13.64));
#1193=CARTESIAN_POINT('Origin',(-1.6,0.,-13.64));
#1194=CARTESIAN_POINT('Origin',(23.8,0.,-16.18));
#1195=CARTESIAN_POINT('',(23.48,-3.68,-16.18));
#1196=CARTESIAN_POINT('Origin',(23.8,-3.68,-16.18));
#1197=CARTESIAN_POINT('',(23.48,0.,-16.18));
#1198=CARTESIAN_POINT('',(23.48,0.,-16.18));
#1199=CARTESIAN_POINT('Origin',(23.8,0.,-16.18));
#1200=CARTESIAN_POINT('Origin',(23.8,-3.68,-16.18));
#1201=CARTESIAN_POINT('Origin',(23.8,0.,-16.18));
#1202=CARTESIAN_POINT('Origin',(-1.6,0.,-16.18));
#1203=CARTESIAN_POINT('',(-1.92,-3.68,-16.18));
#1204=CARTESIAN_POINT('Origin',(-1.6,-3.68,-16.18));
#1205=CARTESIAN_POINT('',(-1.92,0.,-16.18));
#1206=CARTESIAN_POINT('',(-1.92,0.,-16.18));
#1207=CARTESIAN_POINT('Origin',(-1.6,0.,-16.18));
#1208=CARTESIAN_POINT('Origin',(-1.6,-3.68,-16.18));
#1209=CARTESIAN_POINT('Origin',(-1.6,0.,-16.18));
#1210=UNCERTAINTY_MEASURE_WITH_UNIT(LENGTH_MEASURE(0.01),#1214,
'DISTANCE_ACCURACY_VALUE',
'Maximum model space distance between geometric entities at asserted c
onnectivities');
#1211=UNCERTAINTY_MEASURE_WITH_UNIT(LENGTH_MEASURE(0.01),#1214,
'DISTANCE_ACCURACY_VALUE',
'Maximum model space distance between geometric entities at asserted c
onnectivities');
#1212=(
GEOMETRIC_REPRESENTATION_CONTEXT(3)
GLOBAL_UNCERTAINTY_ASSIGNED_CONTEXT((#1210))
GLOBAL_UNIT_ASSIGNED_CONTEXT((#1214,#1216,#1217))
REPRESENTATION_CONTEXT('','3D')
);
#1213=(
GEOMETRIC_REPRESENTATION_CONTEXT(3)
GLOBAL_UNCERTAINTY_ASSIGNED_CONTEXT((#1211))
GLOBAL_UNIT_ASSIGNED_CONTEXT((#1214,#1216,#1217))
REPRESENTATION_CONTEXT('','3D')
);
#1214=(
LENGTH_UNIT()
NAMED_UNIT(*)
SI_UNIT(.MILLI.,.METRE.)
);
#1215=(
LENGTH_UNIT()
NAMED_UNIT(*)
SI_UNIT($,.METRE.)
);
#1216=(
NAMED_UNIT(*)
PLANE_ANGLE_UNIT()
SI_UNIT($,.RADIAN.)
);
#1217=(
NAMED_UNIT(*)
SI_UNIT($,.STERADIAN.)
SOLID_ANGLE_UNIT()
);
#1218=SHAPE_DEFINITION_REPRESENTATION(#1219,#1220);
#1219=PRODUCT_DEFINITION_SHAPE('',$,#1222);
#1220=SHAPE_REPRESENTATION('',(#718),#1212);
#1221=PRODUCT_DEFINITION_CONTEXT('part definition',#1226,'design');
#1222=PRODUCT_DEFINITION('2025-11-18-17-44-20-893','Rotary encoder',#1223,
#1221);
#1223=PRODUCT_DEFINITION_FORMATION('',$,#1228);
#1224=PRODUCT_RELATED_PRODUCT_CATEGORY('Rotary encoder',
'Rotary encoder',(#1228));
#1225=APPLICATION_PROTOCOL_DEFINITION('international standard',
'automotive_design',2009,#1226);
#1226=APPLICATION_CONTEXT(
'Core Data for Automotive Mechanical Design Process');
#1227=PRODUCT_CONTEXT('part definition',#1226,'mechanical');
#1228=PRODUCT('2025-11-18-17-44-20-893','Rotary encoder',$,(#1227));
#1229=PRESENTATION_STYLE_ASSIGNMENT((#1230));
#1230=SURFACE_STYLE_USAGE(.BOTH.,#1231);
#1231=SURFACE_SIDE_STYLE('',(#1232));
#1232=SURFACE_STYLE_FILL_AREA(#1233);
#1233=FILL_AREA_STYLE('Steel - Satin',(#1234));
#1234=FILL_AREA_STYLE_COLOUR('Steel - Satin',#1235);
#1235=COLOUR_RGB('Steel - Satin',0.627450980392157,0.627450980392157,0.627450980392157);
ENDSEC;
END-ISO-10303-21;
